<svg width="48" height="48" viewBox="0 0 48 48" fill="none" xmlns="http://www.w3.org/2000/svg">
<mask id="mask0_3005_13847" style="mask-type:alpha" maskUnits="userSpaceOnUse" x="0" y="0" width="48" height="48">
<rect width="48" height="48" fill="#D9D9D9"/>
</mask>
<g mask="url(#mask0_3005_13847)">
<path d="M11.5871 41.7999C9.52878 41.7999 7.78711 41.0894 6.36211 39.6684C4.93711 38.2473 4.22461 36.4995 4.22461 34.4249C4.22461 32.3749 4.93513 30.6374 6.35616 29.2124C7.77719 27.7874 9.52501 27.0749 11.5996 27.0749C13.6496 27.0749 15.3871 27.7874 16.8121 29.2124C18.2371 30.6374 18.9496 32.3791 18.9496 34.4374C18.9496 36.4957 18.2371 38.2374 16.8121 39.6624C15.3871 41.0874 13.6454 41.7999 11.5871 41.7999ZM36.4621 41.7999C34.4038 41.7999 32.6621 41.0894 31.2371 39.6684C29.8121 38.2473 29.0996 36.4995 29.0996 34.4249C29.0996 32.3749 29.8101 30.6374 31.2312 29.2124C32.6522 27.7874 34.4 27.0749 36.4746 27.0749C38.5246 27.0749 40.2621 27.7874 41.6871 29.2124C43.1121 30.6374 43.8246 32.3791 43.8246 34.4374C43.8246 36.4957 43.1121 38.2374 41.6871 39.6624C40.2621 41.0874 38.5204 41.7999 36.4621 41.7999ZM11.5952 38.9249C12.8079 38.9249 13.8577 38.4847 14.7445 37.6044C15.6312 36.724 16.0746 35.6656 16.0746 34.4294C16.0746 33.2166 15.6327 32.1668 14.7489 31.2801C13.8651 30.3933 12.8126 29.9499 11.5916 29.9499C10.3705 29.9499 9.31653 30.3918 8.42976 31.2757C7.54299 32.1595 7.09961 33.2119 7.09961 34.433C7.09961 35.6541 7.53979 36.708 8.42016 37.5948C9.30056 38.4815 10.3589 38.9249 11.5952 38.9249ZM36.4702 38.9249C37.6829 38.9249 38.7327 38.4847 39.6195 37.6044C40.5062 36.724 40.9496 35.6656 40.9496 34.4294C40.9496 33.2166 40.5077 32.1668 39.6239 31.2801C38.7401 30.3933 37.6876 29.9499 36.4666 29.9499C35.2455 29.9499 34.1915 30.3918 33.3048 31.2757C32.418 32.1595 31.9746 33.2119 31.9746 34.433C31.9746 35.6541 32.4148 36.708 33.2952 37.5948C34.1756 38.4815 35.2339 38.9249 36.4702 38.9249ZM24.0496 20.8999C21.9829 20.8999 20.2371 20.1874 18.8121 18.7624C17.3871 17.3374 16.6746 15.5916 16.6746 13.5249C16.6746 11.4582 17.3871 9.7124 18.8121 8.2874C20.2371 6.8624 21.9829 6.1499 24.0496 6.1499C26.1163 6.1499 27.8621 6.8624 29.2871 8.2874C30.7121 9.7124 31.4246 11.4582 31.4246 13.5249C31.4246 15.5916 30.7121 17.3374 29.2871 18.7624C27.8621 20.1874 26.1163 20.8999 24.0496 20.8999ZM24.0452 18.0249C25.2815 18.0249 26.3413 17.5847 27.2246 16.7044C28.1079 15.824 28.5496 14.7656 28.5496 13.5294C28.5496 12.2931 28.1094 11.2332 27.2291 10.3499C26.3487 9.46657 25.2903 9.0249 24.0541 9.0249C22.8178 9.0249 21.7579 9.46509 20.8746 10.3455C19.9913 11.2259 19.5496 12.2842 19.5496 13.5205C19.5496 14.7568 19.9898 15.8166 20.8702 16.6999C21.7506 17.5832 22.8089 18.0249 24.0452 18.0249Z" fill="white"/>
</g>
</svg>
