<?xml version="1.0" encoding="UTF-8" standalone="no"?>
<svg
   width="12"
   height="24"
   viewBox="0 0 12 24"
   fill="none"
   version="1.1"
   id="svg1"
   xmlns="http://www.w3.org/2000/svg"
   xmlnsSvg="http://www.w3.org/2000/svg">
  <defs
     id="defs1" />
  <path
     d="M7.29426 12.9502C8.72398 13.3106 9.9429 14.2436 10.6638 15.5309C11.1993 16.3737 11.4773 17.3545 11.4632 18.3531C11.4689 20.1297 10.6239 21.8016 9.18991 22.8506L9.18864 22.8515L9.18863 22.8515C8.23295 23.5057 7.10418 23.8603 5.94599 23.87C5.94596 23.87 5.94593 23.87 5.9459 23.87L5.94548 23.82C5.00638 23.8297 4.08241 23.5844 3.27198 23.1102L7.29426 12.9502ZM7.29426 12.9502L7.29412 12.9495L7.26307 12.9422C7.01837 12.885 6.76987 12.8452 6.51951 12.8234V9.33415C7.80974 9.29165 9.03742 8.76498 9.95763 7.85789L9.95818 7.85734C10.8197 6.98099 11.2381 5.88567 11.441 4.9981C11.6429 4.11522 11.6325 3.43409 11.631 3.36996C11.631 3.3696 11.6309 3.36926 11.6309 3.36894L11.6309 3.36871C11.6242 3.10096 11.4333 2.87319 11.1708 2.81994L11.1705 2.8199C9.67893 2.52443 8.13503 2.91604 6.9655 3.88306C6.70726 2.65435 5.99051 1.56881 4.95956 0.848576L4.95958 0.848552L4.95816 0.847629C4.03332 0.247098 3.01448 0.108531 2.2175 0.122852C1.42155 0.137153 0.843019 0.303989 0.792249 0.319633C0.562439 0.388514 0.399555 0.593173 0.383799 0.832593L0.383794 0.832673C0.258236 2.78818 0.732291 4.30104 1.80124 5.31862L1.80121 5.31865L1.80284 5.32007C2.79146 6.18294 4.06032 6.6551 5.37127 6.64943V12.829C3.56345 12.9981 1.95833 14.06 1.09583 15.6603C0.750633 16.2627 0.541321 16.9333 0.482663 17.6252C0.405341 17.86 0.371602 18.1069 0.382649 18.3537C0.371226 19.3401 0.632869 20.3106 1.13839 21.1576C1.64395 22.0047 2.37397 22.6956 3.24774 23.1539L7.29426 12.9502ZM5.98644 4.81791C5.79663 5.03396 5.62207 5.26289 5.46404 5.50319C4.4151 5.52548 3.39395 5.16399 2.59257 4.48597C1.86146 3.78933 1.49627 2.73443 1.51309 1.33663C2.48233 1.15306 3.48568 1.32298 4.3409 1.81598C5.20086 2.37772 5.75373 3.38647 5.98644 4.81791ZM5.94525 22.7216L5.94497 22.7216C5.19551 22.7327 4.4575 22.5364 3.81261 22.1542L3.81265 22.1541L3.81018 22.1528C3.11622 21.7921 2.53571 21.2461 2.13348 20.5754C1.73109 19.9045 1.5226 19.1352 1.5313 18.3532L1.53146 18.3532L1.53119 18.3493C1.5236 18.2369 1.53456 18.1241 1.56358 18.0152C1.59588 17.9491 1.61509 17.8773 1.62016 17.8038L1.62017 17.8036C1.6567 17.2458 1.82031 16.7037 2.09888 16.219L2.0989 16.219L2.09959 16.2177C2.47207 15.5234 3.02725 14.9441 3.70492 14.5421C4.38275 14.1403 5.15735 13.9313 5.94532 13.9377L5.94603 13.9377C6.2975 13.9356 6.64794 13.9759 6.98986 14.0576C8.1347 14.3412 9.10958 15.089 9.68003 16.1215L9.67994 16.1216L9.68166 16.1243C10.1062 16.7889 10.3263 17.5634 10.315 18.3519L10.315 18.3528C10.3209 19.7562 9.65746 21.0781 8.52868 21.9118C7.76661 22.4313 6.86746 22.7131 5.94525 22.7216ZM7.81646 4.68863C8.48956 4.2014 9.38524 3.79841 10.4603 3.87849C10.3812 5.05275 9.91705 6.1685 9.13905 7.05253C8.43376 7.73841 7.5012 8.14031 6.51951 8.18271V5.99128C6.6977 5.7428 7.14494 5.17473 7.81646 4.68863Z"
     fill="#613ED2"
     stroke="#613ED2"
     stroke-width="0.1"
     id="path1" />
  <path
     style="fill:#000000;stroke-width:0.0230548"
     d="m 5.9135447,23.8803 c 0,-0.02263 -0.053209,-0.03027 -0.2132565,-0.0306 C 5.0706414,23.848364 4.2350227,23.637886 3.5897637,23.318086 3.4211945,23.234543 3.2780484,23.174642 3.2716618,23.184975 3.2473724,23.224277 2.6850801,22.874775 2.375586,22.628006 1.4461471,21.886935 0.7599176,20.798978 0.48530098,19.631124 0.39227611,19.23552 0.35183607,18.872581 0.34915191,18.409222 c -0.002115,-0.365041 0.004647,-0.454757 0.0469162,-0.622478 0.0271628,-0.107781 0.0667581,-0.315274 0.0879896,-0.461096 0.0798628,-0.54851 0.22388328,-0.988359 0.49969441,-1.526103 C 1.8246858,14.159993 3.328948,13.076784 5.1181556,12.822389 l 0.2074928,-0.0295 0.00585,-3.0460716 0.00585,-3.046071 -0.1211221,-0.01228 C 5.1496058,6.681712 4.9968901,6.6700438 4.8768546,6.6625365 4.0735149,6.6122935 3.127961,6.2863919 2.3861671,5.8040779 1.2578738,5.070462 0.61617646,3.9913635 0.38794466,2.443804 0.35587942,2.226381 0.34700212,2.0137929 0.3464825,1.4508946 L 0.34582133,0.73464224 0.41546498,0.59838979 C 0.54845533,0.33820445 0.73825259,0.25591977 1.4628899,0.14428934 c 0.4239752,-0.0653134 1.2476876,-0.07032068 1.6379747,-0.009957 0.8545321,0.13216581 1.536788,0.41063283 2.1209842,0.86569306 0.7968322,0.6206932 1.4502773,1.61078 1.7098907,2.5907915 0.029386,0.1109298 0.06119,0.2016904 0.070674,0.2016904 0.00948,0 0.077014,-0.045263 0.1500666,-0.1005849 C 7.767022,3.226536 8.5410937,2.8972367 9.3602305,2.7527186 9.610122,2.708631 9.7442538,2.6996569 10.167147,2.6987322 c 1.024553,-0.00224 1.357011,0.11792 1.478029,0.5342066 0.02963,0.1019371 0.03436,0.1826552 0.02252,0.3846354 -0.08008,1.3659064 -0.452862,2.5795642 -1.080252,3.516983 C 9.749247,8.3869501 8.3786852,9.1955099 6.8299712,9.351268 L 6.5590778,9.378512 v 1.70163 1.70163 l 0.074928,0.01178 c 0.04121,0.0065 0.1527377,0.02338 0.2478386,0.03756 0.8134704,0.121273 1.6501699,0.485099 2.3928152,1.040478 0.2947115,0.220397 0.7770734,0.705957 1.0110644,1.01777 0.227193,0.302751 0.563647,0.860706 0.723958,1.200565 0.231798,0.491411 0.405431,1.113224 0.462596,1.656642 0.03869,0.367766 0.01443,1.18175 -0.04551,1.527212 -0.09967,0.574472 -0.24392,1.021332 -0.498621,1.544669 -0.171152,0.351667 -0.43392,0.769064 -0.667637,1.060519 -0.181435,0.226255 -0.5853082,0.62951 -0.8311192,0.829846 C 8.8549386,23.176991 7.974599,23.587232 7.1585014,23.767052 6.6702455,23.874635 5.9135447,23.943467 5.9135447,23.8803 Z M 5.2385148,18.035442 c 0.8650451,-2.183255 1.5695836,-3.972781 1.5656415,-3.976723 -0.00394,-0.0039 -0.1255389,-0.02378 -0.2702151,-0.04407 -0.3230132,-0.04532 -1.0578624,-0.03295 -1.3547799,0.0228 -1.4202089,0.266689 -2.5289125,1.116455 -3.1621702,2.423646 -0.187955,0.387983 -0.2955535,0.765654 -0.3453272,1.212099 -0.013324,0.119513 -0.040808,0.267798 -0.061075,0.329523 -0.053921,0.164223 -0.033023,0.854229 0.036317,1.199094 0.1831863,0.911091 0.681082,1.772985 1.3628553,2.359204 0.2122386,0.182492 0.5849625,0.445063 0.6307834,0.444366 0.013839,-2.11e-4 0.7329259,-1.786684 1.5979702,-3.969939 z M 7.0589079,8.0790889 C 7.9446052,7.9268055 8.8367534,7.4100002 9.3246762,6.7665706 9.7789985,6.1674501 10.078817,5.5552101 10.261752,4.8530259 10.326683,4.603793 10.409211,4.1231802 10.409217,3.9942363 l 5e-6,-0.086455 -0.224784,4.5e-4 C 9.752068,3.9090967 9.2444247,4.0059032 8.8494206,4.1628154 8.0685662,4.473004 7.3085346,5.0551295 6.7146974,5.7978483 L 6.5590778,5.9924837 v 1.0753019 1.0753017 l 0.1210375,-0.00984 c 0.066571,-0.00541 0.2370273,-0.029783 0.3787926,-0.054158 z M 5.6335562,5.204611 C 5.7365146,5.0682997 5.8487926,4.9222193 5.8830631,4.8799876 l 0.06231,-0.076785 -0.051902,-0.2663115 C 5.6682589,3.3813051 5.1759006,2.4867391 4.4745577,1.958866 4.2822718,1.8141399 3.8683776,1.6096651 3.5729582,1.5134516 3.0165125,1.3322261 2.4129134,1.2658097 1.8674352,1.3257863 1.5274861,1.3631644 1.556196,1.3390494 1.556196,1.5872132 c 0,0.2981683 0.038888,0.6674893 0.1054091,1.0010653 0.1954949,0.9803322 0.6279814,1.6820046 1.3230128,2.1464752 0.668172,0.446521 1.4776442,0.7091227 2.2054204,0.7154628 l 0.2563207,0.00223 z"
     id="path2" />
</svg>
