<svg width="84" height="83" viewBox="0 0 84 83" fill="none" xmlns="http://www.w3.org/2000/svg">
<circle cx="42" cy="41.3398" r="40.8398" fill="#FAFAFA" stroke="#EEEEEE"/>
<path d="M58.199 31.3381H26.4483C26.1727 31.3381 25.9319 31.1461 25.8641 30.8712C25.7964 30.5964 25.9198 30.3105 26.1625 30.1755L42.0382 21.4133C42.2164 21.3154 42.4301 21.3154 42.6084 21.4133L58.4847 30.1762C58.7275 30.3101 58.8509 30.5971 58.7831 30.8719C58.7157 31.1457 58.4748 31.3386 58.1993 31.3386L58.199 31.3381ZM28.8396 30.1021H55.807L42.324 22.6596L28.8396 30.1021Z" fill="#2D355A"/>
<path d="M58.6461 57.3434H26.0042C25.672 57.3434 25.4023 57.0666 25.4023 56.7255V54.7419C25.4023 53.6174 26.2929 52.7031 27.3883 52.7031H57.2624C58.3578 52.7031 59.2483 53.6174 59.2483 54.7419V56.7255C59.2483 57.0666 58.9785 57.3434 58.6462 57.3434H58.6461ZM58.0431 56.1076V54.7419C58.0431 54.2995 57.6929 53.9392 57.2612 53.9392L27.3878 53.9389C26.9569 53.9389 26.6058 54.2984 26.6058 54.7416L26.6055 56.1076H58.0432L58.0431 56.1076Z" fill="#2D355A"/>
<path d="M56.8173 53.9413C56.4851 53.9413 56.2154 53.6645 56.2154 53.3234V51.3395C56.2154 50.8972 55.8652 50.5368 55.4335 50.5368H29.2128C28.7819 50.5368 28.4308 50.8964 28.4308 51.3395V53.3231C28.4308 53.6642 28.1612 53.941 27.829 53.941C27.4967 53.941 27.2271 53.6642 27.2271 53.3231L27.2266 51.3395C27.2266 50.215 28.1171 49.3008 29.2125 49.3008H55.4339C56.5293 49.3008 57.4198 50.215 57.4198 51.3395V53.3231C57.4193 53.6645 57.1494 53.9413 56.8172 53.9413L56.8173 53.9413Z" fill="#2D355A"/>
<path d="M34.262 34.1946H30.671C29.8838 34.1946 29.2441 33.5378 29.2441 32.7298V30.7194C29.2441 30.3784 29.5138 30.1016 29.846 30.1016C30.1783 30.1016 30.4479 30.3784 30.4479 30.7194V32.7298C30.4479 32.8554 30.5473 32.9586 30.6707 32.9586H34.2618C34.3841 32.9586 34.4846 32.8565 34.4846 32.7298V30.7194C34.4846 30.3784 34.7542 30.1016 35.0865 30.1016C35.4187 30.1016 35.6884 30.3784 35.6884 30.7194V32.7298C35.6889 33.5379 35.0491 34.1946 34.262 34.1946Z" fill="#2D355A"/>
<path d="M44.1214 34.1946H40.5303C39.7432 34.1946 39.1035 33.5378 39.1035 32.7298V30.7194C39.1035 30.3784 39.3731 30.1016 39.7054 30.1016C40.0376 30.1016 40.3072 30.3784 40.3072 30.7194V32.7298C40.3072 32.8554 40.4067 32.9586 40.5301 32.9586H44.1212C44.2435 32.9586 44.344 32.8565 44.344 32.7298V30.7194C44.344 30.3784 44.6136 30.1016 44.9459 30.1016C45.2781 30.1016 45.5477 30.3784 45.5477 30.7194V32.7298C45.5483 33.5379 44.9082 34.1946 44.1214 34.1946Z" fill="#2D355A"/>
<path d="M53.9788 34.1946H50.3878C49.6006 34.1946 48.9609 33.5378 48.9609 32.7298V30.7194C48.9609 30.3784 49.2306 30.1016 49.5628 30.1016C49.8951 30.1016 50.1647 30.3784 50.1647 30.7194V32.7298C50.1647 32.8554 50.2641 32.9586 50.3875 32.9586H53.9786C54.1009 32.9586 54.2014 32.8565 54.2014 32.7298V30.7194C54.2014 30.3784 54.471 30.1016 54.8033 30.1016C55.1355 30.1016 55.4051 30.3784 55.4051 30.7194V32.7298C55.4057 33.5379 54.7659 34.1946 53.9788 34.1946Z" fill="#2D355A"/>
<path d="M35.0884 50.5425C34.7562 50.5425 34.4866 50.2657 34.4866 49.9246V47.9143C34.4866 47.7887 34.3871 47.6855 34.2637 47.6855H30.6727C30.5504 47.6855 30.4498 47.7876 30.4498 47.9143V49.9244C30.4498 50.2654 30.1802 50.5422 29.848 50.5422C29.5157 50.5422 29.2461 50.2654 29.2461 49.9244V47.914C29.2461 47.1059 29.8859 46.4492 30.6729 46.4492H34.264C35.0511 46.4492 35.6908 47.106 35.6908 47.914L35.6905 49.9244C35.6905 50.2657 35.4209 50.5425 35.0884 50.5425L35.0884 50.5425Z" fill="#2D355A"/>
<path d="M44.9459 50.5425C44.6136 50.5425 44.344 50.2657 44.344 49.9246V47.9143C44.344 47.7887 44.2445 47.6855 44.1212 47.6855H40.5301C40.4078 47.6855 40.3072 47.7876 40.3072 47.9143V49.9244C40.3072 50.2654 40.0376 50.5422 39.7054 50.5422C39.3731 50.5422 39.1035 50.2654 39.1035 49.9244V47.914C39.1035 47.1059 39.7433 46.4492 40.5303 46.4492H44.1214C44.9085 46.4492 45.5482 47.106 45.5482 47.914L45.5479 49.9244C45.5479 50.2657 45.2781 50.5425 44.9458 50.5425L44.9459 50.5425Z" fill="#2D355A"/>
<path d="M54.8036 50.5425C54.4713 50.5425 54.2017 50.2657 54.2017 49.9246V47.9143C54.2017 47.7887 54.1022 47.6855 53.9788 47.6855H50.3878C50.2655 47.6855 50.1649 47.7876 50.1649 47.9143L50.1647 49.9244C50.1647 50.2654 49.8951 50.5422 49.5628 50.5422C49.2306 50.5422 48.9609 50.2654 48.9609 49.9244V47.914C48.9609 47.1059 49.6007 46.4492 50.3878 46.4492H53.9788C54.7659 46.4492 55.4056 47.106 55.4056 47.914L55.4054 49.9244C55.4054 50.2657 55.1357 50.5425 54.8035 50.5425L54.8036 50.5425Z" fill="#2D355A"/>
<path d="M31.1566 47.6837C30.8243 47.6837 30.5547 47.4069 30.5547 47.0658V33.5788C30.5547 33.2377 30.8243 32.9609 31.1566 32.9609C31.4888 32.9609 31.7584 33.2377 31.7584 33.5788V47.0651C31.7587 47.4062 31.4888 47.6832 31.1566 47.6832V47.6837Z" fill="#2D355A"/>
<path d="M33.776 47.6837C33.4437 47.6837 33.1741 47.4069 33.1741 47.0658L33.1738 33.5788C33.1738 33.2377 33.4434 32.9609 33.7757 32.9609C34.1079 32.9609 34.3776 33.2377 34.3776 33.5788V47.0651C34.3778 47.4062 34.1082 47.6832 33.776 47.6832V47.6837Z" fill="#2D355A"/>
<path d="M43.637 47.6837C43.3048 47.6837 43.0352 47.4069 43.0352 47.0658V33.5788C43.0352 33.2377 43.3048 32.9609 43.637 32.9609C43.9693 32.9609 44.2389 33.2377 44.2389 33.5788V47.0651C44.2392 47.4062 43.9695 47.6832 43.637 47.6832V47.6837Z" fill="#2D355A"/>
<path d="M41.0162 47.6837C40.6839 47.6837 40.4143 47.4069 40.4143 47.0658L40.4141 33.5788C40.4141 33.2377 40.6837 32.9609 41.0159 32.9609C41.3482 32.9609 41.6178 33.2377 41.6178 33.5788V47.0651C41.6181 47.4062 41.3495 47.6832 41.0162 47.6832V47.6837Z" fill="#2D355A"/>
<path d="M50.8753 47.6837C50.5431 47.6837 50.2734 47.4069 50.2734 47.0658V33.5788C50.2734 33.2377 50.5431 32.9609 50.8753 32.9609C51.2076 32.9609 51.4772 33.2377 51.4772 33.5788V47.0651C51.4774 47.4062 51.2076 47.6832 50.8753 47.6832V47.6837Z" fill="#2D355A"/>
<path d="M53.4908 47.6837C53.1586 47.6837 52.8889 47.4069 52.8889 47.0658L52.8887 33.5788C52.8887 33.2377 53.1583 32.9609 53.4905 32.9609C53.8228 32.9609 54.0924 33.2377 54.0924 33.5788V47.0651C54.0927 47.4062 53.8231 47.6832 53.4908 47.6832V47.6837Z" fill="#2D355A"/>
<path d="M42.3242 29.2532C40.9552 29.2532 39.8418 28.1102 39.8418 26.7047C39.8418 25.2993 40.9552 24.1563 42.3242 24.1563C43.6933 24.156 44.8067 25.299 44.8067 26.7047C44.8067 28.1102 43.6933 29.2532 42.3242 29.2532ZM42.3242 25.392C41.6197 25.392 41.0458 25.9803 41.0458 26.7044C41.0458 27.4286 41.6189 28.0169 42.3242 28.0169C43.0288 28.0169 43.6027 27.4286 43.6027 26.7044C43.6027 25.9803 43.0288 25.392 42.3242 25.392Z" fill="#2D355A"/>
<path d="M23.092 59.2784C23.0904 59.2793 23.0888 59.2801 23.0866 59.2806C23.0844 59.2812 23.0823 59.2817 23.0801 59.2817C23.0741 59.2817 23.0695 59.2801 23.066 59.2762C23.0622 59.2727 23.0605 59.268 23.0605 59.262C23.0605 59.2562 23.0622 59.2515 23.066 59.2477C23.0695 59.2441 23.0741 59.2422 23.0801 59.2422C23.0823 59.2422 23.0844 59.2427 23.0866 59.2433C23.0888 59.2441 23.0904 59.2449 23.092 59.2455V59.2532C23.0904 59.2518 23.0888 59.251 23.0866 59.251C23.085 59.2504 23.0834 59.2499 23.0812 59.2499C23.0782 59.2499 23.0758 59.251 23.0736 59.2532C23.0719 59.2554 23.0714 59.2584 23.0714 59.262C23.0714 59.2658 23.0719 59.2685 23.0736 59.2707C23.0758 59.2729 23.0782 59.274 23.0812 59.274H23.0866C23.0888 59.2735 23.0904 59.2724 23.092 59.2707V59.2784Z" fill="#2D355A"/>
<path d="M23.1196 59.2513C23.1196 59.2507 23.119 59.2502 23.1185 59.2502C23.1176 59.2496 23.1168 59.249 23.1163 59.249C23.1132 59.249 23.111 59.2502 23.1096 59.2524C23.1088 59.2541 23.1085 59.2559 23.1085 59.2581V59.2718H23.0996V59.2433H23.1085V59.2479C23.1099 59.2456 23.111 59.2442 23.1118 59.2433C23.1132 59.2428 23.1151 59.2422 23.1174 59.2422H23.1185H23.1196V59.2513Z" fill="#2D355A"/>
<path d="M23.1511 59.257V59.2604H23.13C23.1305 59.2627 23.1314 59.2644 23.1322 59.265C23.1336 59.2658 23.1355 59.2661 23.1377 59.2661C23.14 59.2661 23.1416 59.2658 23.1433 59.265C23.1455 59.2644 23.1477 59.2635 23.15 59.2627V59.2707C23.1477 59.2707 23.1455 59.2712 23.1433 59.2718C23.1416 59.2724 23.14 59.2729 23.1377 59.2729C23.1316 59.2729 23.1272 59.2715 23.1244 59.2684C23.1222 59.2655 23.1211 59.2621 23.1211 59.2581C23.1211 59.253 23.1222 59.249 23.1244 59.2467C23.1272 59.2439 23.1314 59.2422 23.1366 59.2422C23.1411 59.2422 23.1444 59.2439 23.1466 59.2467C23.1494 59.249 23.1511 59.2524 23.1511 59.257L23.1511 59.257ZM23.1422 59.2547C23.1422 59.2524 23.1414 59.251 23.14 59.2502C23.1391 59.2496 23.138 59.249 23.1366 59.249C23.135 59.249 23.1336 59.2496 23.1322 59.2502C23.1314 59.251 23.1305 59.2524 23.13 59.2547H23.1422Z" fill="#2D355A"/>
<path d="M23.1668 59.2581C23.1651 59.2581 23.1637 59.259 23.1623 59.2604C23.1615 59.2613 23.1612 59.2621 23.1612 59.2627C23.1612 59.2635 23.1615 59.2644 23.1623 59.265C23.1629 59.2658 23.164 59.2661 23.1657 59.2661C23.1679 59.2661 23.1693 59.2658 23.1701 59.265C23.1715 59.2635 23.1723 59.2621 23.1723 59.2604V59.2581H23.1668ZM23.1801 59.2559V59.2718H23.1723V59.2672C23.1707 59.2695 23.1693 59.2712 23.1679 59.2718C23.1662 59.2724 23.1646 59.2729 23.1623 59.2729C23.1593 59.2729 23.1568 59.2721 23.1546 59.2707C23.1529 59.2684 23.1523 59.2658 23.1523 59.2627C23.1523 59.2598 23.1535 59.2576 23.1557 59.2559C23.1579 59.2544 23.1612 59.2536 23.1657 59.2536H23.1723V59.2524C23.1723 59.251 23.1715 59.2502 23.1701 59.2502C23.1693 59.2496 23.1673 59.249 23.1646 59.249H23.159C23.1573 59.249 23.156 59.2496 23.1546 59.2502V59.2433H23.1601C23.1623 59.2428 23.164 59.2422 23.1657 59.2422C23.1715 59.2422 23.1751 59.2433 23.1768 59.2456C23.179 59.2479 23.1801 59.2513 23.1801 59.2559L23.1801 59.2559Z" fill="#2D355A"/>
<path d="M23.2005 59.2422V59.2511H23.2091V59.2566H23.2005V59.2688V59.2721H23.2037H23.208V59.2788H23.2016C23.1978 59.2788 23.1951 59.2782 23.1929 59.2766C23.1913 59.2752 23.1907 59.2727 23.1907 59.2688V59.2566H23.1875V59.2511H23.1907V59.2422L23.2005 59.2422Z" fill="#2D355A"/>
<path d="M23.2409 59.257V59.2604H23.2198C23.2204 59.2627 23.2212 59.2644 23.222 59.265C23.2234 59.2658 23.2254 59.2661 23.2276 59.2661C23.2298 59.2661 23.2315 59.2658 23.2331 59.265C23.2354 59.2644 23.2376 59.2635 23.2398 59.2627V59.2707C23.2376 59.2707 23.2354 59.2712 23.2331 59.2718C23.2315 59.2724 23.2298 59.2729 23.2276 59.2729C23.2215 59.2729 23.217 59.2715 23.2143 59.2684C23.212 59.2655 23.2109 59.2621 23.2109 59.2581C23.2109 59.253 23.212 59.249 23.2143 59.2467C23.217 59.2439 23.2212 59.2422 23.2265 59.2422C23.2309 59.2422 23.2342 59.2439 23.2365 59.2467C23.2392 59.249 23.2409 59.2524 23.2409 59.257L23.2409 59.257ZM23.232 59.2547C23.232 59.2524 23.2312 59.251 23.2298 59.2502C23.229 59.2496 23.2279 59.249 23.2265 59.249C23.2248 59.249 23.2234 59.2496 23.222 59.2502C23.2212 59.251 23.2204 59.2524 23.2198 59.2547H23.232Z" fill="#2D355A"/>
<path d="M23.2648 59.2565V59.2422H23.2735V59.2806H23.2648V59.2762C23.264 59.2784 23.2626 59.2801 23.2604 59.2806C23.2588 59.2812 23.2574 59.2817 23.2561 59.2817C23.2523 59.2817 23.2496 59.2804 23.2474 59.2773C23.2452 59.2746 23.2441 59.2713 23.2441 59.2674C23.2441 59.2625 23.2452 59.2587 23.2474 59.2565C23.2496 59.2537 23.2523 59.2521 23.2561 59.2521C23.2574 59.2521 23.2588 59.2526 23.2604 59.2532C23.2626 59.254 23.264 59.2551 23.2648 59.2565V59.2565ZM23.2593 59.2751C23.2607 59.2751 23.2618 59.2746 23.2626 59.2729C23.264 59.2716 23.2648 59.2696 23.2648 59.2674C23.2648 59.2647 23.264 59.2625 23.2626 59.2609C23.2618 59.2595 23.2607 59.2587 23.2593 59.2587C23.2572 59.2587 23.2553 59.2595 23.2539 59.2609C23.2531 59.2625 23.2528 59.2647 23.2528 59.2674C23.2528 59.2696 23.2531 59.2716 23.2539 59.2729C23.2553 59.2746 23.2572 59.2751 23.2593 59.2751Z" fill="#2D355A"/>
<path d="M23.3129 59.2751C23.3151 59.2751 23.3165 59.2746 23.3173 59.2729C23.3178 59.2716 23.3184 59.2696 23.3184 59.2674C23.3184 59.2647 23.3178 59.2625 23.3173 59.2609C23.3165 59.2595 23.3151 59.2587 23.3129 59.2587C23.3108 59.2587 23.3091 59.2595 23.3086 59.2609C23.3078 59.2625 23.3075 59.2647 23.3075 59.2674C23.3075 59.2696 23.3078 59.2716 23.3086 59.2729C23.3091 59.2746 23.3108 59.2751 23.3129 59.2751ZM23.3075 59.2565C23.3089 59.2551 23.3102 59.254 23.3119 59.2532C23.3132 59.2526 23.3146 59.2521 23.3162 59.2521C23.3197 59.2521 23.3227 59.2537 23.3249 59.2565C23.3271 59.2587 23.3282 59.2625 23.3282 59.2674C23.3282 59.2713 23.3271 59.2746 23.3249 59.2773C23.3227 59.2804 23.3197 59.2817 23.3162 59.2817C23.3146 59.2817 23.3132 59.2812 23.3119 59.2806C23.3102 59.2801 23.3089 59.2784 23.3075 59.2762V59.2806H23.2988V59.2422H23.3075V59.2565Z" fill="#2D355A"/>
<path d="M23.334 59.2461H23.3427L23.3492 59.2648L23.3557 59.2461H23.3655L23.3535 59.2757C23.3519 59.2793 23.3505 59.2815 23.3492 59.2823C23.3476 59.2837 23.3454 59.2845 23.3427 59.2845H23.3372V59.2779H23.3405H23.3438C23.3443 59.2779 23.3451 59.2768 23.3459 59.2746L23.334 59.2461Z" fill="#2D355A"/>
<path d="M23.4167 59.2784C23.4137 59.2793 23.4113 59.2801 23.4091 59.2806C23.4069 59.2812 23.4039 59.2817 23.4004 59.2817C23.3944 59.2817 23.3898 59.2801 23.3863 59.2762C23.3825 59.2727 23.3809 59.268 23.3809 59.262C23.3809 59.2562 23.3825 59.2515 23.3863 59.2477C23.3898 59.2441 23.395 59.2422 23.4015 59.2422C23.4042 59.2422 23.4064 59.2427 23.408 59.2433C23.4102 59.2441 23.4124 59.2449 23.4145 59.2455V59.2532C23.4124 59.2518 23.4102 59.251 23.408 59.251C23.4064 59.2504 23.4048 59.2499 23.4026 59.2499C23.3988 59.2499 23.3961 59.251 23.3939 59.2532C23.3923 59.2554 23.3917 59.2584 23.3917 59.262C23.3917 59.2658 23.3923 59.2685 23.3939 59.2707C23.3961 59.2729 23.3988 59.274 23.4026 59.274H23.4048C23.4053 59.274 23.4061 59.2738 23.4069 59.2729V59.2663H23.4015V59.2598H23.4167V59.2784Z" fill="#2D355A"/>
<path d="M23.4438 59.2513C23.4438 59.2507 23.4433 59.2502 23.4427 59.2502C23.4419 59.2496 23.441 59.249 23.4405 59.249C23.4374 59.249 23.4352 59.2502 23.4338 59.2524C23.433 59.2541 23.4327 59.2559 23.4327 59.2581V59.2718H23.4238V59.2433H23.4327V59.2479C23.4341 59.2456 23.4352 59.2442 23.436 59.2433C23.4374 59.2428 23.4394 59.2422 23.4416 59.2422H23.4427H23.4438V59.2513Z" fill="#2D355A"/>
<path d="M23.4656 59.2581C23.4639 59.2581 23.4625 59.259 23.4612 59.2604C23.4603 59.2613 23.4601 59.2621 23.4601 59.2627C23.4601 59.2635 23.4603 59.2644 23.4612 59.265C23.4617 59.2658 23.4628 59.2661 23.4645 59.2661C23.4667 59.2661 23.4681 59.2658 23.4689 59.265C23.4703 59.2635 23.4712 59.2621 23.4712 59.2604V59.2581H23.4656ZM23.4789 59.2559V59.2718H23.4712V59.2672C23.4695 59.2695 23.4681 59.2712 23.4667 59.2718C23.465 59.2724 23.4634 59.2729 23.4612 59.2729C23.4581 59.2729 23.4556 59.2721 23.4534 59.2707C23.4517 59.2684 23.4512 59.2658 23.4512 59.2627C23.4512 59.2598 23.4523 59.2576 23.4545 59.2559C23.4567 59.2544 23.4601 59.2536 23.4645 59.2536H23.4712V59.2524C23.4712 59.251 23.4703 59.2502 23.4689 59.2502C23.4681 59.2496 23.4662 59.249 23.4634 59.249H23.4578C23.4562 59.249 23.4548 59.2496 23.4534 59.2502V59.2433H23.4589C23.4612 59.2428 23.4628 59.2422 23.4645 59.2422C23.4703 59.2422 23.4739 59.2433 23.4756 59.2456C23.4778 59.2479 23.4789 59.2513 23.4789 59.2559L23.4789 59.2559Z" fill="#2D355A"/>
<path d="M23.4911 59.2663V59.2806H23.4824V59.2433H23.4911V59.2466C23.4925 59.2452 23.4938 59.2441 23.4955 59.2433C23.4968 59.2427 23.4982 59.2422 23.4998 59.2422C23.5033 59.2422 23.5063 59.2438 23.5085 59.2466C23.5107 59.2488 23.5117 59.2526 23.5117 59.2576C23.5117 59.2614 23.5107 59.2647 23.5085 59.2674C23.5063 59.2705 23.5033 59.2718 23.4998 59.2718C23.4982 59.2718 23.4968 59.2713 23.4955 59.2707C23.4938 59.2702 23.4925 59.2685 23.4911 59.2663V59.2663ZM23.4965 59.2488C23.4944 59.2488 23.4927 59.2496 23.4922 59.251C23.4914 59.2526 23.4911 59.2548 23.4911 59.2576C23.4911 59.2598 23.4914 59.2617 23.4922 59.2631C23.4927 59.2647 23.4944 59.2653 23.4965 59.2653C23.4987 59.2653 23.5001 59.2647 23.5009 59.2631C23.5014 59.2617 23.502 59.2598 23.502 59.2576C23.502 59.2548 23.5014 59.2526 23.5009 59.251C23.5001 59.2496 23.4987 59.2488 23.4965 59.2488Z" fill="#2D355A"/>
<path d="M23.5478 59.2642V59.2806H23.538V59.2674V59.2631C23.538 59.2625 23.5375 59.2617 23.5369 59.2609C23.5369 59.2603 23.5364 59.2598 23.5358 59.2598C23.5358 59.2592 23.535 59.2587 23.5336 59.2587C23.532 59.2587 23.5307 59.2595 23.5293 59.2609C23.5285 59.2625 23.5282 59.2647 23.5282 59.2674V59.2806H23.5195V59.2422H23.5282V59.2565C23.5296 59.2551 23.5309 59.254 23.5326 59.2532C23.5339 59.2526 23.5353 59.2521 23.5369 59.2521C23.5404 59.2521 23.5429 59.2532 23.5445 59.2554C23.5467 59.2576 23.5478 59.2606 23.5478 59.2642L23.5478 59.2642Z" fill="#2D355A"/>
<path d="M23.5547 59.2532H23.5637V59.2806H23.5547V59.2532ZM23.5547 59.2422H23.5637V59.2488H23.5547V59.2422Z" fill="#2D355A"/>
<path d="M23.5764 59.2598L23.5664 59.2461H23.5753L23.5819 59.2541L23.5875 59.2461H23.5975L23.5875 59.2598L23.5975 59.2746H23.5875L23.5819 59.2655L23.5753 59.2746H23.5664L23.5764 59.2598Z" fill="#2D355A"/>
<path d="M23.6299 59.2433V59.2513C23.6277 59.2499 23.6254 59.249 23.6232 59.249H23.6188H23.6143C23.6135 59.249 23.6132 59.2499 23.6132 59.2513C23.6132 59.2522 23.6135 59.253 23.6143 59.2536H23.6188H23.6199C23.6243 59.2544 23.6271 59.2556 23.6288 59.257C23.6302 59.2578 23.631 59.2601 23.631 59.2638C23.631 59.2661 23.6299 59.2684 23.6277 59.2707C23.626 59.2721 23.6232 59.2729 23.6188 59.2729C23.6166 59.2729 23.6143 59.2724 23.6121 59.2718C23.6105 59.2718 23.6088 59.2715 23.6066 59.2707V59.2638C23.608 59.2647 23.6094 59.2655 23.611 59.2661H23.6177H23.621C23.6216 59.2655 23.6221 59.2647 23.6221 59.2638C23.6221 59.2624 23.6216 59.2615 23.621 59.2615C23.621 59.2615 23.6202 59.2613 23.6188 59.2604H23.6166C23.6127 59.2598 23.6099 59.259 23.6077 59.2581C23.606 59.2567 23.6055 59.2544 23.6055 59.2513C23.6055 59.2485 23.6066 59.2462 23.6088 59.2445C23.611 59.243 23.6143 59.2422 23.6188 59.2422C23.6202 59.2422 23.6216 59.2428 23.6232 59.2433H23.6299L23.6299 59.2433Z" fill="#2D355A"/>
<path d="M23.6553 59.2852V59.2899H23.6289V59.2852H23.6553Z" fill="#2D355A"/>
<path d="M23.6809 59.2717H23.666L23.6639 59.2794H23.6543L23.6681 59.2422H23.6788L23.6916 59.2794H23.683L23.6809 59.2717ZM23.6681 59.2662H23.6777L23.6735 59.2509L23.6681 59.2662Z" fill="#2D355A"/>
<path d="M23.7172 59.2513C23.7172 59.2507 23.7167 59.2502 23.7161 59.2502C23.7153 59.2496 23.7145 59.249 23.7139 59.249C23.7109 59.249 23.7086 59.2502 23.7073 59.2524C23.7064 59.2541 23.7061 59.2559 23.7061 59.2581V59.2718H23.6973V59.2433H23.7061V59.2479C23.7075 59.2456 23.7086 59.2442 23.7095 59.2433C23.7109 59.2428 23.7128 59.2422 23.715 59.2422H23.7161H23.7172V59.2513Z" fill="#2D355A"/>
<path d="M23.7317 59.2422V59.2511H23.7404V59.2566H23.7317V59.2688V59.2721H23.735H23.7393V59.2788H23.7328C23.729 59.2788 23.7263 59.2782 23.7242 59.2766C23.7225 59.2752 23.722 59.2727 23.722 59.2688V59.2566H23.7188V59.2511H23.722V59.2422L23.7317 59.2422Z" fill="#2D355A"/>
<path d="M23.0792 59.293V59.2985H23.0749C23.0733 59.2985 23.0722 59.299 23.0716 59.2996V59.3018V59.304H23.0792V59.3094H23.0716V59.3314H23.0629V59.3094H23.0586V59.304H23.0629V59.3018C23.0629 59.299 23.0635 59.2968 23.0651 59.2952C23.0665 59.2938 23.0689 59.293 23.0727 59.293H23.0792Z" fill="#2D355A"/>
<path d="M23.102 59.3138C23.102 59.3132 23.1015 59.3127 23.1009 59.3127C23.1001 59.3121 23.0992 59.3115 23.0987 59.3115C23.0956 59.3115 23.0934 59.3127 23.092 59.3149C23.0912 59.3166 23.0909 59.3184 23.0909 59.3206V59.3343H23.082V59.3058H23.0909V59.3104C23.0923 59.3081 23.0934 59.3067 23.0942 59.3058C23.0956 59.3053 23.0976 59.3047 23.0998 59.3047H23.1009H23.102V59.3138Z" fill="#2D355A"/>
<path d="M23.121 59.3115C23.1188 59.3115 23.1168 59.3124 23.1155 59.3138C23.1146 59.3147 23.1143 59.3169 23.1143 59.3206C23.1143 59.3229 23.1146 59.3249 23.1155 59.3263C23.1168 59.328 23.1188 59.3286 23.121 59.3286C23.1232 59.3286 23.1246 59.328 23.1254 59.3263C23.1268 59.3249 23.1277 59.3229 23.1277 59.3206C23.1277 59.3169 23.1268 59.3147 23.1254 59.3138C23.1246 59.3124 23.1232 59.3115 23.121 59.3115ZM23.121 59.3047C23.1254 59.3047 23.1291 59.3064 23.1321 59.3092C23.1349 59.3115 23.1365 59.3155 23.1365 59.3206C23.1365 59.3246 23.1349 59.328 23.1321 59.3309C23.1291 59.334 23.1254 59.3354 23.121 59.3354C23.1157 59.3354 23.1116 59.334 23.1088 59.3309C23.1066 59.328 23.1055 59.3246 23.1055 59.3206C23.1055 59.3155 23.1066 59.3115 23.1088 59.3092C23.1116 59.3064 23.1157 59.3047 23.121 59.3047Z" fill="#2D355A"/>
<path d="M23.1672 59.3102C23.1685 59.3088 23.1699 59.3077 23.1715 59.3069C23.1728 59.3055 23.1741 59.3047 23.1757 59.3047C23.1792 59.3047 23.1816 59.3058 23.1832 59.308C23.1854 59.3102 23.1864 59.3132 23.1864 59.3168V59.3332H23.1768V59.319V59.3179C23.1768 59.3157 23.1763 59.3143 23.1757 59.3135C23.1757 59.3121 23.1749 59.3113 23.1736 59.3113C23.172 59.3113 23.1707 59.3121 23.1693 59.3135C23.1685 59.3151 23.1683 59.3173 23.1683 59.3201V59.3332H23.1597V59.319C23.1597 59.3162 23.1592 59.3143 23.1586 59.3135C23.1586 59.3121 23.1578 59.3113 23.1565 59.3113C23.1543 59.3113 23.1527 59.3121 23.1522 59.3135C23.1514 59.3151 23.1511 59.3173 23.1511 59.3201V59.3332H23.1426V59.3058H23.1511V59.3091L23.1543 59.3058C23.1557 59.3052 23.1576 59.3047 23.1597 59.3047C23.161 59.3047 23.1624 59.3055 23.164 59.3069C23.1653 59.3077 23.1664 59.3088 23.1672 59.3102L23.1672 59.3102Z" fill="#2D355A"/>
<path d="M23.2181 59.2969V59.3057H23.2267V59.3113H23.2181V59.3235V59.3268H23.2213H23.2256V59.3335H23.2191C23.2153 59.3335 23.2126 59.3329 23.2105 59.3313C23.2089 59.3299 23.2083 59.3274 23.2083 59.3235V59.3113H23.2051V59.3057H23.2083V59.2969L23.2181 59.2969Z" fill="#2D355A"/>
<path d="M23.2626 59.3149V59.3314H23.2528V59.3182V59.3138C23.2528 59.3133 23.2523 59.3125 23.2518 59.3116C23.2518 59.3111 23.2512 59.3105 23.2507 59.3105C23.2507 59.31 23.2499 59.3094 23.2485 59.3094C23.2469 59.3094 23.2455 59.3103 23.2441 59.3116C23.2433 59.3133 23.2431 59.3155 23.2431 59.3182V59.3314H23.2344V59.293H23.2431V59.3072C23.2444 59.3059 23.2458 59.3048 23.2474 59.304C23.2488 59.3034 23.2501 59.3029 23.2518 59.3029C23.2553 59.3029 23.2577 59.304 23.2594 59.3061C23.2615 59.3083 23.2626 59.3114 23.2626 59.3149L23.2626 59.3149Z" fill="#2D355A"/>
<path d="M23.2975 59.3195V59.3229H23.2765C23.277 59.3252 23.2778 59.3269 23.2787 59.3275C23.2801 59.3283 23.282 59.3286 23.2842 59.3286C23.2864 59.3286 23.2881 59.3283 23.2898 59.3275C23.292 59.3269 23.2942 59.326 23.2964 59.3252V59.3332C23.2942 59.3332 23.292 59.3337 23.2898 59.3343C23.2881 59.3349 23.2864 59.3354 23.2842 59.3354C23.2781 59.3354 23.2737 59.334 23.2709 59.3309C23.2687 59.328 23.2676 59.3246 23.2676 59.3206C23.2676 59.3155 23.2687 59.3115 23.2709 59.3092C23.2737 59.3064 23.2778 59.3047 23.2831 59.3047C23.2876 59.3047 23.2909 59.3064 23.2931 59.3092C23.2959 59.3115 23.2975 59.3149 23.2975 59.3195L23.2975 59.3195ZM23.2887 59.3172C23.2887 59.3149 23.2878 59.3135 23.2864 59.3127C23.2856 59.3121 23.2845 59.3115 23.2831 59.3115C23.2815 59.3115 23.2801 59.3121 23.2787 59.3127C23.2778 59.3135 23.277 59.3149 23.2765 59.3172H23.2887Z" fill="#2D355A"/>
<path d="M23.3203 59.293H23.3312L23.3442 59.3186V59.293H23.354V59.3309H23.3431L23.329 59.3052V59.3309H23.3203V59.293Z" fill="#2D355A"/>
<path d="M23.3749 59.3115C23.3727 59.3115 23.3708 59.3124 23.3694 59.3138C23.3685 59.3147 23.3683 59.3169 23.3683 59.3206C23.3683 59.3229 23.3685 59.3249 23.3694 59.3263C23.3708 59.328 23.3727 59.3286 23.3749 59.3286C23.3771 59.3286 23.3785 59.328 23.3794 59.3263C23.3807 59.3249 23.3816 59.3229 23.3816 59.3206C23.3816 59.3169 23.3807 59.3147 23.3794 59.3138C23.3785 59.3124 23.3771 59.3115 23.3749 59.3115ZM23.3749 59.3047C23.3794 59.3047 23.383 59.3064 23.386 59.3092C23.3888 59.3115 23.3905 59.3155 23.3905 59.3206C23.3905 59.3246 23.3888 59.328 23.386 59.3309C23.383 59.334 23.3794 59.3354 23.3749 59.3354C23.3696 59.3354 23.3655 59.334 23.3627 59.3309C23.3605 59.328 23.3594 59.3246 23.3594 59.3206C23.3594 59.3155 23.3605 59.3115 23.3627 59.3092C23.3655 59.3064 23.3696 59.3047 23.3749 59.3047Z" fill="#2D355A"/>
<path d="M23.3984 59.3218V59.3047H23.4073V59.307V59.3138V59.3172V59.3229V59.3252C23.4079 59.3252 23.4084 59.3258 23.4084 59.3263H23.4118C23.4131 59.3263 23.4143 59.326 23.4151 59.3252C23.4165 59.3238 23.4173 59.3215 23.4173 59.3184V59.3047H23.4262V59.3332H23.4173V59.3286C23.4156 59.3309 23.4143 59.3326 23.4129 59.3332C23.4112 59.3337 23.4095 59.3343 23.4073 59.3343C23.4043 59.3343 23.402 59.3332 23.4007 59.3309C23.399 59.3286 23.3984 59.3258 23.3984 59.3218V59.3218Z" fill="#2D355A"/>
<path d="M23.4585 59.3172V59.3343H23.4486V59.3206V59.3161C23.4486 59.3155 23.448 59.3147 23.4474 59.3138C23.4474 59.3132 23.4469 59.3127 23.4463 59.3127C23.4463 59.3121 23.4455 59.3115 23.4441 59.3115C23.4425 59.3115 23.4411 59.3124 23.4397 59.3138C23.4388 59.3155 23.4386 59.3178 23.4386 59.3206V59.3343H23.4297V59.3058H23.4386V59.3092C23.44 59.3078 23.4413 59.3067 23.443 59.3058C23.4444 59.3053 23.4458 59.3047 23.4474 59.3047C23.4511 59.3047 23.4536 59.3058 23.4552 59.3081C23.4574 59.3104 23.4585 59.3135 23.4585 59.3172L23.4585 59.3172Z" fill="#2D355A"/>
<path d="M23.4844 59.293H23.5007C23.505 59.293 23.5083 59.2941 23.5104 59.2963C23.5132 59.2985 23.5148 59.3019 23.5148 59.3063C23.5148 59.3102 23.5132 59.313 23.5104 59.3153C23.5083 59.3169 23.505 59.3175 23.5007 59.3175H23.4941V59.3309H23.4844L23.4844 59.293ZM23.4941 59.3008V59.3108H23.4996C23.5009 59.3108 23.502 59.3105 23.5028 59.3097C23.5042 59.3091 23.505 59.308 23.505 59.3063C23.505 59.3041 23.5042 59.3027 23.5028 59.3019C23.502 59.3013 23.5009 59.3008 23.4996 59.3008L23.4941 59.3008Z" fill="#2D355A"/>
<path d="M23.5415 59.3138C23.5415 59.3132 23.5409 59.3127 23.5404 59.3127C23.5395 59.3121 23.5387 59.3115 23.5381 59.3115C23.5351 59.3115 23.5329 59.3127 23.5315 59.3149C23.5306 59.3166 23.5304 59.3184 23.5304 59.3206V59.3343H23.5215V59.3058H23.5304V59.3104C23.5318 59.3081 23.5329 59.3067 23.5337 59.3058C23.5351 59.3053 23.537 59.3047 23.5392 59.3047H23.5404H23.5415V59.3138Z" fill="#2D355A"/>
<path d="M23.5585 59.3115C23.5563 59.3115 23.5543 59.3124 23.553 59.3138C23.5521 59.3147 23.5518 59.3169 23.5518 59.3206C23.5518 59.3229 23.5521 59.3249 23.553 59.3263C23.5543 59.328 23.5563 59.3286 23.5585 59.3286C23.5607 59.3286 23.5621 59.328 23.5629 59.3263C23.5643 59.3249 23.5652 59.3229 23.5652 59.3206C23.5652 59.3169 23.5643 59.3147 23.5629 59.3138C23.5621 59.3124 23.5607 59.3115 23.5585 59.3115ZM23.5585 59.3047C23.5629 59.3047 23.5666 59.3064 23.5696 59.3092C23.5724 59.3115 23.574 59.3155 23.574 59.3206C23.574 59.3246 23.5724 59.328 23.5696 59.3309C23.5666 59.334 23.5629 59.3354 23.5585 59.3354C23.5532 59.3354 23.5491 59.334 23.5463 59.3309C23.5441 59.328 23.543 59.3246 23.543 59.3206C23.543 59.3155 23.5441 59.3115 23.5463 59.3092C23.5491 59.3064 23.5532 59.3047 23.5585 59.3047Z" fill="#2D355A"/>
<path d="M23.578 59.3041H23.5872V59.3308C23.5872 59.3344 23.586 59.3375 23.5837 59.3397C23.582 59.3419 23.5794 59.343 23.5757 59.343H23.5723V59.3364H23.5734C23.5748 59.3364 23.576 59.3358 23.5768 59.3352C23.5774 59.3352 23.578 59.3336 23.578 59.3308L23.578 59.3041ZM23.578 59.293H23.5872V59.2996H23.578V59.293Z" fill="#2D355A"/>
<path d="M23.6257 59.3195V59.3229H23.6046C23.6051 59.3252 23.606 59.3269 23.6068 59.3275C23.6082 59.3283 23.6101 59.3286 23.6124 59.3286C23.6146 59.3286 23.6162 59.3283 23.6179 59.3275C23.6201 59.3269 23.6223 59.326 23.6246 59.3252V59.3332C23.6223 59.3332 23.6201 59.3337 23.6179 59.3343C23.6162 59.3349 23.6146 59.3354 23.6124 59.3354C23.6062 59.3354 23.6018 59.334 23.599 59.3309C23.5968 59.328 23.5957 59.3246 23.5957 59.3206C23.5957 59.3155 23.5968 59.3115 23.599 59.3092C23.6018 59.3064 23.606 59.3047 23.6112 59.3047C23.6157 59.3047 23.619 59.3064 23.6212 59.3092C23.624 59.3115 23.6257 59.3149 23.6257 59.3195L23.6257 59.3195ZM23.6168 59.3172C23.6168 59.3149 23.616 59.3135 23.6146 59.3127C23.6137 59.3121 23.6126 59.3115 23.6112 59.3115C23.6096 59.3115 23.6082 59.3121 23.6068 59.3127C23.606 59.3135 23.6051 59.3149 23.6046 59.3172H23.6168Z" fill="#2D355A"/>
<path d="M23.6525 59.3058V59.3138C23.6503 59.3132 23.6486 59.3127 23.648 59.3127C23.6472 59.3121 23.6458 59.3115 23.6436 59.3115C23.6414 59.3115 23.6394 59.3124 23.6381 59.3138C23.6364 59.3155 23.6358 59.3178 23.6358 59.3206C23.6358 59.3229 23.6364 59.3249 23.6381 59.3263C23.6394 59.328 23.6414 59.3286 23.6436 59.3286C23.6458 59.3286 23.6472 59.3283 23.648 59.3275C23.6494 59.3269 23.6508 59.3263 23.6525 59.3263V59.3332C23.6503 59.334 23.6483 59.3343 23.6469 59.3343C23.6461 59.3349 23.645 59.3354 23.6436 59.3354C23.6375 59.3354 23.6331 59.334 23.6303 59.3309C23.6281 59.328 23.627 59.3246 23.627 59.3206C23.627 59.3155 23.6281 59.3115 23.6303 59.3092C23.6331 59.3064 23.6375 59.3047 23.6436 59.3047C23.645 59.3047 23.6461 59.3053 23.6469 59.3058H23.6525V59.3058Z" fill="#2D355A"/>
<path d="M23.6731 59.2969V59.3057H23.6818V59.3113H23.6731V59.3235V59.3268H23.6764H23.6807V59.3335H23.6742C23.6704 59.3335 23.6677 59.3329 23.6656 59.3313C23.6639 59.3299 23.6634 59.3274 23.6634 59.3235V59.3113H23.6602V59.3057H23.6634V59.2969L23.6731 59.2969Z" fill="#2D355A"/>
</svg>
