<svg width="84" height="83" viewBox="0 0 84 83" fill="none" xmlns="http://www.w3.org/2000/svg">
<circle cx="42" cy="41.3398" r="40.8398" fill="#FAFAFA" stroke="#EEEEEE"/>
<path d="M61 51.6691C60.7945 52.4069 60.4284 53.0239 59.7041 53.3913C59.2745 53.6101 58.8233 53.6667 58.3466 53.6667C53.7249 53.6628 49.1036 53.6628 44.4826 53.6667C37.5309 53.6667 30.5791 53.6667 23.6274 53.6667C22.5703 53.6667 21.7677 53.2771 21.2588 52.3532C21.0762 51.9966 20.9877 51.6007 21.0014 51.2019C21.0014 43.9538 21.0014 36.7057 21.0014 29.4576C21.0014 28.005 22.0261 27.0034 23.508 27.0034C35.1714 26.9989 46.8352 26.9989 58.4993 27.0034C59.7717 27.0034 60.4891 27.5924 60.9971 28.9961L61 51.6691Z" fill="#51566B"/>
<path d="M40.9992 37.9735C46.9872 37.9735 52.9758 37.9709 58.9651 37.9658C59.3253 37.9658 59.4124 38.056 59.4114 38.4043C59.3987 42.5902 59.4036 46.7762 59.4026 50.9621C59.4026 51.8515 59.1511 52.0991 58.2467 52.0991H23.7555C22.8473 52.0991 22.5957 51.8534 22.5957 50.9669C22.5957 46.78 22.5931 42.5937 22.5879 38.4081C22.5879 38.0685 22.6603 37.9639 23.0293 37.9649C29.0206 37.977 35.0105 37.9799 40.9992 37.9735Z" fill="#FAFAFA"/>
<path d="M40.9596 33.28C34.9853 33.28 29.0106 33.2829 23.0357 33.2887C22.6824 33.2887 22.5796 33.2071 22.5884 32.8531C22.6129 31.769 22.5943 30.6848 22.5982 29.5997C22.5982 28.8475 22.8918 28.5664 23.6621 28.5664H58.3383C59.1085 28.5664 59.3982 28.8542 59.4012 29.6016C59.4012 30.6992 59.3875 31.7968 59.41 32.8934C59.4168 33.2196 59.3199 33.2877 58.9999 33.2877C52.9897 33.2775 46.9763 33.2749 40.9596 33.28Z" fill="#FAFAFA"/>
<path d="M35.3754 42.6944C37.7176 42.6944 40.0597 42.6944 42.4019 42.6944C42.812 42.6944 43.1585 42.7903 43.3317 43.1818C43.3778 43.291 43.3976 43.4091 43.3895 43.527C43.3815 43.6449 43.3457 43.7594 43.2851 43.8615C43.2245 43.9637 43.1406 44.0507 43.04 44.1159C42.9395 44.181 42.8249 44.2225 42.7053 44.2372C42.5753 44.2504 42.4445 44.2549 42.3138 44.2506H28.302C27.7676 44.2352 27.4211 43.9369 27.4084 43.483C27.3986 43.0187 27.7529 42.6944 28.3098 42.6925C30.666 42.6906 33.0212 42.6912 35.3754 42.6944Z" fill="#51566B"/>
<path d="M32.1907 47.3862C30.9183 47.3862 29.6391 47.3862 28.3638 47.3862C28.0359 47.3862 27.7471 47.3238 27.5504 47.0331C27.4761 46.9282 27.43 46.8066 27.4163 46.6795C27.4027 46.5525 27.422 46.4241 27.4725 46.3064C27.523 46.1886 27.6029 46.0852 27.705 46.0058C27.8071 45.9264 27.928 45.8735 28.0564 45.8521C28.1981 45.8327 28.3412 45.8253 28.4841 45.83C30.9575 45.83 33.4298 45.8434 35.9031 45.8204C36.7487 45.8127 36.9797 46.2042 36.9895 46.588C36.9993 46.9717 36.7556 47.415 35.8992 47.3929C34.664 47.3622 33.4268 47.3862 32.1907 47.3862Z" fill="#51566B"/>
</svg>
