<svg width="261" height="220" viewBox="0 0 261 220" fill="none" xmlns="http://www.w3.org/2000/svg">
<path d="M121.244 13.2874L123.552 14.6199C123.552 14.842 123.197 15.0641 123.064 15.3306C121.633 17.932 120.727 20.79 120.4 23.7414C120.073 26.6928 120.33 29.6797 121.156 32.5318C121.983 35.3838 123.363 38.0451 125.217 40.3636C127.072 42.682 129.365 44.6123 131.965 46.0443C134.565 47.4762 137.422 48.3818 140.372 48.7092C143.322 49.0366 146.308 48.7795 149.158 47.9526C154.915 46.2825 159.774 42.3927 162.664 37.1389C162.809 36.8847 162.928 36.6169 163.02 36.3394L165.373 37.6275C165.91 36.5606 166.384 35.4631 166.793 34.3407L183.708 42.2023L184.862 40.1148L168.125 28.3001C168.799 22.889 167.7 17.4051 164.992 12.6727C162.285 7.94024 158.115 4.21491 153.109 2.05662C148.104 -0.101669 142.534 -0.57628 137.236 0.704064C131.938 1.98441 127.198 4.95057 123.73 9.15672L120.977 7.95747L118.713 12.1326L120.977 13.1541L121.244 13.2874ZM104.151 217.868L98.5132 220H261L240.978 192.684C233.874 182.957 230.634 183.312 220.29 178.116C209.945 172.919 205.417 177.805 199.956 168.122C194.496 158.439 190.589 148.401 180.866 147.113C171.144 145.825 171.987 163.592 165.506 168.122C163.699 169.581 162.191 171.375 161.066 173.408L98.4244 122.862L131.144 61.4789L102.731 21.5044L25.838 25.946V63.7441L14.5172 54.55C14.5172 54.55 10.6548 51.8406 8.07991 54.55C7.31976 55.461 6.80296 56.55 6.5778 57.7152C6.35264 58.8803 6.42651 60.0836 6.79248 61.2124L25.838 76.8025V81.1108L15.1832 91.3266V151.111L0 208.629C5.46062 226.085 22.9079 217.513 22.9079 217.513L39.0678 159.017L42.9303 116.999L43.1966 116.777L72.6751 148.668L42.6195 205.476C42.6195 205.476 44.8836 222.754 62.331 219.467L99.8006 150.844L91.2767 136.142L93.3633 132.189L155.517 182.868C154.69 184.304 153.533 185.522 152.143 186.421C147.392 188.82 147.481 185.089 139.712 188.998C131.943 192.906 135.539 204.499 135.539 204.499C129.504 202.413 123.142 201.435 116.76 201.612C106.282 202.056 104.151 217.868 104.151 217.868ZM44.0401 63.3444V42.0246L67.5697 40.5589L44.0401 63.3444ZM83.2412 110.337L70.4553 99.9877L68.5907 96.7453L97.8029 80.3114L83.2412 110.337Z" fill="#241A00"/>
</svg>
