<svg width="11" height="8" viewBox="0 0 11 8" fill="none" xmlns="http://www.w3.org/2000/svg">
<path d="M5.31725 2.51386L5.31727 2.51387L5.33373 2.52384C5.83324 2.82617 6.45077 3.19994 7.21061 3.19994C8.01759 3.19994 8.76721 2.89573 9.56064 2.27287L9.87336 2.02782L10.0295 1.90548L9.90844 1.74834L9.42185 1.11674L9.29876 0.956969L9.14003 1.08139L8.82677 1.32694L8.82669 1.327C8.22557 1.79866 7.71565 1.99998 7.21066 1.99998C6.79192 1.99998 6.406 1.77257 5.93275 1.48609L5.93273 1.48607L5.91626 1.47611C5.41676 1.17377 4.79923 0.8 4.03939 0.8C3.24272 0.8 2.47203 1.11257 1.68935 1.72708L1.37664 1.97212L1.22051 2.09447L1.34156 2.2516L1.82815 2.8832L1.95124 3.04297L2.10997 2.91855L2.42323 2.673L2.42331 2.67294C3.02443 2.20128 3.53435 1.99996 4.03934 1.99996C4.45808 1.99996 4.84399 2.22737 5.31725 2.51386ZM5.31725 6.51384L5.31727 6.51386L5.33396 6.52396C5.83341 6.82627 6.45088 7.2 7.21061 7.2C8.01759 7.2 8.76722 6.89572 9.56063 6.27294L9.87338 6.02779L10.0295 5.90544L9.90844 5.74833L9.42185 5.11673L9.29875 4.95694L9.14001 5.0814L8.82675 5.32701L8.8267 5.32705C8.22558 5.79865 7.71566 5.99997 7.21066 5.99997C6.79192 5.99997 6.40598 5.77262 5.93277 5.48609L5.93271 5.48605L5.91577 5.4758C5.41638 5.17359 4.79899 4.79999 4.03939 4.79999C3.24271 4.79999 2.47203 5.11264 1.68936 5.72706L1.37662 5.97219L1.22052 6.09454L1.34156 6.25166L1.82815 6.88326L1.95125 7.04305L2.10999 6.91859L2.42325 6.67297L2.4233 6.67294C3.02442 6.20134 3.53434 6.00002 4.03934 6.00002C4.45808 6.00002 4.84402 6.22737 5.31725 6.51384Z" fill="#767C97" stroke="#767C97" stroke-width="0.4"/>
</svg>
