<svg width="40" height="40" viewBox="0 0 40 40" fill="none" xmlns="http://www.w3.org/2000/svg">
<path d="M23.2367 16.6036C23.1228 16.6273 23.1193 16.5936 23.1193 16.5031C23.1215 15.3975 23.1215 14.2916 23.1193 13.1855C23.1193 13.0863 23.1487 13.0652 23.242 13.0666C23.604 13.0716 23.9663 13.0705 24.3283 13.0666C24.5514 13.0652 24.7367 12.9295 24.7393 12.7311C24.7487 12.2528 24.7945 11.771 24.695 11.2975C24.4058 9.92167 23.2564 9.00097 21.8342 9.00038C19.1528 9.00038 16.4713 9.00038 13.7898 9.00038C13.648 8.99819 13.5061 9.00545 13.3653 9.02211C11.8853 9.22469 10.8536 10.4096 10.8536 11.9023V16.3649C10.8536 17.9307 10.8545 19.4965 10.8562 21.0623C10.8562 21.1757 10.8301 21.2071 10.7141 21.2059C10.1269 21.1995 9.53975 21.2024 8.95257 21.203C8.64165 21.203 8.48076 21.3624 8.48047 21.6695C8.48047 22.1686 8.48047 22.6677 8.48047 23.1668C8.48047 24.3867 9.36859 25.2733 10.5902 25.2733H17.4891C17.571 25.2733 17.6385 25.2598 17.6676 25.3826C18.0199 26.8764 18.7627 28.1464 19.9177 29.157C21.6499 30.6728 23.673 31.2538 25.9428 30.8992C27.6392 30.6349 29.0566 29.8223 30.2028 28.5454C32.1623 26.3632 32.5885 23.114 31.2674 20.4746C30.5468 19.0308 29.3671 17.8673 27.9136 17.1667C26.4601 16.466 24.815 16.268 23.2367 16.6036V16.6036ZM10.3254 22.8976C10.3275 23.01 10.3254 23.1225 10.3254 23.2352C10.3254 23.4064 10.3269 23.5776 10.3254 23.7487C10.3254 23.8794 10.296 23.8899 10.1786 23.8242C9.92964 23.6838 9.84949 23.449 9.82865 23.188C9.81485 23.018 9.82865 22.8459 9.82513 22.6748C9.82513 22.5902 9.85448 22.5476 9.94462 22.5485C10.4012 22.5541 10.3192 22.4968 10.3254 22.8976ZM16.6541 10.3671H16.7566C18.487 10.3671 20.2174 10.3585 21.9476 10.3715C22.5348 10.3759 22.964 10.6794 23.2361 11.2026C23.3005 11.3335 23.3465 11.4726 23.373 11.616C23.3918 11.7064 23.3595 11.7196 23.2875 11.7173C23.2532 11.7173 23.2188 11.7173 23.1848 11.7173H20.0474C18.9867 11.7173 17.9259 11.7149 16.8655 11.7202C16.731 11.7202 16.6911 11.6853 16.6934 11.5494C16.6996 11.18 16.7284 10.8069 16.5927 10.4501C16.5704 10.3911 16.5986 10.3679 16.655 10.3671H16.6541ZM18.6605 19.5271C16.8944 19.5236 15.1283 19.5228 13.362 19.5248C13.1172 19.5248 12.951 19.6422 12.9099 19.8366C12.8968 19.8915 12.8954 19.9485 12.9057 20.004C12.916 20.0595 12.9377 20.1123 12.9695 20.1589C13.0014 20.2055 13.0426 20.2449 13.0906 20.2747C13.1386 20.3044 13.1922 20.3238 13.2481 20.3316C13.3065 20.339 13.3654 20.3416 13.4243 20.3395H18.2947C18.1999 20.5506 18.1083 20.7426 18.0266 20.939C17.5834 22.0031 17.4031 23.1583 17.5008 24.3068C17.5123 24.4513 17.4715 24.4598 17.354 24.4595C15.6565 24.456 13.9588 24.4552 12.2611 24.4572C12.0946 24.4572 11.9281 24.4539 11.762 24.4572C11.6918 24.4592 11.6618 24.4387 11.6739 24.3673C11.6754 24.3478 11.6754 24.3281 11.6739 24.3086C11.6739 20.1787 11.6739 16.0494 11.6739 11.9207C11.6739 10.9895 12.1759 10.2435 13.0194 9.93841C13.4413 9.78574 13.8796 9.75491 14.3162 9.87235C14.6138 9.95203 14.8767 10.1281 15.0636 10.3729C15.2506 10.6178 15.3512 10.9177 15.3497 11.2258C15.3514 11.6859 15.3497 12.1456 15.3497 12.6057C15.3497 12.9052 15.512 13.0675 15.8115 13.0675C17.9201 13.0675 20.0286 13.0666 22.1372 13.0649C22.2673 13.0649 22.3066 13.0919 22.306 13.2293C22.2999 14.3937 22.3014 15.5584 22.304 16.723C22.304 16.8202 22.2873 16.8745 22.1816 16.9145C20.8404 17.4233 19.7447 18.2597 18.8907 19.4118C18.8279 19.496 18.765 19.5254 18.6614 19.5254L18.6605 19.5271ZM24.8072 29.5759C21.6091 29.5994 18.9145 27.032 18.9021 23.7605C18.8898 20.4945 21.5025 17.8742 24.7484 17.8739C27.9824 17.8739 30.603 20.491 30.6053 23.7235C30.6086 26.9266 27.9882 29.5516 24.808 29.5748L24.8072 29.5759Z" fill="#040407"/>
<path d="M16.6943 11.5488C16.6919 11.6847 16.7319 11.7203 16.8663 11.7197C17.9268 11.7144 18.9875 11.7168 20.0483 11.7168H23.1856C23.2197 11.7168 23.254 11.7168 23.2884 11.7168C23.3603 11.7191 23.3926 11.7059 23.3738 11.6155C23.3474 11.472 23.3013 11.333 23.237 11.2021C22.9648 10.6789 22.5371 10.3753 21.9484 10.3709C20.2203 10.358 18.4881 10.365 16.7583 10.3665H16.6558C16.5995 10.3665 16.5713 10.3906 16.5936 10.4493C16.7292 10.8054 16.7005 11.1795 16.6943 11.5488Z" fill="black"/>
<path d="M9.94668 22.5473C9.85713 22.5473 9.82601 22.589 9.82718 22.6736C9.82983 22.8447 9.81691 23.0168 9.83071 23.1868C9.85155 23.4478 9.9317 23.6827 10.1807 23.823C10.2981 23.8888 10.3251 23.8782 10.3275 23.7475C10.3295 23.5764 10.3275 23.4052 10.3275 23.234C10.3275 23.1213 10.3292 23.0089 10.3275 22.8964C10.3195 22.4948 10.4015 22.552 9.94668 22.5473Z" fill="black"/>
<path d="M27.6749 24.3898C26.9859 24.0375 26.2921 23.6916 25.5969 23.3502C25.4944 23.2997 25.4577 23.2468 25.4583 23.1308C25.4633 22.0308 25.4607 20.9307 25.4618 19.8303C25.4618 19.6591 25.4243 19.5015 25.3221 19.3623C25.2353 19.2428 25.1133 19.1535 24.9732 19.1067C24.8332 19.06 24.682 19.0582 24.5408 19.1016C24.2355 19.1979 24.0353 19.4562 24.0332 19.7789C24.0288 20.4389 24.0332 21.1001 24.0332 21.7592C24.0332 22.4051 24.0332 23.051 24.0332 23.6969C24.0332 23.9984 24.1662 24.2286 24.4322 24.3636C25.3057 24.8064 26.1815 25.2443 27.0596 25.6775C27.3115 25.8014 27.5654 25.7773 27.7935 25.6117C28.2307 25.2937 28.172 24.6449 27.6749 24.3898Z" fill="#040407"/>
<path d="M19.9016 17.1879C19.7612 17.0679 19.5927 17.0273 19.4121 17.0273H14.5732C14.397 17.0273 14.2335 17.0649 14.0925 17.1741C13.9093 17.3162 13.9014 17.5182 14.0708 17.6753C14.2082 17.8027 14.3806 17.8424 14.5579 17.8427C16.176 17.8456 17.7939 17.8456 19.4116 17.8427C19.5904 17.8427 19.7612 17.8015 19.9016 17.6809C20.0675 17.5388 20.0677 17.33 19.9016 17.1879Z" fill="#040407"/>
<path d="M14.0676 15.1825C14.2047 15.3076 14.3738 15.3519 14.5532 15.3522C16.1758 15.354 17.7985 15.354 19.4212 15.3522C19.5737 15.3554 19.7235 15.3125 19.8511 15.2289C20.0859 15.0713 20.0833 14.8082 19.8458 14.6546C19.7066 14.5645 19.5504 14.5349 19.3854 14.5352C18.5888 14.5363 17.7922 14.5363 16.9956 14.5352H14.5761C14.3905 14.5352 14.2161 14.5745 14.0729 14.6984C13.909 14.8414 13.9087 15.0375 14.0676 15.1825Z" fill="#040407"/>
</svg>
