<svg width="24" height="24" viewBox="0 0 24 24" fill="none" xmlns="http://www.w3.org/2000/svg">
<path d="M22.4269 8.25494L22.4993 8.4689C22.469 9.65269 21.4789 10.6231 20.2499 10.6231C19.5725 10.6231 18.9775 10.3357 18.5601 9.86906L18.1874 9.45257L17.8148 9.86906C17.3973 10.3357 16.8024 10.6231 16.125 10.6231C15.4475 10.6231 14.8526 10.3357 14.4351 9.86906L14.0625 9.45257L13.6898 9.86906C13.2724 10.3357 12.6774 10.6231 12 10.6231C11.3226 10.6231 10.7276 10.3357 10.3101 9.86906L9.93752 9.45257L9.56489 9.86906C9.14743 10.3357 8.55246 10.6231 7.87504 10.6231C7.19763 10.6231 6.60265 10.3357 6.18519 9.86906L5.81256 9.45257L5.43993 9.86906C5.02248 10.3357 4.42751 10.6231 3.75009 10.6231C2.52106 10.6231 1.53097 9.65273 1.50071 8.4689L1.57309 8.25502L4.95949 3.58692C5.00985 3.52544 5.07332 3.5 5.12509 3.5H18.8749C18.9267 3.5 18.9902 3.52543 19.0405 3.58692L22.4269 8.25494Z" stroke="#58F2F0"/>
<path d="M20.2498 12.9767C20.5503 12.9767 20.8425 12.9437 21.1248 12.8859V19.2461C21.1248 19.71 20.74 20.0999 20.2498 20.0999H19.3748V13.8307V13.3307H18.8748H14.7499H14.2499V13.8307V20.0999H3.74999C3.25981 20.0999 2.875 19.71 2.875 19.2461V12.861C3.85778 13.0489 4.90103 12.9397 5.81266 12.4952C7.08757 13.1164 8.66254 13.1163 9.93741 12.4951C11.2124 13.1165 12.7865 13.1163 14.0624 12.495C15.338 13.1163 16.9109 13.1164 18.1867 12.4953C18.8215 12.8086 19.5272 12.9767 20.2498 12.9767ZM10.6249 18.3924H11.1249V17.8924V13.8308V13.3308H10.6249H5.12497H4.62497V13.8308V17.8924V18.3924H5.12497H10.6249Z" fill="#58F2F0" stroke="#58F2F0"/>
</svg>
