<svg width="20" height="18" viewBox="0 0 20 18" fill="none" xmlns="http://www.w3.org/2000/svg">
<path d="M0.5 4.5413L4.21438 0.667969C4.72627 1.42281 5.22138 2.08575 5.64201 2.79102C6.13922 3.62537 6.88084 4.00847 7.81651 4.13342C9.04485 4.29141 10.2679 4.52271 11.5015 4.61565C13.075 4.73543 14.1785 5.51815 14.9893 6.77794C15.4089 7.42642 15.7844 8.10176 16.2407 8.86589C15.1771 8.86589 14.211 8.87208 13.2459 8.85763C13.1277 8.8343 13.0219 8.76977 12.948 8.67589C12.5138 8.20914 11.9589 8.05116 11.3431 8.04806C10.7494 8.04806 10.1526 8.02121 9.55989 8.06871C9.33436 8.0873 8.95988 8.25974 8.94205 8.39811C8.9302 8.53495 8.94853 8.67269 8.99579 8.80191C9.04304 8.93112 9.11811 9.04875 9.21584 9.14676C9.77598 9.60834 10.4117 9.98111 10.9938 10.4189C11.357 10.6844 11.6913 10.9861 11.9914 11.3194C12.2914 11.6643 12.3187 12.0856 12.0145 12.4553C11.7354 12.7981 11.3631 12.7341 11.0085 12.5823C9.18961 11.8016 7.36441 11.0333 5.5539 10.2238C4.26578 9.64757 3.27555 8.71409 2.50352 7.55137C1.81015 6.5012 1.1105 5.45517 0.5 4.5413Z" fill="#0F283E"/>
<path d="M3.27734 17.3332C3.41971 16.8457 3.53172 16.3867 3.69608 15.9409C3.73795 15.8311 3.96197 15.7279 4.11481 15.7128C4.47202 15.692 4.8302 15.6885 5.18782 15.7023V11.142L6.10275 11.4781V16.5334H17.0767C17.0914 16.3668 17.1144 16.2163 17.1144 16.0658C17.1144 14.4406 17.0998 12.8155 17.1259 11.1913C17.1322 10.7767 16.9668 10.6915 16.5523 10.7029C15.6457 10.7275 14.7339 10.6641 13.8305 10.7246C12.9511 10.7833 12.2246 10.6082 11.6604 9.92578H18.0147V15.7071C18.4219 15.7071 18.7475 15.7213 19.0762 15.7023C19.34 15.6882 19.4949 15.7383 19.5577 16.0043C19.6624 16.434 19.8027 16.8561 19.944 17.3294L3.27734 17.3332Z" fill="#0F283E"/>
<path d="M11.5502 16.1211L9.18359 13.8693L10.3392 12.8811L11.4632 14.2574L14.1575 11.1445L15.1555 12.3738L11.5502 16.1211Z" fill="#0F283E"/>
</svg>
