<svg width="29" height="28" viewBox="0 0 29 28" fill="none" xmlns="http://www.w3.org/2000/svg">
<path d="M5.80078 12.6885L14.5008 5.92188L23.2008 12.6885V23.3219C23.2008 23.8346 22.9971 24.3264 22.6345 24.6889C22.272 25.0515 21.7802 25.2552 21.2674 25.2552H7.73411C7.22136 25.2552 6.72961 25.0515 6.36704 24.6889C6.00447 24.3264 5.80078 23.8346 5.80078 23.3219V12.6885Z" fill="#58F2F0" stroke="#58F2F0" stroke-width="1.93333" stroke-linecap="round" stroke-linejoin="round"/>
<path d="M2.41797 10.7578L13.2936 2.05734C13.9996 1.49247 15.003 1.49247 15.709 2.05734L26.5846 10.7578" stroke="#58F2F0" stroke-width="1.93333"/>
<path d="M18.6908 21.7188H17.1898C17.2691 20.7634 17.3088 19.8345 17.3088 18.932C17.3088 18.2561 17.2219 17.8143 17.0482 17.6066C16.8745 17.399 16.597 17.2951 16.2156 17.2951C15.9098 17.2951 15.5869 17.4065 15.2471 17.6293C15.232 18.1013 15.2244 18.5242 15.2244 18.898C15.2244 19.5286 15.2357 20.4689 15.2584 21.7188H13.7404C13.8235 20.6841 13.865 19.6778 13.865 18.6998C13.865 18.1938 13.7933 17.8332 13.6498 17.618C13.5101 17.4027 13.2174 17.2951 12.7719 17.2951C12.3603 17.2951 12.0186 17.4329 11.7467 17.7086C11.7656 19.2039 11.775 20.5406 11.775 21.7188H10.2514C10.3193 20.5406 10.3533 19.6117 10.3533 18.932C10.3533 18.0484 10.2608 17.1969 10.0758 16.3775L11.5258 16.2189L11.6221 16.8193H11.7127C12.2036 16.3738 12.7568 16.151 13.3723 16.151C14.1426 16.151 14.6844 16.3738 14.9979 16.8193H15.0885C15.6473 16.3738 16.2005 16.151 16.748 16.151C17.39 16.151 17.8733 16.2907 18.198 16.5701C18.5266 16.8458 18.6908 17.348 18.6908 18.0768C18.6908 18.1485 18.687 18.2863 18.6795 18.4902C18.6719 18.6904 18.6682 18.8263 18.6682 18.898C18.6682 19.5286 18.6757 20.4689 18.6908 21.7188Z" fill="#232946"/>
</svg>
