<?xml version="1.0" encoding="UTF-8" standalone="no"?>
<svg
   width="1440"
   height="286"
   viewBox="0 0 1440 286"
   fill="none"
   version="1.1"
   id="svg6"
   xmlns="http://www.w3.org/2000/svg"
   xmlnsSvg="http://www.w3.org/2000/svg">
  <g
     clip-path="url(#clip0_3243_5353)"
     id="g6">
    <path
       d="M285.136 10.5781H234.369L176.434 247.805V10.5781H126.618H117.775H66.9952L0.00585938 286.428H59.6284L117.775 46.9995V286.428H167.004H176.434H226.626L285.136 46.8744V286.428H343.445V10.5781H293.991H285.136Z"
       fill="white"
       id="path2" />
    <path
       d="M509.388 2.92529C429.216 2.92529 363.99 68.1511 363.99 148.323C363.99 228.495 429.216 294.071 509.388 294.071C589.56 294.071 655.136 228.695 655.136 148.323C655.136 109.25 639.977 72.6538 612.449 45.2752C584.995 17.9716 548.399 2.92529 509.388 2.92529ZM596.477 148.673C596.477 196.501 557.416 235.412 509.388 235.412C461.36 235.412 422.65 196.501 422.65 148.673C422.65 100.845 461.56 61.5973 509.388 61.5973C557.216 61.5973 596.477 100.658 596.477 148.673Z"
       fill="white"
       id="path3" />
    <path
       d="M795.309 173.838H877.669V210.998C861.235 226.757 839.797 235.412 816.996 235.412C794.195 235.412 771.982 226.294 755.66 209.659C739.276 193.275 730.258 171.499 730.258 148.323C730.258 125.147 739.301 103.322 755.66 86.637C772.032 70.2523 793.82 61.2345 816.996 61.2345C840.172 61.2345 863.048 70.7026 879.583 87.8752L887 95.5922L928.887 54.2429L921.47 46.726C893.616 18.4844 856.507 2.92529 816.984 2.92529C777.461 2.92529 741.615 17.9716 714.298 45.2877C687.158 72.4286 671.586 109.988 671.586 148.323C671.586 186.658 686.732 223.405 714.236 251.309C741.427 278.887 777.911 294.071 816.971 294.071C856.032 294.071 893.366 278.387 921.445 249.92L921.683 249.67C926.486 244.455 930.488 239.639 934.253 234.499L936.291 231.71V115.179H795.271V173.838H795.309Z"
       fill="white"
       id="path4" />
    <path
       d="M1127.58 182.729C1127.58 212.272 1104.29 235.41 1074.55 235.41C1044.81 235.41 1021.87 212.272 1021.87 182.729V10.5781H963.212V182.729C963.212 244.128 1013.17 294.07 1074.55 294.07C1135.94 294.07 1186.24 244.115 1186.24 182.729V10.5781H1127.58V182.729Z"
       fill="white"
       id="path5" />
    <path
       d="M1275.87 227.768V10.5781H1217.21V286.428H1440.59V227.768H1275.87Z"
       fill="white"
       id="path6" />
  </g>
  <defs
     id="defs6">
    <clipPath
       id="clip0_3243_5353">
      <rect
         width="1447"
         height="294"
         fill="white"
         transform="translate(0 0.588867)"
         id="rect6" />
    </clipPath>
  </defs>
</svg>
