<?xml version="1.0" encoding="UTF-8" standalone="no"?>
<svg
   width="23"
   height="20"
   viewBox="0 0 23 20"
   fill="none"
   version="1.1"
   id="svg1"
   xmlns="http://www.w3.org/2000/svg"
   xmlnsSvg="http://www.w3.org/2000/svg">
  <defs
     id="defs1" />
  <path
     fill-rule="evenodd"
     clip-rule="evenodd"
     d="M16.1725 0.0183178C13.6062 0.355575 11.5325 2.22856 10.9787 4.70928C10.874 5.178 10.8608 6.49088 10.956 6.95999C11.3235 8.77166 12.5366 10.3427 14.1958 11.1555C14.6544 11.3802 15.0255 11.5117 15.5865 11.6484C16.0113 11.752 16.1459 11.7641 16.8913 11.7656C17.8104 11.7675 18.0891 11.7294 18.804 11.5037C20.9092 10.8391 22.482 9.10136 22.9164 6.95999C22.9993 6.55172 22.9993 5.22681 22.9164 4.81854C22.4414 2.4771 20.6299 0.65516 18.239 0.114115C17.8606 0.0284569 16.5556 -0.0320282 16.1725 0.0183178ZM17.4765 1.34571C19.0948 1.53818 20.4541 2.48103 21.16 3.90077C22.151 5.89364 21.5667 8.20811 19.7301 9.56479C19.3616 9.83706 18.6464 10.179 18.1941 10.2993C16.0002 10.8825 13.7015 9.86708 12.7124 7.87776C12.0878 6.62164 12.072 5.21663 12.6685 3.97756C13.5381 2.17144 15.4803 1.10827 17.4765 1.34571ZM16.5876 2.61131C16.3895 2.72883 16.2627 2.94385 16.2625 3.1628C16.2623 3.33735 16.2561 3.34487 16.049 3.41951C15.5666 3.59332 15.1286 3.96314 14.9448 4.35196C14.8699 4.51026 14.8481 4.6401 14.8481 4.9278C14.8481 5.35744 14.9357 5.59178 15.2045 5.88118C15.5134 6.21385 15.8254 6.34334 16.7969 6.5421C17.5777 6.70184 17.6654 6.73483 17.6469 6.86175C17.6238 7.02 17.2549 7.17352 16.8941 7.17501C16.6506 7.17606 16.5486 7.15172 16.3079 7.03534C15.9623 6.86817 15.8464 6.86148 15.5891 6.99386C15.2411 7.17283 15.1207 7.59819 15.3314 7.90407C15.4586 8.08893 15.7855 8.30618 16.0511 8.38244C16.2493 8.43939 16.2529 8.44376 16.2736 8.65397C16.2983 8.90421 16.4105 9.07146 16.6249 9.17784C16.9177 9.32306 17.2987 9.23789 17.4896 8.9845C17.5381 8.92021 17.5874 8.76956 17.5992 8.64977C17.6203 8.43637 17.6249 8.43043 17.8288 8.35705C18.3056 8.18538 18.7446 7.81364 18.9277 7.42657C19.0643 7.13773 19.0643 6.56374 18.9277 6.2749C18.6741 5.73862 18.2205 5.46993 17.2372 5.27344C16.4081 5.10777 16.2079 5.0364 16.2261 4.91298C16.2503 4.74888 16.5932 4.60352 16.9586 4.60247C17.2242 4.60168 17.3185 4.62354 17.5645 4.74284C17.91 4.91036 18.0259 4.91713 18.2833 4.78467C18.6313 4.6057 18.7517 4.18034 18.541 3.87446C18.4129 3.68842 18.0864 3.47222 17.8165 3.39469C17.6217 3.33875 17.6101 3.32669 17.61 3.18107C17.6098 2.67722 17.0255 2.35158 16.5876 2.61131ZM6.25615 10.4795C5.14571 10.593 3.97009 11.0558 3.24398 11.6653L3.0964 11.7892L1.78394 11.7894C0.553557 11.7895 0.462316 11.795 0.325073 11.8764C0.244524 11.9241 0.138502 12.0273 0.0894002 12.1056C0.00229215 12.2446 9.08588e-05 12.3325 1.0104e-06 15.7006C-8.8838e-05 18.9014 0.00566146 19.1641 0.0784836 19.303C0.121656 19.3854 0.214065 19.4936 0.283787 19.5434C0.405397 19.6302 0.473502 19.6344 1.96845 19.6456C3.38477 19.6563 3.54034 19.6503 3.68037 19.5801C3.94511 19.4472 4.01843 19.3044 4.0364 18.8863C4.0501 18.5678 4.06254 18.5194 4.12625 18.5374C4.38937 18.6118 9.6402 19.7547 10.0427 19.8252C11.2007 20.0279 12.8438 20.0579 13.9263 19.8963C15.8087 19.6152 17.5567 18.9637 19.0701 17.9793C19.8564 17.4678 22.3716 15.6276 22.5292 15.4485C23.1058 14.7931 23.1584 13.8059 22.6559 13.0693C22.2312 12.4469 21.4187 12.1 20.6761 12.2243C20.5094 12.2522 20.2718 12.3201 20.1483 12.3752C20.0247 12.4304 19.206 12.9914 18.3289 13.622C16.9014 14.6481 16.3708 14.9888 16.0489 15.086C15.958 15.1135 15.9517 15.1063 15.9867 15.0153C16.1896 14.4879 16.0014 13.6944 15.5526 13.1843C15.2167 12.8026 15.1336 12.7695 11.7699 11.6815C10.028 11.1181 8.46125 10.6269 8.28829 10.5898C7.61807 10.4464 6.93989 10.4096 6.25615 10.4795ZM7.95136 11.8765C8.06255 11.9027 9.55947 12.375 11.2778 12.926C13.6035 13.6718 14.4266 13.9534 14.4981 14.0276C14.8992 14.4441 14.6119 15.1327 14.0423 15.1202C13.9359 15.1179 12.9692 14.8305 11.7406 14.436C10.481 14.0316 9.55233 13.7559 9.4495 13.756C9.0963 13.7563 8.80524 14.0524 8.80524 14.4114C8.80524 14.6286 8.91845 14.8485 9.08354 14.9522C9.1866 15.0168 13.1084 16.2903 13.7466 16.4663C14.1832 16.5867 15.1287 16.6312 15.6211 16.5544C16.6521 16.3937 17.0911 16.1629 19.0784 14.7366C20.1106 13.9957 20.7397 13.572 20.8334 13.5547C21.1886 13.4888 21.5081 13.6752 21.6107 14.0083C21.6588 14.1646 21.6555 14.2183 21.587 14.3926C21.5137 14.5795 21.4341 14.6483 20.5584 15.281C18.8754 16.497 18.4483 16.7967 18.0687 17.028C16.122 18.2141 13.7042 18.8137 11.5118 18.6539C10.5564 18.5843 10.2668 18.53 6.97399 17.8024C5.38632 17.4517 4.07732 17.1647 4.06515 17.1647C4.05293 17.1647 4.04327 16.1666 4.04363 14.9467L4.0443 12.7288L4.27948 12.5604C4.74108 12.2298 5.3742 11.9727 6.02034 11.8533C6.40413 11.7824 7.61385 11.7969 7.95136 11.8765ZM2.69523 15.7225V18.3447H2.02137H1.3475V15.7225V13.1003H2.02137H2.69523V15.7225Z"
     fill="#613ED2"
     id="path1" />
  <path
     style="fill:#000000;stroke-width:0.0265896"
     d="m 11.446821,19.966251 c -0.06581,-0.0055 -0.275203,-0.02294 -0.465318,-0.03872 -0.190116,-0.01577 -0.501038,-0.052 -0.690939,-0.08049 C 9.9335211,19.793461 7.8852498,19.359018 5.4783301,18.82636 4.6191804,18.636227 4.0871221,18.529989 4.0716328,18.545478 c -0.013702,0.0137 -0.034963,0.153693 -0.047247,0.311093 -0.034904,0.447221 -0.086909,0.559115 -0.3198276,0.688139 l -0.1415524,0.07841 -1.515607,-0.0017 C 0.9577066,19.620223 0.50094784,19.61084 0.42203405,19.588048 0.28307328,19.547912 0.10901398,19.363826 0.0615004,19.206745 0.00857779,19.031782 0.01024532,12.357276 0.06324914,12.207149 0.11117361,12.07141 0.30011767,11.884467 0.42938777,11.844888 c 0.0697306,-0.02135 0.51618807,-0.03576 1.39926773,-0.04516 l 1.2968637,-0.0138 0.1679654,-0.137678 c 0.5469719,-0.448344 1.4761525,-0.870471 2.3117369,-1.050223 0.7955897,-0.171148 1.7998633,-0.177196 2.5711713,-0.01548 0.2945221,0.06175 1.4916569,0.434622 4.0149362,1.250535 2.046729,0.661819 2.713064,0.898399 2.993882,1.06297 0.332494,0.194854 0.599129,0.555911 0.759022,1.02781 0.106453,0.314178 0.134559,0.72308 0.06593,0.959159 -0.06226,0.214156 -0.05851,0.242802 0.02888,0.220868 0.270914,-0.06799 0.838461,-0.430775 2.307775,-1.475147 1.445208,-1.027236 1.760748,-1.231703 2.034104,-1.318076 0.679655,-0.214753 1.446124,-0.03966 1.994292,0.455576 0.452355,0.408676 0.694025,1.141968 0.577301,1.751685 -0.09987,0.521684 -0.288939,0.818114 -0.75139,1.178072 -0.738459,0.574793 -2.444403,1.807327 -3.081101,2.226075 -1.598536,1.051338 -3.506112,1.749592 -5.452975,1.996022 -0.30244,0.03828 -1.919812,0.07337 -2.220231,0.04816 z m 1.814497,-1.328888 c 1.681763,-0.173375 3.348138,-0.718937 4.726543,-1.547445 0.692597,-0.416293 3.309324,-2.294522 3.501263,-2.513128 0.233023,-0.265399 0.204827,-0.630607 -0.0677,-0.876814 -0.101706,-0.09188 -0.316889,-0.179352 -0.440417,-0.179018 -0.188977,5.09e-4 -0.454981,0.167625 -1.889683,1.187186 -2.057848,1.462397 -2.483632,1.685588 -3.496531,1.832846 -0.358903,0.05218 -1.09758,0.03956 -1.515607,-0.02589 C 13.722599,16.45927 12.636133,16.123257 10.18381,15.310375 9.1495356,14.967537 9.0885814,14.94375 8.9949448,14.846417 8.9340833,14.783153 8.8805696,14.691029 8.8553494,14.606103 c -0.05113,-0.172174 -0.051044,-0.2172 7.466e-4,-0.391599 0.057437,-0.193413 0.2233686,-0.357418 0.4192204,-0.414354 0.1377737,-0.04005 0.1575284,-0.03942 0.3564199,0.01136 0.3136666,0.08009 0.9040177,0.25864 2.0223117,0.611656 1.954547,0.616999 2.355756,0.729716 2.502647,0.703101 0.431198,-0.07813 0.660886,-0.547834 0.460935,-0.942597 -0.05308,-0.104793 -0.102275,-0.160182 -0.17948,-0.202072 -0.206864,-0.112242 -1.345585,-0.491804 -4.320809,-1.440227 -1.7155505,-0.546873 -2.1203396,-0.670793 -2.2767274,-0.696985 -0.2538932,-0.04252 -1.2423146,-0.06103 -1.5699957,-0.0294 -0.721732,0.06968 -1.5159111,0.372507 -2.089404,0.796718 l -0.1528902,0.113092 v 1.989296 c 0,1.094113 0.00759,2.096176 0.016859,2.226806 l 0.016859,0.23751 2.1701351,0.475953 c 3.7809622,0.829238 4.1984682,0.912665 4.9221582,0.983552 0.518432,0.05078 1.611816,0.05049 2.106983,-5.53e-4 z M 2.6988439,15.727746 v -2.63237 H 2.0208092 1.3427746 v 2.63237 2.63237 h 0.6780346 0.6780347 z"
     id="path2" />
  <path
     style="fill:#000000;stroke-width:0.0265896"
     d="M 16.392486,11.73541 C 15.982003,11.7201 15.8833,11.70697 15.554913,11.624038 15.021701,11.489376 14.680037,11.365649 14.225434,11.142595 13.599995,10.835718 13.172072,10.536084 12.686847,10.065268 11.846083,9.2494705 11.274697,8.2474067 11.003274,7.1127168 c -0.05988,-0.250311 -0.06823,-0.3522606 -0.08075,-0.9855803 -0.02127,-1.0760206 0.04486,-1.532494 0.326554,-2.254195 0.555424,-1.4229826 1.601919,-2.5604339 2.989648,-3.24949709 0.492139,-0.24436673 0.940637,-0.39734514 1.568786,-0.53509939 0.251309,-0.05511226 0.345578,-0.06109264 0.943931,-0.05988217 0.812538,0.0016438 1.247589,0.04201455 1.701734,0.15791326 1.956489,0.49929984 3.575683,1.97061079 4.225818,3.83986879 0.22954,0.6599695 0.280197,0.9968482 0.280197,1.8633505 0,0.6649991 -0.02687,0.967083 -0.11799,1.3265546 -0.422882,1.6682592 -1.556101,3.091938 -3.086323,3.877391 -0.553608,0.284163 -1.301827,0.533049 -1.815304,0.60384 -0.343151,0.04731 -0.918985,0.06146 -1.547091,0.03803 z m 1.242305,-1.312016 c 0.542715,-0.07715 0.93535,-0.207656 1.521517,-0.5057172 C 19.555272,9.714807 19.839793,9.5188494 20.157293,9.2282693 21.01827,8.4402946 21.533677,7.3988525 21.633656,6.2450996 21.77048,4.6661757 20.968125,3.0208742 19.625459,2.1271049 17.639103,0.80485216 15.027418,1.1032658 13.432137,2.8347598 c -0.821204,0.8913237 -1.26784,2.0926884 -1.204905,3.2409627 0.121222,2.2117287 1.765299,3.9981115 3.999813,4.3460235 0.314061,0.0489 1.069153,0.04978 1.407746,0.0016 z"
     id="path3" />
  <path
     style="fill:#000000;stroke-width:0.0265896"
     d="m 16.73012,9.2031086 c -0.264987,-0.098759 -0.395628,-0.260656 -0.441828,-0.5475348 -0.01508,-0.093643 -0.04268,-0.1849602 -0.06132,-0.2029281 -0.01865,-0.017968 -0.129627,-0.069581 -0.246621,-0.1146969 -0.251801,-0.0971 -0.540852,-0.3023359 -0.642826,-0.4564303 -0.155558,-0.235064 -0.103345,-0.5770081 0.117749,-0.771131 0.250468,-0.2199138 0.449366,-0.2354306 0.83962,-0.065502 0.185216,0.080648 0.327511,0.124016 0.447124,0.1362709 0.484826,0.049672 1.062651,-0.219888 0.887119,-0.4138479 C 17.570245,6.702237 17.44372,6.666053 16.751445,6.5163036 15.821367,6.315114 15.571473,6.2121527 15.255795,5.9000677 15.012521,5.6595619 14.912689,5.4599788 14.876543,5.1418646 c -0.05712,-0.502712 0.04441,-0.829008 0.363049,-1.1667868 0.213754,-0.2265908 0.457051,-0.3923111 0.765555,-0.5214533 0.253958,-0.1063091 0.28098,-0.1389013 0.28098,-0.3389016 0,-0.1619203 0.135687,-0.3777615 0.301947,-0.4803171 0.414049,-0.2554013 1.000943,0.051736 1.000943,0.52382 0,0.063484 0.01496,0.1337908 0.03324,0.1562378 0.01828,0.022447 0.125661,0.073697 0.238623,0.1138886 0.335707,0.1194444 0.635334,0.3571188 0.732798,0.5812804 0.08383,0.1928006 -0.0055,0.5186386 -0.183228,0.6686867 -0.253458,0.2139293 -0.444703,0.2248233 -0.842864,0.048013 L 17.28324,4.600063 16.97746,4.601923 c -0.345303,0.0021 -0.562088,0.064165 -0.69765,0.1997275 -0.08675,0.086751 -0.09214,0.138612 -0.02174,0.2090216 0.06617,0.066172 0.207819,0.1074539 0.877511,0.2557426 0.889122,0.1968765 1.191226,0.3228147 1.492537,0.6221928 0.315496,0.3134735 0.436775,0.6966219 0.372744,1.1775761 -0.04265,0.3203668 -0.146156,0.5152534 -0.413059,0.7777456 -0.233671,0.2298102 -0.397652,0.338296 -0.723475,0.4786346 -0.216218,0.093129 -0.274186,0.1525035 -0.274921,0.2815904 -5.83e-4,0.1025816 -0.06641,0.3024317 -0.128201,0.3892058 -0.130261,0.1829356 -0.510401,0.2919963 -0.731088,0.2097472 z"
     id="path4" />
</svg>
