<?xml version="1.0" encoding="UTF-8" standalone="no"?>
<svg
   width="20"
   height="18"
   viewBox="0 0 20 18"
   fill="none"
   version="1.1"
   id="svg2"
   xmlns="http://www.w3.org/2000/svg"
   xmlnsSvg="http://www.w3.org/2000/svg">
  <defs
     id="defs2" />
  <path
     d="M19.0454 12.5201C18.2455 11.7325 17.0573 11.4109 15.9652 11.6725L11.6162 7.39689L14.6808 4.38381L15.008 4.70673C15.1183 4.81388 15.2671 4.87521 15.4216 4.87521C15.4377 4.87521 15.4547 4.8739 15.4708 4.87259C15.643 4.85782 15.7993 4.7705 15.8986 4.63194L17.6159 2.24488C17.7795 2.01694 17.7529 1.70488 17.5516 1.50703L16.7817 0.748797C16.5804 0.549094 16.2616 0.524227 16.0311 0.686156L13.6031 2.3752C13.4622 2.47224 13.3733 2.62595 13.3583 2.79517C13.3441 2.96364 13.4051 3.12894 13.527 3.25029L13.8537 3.5706L10.789 6.58368L8.12501 3.96571C8.39056 2.88771 8.07175 1.73307 7.26275 0.935197C6.45051 0.139957 5.24606 -0.180571 4.13653 0.0997474C3.93337 0.152106 3.77302 0.306554 3.71766 0.504945C3.6625 0.704648 3.71956 0.917251 3.86755 1.06348L5.17723 2.35013L5.03381 3.28769L4.08063 3.42999L2.77324 2.14352C2.62525 1.99729 2.4084 1.94176 2.20637 1.99542C2.00379 2.0504 1.84667 2.20597 1.79417 2.40586C1.50523 3.5042 1.83127 4.68186 2.64406 5.47974C3.44584 6.26602 4.63339 6.5878 5.7235 6.32734L8.3875 8.94532L7.72402 9.5983L6.72537 8.61738C6.49691 8.39281 6.12733 8.39281 5.89943 8.61738L4.55421 9.93864C4.44959 10.0407 4.38872 10.178 4.38282 10.3229L4.35752 10.9912L3.88997 11.4501C3.5179 11.4628 2.8972 11.5662 2.40055 12.0544L0.448723 13.9708C-0.124038 14.5357 -0.262335 15.5377 0.718834 16.5041L1.52592 17.2968C2.11675 17.8776 2.6693 18 3.0277 18C3.43154 18 3.81273 17.8442 4.0996 17.561L6.05011 15.6436C6.55076 15.1522 6.65462 14.5426 6.66568 14.1787L7.13381 13.7185L7.81287 13.6937C7.96029 13.6886 8.09915 13.6286 8.20434 13.5265L9.54898 12.2052C9.65798 12.0968 9.72037 11.9511 9.72037 11.7987C9.72037 11.6461 9.65798 11.4994 9.54898 11.3922L8.54974 10.41L9.21264 9.75697L13.5627 14.0326C13.2972 15.1106 13.6166 16.2665 14.425 17.0618C15.0398 17.6661 15.8592 17.9993 16.732 17.9993C17.0086 17.9993 17.2846 17.9642 17.552 17.8972C17.7552 17.8462 17.9155 17.6917 17.9709 17.492C18.026 17.2934 17.969 17.0803 17.821 16.9348L16.5113 15.6468L16.6547 14.7106L17.6079 14.5683L18.9189 15.8562C19.0676 16.0024 19.2845 16.0591 19.4858 16.003C19.6884 15.9493 19.8455 15.7925 19.8974 15.5926C20.1848 14.494 19.8582 13.3165 19.0454 12.5201ZM16.3029 1.90431L16.3763 1.97649L15.344 3.41125L14.8433 2.91912L16.3029 1.90431ZM7.53954 12.5546L6.86047 12.5795C6.71306 12.5858 6.57419 12.6458 6.469 12.7479L5.66133 13.5419C5.5335 13.6675 5.47168 13.845 5.49508 14.0219C5.49565 14.0269 5.54434 14.5153 5.22364 14.8311L3.27312 16.7485C3.20369 16.8167 3.12323 16.8506 3.02698 16.8506C2.8341 16.8506 2.58815 16.7173 2.35113 16.4843L1.54477 15.6916C1.25716 15.4089 1.03517 15.0209 1.27466 14.784L3.22571 12.8655C3.46329 12.6325 3.79502 12.5974 3.9712 12.5974C4.014 12.5974 4.04386 12.5987 4.04785 12.6C4.22837 12.6222 4.40889 12.5624 4.53749 12.4366L5.34385 11.6439C5.44771 11.5405 5.50877 11.4033 5.51466 11.2583L5.53996 10.5913L6.31072 9.83445L8.30857 11.7989L7.53954 12.5546ZM18.2239 13.5522C18.0929 13.4226 17.9057 13.3626 17.7233 13.39L16.0526 13.6384C15.7994 13.676 15.6006 13.8714 15.5624 14.1208L15.3105 15.7636C15.2826 15.9443 15.3436 16.1262 15.4749 16.2558L15.9183 16.6911C15.6721 16.589 15.4456 16.4403 15.2521 16.25C14.6737 15.6813 14.4854 14.8267 14.7716 14.0723C14.8515 13.8618 14.7988 13.6236 14.6371 13.4654L6.30187 5.27076C6.19021 5.16099 6.04089 5.10228 5.88833 5.10228C5.82024 5.10228 5.75062 5.11369 5.68442 5.13874C4.92866 5.41698 4.04434 5.2313 3.46973 4.66642C3.27761 4.47681 3.12829 4.25598 3.025 4.01531L3.46383 4.448C3.59489 4.57627 3.78073 4.63629 3.96447 4.60881L5.63518 4.35918C5.88912 4.3216 6.08714 4.1262 6.12535 3.87676L6.3772 2.23391C6.40517 2.05459 6.34411 1.87135 6.21286 1.7425L5.77079 1.30719C6.01693 1.40928 6.24272 1.55794 6.43695 1.74698C7.01409 2.3169 7.2024 3.17164 6.91611 3.92725C6.83622 4.13779 6.88891 4.37471 7.05059 4.53422L15.3854 12.7269C15.5471 12.8853 15.7879 12.9363 16.0023 12.8591C16.7612 12.5822 17.6442 12.7666 18.2189 13.3314C18.4118 13.5211 18.5617 13.7432 18.665 13.9844L18.2239 13.5522Z"
     fill="#613ED2"
     id="path1" />
  <path
     d="M16.3029 1.90431L16.3763 1.97649L15.344 3.41125L14.8433 2.91912L16.3029 1.90431Z"
     fill="#613ED2"
     id="path2" />
  <path
     style="fill:#000000;stroke-width:0.0231214"
     d="M 2.8618069,17.973523 C 2.5402345,17.944778 2.2158382,17.81475 1.8843931,17.581744 1.6622127,17.425552 0.60254479,16.380648 0.42360432,16.141309 0.26914708,15.934717 0.1240115,15.650074 0.06860994,15.445087 -0.04878532,15.010722 0.03558713,14.529763 0.29175734,14.173052 0.39298412,14.032097 2.4559006,12.010414 2.6323034,11.87929 c 0.2824899,-0.209982 0.7300679,-0.37324 1.1267697,-0.411 l 0.1521366,-0.01448 0.2290918,-0.229954 0.2290916,-0.229955 0.014508,-0.38754 c 0.013294,-0.355114 0.01947,-0.397178 0.073812,-0.502731 0.075568,-0.1467793 1.4586076,-1.5050507 1.6140268,-1.5851208 0.1398248,-0.072036 0.3415177,-0.071753 0.4821253,6.775e-4 0.061671,0.031768 0.3151866,0.2606365 0.631831,0.5704037 0.2908583,0.2845408 0.535973,0.517347 0.5446997,0.517347 0.00873,0 0.1643808,-0.1487794 0.3458978,-0.3306208 L 8.4063249,8.9456946 7.2551061,7.8138879 C 6.621936,7.191394 6.019104,6.6006324 5.9154795,6.5010839 L 5.7270717,6.3200872 5.491717,6.3594412 C 5.2007329,6.4080971 4.560569,6.3953417 4.2890173,6.335477 3.6360474,6.1915269 3.098538,5.8989743 2.6344092,5.4349161 2.1797548,4.9803309 1.9093541,4.4815408 1.7707418,3.8417669 1.6488734,3.2792754 1.70681,2.5131748 1.8920824,2.2372692 2.043199,2.0122281 2.3688005,1.9265805 2.6056714,2.0495635 c 0.065541,0.034029 0.3578276,0.3018719 0.7785515,0.7134423 0.3704885,0.3624277 0.6918157,0.6617863 0.7140606,0.6652414 0.041473,0.00644 0.9276911,-0.1224988 0.9414594,-0.1369776 0.0042,-0.00442 0.039569,-0.218418 0.078595,-0.4755558 L 5.1892941,2.3481903 4.4980324,1.6633524 C 4.0930238,1.2621076 3.7901121,0.94346779 3.7665429,0.89388155 3.6222687,0.59035096 3.7962509,0.21602062 4.1272929,0.11771171 4.3728199,0.04479804 4.7474083,0.00501474 5.0635838,0.01827261 5.5841336,0.04010031 6.0247565,0.15717055 6.4855491,0.39607829 7.3319873,0.83493221 7.9339949,1.6281133 8.1416074,2.5780347 c 0.05775,0.2642312 0.060937,1.0241623 0.00521,1.2434372 L 8.1099306,3.9666432 9.4491332,5.2856331 10.788336,6.6046229 11.875632,5.5335253 C 12.473645,4.9444217 13.167657,4.2633057 13.417881,4.0199341 L 13.872832,3.5774405 13.661643,3.3609746 C 13.545489,3.2419184 13.43364,3.1042206 13.413089,3.0549799 c -0.08131,-0.1948181 -0.02923,-0.4573764 0.118644,-0.5981193 0.0711,-0.067668 2.489245,-1.75364203 2.603588,-1.81526527 0.105489,-0.0568517 0.370254,-0.053304 0.480977,0.006445 0.04648,0.0250809 0.288866,0.24565426 0.53864,0.49016317 0.490776,0.4804308 0.546394,0.5584358 0.548022,0.7686059 4.85e-4,0.062583 -0.01071,0.148171 -0.02487,0.1901947 -0.01416,0.042024 -0.433942,0.6430452 -0.932845,1.3356034 -0.647647,0.8990377 -0.933551,1.2776846 -0.999583,1.3238351 -0.141394,0.09882 -0.314707,0.1268606 -0.482207,0.078016 -0.117182,-0.034172 -0.164441,-0.067588 -0.35147,-0.2485216 -0.118846,-0.114973 -0.225746,-0.2054037 -0.237554,-0.2009575 -0.04974,0.018728 -3.05656,2.9930229 -3.050751,3.0177492 0.01169,0.049771 4.32723,4.2736143 4.363618,4.2709043 0.0197,-0.0015 0.155474,-0.021 0.301716,-0.04341 0.464059,-0.0711 1.024339,-0.0188 1.497481,0.139805 1.27247,0.426541 2.131342,1.557549 2.193814,2.88893 0.01483,0.316044 -0.02384,0.686492 -0.09759,0.934814 -0.04154,0.139893 -0.161926,0.283699 -0.297335,0.355191 -0.128856,0.06803 -0.380753,0.06942 -0.50615,0.0028 -0.04861,-0.02583 -0.398916,-0.350678 -0.77845,-0.721881 l -0.690063,-0.674913 -0.483337,0.07276 -0.483337,0.07276 -0.07324,0.476351 -0.07324,0.476351 0.693373,0.682081 c 0.747287,0.735116 0.78445,0.782765 0.785425,1.007021 6.4e-4,0.147347 -0.08664,0.330223 -0.203891,0.427206 -0.100614,0.08322 -0.235335,0.126728 -0.545995,0.176319 -0.285044,0.0455 -0.905115,0.03139 -1.168682,-0.02659 -1.282285,-0.282106 -2.238252,-1.239029 -2.514172,-2.516687 -0.05451,-0.252428 -0.05568,-0.992056 -0.0019,-1.222755 l 0.03623,-0.155488 -0.40746,-0.398994 C 12.946363,13.405844 11.968951,12.445756 10.998441,11.491761 10.02793,10.537767 9.2266731,9.7545905 9.2178696,9.7513702 9.2090661,9.7481501 9.0511501,9.8964978 8.8669452,10.081032 l -0.3349184,0.335517 0.5294396,0.513845 c 0.5863502,0.56908 0.6377398,0.63949 0.6372219,0.873074 -1.632e-4,0.07358 -0.018117,0.166139 -0.042608,0.219653 -0.028158,0.06153 -0.2737241,0.322167 -0.7335963,0.778626 -0.3801986,0.377376 -0.7315368,0.717984 -0.7807516,0.756905 -0.1259367,0.0996 -0.2065924,0.11649 -0.6367929,0.133385 l -0.3794534,0.0149 -0.2357082,0.227323 -0.2357082,0.227323 -0.015353,0.184093 c -0.030574,0.366613 -0.1863147,0.77474 -0.4062969,1.064727 -0.1106816,0.145903 -1.9572248,1.980299 -2.2181815,2.203589 -0.3290451,0.28155 -0.7067064,0.399371 -1.1524315,0.359529 z M 3.1309288,16.84451 c 0.089337,-0.02562 0.1199567,-0.05431 1.3380277,-1.253779 0.7735015,-0.761687 0.8689651,-0.863795 0.9296532,-0.994359 0.077264,-0.166224 0.1149977,-0.372099 0.112216,-0.612242 -0.00144,-0.124705 0.010244,-0.191295 0.046852,-0.266917 0.064976,-0.134222 0.9227819,-0.985788 1.0666,-1.058841 0.082971,-0.04214 0.1625898,-0.05659 0.3930635,-0.07129 0.1589596,-0.01014 0.3435337,-0.01893 0.4101649,-0.01952 l 0.1211475,-0.0011 0.387523,-0.380439 0.387523,-0.380439 -0.6358381,-0.630815 C 7.3381503,10.827833 6.8855491,10.380763 6.6820809,10.181292 l -0.3699422,-0.3626744 -0.391323,0.3805084 -0.391323,0.38051 -0.01512,0.386482 c -0.012481,0.319014 -0.023414,0.404647 -0.062628,0.490529 -0.055592,0.121753 -0.9376673,1.0088 -1.0702414,1.076275 -0.058623,0.02984 -0.1669473,0.04602 -0.3930636,0.05873 -0.3219359,0.01809 -0.4418936,0.0469 -0.6131579,0.14727 -0.1017475,0.05963 -2.1292007,2.036087 -2.1771238,2.122365 -0.039207,0.07059 -0.037778,0.2453 0.00295,0.360739 0.063654,0.180413 0.2177493,0.363853 0.7327094,0.872238 0.5313976,0.524612 0.6961448,0.657408 0.9051906,0.729636 0.1398453,0.04832 0.1843538,0.05146 0.2919208,0.02061 z M 15.650243,16.398833 c -0.28283,-0.289647 -0.332194,-0.369876 -0.332407,-0.540244 -1.57e-4,-0.12525 0.256334,-1.754285 0.291518,-1.851502 0.04471,-0.123526 0.191942,-0.27129 0.316809,-0.317945 0.149197,-0.05574 1.808073,-0.296043 1.949848,-0.282446 0.174437,0.01673 0.246661,0.06356 0.534394,0.346512 0.143063,0.140687 0.260115,0.240064 0.260115,0.220837 0,-0.07494 -0.250276,-0.450773 -0.407303,-0.611633 -0.404732,-0.414612 -0.939865,-0.633753 -1.546454,-0.633284 -0.245902,1.9e-4 -0.423811,0.02925 -0.774566,0.126528 -0.157382,0.04365 -0.283458,0.02743 -0.422982,-0.05441 -0.08701,-0.05104 -2.74725,-2.651677 -7.2880011,-7.1247202 C 7.849711,5.3007075 7.4203889,4.8794666 7.2771649,4.7404308 6.8852828,4.3600081 6.8394597,4.227705 6.9600657,3.8248839 7.0920173,3.3841679 7.0875138,2.9677175 6.9462354,2.5460301 6.7946654,2.0936239 6.4513329,1.6717077 6.0362365,1.4277457 5.9226405,1.3609827 5.8139676,1.3063584 5.794741,1.3063584 c -0.019227,0 0.081141,0.1176722 0.2230387,0.2614939 C 6.289255,1.8430082 6.3685406,1.9680314 6.3694345,2.122367 6.370256,2.2642145 6.1178509,3.8747364 6.076979,3.9884393 6.024138,4.1354395 5.8692187,4.2789658 5.717148,4.3218081 5.6501732,4.3406768 5.2052023,4.4134513 4.7283237,4.4835297 3.8305609,4.6154578 3.7622511,4.6188654 3.6097216,4.5393297 3.5827563,4.5252687 3.4437884,4.3988876 3.300904,4.2584828 3.1580199,4.1180782 3.0345343,4.0097817 3.0264918,4.0178243 c -0.00804,0.00804 0.023856,0.084627 0.070886,0.1701868 0.2919167,0.5310775 0.7528885,0.8773984 1.3722927,1.0309822 0.3089013,0.076593 0.7250636,0.069104 1.0332199,-0.018593 0.2812303,-0.080035 0.5115077,-0.088786 0.6413752,-0.024373 0.050714,0.025153 1.0305841,0.9708296 2.3699422,2.2872398 1.2559142,1.234396 2.8713412,2.8221009 3.5898382,3.5282329 2.239712,2.201168 2.587867,2.551322 2.636504,2.651638 0.06159,0.12704 0.05798,0.304609 -0.01055,0.519165 -0.05987,0.187429 -0.105723,0.467425 -0.105723,0.64559 0,0.159334 0.06247,0.494799 0.126345,0.678469 0.163594,0.470416 0.551574,0.906679 1.019337,1.146192 0.07506,0.03843 0.141055,0.0653 0.146658,0.05969 0.0056,-0.0056 -0.114266,-0.137638 -0.266374,-0.293413 z M 15.860604,2.7166284 c 0.274633,-0.3815768 0.504552,-0.7073779 0.510931,-0.7240022 0.0064,-0.016624 -0.007,-0.046854 -0.02968,-0.067178 -0.03855,-0.03451 -0.08911,-0.00364 -0.765075,0.4670675 -0.398089,0.2772109 -0.73027,0.5104918 -0.738181,0.5184021 -0.01418,0.014181 0.475912,0.4961156 0.506776,0.4983408 0.0087,6.303e-4 0.240595,-0.3110534 0.515228,-0.6926303 z"
     id="path3" />
  <path
     style="fill:#000000;stroke-width:0.0231214"
     d="M 15.098626,3.1564312 C 14.956728,3.0139981 14.877192,2.9177127 14.890968,2.9050408 c 0.01228,-0.011296 0.333164,-0.2360882 0.713076,-0.4995381 0.570236,-0.3954295 0.695873,-0.4735969 0.720119,-0.4480316 0.02407,0.025378 -0.06098,0.1570045 -0.471097,0.7291093 -0.275256,0.3839777 -0.505862,0.6987175 -0.512459,0.699422 -0.0066,7.045e-4 -0.115488,-0.1026026 -0.241981,-0.2295712 z"
     id="path4" />
  <path
     style="fill:#000000;stroke-width:0.0231214"
     d=""
     id="path5" />
  <path
     style="fill:#000000;stroke-width:0.0231214"
     d="m 15.112823,3.1452067 c -0.119161,-0.1232173 -0.207601,-0.23194 -0.196532,-0.2416059 0.118249,-0.1032613 1.34107,-0.9267222 1.376161,-0.9267222 0.01245,0 -5.16e-4,0.04121 -0.02882,0.091578 -0.05473,0.097382 -0.747904,1.071619 -0.864784,1.2154328 l -0.06936,0.085349 z"
     id="path6" />
  <path
     style="fill:#000000;stroke-width:0.0231214"
     d="M 2.7971457,17.955453 C 2.4959022,17.907497 2.1291615,17.746103 1.8528614,17.539894 1.6460239,17.385526 0.49720719,16.232098 0.38821091,16.069364 -0.00624667,15.480429 -0.07248744,14.91376 0.18955698,14.369942 0.26764314,14.207891 0.321724,14.148254 1.015171,13.45951 1.8291575,12.651045 2.512634,11.994953 2.6633699,11.87735 2.8829364,11.706046 3.3750992,11.525903 3.7434462,11.482017 L 3.9261991,11.460247 4.1511905,11.2361 4.376182,11.011953 4.391338,10.673609 C 4.415103,10.143079 4.406324,10.164115 4.7627988,9.7834519 5.0878106,9.4363857 5.9048599,8.6560065 6.0549572,8.549287 6.1328472,8.493907 6.166443,8.485553 6.3112694,8.485553 c 0.2174582,0 0.230277,0.00916 0.879972,0.6290601 0.2837965,0.2707799 0.528344,0.4923272 0.5434391,0.4923272 0.035834,0 0.6699438,-0.6241177 0.6699438,-0.6593873 0,-0.027804 -2.6513797,-2.6359066 -2.6785038,-2.6347838 -0.00833,3.448e-4 -0.1198204,0.014782 -0.2477658,0.032084 C 5.1486504,6.3894342 4.4594509,6.3673595 4.2080925,6.3041635 3.5027008,6.1268153 2.9025089,5.752102 2.4454488,5.203705 2.12774,4.8225066 1.9456161,4.4626624 1.8087244,3.9456516 1.7402136,3.686901 1.737393,3.6576467 1.7370535,3.2023121 1.7367422,2.7846069 1.7427262,2.7065961 1.7874481,2.545345 1.8585621,2.2889336 1.9306082,2.1760061 2.0760902,2.0929178 2.2973403,1.9665567 2.5028136,1.9799002 2.6900839,2.1327906 2.7453526,2.1779128 3.0779501,2.4890375 3.4291891,2.8241785 3.9493945,3.3205417 4.079668,3.433526 4.131781,3.433526 c 0.1124363,0 0.8847843,-0.1179454 0.9055316,-0.1382839 0.010984,-0.010768 0.05218,-0.2280661 0.091546,-0.4828849 L 5.2004326,2.3490506 4.5009834,1.6432427 C 4.0703024,1.2086465 3.788579,0.90642849 3.7678192,0.85674326 3.7250839,0.75446379 3.7244661,0.5649342 3.7665394,0.46423857 3.8165161,0.34462782 3.9541327,0.20698653 4.0753378,0.15538517 4.3431773,0.04135614 4.9948287,-6.7646936e-5 5.4450867,0.06831378 5.9006453,0.13750025 6.3927477,0.33097882 6.7960534,0.59946973 7.4162321,1.0123386 7.8818634,1.6736089 8.093911,2.4426338 c 0.09617,0.3487775 0.1059419,1.0851197 0.0196,1.4769963 -0.011512,0.052249 0.1279327,0.1969054 1.3320456,1.3818291 L 10.790461,6.6249297 12.088872,5.3474234 C 12.802998,4.6447949 13.501205,3.9588238 13.640443,3.8230432 L 13.893603,3.576169 13.67816,3.3508118 C 13.559667,3.2268654 13.447476,3.0889764 13.428847,3.0443917 13.380126,2.927784 13.384515,2.7442634 13.438971,2.621157 c 0.05763,-0.1302791 0.08912,-0.1554162 0.942532,-0.7522688 1.265765,-0.88524462 1.746944,-1.21278027 1.818149,-1.23760221 0.03875,-0.0135091 0.137194,-0.0192052 0.21876,-0.0126578 0.188382,0.0151215 0.208665,0.0302527 0.733885,0.54748521 0.481974,0.4746437 0.536291,0.5518534 0.53388,0.7588963 -0.0016,0.1389533 -0.0077,0.1535543 -0.154083,0.3699422 -0.412417,0.609646 -1.540686,2.160834 -1.709309,2.3500259 -0.139358,0.1563561 -0.265608,0.2110252 -0.444654,0.1925461 -0.166279,-0.017162 -0.22247,-0.049643 -0.46557,-0.2691246 -0.113855,-0.1027931 -0.220827,-0.1868964 -0.237715,-0.1868964 -0.04971,0 -3.056349,2.9716909 -3.056349,3.0208259 0,0.036249 3.596309,3.5748802 4.233955,4.1660512 l 0.129908,0.12044 0.234102,-0.03516 c 0.931491,-0.139907 1.861283,0.108602 2.583909,0.690613 0.597266,0.481044 1.004847,1.190025 1.130898,1.967178 0.07183,0.442844 0.0255,1.092173 -0.09608,1.346915 -0.100193,0.209911 -0.28375,0.329637 -0.505857,0.329946 -0.224461,3.13e-4 -0.26746,-0.0333 -1.146017,-0.895824 -0.461575,-0.453152 -0.557996,-0.53744 -0.613992,-0.536729 -0.09153,0.0012 -0.908905,0.128724 -0.924453,0.144273 -0.01475,0.01475 -0.146299,0.83433 -0.147165,0.916853 -4.55e-4,0.04331 0.150084,0.204957 0.656742,0.705202 0.361533,0.356958 0.689278,0.700472 0.728324,0.763367 0.114586,0.184576 0.09308,0.408774 -0.05823,0.607158 -0.08113,0.106363 -0.195745,0.158526 -0.474751,0.21606 -0.213822,0.04409 -0.291583,0.04823 -0.713946,0.038 -0.533764,-0.01293 -0.685866,-0.04084 -1.095639,-0.201052 -0.716716,-0.280222 -1.31584,-0.818011 -1.678273,-1.506458 -0.156341,-0.296973 -0.292888,-0.715067 -0.326396,-0.999388 -0.03157,-0.267869 -0.01673,-0.914974 0.0252,-1.098961 l 0.02851,-0.125083 -0.320628,-0.315018 C 13.092259,13.527452 12.380925,12.82955 11.687861,12.149817 10.994798,11.470085 10.204046,10.694284 9.9306358,10.425816 9.6572254,10.157348 9.3843672,9.8934032 9.3242839,9.8392724 l -0.1092418,-0.09842 -0.08729,0.070146 c -0.048009,0.03858 -0.2057234,0.1894776 -0.350476,0.3353276 l -0.2631862,0.265181 0.54289,0.539911 c 0.3235177,0.321743 0.558332,0.574024 0.5811052,0.624331 0.055869,0.123417 0.050752,0.356631 -0.01007,0.458933 -0.026462,0.04451 -0.3730611,0.405807 -0.7702197,0.802884 -0.5535413,0.553428 -0.7473413,0.733121 -0.8302069,0.769777 -0.086106,0.03809 -0.188769,0.05242 -0.504591,0.07045 l -0.3964906,0.02263 -0.1297272,0.113235 c -0.07135,0.06228 -0.1786231,0.163498 -0.2383845,0.224931 -0.1053006,0.108245 -0.1094074,0.11778 -0.1329295,0.308625 -0.046131,0.374285 -0.1618497,0.69657 -0.3491286,0.972351 -0.1030573,0.151758 -1.7670386,1.828155 -2.1803715,2.19664 -0.2463233,0.219597 -0.4554763,0.343708 -0.6739998,0.39995 -0.1739278,0.04476 -0.4724999,0.06354 -0.6248196,0.03929 z m 0.4319091,-1.157311 c 0.1650828,-0.109346 2.1134684,-2.054513 2.1658825,-2.162304 0.07416,-0.152512 0.097714,-0.263442 0.118348,-0.557358 0.012648,-0.18017 0.033179,-0.306064 0.05762,-0.353328 0.046168,-0.08928 0.6002518,-0.663697 0.8604923,-0.892071 0.1178143,-0.103388 0.2244314,-0.176255 0.2840113,-0.194106 0.052464,-0.01572 0.2608405,-0.03668 0.4630597,-0.04657 L 7.54614,12.574415 7.7961913,12.34101 C 7.9337197,12.212638 8.1138577,12.038888 8.1964984,11.9549 L 8.3467542,11.802188 7.3429177,10.814389 C 6.7908074,10.271099 6.326138,9.8265896 6.3103191,9.8265896 c -0.015819,0 -0.2013609,0.1698303 -0.4123152,0.3774004 l -0.383553,0.377401 -3.762e-4,0.14283 c -7.531e-4,0.285849 -0.042711,0.659256 -0.082785,0.736751 -0.04271,0.08259 -0.9283399,0.981479 -1.031099,1.046533 -0.043206,0.02735 -0.1687091,0.04956 -0.4104224,0.07264 -0.496975,0.04744 -0.543917,0.06862 -0.9124409,0.411716 -0.1653055,0.1539 -0.662933,0.638777 -1.1058388,1.077505 l -0.8052834,0.797688 7.125e-4,0.157525 c 9.7e-4,0.21444 0.067231,0.342035 0.3336494,0.642491 0.2477718,0.279427 0.9257709,0.92581 1.0886093,1.037846 0.2556289,0.175877 0.4683179,0.206865 0.6398786,0.09323 z M 15.919075,16.683899 c 0,-0.01172 -0.107388,-0.134935 -0.23864,-0.273819 -0.301142,-0.318651 -0.342798,-0.384675 -0.342362,-0.542649 5.19e-4,-0.188242 0.229237,-1.671484 0.28397,-1.841551 0.03207,-0.09963 0.165831,-0.248211 0.272334,-0.302489 0.114777,-0.05849 1.347508,-0.255306 1.832721,-0.292603 0.263196,-0.02023 0.3363,0.0147 0.652046,0.31159 0.137168,0.128976 0.258841,0.234501 0.270386,0.234501 0.09832,0 -0.203013,-0.455712 -0.46009,-0.695794 -0.286684,-0.267731 -0.622352,-0.438638 -1.01935,-0.519007 -0.28573,-0.05784 -0.79055,-0.03739 -1.089165,0.04414 -0.398432,0.108776 -0.457969,0.08692 -0.884878,-0.324852 C 14.310487,11.627208 12.817083,10.165474 9.2138728,6.6260506 6.816911,4.2715216 6.9215524,4.3847975 6.9215524,4.144584 c 0,-0.067745 0.028955,-0.2320369 0.064343,-0.3650927 C 7.0430289,3.5646814 7.050123,3.498708 7.0492032,3.1907514 7.0482828,2.8825975 7.0412696,2.821255 6.9863003,2.6405413 6.8690432,2.2550537 6.7005096,1.9842478 6.3981521,1.6954833 6.1653854,1.4731811 5.7919075,1.2459734 5.7919075,1.3266705 c 0,0.011172 0.1050053,0.1331194 0.2333452,0.270995 0.268376,0.2883163 0.3215681,0.3773085 0.3215681,0.5379948 0,0.1918442 -0.2247403,1.6514421 -0.2817198,1.8296576 C 6.028338,4.0803017 5.9386523,4.1899059 5.8287519,4.2541582 5.7261147,4.3141639 5.4374296,4.3689487 4.5433526,4.4980932 3.948803,4.5839727 3.7217184,4.5939764 3.6363618,4.5380486 3.6035884,4.5165746 3.4597665,4.3893299 3.3167579,4.2552828 3.0030245,3.9612095 2.9583561,3.9436416 3.0668382,4.1569905 c 0.2638714,0.5189482 0.7262194,0.881896 1.3520282,1.0613547 0.2617442,0.075058 0.7620601,0.074493 1.0609024,-0.0012 0.2836557,-0.071846 0.5089961,-0.087973 0.6127167,-0.043852 0.1157228,0.049227 0.5652084,0.4843873 4.9595375,4.8014743 2.587727,2.5422415 3.600778,3.5534075 3.662101,3.6552905 0.06677,0.110927 0.06319,0.301505 -0.01087,0.578034 -0.149628,0.558765 -0.07326,1.176596 0.201837,1.632868 0.189365,0.314082 0.48038,0.591655 0.806888,0.769619 0.181279,0.09881 0.207091,0.107946 0.207091,0.07332 z M 15.506471,3.2207297 c 0.39321,-0.5165424 0.875422,-1.2126315 0.869679,-1.2554118 -0.01097,-0.081759 -0.09466,-0.064112 -0.284922,0.060085 -0.29587,0.1931302 -1.233341,0.8537486 -1.250161,0.8809652 -0.01659,0.026843 0.452308,0.5040363 0.495273,0.5040363 0.01416,0 0.09072,-0.085354 0.170131,-0.1896747 z m -0.397419,-0.07824 C 14.985831,3.0168398 14.903108,2.9150851 14.915243,2.9040936 c 0.101857,-0.092254 1.34204,-0.927215 1.377209,-0.927215 0.03928,0 -0.06945,0.16828 -0.46994,0.7272599 -0.213942,0.2986109 -0.389313,0.551067 -0.389712,0.5610139 -4e-4,0.00995 -0.02504,0.035741 -0.05475,0.057321 -0.05359,0.038923 -0.05573,0.037488 -0.269001,-0.1799834 z"
     id="path7" />
  <path
     style="fill:#000000;stroke-width:0.0231214"
     d="M 15.110446,3.1426746 C 14.992592,3.0208499 14.905222,2.9126018 14.916291,2.9021233 c 0.0864,-0.081787 1.339973,-0.9252447 1.375134,-0.9252447 0.01298,0 0.011,0.021805 -0.0047,0.052023 -0.06533,0.1256144 -0.871527,1.2602006 -0.929853,1.3086065 -0.02581,0.021419 -0.07429,-0.016915 -0.246411,-0.1948336 z"
     id="path8" />
  <path
     style="fill:#000000;stroke-width:0.0231214"
     d="M 15.109473,3.1416682 14.894219,2.9191625 14.95,2.8760956 c 0.101415,-0.0783 0.976285,-0.6775082 1.152544,-0.7893904 0.194572,-0.1235064 0.222972,-0.1324202 0.184166,-0.057803 -0.06672,0.1282851 -0.870392,1.2592582 -0.929974,1.3087069 -0.02565,0.021287 -0.07478,-0.017647 -0.247263,-0.1959409 z"
     id="path9" />
</svg>
