<svg width="30" height="30" viewBox="0 0 30 30" fill="none" xmlns="http://www.w3.org/2000/svg">
<path d="M28.1459 10.2605C28.1804 10.3627 28.215 10.4649 28.2496 10.5669C28.222 12.1259 26.9228 13.4039 25.3124 13.4039C24.4287 13.4039 23.6516 13.0284 23.1069 12.4197L22.7343 12.0032L22.3617 12.4197C21.817 13.0284 21.0399 13.4039 20.1562 13.4039C19.2725 13.4039 18.4954 13.0284 17.9507 12.4197L17.5781 12.0032L17.2055 12.4197C16.6608 13.0284 15.8837 13.4039 15 13.4039C14.1163 13.4039 13.3392 13.0284 12.7945 12.4197L12.4219 12.0032L12.0493 12.4197C11.5046 13.0284 10.7275 13.4039 9.8438 13.4039C8.96014 13.4039 8.18297 13.0284 7.63833 12.4197L7.2657 12.0032L6.89307 12.4197C6.34844 13.0284 5.57127 13.4039 4.68761 13.4039C3.07719 13.4039 1.77795 12.1259 1.75045 10.5669L1.85404 10.2607L6.10017 4.40751C6.18512 4.30207 6.30004 4.25 6.40636 4.25H23.5937C23.7 4.25 23.8149 4.30206 23.8999 4.4075L28.1459 10.2605Z" fill="#0E111D" stroke="#0E111D"/>
<path d="M25.3123 16.0939C25.732 16.0939 26.1392 16.0411 26.531 15.9501V24.0557C26.531 24.7064 25.9922 25.248 25.3123 25.248H24.0935V17.2864V16.7864H23.5935H18.4373H17.9373V17.2864V25.248H4.68748C4.00755 25.248 3.46875 24.7064 3.46875 24.0557V15.9212C4.73533 16.1964 6.09389 16.0659 7.2658 15.4776C8.85251 16.2733 10.8351 16.2733 12.4218 15.4775C14.0086 16.2734 15.99 16.2733 17.578 15.4774C19.1658 16.2733 21.1458 16.2734 22.7337 15.4776C23.5243 15.8785 24.4075 16.0939 25.3123 16.0939ZM13.2811 22.8635H13.7811V22.3635V17.2866V16.7866H13.2811H6.40621H5.90621V17.2866V22.3635V22.8635H6.40621H13.2811Z" fill="#0E111D" stroke="#0E111D"/>
</svg>
