<svg width="20" height="20" viewBox="0 0 20 20" fill="none" xmlns="http://www.w3.org/2000/svg">
<path d="M18.6129 6.91781L18.6644 7.06992C18.6325 8.00375 17.8485 8.76925 16.8736 8.76925C16.3337 8.76925 15.8602 8.54048 15.5275 8.16865L15.1549 7.75216L14.7823 8.16866C14.4496 8.54049 13.9761 8.76925 13.4362 8.76925C12.8962 8.76925 12.4227 8.54048 12.0901 8.16865L11.7174 7.75216L11.3448 8.16866C11.0121 8.54049 10.5386 8.76925 9.9987 8.76925C9.45878 8.76925 8.98527 8.54048 8.65259 8.16865L8.27996 7.75216L7.90733 8.16866C7.57466 8.54049 7.10115 8.76925 6.56123 8.76925C6.02132 8.76925 5.54781 8.54048 5.21513 8.16865L4.8425 7.75216L4.46987 8.16866C4.1372 8.54049 3.66369 8.76925 3.12377 8.76925C2.14893 8.76925 1.36487 8.00378 1.33304 7.06992L1.38449 6.91787L4.19748 3.04021C4.22456 3.00807 4.25379 3 4.2696 3H15.7278C15.7436 3 15.7729 3.00807 15.7999 3.04021L18.6129 6.91781Z" stroke="#040407"/>
<path d="M16.8722 10.8967C17.0933 10.8967 17.3089 10.8758 17.5181 10.8386V16.0379C17.5181 16.3773 17.2359 16.6661 16.8722 16.6661H16.2264V11.5251V11.0251H15.7264H12.289H11.789V11.5251V16.6661H3.12238C2.7587 16.6661 2.47656 16.3773 2.47656 16.0379V10.8165C3.26962 10.9486 4.10374 10.8542 4.84129 10.5046C5.90797 11.0101 7.21192 11.0101 8.27857 10.5046C9.34534 11.0102 10.6487 11.0101 11.716 10.5045C12.7832 11.01 14.0854 11.0102 15.1527 10.5049C15.6835 10.7601 16.271 10.8967 16.8722 10.8967ZM8.85149 15.4098H9.35149V14.9098V11.5252V11.0252H8.85149H4.26821H3.76821V11.5252V14.9098V15.4098H4.26821H8.85149Z" fill="#040407" stroke="#040407"/>
</svg>
