<?xml version="1.0" encoding="UTF-8" standalone="no"?>
<svg
   width="42"
   height="42"
   viewBox="0 0 42 42"
   fill="none"
   version="1.1"
   id="svg2"
   xmlns="http://www.w3.org/2000/svg"
   xmlnsSvg="http://www.w3.org/2000/svg">
  <defs
     id="defs2" />
  <path
     d="M21.0237 11.0094H21.025H21.0357H21.0465H21.0572H21.0679H21.0786H21.0893H21.1H21.1107H21.1214H21.1321H21.1428H21.1535H21.1643H21.175H21.1857H21.1964H21.2071H21.2178H21.2285H21.2392H21.2499H21.2606H21.2713H21.282H21.2928H21.3035H21.3142H21.3249H21.3356H21.3463H21.357H21.3677H21.3784H21.3891H21.3998H21.4105H21.4213H21.432H21.4427H21.4534H21.4641H21.4748H21.4855H21.4962H21.5069H21.5176H21.5283H21.5391H21.5498H21.5605H21.5712H21.5819H21.5926H21.6033H21.614H21.6247H21.6354H21.6461H21.6568H21.6676H21.6783H21.689H21.6997H21.7104H21.7211H21.7318H21.7425H21.7532H21.7639H21.7746H21.7853H21.7961H21.8068H21.8175H21.8282H21.8389H21.8496H21.8603H21.871H21.8817H21.8924H21.9031H21.9139H21.9246H21.9353H21.946H21.9567H21.9674H21.9781H21.9888H21.9995H22.0102H22.0209H22.0316H22.0424H22.0531H22.0638H22.0745H22.0852H22.0959H22.1066H22.1173H22.128H22.1387H22.1494H22.1601H22.1709H22.1816H22.1923H22.203H22.2137H22.2244H22.2351H22.2458H22.2565H22.2672H22.2779H22.2887H22.2994H22.3101H22.3208H22.3315H22.3422H22.3529H22.3636H22.3743H22.385H22.3957H22.4064H22.4172H22.4279H22.4386H22.4493H22.46H22.4707H22.4814H22.4921H22.5028H22.5135H22.5242H22.5349H22.5457H22.5564H22.5671H22.5778H22.5885H22.5992H22.6099H22.6206H22.6313H22.642H22.6527H22.6635H22.6742H22.6849H22.6956H22.7063H22.717H22.7277H22.7384H22.7491H22.7598H22.7705H22.7812H22.792H22.8027H22.8134H22.8241H22.8348H22.8455H22.8562H22.8669H22.8776H22.8883H22.899H22.9097H22.9205H22.9312H22.9419H22.9526H22.9633H22.974H22.9847H22.9954H23.0061H23.0168H23.0275H23.0383H23.049H23.0597H23.0704H23.0811H23.0918H23.1025H23.1132H23.1239H23.1346H23.1453H23.156H23.1668H23.1775H23.1882H23.1989H23.2096H23.2203H23.231H23.2417H23.2524H23.2631H23.2738H23.2846H23.2953H23.306H23.3167H23.3274H23.3381H23.3488H23.3595H23.3702H23.3809H23.3916H23.4023H23.4131H23.4238H23.4345H23.4452H23.4559H23.4666H23.4773H23.488H23.4987H23.5094H23.5201H23.5308H23.5416H23.5523H23.563H23.5737H23.5844H23.5951H23.6058H23.6165H23.6272H23.6379H23.6486H23.6594H23.6701H23.6808H23.6915H23.7022H23.7129H23.7236H23.7343H23.745H23.7557H23.7664H23.7771H23.7879H23.7986H23.8093H23.82H23.8307H23.8414H23.8521H23.8628H23.8735H23.8842H23.8949H23.9056H23.9164H23.9271H23.9378H23.9485H23.9592H23.9699H23.9806H23.9913H24.002H24.0127H24.0234H24.0342H24.0449H24.0556H24.0663H24.077H24.0877H24.0984H24.1091H24.1198H24.1305H24.1412H24.1519H24.1627H24.1734H24.1841H24.1948H24.2055H24.2162H24.2269H24.2376H24.2483H24.259H24.2697H24.2804H24.2912H24.3019H24.3126H24.3233H24.334H24.3447H24.3554H24.3661H24.3768H24.3875H24.3982H24.409H24.4197H24.4304H24.4411H24.4518H24.4625H24.4732H24.4839H24.4946H24.5053H24.516H24.5267H24.5375H24.5482H24.5589H24.5696H24.5803H24.591H24.6017H24.6124H24.6231H24.6338H24.6445H24.6553H24.666H24.6767H24.6874H24.6981H24.7088H24.7195H24.7302H24.7409H24.7516H24.7623H24.773H24.7838H24.7945H24.8052H24.8159H24.8266H24.8373H24.848H24.8587H24.8694H24.8801H24.8908H24.9015H24.9123H24.923H24.9337H24.9444H24.9551H24.9658H24.9765H24.9872H24.9979H25.0086H25.0193H25.0301H25.0408H25.0515H25.0622H25.0729H25.0836H25.0943H25.105H25.1157H25.1264H25.1371H25.1478H25.1586H25.1693H25.18H25.1907H25.2014H25.2121H25.2228H25.2335H25.2442H25.2549H25.2656H25.2763H25.2871H25.2978H25.3085H25.3192H25.3299H25.3406H25.3513H25.362H25.3727H25.3834H25.3941H25.4049H25.4156H25.4263H25.437H25.4477H25.4584H25.4691H25.4798H25.4905H25.5012H25.5119H25.5226H25.5334H25.5441H25.5548H25.5655H25.5762H25.5869H25.5976H25.6083H25.619H25.6297H25.6404H25.6511H25.6619H25.6726H25.6833H25.694H25.7047H25.7154H25.7261H25.7368H25.7475H25.7582H25.7689H25.7797H25.7904H25.8011H25.8118H25.8225H25.8332H25.8439H25.8546H25.8653H25.876H25.8867H25.8974H25.9082H25.9189H25.9296H25.9403H25.951H25.9617H25.9724H25.9831H25.9938H26.0045H26.0152H26.0259H26.0367H26.0474H26.0581H26.0688H26.0795H26.0902H26.1009H26.1116H26.1223H26.133H26.1437H26.1545H26.1652H26.1759H26.1866H26.1973H26.208H26.2187H26.2294H26.2401H26.2508H26.2615H26.2722H26.283H26.2937H26.3044H26.3151H26.3258H26.3365H26.3472H26.3579H26.3686H26.3793H26.39H26.4008H26.4115H26.4222H26.4329H26.4436H26.4543H26.465H26.4757H26.4864H26.4971H26.5078C26.7659 11.0094 26.8471 11.1046 26.8662 11.1328C26.8863 11.1623 26.9451 11.2759 26.8512 11.518L26.8509 11.5188L26.5778 12.2252C26.5777 12.2255 26.5775 12.2258 26.5774 12.2261C26.5774 12.2262 26.5774 12.2262 26.5774 12.2263C26.4635 12.5199 26.3511 12.8113 26.2392 13.1015C26.003 13.7142 25.769 14.3213 25.5272 14.9305C25.4572 15.1052 25.3534 15.443 25.4885 15.8313C25.6139 16.1919 25.8793 16.3903 25.9841 16.466L25.9941 16.4732L26.0043 16.4801C27.0961 17.2274 28.0116 18.2039 28.6872 19.3414C29.3627 20.479 29.782 21.7502 29.9157 23.0664L29.917 23.0795L29.9187 23.0926C30.1114 24.5942 30.1119 26.1142 29.9202 27.6159C29.7739 28.5651 29.2902 29.43 28.5577 30.0516C27.8225 30.6756 26.8863 31.0123 25.922 30.9997L25.922 30.9996H25.9089H25.8897H25.8705H25.8513H25.8321H25.813H25.7938H25.7746H25.7554H25.7363H25.7171H25.6979H25.6787H25.6595H25.6404H25.6212H25.602H25.5828H25.5637H25.5445H25.5253H25.5061H25.4869H25.4678H25.4486H25.4294H25.4102H25.3911H25.3719H25.3527H25.3335H25.3143H25.2952H25.276H25.2568H25.2376H25.2185H25.1993H25.1801H25.1609H25.1418H25.1226H25.1034H25.0842H25.065H25.0459H25.0267H25.0075H24.9883H24.9692H24.95H24.9308H24.9116H24.8925H24.8733H24.8541H24.8349H24.8158H24.7966H24.7774H24.7582H24.7391H24.7199H24.7007H24.6815H24.6624H24.6432H24.624H24.6048H24.5857H24.5665H24.5473H24.5281H24.5089H24.4898H24.4706H24.4514H24.4322H24.4131H24.3939H24.3747H24.3555H24.3364H24.3172H24.298H24.2789H24.2597H24.2405H24.2213H24.2022H24.183H24.1638H24.1446H24.1255H24.1063H24.0871H24.0679H24.0488H24.0296H24.0104H23.9912H23.9721H23.9529H23.9337H23.9145H23.8954H23.8762H23.857H23.8378H23.8187H23.7995H23.7803H23.7612H23.742H23.7228H23.7036H23.6845H23.6653H23.6461H23.6269H23.6078H23.5886H23.5694H23.5503H23.5311H23.5119H23.4927H23.4736H23.4544H23.4352H23.416H23.3969H23.3777H23.3585H23.3394H23.3202H23.301H23.2818H23.2627H23.2435H23.2243H23.2051H23.186H23.1668H23.1476H23.1285H23.1093H23.0901H23.0709H23.0518H23.0326H23.0134H22.9943H22.9751H22.9559H22.9367H22.9176H22.8984H22.8792H22.8601H22.8409H22.8217H22.8025H22.7834H22.7642H22.745H22.7259H22.7067H22.6875H22.6683H22.6492H22.63H22.6108H22.5917H22.5725H22.5533H22.5341H22.515H22.4958H22.4766H22.4575H22.4383H22.4191H22.3999H22.3808H22.3616H22.3424H22.3233H22.3041H22.2849H22.2658H22.2466H22.2274H22.2082H22.1891H22.1699H22.1507H22.1316H22.1124H22.0932H22.0741H22.0549H22.0357H22.0165H21.9974H21.9782H21.959H21.9399H21.9207H21.9015H21.8824H21.8632H21.844H21.8248H21.8057H21.7865H21.7673H21.7482H21.729H21.7098H21.6907H21.6715H21.6523H21.6331H21.614H21.5948H21.5756H21.5565H21.5373H21.5181H21.499H21.4798H21.4606H21.4415H21.4223H21.4031H21.384H21.3648H21.3456H21.3264H21.3073H21.2881H21.2689H21.2498H21.2306H21.2114H21.1923H21.1731H21.1539H21.1348H21.1156H21.0964H21.0773H21.0581H21.0389H21.0197H21.0006H20.9814H20.9622H20.9431H20.9239H20.9047H20.8856H20.8664H20.8472H20.8281H20.8089H20.7897H20.7706H20.7514H20.7322H20.7131H20.6939H20.6747H20.6556H20.6364H20.6172H20.598H20.5789H20.5597H20.5405H20.5214H20.5022H20.483H20.4639H20.4447H20.4255H20.4064H20.3872H20.368H20.3489H20.3297H20.3105H20.2914H20.2722H20.253H20.2339H20.2147H20.1955H20.1764H20.1572H20.138H20.1189H20.0997H20.0805H20.0614H20.0422H20.023H20.0039H19.9847H19.9655H19.9464H19.9272H19.908H19.8889H19.8697H19.8505H19.8314H19.8122H19.793H19.7739H19.7547H19.7355H19.7164H19.6972H19.678H19.6589H19.6397H19.6205H19.6014H19.5822H19.563H19.5439H19.5247H19.5055H19.4864H19.4672H19.448H19.4289H19.4097H19.3905H19.3714H19.3522H19.333H19.3139H19.2947H19.2755H19.2564H19.2372H19.218H19.1989H19.1797H19.1605H19.1414H19.1222H19.103H19.0839H19.0647H19.0455H19.0264H19.0072H18.988H18.9689H18.9497H18.9305H18.9114H18.8922H18.873H18.8539H18.8347H18.8155H18.7964H18.7772H18.758H18.7389H18.7197H18.7005H18.6814H18.6622H18.643H18.6239H18.6047H18.5855H18.5664H18.5472H18.528H18.5089H18.4897H18.4705H18.4514H18.4322H18.4131H18.3939H18.3747H18.3556H18.3364H18.3172H18.2981H18.2789H18.2597H18.2406H18.2214H18.2022H18.1831H18.1639H18.1447H18.1256H18.1064H18.0872H18.0681H18.0489H18.0297H18.0106H17.9914H17.9722H17.9531H17.9339H17.9147H17.8956H17.8764H17.8573H17.8381H17.8189H17.7998H17.7806H17.7614H17.7423H17.7231H17.7039H17.6848H17.6656H17.6464H17.6273H17.6081H17.5889H17.5698H17.5506H17.5314H17.5123H17.4931H17.4739H17.4548H17.4356H17.4164H17.3973H17.3781H17.359H17.3398H17.3206H17.3015H17.2823H17.2631H17.244H17.2248H17.2056H17.1865H17.1673H17.1481H17.129H17.1098H17.0906H17.0715H17.0523H17.0331H17.014H16.9948H16.9757H16.9565H16.9373H16.9182H16.899H16.8798H16.8607H16.8415H16.8223H16.8032H16.784H16.7648H16.7457H16.7265H16.7073H16.6882H16.669H16.6498H16.6307H16.6115H16.5924H16.5732H16.554H16.5349H16.5157H16.4965H16.4774H16.4582H16.439H16.4199H16.4007H16.3815H16.3624H16.3432H16.324H16.3049H16.2857H16.2665H16.2474H16.2282H16.2091H16.1899H16.1707H16.1516H16.1324H16.1132H16.0941H16.0936C15.1318 31 14.2012 30.6577 13.4691 30.034C12.7377 29.4109 12.252 28.5479 12.0991 27.5994C11.9772 26.8058 11.9942 26.0393 12.0134 25.169C12.0202 24.861 12.0273 24.54 12.0286 24.2002H12.0287L12.0286 24.1917C12.0184 21.9798 12.7906 19.8354 14.2086 18.1377L14.2086 18.1378L14.2152 18.1298C14.7281 17.5027 15.3279 16.9519 15.9964 16.4942L15.9969 16.4938C16.0991 16.4238 16.3937 16.221 16.5295 15.838C16.6745 15.4293 16.5553 15.0719 16.4878 14.9028C16.1008 13.9313 15.726 12.953 15.3486 11.9681C15.2875 11.8085 15.2263 11.6488 15.165 11.4889C15.1045 11.3309 15.1221 11.2218 15.1453 11.1642C15.1651 11.1152 15.2026 11.0657 15.2825 11.0295C15.3604 11.0064 15.4417 10.9967 15.5229 11.001L15.5484 11.0023L15.574 11.0023L21.0237 11.0094Z"
     stroke="#613ED2"
     stroke-width="2"
     id="path1" />
  <path
     d="M21.8367 17.8103C21.6976 18.263 21.8957 18.5389 22.457 18.7182C23.2375 18.9681 23.6125 19.6756 23.9733 20.3689C24.0299 20.475 23.9733 20.508 23.9025 20.5552C23.5747 20.8075 23.2446 21.0528 22.9215 21.3098C22.8154 21.3947 22.7564 21.3758 22.6857 21.2626C22.6149 21.1494 22.5301 21.0103 22.4687 20.8783C22.3813 20.6854 22.245 20.5186 22.0734 20.3946C21.9017 20.2705 21.7007 20.1934 21.4901 20.1708C21.0451 20.0839 20.5852 20.114 20.1554 20.2581C19.9925 20.3 19.8471 20.3924 19.7399 20.522C19.6328 20.6516 19.5693 20.8118 19.5587 20.9797C19.5587 21.3027 19.7214 21.522 20.12 21.6871C20.8274 21.9772 21.5726 22.088 22.2824 22.3451C23.2257 22.6799 23.8766 23.2883 24.044 24.2882C24.2232 25.3494 23.9568 26.2738 23.1007 26.9765C22.794 27.2246 22.434 27.3981 22.049 27.4836C21.858 27.5284 21.8132 27.6109 21.8273 27.783C21.8273 28.1556 21.8273 28.5282 21.8273 28.9008C21.8273 29.0683 21.7778 29.1225 21.6104 29.1178C21.259 29.106 20.9029 29.1178 20.5515 29.1178C20.3841 29.1178 20.3157 29.0636 20.3322 28.8985C20.3322 28.5259 20.3322 28.1509 20.3322 27.7783C20.3322 27.6392 20.2969 27.5708 20.1483 27.5425C19.08 27.3374 18.4292 26.6275 17.9457 25.7126C17.9302 25.6919 17.9193 25.6681 17.914 25.6428C17.9086 25.6175 17.9089 25.5914 17.9147 25.5662C17.9206 25.541 17.9319 25.5174 17.9478 25.4971C17.9638 25.4767 17.984 25.4601 18.007 25.4484C18.3207 25.1985 18.632 24.9438 18.9385 24.6797C19.047 24.5877 19.1107 24.583 19.1744 24.7198C19.2108 24.7895 19.2509 24.8572 19.2946 24.9226C19.9054 25.9106 20.9453 26.2172 22.0065 25.7196C22.1592 25.6624 22.2936 25.5648 22.3953 25.4373C22.497 25.3099 22.5623 25.1572 22.5843 24.9957C22.6298 24.8107 22.6051 24.6155 22.5149 24.4478C22.4247 24.28 22.2755 24.1518 22.0961 24.0878C21.6205 23.8787 21.1241 23.7206 20.6152 23.6161C20.1356 23.514 19.6728 23.345 19.2404 23.1138C18.8225 22.8847 18.4853 22.5326 18.2743 22.1052C18.0634 21.6779 17.989 21.196 18.0613 20.725C18.1745 19.6567 18.7829 18.9493 19.7993 18.6026C20.3251 18.4234 20.3275 18.4328 20.3275 17.8668C20.3275 17.6122 20.3275 17.3575 20.3275 17.1028C20.3275 16.9613 20.3794 16.9118 20.5162 16.9141C20.8911 16.9141 21.2637 16.9141 21.6363 16.9141C21.7802 16.9141 21.825 16.966 21.8202 17.1028C21.8297 17.3009 21.8367 17.506 21.8367 17.8103Z"
     fill="#613ED1"
     id="path2" />
  <path
     style="fill:#000000;stroke-width:0.0485549"
     d="m 15.343353,31.919985 c -0.717094,-0.102354 -1.661619,-0.503634 -2.270646,-0.964681 -0.719122,-0.544388 -1.353674,-1.391667 -1.665117,-2.223325 -0.312144,-0.833533 -0.324387,-0.946612 -0.348096,-3.215265 -0.02251,-2.154197 -0.01033,-2.353674 0.210666,-3.448506 0.489584,-2.425471 1.890697,-4.64788 3.882197,-6.157837 0.310768,-0.235625 0.437772,-0.362648 0.447882,-0.447952 0.0078,-0.06584 -0.248326,-0.791978 -0.572923,-1.624269 -0.797378,-2.044536 -0.873645,-2.268608 -0.873084,-2.56514 6.15e-4,-0.325665 0.166584,-0.682075 0.426893,-0.916735 0.388019,-0.349786 0.04717,-0.333134 6.519585,-0.31851 5.767846,0.01303 5.799875,0.01364 6.017209,0.114671 0.568651,0.264339 0.842843,0.775499 0.731348,1.36341 -0.02557,0.134835 -0.365964,1.067465 -0.756429,2.07251 -0.417548,1.074754 -0.698506,1.863373 -0.68218,1.91481 0.01527,0.0481 0.218883,0.227651 0.45248,0.399001 0.547207,0.401392 1.654017,1.504756 2.061539,2.055121 1.47848,1.996712 2.087716,4.128747 2.097376,7.339822 0.0056,1.878019 -0.146263,2.929232 -0.546841,3.784043 -0.704282,1.502897 -2.053779,2.534191 -3.691399,2.82099 -0.342757,0.06003 -1.25405,0.07033 -5.778034,0.06535 -2.954104,-0.0033 -5.502195,-0.02463 -5.662426,-0.04751 z m 11.228148,-1.965616 c 1.290159,-0.26649 2.209059,-1.261164 2.390708,-2.587853 0.150295,-1.097694 0.140731,-2.955852 -0.02178,-4.231471 -0.306888,-2.408895 -1.428575,-4.343126 -3.327712,-5.738286 -0.797033,-0.585523 -1.167752,-1.207892 -1.164131,-1.954359 0.0018,-0.38106 0.0645,-0.584093 0.63268,-2.050264 0.292298,-0.754267 0.531451,-1.383084 0.531451,-1.397372 0,-0.01429 -2.064798,-0.02598 -4.58844,-0.02598 -3.638427,0 -4.588421,0.01257 -4.588353,0.06069 4.6e-5,0.03338 0.243631,0.68341 0.541299,1.444508 0.511509,1.307863 0.542476,1.407102 0.564208,1.808087 0.0255,0.470476 -0.02897,0.758601 -0.21258,1.124513 -0.192666,0.383963 -0.375513,0.577971 -0.961863,1.020581 -1.618025,1.221376 -2.78271,3.056711 -3.18067,5.012166 -0.154104,0.75722 -0.193453,1.474635 -0.179383,3.270492 0.01469,1.875468 0.0247,1.94725 0.369627,2.652022 0.410964,0.839698 1.25792,1.456861 2.222054,1.619174 0.126657,0.02132 2.563663,0.04134 5.41557,0.04448 4.555379,0.005 5.230478,-0.0036 5.557315,-0.07113 z"
     id="path3" />
  <path
     style="fill:#000000;stroke-width:0.0485549"
     d="m 20.42948,29.076514 c -0.0445,-0.01796 -0.06089,-0.208071 -0.06144,-0.712352 -4.09e-4,-0.378324 -0.0168,-0.712278 -0.03642,-0.74212 -0.01962,-0.02984 -0.166771,-0.09172 -0.327002,-0.137501 -0.535826,-0.153105 -0.897307,-0.366065 -1.286418,-0.757875 -0.358939,-0.361427 -0.796432,-1.012092 -0.767628,-1.14166 0.01413,-0.06355 1.051606,-0.943329 1.112463,-0.943369 0.01623,-10e-6 0.107895,0.126969 0.203694,0.282175 0.227135,0.367988 0.599141,0.711903 0.945798,0.874382 0.250881,0.117587 0.331458,0.130098 0.836022,0.129799 0.486266,-2.89e-4 0.592871,-0.01564 0.825433,-0.118854 0.480141,-0.213094 0.632221,-0.375418 0.720711,-0.769258 0.06564,-0.29214 -0.01269,-0.594678 -0.201141,-0.776903 -0.193411,-0.18702 -0.834299,-0.43853 -1.628104,-0.638936 -1.309857,-0.330688 -1.932946,-0.68049 -2.338845,-1.313028 -0.537403,-0.83747 -0.45156,-2.102498 0.197476,-2.910138 0.220857,-0.274827 0.646399,-0.556374 1.143187,-0.756355 0.237364,-0.09555 0.463725,-0.205683 0.503023,-0.244738 0.05387,-0.05354 0.07618,-0.235187 0.09066,-0.738286 0.0122,-0.423654 0.03929,-0.680301 0.07421,-0.70295 0.08101,-0.05254 1.208013,-0.04346 1.293156,0.01041 0.05892,0.03728 0.07283,0.1724 0.07283,0.707241 v 0.661156 l 0.152404,0.136217 c 0.08382,0.07492 0.274881,0.182042 0.424574,0.238049 0.381902,0.142888 0.603351,0.293397 0.881607,0.599189 0.232234,0.255214 0.640578,0.910196 0.680419,1.091387 0.01431,0.06507 -0.120204,0.192968 -0.516652,0.491252 -0.294797,0.221803 -0.563261,0.413741 -0.596585,0.426528 -0.03606,0.01384 -0.128199,-0.09953 -0.227571,-0.279993 -0.390132,-0.708492 -0.777151,-0.929019 -1.621186,-0.923768 -0.812073,0.0051 -1.329742,0.266094 -1.413545,0.712802 -0.05349,0.285141 0.0122,0.485933 0.220562,0.674177 0.196743,0.177746 0.457075,0.271454 2.038972,0.733942 0.71945,0.210341 1.170758,0.436253 1.497669,0.749693 0.483674,0.463741 0.686534,0.942379 0.724686,1.709853 0.04312,0.867472 -0.166151,1.446727 -0.730858,2.022953 -0.331159,0.337915 -0.651459,0.539202 -1.099714,0.691097 l -0.366227,0.124099 -0.02428,0.726225 c -0.01335,0.399423 -0.04196,0.753536 -0.06356,0.786918 -0.02825,0.04366 -0.212276,0.05962 -0.655491,0.05686 -0.338915,-0.0021 -0.643522,-0.01485 -0.676903,-0.02832 z"
     id="path4" />
</svg>
