<svg width="14" height="24" viewBox="0 0 14 24" fill="none" xmlns="http://www.w3.org/2000/svg">
<path d="M5.86168 0.200173L8.49334 0.200012V3.13112V3.30149L8.66155 3.32857C8.96477 3.37739 9.2652 3.44232 9.56156 3.52285C10.2523 3.71166 10.9042 4.01779 11.4888 4.42752L11.4898 4.42821C11.9796 4.76713 12.4003 5.19425 12.7297 5.6872L12.7297 5.68727L13.4549 6.77195L11.2619 8.21022L10.5346 7.12257L10.5345 7.12234C10.3855 6.90016 10.1955 6.70813 9.97496 6.55593C9.63583 6.31682 9.25711 6.13841 8.85622 6.0283L8.85472 6.0279C8.2829 5.8756 7.69351 5.79906 7.10142 5.79987M5.86168 0.200173L13.2176 13.3527M5.86168 0.200173V3.079V3.25566L5.68638 3.27747C5.08748 3.352 4.49714 3.48363 3.92382 3.67032C2.99755 3.97533 2.17187 4.52256 1.5344 5.25355C1.53423 5.25374 1.53407 5.25393 1.5339 5.25413L1.50125 5.29217L1.4959 5.29866C0.919463 5.99712 0.589844 6.86215 0.556102 7.76272L0.555919 7.76761L0.55586 7.7676C0.494682 8.7549 0.800279 9.73059 1.41527 10.5115L1.41659 10.5132L1.41658 10.5132L1.45817 10.5672L1.45969 10.569C2.03551 11.2435 2.77664 11.7607 3.61247 12.0712C4.46643 12.3844 5.34338 12.6322 6.23555 12.8128L6.23769 12.8132C6.89005 12.9527 7.31856 13.05 7.70058 13.1538H7.71555H7.73922L7.76224 13.1593C8.26468 13.28 8.68064 13.3892 9.05152 13.4953L9.05036 13.5036L9.05267 13.4957C9.50743 13.6294 9.94029 13.8265 10.3388 14.0813C10.5793 14.2321 10.7846 14.4323 10.9406 14.6687L10.9461 14.677L10.9507 14.6859C11.1029 14.9755 11.1775 15.2992 11.1669 15.6261V15.6871C11.1792 16.0903 11.0581 16.4867 10.8226 16.8154L10.8188 16.8207L10.8187 16.8206C10.4766 17.2666 10.0106 17.6036 9.47791 17.7906C8.68889 18.0885 7.84774 18.2278 7.00365 18.2002H6.91512C5.99641 18.2284 5.08403 18.0421 4.25131 17.6568L4.24308 17.6529L4.24318 17.6528C3.82119 17.4337 3.45811 17.1186 3.18354 16.7329C3.18344 16.7327 3.18334 16.7326 3.18324 16.7325L2.42046 15.6717L0.278834 17.1854L1.03781 18.2582C1.03797 18.2584 1.03813 18.2586 1.03829 18.2588C1.56264 18.9868 2.25486 19.5807 3.05779 19.991L3.09514 20.0078L3.09665 20.0085C3.9164 20.3863 4.79146 20.6336 5.68936 20.7415L5.8655 20.7627V20.9401V23.8H8.49716V20.8801V20.7086L8.6667 20.6825C9.26558 20.5902 9.85286 20.4352 10.4186 20.2205L10.421 20.2196L10.421 20.2196C11.4212 19.8543 12.2939 19.2121 12.9352 18.3695C13.4421 17.6455 13.7381 16.7975 13.7913 15.9184L13.9909 15.9305L13.7913 15.9184C13.8445 15.0399 13.6529 14.1638 13.2375 13.3853L13.2178 13.353L13.3885 13.2488M5.86168 0.200173L13.3885 13.2488M7.10142 5.79987H7.1017V5.99987L7.10142 5.79987ZM7.10142 5.79987H7.05538M7.05538 5.79987C6.27429 5.77786 5.49548 5.89188 4.75435 6.13631M7.05538 5.79987H7.05253V5.99987L7.05825 5.79995C7.05729 5.79992 7.05633 5.79989 7.05538 5.79987ZM4.75435 6.13631C4.28048 6.29178 3.85724 6.57072 3.52952 6.94437L3.52942 6.94429L3.52482 6.94994C3.33384 7.1844 3.21693 7.46986 3.18892 7.77025L3.18806 7.77951V7.78882V7.9312M4.75435 6.13631C4.75428 6.13634 4.75422 6.13636 4.75415 6.13638L4.8168 6.32632L4.75446 6.13628C4.75442 6.13629 4.75439 6.1363 4.75435 6.13631ZM3.18806 7.9312C3.17472 8.29144 3.29723 8.64378 3.5311 8.91933L3.53107 8.91936L3.53393 8.92258C3.81489 9.2395 4.17051 9.48245 4.56914 9.6301L4.56936 9.63018C5.30401 9.9013 6.05872 10.116 6.82679 10.2723L6.89813 10.2869M3.18806 7.9312V7.93504H3.38806L3.18822 7.92706C3.18816 7.92844 3.18811 7.92982 3.18806 7.9312ZM6.89813 10.2869C7.57941 10.4289 8.0283 10.5335 8.44064 10.6443L8.44292 10.6449C8.98436 10.7837 9.4366 10.9032 9.83536 11.0184L9.83579 11.0186C10.5161 11.2135 11.166 11.5011 11.7661 11.873M6.89813 10.2869L6.93165 10.2937L7.0076 10.2183L7.00786 10.218L6.86695 10.0761M6.89813 10.2869C6.87465 10.282 6.85089 10.277 6.82685 10.272C6.82668 10.272 6.8265 10.272 6.82632 10.2719L6.8557 10.1303L6.86686 10.0765L6.86695 10.0761M11.7661 11.873C12.3575 12.2507 12.854 12.7568 13.2176 13.3527M11.7661 11.873C11.7665 11.8732 11.7669 11.8734 11.7672 11.8737L11.8726 11.7037M11.7661 11.873C11.7657 11.8727 11.7654 11.8725 11.765 11.8723L11.8726 11.7037M13.2176 13.3527L13.3885 13.2488M13.2176 13.3527L13.3885 13.2488M13.3885 13.2488C13.0087 12.6262 12.4901 12.0978 11.8726 11.7037M13.3885 13.2488L13.4113 13.2862L11.8726 11.7037M6.86695 10.0761C7.59068 10.2262 8.06066 10.3351 8.49258 10.4512L6.86695 10.0761ZM8.80325 6.22116C9.1823 6.32527 9.54023 6.49399 9.86058 6.71999L8.80325 6.22116Z" fill="#613ED2" stroke="#F5F5F5" stroke-width="0.4"/>
</svg>
