<?xml version="1.0" encoding="UTF-8" standalone="no"?>
<svg
   width="23"
   height="24"
   viewBox="0 0 23 24"
   fill="none"
   version="1.1"
   id="svg3"
   xmlns="http://www.w3.org/2000/svg"
   xmlnsSvg="http://www.w3.org/2000/svg">
  <defs
     id="defs3" />
  <path
     d="M20 20.1976C19.9954 20.0449 19.9765 19.8931 19.9435 19.7444C19.9148 19.6257 19.8551 19.5282 19.7499 19.4733C19.6167 19.403 19.478 19.3396 19.3419 19.273C19.2942 19.2498 19.247 19.2251 19.1988 19.2033C19.0609 19.1413 18.9221 19.0812 18.7841 19.0192C18.6739 18.9693 18.5647 18.9169 18.4541 18.8676C18.2677 18.7846 18.0813 18.7036 17.8932 18.6214C17.7334 18.5512 17.5757 18.4798 17.4159 18.4109C17.2327 18.333 17.0478 18.2594 16.8646 18.1815C16.7466 18.1313 16.6302 18.0764 16.5128 18.0248C16.4526 17.9982 16.3916 17.9741 16.3306 17.9497C16.125 17.8676 15.9196 17.7843 15.7132 17.7044C15.4644 17.6078 15.2149 17.5135 14.965 17.4191C14.7581 17.341 14.5517 17.2602 14.3426 17.1883C14.1034 17.1019 13.8568 17.0404 13.6064 17.0047C13.5292 16.9965 13.4513 16.9991 13.3747 17.0123C13.1741 17.0438 12.9752 17.0792 12.7749 17.1203C12.6683 17.1424 12.5618 17.1803 12.4553 17.2092C12.3266 17.2441 12.1972 17.275 12.0691 17.3109C11.9583 17.3421 11.8488 17.3792 11.7383 17.4115C11.6416 17.4398 11.5441 17.4633 11.4474 17.4911C11.3292 17.5249 11.2112 17.5598 11.0934 17.5959C10.9952 17.6259 10.8974 17.6585 10.8005 17.6886C10.6899 17.7228 10.5789 17.7548 10.4686 17.7888C10.2238 17.8645 9.97906 17.9398 9.73456 18.0172C9.65093 18.0435 9.56916 18.0767 9.4858 18.1041C9.37926 18.1393 9.26979 18.1707 9.16192 18.205C9.0133 18.252 8.86521 18.3007 8.71659 18.3466C8.60393 18.382 8.4902 18.4141 8.37754 18.45C8.271 18.4846 8.16446 18.524 8.05633 18.5577C7.94366 18.5931 7.82993 18.624 7.71674 18.6571C7.59289 18.6937 7.47303 18.7401 7.37609 18.8336C7.2509 18.954 7.171 19.0976 7.1702 19.2852C7.17104 19.4052 7.19841 19.5233 7.2501 19.6299C7.3184 19.785 7.42512 19.9173 7.5588 20.0126C7.79664 20.1792 8.0542 20.2515 8.33679 20.1917C8.48381 20.1605 8.62977 20.118 8.77519 20.0846C8.94911 20.0449 9.12384 20.0112 9.29749 19.9713C9.41948 19.943 9.54013 19.9095 9.66132 19.8781C9.69035 19.8707 9.71938 19.8617 9.74894 19.8557C9.8989 19.8254 10.0494 19.799 10.1988 19.7653C10.4167 19.7169 10.6332 19.6625 10.8508 19.6135C10.9573 19.59 11.0639 19.5738 11.1683 19.5523C11.3108 19.524 11.4533 19.4956 11.5944 19.4622C11.7215 19.4339 11.8464 19.3922 11.9742 19.3673C12.146 19.3336 12.3186 19.2931 12.4947 19.3469C12.5917 19.3742 12.6816 19.4244 12.7579 19.4937C12.8342 19.563 12.8949 19.6496 12.9355 19.7472C12.9773 19.8355 12.9978 19.9334 12.9951 20.0322C12.9924 20.1229 12.9692 20.2116 12.9274 20.2907C12.8857 20.3699 12.8267 20.4373 12.7554 20.4871C12.6451 20.5655 12.5236 20.6244 12.3956 20.6617C12.3021 20.69 12.2073 20.7166 12.1143 20.7466C12.0214 20.7767 11.9354 20.8138 11.8448 20.8435C11.7543 20.8733 11.6568 20.8988 11.5625 20.9265C11.4277 20.9665 11.2932 21.0075 11.1582 21.0464C11.0809 21.0687 11.0032 21.088 10.9254 21.1087C10.7528 21.154 10.5807 21.2005 10.4079 21.2441C10.0694 21.3291 9.72737 21.3956 9.38485 21.4608C9.21253 21.4937 9.0386 21.5158 8.86628 21.5458C8.77454 21.5599 8.68198 21.5671 8.58928 21.5673C8.53424 21.5665 8.47943 21.5596 8.42575 21.5466C8.23105 21.5061 8.0486 21.4237 7.86349 21.3517C7.6688 21.2758 7.4749 21.1979 7.281 21.1206C7.15688 21.071 7.0333 21.0206 6.90972 20.9707C6.83487 20.9404 6.7595 20.9112 6.68492 20.8801C6.59703 20.843 6.50967 20.8039 6.4215 20.7668C6.36104 20.7413 6.30005 20.7177 6.23933 20.6934L5.8185 20.5248C5.74606 20.4965 5.67281 20.4682 5.6009 20.4381C5.50795 20.3993 5.41579 20.3583 5.3231 20.3189C5.26983 20.2962 5.21656 20.2755 5.1633 20.2532C5.05676 20.209 4.95022 20.1625 4.84368 20.1197C4.7193 20.0707 4.59359 20.0257 4.4692 19.9781C4.39196 19.9478 4.31712 19.9101 4.23908 19.8829C4.14879 19.8515 4.05744 19.8155 3.96422 19.8044C3.8156 19.7869 3.66591 19.7798 3.51915 19.839C3.3886 19.8868 3.27246 19.971 3.18276 20.0826C3.01656 20.2982 2.96489 20.5396 3.02295 20.8152C3.07143 21.0447 3.19102 21.2183 3.35881 21.3557C3.48 21.4549 3.62116 21.5197 3.76419 21.5781C3.89949 21.633 4.0332 21.6914 4.1677 21.7481C4.28409 21.7971 4.40102 21.8444 4.51714 21.894C4.57947 21.9206 4.64073 21.9506 4.70358 21.9789C4.76991 22.0095 4.83676 22.041 4.90308 22.0704C5.03625 22.1291 5.17102 22.1866 5.30526 22.2444C5.37264 22.2727 5.44029 22.301 5.50741 22.3294C5.69199 22.411 5.87577 22.4948 6.06061 22.575C6.2364 22.6515 6.41325 22.7245 6.5893 22.7993C6.62393 22.8144 6.65722 22.833 6.69211 22.8475C6.85725 22.9161 7.02291 22.9829 7.18778 23.0523C7.31323 23.1053 7.43628 23.1642 7.56199 23.2155C7.75349 23.2934 7.94659 23.3662 8.1381 23.4421C8.25955 23.4908 8.3778 23.5449 8.50059 23.5928C8.58715 23.6271 8.67638 23.654 8.76374 23.6863C8.8463 23.7166 8.92781 23.7506 9.01011 23.7818C9.0711 23.8047 9.13236 23.8288 9.19495 23.8466C9.31081 23.8798 9.42774 23.9081 9.54413 23.9393C9.58541 23.9503 9.62589 23.9639 9.66691 23.9758C9.7883 24.0136 9.91807 24.007 10.0355 23.9571C10.0494 23.9508 10.0637 23.9457 10.0784 23.9421C10.2787 23.8954 10.4795 23.8512 10.6793 23.8022C10.7693 23.7801 10.8572 23.7483 10.9456 23.7226C11.0687 23.6872 11.1925 23.6543 11.3153 23.6178C11.4381 23.5812 11.555 23.5404 11.6743 23.5044C11.7902 23.4707 11.9074 23.443 12.0235 23.411C12.1274 23.3826 12.2305 23.3506 12.3341 23.3206C12.4281 23.2923 12.5205 23.2639 12.6167 23.2401C12.8353 23.1835 13.0545 23.1299 13.2687 23.0549C13.38 23.0158 13.4969 22.9951 13.6109 22.9648C13.7249 22.9345 13.8427 22.8996 13.959 22.869C14.158 22.8169 14.3572 22.7668 14.5565 22.7149C14.6827 22.6821 14.8082 22.6461 14.9347 22.6141C15.0268 22.5906 15.1195 22.5662 15.2133 22.5517C15.3489 22.526 15.486 22.5108 15.6237 22.5061C15.7363 22.5077 15.8481 22.5268 15.9556 22.5628C16.1686 22.6325 16.3761 22.7161 16.5852 22.7968C16.6507 22.8223 16.7125 22.858 16.777 22.8872C16.8342 22.9132 16.8931 22.9362 16.9506 22.9614C17.0891 23.0226 17.2268 23.0849 17.3653 23.1455C17.4279 23.1738 17.4918 23.1965 17.5547 23.2229C17.7427 23.3025 17.93 23.3835 18.1185 23.4617C18.196 23.4979 18.2762 23.5273 18.3583 23.5495C18.4914 23.5792 18.6092 23.5268 18.7218 23.4574C18.8816 23.3588 18.9932 23.2087 19.1061 23.0588C19.2449 22.8747 19.3443 22.6656 19.4463 22.4585C19.5019 22.3452 19.5424 22.2248 19.5882 22.1067C19.6149 22.0381 19.6415 21.969 19.6628 21.8985C19.7006 21.7775 19.7358 21.6554 19.7712 21.5333C19.8021 21.4271 19.8354 21.3211 19.8618 21.2135C19.8904 21.1058 19.9129 20.9963 19.9289 20.8857C19.9553 20.6588 19.9758 20.4271 20 20.1976Z"
     fill="#613ED2"
     id="path1" />
  <path
     d="M6.05 15.6415V15.8415H6.25H18.2292H18.2294H18.4294V15.6415V6.56102V6.4738L18.3655 6.41446L12.3761 0.853434L12.24 0.727091L12.1039 0.853428L6.11392 6.41445L6.05 6.4738V6.56102V15.6415ZM17.6428 6.83927V15.025H6.83637L6.83611 6.83928L12.2397 1.82279L17.6428 6.83927Z"
     fill="#613ED2"
     stroke="#613ED2"
     stroke-width="0.4"
     id="path2" />
  <path
     d="M9.92587 8.98633L9.92587 15.6416M14.5845 8.98633V15.6416M9.125 9.33434H15.385"
     stroke="#613ED2"
     stroke-width="1.6"
     id="path3" />
  <path
     style="fill:#000000;stroke-width:0.0265896"
     d="M 5.8630058,11.208443 V 6.3966558 l 3.1809393,-2.953429 c 1.7495169,-1.624386 3.1917519,-2.94982483 3.2049679,-2.94541962 0.01322,0.004405 1.453469,1.33504202 3.200564,2.95697072 l 3.176535,2.9489613 v 4.8082458 4.808246 H 12.244509 5.8630058 Z M 9.133526,11.699422 V 8.5485549 h 3.124277 3.124278 v 3.1508671 3.150867 h 1.036994 1.036994 L 17.455504,10.881792 17.454939,6.9132948 14.861951,4.5069364 C 13.435807,3.1834393 12.25967,2.0973204 12.248313,2.0933389 c -0.01136,-0.00398 -1.189461,1.0779444 -2.6180075,2.40428 L 7.032948,6.909138 v 3.970576 3.970575 h 1.050289 1.050289 z m 4.653179,0.784393 v -2.366474 h -1.542196 -1.542197 v 2.348748 c 0,1.291811 0.008,2.356724 0.01773,2.366474 0.0097,0.0097 0.703737,0.01773 1.542196,0.01773 h 1.52447 z"
     id="path4" />
  <path
     style="fill:#000000;stroke-width:0.0265896"
     d="M 9.465896,23.904817 C 8.8474307,23.734501 7.9473315,23.373939 5.7300578,22.408315 5.108526,22.137637 4.3965896,21.829842 4.1479769,21.724326 3.5429078,21.467522 3.432997,21.408963 3.2926609,21.268627 3.0728774,21.048843 2.965473,20.672516 3.0419095,20.390036 c 0.073248,-0.270696 0.3260007,-0.510431 0.5975914,-0.566813 0.2769624,-0.0575 0.3911215,-0.01978 2.2500945,0.743437 1.3053816,0.535934 2.2101726,0.895469 2.4025119,0.954681 0.2353158,0.07244 0.3688368,0.0707 0.8689294,-0.01135 0.8640373,-0.141767 1.8392453,-0.384272 2.8269353,-0.702973 0.590882,-0.190661 0.634025,-0.208129 0.780959,-0.3162 0.23429,-0.172322 0.303585,-0.511804 0.160831,-0.787923 -0.19118,-0.369786 -0.500138,-0.46015 -1.084097,-0.317076 -0.153555,0.03762 -0.500549,0.114816 -0.771099,0.171543 C 10.256243,19.728943 9.8509468,19.820491 8.6028748,20.11567 8.1612934,20.220102 8.002553,20.216602 7.7468454,20.096788 7.4227046,19.94491 7.2222202,19.669501 7.198745,19.343855 7.1723968,18.978356 7.3606828,18.770688 7.8439306,18.632254 7.9463006,18.602928 8.377052,18.468463 8.8011561,18.333443 10.63822,17.748583 11.37064,17.52572 12.49711,17.208827 c 0.371292,-0.104451 0.832111,-0.186654 1.036994,-0.184985 0.321476,0.0026 0.818431,0.164153 2.353179,0.764896 0.890046,0.348388 3.240249,1.381769 3.735838,1.642643 0.247782,0.130429 0.293333,0.198199 0.338708,0.503915 0.0291,0.196051 -0.0029,0.722313 -0.06419,1.056071 -0.04381,0.238532 -0.256037,0.944209 -0.370934,1.233401 -0.329673,0.829776 -0.796574,1.365024 -1.142471,1.309713 -0.05592,-0.0089 -0.464125,-0.172972 -0.907117,-0.364511 -1.506346,-0.651305 -1.651429,-0.697707 -2.057881,-0.658166 -0.244213,0.02376 -1.285722,0.285629 -2.470102,0.62107 -0.190116,0.05384 -0.555058,0.157214 -0.810983,0.229711 -0.255925,0.0725 -0.704624,0.201616 -0.99711,0.286931 -0.466454,0.136061 -1.3054819,0.351927 -1.3427741,0.345471 -0.00731,-0.0013 -0.1568786,-0.04184 -0.3323699,-0.09017 z"
     id="path5" />
</svg>
