<?xml version="1.0" encoding="UTF-8" standalone="no"?>
<svg
   width="25"
   height="24"
   viewBox="0 0 25 24"
   fill="none"
   version="1.1"
   id="svg2"
   xmlns="http://www.w3.org/2000/svg"
   xmlnsSvg="http://www.w3.org/2000/svg">
  <defs
     id="defs2" />
  <path
     fill-rule="evenodd"
     clip-rule="evenodd"
     d="M9.11828 0.0257695C8.39216 0.0963354 7.56295 0.275225 6.83382 0.518659C2.35745 2.01315 -0.491938 6.49217 0.0705933 11.15C0.197709 12.2026 0.410112 12.9973 0.819207 13.951C1.60822 15.7904 3.02597 17.4368 4.73234 18.4955C7.1786 20.0131 10.1967 20.4073 12.9247 19.5654C13.4045 19.4173 14.4609 18.9907 14.5476 18.91C14.5803 18.8794 13.4864 17.528 13.3735 17.4596C13.3526 17.4469 13.1636 17.5049 12.9536 17.5885C11.3965 18.2081 9.41648 18.3049 7.79724 17.8406C6.42998 17.4485 5.20657 16.7161 4.19475 15.6839C3.69379 15.1729 3.53484 14.9776 3.18354 14.441C2.53588 13.4519 2.10658 12.3039 1.93376 11.099C1.86184 10.5974 1.86332 9.33792 1.93641 8.8539C2.45533 5.41827 4.95637 2.76728 8.39573 2.00748C8.82258 1.91314 9.06171 1.89625 9.99437 1.89446C10.9422 1.89268 11.1614 1.90773 11.6087 2.00549C15.2207 2.79463 17.7876 5.6916 18.1126 9.34572C18.2813 11.2426 17.6904 13.3152 16.5477 14.8346C15.4051 16.3539 16.2738 15.1988 16.2738 15.1988L16.8891 15.8531C17.2274 16.213 17.5229 16.5075 17.5456 16.5075C17.7072 16.5075 18.5813 15.2038 18.9984 14.3407C19.9712 12.3279 20.2389 10.151 19.7861 7.93548C19.4841 6.45757 18.7215 4.8642 17.7473 3.6756C17.3329 3.16996 16.4721 2.34674 15.9628 1.96906C14.6707 1.01073 13.0563 0.335433 11.5096 0.106234C10.8517 0.00877861 9.69407 -0.0302036 9.11828 0.0257695ZM9.79395 3.63392C9.48524 3.79648 9.40995 3.9547 9.39041 4.48224L9.37302 4.95058L9.01009 5.03921C7.28296 5.46087 6.45401 6.90408 7.03965 8.4697C7.3102 9.19311 8.05218 9.82096 9.06344 10.1823L9.38225 10.2962V11.8456C9.38225 13.0941 9.36919 13.395 9.31502 13.395C9.1802 13.395 8.68654 13.2269 8.40695 13.0858C8.24928 13.0062 7.97592 12.8251 7.79943 12.6834C7.27536 12.2628 6.95257 12.2485 6.60724 12.6308C6.45268 12.802 6.42371 12.871 6.42371 13.0684C6.42371 13.3622 6.51445 13.5133 6.86474 13.8032C7.44803 14.2859 8.23031 14.6592 8.98693 14.816L9.38225 14.898L9.38235 15.3838C9.38245 16.1377 9.58955 16.4309 10.1219 16.4309C10.6563 16.4309 10.8613 16.1384 10.8614 15.3758L10.8615 14.882L11.1548 14.8215C12.343 14.5768 13.2045 13.8726 13.4939 12.9096C13.6269 12.4671 13.6141 11.6889 13.4667 11.2578C13.1837 10.4305 12.496 9.79851 11.4847 9.43639C11.2682 9.35889 11.0394 9.27705 10.9763 9.25454L10.8615 9.21362V7.80919C10.8615 6.81744 10.8781 6.40476 10.9179 6.40476C11.0712 6.40476 11.645 6.58523 12.0027 6.74596C12.5824 7.00638 12.881 6.93077 13.1113 6.46528C13.2376 6.20995 13.2207 5.97433 13.0598 5.74829C12.8738 5.48705 11.8204 5.05733 11.1016 4.94951L10.8615 4.91349L10.8614 4.52382C10.8614 4.08869 10.7721 3.84959 10.5485 3.68576C10.3556 3.54432 10.0094 3.52054 9.79395 3.63392ZM9.38225 7.57831C9.38225 8.1957 9.36822 8.70083 9.35114 8.70083C9.24371 8.70083 8.68761 8.34739 8.56947 8.20407C8.19536 7.75006 8.24372 7.06425 8.67133 6.75963C8.81375 6.6582 9.24652 6.46426 9.344 6.45818C9.36501 6.45686 9.38225 6.96092 9.38225 7.57831ZM11.312 10.9671C11.7099 11.1675 12.0041 11.465 12.0821 11.7459C12.2086 12.2017 12.0995 12.6641 11.7989 12.9457C11.6623 13.0736 11.2411 13.2899 10.9763 13.368L10.8615 13.4019V12.0973C10.8615 11.2405 10.8795 10.7928 10.9138 10.7928C10.9426 10.7928 11.1218 10.8712 11.312 10.9671Z"
     fill="#613ED2"
     id="path1"
     style="fill:#000000" />
  <path
     fill-rule="evenodd"
     clip-rule="evenodd"
     d="M14.363 15.7835C14.1383 15.9358 14.0649 16.069 14.0664 16.3213C14.0691 16.7476 14.1568 16.8736 16.1071 19.2495C17.095 20.453 17.9032 21.4449 17.9032 21.4535C17.9032 21.4622 17.849 21.4917 17.7826 21.5191C17.5304 21.6231 16.9415 21.4522 16.3385 21.1002C15.9498 20.8731 15.6765 20.8142 15.3383 20.8843C15.15 20.9234 15.0678 20.966 14.9454 21.0879C14.8016 21.2312 14.7921 21.2546 14.8108 21.4197C14.8368 21.6503 14.9673 21.8175 15.3726 22.1395C15.8977 22.5568 16.4924 22.9328 17.1145 23.2406C18.9633 24.1555 20.6571 24.2429 22.1805 23.502C24.0033 22.6154 24.6092 21.2758 23.9847 19.5129C23.6897 18.6798 22.9993 17.5736 22.5022 17.1374C22.2224 16.8919 21.8064 16.6956 21.4542 16.6429C20.5465 16.5069 19.3592 17.0653 18.2229 18.1627C18.0266 18.3522 17.8503 18.5074 17.8312 18.5074C17.7799 18.5074 16.3535 17.0531 15.9029 16.5413C15.2328 15.7803 14.7315 15.5336 14.363 15.7835Z"
     fill="#613ED2"
     id="path2"
     style="fill:#000000" />
</svg>
