<?xml version="1.0" encoding="UTF-8" standalone="no"?>
<svg
   width="24"
   height="24"
   viewBox="0 0 24 24"
   fill="none"
   version="1.1"
   id="svg2"
   xmlns="http://www.w3.org/2000/svg"
   xmlnsSvg="http://www.w3.org/2000/svg">
  <defs
     id="defs2" />
  <path
     d="M4 23.25H20.1735C20.8639 23.25 21.4235 22.6904 21.4235 22L21.4239 9.79484C21.4239 9.44513 21.2774 9.11141 21.02 8.87469L12.9335 1.43841C12.4551 0.998563 11.7196 0.998547 11.2413 1.43837L3.15393 8.87469C2.8965 9.1114 2.75 9.44512 2.75 9.79484V22C2.75 22.6904 3.30964 23.25 4 23.25ZM19.5873 22.1241H4.58614C4.17194 22.1241 3.83615 21.7883 3.83614 21.3741L3.83577 10.0819C3.83576 9.87205 3.92367 9.67181 4.07813 9.52978L11.5793 2.63265C11.8663 2.36876 12.3076 2.36877 12.5946 2.63267L20.095 9.52979C20.2494 9.67181 20.3373 9.87203 20.3373 10.0819V21.3741C20.3373 21.7883 20.0015 22.1241 19.5873 22.1241Z"
     fill="#613ED2"
     stroke="#613ED2"
     stroke-width="0.5"
     id="path1" />
  <path
     d="M13.4687 12.779L13.4847 12.7317C13.2918 12.6666 13.0738 12.5994 12.8146 12.5219C12.6066 12.4567 12.3807 12.3957 12.0342 12.3118L12.0046 12.3047L12.0045 12.3049C11.6549 12.2201 11.3113 12.1052 10.9765 11.961C10.8091 11.8887 10.6591 11.7694 10.5401 11.613C10.4504 11.4894 10.4031 11.3305 10.4086 11.1675L10.4087 11.1675V11.1658V11.0862C10.4199 10.9501 10.4653 10.8214 10.5387 10.716C10.6788 10.5299 10.859 10.3917 11.0598 10.3149L11.0599 10.3148C11.3982 10.1847 11.7534 10.1241 12.1096 10.136L12.1096 10.136H12.1112H12.1347L12.1348 10.136C12.4045 10.1356 12.6729 10.1763 12.9335 10.2572C13.1084 10.3133 13.274 10.4043 13.4224 10.5264L13.4229 10.5268C13.5136 10.5998 13.5921 10.6921 13.6537 10.7994L14.0542 11.4982L14.0826 11.5477L14.1279 11.513L15.3368 10.5881L15.3716 10.5615L15.3498 10.5235L14.9493 9.82474C14.9493 9.82473 14.9493 9.82473 14.9493 9.82472C14.7822 9.53287 14.5685 9.27966 14.3194 9.07852C14.0261 8.83875 13.6988 8.65935 13.3516 8.54864L13.3515 8.54862C13.2179 8.50625 13.0825 8.47134 12.946 8.44411V6.73828V6.68828L12.896 6.68828L11.446 6.68838L11.396 6.68839V6.73838V8.41324C11.1145 8.4572 10.8371 8.53094 10.5673 8.63343L10.5672 8.63349C10.0983 8.81359 9.68124 9.13643 9.35973 9.56667L9.35951 9.56697L9.33954 9.59411L9.28095 9.67375H9.28559C9.02391 10.0759 8.87494 10.5606 8.8587 11.0633C8.82755 11.6519 8.98367 12.2339 9.29856 12.7004L9.32179 12.7356L9.35813 12.7906L9.36079 12.7876C9.64617 13.1608 10.0072 13.4484 10.413 13.6243L10.4132 13.6243C10.8288 13.8022 11.2555 13.9429 11.6897 14.0454C12.0084 14.1249 12.2118 14.179 12.3931 14.2369L12.4006 14.2393H12.4084H12.4215C12.6568 14.3053 12.8514 14.365 13.0246 14.4228L13.0246 14.4229C13.2285 14.4928 13.4228 14.596 13.6018 14.7296L13.6022 14.7299C13.6992 14.8008 13.7825 14.8951 13.8463 15.0071C13.9078 15.1446 13.9379 15.2984 13.9333 15.4539L13.9333 15.4539V15.4553V15.493H13.9333L13.9333 15.4944C13.9386 15.6858 13.8895 15.8737 13.7943 16.029C13.647 16.2528 13.447 16.4209 13.2196 16.5138L13.2196 16.5137L13.2183 16.5143C12.8587 16.6729 12.4756 16.7468 12.0914 16.7319L12.0914 16.7319H12.0894H12.044V16.7319L12.0422 16.7319C11.6268 16.747 11.2139 16.649 10.8365 16.4456C10.6558 16.3359 10.4997 16.1779 10.3813 15.9838L10.3812 15.9836L9.96073 15.3014L9.93062 15.2525L9.88635 15.289L8.70647 16.262L8.6731 16.2895L8.69553 16.3265L9.11425 17.017L9.11446 17.0173C9.37856 17.4452 9.72781 17.7948 10.1337 18.0363L10.1337 18.0363L10.136 18.0375L10.1556 18.0478C10.1556 18.0479 10.1557 18.0479 10.1558 18.048C10.5489 18.2593 10.9677 18.4 11.3979 18.4655V20.1296V20.1796H11.4479H12.8978H12.9478V20.1296V18.4304C13.2305 18.3763 13.5076 18.2893 13.775 18.1709C14.2808 17.9553 14.721 17.5766 15.0438 17.081L15.0438 17.0811L15.0448 17.0795C15.3024 16.651 15.4526 16.1493 15.4795 15.6296C15.5065 15.1099 15.4091 14.5915 15.1978 14.1308L15.1979 14.1307L15.1967 14.1285L15.1858 14.1076L15.1858 14.1076C15.0009 13.754 14.7481 13.4532 14.4463 13.2285L14.4458 13.2281C14.1471 13.0121 13.8235 12.845 13.4846 12.7316L13.4687 12.779ZM13.4687 12.779C13.8027 12.8907 14.1218 13.0555 14.4165 13.2686L10.9567 12.0069C11.3035 12.1563 11.6598 12.2745 12.0223 12.3606L12.0225 12.3604C12.3686 12.4442 12.5934 12.5049 12.7999 12.5697C13.0591 12.6473 13.2766 12.7142 13.4687 12.779Z"
     fill="#613ED2"
     stroke="#613ED2"
     stroke-width="0.1"
     id="path2" />
  <path
     style="fill:#000000;stroke-width:0.0277457"
     d="M 3.7179191,23.458499 C 3.1532566,23.345925 2.7076227,22.920392 2.5653963,22.357963 2.5112413,22.143809 2.5105013,22.04268 2.5176224,15.828602 l 0.00723,-6.311839 0.061781,-0.1803468 C 2.7188924,8.9503416 2.5942754,9.072149 7.0311923,4.9920599 10.39435,1.899376 11.228797,1.1454812 11.381274,1.0619065 c 0.488025,-0.26749246 1.08632,-0.23991886 1.52847,0.070442 0.221095,0.1551945 8.338342,7.6236712 8.445282,7.7702934 0.04601,0.063084 0.113799,0.1737658 0.150641,0.2459589 0.157107,0.3078648 0.149004,-0.059179 0.149004,6.7496642 0,5.495689 -0.0052,6.292486 -0.0419,6.448285 -0.127871,0.542475 -0.619252,1.011846 -1.162373,1.110308 -0.195932,0.03552 -16.5544943,0.03712 -16.7324769,0.0016 z M 19.891886,21.783568 c 0.0577,-0.04401 0.128243,-0.131408 0.156767,-0.19422 0.05011,-0.110345 0.05188,-0.30786 0.05247,-5.846479 4.48e-4,-4.2142 -0.0078,-5.7572534 -0.03098,-5.8265901 -0.01737,-0.051872 -0.05795,-0.1240678 -0.09017,-0.1604337 C 19.813752,9.5682443 12.422889,2.7930541 12.326459,2.7398844 12.196426,2.6681872 12.015642,2.6582524 11.88119,2.715415 11.742474,2.77439 4.1651716,9.7554492 4.1177007,9.8680101 4.0845017,9.9467301 4.0786127,10.83256 4.0786127,15.747692 v 5.786998 l 0.076232,0.115194 c 0.041928,0.06336 0.1230839,0.139965 0.1803468,0.170239 0.1031845,0.05455 0.1726496,0.05499 7.7779505,0.04925 l 7.673838,-0.0058 z"
     id="path3" />
  <path
     style="fill:#000000;stroke-width:0.0277457"
     d="m 11.36185,19.355386 v -0.85733 l -0.215029,-0.04774 C 10.682779,18.347293 10.181358,18.130458 9.8756103,17.900593 9.6606391,17.738974 9.3212256,17.384046 9.1792709,17.172423 8.9370289,16.811294 8.6395104,16.300561 8.6559181,16.274012 c 0.00957,-0.01548 0.2990058,-0.260673 0.6431918,-0.544865 0.5172417,-0.427084 0.6318329,-0.510172 0.6606144,-0.479 0.019152,0.02074 0.1384297,0.206269 0.2650617,0.412281 0.126632,0.206011 0.262599,0.417405 0.302149,0.469763 0.177866,0.235469 0.603507,0.451107 1.044416,0.529123 0.301381,0.05333 1.024096,0.02289 1.288765,-0.05428 0.336759,-0.09819 0.551178,-0.214806 0.737688,-0.401225 0.22134,-0.221232 0.288901,-0.392813 0.288901,-0.733704 0,-0.310785 -0.05259,-0.468613 -0.20721,-0.621877 C 13.40885,14.581966 13.12066,14.465699 11.944509,14.150273 10.560378,13.779071 10.114949,13.585213 9.6437089,13.148928 9.048081,12.597481 8.7490895,11.768228 8.8364026,10.909862 8.925496,10.033996 9.3386338,9.345516 10.069097,8.8556197 10.348153,8.6684672 10.891318,8.4612124 11.255268,8.4030145 L 11.36185,8.3859713 V 7.515529 6.6450867 h 0.804624 0.804624 v 0.8838744 0.8838745 l 0.174909,0.043163 c 0.615369,0.1518573 1.216949,0.5287347 1.579966,0.9898156 0.1509,0.1916626 0.672871,1.0574188 0.672871,1.1160418 0,0.02095 -1.290315,1.020358 -1.318727,1.021414 -0.0081,2.99e-4 -0.126588,-0.19449 -0.263364,-0.432867 -0.352986,-0.615194 -0.565629,-0.790882 -1.109239,-0.916461 -0.336925,-0.07783 -1.000946,-0.0709 -1.317919,0.01376 -0.333655,0.08912 -0.505014,0.174444 -0.677,0.337101 -0.206073,0.194895 -0.277024,0.364902 -0.260141,0.623326 0.03472,0.531441 0.35528,0.738242 1.699695,1.096515 1.6264,0.433419 2.133203,0.664806 2.643979,1.207139 0.478929,0.508518 0.71046,1.135915 0.711747,1.928675 7.01e-4,0.431485 -0.0379,0.683704 -0.161373,1.054336 -0.139229,0.417939 -0.310128,0.701781 -0.616601,1.024102 -0.450933,0.474249 -0.913605,0.733093 -1.640884,0.917998 l -0.117919,0.02998 v 0.872919 0.872919 H 12.166474 11.36185 Z m 2.483237,-6.385808 c -0.196478,-0.09441 -1.006993,-0.364814 -1.058948,-0.353283 -0.04603,0.01022 1.09585,0.432983 1.16993,0.433151 0.03052,7e-5 -0.01942,-0.03587 -0.110982,-0.07987 z"
     id="path4" />
</svg>
