<?xml version="1.0" encoding="UTF-8" standalone="no"?>
<svg
   width="24"
   height="24"
   viewBox="0 0 24 24"
   fill="none"
   version="1.1"
   id="svg1"
   xmlns="http://www.w3.org/2000/svg"
   xmlnsSvg="http://www.w3.org/2000/svg">
  <defs
     id="defs1" />
  <path
     d="M13.0578 2.46188C13.0578 2.90379 12.9147 3.4172 13.098 3.76743C13.2813 4.11765 13.8733 4.03056 14.2783 4.16258C15.8233 4.66499 16.8297 5.73951 17.6171 7.07073C17.7107 7.22842 17.6882 7.30635 17.5414 7.39895C16.8867 7.81152 16.232 8.22409 15.5895 8.65133C15.4324 8.75493 15.3426 8.73017 15.251 8.58623C15.1593 8.44229 15.0639 8.33869 14.9938 8.20392C14.4326 7.13399 13.4974 6.67008 12.3217 6.54723C11.3351 6.44363 10.3652 6.49955 9.42246 6.80118C9.034 6.92087 8.68526 7.14024 8.41239 7.43654C8.19456 7.66968 8.07656 7.97602 8.08283 8.29212C8.0891 8.60821 8.21915 8.90983 8.44606 9.13449C8.72211 9.40477 9.06105 9.6052 9.43369 9.7185C10.9479 10.2448 12.549 10.4373 14.08 10.8985C15.1331 11.2157 16.1376 11.6319 16.8858 12.447C18.5973 14.3081 18.3064 17.23 16.2779 18.8344C15.4809 19.4521 14.5388 19.864 13.5376 20.0327C13.1167 20.1107 13.0222 20.2766 13.0391 20.6571C13.069 21.3126 13.0391 21.97 13.0522 22.6264C13.0587 22.8877 13.0092 23.0096 12.7005 22.9996C11.9851 22.9766 11.2687 22.9821 10.5494 22.9996C10.2763 23.006 10.2053 22.9079 10.209 22.6548C10.2221 21.9535 10.209 21.2503 10.2174 20.5461C10.223 20.2849 10.1464 20.173 9.86297 20.1354C7.72405 19.853 6.15937 18.74 5.07448 16.9265C4.95664 16.7303 4.97628 16.6515 5.15024 16.536C5.76937 16.128 6.38196 15.7072 6.9852 15.2698C7.19657 15.1158 7.30319 15.1782 7.42009 15.3615C7.51362 15.5036 7.62772 15.6292 7.71283 15.7741C8.46103 17.0421 9.67218 17.4354 11.0592 17.4959C11.9514 17.5353 12.8296 17.4647 13.6779 17.1475C13.9962 17.0247 14.2946 16.8569 14.5635 16.6497C15.3426 16.0629 15.5212 14.541 14.283 13.9331C13.2645 13.4353 12.159 13.2556 11.0732 13.0071C10.0884 12.7816 9.10167 12.5707 8.15894 12.204C5.9293 11.3394 4.81541 9.36461 5.39527 7.23484C5.80117 5.74776 6.87952 4.84469 8.28894 4.28268C8.7175 4.09961 9.17134 3.97974 9.6357 3.92696C10.0902 3.88753 10.2623 3.71059 10.2268 3.24393C10.18 2.62141 10.2268 1.99247 10.2109 1.3672C10.2034 1.09215 10.282 0.992217 10.5756 1.00047C11.2911 1.01972 12.0075 1.01514 12.7267 1.00047C12.9708 1.00047 13.0569 1.07473 13.0466 1.31494C13.0297 1.69633 13.0466 2.07773 13.0466 2.46005L13.0578 2.46188Z"
     fill="#613ED1"
     id="path1" />
  <path
     style="fill:#000000;stroke-width:0.0277457"
     d="m 10.343815,22.952734 c -0.03344,-0.01539 -0.0709,-0.04824 -0.08324,-0.07301 -0.01234,-0.02477 -0.02867,-0.617344 -0.0363,-1.31683 l -0.01387,-1.271792 -0.07533,-0.06477 C 10.093346,20.190448 9.9943572,20.149447 9.9131137,20.134394 9.8324618,20.11945 9.6166474,20.079611 9.433526,20.045863 7.6967822,19.72579 6.2879497,18.758231 5.2483566,17.171572 5.0456962,16.862265 4.9989371,16.761573 5.0229008,16.68607 5.0318226,16.65796 5.309944,16.451395 5.6409484,16.227037 5.9719528,16.002679 6.4317163,15.68458 6.6626451,15.52015 c 0.2309288,-0.16443 0.4530685,-0.307296 0.4936437,-0.31748 0.099887,-0.02507 0.2108073,0.09426 0.5386874,0.579529 0.1402167,0.207524 0.3170287,0.448269 0.3929161,0.53499 0.6710503,0.766846 1.6307692,1.137845 3.0897507,1.194404 1.832395,0.07103 3.396401,-0.494179 3.830198,-1.384189 0.177784,-0.364756 0.225842,-0.815405 0.127826,-1.198646 -0.11925,-0.466261 -0.397028,-0.78404 -0.899721,-1.029285 -0.608531,-0.29688 -1.168327,-0.464817 -2.638258,-0.791469 C 11.048324,12.985922 10.34289,12.823601 10.030058,12.747291 8.0735473,12.270032 7.1540183,11.832363 6.3516846,10.996491 5.3176286,9.9192122 4.9984872,8.4690251 5.4788176,7.0301613 5.8990093,5.7714473 6.8171706,4.8886308 8.3381474,4.2809019 8.7431703,4.1190689 9.0913709,4.0243267 9.5306358,3.9564366 9.925286,3.8954422 9.9555324,3.8866255 10.07636,3.7973594 10.22794,3.6853733 10.233295,3.6363912 10.235832,2.3384099 l 0.0023,-1.1852895 0.06318,-0.063265 0.06318,-0.063265 1.199252,-0.00826 c 0.659588,-0.00454 1.239924,-8.367e-4 1.289635,0.00823 0.169902,0.030999 0.172622,0.047488 0.167247,1.0139685 -0.0097,1.7417402 -0.01474,1.5813153 0.0539,1.709731 0.110425,0.2065832 0.234579,0.2626594 0.757277,0.3420381 1.121352,0.1702915 2.299043,0.9455534 3.161387,2.0811077 0.317844,0.418545 0.666918,0.9726709 0.666918,1.0586786 0,0.067055 -0.08889,0.1315638 -0.80787,0.5862645 -0.375657,0.2375764 -0.835557,0.5327473 -1.022,0.6559347 -0.187698,0.1240178 -0.368753,0.2239777 -0.405685,0.2239777 -0.07938,0 -0.230082,-0.1943265 -0.492369,-0.634883 C 14.524653,7.3788486 13.921937,6.9181645 13.137572,6.6916692 11.943611,6.3468979 10.020086,6.4595373 9.0728324,6.9296956 8.1988495,7.3634869 7.8594096,8.1118496 8.2121976,8.8271351 8.3194077,9.0445057 8.5122992,9.2444157 8.7974658,9.4336986 9.2316025,9.721862 10.031229,9.9631064 12.021823,10.406475 c 1.8671,0.415862 2.5939,0.633443 3.389644,1.014751 0.849649,0.407139 1.417906,0.883798 1.880782,1.577618 0.950372,1.424541 0.920339,3.32341 -0.0759,4.798742 -0.732625,1.084949 -2.040803,1.895237 -3.541755,2.193772 -0.332394,0.06611 -0.484014,0.13403 -0.576035,0.258033 -0.05648,0.07611 -0.05849,0.113829 -0.07197,1.351643 -0.0128,1.174484 -0.01772,1.277194 -0.06341,1.322863 -0.04597,0.04595 -0.139871,0.04978 -1.304046,0.05316 -0.792562,0.0023 -1.276899,-0.0067 -1.315317,-0.02433 z"
     id="path2" />
</svg>
