<svg width="21" height="25" viewBox="0 0 21 25" fill="none" xmlns="http://www.w3.org/2000/svg">
<path d="M18.9996 24.25C19.6899 24.25 20.2496 23.6904 20.2496 23L20.25 10.1746C20.25 9.82494 20.1035 9.49122 19.8461 9.2545L11.3465 1.43841C10.8682 0.998564 10.1327 0.998545 9.65434 1.43837L1.15393 9.25451C0.896499 9.49121 0.75 9.82493 0.75 10.1746V23C0.75 23.6904 1.30964 24.25 2 24.25H18.9996ZM2.61279 23.0956C2.19858 23.0956 1.8628 22.7598 1.86279 22.3456L1.8624 10.4748C1.86239 10.2649 1.95029 10.0647 2.10476 9.92264L9.99233 2.6702C10.2793 2.40632 10.7206 2.40633 11.0076 2.67023L18.8944 9.92264C19.0489 10.0647 19.1367 10.2649 19.1367 10.4747V22.3456C19.1367 22.7598 18.801 23.0956 18.3867 23.0956H2.61279Z" fill="#613ED2" stroke="#613ED2" stroke-width="0.5"/>
<path d="M9.78084 6.95011L9.83084 6.95011L11.3467 6.95L11.3967 6.95V7V8.78523C11.54 8.81373 11.682 8.85033 11.8222 8.89479L11.8223 8.89482C12.185 9.01047 12.5269 9.19787 12.8333 9.44836C13.0936 9.65846 13.3168 9.92297 13.4914 10.2279C13.4914 10.2279 13.4914 10.2279 13.4914 10.2279L13.9101 10.9585L13.9318 10.9964L13.8971 11.023L12.6333 11.99L12.5879 12.0247L12.5595 11.9751L12.1408 11.2446C12.0762 11.1322 11.9941 11.0354 11.899 10.959L11.8985 10.9586C11.7431 10.8307 11.5698 10.7354 11.3866 10.6767C11.114 10.592 10.8331 10.5495 10.5509 10.5499H10.5508H10.5263H10.5246L10.5246 10.5499C10.152 10.5375 9.78025 10.6008 9.42636 10.737L9.42627 10.737C9.21588 10.8176 9.02713 10.9623 8.88044 11.1572C8.80344 11.2677 8.75577 11.4028 8.74403 11.5455V11.6288V11.6305L8.744 11.6305C8.73815 11.8014 8.78782 11.968 8.88191 12.0976C9.00653 12.2615 9.1637 12.3864 9.33907 12.4622C9.68959 12.6131 10.0494 12.7334 10.4154 12.8222L10.4156 12.822L10.4452 12.8291C10.8074 12.9168 11.0436 12.9805 11.2609 13.0487M9.78084 6.95011L11.9454 13.3153L11.9614 13.268C11.7598 13.2 11.5319 13.1297 11.2609 13.0487M9.78084 6.95011V7.00011M9.78084 6.95011V7.00011M11.2609 13.0487C11.261 13.0488 11.2611 13.0488 11.2613 13.0488L11.2463 13.0965L11.2606 13.0486C11.2607 13.0487 11.2608 13.0487 11.2609 13.0487ZM12.6029 11.9503L12.5725 11.9106L12.5778 11.9065L12.6029 11.9503ZM12.6029 11.9503L12.6463 11.9254L12.6429 11.9196L12.6029 11.9503ZM9.78084 7.00011V8.75304C9.48602 8.79893 9.19548 8.87609 8.91301 8.98341L8.91284 8.98348C8.4231 9.17159 7.9874 9.50883 7.65152 9.95831L7.6513 9.95861L7.63042 9.98699L7.57183 10.0666H7.57638M9.78084 7.00011L7.57638 10.0666M7.57638 10.0666C7.30162 10.4874 7.14517 10.9951 7.12816 11.5218M7.57638 10.0666L7.12816 11.5218M7.12816 11.5218C7.09563 12.1365 7.25866 12.7444 7.58748 13.2316C7.58753 13.2317 7.58758 13.2318 7.58763 13.2319L7.61193 13.2687L7.64826 13.3237L7.65091 13.3206C7.94931 13.7117 8.32713 14.0129 8.75177 14.1969L8.75198 14.197C9.1863 14.3828 9.63235 14.5299 10.0862 14.6371C10.4193 14.7202 10.632 14.7767 10.8217 14.8374L10.8291 14.8397H10.8369H10.8509C11.0971 14.9088 11.3007 14.9712 11.4819 15.0317L11.4819 15.0317C11.6953 15.1049 11.8986 15.2129 12.086 15.3527L12.0864 15.353C12.1881 15.4273 12.2754 15.5263 12.3422 15.6437C12.4067 15.7877 12.4382 15.9489 12.4335 16.1118L12.4334 16.1118V16.1133V16.1527H12.4334L12.4335 16.154C12.439 16.3546 12.3876 16.5515 12.2878 16.7142C12.1335 16.9486 11.9241 17.1247 11.6858 17.2219L11.6858 17.2219L11.6846 17.2225C11.3083 17.3884 10.9075 17.4657 10.5054 17.4502L10.5054 17.4501H10.5035H10.456V17.4501L10.4542 17.4502C10.0194 17.466 9.58732 17.3634 9.19251 17.1505C9.00322 17.0356 8.83974 16.8701 8.71578 16.6669L8.71566 16.6667L8.27608 15.9535L8.24597 15.9047L8.2017 15.9412L6.96819 16.9583L6.93482 16.9858L6.95725 17.0228L7.395 17.7447L7.39521 17.745C7.67114 18.1921 8.03601 18.5573 8.46002 18.8096L8.45999 18.8096L8.4623 18.8108L8.48278 18.8216C8.48284 18.8216 8.48289 18.8217 8.48295 18.8217C8.89425 19.0429 9.33263 19.19 9.78275 19.2583V21V21.05H9.83275H11.3486H11.3986V21V19.2217L7.12816 11.5218ZM7.65363 13.2411L7.65324 13.2405L7.62907 13.2039M7.65363 13.2411L7.61586 13.2084L7.616 13.2082L7.625 13.1978C7.62635 13.1999 7.62771 13.2019 7.62907 13.2039M7.65363 13.2411L7.65362 13.2411M7.65363 13.2411L7.65362 13.2411M7.62907 13.2039L7.61891 13.2107L7.61873 13.2109L7.62907 13.2039ZM7.65362 13.2411L7.65365 13.2411L7.65382 13.241C7.65399 13.2412 7.65415 13.2415 7.65432 13.2417C7.66424 13.2552 7.67426 13.2687 7.68436 13.282L7.65362 13.2411ZM11.4981 14.9848V14.9844L11.4981 14.9844C11.4981 14.9844 11.4981 14.9844 11.4981 14.9844C11.4955 14.9835 11.4929 14.9826 11.4902 14.9818L11.4981 14.9848ZM11.4981 14.9848L11.4983 14.9845C11.4983 14.9845 11.4983 14.9845 11.4983 14.9845C11.5008 14.9854 11.5034 14.9862 11.5059 14.9871L11.4983 15.0344H11.4981V14.9848ZM8.23351 15.9798L8.19457 16.0119L8.19095 16.006L8.23351 15.9798ZM8.23351 15.9798L8.26 16.0227L8.26532 16.0183L8.23351 15.9798ZM12.2647 18.9502C12.2648 18.9502 12.2649 18.9501 12.265 18.9501L12.2448 18.9044L12.2644 18.9503C12.2645 18.9503 12.2646 18.9503 12.2647 18.9502Z" fill="#613ED2" stroke="#613ED2" stroke-width="0.1"/>
</svg>
