<?xml version="1.0" encoding="UTF-8" standalone="no"?>
<svg
   width="22"
   height="26"
   viewBox="0 0 22 26"
   fill="none"
   version="1.1"
   id="svg2"
   xmlns="http://www.w3.org/2000/svg"
   xmlnsSvg="http://www.w3.org/2000/svg">
  <defs
     id="defs2" />
  <path
     d="M10.6444 22.822C10.6425 22.8171 10.6378 22.8138 10.635 22.8097L8.3947 19.1544C8.2356 18.8816 7.89048 18.7848 7.6214 18.9378L7.42172 19.066C7.15345 19.2187 7.1593 19.614 7.31801 19.8868L8.75422 22.2126C8.63177 22.1845 8.50816 22.1617 8.38727 22.1287C5.8724 21.4419 3.74439 19.6649 2.54916 17.2537C1.41983 14.9759 1.20769 12.3762 1.95174 9.93239C2.6954 7.48857 4.38352 5.49337 6.56536 4.31481C6.937 4.11411 7.08206 3.63699 6.88981 3.24984C6.69795 2.86147 6.24052 2.70964 5.86969 2.91075C3.3283 4.28349 1.37537 6.60722 0.50846 9.45367C-0.358038 12.2997 -0.111191 15.3282 1.20415 17.9808C2.59671 20.7882 5.07531 22.8575 8.00471 23.6583C8.03786 23.6672 8.07257 23.6725 8.1061 23.6814L6.12434 24.7306C5.85604 24.8841 5.76711 25.2301 5.92624 25.5028L6.00306 25.7108C6.16294 25.9836 6.43787 26.0805 6.70536 25.9274L10.3328 23.9884C10.3375 23.9851 10.3422 23.9859 10.3469 23.9827L10.5902 23.8439C10.7248 23.7669 10.8137 23.6411 10.8492 23.5002C10.8862 23.3598 10.869 23.2035 10.7895 23.0679L10.6444 22.822ZM20.7955 8.12197C19.4049 5.31542 17.0035 3.24618 14.0745 2.445C13.8659 2.38801 13.6526 2.34363 13.4396 2.29967L15.3851 1.2697C15.6534 1.1162 15.8133 0.77019 15.6542 0.497L15.5774 0.289379C15.4175 0.0162146 15.0716 -0.0802682 14.8041 0.0723945L11.1771 2.01141C11.1728 2.01426 11.1677 2.01345 11.163 2.01671L10.9201 2.15593C10.7851 2.23328 10.6966 2.35865 10.6611 2.4995C10.6241 2.63995 10.6413 2.79587 10.7212 2.93144L10.8655 3.17855C10.8678 3.18343 10.8721 3.18631 10.8748 3.19119L13.1152 6.84614C13.2739 7.1193 13.6194 7.21579 13.8881 7.06274L14.064 6.93489C14.3322 6.78222 14.3498 6.38693 14.1914 6.11458L12.7486 3.77742C13.0656 3.8283 13.3815 3.88978 13.69 3.97486C16.206 4.66286 18.2572 6.43945 19.4517 8.84907C20.5806 11.1268 20.7927 13.7265 20.0483 16.17C19.3047 18.6138 17.6926 20.6086 15.5107 21.7884C15.1395 21.989 14.9948 22.4653 15.1871 22.8537C15.3216 23.1244 15.5852 23.2803 15.8597 23.2803C15.9767 23.2803 16.0953 23.2518 16.2076 23.1916C18.749 21.8192 20.6251 19.4951 21.492 16.6495C22.3581 13.8022 22.1109 10.7738 20.7955 8.12197Z"
     fill="#613ED2"
     id="path1" />
  <path
     d="M9.83084 6.00011V7.79608C9.52501 7.84049 9.22354 7.91892 8.93077 8.03015C8.45049 8.21463 8.02224 8.54574 7.69157 8.98824L7.67069 9.01662H7.67082C7.36869 9.44373 7.19582 9.97287 7.17812 10.5239C7.146 11.1286 7.30646 11.726 7.62907 12.2039L7.65365 12.2411L7.65379 12.241C7.95288 12.6498 8.33776 12.963 8.77165 13.151C9.20345 13.3358 9.64685 13.482 10.0979 13.5885C10.4314 13.6716 10.6455 13.7285 10.8369 13.7897H10.8578C11.1078 13.8598 11.3144 13.9231 11.4983 13.9844H11.4981C11.7166 14.0594 11.9245 14.1698 12.1159 14.3126C12.2243 14.3918 12.3166 14.497 12.3868 14.621C12.4552 14.7727 12.4885 14.9422 12.4834 15.1133V15.1527C12.4893 15.3628 12.4353 15.5695 12.33 15.741C12.1706 15.9835 11.9533 16.1667 11.7047 16.2682C11.3217 16.4371 10.9133 16.516 10.5035 16.5001H10.456C10.0117 16.5163 9.57036 16.4113 9.16766 16.1939C8.9706 16.0746 8.80116 15.9029 8.67309 15.693L8.23351 14.9798L7 15.9969L7.43775 16.7188C7.70975 17.1594 8.06897 17.5188 8.48558 17.7666L8.50646 17.7776C8.92585 18.0031 9.37348 18.1507 9.83275 18.215V20H11.3486V18.1801C11.6549 18.125 11.9554 18.0325 12.2448 17.9044C12.7634 17.6834 13.216 17.2946 13.5483 16.7844C13.8131 16.344 13.9677 15.8279 13.9955 15.2928C14.0232 14.7577 13.9229 14.2241 13.7056 13.7503L13.6943 13.7285C13.5043 13.3653 13.245 13.0571 12.9363 12.8271C12.6282 12.6044 12.2946 12.4321 11.9454 12.3153C11.7446 12.2476 11.5172 12.1776 11.2463 12.0965C11.0303 12.0288 10.7953 11.9653 10.4335 11.8777L10.4333 11.8779C10.0543 11.7878 9.68184 11.6642 9.3193 11.5082C9.13532 11.4287 8.97131 11.2979 8.84179 11.1274C8.74055 10.9883 8.68782 10.8104 8.69403 10.6288V10.5435C8.70619 10.3913 8.75694 10.2467 8.83994 10.1278C8.99193 9.92563 9.18834 9.77457 9.4084 9.69035C9.76843 9.5518 10.1468 9.48726 10.5263 9.49992H10.5508C10.8382 9.49946 11.1242 9.5428 11.4016 9.62901C11.5912 9.68974 11.7701 9.78816 11.9303 9.92C12.0305 10.0006 12.1166 10.1022 12.1842 10.2197L12.6029 10.9503L13.8667 9.98331L13.448 9.25273C13.2763 8.95289 13.057 8.6932 12.8018 8.48718C12.5001 8.24045 12.1636 8.05613 11.8071 7.94245C11.6555 7.89439 11.5018 7.85563 11.3467 7.82648V6L9.83084 6.00011Z"
     fill="#613ED2"
     id="path2" />
  <path
     style="fill:#000000;stroke-width:0.0254335"
     d="M 6.2389373,25.929891 C 6.1872314,25.90179 6.1169298,25.84156 6.0827113,25.796047 5.9903665,25.67322 5.8624277,25.331512 5.8624277,25.207696 c 0,-0.147984 0.1051473,-0.35019 0.2233855,-0.429586 0.051994,-0.03491 0.5237244,-0.289523 1.0482908,-0.565798 0.5245665,-0.276276 0.9622594,-0.509871 0.9726511,-0.5191 0.010392,-0.0092 -0.1097818,-0.05413 -0.267052,-0.09979 C 5.7579778,22.989096 3.8913608,21.724202 2.4856712,19.965318 2.2115624,19.622336 1.733253,18.920096 1.5328911,18.566474 0.05212188,15.953037 -0.362029,12.90887 0.36835653,10.006701 0.69599632,8.7048328 1.3075614,7.3727885 2.0725571,6.2947977 2.7023009,5.4073965 3.5894284,4.4917565 4.447444,3.843581 4.9667233,3.4512991 5.7758591,2.949806 6.0165063,2.8710943 c 0.3278272,-0.1072268 0.6854491,0.059052 0.8692823,0.4041793 0.047135,0.08849 0.05719,0.1476619 0.057147,0.3362871 C 6.9428508,3.9886434 6.831865,4.1451817 6.383815,4.4001662 5.2545868,5.0428078 4.2049098,5.9646464 3.4300243,6.9942197 2.4997689,8.2302295 1.8740618,9.7218458 1.6288379,11.288048 c -0.099077,0.63279 -0.1237264,1.042651 -0.1077265,1.791262 0.01856,0.868378 0.082603,1.36984 0.2745,2.14936 0.345804,1.404715 0.9660517,2.659229 1.8866919,3.816025 0.244745,0.307525 0.8538309,0.935657 1.1755002,1.212258 0.9185185,0.789828 2.0059612,1.401587 3.1389701,1.765881 0.3558987,0.114431 0.7333562,0.208115 0.7542646,0.187207 0.00652,-0.0065 -0.3202773,-0.549601 -0.7262274,-1.206836 -0.8351505,-1.352111 -0.8571462,-1.399236 -0.7788346,-1.668618 0.030557,-0.105113 0.065731,-0.162004 0.1363311,-0.220509 0.1561794,-0.129421 0.3804985,-0.229685 0.5138712,-0.229685 0.1656856,0 0.3639509,0.103546 0.4553219,0.237796 0.1088089,0.159871 2.3601746,3.838218 2.4326856,3.974593 0.12168,0.228847 0.05584,0.547277 -0.143642,0.694764 -0.04118,0.03045 -0.9642871,0.531564 -2.0513498,1.113598 -1.8186848,0.973758 -1.987645,1.058945 -2.1163618,1.067042 -0.1043642,0.0066 -0.1637561,-0.0042 -0.2338951,-0.04229 z"
     id="path3" />
  <path
     style="fill:#000000;stroke-width:0.0254335"
     d="M 9.8554913,19.092793 V 18.20755 l -0.2310887,-0.0443 c -0.454775,-0.08718 -0.972076,-0.29478 -1.3008161,-0.522038 -0.391773,-0.270832 -0.683303,-0.612655 -1.07291,-1.258 -0.2227176,-0.368909 -0.2259069,-0.376483 -0.1780346,-0.422789 0.08534,-0.08255 1.1386802,-0.941927 1.1545187,-0.941927 0.00836,0 0.117777,0.168091 0.2431515,0.373535 0.3697886,0.605952 0.5097869,0.746941 0.9089085,0.91534 0.3092251,0.13047 0.569258,0.185512 0.9595074,0.203101 0.556611,0.02509 1.000073,-0.05634 1.420422,-0.260813 0.589066,-0.286544 0.843936,-0.808578 0.701187,-1.436197 -0.10552,-0.463935 -0.547365,-0.754025 -1.562071,-1.025567 -0.07694,-0.02059 -0.397399,-0.106147 -0.712139,-0.190131 C 8.993031,13.279406 8.4777837,13.050987 8.031542,12.642597 7.4114981,12.075147 7.1050309,11.208483 7.2088346,10.316048 7.3016661,9.5179444 7.6706537,8.8767477 8.316763,8.39078 8.6515572,8.1389663 9.1033358,7.9508717 9.6154126,7.8500971 l 0.227362,-0.044744 0.00668,-0.8951622 0.00668,-0.8951621 h 0.7372464 0.737247 v 0.9133714 0.9133714 l 0.108092,0.017901 c 0.345524,0.057222 0.854936,0.2778059 1.184528,0.5129189 0.390383,0.2784783 0.614602,0.543006 0.933564,1.1013965 0.10787,0.188844 0.217943,0.3795288 0.244605,0.4237439 l 0.04848,0.080392 -0.592003,0.4512501 c -0.325601,0.248187 -0.605176,0.461403 -0.621278,0.473814 -0.02034,0.01567 -0.101881,-0.103399 -0.267052,-0.38996 C 12.076501,10.004779 11.954105,9.8738124 11.625085,9.7166138 11.256514,9.5405185 11.099157,9.5121387 10.491329,9.5121387 c -0.463992,0 -0.5465846,0.00654 -0.7502885,0.059382 C 9.3782564,9.6656341 9.128247,9.7980634 8.946436,9.9924198 8.7366683,10.216662 8.67688,10.375221 8.6911787,10.669364 c 0.013326,0.274142 0.073671,0.413254 0.2601569,0.59974 0.2354219,0.235422 0.6268469,0.393931 1.6290114,0.659676 0.708393,0.187846 1.354789,0.38679 1.619847,0.498549 1.158537,0.488485 1.775529,1.424924 1.775529,2.69481 0,1.213794 -0.611201,2.22821 -1.637596,2.717934 -0.303374,0.144748 -0.566559,0.233847 -0.937549,0.317399 l -0.06994,0.01575 v 0.902406 0.902406 H 10.593064 9.8554913 Z"
     id="path4" />
  <path
     style="fill:#000000;stroke-width:0.0254335"
     d="m 15.654171,23.235196 c -0.11661,-0.03547 -0.21505,-0.09819 -0.3087,-0.196684 -0.287197,-0.302049 -0.29916,-0.776358 -0.02709,-1.073901 0.05188,-0.05674 0.208783,-0.167929 0.348667,-0.247088 1.158564,-0.655616 2.236833,-1.62796 3.003476,-2.708422 0.943646,-1.329922 1.524484,-2.837479 1.755303,-4.555859 0.05416,-0.403227 0.07525,-1.557499 0.0367,-2.009598 C 20.353645,11.166309 20.012736,9.9510352 19.443196,8.8098934 18.300393,6.5201542 16.385917,4.8285058 14.096242,4.0852751 13.62534,3.9324199 12.892002,3.7626679 12.784073,3.7815363 c -0.03719,0.0065 0.09771,0.2407794 0.697992,1.212232 0.781148,1.2641459 0.820905,1.3432358 0.789692,1.570961 -0.02298,0.1676316 -0.07551,0.2480735 -0.249365,0.3818534 -0.298911,0.2300065 -0.59641,0.2273492 -0.812729,-0.00726 -0.03665,-0.039749 -0.568014,-0.8905951 -1.180809,-1.8907685 -1.376606,-2.2468287 -1.329162,-2.1666406 -1.358091,-2.2953943 -0.04728,-0.2104298 0.04763,-0.4399408 0.234431,-0.5668725 0.09929,-0.06747 3.630519,-1.95983481 3.896401,-2.08805851 0.212939,-0.10269176 0.332066,-0.10836895 0.512364,-0.02441747 0.154605,0.07198781 0.229945,0.16762555 0.326683,0.41469615 0.05813,0.14845305 0.06865,0.20609122 0.05535,0.30314304 -0.02011,0.14670586 -0.116752,0.31745589 -0.226614,0.40038099 -0.04515,0.03408 -0.519866,0.2933181 -1.054924,0.5760842 -0.535058,0.2827662 -0.972833,0.5242297 -0.972833,0.5365857 0,0.012356 0.02257,0.022465 0.05016,0.022465 0.08272,0 0.830475,0.1974263 1.118415,0.2952914 2.176776,0.739844 4.043878,2.1768756 5.364965,4.129194 1.610803,2.3804643 2.281402,5.2010321 1.908025,8.0252261 -0.450761,3.409521 -2.369231,6.400311 -5.218108,8.134747 -0.462949,0.28185 -0.614418,0.347706 -0.793842,0.345148 -0.08432,-0.0012 -0.182006,-0.01091 -0.217067,-0.02158 z"
     id="path5" />
</svg>
