<svg width="120" height="52" viewBox="0 0 120 52" fill="none" xmlns="http://www.w3.org/2000/svg">
<g clip-path="url(#clip0_2991_14015)">
<path d="M3.95457 17.0968H6.55187C8.92439 17.0968 9.94833 17.846 9.94833 19.3694C9.94833 20.693 8.89942 21.5921 6.82658 21.5921H3.97955V17.0968H3.95457ZM0.832825 32.0062H7.17622C10.4978 32.0062 13.8443 30.8075 13.8443 26.9865C13.8443 24.7138 12.2459 22.9906 10.0482 22.7409V22.6909C11.8713 22.1415 13.0951 20.8179 13.0951 18.845C13.0951 15.6483 10.3729 14.4246 7.70067 14.4246H0.832825V32.0062ZM3.95457 24.2643H6.95145C9.4988 24.2643 10.6726 24.9136 10.6726 26.7617C10.6726 29.0843 8.42492 29.359 6.82658 29.359H3.95457V24.2643Z" fill="black"/>
<path d="M15.8672 14H18.8391V32.0062H15.8672V14Z" fill="black"/>
<path d="M23.8339 26.0375C23.8339 24.1644 25.1575 22.4662 27.3302 22.4662C29.5279 22.4662 30.8266 24.1894 30.8266 26.0375C30.8266 27.9105 29.503 29.6087 27.3302 29.6087C25.1575 29.6337 23.8339 27.9105 23.8339 26.0375ZM20.862 26.0375C20.862 29.7836 23.734 32.3059 27.3552 32.3059C30.9515 32.3059 33.8484 29.7836 33.8484 26.0375C33.8484 22.2914 30.9764 19.769 27.3552 19.769C23.734 19.794 20.862 22.2914 20.862 26.0375Z" fill="black"/>
<path d="M38.1689 26.0375C38.1689 24.1644 39.4926 22.4662 41.6653 22.4662C43.863 22.4662 45.1617 24.1894 45.1617 26.0375C45.1617 27.9105 43.838 29.6087 41.6653 29.6087C39.4676 29.6337 38.1689 27.9105 38.1689 26.0375ZM35.1721 26.0375C35.1721 29.7836 38.0441 32.3059 41.6653 32.3059C45.2615 32.3059 48.1585 29.7836 48.1585 26.0375C48.1585 22.2914 45.2865 19.769 41.6653 19.769C38.069 19.794 35.1721 22.2914 35.1721 26.0375Z" fill="black"/>
<path d="M49.9816 20.0937H52.8037V21.9667H52.8537C53.3781 20.8429 54.5269 19.794 56.4999 19.794C58.3479 19.794 59.5966 20.5182 60.221 22.0167C61.0951 20.4932 62.3687 19.794 64.1419 19.794C67.3136 19.794 68.4374 22.0666 68.4374 24.9136V32.0312H65.4655V25.2633C65.4655 23.7648 65.016 22.4912 63.2428 22.4912C61.3698 22.4912 60.6705 24.0395 60.6705 25.563V32.0312H57.6986V24.9136C57.6986 23.4402 57.0992 22.4662 55.6507 22.4662C53.6778 22.4662 52.9286 23.9147 52.9286 25.488V32.0062H49.9567V20.0937H49.9816Z" fill="black"/>
<path d="M80.7746 26.0375C80.7746 27.9105 79.4509 29.6087 77.2782 29.6087C75.0805 29.6087 73.7818 27.8855 73.7818 26.0375C73.7818 24.1644 75.1055 22.4662 77.2782 22.4662C79.4509 22.4662 80.7746 24.1894 80.7746 26.0375ZM70.8849 32.0062H73.7069V30.2081H73.7569C74.631 31.6566 76.2043 32.3059 77.8526 32.3059C81.5238 32.3059 83.7465 29.5838 83.7465 26.0375C83.7465 22.5161 81.3739 19.769 77.9775 19.769C75.7298 19.769 74.556 20.8179 73.9317 21.5921H73.8568V14H70.8849V32.0062Z" fill="black"/>
<path d="M88.0919 24.8637C88.3167 23.1405 89.4156 22.0416 91.1637 22.0416C93.0368 22.0416 94.1606 23.1405 94.1856 24.8637H88.0919ZM97.1825 27.0864V26.2622C97.1825 22.1165 94.9098 19.769 91.5883 19.769C87.992 19.769 85.0951 22.2914 85.0951 26.0375C85.0951 29.7836 87.9671 32.3059 91.5883 32.3059C93.4863 32.3059 95.2345 31.6316 96.633 29.9084L94.4853 28.2851C93.7361 29.2092 92.7621 29.9084 91.2886 29.9084C89.6154 29.9084 88.2917 28.8346 88.0919 27.0864H97.1825Z" fill="black"/>
<path d="M99.1307 20.0937H102.103V21.9917H102.153C102.802 20.6181 104.125 19.794 105.674 19.794C106.048 19.794 106.398 19.8689 106.748 19.9688V22.8408C106.248 22.7159 105.774 22.616 105.299 22.616C102.502 22.616 102.103 24.9886 102.103 25.6129V32.0062H99.1307V20.0937Z" fill="black"/>
<path d="M113.441 22.4662C115.613 22.4662 116.962 23.9147 116.962 25.9625C116.962 27.9605 115.613 29.4589 113.416 29.4589C111.393 29.4589 109.919 27.8855 109.919 26.0125C109.919 23.9147 111.343 22.4662 113.441 22.4662ZM116.962 20.0937V21.8918H116.912C116.038 20.4433 114.464 19.794 112.816 19.794C109.145 19.794 106.922 22.5411 106.922 26.0624C106.922 29.4339 109.295 32.1811 112.866 32.1811C114.365 32.1811 115.888 31.6067 116.762 30.4329H116.812V31.307C116.812 33.6795 115.913 35.3028 113.041 35.3028C111.368 35.3028 110.144 34.6785 108.945 33.5796L107.147 36.0271C108.845 37.5255 110.843 38 113.066 38C117.711 38 119.809 35.2778 119.809 30.9573V20.0937H116.962Z" fill="black"/>
</g>
<defs>
<clipPath id="clip0_2991_14015">
<rect width="118.976" height="52" fill="white" transform="translate(0.832825)"/>
</clipPath>
</defs>
</svg>
