<svg width="159" height="52" viewBox="0 0 159 52" fill="none" xmlns="http://www.w3.org/2000/svg">
<path fill-rule="evenodd" clip-rule="evenodd" d="M7.96417 12.9199H4.00317V18.873H7.96417V12.9199ZM7.96417 32.9668L4.00371 32.9668V28.8661H2.06274V32.9668L4.00317 32.9668V38.9199H7.96417V32.9668ZM2.06274 18.873H4.00371V22.9737H2.06274V18.873ZM0.0090332 22.9737H2.06235V28.8661H0.0090332V22.9737ZM13.9053 12.9199H17.8663V18.873H13.9053V12.9199ZM17.8659 32.9668H13.9053V38.9199H17.8663V32.9668H19.8069V28.8661L21.8596 28.8661V26.9466H23.7805V24.8933H21.8596V22.9737L19.8069 22.9737V18.873H17.8659V22.9737L19.8063 22.9737V28.8661L17.8659 28.8661V32.9668ZM7.96454 35.0178H13.9045V38.9199H7.96454V35.0178ZM13.9045 12.9199H7.96454V16.8221H10.073V27.0794H11.8713L11.8713 16.8221H13.9045V12.9199ZM30.7785 20.1443V24.7345H37.4485V20.1205H39.4983V31.3983H37.4485V26.7843H30.7785V31.4221H28.7287V20.1443H30.7785ZM57.1917 22.4289V29.09H65.9227V31.3983H57.1917H54.9094H54.9083V20.1205H57.1917L65.9227 20.1205V22.4289H57.1917ZM109.753 31.3983V22.4289H116.198V31.3983H118.482V22.4289H118.482V20.1205L118.482 20.1205H116.198H109.753H107.47L107.469 20.1205V22.4289H107.47V31.3983H109.753ZM149.241 31.3983V22.4289H155.687V31.3983H157.97V20.1205L157.97 20.1205L149.241 20.1205H146.957L146.956 20.1205V22.4289H146.957V31.3983H149.241ZM122.957 29.09V22.4289H129.405V29.09H122.957ZM120.674 29.09V22.4289H120.673V20.1205L120.674 20.1205H122.957L131.686 20.1205L131.688 20.1205V31.3983L131.687 31.3983L129.405 31.3983L122.957 31.3983H120.674H120.674V29.09H120.674ZM136.162 22.4289V29.09H142.609V22.4289H136.162ZM144.891 31.3983L144.892 31.3983V20.1205L144.891 20.1205L136.162 20.1205H133.879L133.878 20.1205V22.4289H133.879V29.09H133.878V31.3983L133.879 31.3983H136.162L142.609 31.3983L144.891 31.3983ZM44.0764 31.3983V26.7843H50.55V31.3983H52.8334V20.1205L52.038 20.1205L50.55 20.1205L42.2963 20.1205L41.793 20.1205V31.3983H44.0764ZM44.0764 22.4289H50.55V24.7345H44.0764V22.4289ZM70.2844 24.6347V20.1205H68.001V31.3983H70.2844V26.943H74.6534V29.09H76.929L76.929 31.3983H79.2047V29.09L76.929 29.09V26.7816H74.655V24.7372H76.929V22.4289H79.2047V20.1205H76.929L76.929 22.4289H74.6534V24.6347H70.2844ZM81.2598 20.1205H83.5431L92.2742 20.1205V22.4289H83.5431V24.6347H87.9138V26.943H83.5431V29.09H92.2742V31.3983H83.5431H81.261H81.2598V20.1205ZM96.6125 22.4289V24.6347H103.059V22.4289H96.6125ZM96.6125 26.943V31.3983H94.3292V20.1205L94.3302 20.1205H105.343V22.4289H105.342V26.943H104.327H103.111V29.09H105.386V31.3983H103.111V29.09H100.835V26.943H96.6125Z" fill="black"/>
</svg>
