<svg width="118" height="52" viewBox="0 0 118 52" fill="none" xmlns="http://www.w3.org/2000/svg">
<path fill-rule="evenodd" clip-rule="evenodd" d="M10.5348 45H12.9334V29.9578H10.5348V45ZM20.1269 44.7755H22.5751V35.2812L32.9157 45V30.1835H30.4699V39.5153L20.1269 29.9578V44.7755ZM39.4344 41.1321C40.8197 42.2007 42.479 42.8179 44.2593 42.8179C45.9911 42.8179 47.2037 42.2237 47.2037 40.919C47.2037 39.7802 46.4368 39.3299 45.0757 38.8313L42.874 38.0713C40.845 37.3608 39.3112 36.3164 39.3112 33.9201C39.3112 31.358 41.6373 29.9589 44.4331 29.9589C46.1397 29.9589 47.6988 30.385 48.9114 31.145V33.6829C47.6493 32.7582 46.2629 32.1168 44.4826 32.1168C42.9477 32.1168 41.81 32.6868 41.81 33.8729C41.81 34.9404 42.5274 35.3676 43.7906 35.7948L46.2387 36.6481C48.6143 37.4795 49.7025 38.7599 49.7025 40.8718C49.7025 43.5295 47.3534 45 44.2593 45C42.2303 45 40.4984 44.4311 39.4344 43.7184V41.1321ZM55.2988 45H57.6963V29.9578H55.2988V45ZM71.2393 42.7223C74.3311 42.7223 75.9858 40.6887 75.9858 37.4795C75.9858 34.2448 74.3311 32.2124 71.2393 32.2124H68.1831V42.7223H71.2393ZM65.6889 29.9589H71.336C75.6749 29.9589 78.4788 32.8987 78.4788 37.4783C78.4788 42.0602 75.6749 45 71.336 45H65.6901V29.9578L65.6889 29.9589ZM92.867 29.9589V32.2124H86.4819V35.8316H92.206V38.061H86.483V42.7223H92.867V45H84.0752V29.9578L92.867 29.9589ZM101.708 36.769H104.454C106.077 36.769 106.995 35.8627 106.995 34.4659C106.995 33.0703 106.077 32.1629 104.454 32.1629H101.708V36.769ZM101.708 38.8993V45H99.2625V29.9578H104.502C107.489 29.9578 109.417 31.5261 109.417 34.4659C109.417 36.9889 108.341 38.4352 106.06 38.8025L111.253 45H108.477L103.448 38.8993H101.708ZM107.255 10.9612C107.255 13.3575 108.79 14.4019 110.818 15.1147L113.021 15.8736C114.381 16.371 115.148 16.8224 115.148 17.9613C115.148 19.2659 113.936 19.859 112.204 19.859C110.423 19.859 108.765 19.2418 107.38 18.1743V20.7606C108.444 21.4722 110.174 22.0422 112.204 22.0422C115.296 22.0422 117.646 20.5706 117.646 17.9129C117.646 15.8022 116.558 14.5205 114.183 13.6903L111.733 12.837C110.471 12.4087 109.754 11.9826 109.754 10.914C109.754 9.72794 110.893 9.15909 112.425 9.15909C114.208 9.15909 115.593 9.79933 116.855 10.7252V8.18606C115.643 7.42606 114.085 7 112.377 7C109.581 7 107.255 8.40024 107.255 10.9612ZM76.0814 7V22.0422H84.8743V19.7657H78.4903V15.0998H84.2157V12.8727H78.4903V9.25236H84.8743V7H76.0814ZM41.9205 13.8101H44.85C46.5807 13.8101 47.5595 12.9038 47.5595 11.507C47.5595 10.1114 46.5807 9.204 44.85 9.204H41.9205V13.8101ZM41.9205 15.9415V22.0422H39.3112V7H44.8995C48.0869 7 50.1435 8.56836 50.1435 11.507C50.1435 14.0312 48.9966 15.4763 46.5623 15.8436L52.1011 22.0422H49.1405L43.7768 15.9415H41.9205ZM60.2515 13.5406L66.2958 7H69.4648L62.6593 14.2027L69.6859 22.0422H66.4432L60.2515 15.1585V22.0422H57.6963V7H60.2515V13.5406ZM90.4684 7H103.259V9.25467H98.1628V22.0411H95.565V9.25582H90.4684V7ZM24.4014 17.9555L26.9105 12.1945L29.4185 17.9555H24.4014ZM31.1988 22.0422H33.716L26.922 7L20.1281 22.0422H22.6223L23.4594 20.1192H30.3605L31.1988 22.0422ZM12.8574 13.4934V22.0411H15.3309V7L7.7378 15.0168L0.143555 7V22.0422H2.61701V13.4922L7.7378 18.8963L12.8563 13.4945L12.8574 13.4934Z" fill="#111111"/>
</svg>
