<svg width="148" height="52" viewBox="0 0 148 52" fill="none" xmlns="http://www.w3.org/2000/svg">
<g clip-path="url(#clip0_2991_14026)">
<path d="M36.349 23.7956L36.0965 25.0371H36.0333C35.7177 24.3427 34.8339 23.3748 32.877 23.3748C29.7207 23.3748 26.5013 25.8156 25.7859 29.6663C25.1756 33.0331 26.7959 36 30.5414 36C31.9091 36 33.4873 35.474 34.3079 34.3166H34.371L34.1396 35.5792H37.6325L39.8209 23.7956H36.349ZM35.2127 29.6663C34.9812 30.8237 33.8871 32.6964 31.6987 32.6964C29.5524 32.6964 29.1105 30.8026 29.2999 29.7084C29.5524 28.3617 30.7518 26.6784 32.7929 26.6784C34.7919 26.6994 35.4652 28.2776 35.2127 29.6663Z" fill="#1A1818"/>
<path d="M41.7989 23.7956H45.0814L44.85 25.0371H44.9131C45.334 24.4689 46.1546 23.3748 48.1746 23.3748L47.5223 26.9519C45.86 26.973 44.6606 27.3096 44.345 29.1192L43.1456 35.5792H39.6105L41.7989 23.7956Z" fill="#1A1818"/>
<path d="M50.5524 19.1874H54.0875L52.4251 28.0671H52.4883L56.5704 23.7956H60.7157L55.3289 28.9719L58.4221 35.5792H54.4241L52.1516 29.8978H52.0885L51.0574 35.5792H47.5013L50.5524 19.1874Z" fill="#1A1818"/>
<path d="M66.376 23.3748C62.7989 23.3748 59.6215 26.4469 59.0324 29.7295C58.38 33.2225 60.7368 35.979 64.1245 35.979C65.3239 35.979 66.5654 35.6212 67.6596 34.9058C68.7748 34.2325 69.8059 33.2225 70.6055 31.8968H67.0073C66.4181 32.507 65.7448 32.991 64.6506 32.991C63.2828 32.991 62.2518 32.1703 62.3149 30.7605H71.1526C71.2578 30.487 71.3209 30.2766 71.4051 29.8347C72.0784 26.2365 69.9742 23.3748 66.376 23.3748ZM62.7989 28.3828C63.0724 27.6884 64.0404 26.3627 65.871 26.3627C67.7017 26.3627 68.1436 27.6884 68.1436 28.3828H62.7989Z" fill="#1A1818"/>
<path d="M21.1145 19.1874L14.8861 28.5301H14.844V19.1874H11.835L0.808899 35.5792H5.08044L11.2668 26.2365H11.3299V35.5792H14.36L20.5464 26.2365H20.6095V35.5792H24.1446V19.1874H21.1145Z" fill="#1A1818"/>
<path d="M80.348 23.7956H78.1175L78.7698 20.3026H75.6766L75.4241 21.6493C75.1506 23.1854 74.1827 23.6483 72.8991 23.7956H72.878L72.352 26.4679H74.0985L72.4151 35.5792H75.9291L77.6125 26.4679H79.864L80.348 23.7956Z" fill="#1A1818"/>
<path d="M134.889 31.1182C133.732 33.7906 130.975 35.979 127.798 35.979C124.221 35.979 122.011 33.1593 122.643 29.6453C123.295 26.1944 126.493 23.3747 130.028 23.3747C133.143 23.3747 135.289 25.4579 135.352 28.3407H131.775C131.543 27.52 131.017 26.6784 129.523 26.6784C127.861 26.5942 126.493 27.9619 126.178 29.6663C125.862 31.3918 126.746 32.6753 128.429 32.6753C129.881 32.6753 130.765 31.8337 131.27 31.0972H134.889V31.1182ZM105.683 15L98.8229 19.1874H100.759L94.5514 28.5301H94.4883V19.1874H91.4582L85.2508 28.5301H85.1877V19.1874H81.6526V35.5792H84.7247L90.9321 26.2365H90.9953V35.5792H94.0253L105.009 19.1874H106.756L105.683 15ZM112.374 35.5792H108.881L109.113 34.3166H109.049C108.229 35.4739 106.651 36 105.283 36C101.537 36 99.9171 33.0541 100.527 29.6663C101.222 25.8156 104.462 23.3747 107.619 23.3747C109.554 23.3747 110.459 24.3216 110.775 25.0371H110.838L111.09 23.7956H114.583L112.374 35.5792ZM106.44 32.7174C108.629 32.7174 109.723 30.8236 109.954 29.6874C110.207 28.2776 109.533 26.6994 107.534 26.6994C105.514 26.6994 104.294 28.3828 104.041 29.7295C103.852 30.8236 104.294 32.7174 106.44 32.7174ZM123.379 23.7956H121.17L121.822 20.3026H118.729L118.476 21.6493C118.203 23.1854 117.235 23.6483 115.951 23.7956H115.909L115.404 26.4679H117.151L115.467 35.5792H118.981L120.665 26.4679H122.916L123.379 23.7956ZM138.214 19.1874H141.728L140.655 25.0371H140.718C141.475 23.9429 142.485 23.3747 144.042 23.3747C145.158 23.3747 146.441 23.7956 147.03 24.7004C147.788 25.8577 147.704 26.8888 147.304 28.993L146.104 35.5792H142.59L143.769 29.1613C143.874 28.5932 144.211 26.6784 142.338 26.6784C140.36 26.6784 140.023 28.4459 139.918 29.0351L138.719 35.5581H135.205L138.214 19.1874Z" fill="#00AC4E"/>
</g>
<defs>
<clipPath id="clip0_2991_14026">
<rect width="146.769" height="52" fill="white" transform="translate(0.808899)"/>
</clipPath>
</defs>
</svg>
