<svg width="127" height="52" viewBox="0 0 127 52" fill="none" xmlns="http://www.w3.org/2000/svg">
<path d="M70.2082 12.791H67.7992V39.269H70.2082V12.791Z" fill="#FF0000"/>
<path d="M100.974 12.791H108.659V14.998H106.045V39.269H103.626V14.998H100.974V12.791Z" fill="#FF0000"/>
<path d="M65.598 12.791V39.269H63.075L59.468 23.189V39.269H57.101V12.791H59.278L63.231 30.332V12.791H65.598Z" fill="#FF0000"/>
<path d="M13.2175 12.791V39.269H10.8505V16.573L7.92954 39.269H5.95855L3.08455 16.573V39.269H0.702545V12.791H4.73254L7.04054 28.754L9.21655 12.791H13.2175Z" fill="#FF0000"/>
<path d="M42.5552 39.277C44.2333 36.9941 45.2457 34.2906 45.4798 31.467C45.7139 28.6433 45.1606 25.8101 43.8813 23.282C42.602 20.7539 40.6469 18.6299 38.2332 17.1462C35.8194 15.6624 33.0415 14.8768 30.2082 14.8768C27.3749 14.8768 24.597 15.6624 22.1832 17.1462C19.7695 18.6299 17.8144 20.7539 16.5351 23.282C15.2558 25.8101 14.7025 28.6433 14.9366 31.467C15.1707 34.2906 16.1831 36.9941 17.8612 39.277H21.0482C19.2567 37.4679 18.0405 35.1692 17.553 32.6703C17.0654 30.1714 17.3282 27.5841 18.3082 25.2342C19.2883 22.8844 20.9417 20.8771 23.0604 19.4652C25.1791 18.0533 27.6682 17.2999 30.2142 17.2999C32.7602 17.2999 35.2493 18.0533 37.368 19.4652C39.4866 20.8771 41.1401 22.8844 42.1202 25.2342C43.1002 27.5841 43.363 30.1714 42.8754 32.6703C42.3879 35.1692 41.1717 37.4679 39.3802 39.277H42.5552Z" fill="#FF0000"/>
<path d="M117.379 39.269H115.024L114.401 33.305H110.877L110.307 39.269H107.907L110.616 12.793H114.29L117.379 39.269ZM114.179 30.914L112.579 16.314L111.101 30.914H114.181H114.179Z" fill="#FF0000"/>
<path d="M88.6069 35.906C88.6473 36.1266 88.6387 36.3534 88.5817 36.5702C88.5247 36.7871 88.4207 36.9889 88.2771 37.1611C88.1335 37.3334 87.9538 37.4719 87.7507 37.5671C87.5477 37.6622 87.3262 37.7115 87.1019 37.7115C86.8776 37.7115 86.6561 37.6622 86.453 37.5671C86.25 37.4719 86.0703 37.3334 85.9267 37.1611C85.7831 36.9889 85.6791 36.7871 85.6221 36.5702C85.5651 36.3534 85.5565 36.1266 85.5969 35.906V15.906C85.5565 15.6854 85.5651 15.4586 85.6221 15.2417C85.6791 15.0249 85.7831 14.8231 85.9267 14.6509C86.0703 14.4786 86.25 14.34 86.453 14.2449C86.6561 14.1498 86.8776 14.1005 87.1019 14.1005C87.3262 14.1005 87.5477 14.1498 87.7507 14.2449C87.9538 14.34 88.1335 14.4786 88.2771 14.6509C88.4207 14.8231 88.5247 15.0249 88.5817 15.2417C88.6387 15.4586 88.6473 15.6854 88.6069 15.906L88.6009 16.862V21.854H91.0229V18.007V16.894C91.0059 13.594 89.7149 12.02 87.0229 12.02C84.6229 12.02 83.0629 13.72 83.0629 16.334V17.306V33.88V34.953C83.0629 38.346 84.3789 40 87.0799 40C89.7809 40 91.0269 38.376 91.0269 34.883V25.25H86.5719V27.569H88.5969V35.028L88.6069 35.906Z" fill="#FF0000"/>
<path d="M98.5301 35.272V28.388L93.0131 24.264V16.57C93.0131 13.546 94.3741 12 97.0381 12C99.7451 12 100.976 13.534 100.991 16.934L100.998 17.989V21.893H98.5301V16.657L98.5251 15.907C98.567 15.6876 98.56 15.4617 98.5046 15.2453C98.4491 15.0289 98.3465 14.8275 98.2042 14.6554C98.0618 14.4832 97.8833 14.3446 97.6812 14.2495C97.4791 14.1544 97.2585 14.1051 97.0351 14.1051C96.8117 14.1051 96.5911 14.1544 96.389 14.2495C96.1869 14.3446 96.0083 14.4832 95.866 14.6554C95.7237 14.8275 95.6211 15.0289 95.5656 15.2453C95.5102 15.4617 95.5031 15.6876 95.5451 15.907V23.113L100.997 27.232V35.193C100.997 38.305 99.6111 39.972 97.0221 39.972C94.3991 39.972 93.0351 38.401 93.0221 35.365V34.318V29.136H95.5461V35.907C95.5041 36.1264 95.5112 36.3523 95.5666 36.5687C95.6221 36.7851 95.7247 36.9865 95.867 37.1586C96.0093 37.3308 96.1879 37.4694 96.39 37.5645C96.5921 37.6596 96.8127 37.7089 97.0361 37.7089C97.2595 37.7089 97.4801 37.6596 97.6822 37.5645C97.8843 37.4694 98.0628 37.3308 98.2052 37.1586C98.3475 36.9865 98.4501 36.7851 98.5056 36.5687C98.561 36.3523 98.568 36.1264 98.5261 35.907L98.5301 35.272Z" fill="#FF0000"/>
<path d="M55.6375 39.269H53.2235C52.8894 38.3578 52.7233 37.3935 52.7335 36.423L52.7135 35.069L52.7065 34.381V29.212C52.7324 29.0118 52.7147 28.8083 52.6545 28.6155C52.5944 28.4228 52.4932 28.2453 52.3581 28.0953C52.2229 27.9453 52.0569 27.8264 51.8714 27.7466C51.6859 27.6668 51.4854 27.628 51.2835 27.633H49.5605V39.269H47.1975V12.793H50.2815C53.7455 12.793 55.0815 14.06 55.0815 17.447V22.42C55.0815 24.648 54.7095 25.582 52.9655 26.225C52.9905 26.232 53.0145 26.243 53.0385 26.25C54.6855 26.73 55.0545 27.35 55.0735 29.444L55.0815 30.406V35.238C55.0248 36.6041 55.2131 37.9693 55.6375 39.269ZM49.5605 14.876V25.362H50.4065C50.715 25.4161 51.0318 25.3962 51.3311 25.304C51.6303 25.2119 51.9034 25.05 52.1279 24.8317C52.3524 24.6135 52.5219 24.345 52.6225 24.0485C52.7231 23.752 52.7519 23.4358 52.7065 23.126V17.726C52.7065 15.552 52.2065 14.872 50.5945 14.872H49.5605V14.876Z" fill="#FF0000"/>
<path d="M126.447 39.269H124.031C123.697 38.3578 123.531 37.3935 123.542 36.423L123.522 35.069L123.513 34.382V29.212C123.539 29.0118 123.521 28.8084 123.461 28.6158C123.401 28.4231 123.3 28.2457 123.165 28.0957C123.03 27.9457 122.864 27.8267 122.679 27.7469C122.493 27.667 122.293 27.6282 122.091 27.633H120.37V39.269H118.006V12.793H121.091C124.555 12.793 125.891 14.06 125.891 17.447V22.42C125.891 24.648 125.518 25.582 123.778 26.225C123.801 26.232 123.825 26.243 123.851 26.25C125.497 26.73 125.867 27.35 125.886 29.444L125.892 30.406V35.238C125.835 36.604 126.023 37.9693 126.447 39.269ZM120.37 14.876V25.362H121.219C121.527 25.415 121.843 25.3943 122.142 25.3017C122.44 25.209 122.713 25.047 122.936 24.8288C123.16 24.6107 123.329 24.3427 123.429 24.0467C123.53 23.7507 123.558 23.4352 123.513 23.126V17.726C123.513 15.552 123.013 14.872 121.401 14.872H120.37V14.876Z" fill="#FF0000"/>
<path d="M80.8695 12.791V39.269H78.3475L74.7405 23.189V39.269H72.3735V12.791H74.5505L78.5025 30.332V12.791H80.8695Z" fill="#FF0000"/>
</svg>
