<svg width="163" height="52" viewBox="0 0 163 52" fill="none" xmlns="http://www.w3.org/2000/svg">
<path d="M0.970224 32.1369C0.881172 32.9042 0.714954 33.6604 0.474094 34.3943C1.34232 35.337 3.37645 35.8579 4.61678 35.8579C8.08969 35.8579 10.9052 33.6997 10.9052 30.0532C10.9052 24.633 2.89273 26.5183 2.89273 21.8298C2.89273 20.0314 4.34391 18.8531 6.09276 18.8531C7.59356 18.8531 8.72225 19.6965 9.25559 21.0732H9.50366C9.71451 20.3538 9.88816 19.6469 10.1982 18.9895C9.16157 18.1703 7.87271 17.7363 6.55168 17.7616C3.50049 17.7616 0.908208 19.374 0.908208 22.6484C0.908208 28.4035 8.87109 26.3074 8.87109 31.0454C8.87109 33.0548 7.3951 34.7664 5.33617 34.7664C3.35165 34.7664 2.21055 33.7493 1.21829 32.1121H0.970224V32.1369ZM15.0231 28.0687C15.1719 25.9229 16.2138 23.6407 18.62 23.6407C21.1255 23.6407 21.7457 25.8485 21.7953 28.0687H15.0231ZM23.1968 32.5338C22.2102 33.5798 20.8616 34.2098 19.4263 34.2951C16.3502 34.2951 14.7998 31.8516 15.0231 28.9989H18.62C20.3193 28.9989 22.0433 29.0237 23.7798 29.0857C24.0279 24.8314 21.4356 22.8469 18.6076 22.8469C14.8246 22.8469 12.7781 25.5756 12.7781 29.1105C12.7781 33.0548 15.2836 35.3618 18.7937 35.3618C20.3441 35.3618 21.9193 34.754 23.1596 33.8734L23.1968 32.5338ZM28.0589 28.0687C28.2077 25.9229 29.2496 23.6407 31.6558 23.6407C34.1613 23.6407 34.7815 25.8485 34.8311 28.0687H28.0589ZM36.2202 32.5338C35.2375 33.578 33.8933 34.2079 32.4621 34.2951C29.3861 34.2951 27.8232 31.8516 28.0589 28.9989H31.6558C33.3551 28.9989 35.0791 29.0237 36.8156 29.0857C37.0637 24.8314 34.459 22.8469 31.6434 22.8469C27.8605 22.8469 25.8139 25.5756 25.8139 29.1105C25.8139 33.0548 28.3194 35.3618 31.8295 35.3618C33.3799 35.3618 34.9551 34.754 36.2078 33.8734L36.2202 32.5338ZM40.8963 16.3228C40.5118 16.36 40.2017 16.4096 39.8668 16.4096C39.5195 16.4096 39.1846 16.36 38.8497 16.3228V35.4362C39.1846 35.4114 39.5195 35.3618 39.8668 35.3618C40.2017 35.3618 40.5118 35.4114 40.8963 35.4362V30.2516C40.8963 29.1477 41.2436 29.0733 41.8017 29.7183C43.4389 31.5788 45.4483 33.8362 46.6638 35.4362C47.0731 35.4114 47.4824 35.3618 47.9413 35.3618C48.3506 35.3618 48.6979 35.4114 49.1816 35.4362V35.3121C47.1723 33.0175 45.039 30.4749 43.2033 28.3663C45.5599 26.1462 47.7925 24.3725 48.8095 23.4547V23.281C48.425 23.2934 48.115 23.3554 47.8173 23.3554C47.4452 23.3554 47.1227 23.2934 46.8002 23.281L44.8157 25.464L43.2281 27.0764C42.9056 27.3989 41.5536 28.8501 41.0203 28.5648C40.7846 28.4408 40.8963 28.0687 40.8963 27.7338V16.3228ZM53.7584 19.0763C53.7584 18.3569 53.1383 17.774 52.4685 17.774C52.1231 17.774 51.7918 17.9112 51.5476 18.1554C51.3034 18.3997 51.1662 18.7309 51.1662 19.0763C51.1662 19.4217 51.3034 19.753 51.5476 19.9972C51.7918 20.2414 52.1231 20.3787 52.4685 20.3787C53.1507 20.3787 53.7584 19.7833 53.7584 19.0763ZM53.4856 23.4174C53.1011 23.4547 52.791 23.5043 52.4685 23.5043C52.0964 23.5043 51.7739 23.4547 51.439 23.4298V35.585C51.7739 35.5602 52.1088 35.5106 52.4685 35.5106C52.791 35.5106 53.0887 35.5602 53.4856 35.585V23.4298V23.4174ZM55.5073 35.1633C55.8422 35.1385 56.1771 35.0889 56.5244 35.0889C56.8592 35.0889 57.1693 35.1385 57.5414 35.1633V29.2594C57.5414 26.1214 58.2112 24.174 60.8903 24.174C63.2717 24.174 63.7058 26.0345 63.7058 28.3911V35.1633C64.0283 35.1385 64.3632 35.0889 64.7229 35.0889C65.0454 35.0889 65.3555 35.1385 65.74 35.1633V27.7958C65.74 24.4469 64.5989 22.8345 61.6469 22.8345C59.836 22.8345 58.4345 23.7523 57.5538 25.3027V22.9833C57.1693 23.0081 56.8592 23.0578 56.5244 23.0578C56.1771 23.0578 55.8422 23.0081 55.5073 22.9833V35.1385V35.1633ZM69.4113 26.8779C69.4113 24.943 70.4532 23.5291 72.2889 23.5291C74.2982 23.5291 75.0176 25.0423 75.0176 27.002C75.0176 28.7384 74.0377 30.3385 72.1896 30.3385C70.3292 30.3385 69.3369 28.6764 69.4113 26.8655V26.8779ZM77.9696 22.9337C77.3742 23.0329 76.7664 23.0578 76.1463 22.9833L72.6114 22.8593C68.9028 22.7353 67.4764 24.4345 67.4764 26.9028C67.4764 28.7756 68.4191 29.8299 69.9447 30.5369C68.9524 30.971 68.1958 31.5044 68.1958 32.7323C68.1958 34.2827 69.002 34.6548 69.7462 34.7912V34.9897C68.1586 35.2749 67.0919 36.23 67.0919 38.0657C67.0919 40.7448 69.6098 41.8114 71.7059 41.8114C75.5881 41.8114 78.1556 39.7773 78.1556 36.8005C78.1556 34.63 76.7664 33.4145 73.7649 33.4145H72.1276C70.602 33.4145 69.6842 33.2656 69.6842 32.1865C69.6842 30.7105 71.2222 30.971 71.5199 30.971C74.4718 30.971 76.9401 29.7927 76.9401 27.0268C76.9401 25.6004 76.2331 24.4841 75.1912 23.6779L77.982 23.9012V22.9337H77.9696ZM72.5866 34.9649C74.4967 34.9649 76.3323 35.1385 76.3323 37.7928C76.3323 40.1866 74.137 41.0424 72.3137 41.0424C70.2051 41.0424 68.6547 40.0254 68.6547 37.9664C68.6547 35.9075 69.9447 34.9401 72.5866 34.9649ZM96.3512 27.6221H90.7697L93.5356 21.1104L96.3636 27.6221H96.3512ZM94.4535 17.774H93.8705L85.9324 35.5602C86.2053 35.5354 86.4906 35.4858 86.8131 35.4858C87.1232 35.4858 87.396 35.5354 87.7557 35.5602C88.4751 33.1664 89.393 30.9338 90.2736 28.6888H96.7357C97.7162 30.9442 98.6099 33.2364 99.4148 35.5602C99.8489 35.5354 100.283 35.4858 100.767 35.4858C101.188 35.4858 101.598 35.5354 102.081 35.5602L94.4535 17.774ZM104.041 35.4362C104.364 35.4114 104.686 35.3618 105.046 35.3618C105.381 35.3618 105.678 35.4114 106.063 35.4362V16.3352C105.691 16.36 105.381 16.4096 105.046 16.4096C104.686 16.4096 104.364 16.36 104.029 16.3228V35.4362H104.041ZM110.404 32.9183H110.454C111.297 34.5059 112.55 35.3618 114.373 35.3618C117.635 35.3618 119.868 32.8439 119.868 28.664C119.868 25.6252 118.044 22.8345 114.758 22.8345C111.682 22.8345 110.888 24.695 110.454 25.5632H110.404V22.9957C110.032 23.0205 109.722 23.0702 109.387 23.0702C109.04 23.0702 108.705 23.0205 108.37 22.9957V41.6874C108.705 41.6626 109.04 41.613 109.387 41.613C109.722 41.613 110.032 41.6626 110.404 41.6874V32.9307V32.9183ZM110.404 29.4082C110.404 27.0516 111.173 23.7027 114.125 23.7027C116.866 23.7027 117.635 26.2826 117.635 28.7756C117.635 31.7276 116.717 34.2951 114.15 34.2951C111.545 34.2951 110.404 32.1369 110.404 29.4082ZM122.138 35.4362C122.46 35.4114 122.795 35.3618 123.155 35.3618C123.477 35.3618 123.787 35.4114 124.172 35.4362V28.5152C124.172 25.8733 125.214 24.4469 127.496 24.4469C129.666 24.4469 130.324 25.8485 130.324 28.664V35.4362C130.659 35.4114 130.981 35.3618 131.341 35.3618C131.676 35.3618 131.986 35.4114 132.358 35.4362V28.0811C132.358 24.881 131.217 23.1198 128.265 23.1198C126.466 23.1198 125.065 24.0376 124.172 25.6004V16.3104C123.787 16.3476 123.477 16.3972 123.155 16.3972C122.795 16.3972 122.46 16.3476 122.138 16.3104V35.4238V35.4362ZM141.028 32.5338C141.028 32.7199 140.519 33.154 140.333 33.3276C139.849 33.8238 138.994 34.2951 138.299 34.2951C136.749 34.2951 135.818 33.5137 135.818 31.9013C135.818 29.5943 138.398 29.3338 140.135 28.9989L141.028 28.8253V32.5462V32.5338ZM143.062 27.126C143.062 24.2485 141.611 22.8469 138.932 22.8469C137.443 22.8469 136.066 23.405 134.838 24.2485V25.6748H135.124C135.297 25.1167 136.29 23.9136 138.15 23.9136C140.06 23.9136 141.127 25.0051 141.127 26.8904C141.127 28.1183 140.432 28.2547 138.423 28.602C136.029 28.9741 133.71 29.3586 133.71 32.261C133.71 34.1462 135.297 35.3618 137.108 35.3618C138.634 35.3618 139.8 34.8284 140.866 33.7617L141.102 33.5385C141.301 35.0269 142.404 35.2377 143.719 35.0145C144.004 34.9649 144.302 34.8284 144.488 34.7664V34.1959C142.987 34.5307 143.062 34.0222 143.062 33.03V27.126Z" fill="#813C3A"/>
<path d="M145.32 17.4022C145.791 9.97269 151.645 9.81145 151.645 9.81145C155.863 9.83625 157.066 14.3386 157.066 14.3386C157.115 14.5867 159.571 10.1215 159.571 10.1215H160.96C158.132 16.2611 158.244 18.779 158.244 18.779C158.008 22.0782 159.869 23.2069 159.869 23.2069C161.605 24.3232 161.717 21.086 161.717 21.086C162.089 20.9371 162.337 20.8131 162.337 20.8131C163.255 25.3031 160.489 24.993 160.489 24.993C158.331 25.2163 157.413 21.7186 157.413 21.7186C154.362 25.7372 150.839 24.869 150.839 24.869C144.824 24.1 145.32 17.4022 145.32 17.4022ZM147.838 17.4022C147.838 20.8751 149.574 23.7279 151.881 23.6659C155.131 23.5666 156.073 20.8503 156.073 17.365C156.073 13.8921 154.201 11.0394 151.881 11.0766C149.028 11.1138 147.838 13.9293 147.838 17.4022Z" fill="#D1732E"/>
</svg>
