<svg width="96" height="52" viewBox="0 0 96 52" fill="none" xmlns="http://www.w3.org/2000/svg">
<path fill-rule="evenodd" clip-rule="evenodd" d="M34.3542 19.0187V29.5874H39.5533V25.5581C39.5533 22.8936 39.5695 21.4314 39.5939 21.2364C39.6508 20.8221 39.797 20.4241 39.9919 20.1235C40.3494 19.5873 40.8612 19.3436 41.5679 19.3843C42.4777 19.433 43.0139 19.9691 43.1682 20.9927C43.1926 21.147 43.2088 22.7474 43.2088 25.4119V29.5874H48.4079V24.7214C48.4079 20.619 48.3998 19.7742 48.351 19.368C48.1804 17.9058 47.6849 16.7766 46.8482 15.9318C46.1252 15.2088 45.2316 14.7782 44.1268 14.632C43.6963 14.5751 42.6158 14.6076 42.234 14.6889C41.2917 14.892 40.5525 15.29 39.8863 15.9561L39.5208 16.3217V8.45004H34.3624V19.0187H34.3542ZM89.6183 8.6125C89.4802 8.93744 84.1918 21.7157 84.1918 21.7319C84.1918 21.7401 85.5728 21.7482 87.2706 21.7401H90.3495L93.0871 15.1194C94.598 11.4801 95.8328 8.49065 95.8328 8.47441C95.8328 8.45816 94.4518 8.45004 92.7621 8.45004H89.6915L89.6183 8.6125ZM22.957 14.6158C21.8116 14.7864 20.9424 15.1032 20.0731 15.6799C18.3266 16.8335 17.1324 18.7912 16.7994 21.0496C16.645 22.0894 16.71 23.4054 16.97 24.4127C17.6117 26.9472 19.3095 28.8806 21.5516 29.628C22.364 29.896 22.6645 29.9448 23.6637 29.9448C24.3867 29.9448 24.6061 29.9367 24.866 29.8798C25.9139 29.6523 26.6857 29.2543 27.3274 28.6125L27.6605 28.2795V29.5955H32.6727V14.9326H27.6605V16.2811L27.4249 16.0374C26.8238 15.4037 26.0033 14.9651 24.9879 14.7214C24.6467 14.6401 24.4842 14.6239 23.8424 14.6158C23.4281 14.6158 23.0382 14.6158 22.9732 14.6158H22.957ZM56.1496 14.6564C54.728 14.8432 53.2901 15.4606 52.234 16.3217C50.1626 18.0033 49.1552 20.7084 49.5614 23.4866C50.0082 26.5492 52.1772 28.9456 55.2072 29.7255C55.8896 29.896 56.4989 29.9692 57.3112 29.9692C58.7328 29.9692 59.8133 29.7255 60.9993 29.1406C63.2332 28.0358 64.7198 25.9562 65.0854 23.4298C65.1748 22.8205 65.1748 21.7401 65.0854 21.1389C64.8986 19.8879 64.4355 18.7181 63.7207 17.7271C63.4363 17.329 62.7215 16.5816 62.3315 16.2811C61.2024 15.4037 59.8782 14.8513 58.4404 14.6645C57.8636 14.5914 56.7263 14.5914 56.1577 14.6645L56.1496 14.6564ZM72.689 14.6564C71.2836 14.8432 69.9595 15.4037 68.8466 16.273C68.4566 16.5735 67.7418 17.3209 67.4575 17.7189C66.7426 18.71 66.2796 19.8798 66.0927 21.1308C66.0034 21.7319 66.0034 22.8124 66.0927 23.4216C66.5639 26.6791 68.9197 29.1649 72.1447 29.8067C72.7621 29.9285 73.1195 29.961 73.8588 29.961C75.2641 29.961 76.4745 29.6848 77.6199 29.0918C80.6663 27.524 82.2341 24.1527 81.5355 20.6596C80.8937 17.4346 78.3267 15.095 74.9554 14.6564C74.403 14.5833 73.2576 14.5833 72.689 14.6564ZM0 14.9488C0 14.9488 1.40536 18.2795 3.1113 22.3168C4.82535 26.3623 6.22259 29.6848 6.22259 29.7092C6.22259 29.7336 5.71894 30.9359 5.10155 32.3818C4.48417 33.8278 3.98863 35.022 3.98863 35.0301C3.98863 35.0382 5.23153 35.0382 6.75062 35.0301H9.51261L13.6637 25.022C15.9464 19.5224 17.8148 14.9976 17.8148 14.9732C17.8148 14.9326 17.2624 14.9245 15.0853 14.9326H12.3477L10.6661 19.2055C9.74006 21.5532 8.97646 23.4622 8.96833 23.446C8.96021 23.4379 8.20472 21.5207 7.28677 19.1812L5.62958 14.9407H2.81073C1.25914 14.9245 0 14.9326 0 14.9407V14.9488ZM25.4996 19.3761C26.5394 19.6117 27.368 20.4322 27.6524 21.4964C27.7661 21.9188 27.7661 22.6174 27.6524 23.0398C27.368 24.104 26.5801 24.892 25.5159 25.1763C25.0935 25.29 24.3948 25.29 23.9724 25.1763C23.0626 24.9407 22.2827 24.2665 21.9497 23.4298C21.5841 22.5118 21.6978 21.3583 22.2259 20.5865C22.957 19.5305 24.1836 19.0756 25.4996 19.3761ZM57.8636 19.3843C58.9928 19.5873 59.8701 20.4241 60.1463 21.5776C60.2357 21.9594 60.2275 22.6499 60.1301 23.0398C59.862 24.0634 59.0984 24.8432 58.0911 25.1194C57.7418 25.2169 56.8888 25.2169 56.5476 25.1194C55.719 24.892 55.061 24.3396 54.7036 23.5678C54.4924 23.1129 54.4274 22.8205 54.4274 22.2681C54.4274 21.7726 54.4761 21.5207 54.6467 21.0983C54.8498 20.5865 55.2397 20.1072 55.7028 19.8067C56.3039 19.4086 57.1244 19.2543 57.8717 19.3843H57.8636ZM74.403 19.3843C75.3697 19.5548 76.174 20.1966 76.5314 21.0983C76.702 21.5207 76.7507 21.7726 76.7507 22.2681C76.7507 22.8124 76.6857 23.1129 76.4745 23.5678C76.1171 24.3315 75.4591 24.892 74.6305 25.1194C74.2893 25.2169 73.4282 25.2088 73.087 25.1194C72.0878 24.8432 71.3161 24.0634 71.048 23.0398C70.9343 22.6174 70.9343 21.9188 71.048 21.4964C71.3973 20.1966 72.494 19.3436 73.8425 19.3274C73.9969 19.3274 74.2487 19.3518 74.4112 19.3761L74.403 19.3843ZM85.4185 23.0073C83.9156 23.1942 82.7215 24.2746 82.3966 25.7449C82.3072 26.1511 82.3153 26.8741 82.4209 27.2884C82.7377 28.5638 83.7207 29.5142 84.9961 29.7823C85.1585 29.8148 85.4672 29.8392 85.7028 29.8392C86.6858 29.8392 87.4656 29.5224 88.1561 28.8237C88.8547 28.1251 89.1715 27.3615 89.1715 26.3542C89.1715 25.1276 88.611 24.104 87.5875 23.4785C86.9863 23.1048 86.1171 22.918 85.4185 23.0073ZM42.5996 30.9602C41.5516 31.3095 41.0967 32.4874 41.641 33.4216C41.7872 33.6653 42.1284 33.9659 42.4127 34.104C42.6564 34.2177 42.6889 34.2259 43.1195 34.2259C43.55 34.2259 43.5825 34.2259 43.8262 34.104C44.1512 33.9497 44.5167 33.6004 44.6629 33.2835C45.061 32.4387 44.6954 31.4639 43.8343 31.0496C43.5744 30.9277 43.5094 30.9115 43.1845 30.9034C42.9001 30.8952 42.7702 30.9034 42.6077 30.9602H42.5996ZM38.2616 31.0415C36.8725 31.3177 35.9546 32.2031 35.6053 33.6085C35.5565 33.8197 35.5159 34.104 35.5078 34.4614L35.4834 34.9976H34.3624V36.2324L34.3786 37.4671H34.931L35.4834 37.4915V43.3323H38.4972V37.4915H39.5208L40.5443 37.4753V36.2405L40.5606 35.0057H38.481L38.5053 34.7295C38.5622 34.1203 38.8059 33.7872 39.2852 33.641C39.6101 33.5435 40.0732 33.5597 40.4225 33.6816C40.5443 33.7222 40.6499 33.7628 40.6581 33.7628C40.6662 33.7628 40.6743 33.1942 40.6743 32.5037V31.2445L40.455 31.1633C40.0894 31.0252 39.7239 30.9765 39.1308 30.9765C38.7572 30.9765 38.4647 31.0008 38.2373 31.0496L38.2616 31.0415ZM50.6012 34.827C49.9676 34.9651 49.4477 35.2738 49.1146 35.7206L48.944 35.948V34.9976H45.8896V43.3242H48.944V41.0577C48.944 39.7498 48.9603 38.6938 48.9846 38.5638C49.0334 38.2632 49.2121 37.8977 49.3827 37.7758C49.8214 37.4428 50.52 37.5159 50.8124 37.9383C51.0399 38.2714 51.0399 38.2226 51.0561 40.8953L51.0724 43.3323H54.1187V40.6028C54.1187 37.7027 54.1024 37.3697 53.9481 36.8254C53.7938 36.2974 53.5907 35.948 53.217 35.5744C52.8595 35.2169 52.5509 35.0301 52.0878 34.9001C51.7223 34.7945 50.9749 34.762 50.6175 34.8433L50.6012 34.827ZM58.3023 34.8026C57.8067 34.8676 57.0756 35.1601 56.6857 35.4444C55.8002 36.0861 55.191 37.0935 54.9717 38.2632C54.8904 38.7263 54.8904 39.6605 54.9717 40.1073C55.1179 40.8628 55.4103 41.537 55.8246 42.0813C56.377 42.8124 57.165 43.3079 58.0423 43.4866C58.5216 43.5841 59.3177 43.5679 59.7239 43.446C60.1869 43.3079 60.5769 43.0886 60.9099 42.7799L61.2105 42.4956V43.3323H64.2243V35.0057H61.2105V35.8668L61.0155 35.6556C60.6175 35.2332 60.057 34.9489 59.4152 34.8351C59.1146 34.7864 58.5622 34.7701 58.2942 34.8026H58.3023ZM70.1301 34.8351C69.5939 34.9489 68.9765 35.3225 68.6597 35.745L68.5298 35.9156V34.9976H66.9944L65.4591 35.0138V39.165L65.4428 43.3161H68.5298V40.9521C68.5298 38.4501 68.5298 38.4013 68.7085 38.0602C68.8709 37.7433 69.1878 37.5565 69.5614 37.5565C69.8864 37.5565 70.0651 37.6215 70.2682 37.8165C70.5931 38.1414 70.585 38.0195 70.5931 40.8384V43.3161H73.6557L73.6394 40.2941C73.6232 37.3047 73.6232 37.2641 73.542 36.9472C73.4932 36.7685 73.3714 36.4517 73.2658 36.2405C73.1114 35.9237 73.0302 35.8018 72.7865 35.5662C72.4696 35.2494 72.2016 35.0707 71.8523 34.9489C71.3324 34.762 70.65 34.7133 70.122 34.827L70.1301 34.8351ZM78.1723 34.8351C76.832 35.0463 75.7353 35.7693 75.0773 36.866C74.8823 37.1991 74.728 37.5809 74.6061 38.0439C74.5086 38.4176 74.5005 38.5069 74.5005 39.1487C74.5005 39.9042 74.533 40.156 74.7117 40.7003C75.1748 42.1219 76.3283 43.1292 77.8718 43.4704C78.1236 43.5273 78.3511 43.5435 78.9116 43.5435C79.7077 43.5435 80.0164 43.4866 80.6094 43.2511L80.91 43.1292V41.732L80.9262 40.3347L80.6744 40.481C80.3088 40.7003 80.0001 40.7815 79.5371 40.8059C79.0578 40.8303 78.7978 40.7815 78.4485 40.6028C78.1317 40.4403 77.8799 40.1804 77.7174 39.8392C77.6037 39.6036 77.5956 39.5549 77.5956 39.1893C77.5956 38.8644 77.6118 38.7507 77.6849 38.5801C77.9368 37.9545 78.5216 37.5809 79.3096 37.5484C79.8701 37.524 80.0976 37.5809 80.9018 37.9789C80.9181 37.9789 80.9262 37.3697 80.9262 36.5979V35.2088L80.6825 35.1113C79.9514 34.8189 78.9847 34.7133 78.1723 34.8433V34.8351ZM85.1098 34.8351C82.7865 35.2413 81.2593 37.2722 81.4867 39.6605C81.568 40.5053 81.7873 41.1633 82.1935 41.7726C82.7702 42.6418 83.6395 43.2023 84.8092 43.4623C85.3129 43.576 86.6045 43.5598 87.1488 43.446C87.9855 43.2592 88.7329 42.8693 89.269 42.3331C89.5209 42.0813 89.927 41.537 89.8945 41.5045C89.8864 41.4964 89.3015 41.2689 88.5948 41.0009L87.3113 40.5053L87.1244 40.7003C86.8888 40.9359 86.702 41.0496 86.4096 41.1227C85.516 41.3583 84.6143 40.8871 84.468 40.1073L84.4356 39.9367H87.3031L90.1707 39.9204V39.2218C90.1707 38.7019 90.1464 38.442 90.0976 38.2064C89.8945 37.2641 89.529 36.5492 88.9278 35.9643C88.3592 35.4038 87.7174 35.0626 86.8563 34.8676C86.4745 34.7864 85.4997 34.762 85.1098 34.8351ZM41.6004 39.165V43.3242H44.6548V34.9976H41.6004V39.1568V39.165ZM86.3364 37.1584C86.5477 37.2153 86.6776 37.2884 86.8726 37.4671C87.0594 37.6377 87.165 37.8246 87.2138 38.052L87.2463 38.2064H85.8572C84.2893 38.2064 84.4112 38.2389 84.5493 37.8814C84.7767 37.2722 85.5403 36.9635 86.3364 37.1584ZM60.0813 37.5727C60.4956 37.6783 60.9505 38.052 61.1293 38.442C61.5598 39.3518 61.1293 40.3997 60.1869 40.7409C59.9026 40.8465 59.3746 40.8546 59.0821 40.7653C58.5785 40.6109 58.1398 40.1723 57.9855 39.6767C57.9205 39.4655 57.9124 39.3437 57.9205 39.0837C57.9367 38.7913 57.953 38.7182 58.0748 38.4745C58.4404 37.7352 59.2527 37.3778 60.0813 37.589V37.5727Z" fill="#7423F5"/>
</svg>
