<?xml version="1.0" encoding="UTF-8" standalone="no"?>
<svg
   width="70"
   height="71"
   viewBox="0 0 70 71"
   fill="none"
   version="1.1"
   id="svg60"
   xmlns="http://www.w3.org/2000/svg"
   xmlnsSvg="http://www.w3.org/2000/svg">
  <defs
     id="defs60" />
  <path
     d="M56.5303 22.544H9.07251C8.66068 22.544 8.30067 22.257 8.19942 21.8461C8.09817 21.4353 8.28259 21.008 8.6454 20.8063L32.3748 7.70943C32.6412 7.563 32.9606 7.563 33.227 7.70943L56.9574 20.8073C57.3202 21.0074 57.5046 21.4364 57.4034 21.8472C57.3025 22.2564 56.9425 22.5447 56.5307 22.5447L56.5303 22.544ZM12.6468 20.6966H52.9549L32.8019 9.57223L12.6468 20.6966Z"
     fill="#613ED2"
     id="path1" />
  <path
     d="M57.1933 61.4123H8.40351C7.9069 61.4123 7.50391 60.9986 7.50391 60.4888V57.5239C7.50391 55.8431 8.83499 54.4766 10.4723 54.4766H55.1251C56.7624 54.4766 58.0935 55.8431 58.0935 57.5239V60.4888C58.0935 60.9986 57.6901 61.4123 57.1935 61.4123H57.1933ZM56.2921 59.5653V57.5239C56.2921 56.8627 55.7685 56.3241 55.1233 56.3241L10.4715 56.3236C9.82744 56.3236 9.30273 56.8611 9.30273 57.5235L9.30233 59.5653H56.2921L56.2921 59.5653Z"
     fill="#613ED2"
     id="path2" />
  <path
     d="M54.4636 56.3288C53.967 56.3288 53.564 55.915 53.564 55.4052V52.4399C53.564 51.7787 53.0405 51.2401 52.3952 51.2401H13.2032C12.5591 51.2401 12.0344 51.7775 12.0344 52.4399V55.4048C12.0344 55.9146 11.6314 56.3283 11.1348 56.3283C10.6382 56.3283 10.2352 55.9146 10.2352 55.4048L10.2344 52.4399C10.2344 50.7591 11.5655 49.3926 13.2028 49.3926H52.3958C54.0331 49.3926 55.3642 50.7591 55.3642 52.4399V55.4048C55.3634 55.915 54.96 56.3287 54.4634 56.3287L54.4636 56.3288Z"
     fill="#613ED2"
     id="path3" />
  <path
     d="M20.7424 26.8151H15.3748C14.1984 26.8151 13.2422 25.8334 13.2422 24.6257V21.6208C13.2422 21.111 13.6452 20.6973 14.1418 20.6973C14.6384 20.6973 15.0414 21.111 15.0414 21.6208V24.6257C15.0414 24.8134 15.1901 24.9676 15.3745 24.9676H20.742C20.9248 24.9676 21.0751 24.815 21.0751 24.6257V21.6208C21.0751 21.111 21.4781 20.6973 21.9747 20.6973C22.4713 20.6973 22.8743 21.111 22.8743 21.6208V24.6257C22.8751 25.8335 21.9189 26.8151 20.7424 26.8151Z"
     fill="#613ED2"
     id="path4" />
  <path
     d="M35.4885 26.8151H30.1209C28.9445 26.8151 27.9883 25.8334 27.9883 24.6257V21.6208C27.9883 21.111 28.3913 20.6973 28.8879 20.6973C29.3845 20.6973 29.7875 21.111 29.7875 21.6208V24.6257C29.7875 24.8134 29.9362 24.9676 30.1206 24.9676H35.4881C35.6709 24.9676 35.8212 24.815 35.8212 24.6257V21.6208C35.8212 21.111 36.2242 20.6973 36.7208 20.6973C37.2174 20.6973 37.6204 21.111 37.6204 21.6208V24.6257C37.6212 25.8335 36.6646 26.8151 35.4885 26.8151Z"
     fill="#613ED2"
     id="path5" />
  <path
     d="M50.219 26.8151H44.8514C43.6749 26.8151 42.7188 25.8334 42.7188 24.6257V21.6208C42.7188 21.111 43.1218 20.6973 43.6184 20.6973C44.115 20.6973 44.518 21.111 44.518 21.6208V24.6257C44.518 24.8134 44.6666 24.9676 44.8511 24.9676H50.2186C50.4014 24.9676 50.5517 24.815 50.5517 24.6257V21.6208C50.5517 21.111 50.9547 20.6973 51.4513 20.6973C51.9479 20.6973 52.3509 21.111 52.3509 21.6208V24.6257C52.3517 25.8335 51.3954 26.8151 50.219 26.8151Z"
     fill="#613ED2"
     id="path6" />
  <path
     d="M21.9825 51.2491C21.4859 51.2491 21.0829 50.8354 21.0829 50.3256V47.3207C21.0829 47.133 20.9343 46.9787 20.7499 46.9787H15.3823C15.1995 46.9787 15.0492 47.1313 15.0492 47.3207V50.3251C15.0492 50.835 14.6462 51.2487 14.1496 51.2487C13.653 51.2487 13.25 50.835 13.25 50.3251V47.3202C13.25 46.1125 14.2063 45.1309 15.3827 45.1309H20.7502C21.9267 45.1309 22.8829 46.1126 22.8829 47.3202L22.8825 50.3251C22.8825 50.8354 22.4795 51.2491 21.9825 51.2491L21.9825 51.2491Z"
     fill="#613ED2"
     id="path7" />
  <path
     d="M36.7208 51.2491C36.2242 51.2491 35.8212 50.8354 35.8212 50.3256V47.3207C35.8212 47.133 35.6726 46.9787 35.4881 46.9787H30.1206C29.9378 46.9787 29.7875 47.1313 29.7875 47.3207V50.3251C29.7875 50.835 29.3845 51.2487 28.8879 51.2487C28.3913 51.2487 27.9883 50.835 27.9883 50.3251V47.3202C27.9883 46.1125 28.9445 45.1309 30.1209 45.1309H35.4885C36.665 45.1309 37.6212 46.1126 37.6212 47.3202L37.6208 50.3251C37.6208 50.8354 37.2174 51.2491 36.7207 51.2491L36.7208 51.2491Z"
     fill="#613ED2"
     id="path8" />
  <path
     d="M51.4517 51.2491C50.9551 51.2491 50.5521 50.8354 50.5521 50.3256V47.3207C50.5521 47.133 50.4034 46.9787 50.219 46.9787H44.8515C44.6686 46.9787 44.5184 47.1313 44.5184 47.3207L44.518 50.3251C44.518 50.835 44.115 51.2487 43.6184 51.2487C43.1217 51.2487 42.7188 50.835 42.7188 50.3251V47.3202C42.7188 46.1125 43.675 45.1309 44.8514 45.1309H50.219C51.3955 45.1309 52.3516 46.1126 52.3516 47.3202L52.3512 50.3251C52.3512 50.8354 51.9482 51.2491 51.4516 51.2491L51.4517 51.2491Z"
     fill="#613ED2"
     id="path9" />
  <path
     d="M16.1066 46.9728C15.61 46.9728 15.207 46.5591 15.207 46.0493V25.8903C15.207 25.3805 15.61 24.9668 16.1066 24.9668C16.6032 24.9668 17.0062 25.3805 17.0062 25.8903V46.0483C17.0066 46.5581 16.6032 46.9722 16.1066 46.9722V46.9728Z"
     fill="#613ED2"
     id="path10" />
  <path
     d="M20.0172 46.9728C19.5206 46.9728 19.1176 46.5591 19.1176 46.0493L19.1172 25.8903C19.1172 25.3805 19.5202 24.9668 20.0168 24.9668C20.5134 24.9668 20.9164 25.3805 20.9164 25.8903V46.0483C20.9168 46.5581 20.5138 46.9722 20.0172 46.9722V46.9728Z"
     fill="#613ED2"
     id="path11" />
  <path
     d="M34.7629 46.9728C34.2663 46.9728 33.8633 46.5591 33.8633 46.0493V25.8903C33.8633 25.3805 34.2663 24.9668 34.7629 24.9668C35.2595 24.9668 35.6625 25.3805 35.6625 25.8903V46.0483C35.6629 46.5581 35.2599 46.9722 34.7629 46.9722V46.9728Z"
     fill="#613ED2"
     id="path12" />
  <path
     d="M30.8453 46.9728C30.3487 46.9728 29.9457 46.5591 29.9457 46.0493L29.9453 25.8903C29.9453 25.3805 30.3483 24.9668 30.8449 24.9668C31.3415 24.9668 31.7445 25.3805 31.7445 25.8903V46.0483C31.7449 46.5581 31.3435 46.9722 30.8453 46.9722V46.9728Z"
     fill="#613ED2"
     id="path13" />
  <path
     d="M45.5793 46.9728C45.0827 46.9728 44.6797 46.5591 44.6797 46.0493V25.8903C44.6797 25.3805 45.0827 24.9668 45.5793 24.9668C46.0759 24.9668 46.4789 25.3805 46.4789 25.8903V46.0483C46.4793 46.5581 46.0759 46.9722 45.5793 46.9722V46.9728Z"
     fill="#613ED2"
     id="path14" />
  <path
     d="M49.4938 46.9728C48.9971 46.9728 48.5942 46.5591 48.5942 46.0493L48.5938 25.8903C48.5938 25.3805 48.9967 24.9668 49.4934 24.9668C49.99 24.9668 50.393 25.3805 50.393 25.8903V46.0483C50.3934 46.5581 49.9904 46.9722 49.4938 46.9722V46.9728Z"
     fill="#613ED2"
     id="path15" />
  <path
     d="M32.7964 19.429C30.7501 19.429 29.0859 17.7204 29.0859 15.6197C29.0859 13.5191 30.7502 11.8105 32.7964 11.8105C34.8428 11.8101 36.507 13.5186 36.507 15.6197C36.507 17.7205 34.8427 19.429 32.7964 19.429ZM32.7964 13.6576C31.7434 13.6576 30.8855 14.537 30.8855 15.6193C30.8855 16.7017 31.7422 17.5811 32.7964 17.5811C33.8495 17.5811 34.7073 16.7017 34.7073 15.6193C34.7073 14.537 33.8495 13.6576 32.7964 13.6576Z"
     fill="#613ED2"
     id="path16" />
  <path
     d="M4.05489 64.3081C4.05245 64.3093 4.05002 64.3105 4.04677 64.3114C4.04352 64.3122 4.04028 64.313 4.03703 64.313C4.0281 64.313 4.0212 64.3105 4.01593 64.3048C4.01025 64.2995 4.00781 64.2925 4.00781 64.2835C4.00781 64.2748 4.01025 64.2679 4.01593 64.2621C4.0212 64.2568 4.0281 64.2539 4.03703 64.2539C4.04028 64.2539 4.04352 64.2547 4.04677 64.2555C4.05002 64.2568 4.05245 64.258 4.05489 64.2588V64.2703C4.05245 64.2683 4.05002 64.267 4.04677 64.267C4.04434 64.2662 4.0419 64.2654 4.03865 64.2654C4.03419 64.2654 4.03054 64.267 4.02729 64.2703C4.02486 64.2736 4.02404 64.2781 4.02404 64.2835C4.02404 64.2892 4.02486 64.2933 4.02729 64.2966C4.03054 64.2999 4.03419 64.3015 4.03865 64.3015H4.04677C4.05002 64.3007 4.05245 64.2991 4.05489 64.2966V64.3081Z"
     fill="#613ED2"
     id="path17" />
  <path
     d="M4.09236 64.2675C4.09236 64.2667 4.09153 64.2658 4.0907 64.2658C4.08946 64.265 4.08821 64.2641 4.08739 64.2641C4.08282 64.2641 4.0795 64.2658 4.07743 64.2692C4.07619 64.2718 4.07577 64.2743 4.07577 64.2777V64.2982H4.0625V64.2556H4.07577V64.2624C4.07785 64.259 4.0795 64.2569 4.08075 64.2556C4.08282 64.2548 4.08573 64.2539 4.08904 64.2539H4.0907H4.09236V64.2675Z"
     fill="#613ED2"
     id="path18" />
  <path
     d="M4.14245 64.276V64.2811H4.11093C4.11176 64.2845 4.113 64.2871 4.11425 64.288C4.11632 64.2892 4.11922 64.2897 4.12254 64.2897C4.12586 64.2897 4.12835 64.2892 4.13084 64.288C4.13415 64.2871 4.13747 64.2858 4.14079 64.2845V64.2965C4.13747 64.2965 4.13415 64.2973 4.13084 64.2982C4.12835 64.299 4.12586 64.2999 4.12254 64.2999C4.11342 64.2999 4.10678 64.2977 4.10263 64.2931C4.09932 64.2888 4.09766 64.2837 4.09766 64.2777C4.09766 64.2701 4.09932 64.2641 4.10263 64.2607C4.10678 64.2565 4.113 64.2539 4.12088 64.2539C4.12752 64.2539 4.1325 64.2565 4.13581 64.2607C4.13996 64.2641 4.14245 64.2692 4.14245 64.276L4.14245 64.276ZM4.12918 64.2726C4.12918 64.2692 4.12793 64.2671 4.12586 64.2658C4.12462 64.265 4.12296 64.2641 4.12088 64.2641C4.11839 64.2641 4.11632 64.265 4.11425 64.2658C4.113 64.2671 4.11176 64.2692 4.11093 64.2726H4.12918Z"
     fill="#613ED2"
     id="path19" />
  <path
     d="M4.17001 64.2777C4.16752 64.2777 4.16544 64.279 4.16337 64.2811C4.16213 64.2824 4.16171 64.2837 4.16171 64.2845C4.16171 64.2858 4.16213 64.2871 4.16337 64.288C4.1642 64.2892 4.16586 64.2897 4.16835 64.2897C4.17166 64.2897 4.17374 64.2892 4.17498 64.288C4.17706 64.2858 4.1783 64.2837 4.1783 64.2811V64.2777H4.17001ZM4.18991 64.2743V64.2982H4.1783V64.2914C4.17581 64.2948 4.17374 64.2973 4.17166 64.2982C4.16918 64.299 4.16669 64.2999 4.16337 64.2999C4.15881 64.2999 4.15507 64.2986 4.15176 64.2965C4.14927 64.2931 4.14844 64.2892 4.14844 64.2845C4.14844 64.2803 4.1501 64.2769 4.15341 64.2743C4.15673 64.2722 4.16171 64.2709 4.16835 64.2709H4.1783V64.2692C4.1783 64.2671 4.17705 64.2658 4.17498 64.2658C4.17374 64.265 4.17083 64.2641 4.16669 64.2641H4.15839C4.1559 64.2641 4.15383 64.265 4.15176 64.2658V64.2556H4.16005C4.16337 64.2548 4.16586 64.2539 4.16835 64.2539C4.17705 64.2539 4.18245 64.2556 4.18494 64.259C4.18825 64.2624 4.18991 64.2675 4.18991 64.2743L4.18991 64.2743Z"
     fill="#613ED2"
     id="path20" />
  <path
     d="M4.2108 64.2539V64.2672H4.22372V64.2755H4.2108V64.2937V64.2987H4.21564H4.22211V64.3086H4.21241C4.20676 64.3086 4.20272 64.3078 4.19949 64.3053C4.19706 64.3032 4.19625 64.2995 4.19625 64.2937V64.2755H4.19141V64.2672H4.19625V64.2539L4.2108 64.2539Z"
     fill="#613ED2"
     id="path21" />
  <path
     d="M4.27136 64.276V64.2811H4.23983C4.24066 64.2845 4.24191 64.2871 4.24315 64.288C4.24523 64.2892 4.24813 64.2897 4.25145 64.2897C4.25477 64.2897 4.25725 64.2892 4.25974 64.288C4.26306 64.2871 4.26638 64.2858 4.2697 64.2845V64.2965C4.26638 64.2965 4.26306 64.2973 4.25974 64.2982C4.25725 64.299 4.25477 64.2999 4.25145 64.2999C4.24232 64.2999 4.23569 64.2977 4.23154 64.2931C4.22822 64.2888 4.22656 64.2837 4.22656 64.2777C4.22656 64.2701 4.22822 64.2641 4.23154 64.2607C4.23569 64.2565 4.24191 64.2539 4.24979 64.2539C4.25643 64.2539 4.2614 64.2565 4.26472 64.2607C4.26887 64.2641 4.27136 64.2692 4.27136 64.276L4.27136 64.276ZM4.25808 64.2726C4.25808 64.2692 4.25684 64.2671 4.25477 64.2658C4.25352 64.265 4.25186 64.2641 4.24979 64.2641C4.2473 64.2641 4.24523 64.265 4.24315 64.2658C4.24191 64.2671 4.24066 64.2692 4.23984 64.2726H4.25808Z"
     fill="#613ED2"
     id="path22" />
  <path
     d="M4.30819 64.2752V64.2539H4.32117V64.3114H4.30819V64.3048C4.30697 64.3081 4.30494 64.3105 4.30169 64.3114C4.29926 64.3122 4.29723 64.313 4.2952 64.313C4.28952 64.313 4.28546 64.311 4.28221 64.3064C4.27897 64.3023 4.27734 64.2974 4.27734 64.2917C4.27734 64.2843 4.27897 64.2785 4.28221 64.2752C4.28546 64.2711 4.28952 64.2687 4.2952 64.2687C4.29723 64.2687 4.29926 64.2695 4.30169 64.2703C4.30494 64.2716 4.30697 64.2732 4.30819 64.2752V64.2752ZM4.30007 64.3032C4.3021 64.3032 4.30372 64.3023 4.30494 64.2999C4.30697 64.2978 4.30819 64.2949 4.30819 64.2917C4.30819 64.2876 4.30697 64.2843 4.30494 64.2818C4.30372 64.2798 4.3021 64.2785 4.30007 64.2785C4.29682 64.2785 4.29398 64.2798 4.29195 64.2818C4.29074 64.2843 4.29033 64.2876 4.29033 64.2917C4.29033 64.2949 4.29074 64.2978 4.29195 64.2999C4.29398 64.3023 4.29682 64.3032 4.30007 64.3032Z"
     fill="#613ED2"
     id="path23" />
  <path
     d="M4.38829 64.3032C4.39154 64.3032 4.39357 64.3023 4.39478 64.2999C4.39559 64.2978 4.39641 64.2949 4.39641 64.2917C4.39641 64.2876 4.39559 64.2843 4.39478 64.2818C4.39357 64.2798 4.39154 64.2785 4.38829 64.2785C4.38504 64.2785 4.38261 64.2798 4.3818 64.2818C4.38058 64.2843 4.38017 64.2876 4.38017 64.2917C4.38017 64.2949 4.38058 64.2978 4.3818 64.2999C4.38261 64.3023 4.38504 64.3032 4.38829 64.3032ZM4.38017 64.2752C4.3822 64.2732 4.38423 64.2716 4.38667 64.2703C4.3887 64.2695 4.39072 64.2687 4.39316 64.2687C4.39844 64.2687 4.4029 64.2711 4.40615 64.2752C4.40939 64.2785 4.41102 64.2843 4.41102 64.2917C4.41102 64.2974 4.40939 64.3023 4.40615 64.3064C4.4029 64.311 4.39844 64.313 4.39316 64.313C4.39072 64.313 4.3887 64.3122 4.38667 64.3114C4.38423 64.3105 4.3822 64.3081 4.38017 64.3048V64.3114H4.36719V64.2539H4.38017V64.2752Z"
     fill="#613ED2"
     id="path24" />
  <path
     d="M4.41016 64.2617H4.42314L4.43288 64.2896L4.44262 64.2617H4.45723L4.43937 64.306C4.43694 64.3114 4.43491 64.3147 4.43288 64.3159C4.43045 64.3179 4.4272 64.3192 4.42314 64.3192H4.41503V64.3093H4.41989H4.42476C4.42558 64.3093 4.42679 64.3077 4.42801 64.3044L4.41016 64.2617Z"
     fill="#613ED2"
     id="path25" />
  <path
     d="M4.53404 64.3081C4.52957 64.3093 4.52592 64.3105 4.52267 64.3114C4.51943 64.3122 4.51496 64.313 4.50969 64.313C4.50076 64.313 4.49386 64.3105 4.48859 64.3048C4.4829 64.2995 4.48047 64.2925 4.48047 64.2835C4.48047 64.2748 4.4829 64.2679 4.48859 64.2621C4.49386 64.2568 4.50157 64.2539 4.51131 64.2539C4.51537 64.2539 4.51862 64.2547 4.52105 64.2555C4.5243 64.2568 4.52754 64.258 4.53079 64.2588V64.2703C4.52754 64.2683 4.5243 64.267 4.52105 64.267C4.51862 64.2662 4.51618 64.2654 4.51293 64.2654C4.50725 64.2654 4.50319 64.267 4.49995 64.2703C4.49751 64.2736 4.4967 64.2781 4.4967 64.2835C4.4967 64.2892 4.49751 64.2933 4.49995 64.2966C4.50319 64.2999 4.50725 64.3015 4.51293 64.3015H4.51618C4.51699 64.3015 4.51821 64.3011 4.51943 64.2999V64.29H4.51131V64.2802H4.53404V64.3081Z"
     fill="#613ED2"
     id="path26" />
  <path
     d="M4.58455 64.2675C4.58455 64.2667 4.58372 64.2658 4.58289 64.2658C4.58165 64.265 4.5804 64.2641 4.57957 64.2641C4.57501 64.2641 4.57169 64.2658 4.56962 64.2692C4.56837 64.2718 4.56796 64.2743 4.56796 64.2777V64.2982H4.55469V64.2556H4.56796V64.2624C4.57003 64.259 4.57169 64.2569 4.57294 64.2556C4.57501 64.2548 4.57791 64.2539 4.58123 64.2539H4.58289H4.58455V64.2675Z"
     fill="#613ED2"
     id="path27" />
  <path
     d="M4.61141 64.2777C4.60892 64.2777 4.60685 64.279 4.60478 64.2811C4.60353 64.2824 4.60312 64.2837 4.60312 64.2845C4.60312 64.2858 4.60353 64.2871 4.60478 64.288C4.60561 64.2892 4.60726 64.2897 4.60975 64.2897C4.61307 64.2897 4.61514 64.2892 4.61639 64.288C4.61846 64.2858 4.61971 64.2837 4.61971 64.2811V64.2777H4.61141ZM4.63132 64.2743V64.2982H4.61971V64.2914C4.61722 64.2948 4.61514 64.2973 4.61307 64.2982C4.61058 64.299 4.60809 64.2999 4.60478 64.2999C4.60021 64.2999 4.59648 64.2986 4.59316 64.2965C4.59067 64.2931 4.58984 64.2892 4.58984 64.2845C4.58984 64.2803 4.5915 64.2769 4.59482 64.2743C4.59814 64.2722 4.60312 64.2709 4.60975 64.2709H4.61971V64.2692C4.61971 64.2671 4.61846 64.2658 4.61639 64.2658C4.61514 64.265 4.61224 64.2641 4.60809 64.2641H4.5998C4.59731 64.2641 4.59523 64.265 4.59316 64.2658V64.2556H4.60146C4.60477 64.2548 4.60726 64.2539 4.60975 64.2539C4.61846 64.2539 4.62385 64.2556 4.62634 64.259C4.62966 64.2624 4.63132 64.2675 4.63132 64.2743L4.63132 64.2743Z"
     fill="#613ED2"
     id="path28" />
  <path
     d="M4.6497 64.29V64.3114H4.63672V64.2555H4.6497V64.2605C4.65173 64.2584 4.65376 64.2568 4.6562 64.2555C4.65823 64.2547 4.66026 64.2539 4.66269 64.2539C4.66797 64.2539 4.67243 64.2564 4.67568 64.2605C4.67892 64.2638 4.68055 64.2695 4.68055 64.2769C4.68055 64.2826 4.67892 64.2876 4.67568 64.2917C4.67243 64.2962 4.66797 64.2982 4.66269 64.2982C4.66026 64.2982 4.65823 64.2974 4.6562 64.2966C4.65376 64.2958 4.65173 64.2933 4.6497 64.29V64.29ZM4.65782 64.2638C4.65457 64.2638 4.65214 64.265 4.65133 64.267C4.65011 64.2695 4.6497 64.2728 4.6497 64.2769C4.6497 64.2802 4.65011 64.283 4.65133 64.2851C4.65214 64.2876 4.65457 64.2884 4.65782 64.2884C4.66107 64.2884 4.6631 64.2876 4.66431 64.2851C4.66513 64.283 4.66594 64.2802 4.66594 64.2769C4.66594 64.2728 4.66513 64.2695 4.66431 64.267C4.6631 64.265 4.66107 64.2638 4.65782 64.2638Z"
     fill="#613ED2"
     id="path29" />
  <path
     d="M4.73361 64.2867V64.3114H4.719V64.2917V64.2851C4.719 64.2843 4.71819 64.283 4.71738 64.2818C4.71738 64.281 4.71657 64.2802 4.71576 64.2802C4.71576 64.2794 4.71454 64.2785 4.71251 64.2785C4.71007 64.2785 4.70804 64.2798 4.70602 64.2818C4.7048 64.2843 4.70439 64.2876 4.70439 64.2917V64.3114H4.69141V64.2539H4.70439V64.2752C4.70642 64.2732 4.70845 64.2716 4.71089 64.2703C4.71291 64.2695 4.71494 64.2687 4.71738 64.2687C4.72265 64.2687 4.72631 64.2703 4.72874 64.2736C4.73199 64.2769 4.73361 64.2814 4.73361 64.2867L4.73361 64.2867Z"
     fill="#613ED2"
     id="path30" />
  <path
     d="M4.74219 64.2703H4.75571V64.3114H4.74219V64.2703ZM4.74219 64.2539H4.75571V64.2638H4.74219V64.2539Z"
     fill="#613ED2"
     id="path31" />
  <path
     d="M4.77665 64.2821L4.76172 64.2617H4.77499L4.78494 64.2736L4.79324 64.2617H4.80817L4.79324 64.2821L4.80817 64.3043H4.79324L4.78494 64.2907L4.77499 64.3043H4.76172L4.77665 64.2821Z"
     fill="#613ED2"
     id="path32" />
  <path
     d="M4.8529 64.2556V64.2675C4.84959 64.2654 4.84627 64.2641 4.84295 64.2641H4.83631H4.82968C4.82843 64.2641 4.82802 64.2654 4.82802 64.2675C4.82802 64.2688 4.82843 64.2701 4.82968 64.2709H4.83631H4.83797C4.84461 64.2722 4.84876 64.2739 4.85125 64.276C4.85332 64.2773 4.85456 64.2807 4.85456 64.2863C4.85456 64.2897 4.8529 64.2931 4.84959 64.2965C4.8471 64.2986 4.84295 64.2999 4.83631 64.2999C4.833 64.2999 4.82968 64.299 4.82636 64.2982C4.82387 64.2982 4.82138 64.2977 4.81807 64.2965V64.2863C4.82014 64.2875 4.82221 64.2888 4.8247 64.2897H4.83466H4.83963C4.84046 64.2888 4.84129 64.2875 4.84129 64.2863C4.84129 64.2841 4.84046 64.2828 4.83963 64.2828C4.83963 64.2828 4.83839 64.2824 4.83631 64.2811H4.833C4.82719 64.2803 4.82304 64.279 4.81972 64.2777C4.81724 64.2756 4.81641 64.2722 4.81641 64.2675C4.81641 64.2633 4.81807 64.2599 4.82138 64.2573C4.8247 64.2552 4.82968 64.2539 4.83631 64.2539C4.83839 64.2539 4.84046 64.2548 4.84295 64.2556H4.8529L4.8529 64.2556Z"
     fill="#613ED2"
     id="path33" />
  <path
     d="M4.89106 64.3145V64.3215H4.85156V64.3145H4.89106Z"
     fill="#613ED2"
     id="path34" />
  <path
     d="M4.92651 64.298H4.90423L4.90104 64.3095H4.88672L4.90741 64.2539H4.92333L4.94243 64.3095H4.9297L4.92651 64.298ZM4.90741 64.2899H4.92174L4.91537 64.267L4.90741 64.2899Z"
     fill="#613ED2"
     id="path35" />
  <path
     d="M4.9908 64.2675C4.9908 64.2667 4.98997 64.2658 4.98914 64.2658C4.9879 64.265 4.98665 64.2641 4.98582 64.2641C4.98126 64.2641 4.97794 64.2658 4.97587 64.2692C4.97462 64.2718 4.97421 64.2743 4.97421 64.2777V64.2982H4.96094V64.2556H4.97421V64.2624C4.97628 64.259 4.97794 64.2569 4.97919 64.2556C4.98126 64.2548 4.98416 64.2539 4.98748 64.2539H4.98914H4.9908V64.2675Z"
     fill="#613ED2"
     id="path36" />
  <path
     d="M5.00767 64.2539V64.2672H5.0206V64.2755H5.00767V64.2937V64.2987H5.01252H5.01898V64.3086H5.00929C5.00363 64.3086 4.99959 64.3078 4.99636 64.3053C4.99394 64.3032 4.99313 64.2995 4.99313 64.2937V64.2755H4.98828V64.2672H4.99313V64.2539L5.00767 64.2539Z"
     fill="#613ED2"
     id="path37" />
  <path
     d="M4.03084 64.3262V64.3344H4.02435C4.02191 64.3344 4.02029 64.3352 4.01948 64.336V64.3393V64.3426H4.03084V64.3508H4.01948V64.3836H4.00649V64.3508H4V64.3426H4.00649V64.3393C4.00649 64.3352 4.0073 64.3319 4.00974 64.3295C4.01177 64.3274 4.01542 64.3262 4.0211 64.3262H4.03084Z"
     fill="#613ED2"
     id="path38" />
  <path
     d="M4.06502 64.3574C4.06502 64.3565 4.06419 64.3557 4.06336 64.3557C4.06212 64.3548 4.06087 64.354 4.06004 64.354C4.05548 64.354 4.05216 64.3557 4.05009 64.3591C4.04884 64.3616 4.04843 64.3642 4.04843 64.3676V64.388H4.03516V64.3455H4.04843V64.3523C4.0505 64.3489 4.05216 64.3467 4.05341 64.3455C4.05548 64.3446 4.05838 64.3438 4.0617 64.3438H4.06336H4.06502V64.3574Z"
     fill="#613ED2"
     id="path39" />
  <path
     d="M4.09354 64.354C4.09022 64.354 4.08732 64.3552 4.08524 64.3574C4.084 64.3586 4.08359 64.3621 4.08359 64.3676C4.08359 64.371 4.084 64.374 4.08524 64.3761C4.08732 64.3786 4.09022 64.3795 4.09354 64.3795C4.09686 64.3795 4.09893 64.3786 4.10018 64.3761C4.10225 64.374 4.10349 64.371 4.10349 64.3676C4.10349 64.3621 4.10225 64.3586 4.10018 64.3574C4.09893 64.3552 4.09686 64.354 4.09354 64.354ZM4.09354 64.3438C4.10018 64.3438 4.10557 64.3463 4.11013 64.3506C4.11428 64.354 4.11677 64.3599 4.11677 64.3676C4.11677 64.3735 4.11428 64.3786 4.11013 64.3829C4.10557 64.3876 4.10018 64.3897 4.09354 64.3897C4.08566 64.3897 4.07944 64.3876 4.07529 64.3829C4.07197 64.3786 4.07031 64.3735 4.07031 64.3676C4.07031 64.3599 4.07197 64.354 4.07529 64.3506C4.07944 64.3463 4.08566 64.3438 4.09354 64.3438Z"
     fill="#613ED2"
     id="path40" />
  <path
     d="M4.16959 64.352C4.17159 64.3499 4.17359 64.3483 4.17599 64.347C4.17798 64.345 4.17998 64.3438 4.18238 64.3438C4.18758 64.3438 4.19118 64.3454 4.19358 64.3487C4.19677 64.352 4.19837 64.3565 4.19837 64.3618V64.3864H4.18398V64.3651V64.3634C4.18398 64.3602 4.18318 64.3581 4.18238 64.3569C4.18238 64.3548 4.18118 64.3536 4.17918 64.3536C4.17679 64.3536 4.17479 64.3548 4.17279 64.3569C4.17159 64.3593 4.17119 64.3626 4.17119 64.3667V64.3864H4.1584V64.3651C4.1584 64.361 4.1576 64.3581 4.1568 64.3569C4.1568 64.3548 4.1556 64.3536 4.1536 64.3536C4.1504 64.3536 4.148 64.3548 4.1472 64.3569C4.146 64.3593 4.1456 64.3626 4.1456 64.3667V64.3864H4.13281V64.3454H4.1456V64.3503L4.1504 64.3454C4.1524 64.3446 4.1552 64.3438 4.1584 64.3438C4.1604 64.3438 4.16239 64.345 4.16479 64.347C4.16679 64.3483 4.16839 64.3499 4.16959 64.352L4.16959 64.352Z"
     fill="#613ED2"
     id="path41" />
  <path
     d="M4.24205 64.332V64.3453H4.25497V64.3536H4.24205V64.3718V64.3768H4.24689H4.25336V64.3867H4.24366C4.23801 64.3867 4.23397 64.3859 4.23074 64.3834C4.22831 64.3814 4.2275 64.3776 4.2275 64.3718V64.3536H4.22266V64.3453H4.2275V64.332L4.24205 64.332Z"
     fill="#613ED2"
     id="path42" />
  <path
     d="M4.30392 64.359V64.3836H4.28931V64.3639V64.3574C4.28931 64.3565 4.2885 64.3553 4.28769 64.3541C4.28769 64.3533 4.28688 64.3524 4.28607 64.3524C4.28607 64.3516 4.28485 64.3508 4.28282 64.3508C4.28039 64.3508 4.27836 64.352 4.27633 64.3541C4.27511 64.3565 4.2747 64.3598 4.2747 64.3639V64.3836H4.26172V64.3262H4.2747V64.3475C4.27673 64.3455 4.27876 64.3438 4.2812 64.3426C4.28323 64.3418 4.28526 64.3409 4.28769 64.3409C4.29297 64.3409 4.29662 64.3426 4.29905 64.3459C4.3023 64.3492 4.30392 64.3537 4.30392 64.359L4.30392 64.359Z"
     fill="#613ED2"
     id="path43" />
  <path
     d="M4.36511 64.3659V64.371H4.33358C4.33441 64.3744 4.33566 64.3769 4.3369 64.3778C4.33898 64.3791 4.34188 64.3795 4.3452 64.3795C4.34852 64.3795 4.351 64.3791 4.35349 64.3778C4.35681 64.3769 4.36013 64.3757 4.36345 64.3744V64.3863C4.36013 64.3863 4.35681 64.3872 4.35349 64.388C4.351 64.3889 4.34852 64.3897 4.3452 64.3897C4.33607 64.3897 4.32944 64.3876 4.32529 64.3829C4.32197 64.3786 4.32031 64.3735 4.32031 64.3676C4.32031 64.3599 4.32197 64.354 4.32529 64.3506C4.32944 64.3463 4.33566 64.3438 4.34354 64.3438C4.35018 64.3438 4.35515 64.3463 4.35847 64.3506C4.36262 64.354 4.36511 64.3591 4.36511 64.3659L4.36511 64.3659ZM4.35183 64.3625C4.35183 64.3591 4.35059 64.3569 4.34852 64.3557C4.34727 64.3548 4.34561 64.354 4.34354 64.354C4.34105 64.354 4.33898 64.3548 4.3369 64.3557C4.33566 64.3569 4.33441 64.3591 4.33359 64.3625H4.35183Z"
     fill="#613ED2"
     id="path44" />
  <path
     d="M4.39453 64.3262H4.41076L4.43024 64.3645V64.3262H4.44485V64.3828H4.42862L4.40752 64.3445V64.3828H4.39453V64.3262Z"
     fill="#613ED2"
     id="path45" />
  <path
     d="M4.47245 64.354C4.46913 64.354 4.46622 64.3552 4.46415 64.3574C4.46291 64.3586 4.46249 64.3621 4.46249 64.3676C4.46249 64.371 4.46291 64.374 4.46415 64.3761C4.46622 64.3786 4.46913 64.3795 4.47245 64.3795C4.47576 64.3795 4.47784 64.3786 4.47908 64.3761C4.48116 64.374 4.4824 64.371 4.4824 64.3676C4.4824 64.3621 4.48116 64.3586 4.47908 64.3574C4.47784 64.3552 4.47576 64.354 4.47245 64.354ZM4.47245 64.3438C4.47908 64.3438 4.48447 64.3463 4.48904 64.3506C4.49318 64.354 4.49567 64.3599 4.49567 64.3676C4.49567 64.3735 4.49318 64.3786 4.48904 64.3829C4.48447 64.3876 4.47908 64.3897 4.47245 64.3897C4.46457 64.3897 4.45834 64.3876 4.4542 64.3829C4.45088 64.3786 4.44922 64.3735 4.44922 64.3676C4.44922 64.3599 4.45088 64.354 4.4542 64.3506C4.45834 64.3463 4.46456 64.3438 4.47245 64.3438Z"
     fill="#613ED2"
     id="path46" />
  <path
     d="M4.51172 64.3693V64.3438H4.52499V64.3472V64.3574V64.3625V64.371V64.3744C4.52582 64.3744 4.52665 64.3752 4.52665 64.3761H4.53163C4.5337 64.3761 4.53536 64.3757 4.5366 64.3744C4.53868 64.3723 4.53992 64.3689 4.53992 64.3642V64.3438H4.55319V64.3863H4.53992V64.3795C4.53743 64.3829 4.53536 64.3855 4.53329 64.3863C4.5308 64.3872 4.52831 64.388 4.52499 64.388C4.52043 64.388 4.51711 64.3863 4.51504 64.3829C4.51255 64.3795 4.51172 64.3752 4.51172 64.3693V64.3693Z"
     fill="#613ED2"
     id="path47" />
  <path
     d="M4.59782 64.3625V64.388H4.58289V64.3676V64.3608C4.58289 64.3599 4.58206 64.3586 4.58123 64.3574C4.58123 64.3565 4.5804 64.3557 4.57957 64.3557C4.57957 64.3548 4.57833 64.354 4.57625 64.354C4.57377 64.354 4.57169 64.3552 4.56962 64.3574C4.56837 64.3599 4.56796 64.3633 4.56796 64.3676V64.388H4.55469V64.3455H4.56796V64.3506C4.57003 64.3484 4.57211 64.3467 4.5746 64.3455C4.57667 64.3446 4.57874 64.3438 4.58123 64.3438C4.58662 64.3438 4.59036 64.3455 4.59285 64.3489C4.59616 64.3523 4.59782 64.3569 4.59782 64.3625L4.59782 64.3625Z"
     fill="#613ED2"
     id="path48" />
  <path
     d="M4.63672 64.3262H4.66107C4.66756 64.3262 4.67243 64.3278 4.67568 64.3312C4.67974 64.3345 4.68217 64.3395 4.68217 64.3462C4.68217 64.352 4.67974 64.3562 4.67568 64.3595C4.67243 64.362 4.66756 64.3628 4.66107 64.3628H4.65133V64.3828H4.63672L4.63672 64.3262ZM4.65133 64.3378V64.3528H4.65944C4.66147 64.3528 4.6631 64.3524 4.66431 64.3512C4.66634 64.3503 4.66756 64.3487 4.66756 64.3462C4.66756 64.3428 4.66634 64.3407 4.66431 64.3395C4.6631 64.3387 4.66147 64.3378 4.65944 64.3378L4.65133 64.3378Z"
     fill="#613ED2"
     id="path49" />
  <path
     d="M4.72127 64.3574C4.72127 64.3565 4.72044 64.3557 4.71961 64.3557C4.71837 64.3548 4.71712 64.354 4.71629 64.354C4.71173 64.354 4.70841 64.3557 4.70634 64.3591C4.70509 64.3616 4.70468 64.3642 4.70468 64.3676V64.388H4.69141V64.3455H4.70468V64.3523C4.70675 64.3489 4.70841 64.3467 4.70966 64.3455C4.71173 64.3446 4.71463 64.3438 4.71795 64.3438H4.71961H4.72127V64.3574Z"
     fill="#613ED2"
     id="path50" />
  <path
     d="M4.74979 64.354C4.74647 64.354 4.74357 64.3552 4.74149 64.3574C4.74025 64.3586 4.73984 64.3621 4.73984 64.3676C4.73984 64.371 4.74025 64.374 4.74149 64.3761C4.74357 64.3786 4.74647 64.3795 4.74979 64.3795C4.75311 64.3795 4.75518 64.3786 4.75643 64.3761C4.7585 64.374 4.75974 64.371 4.75974 64.3676C4.75974 64.3621 4.7585 64.3586 4.75643 64.3574C4.75518 64.3552 4.75311 64.354 4.74979 64.354ZM4.74979 64.3438C4.75643 64.3438 4.76182 64.3463 4.76638 64.3506C4.77053 64.354 4.77302 64.3599 4.77302 64.3676C4.77302 64.3735 4.77053 64.3786 4.76638 64.3829C4.76182 64.3876 4.75643 64.3897 4.74979 64.3897C4.74191 64.3897 4.73569 64.3876 4.73154 64.3829C4.72822 64.3786 4.72656 64.3735 4.72656 64.3676C4.72656 64.3599 4.72822 64.354 4.73154 64.3506C4.73569 64.3463 4.74191 64.3438 4.74979 64.3438Z"
     fill="#613ED2"
     id="path51" />
  <path
     d="M4.78591 64.3428H4.79961V64.3827C4.79961 64.3881 4.7979 64.3927 4.79447 64.396C4.7919 64.3993 4.78805 64.401 4.78248 64.401H4.77734V64.391H4.77906C4.7812 64.391 4.78291 64.3902 4.78419 64.3894C4.78505 64.3894 4.78591 64.3869 4.78591 64.3827L4.78591 64.3428ZM4.78591 64.3262H4.79961V64.3361H4.78591V64.3262Z"
     fill="#613ED2"
     id="path52" />
  <path
     d="M4.84948 64.3659V64.371H4.81796C4.81879 64.3744 4.82003 64.3769 4.82128 64.3778C4.82335 64.3791 4.82625 64.3795 4.82957 64.3795C4.83289 64.3795 4.83538 64.3791 4.83787 64.3778C4.84119 64.3769 4.8445 64.3757 4.84782 64.3744V64.3863C4.8445 64.3863 4.84119 64.3872 4.83787 64.388C4.83538 64.3889 4.83289 64.3897 4.82957 64.3897C4.82045 64.3897 4.81381 64.3876 4.80966 64.3829C4.80635 64.3786 4.80469 64.3735 4.80469 64.3676C4.80469 64.3599 4.80635 64.354 4.80966 64.3506C4.81381 64.3463 4.82003 64.3438 4.82791 64.3438C4.83455 64.3438 4.83953 64.3463 4.84284 64.3506C4.84699 64.354 4.84948 64.3591 4.84948 64.3659L4.84948 64.3659ZM4.83621 64.3625C4.83621 64.3591 4.83497 64.3569 4.83289 64.3557C4.83165 64.3548 4.82999 64.354 4.82791 64.354C4.82543 64.354 4.82335 64.3548 4.82128 64.3557C4.82003 64.3569 4.81879 64.3591 4.81796 64.3625H4.83621Z"
     fill="#613ED2"
     id="path53" />
  <path
     d="M4.88972 64.3455V64.3574C4.8864 64.3565 4.88391 64.3557 4.88308 64.3557C4.88184 64.3548 4.87977 64.354 4.87645 64.354C4.87313 64.354 4.87023 64.3552 4.86815 64.3574C4.86566 64.3599 4.86483 64.3633 4.86483 64.3676C4.86483 64.371 4.86566 64.374 4.86815 64.3761C4.87023 64.3786 4.87313 64.3795 4.87645 64.3795C4.87977 64.3795 4.88184 64.3791 4.88308 64.3778C4.88516 64.3769 4.88723 64.3761 4.88972 64.3761V64.3863C4.8864 64.3876 4.8835 64.388 4.88142 64.388C4.88018 64.3889 4.87852 64.3897 4.87645 64.3897C4.86732 64.3897 4.86069 64.3876 4.85654 64.3829C4.85322 64.3786 4.85156 64.3735 4.85156 64.3676C4.85156 64.3599 4.85322 64.354 4.85654 64.3506C4.86069 64.3463 4.86732 64.3438 4.87645 64.3438C4.87852 64.3438 4.88018 64.3446 4.88142 64.3455H4.88972V64.3455Z"
     fill="#613ED2"
     id="path54" />
  <path
     d="M4.92173 64.332V64.3453H4.93466V64.3536H4.92173V64.3718V64.3768H4.92658H4.93305V64.3867H4.92335C4.91769 64.3867 4.91365 64.3859 4.91042 64.3834C4.908 64.3814 4.90719 64.3776 4.90719 64.3718V64.3536H4.90234V64.3453H4.90719V64.332L4.92173 64.332Z"
     fill="#613ED2"
     id="path55" />
  <path
     d="M65.0977 55.0349C64.9641 55.5145 64.7261 55.9155 64.2553 56.1544C63.9761 56.2965 63.6828 56.3333 63.373 56.3333C60.3689 56.3308 57.365 56.3308 54.3613 56.3333C49.8427 56.3333 45.3241 56.3333 40.8054 56.3333C40.1184 56.3333 39.5967 56.0801 39.2659 55.4796C39.1472 55.2478 39.0896 54.9905 39.0986 54.7312C39.0986 50.02 39.0986 45.3087 39.0986 40.5974C39.0986 39.6532 39.7646 39.0022 40.7278 39.0022C48.3091 38.9993 55.8905 38.9993 63.4722 39.0022C64.2992 39.0022 64.7656 39.3851 65.0957 40.2975L65.0977 55.0349Z"
     fill="#613ED2"
     id="path56" />
  <path
     d="M52.1001 46.1326C55.9923 46.1326 59.885 46.1309 63.778 46.1276C64.0121 46.1276 64.0688 46.1862 64.0681 46.4126C64.0598 49.1334 64.063 51.8543 64.0624 54.5752C64.0624 55.1533 63.8989 55.3142 63.3111 55.3142H40.8918C40.3014 55.3142 40.1379 55.1545 40.1379 54.5783C40.1379 51.8568 40.1362 49.1357 40.1328 46.4151C40.1328 46.1943 40.1799 46.1263 40.4197 46.127C44.3141 46.1349 48.2075 46.1367 52.1001 46.1326Z"
     fill="white"
     id="path57" />
  <path
     d="M52.0705 43.0814C48.1872 43.0814 44.3037 43.0833 40.42 43.0871C40.1903 43.0871 40.1235 43.034 40.1292 42.8039C40.1451 42.0992 40.1331 41.3945 40.1356 40.6892C40.1356 40.2003 40.3265 40.0176 40.8271 40.0176H63.3666C63.8673 40.0176 64.0556 40.2047 64.0575 40.6905C64.0575 41.4039 64.0486 42.1173 64.0633 42.8301C64.0677 43.0422 64.0047 43.0864 63.7967 43.0864C59.8901 43.0798 55.9813 43.0781 52.0705 43.0814Z"
     fill="white"
     id="path58" />
  <path
     d="M48.4404 49.2012C49.9628 49.2012 51.4852 49.2012 53.0076 49.2012C53.2742 49.2012 53.4994 49.2635 53.612 49.518C53.642 49.5889 53.6548 49.6657 53.6496 49.7424C53.6443 49.819 53.6211 49.8934 53.5817 49.9598C53.5423 50.0262 53.4878 50.0828 53.4224 50.1251C53.357 50.1675 53.2826 50.1944 53.2048 50.204C53.1203 50.2126 53.0353 50.2155 52.9504 50.2127H43.8427C43.4953 50.2027 43.2701 50.0088 43.2618 49.7138C43.2555 49.412 43.4858 49.2012 43.8478 49.1999C45.3793 49.1987 46.9102 49.1991 48.4404 49.2012Z"
     fill="#613ED2"
     id="path59" />
  <path
     d="M46.3717 52.2502C45.5446 52.2502 44.7132 52.2502 43.8842 52.2502C43.6711 52.2502 43.4834 52.2097 43.3555 52.0208C43.3072 51.9526 43.2772 51.8735 43.2684 51.7909C43.2595 51.7083 43.2721 51.6249 43.3049 51.5484C43.3377 51.4718 43.3897 51.4046 43.456 51.353C43.5224 51.3014 43.6009 51.267 43.6844 51.2531C43.7765 51.2405 43.8695 51.2357 43.9624 51.2387C45.5701 51.2387 47.1771 51.2475 48.7848 51.2325C49.3344 51.2275 49.4846 51.4819 49.4909 51.7314C49.4973 51.9808 49.3389 52.269 48.7822 52.2546C47.9793 52.2347 47.1752 52.2502 46.3717 52.2502Z"
     fill="#613ED2"
     id="path60" />
  <path
     style="fill:#000000;stroke-width:0.0809249"
     d="M 8.0834315,61.302191 C 7.9894344,61.264212 7.8346656,61.134153 7.7395008,61.01317 7.5740492,60.802833 7.566474,60.711064 7.566474,58.917069 c 0,-2.081985 0.051098,-2.397629 0.497154,-3.071051 0.3707104,-0.559671 0.952019,-0.98792 1.6139083,-1.188962 l 0.5594577,-0.16993 0.0016,-0.942985 c 8.82e-4,-0.518642 0.03787,-1.193872 0.08219,-1.500512 0.198747,-1.374934 1.217302,-2.391347 2.60491,-2.599432 l 0.375988,-0.05638 0.02546,-1.347087 c 0.02846,-1.506261 0.08077,-1.695992 0.617529,-2.239802 0.321311,-0.325535 0.834416,-0.599756 1.12758,-0.602617 l 0.182081,-0.0018 v -9.225434 -9.225433 h -0.186423 c -0.317601,0 -1.011353,-0.401473 -1.280096,-0.740788 -0.410202,-0.517922 -0.468206,-0.786739 -0.472125,-2.188049 l -0.0036,-1.269879 -2.245665,-0.02492 C 9.063391,22.499801 8.7976537,22.481386 8.6064497,22.351546 8.1704332,22.055464 8.1041573,21.367493 8.4781176,21.019403 8.5775806,20.926821 14.012139,17.89292 20.554913,14.277401 30.482399,8.7915003 32.50443,7.7024175 32.774566,7.6957959 c 0.283848,-0.00696 1.79325,0.8028902 12.260116,6.5779891 6.565029,3.622258 11.998774,6.640101 12.074988,6.706317 0.07621,0.06622 0.179255,0.243663 0.228978,0.394327 0.07499,0.227227 0.06516,0.325592 -0.05765,0.57692 -0.270681,0.553938 -0.425753,0.585955 -2.838805,0.586098 l -2.124278,1.25e-4 v 1.158723 c 0,1.500784 -0.101447,1.866574 -0.677398,2.442526 -0.325626,0.325626 -0.516986,0.445783 -0.843022,0.529344 l -0.421776,0.108097 v 6.134991 6.13499 l 6.736994,0.0018 c 7.624361,0.002 7.153489,-0.03787 7.627467,0.646026 l 0.242475,0.349866 0.02146,7.554009 c 0.02073,7.296903 0.0162,7.564311 -0.133007,7.856657 -0.190493,0.373239 -0.373757,0.543324 -0.758755,0.704185 -0.249923,0.104425 -0.781478,0.124474 -3.300179,0.124474 h -3.002273 l 0.05841,0.182081 c 0.161873,0.50461 0.191562,0.884239 0.193341,2.472227 0.0021,1.899883 -0.03767,2.091963 -0.48097,2.321201 -0.21072,0.108968 -2.994426,0.122181 -24.781867,0.117627 -13.499464,-0.0028 -24.6213874,-0.0362 -24.7153845,-0.07418 z M 56.352577,58.352748 C 56.32114,56.993702 56.2845,56.877279 55.766525,56.490549 l -0.223474,-0.16685 -22.673733,-0.02065 c -21.968153,-0.02001 -22.682532,-0.01597 -22.9564965,0.129812 -0.15552,0.08276 -0.364101,0.29234 -0.4635134,0.465741 -0.1644213,0.286794 -0.1808699,0.423105 -0.1820809,1.508916 l -0.00133,1.193642 H 32.823677 56.381456 Z m 7.518844,-3.108232 c 0.230699,-0.146429 0.261527,-0.711963 0.261527,-4.797656 0,-3.418995 -0.01995,-4.195046 -0.109773,-4.269591 -0.08051,-0.06682 -3.278813,-0.08564 -11.99711,-0.0706 l -11.887337,0.0205 -0.02093,4.403304 c -0.01827,3.842151 -0.0051,4.427414 0.103021,4.592485 l 0.123957,0.189182 11.712007,-0.0012 c 6.441604,-6.82e-4 11.758193,-0.03055 11.814642,-0.06638 z M 39.127168,52.842975 v -1.659916 l -13.170521,0.02119 -13.17052,0.02119 -0.253029,0.180487 c -0.440919,0.31451 -0.515757,0.592465 -0.515757,1.915558 V 54.50289 H 25.572254 39.127168 Z M 21.16185,48.398332 c 0,-0.553461 -0.03552,-1.099704 -0.07892,-1.213873 l -0.07892,-0.20758 h -2.899113 c -2.146965,0 -2.924307,0.02519 -2.996222,0.09711 -0.06615,0.06615 -0.09711,0.45318 -0.09711,1.213873 v 1.116763 h 3.075144 3.075145 z m 6.892753,-0.349199 c 0.0248,-1.209776 0.04691,-1.391404 0.20575,-1.689566 0.258701,-0.485626 0.843653,-0.968441 1.321769,-1.090978 l 0.400537,-0.102655 v -9.210135 -9.210134 h -0.176763 c -0.510728,0 -1.271293,-0.605872 -1.574598,-1.254336 -0.173113,-0.370113 -0.189322,-0.513331 -0.190045,-1.67919 l -7.91e-4,-1.274567 h -2.581278 -2.581279 l -0.0316,1.315029 c -0.02962,1.232632 -0.04503,1.340838 -0.245895,1.726938 -0.329501,0.633371 -0.775499,0.959047 -1.6611,1.212967 -0.148544,0.04259 -0.148544,18.314593 0,18.357184 0.885601,0.25392 1.331599,0.579597 1.6611,1.212967 0.200864,0.3861 0.21627,0.494306 0.245895,1.726938 l 0.0316,1.315029 h 2.574458 2.574457 z m 7.83557,0.298148 c 0,-0.581539 -0.0377,-1.127782 -0.08377,-1.213873 -0.08043,-0.150276 -0.199385,-0.156529 -2.978035,-0.156529 -2.143194,0 -2.919463,0.0252 -2.991373,0.09711 -0.06615,0.06615 -0.09711,0.45318 -0.09711,1.213873 v 1.116763 h 3.075145 3.075144 z m 3.238772,-3.49468 c 0.0017,-4.252525 0.01161,-4.573321 0.151174,-4.875722 0.180807,-0.391756 0.436996,-0.638303 0.836883,-0.805386 0.245007,-0.102371 0.691975,-0.12525 2.446873,-0.12525 h 2.147108 v -6.150289 c 0,-6.128742 -5.77e-4,-6.150289 -0.164449,-6.150289 -0.467127,0 -1.250237,-0.586148 -1.560334,-1.167891 -0.155839,-0.292352 -0.178602,-0.48101 -0.203273,-1.68471 l -0.02778,-1.355492 H 40.17237 37.589595 v 1.158723 c 0,1.364076 -0.102725,1.804598 -0.539919,2.315361 -0.289584,0.338314 -0.965732,0.731572 -1.260659,0.733218 -0.134042,7.49e-4 -0.141618,0.494348 -0.141618,9.226224 0,8.731876 0.0076,9.225476 0.141618,9.226224 0.294927,0.0016 0.971075,0.394905 1.260659,0.733218 0.437194,0.510763 0.539919,0.951285 0.539919,2.315362 v 1.158722 h 0.768787 0.768786 z M 19.138728,35.971098 v -9.225433 h -1.092485 -1.092486 v 9.225433 9.225434 h 1.092486 1.092485 z m 14.728324,0 v -9.225433 h -1.092486 -1.092485 v 9.225433 9.225434 h 1.092485 1.092486 z m 30.216775,6.993381 c 0.08011,-0.208747 0.05586,-2.236828 -0.03033,-2.537358 -0.0437,-0.152357 -0.125632,-0.306328 -0.182081,-0.342158 -0.05645,-0.03583 -5.371812,-0.0657 -11.811919,-0.06638 l -11.709284,-0.0012 -0.125976,0.179856 c -0.101363,0.144716 -0.125976,0.434586 -0.125976,1.483622 0,0.717072 0.02428,1.328044 0.05395,1.357716 0.02967,0.02967 5.415372,0.05395 11.968221,0.05395 10.789604,0 11.918907,-0.01208 11.96339,-0.128007 z M 48.595376,32.895954 V 26.745665 H 47.50289 46.410405 v 6.150289 6.150289 h 1.092485 1.092486 z m -27.532519,-9.16474 0.02239,-1.193642 h -3.036846 -3.036845 v 1.116763 c 0,0.766964 0.03073,1.147491 0.0981,1.214864 0.07403,0.07403 0.813753,0.09289 3.014451,0.07688 l 2.916349,-0.02122 z m 14.743545,1.077574 c 0.04607,-0.08609 0.08377,-0.632334 0.08377,-1.213873 v -1.057343 h -3.075144 -3.075145 v 1.116763 c 0,0.760694 0.03096,1.147726 0.09711,1.213873 0.07191,0.07191 0.848179,0.09711 2.991373,0.09711 2.77865,0 2.897608,-0.0063 2.978036,-0.15653 z m 14.728323,0 c 0.04608,-0.08609 0.08377,-0.632334 0.08377,-1.213873 v -1.057343 h -3.075144 -3.075145 v 1.116763 c 0,0.760694 0.03096,1.147726 0.09711,1.213873 0.07191,0.07191 0.848179,0.09711 2.991373,0.09711 2.778649,0 2.897608,-0.0063 2.978034,-0.15653 z m 2.428318,-4.112256 c -0.0013,-0.03338 -4.537575,-2.561935 -10.080722,-5.619007 L 32.803873,9.5192121 22.754537,15.064126 c -5.527134,3.049703 -10.08393,5.578256 -10.126213,5.619006 -0.04653,0.04485 7.898898,0.07409 20.130058,0.07409 11.113815,0 20.205912,-0.02731 20.204661,-0.06069 z"
     id="path61" />
  <path
     style="fill:#000000;stroke-width:0.0809249"
     d="m 31.845893,19.251773 c -2.792891,-0.750518 -3.630896,-4.497205 -1.445368,-6.462183 2.337143,-2.101292 6.056122,-0.3641 6.056122,2.828907 0,2.440373 -2.30138,4.253861 -4.610754,3.633276 z m 1.679828,-1.776106 c 0.381108,-0.158955 0.791631,-0.550584 1.013649,-0.966996 0.24117,-0.452335 0.24117,-1.328013 0,-1.780347 -0.527091,-0.988603 -1.593205,-1.359209 -2.583523,-0.898092 -1.448113,0.674279 -1.448113,2.902251 0,3.57653 0.488775,0.227586 1.122712,0.255411 1.569874,0.06891 z"
     id="path62" />
  <path
     style="fill:#000000;stroke-width:0.0809249"
     d="m 43.598266,50.094868 c -0.209405,-0.09232 -0.263006,-0.163675 -0.263006,-0.350095 0,-0.522115 -0.205373,-0.501998 5.124869,-0.501998 4.720989,0 4.832505,0.0036 4.990738,0.161849 0.208395,0.208396 0.205478,0.420967 -0.0084,0.614626 -0.162825,0.147408 -0.376394,0.15498 -4.875722,0.172867 -3.93811,0.01566 -4.748327,-2.02e-4 -4.968444,-0.09725 z"
     id="path63" />
  <path
     style="fill:#000000;stroke-width:0.0809249"
     d="m 43.578035,52.134482 c -0.283281,-0.14491 -0.321303,-0.561631 -0.06747,-0.739425 0.15989,-0.111992 0.54287,-0.129161 2.881058,-0.129161 h 2.696655 l 0.198633,0.198634 c 0.239138,0.239137 0.243628,0.294316 0.04402,0.540956 l -0.15462,0.191046 -2.697981,0.02072 c -2.065238,0.01586 -2.745429,-0.0036 -2.900294,-0.08277 z"
     id="path64" />
</svg>
