<svg width="32" height="30" viewBox="0 0 32 30" fill="none" xmlns="http://www.w3.org/2000/svg">
<path d="M27.0442 11.977C26.9163 11.9883 26.7873 11.9732 26.6656 11.9328C26.5439 11.8925 26.4321 11.8276 26.3373 11.7424C26.2425 11.6573 26.1668 11.5536 26.115 11.4381C26.0632 11.3226 26.0364 11.1978 26.0364 11.0716C26.0364 10.9454 26.0632 10.8205 26.115 10.705C26.1668 10.5895 26.2425 10.4859 26.3373 10.4007C26.4321 10.3155 26.5439 10.2507 26.6656 10.2103C26.7873 10.1699 26.9163 10.1549 27.0442 10.1661H28.1207V8.6631L15.9848 2.27428L3.86732 8.6631V10.1589H8.95835C9.08631 10.1476 9.21525 10.1627 9.33696 10.2031C9.45868 10.2435 9.5705 10.3083 9.6653 10.3935C9.76011 10.4787 9.83582 10.5823 9.88762 10.6978C9.93942 10.8133 9.96617 10.9381 9.96617 11.0643C9.96617 11.1905 9.93942 11.3154 9.88762 11.4309C9.83582 11.5464 9.76011 11.65 9.6653 11.7352C9.5705 11.8204 9.45868 11.8852 9.33696 11.9256C9.21525 11.966 9.08631 11.981 8.95835 11.9698H2.94201C2.81953 11.9707 2.69805 11.948 2.58452 11.9028C2.47099 11.8576 2.36763 11.7909 2.28034 11.7065C2.19305 11.6221 2.12353 11.5216 2.07577 11.4108C2.028 11.3 2.00292 11.181 2.00196 11.0607V8.11983C2.00142 7.95605 2.04647 7.79525 2.13224 7.65481C2.21801 7.51437 2.34123 7.39964 2.48857 7.32304L15.524 0.441663C15.6608 0.370315 15.8133 0.333008 15.9682 0.333008C16.1231 0.333008 16.2756 0.370315 16.4124 0.441663L29.4183 7.29044C29.579 7.36412 29.715 7.48128 29.8103 7.62817C29.9056 7.77507 29.9564 7.94562 29.9566 8.11983V11.0716C29.9571 11.1914 29.9333 11.3101 29.8868 11.4209C29.8402 11.5316 29.7717 11.6322 29.6853 11.7167C29.5989 11.8013 29.4963 11.8682 29.3834 11.9135C29.2705 11.9588 29.1495 11.9816 29.0276 11.9806L27.0442 11.977ZM11.443 11.977C11.2128 11.9568 10.9987 11.8526 10.8427 11.6851C10.6867 11.5175 10.6002 11.2986 10.6002 11.0716C10.6002 10.8445 10.6867 10.6257 10.8427 10.4581C10.9987 10.2905 11.2128 10.1864 11.443 10.1661H24.4969C24.7271 10.1864 24.9412 10.2905 25.0972 10.4581C25.2532 10.6257 25.3397 10.8445 25.3397 11.0716C25.3397 11.2986 25.2532 11.5175 25.0972 11.6851C24.9412 11.8526 24.7271 11.9568 24.4969 11.977H11.443Z" fill="black"/>
<path d="M4.01823 13.4443C4.04666 13.2239 4.15596 13.0212 4.32563 12.8743C4.49531 12.7274 4.71369 12.6464 4.93985 12.6464C5.166 12.6464 5.38439 12.7274 5.55406 12.8743C5.72373 13.0212 5.83303 13.2239 5.86147 13.4443V19.9889H8.02175V11.0684C8.05018 10.848 8.15948 10.6454 8.32915 10.4985C8.49883 10.3516 8.71721 10.2705 8.94337 10.2705C9.16952 10.2705 9.38791 10.3516 9.55758 10.4985C9.72725 10.6454 9.83655 10.848 9.86499 11.0684V20.8979C9.86549 21.0176 9.84174 21.1361 9.79514 21.2467C9.74854 21.3572 9.68001 21.4576 9.59355 21.5418C9.50709 21.6261 9.40442 21.6926 9.29153 21.7375C9.17864 21.7824 9.05778 21.8048 8.93599 21.8034H4.94353C4.82206 21.8043 4.7016 21.7816 4.58913 21.7365C4.47667 21.6914 4.37444 21.6248 4.28837 21.5405C4.2023 21.4563 4.1341 21.3562 4.08773 21.2458C4.04136 21.1355 4.01773 21.0173 4.01823 20.8979V13.4443Z" fill="black"/>
<path d="M18.6979 18.9341C18.5715 19.1333 18.3715 19.2768 18.1399 19.3345C17.9082 19.3922 17.6628 19.3596 17.4551 19.2435C17.2473 19.1274 17.0934 18.9369 17.0254 18.7117C16.9575 18.4866 16.9808 18.2444 17.0906 18.0358C17.6429 17.0552 18.4035 16.2028 19.3207 15.5365C20.2379 14.8702 21.2904 14.4056 22.4065 14.1742C23.5227 13.9428 24.6765 13.95 25.7896 14.1955C26.9026 14.4409 27.9489 14.9187 28.8574 15.5965C29.7659 16.2743 30.5153 17.1362 31.0547 18.1237C31.5942 19.1112 31.9111 20.2012 31.9838 21.3196C32.0566 22.4381 31.8836 23.5588 31.4765 24.6058C31.0695 25.6527 30.4379 26.6013 29.6246 27.3873C28.5128 28.4754 27.0982 29.2162 25.5589 29.5164C24.0196 29.8165 22.4242 29.6627 20.9737 29.0743C19.5231 28.4858 18.2821 27.489 17.4069 26.2092C16.5316 24.9295 16.0611 23.424 16.0547 21.8822C16.0547 21.7301 16.0547 21.5526 16.0731 21.3679C16.0916 21.1832 16.1063 21.0383 16.1284 20.85C16.1607 20.6098 16.2887 20.3921 16.4844 20.2447C16.68 20.0973 16.9273 20.0323 17.1717 20.064C17.4161 20.0957 17.6377 20.2215 17.7877 20.4138C17.9378 20.606 18.0039 20.8489 17.9717 21.089C17.9496 21.2185 17.9348 21.3491 17.9274 21.4802C17.9274 21.5961 17.9274 21.7301 17.9274 21.8822C17.9252 22.8677 18.1706 23.8385 18.6419 24.7084C19.1132 25.5784 19.7958 26.3206 20.6292 26.8691C21.4625 27.4177 22.4208 27.7556 23.419 27.853C24.4172 27.9504 25.4244 27.8042 26.3513 27.4274C27.2782 27.0505 28.096 26.4547 28.7323 25.6928C29.3685 24.9309 29.8035 24.0265 29.9986 23.0598C30.1937 22.0932 30.1428 21.0941 29.8506 20.1514C29.5583 19.2086 29.0337 18.3513 28.3233 17.6556C27.3684 16.7278 26.1302 16.1333 24.7985 15.9632C23.4667 15.7931 22.1149 16.0568 20.9503 16.7139C20.0198 17.2516 19.2465 18.0164 18.7053 18.9341H18.6979Z" fill="black"/>
<path d="M23.0849 18.9347C23.0683 18.8062 23.0797 18.6756 23.1185 18.5518C23.1572 18.428 23.2223 18.3137 23.3095 18.2165C23.3967 18.1193 23.5039 18.0414 23.6241 17.9881C23.7443 17.9348 23.8746 17.9072 24.0065 17.9072C24.1383 17.9072 24.2687 17.9348 24.3889 17.9881C24.509 18.0414 24.6163 18.1193 24.7035 18.2165C24.7906 18.3137 24.8558 18.428 24.8945 18.5518C24.9332 18.6756 24.9447 18.8062 24.9281 18.9347V24.8309C24.8997 25.0513 24.7904 25.254 24.6207 25.4009C24.451 25.5478 24.2326 25.6289 24.0065 25.6289C23.7803 25.6289 23.5619 25.5478 23.3923 25.4009C23.2226 25.254 23.1133 25.0513 23.0849 24.8309V18.9347Z" fill="black"/>
<path d="M20.9945 22.7845C20.7643 22.7643 20.5501 22.6601 20.3942 22.4926C20.2382 22.325 20.1517 22.1061 20.1517 21.8791C20.1517 21.652 20.2382 21.4332 20.3942 21.2656C20.5501 21.098 20.7643 20.9939 20.9945 20.9736H27.044C27.2742 20.9939 27.4884 21.098 27.6443 21.2656C27.8003 21.4332 27.8868 21.652 27.8868 21.8791C27.8868 22.1061 27.8003 22.325 27.6443 22.4926C27.4884 22.6601 27.2742 22.7643 27.044 22.7845H20.9945Z" fill="black"/>
<path d="M15.9846 25.8664C16.1125 25.8551 16.2415 25.8702 16.3632 25.9106C16.4849 25.9509 16.5967 26.0158 16.6915 26.101C16.7863 26.1861 16.8621 26.2898 16.9139 26.4053C16.9657 26.5208 16.9924 26.6456 16.9924 26.7718C16.9924 26.898 16.9657 27.0229 16.9139 27.1384C16.8621 27.2539 16.7863 27.3575 16.6915 27.4427C16.5967 27.5279 16.4849 27.5927 16.3632 27.6331C16.2415 27.6735 16.1125 27.6885 15.9846 27.6773H0.928994C0.683246 27.6773 0.44751 27.5816 0.273396 27.4112C0.0992814 27.2409 0.000975187 27.0096 0 26.7682V23.8491C0.000950692 23.6066 0.0989001 23.3743 0.272706 23.2021C0.446512 23.03 0.682235 22.932 0.928994 22.9291H9.68808C9.90798 22.9627 10.1084 23.0724 10.2532 23.2384C10.398 23.4045 10.4776 23.6159 10.4776 23.8346C10.4776 24.0532 10.398 24.2646 10.2532 24.4307C10.1084 24.5967 9.90798 24.7064 9.68808 24.74H1.8543V25.8664H15.9846ZM12.1396 24.7436C11.9197 24.7101 11.7192 24.6003 11.5745 24.4343C11.4297 24.2683 11.3501 24.0568 11.3501 23.8382C11.3501 23.6195 11.4297 23.4081 11.5745 23.2421C11.7192 23.076 11.9197 22.9663 12.1396 22.9327H12.7405C12.9604 22.9663 13.1608 23.076 13.3056 23.2421C13.4504 23.4081 13.53 23.6195 13.53 23.8382C13.53 24.0568 13.4504 24.2683 13.3056 24.4343C13.1608 24.6003 12.9604 24.7101 12.7405 24.7436H12.1396ZM15.1441 24.7436C14.9242 24.7101 14.7237 24.6003 14.5789 24.4343C14.4342 24.2683 14.3546 24.0568 14.3546 23.8382C14.3546 23.6195 14.4342 23.4081 14.5789 23.2421C14.7237 23.076 14.9242 22.9663 15.1441 22.9327H17.2749C17.4079 22.9124 17.5437 22.9207 17.6732 22.9568C17.8027 22.993 17.9226 23.0563 18.0248 23.1423C18.127 23.2283 18.2091 23.3351 18.2654 23.4552C18.3216 23.5753 18.3507 23.706 18.3507 23.8382C18.3507 23.9704 18.3216 24.1011 18.2654 24.2212C18.2091 24.3413 18.127 24.4481 18.0248 24.5341C17.9226 24.6201 17.8027 24.6834 17.6732 24.7195C17.5437 24.7557 17.4079 24.7639 17.2749 24.7436H15.1441Z" fill="black"/>
<path d="M3.86731 23.8488C3.86731 24.0918 3.76905 24.3249 3.59414 24.4967C3.41923 24.6686 3.182 24.7651 2.93463 24.7651C2.68727 24.7651 2.45004 24.6686 2.27513 24.4967C2.10022 24.3249 2.00195 24.0918 2.00195 23.8488V20.8971C2.00292 20.7767 2.028 20.6578 2.07576 20.547C2.12353 20.4361 2.19304 20.3357 2.28033 20.2512C2.36763 20.1668 2.47099 20.1001 2.58452 20.055C2.69805 20.0098 2.81952 19.987 2.94201 19.988H17.0539C17.1818 19.9767 17.3108 19.9918 17.4325 20.0322C17.5542 20.0726 17.666 20.1374 17.7608 20.2226C17.8556 20.3078 17.9313 20.4114 17.9831 20.5269C18.0349 20.6424 18.0617 20.7672 18.0617 20.8934C18.0617 21.0197 18.0349 21.1445 17.9831 21.26C17.9313 21.3755 17.8556 21.4791 17.7608 21.5643C17.666 21.6495 17.5542 21.7143 17.4325 21.7547C17.3108 21.7951 17.1818 21.8101 17.0539 21.7989H3.86731V23.8488Z" fill="black"/>
<path d="M23.9364 15.0743C23.9079 15.2948 23.7986 15.4974 23.6289 15.6443C23.4593 15.7912 23.2409 15.8723 23.0147 15.8723C22.7886 15.8723 22.5702 15.7912 22.4005 15.6443C22.2308 15.4974 22.1215 15.2948 22.0931 15.0743V11.0687C22.1215 10.8482 22.2308 10.6456 22.4005 10.4987C22.5702 10.3518 22.7886 10.2707 23.0147 10.2707C23.2409 10.2707 23.4593 10.3518 23.6289 10.4987C23.7986 10.6456 23.9079 10.8482 23.9364 11.0687V15.0743ZM26.0856 11.0687C26.0856 10.8256 26.1838 10.5926 26.3587 10.4207C26.5337 10.2489 26.7709 10.1523 27.0183 10.1523C27.2656 10.1523 27.5028 10.2489 27.6778 10.4207C27.8527 10.5926 27.9509 10.8256 27.9509 11.0687V15.6611C27.9509 15.9041 27.8527 16.1372 27.6778 16.309C27.5028 16.4808 27.2656 16.5774 27.0183 16.5774C26.7709 16.5774 26.5337 16.4808 26.3587 16.309C26.1838 16.1372 26.0856 15.9041 26.0856 15.6611V11.0687Z" fill="black"/>
<path d="M17.0538 19.9882C17.1817 19.9769 17.3107 19.992 17.4324 20.0323C17.5541 20.0727 17.6659 20.1376 17.7607 20.2228C17.8555 20.3079 17.9313 20.4116 17.9831 20.5271C18.0349 20.6426 18.0616 20.7674 18.0616 20.8936C18.0616 21.0198 18.0349 21.1447 17.9831 21.2602C17.9313 21.3757 17.8555 21.4793 17.7607 21.5645C17.6659 21.6496 17.5541 21.7145 17.4324 21.7549C17.3107 21.7953 17.1817 21.8103 17.0538 21.7991H13.9756C13.8532 21.802 13.7314 21.7808 13.6175 21.7367C13.5036 21.6927 13.3997 21.6268 13.3122 21.5427C13.2246 21.4587 13.155 21.3583 13.1074 21.2474C13.0599 21.1366 13.0355 21.0175 13.0355 20.8972V11.0677C13.0345 10.9481 13.0578 10.8294 13.104 10.7187C13.1501 10.608 13.2182 10.5074 13.3043 10.4228C13.3905 10.3382 13.4929 10.2712 13.6056 10.2259C13.7183 10.1806 13.839 10.1577 13.9608 10.1587H17.9791C18.1031 10.1548 18.2266 10.1754 18.3423 10.2194C18.4579 10.2633 18.5635 10.3297 18.6525 10.4145C18.7416 10.4993 18.8124 10.6008 18.8607 10.713C18.9091 10.8252 18.934 10.9459 18.9339 11.0677V14.6895C18.9055 14.9099 18.7962 15.1126 18.6265 15.2595C18.4568 15.4064 18.2384 15.4874 18.0123 15.4874C17.7861 15.4874 17.5677 15.4064 17.3981 15.2595C17.2284 15.1126 17.1191 14.9099 17.0907 14.6895V11.9768H14.9046V19.9882H17.0538Z" fill="black"/>
</svg>
