<svg width="36" height="36" viewBox="0 0 36 36" fill="none" xmlns="http://www.w3.org/2000/svg">
<path d="M28.995 28.933C28.455 29.113 27.9664 29.305 27.4521 29.4473C27.1351 29.5284 26.809 29.5687 26.4818 29.5673C21.0589 29.5742 15.6367 29.5742 10.215 29.5673C9.2845 29.5577 8.36407 29.374 7.50124 29.0256C7.15838 28.8902 7.21152 28.8336 7.03666 29.2244C6.65609 30.0816 6.27724 30.9387 5.89324 31.7959C5.83331 31.937 5.73597 32.0591 5.61171 32.149C5.48746 32.2388 5.34102 32.293 5.18821 32.3057C5.0354 32.3184 4.88202 32.2892 4.74463 32.221C4.60725 32.1529 4.49108 32.0486 4.40867 31.9193C4.33358 31.8014 4.29004 31.6661 4.28223 31.5266C4.27443 31.387 4.30262 31.2477 4.3641 31.1222C4.78924 30.157 5.21266 29.1919 5.64466 28.2302C5.68897 28.1643 5.70621 28.0839 5.6928 28.0057C5.6794 27.9275 5.63637 27.8575 5.57267 27.8102C5.17695 27.4333 4.85999 26.9817 4.64017 26.4814C4.42034 25.9811 4.30204 25.4422 4.2921 24.8959C4.2681 23.8193 4.26638 22.741 4.24409 21.6644C4.22524 20.8382 4.20981 20.0102 4.15838 19.1856C4.1496 19.0585 4.16805 18.931 4.21249 18.8117C4.25692 18.6923 4.32633 18.5838 4.41607 18.4934C4.50581 18.403 4.61381 18.3328 4.73286 18.2875C4.85191 18.2422 4.97926 18.2229 5.10639 18.2307C13.167 18.2422 21.2287 18.2422 29.2915 18.2307C29.6687 18.2307 29.6687 18.2307 29.6687 17.8433C29.6687 15.4536 29.6584 13.0639 29.6772 10.6742C29.6826 10.1404 29.5653 9.61254 29.3344 9.1313C28.9964 8.34818 28.4599 7.66686 27.7778 7.15473C27.6972 7.09644 27.6064 7.04501 27.5258 6.99358C27.4967 6.97644 27.4607 6.96787 27.3955 6.94044C27.3458 7.20273 27.2944 7.45473 27.2515 7.69644C27.0338 8.94958 26.8229 10.2044 26.6018 11.4576C26.5769 11.5915 26.5195 11.7172 26.4347 11.8237C26.3498 11.9302 26.2401 12.0142 26.1152 12.0684C25.9902 12.1226 25.8539 12.1452 25.7182 12.1344C25.5824 12.1235 25.4514 12.0795 25.3367 12.0062C24.5378 11.5519 23.7424 11.0907 22.9367 10.6347C21.3629 9.7273 19.7892 8.8193 18.2155 7.91073C17.7012 7.60901 17.5641 7.07073 17.8984 6.63187C17.9525 6.56768 18.0141 6.51014 18.0818 6.46044C19.2098 5.58787 20.3412 4.72044 21.4675 3.84444C21.5974 3.73308 21.7563 3.66091 21.9257 3.63632C22.095 3.61174 22.2679 3.63576 22.4241 3.70559C23.3121 4.04844 24.203 4.3913 25.0967 4.73416C25.2548 4.79848 25.4232 4.8339 25.5938 4.83873C27.6818 4.82844 29.2127 5.80901 30.3081 7.51987C30.62 8.05448 30.8943 8.61011 31.1292 9.18273C31.2653 9.5044 31.3291 9.852 31.3161 10.201C31.3161 15.1176 31.3024 20.0324 31.3161 24.9439C31.3059 25.7078 31.0923 26.4551 30.6972 27.109C30.6214 27.2537 30.5313 27.3904 30.4281 27.517C30.3705 27.5735 30.3338 27.6479 30.3242 27.728C30.3145 27.8081 30.3324 27.889 30.375 27.9576C30.8395 28.9862 31.2887 30.0147 31.7464 31.0433C31.8259 31.1837 31.865 31.3433 31.8596 31.5045C31.8542 31.6657 31.8043 31.8223 31.7155 31.957C31.6332 32.0814 31.5188 32.1811 31.3844 32.2458C31.25 32.3105 31.1007 32.3377 30.9521 32.3246C30.8035 32.3114 30.6613 32.2583 30.5404 32.171C30.4195 32.0837 30.3244 31.9653 30.2652 31.8284C29.8658 30.9713 29.4887 30.0867 29.1012 29.2142C29.0772 29.1079 29.0292 29.0067 28.995 28.933ZM17.7664 19.9004H6.28067C5.86924 19.9004 5.83323 19.837 5.8898 20.3359C5.89322 20.3855 5.89322 20.4354 5.8898 20.485C5.91209 21.8684 5.93952 23.2519 5.95495 24.6353C5.96866 25.7239 6.42809 26.5536 7.36238 27.1124C8.16228 27.573 9.06136 27.8341 9.98352 27.8736C10.5732 27.913 11.1664 27.901 11.7578 27.901C16.6504 27.901 21.5435 27.893 26.4372 27.877C26.8858 27.889 27.3317 27.8055 27.7455 27.632C28.1592 27.4585 28.5314 27.199 28.8372 26.8707C29.3687 26.2947 29.6944 25.6382 29.6841 24.8136C29.6567 23.3153 29.6755 21.817 29.6755 20.3187C29.6755 20.2622 29.6755 20.2039 29.6755 20.1473C29.6927 19.9673 29.6241 19.8764 29.4338 19.897C29.3635 19.897 29.2915 19.897 29.2195 19.897L17.7664 19.9004ZM25.1378 9.96616C25.1531 9.93685 25.1663 9.90649 25.1772 9.8753C25.3327 8.99416 25.487 8.11244 25.6401 7.23016C25.6475 7.19701 25.6479 7.1627 25.6414 7.12937C25.6349 7.09604 25.6217 7.0644 25.6024 7.03644C25.3127 6.80844 25.0384 6.53416 24.7075 6.38844C23.9412 6.04558 23.1458 5.77644 22.3641 5.46959C22.3103 5.44503 22.2503 5.43713 22.192 5.44691C22.1336 5.45668 22.0795 5.48369 22.0367 5.52444C21.6681 5.81759 21.2927 6.10045 20.9207 6.38159C20.6481 6.59245 20.3755 6.80673 20.0738 7.0433L25.1378 9.96616Z" fill="#613ED2"/>
<path d="M17.5528 14.861C17.3178 14.8649 17.088 14.7913 16.899 14.6516C16.7099 14.5118 16.5722 14.3137 16.5071 14.0879C16.4008 13.6421 16.6168 13.2307 17.0814 12.9856C17.7671 12.6279 18.4482 12.2701 19.1248 11.9124C19.2815 11.8255 19.457 11.7779 19.6361 11.7737C19.8153 11.7696 19.9928 11.8089 20.1534 11.8884C20.3058 11.9523 20.4379 12.0564 20.5358 12.1895C20.6336 12.3227 20.6934 12.4799 20.7088 12.6444C20.7408 12.8226 20.7155 13.0062 20.6367 13.1691C20.5578 13.332 20.4295 13.4658 20.2699 13.5513C19.5105 13.973 18.7374 14.3724 17.9642 14.7684C17.8316 14.8167 17.6933 14.8478 17.5528 14.861Z" fill="#613ED2"/>
<path d="M16.1673 10.5898C16.3239 10.595 16.4778 10.632 16.6195 10.6986C16.7613 10.7652 16.888 10.86 16.9919 10.9773C17.0867 11.08 17.1568 11.203 17.1968 11.337C17.2367 11.471 17.2454 11.6123 17.2222 11.7502C17.199 11.888 17.1446 12.0187 17.0631 12.1323C16.9816 12.2459 16.8751 12.3392 16.7519 12.4053C16.0199 12.8167 15.2793 13.2144 14.5233 13.5796C13.805 13.9224 12.9805 13.4321 12.9805 12.695C12.9802 12.5229 13.0283 12.3542 13.1192 12.2082C13.2101 12.0621 13.3403 11.9445 13.4948 11.8687C14.2045 11.4881 14.9159 11.1127 15.6325 10.7493C15.8055 10.68 15.9846 10.6266 16.1673 10.5898Z" fill="#613ED2"/>
<path d="M24.2142 14.0656C24.1967 14.2121 24.1424 14.3519 24.0564 14.4718C23.9704 14.5917 23.8554 14.6878 23.7222 14.7513C22.9999 15.1422 22.2748 15.5239 21.5468 15.8965C21.3881 15.9805 21.211 16.0238 21.0314 16.0223C20.8518 16.0208 20.6755 15.9746 20.5182 15.8879C20.3579 15.8144 20.2225 15.6958 20.1284 15.5467C20.0344 15.3975 19.9857 15.2242 19.9885 15.0479C19.9848 14.8692 20.0328 14.6932 20.1268 14.5411C20.2208 14.389 20.3567 14.2674 20.5182 14.1907C21.021 13.9199 21.5262 13.6559 22.0336 13.3987C22.3293 13.229 22.6404 13.0878 22.9628 12.977C23.5765 12.8039 24.2176 13.3182 24.2142 14.0656Z" fill="#613ED2"/>
</svg>
