<svg width="39" height="26" viewBox="0 0 39 26" fill="none" xmlns="http://www.w3.org/2000/svg">
<path d="M34.308 4.05631V9.4325V4.05631ZM34.308 4.05631C34.2958 3.24945 33.97 2.47895 33.3993 1.90831C32.8289 1.33797 32.0585 1.01215 31.2516 1M34.308 4.05631L31.2516 1M31.2516 1H7.93476M31.2516 1H7.93476M7.93476 1C7.1279 1.01212 6.3574 1.33798 5.78676 1.90831L7.93476 1ZM38.3331 14.9608C38.3313 14.8407 38.3045 14.7226 38.2552 14.6136V12.5577V12.5574C38.2531 11.7294 37.9233 10.9356 37.3377 10.3501C36.752 9.76454 35.9584 9.43469 35.1303 9.4325H35.13H34.408L34.408 4.05631L34.4079 4.05481C34.3954 3.22195 34.0591 2.42663 33.47 1.8376C32.8813 1.24886 32.0859 0.912547 31.2531 0.900011V0.9H31.2516H7.93476V0.899989L7.93326 0.900011C7.10041 0.912522 6.3051 1.24888 5.71607 1.83758L5.71603 1.83762C5.12732 2.42669 4.791 3.22201 4.77846 4.0548L4.77845 4.0548V4.05631V9.4325H4.10276L4.1025 9.4325C3.27442 9.43465 2.48066 9.76445 1.89513 10.3501C1.30961 10.9357 0.979758 11.7293 0.977569 12.5574V12.5577V14.6143C0.928504 14.7231 0.901849 14.841 0.900012 14.9608H0.9V14.9623V24.2706C0.9 24.5028 0.992252 24.7256 1.15646 24.8898C1.32066 25.054 1.54349 25.1463 1.77569 25.1463H37.4574C37.6896 25.1463 37.9125 25.054 38.0767 24.8898C38.2409 24.7256 38.3331 24.5028 38.3331 24.2706L38.3331 14.9623L38.3331 14.9608ZM35.13 9.5325H34.408H35.13ZM7.88019 7.98079V9.43217H6.52882L6.52907 4.05605C6.52907 3.68331 6.67713 3.32609 6.94061 3.06259C7.20409 2.7991 7.56131 2.65105 7.93406 2.65105H31.2509C31.6236 2.65105 31.9808 2.79911 32.2443 3.0626C32.5078 3.32608 32.6558 3.68329 32.6558 4.05604V9.43224H31.3508L31.3508 7.98086L31.3508 7.97894C31.3385 7.3398 31.0791 6.72988 30.6269 6.27774C30.1747 5.82556 29.5648 5.56608 28.9257 5.55381V5.5538H28.9238L22.7182 5.55378L22.7163 5.55381C22.0772 5.56608 21.4673 5.82556 21.0151 6.27774C20.563 6.72992 20.3035 7.3398 20.2912 7.97894L20.2912 7.97894V7.98086V9.43224H19.0174L19.0174 7.98086L19.0174 7.97892C19.0047 7.32573 18.7341 6.70391 18.2646 6.24955C17.7952 5.79534 17.165 5.54528 16.512 5.55377L10.346 5.55377L10.3457 5.55377C9.6994 5.55593 9.07941 5.81068 8.61893 6.26397C8.1581 6.71721 7.89284 7.33249 7.88021 7.97884L7.88019 7.97884V7.98079ZM17.2275 7.98086V9.43224H9.63183V7.98086L9.63183 7.98069C9.63153 7.79569 9.70743 7.61863 9.8414 7.4906C9.97574 7.36292 10.1565 7.29569 10.3413 7.30504L10.3412 7.30517H10.3463H16.5518C16.731 7.30517 16.903 7.37636 17.0296 7.50304C17.1563 7.62972 17.2275 7.80167 17.2275 7.98086ZM36.1008 11.5861L36.1009 11.5862C36.3588 11.8438 36.5034 12.193 36.5034 12.5574V14.0864H2.7282V12.5574C2.7282 12.193 2.8728 11.8438 3.13069 11.5862L3.13078 11.5861C3.38833 11.3282 3.73755 11.1836 4.102 11.1836C4.102 11.1836 4.10201 11.1836 4.10202 11.1836H35.1296C35.494 11.1836 35.8433 11.3282 36.1008 11.5861ZM22.0429 9.43224V7.98086C22.0429 7.60773 22.3454 7.30517 22.7186 7.30517H28.9241C29.1033 7.30517 29.2752 7.37636 29.4019 7.50304C29.5286 7.62972 29.5998 7.80167 29.5998 7.98086V9.43224H22.0429ZM36.581 23.3947H2.65062V15.8378H36.581V23.3947Z" fill="#613ED2" stroke="white" stroke-width="0.2"/>
</svg>
