<svg width="20" height="16" viewBox="0 0 20 16" fill="none" xmlns="http://www.w3.org/2000/svg">
<path d="M18.6129 4.91781L18.6644 5.06992C18.6325 6.00375 17.8485 6.76925 16.8736 6.76925C16.3337 6.76925 15.8602 6.54048 15.5275 6.16865L15.1549 5.75216L14.7823 6.16866C14.4496 6.54049 13.9761 6.76925 13.4362 6.76925C12.8962 6.76925 12.4227 6.54048 12.0901 6.16865L11.7174 5.75216L11.3448 6.16866C11.0121 6.54049 10.5386 6.76925 9.9987 6.76925C9.45878 6.76925 8.98527 6.54048 8.65259 6.16865L8.27996 5.75216L7.90733 6.16866C7.57466 6.54049 7.10115 6.76925 6.56123 6.76925C6.02132 6.76925 5.54781 6.54048 5.21513 6.16865L4.8425 5.75216L4.46987 6.16866C4.1372 6.54049 3.66369 6.76925 3.12377 6.76925C2.14893 6.76925 1.36487 6.00378 1.33304 5.06992L1.38449 4.91787L4.19748 1.04021C4.22456 1.00807 4.25379 1 4.2696 1H15.7278C15.7436 1 15.7729 1.00807 15.7999 1.04021L18.6129 4.91781Z" stroke="#040407"/>
<path d="M16.8722 8.89333C17.0933 8.89333 17.3089 8.87242 17.5181 8.83513V14.0345C17.5181 14.3739 17.2359 14.6627 16.8722 14.6627H16.2264V9.52166V9.02166H15.7264H12.289H11.789V9.52166V14.6627H3.12238C2.7587 14.6627 2.47656 14.3739 2.47656 14.0345V8.81311C3.26962 8.94519 4.10374 8.85081 4.84129 8.50122C5.90797 9.0067 7.21192 9.00667 8.27857 8.50114C9.34534 9.00679 10.6487 9.00664 11.716 8.50104C12.7832 9.0066 14.0854 9.00673 15.1527 8.50143C15.6835 8.75667 16.271 8.89333 16.8722 8.89333ZM8.85149 13.4064H9.35149V12.9064V9.52178V9.02178H8.85149H4.26821H3.76821V9.52178V12.9064V13.4064H4.26821H8.85149Z" fill="#040407" stroke="#040407"/>
</svg>
