<svg width="36" height="41" viewBox="0 0 36 41" fill="none" xmlns="http://www.w3.org/2000/svg">
<path d="M4.34687 39.0017V39.2017H4.54688H27.4569H27.4574H27.6574V39.0017V21.6354V21.5482L27.5935 21.4888L16.1387 10.8534L16.0027 10.7271L15.8666 10.8534L4.4108 21.4888L4.34687 21.5482V21.6354V39.0017ZM26.5179 22.0879V38.005H5.48582L5.4853 22.0879L16.0021 12.3245L26.5179 22.0879Z" fill="#613ED2" stroke="#613ED2" stroke-width="0.4"/>
<line x1="12.8" y1="28" x2="12.8" y2="38" stroke="#613ED2" stroke-width="1.6"/>
<line x1="19.8" y1="28" x2="19.8" y2="38" stroke="#613ED2" stroke-width="1.6"/>
<line x1="12" y1="28.2" x2="20.5977" y2="28.2" stroke="#613ED2" stroke-width="1.6"/>
<path d="M27.5827 2.83703L27.5827 2.83704C26.8453 2.93356 26.2856 3.25661 25.9904 3.73234C25.703 4.19573 25.6507 4.81147 25.8569 5.52875L27.6332 7.3409C27.8348 7.45754 28.4703 7.83435 29.1697 8.34445C29.8812 8.86341 30.6686 9.52728 31.1281 10.2009M27.5827 2.83703L31.0455 10.2572M27.5827 2.83703C27.9313 2.79126 28.2008 2.52187 28.255 2.17096M27.5827 2.83703L22.8963 2.25681M31.1281 10.2009L31.0455 10.2572M31.1281 10.2009C31.1281 10.2009 31.1281 10.2009 31.1281 10.2008L31.0455 10.2572M31.1281 10.2009C31.3306 10.4975 31.6535 10.8107 32.0303 11.1255C32.4061 11.4395 32.8294 11.7502 33.2291 12.0436L33.17 12.1242M31.0455 10.2572C31.4665 10.8739 32.3715 11.5382 33.17 12.1242M33.17 12.1242L33.2291 12.0436C33.7661 12.4377 34.194 12.7569 34.5013 13.0436C34.8076 13.3294 35.0078 13.595 35.0704 13.8858L33.17 12.1242ZM22.8963 2.25681L22.8964 2.25668C23.6802 1.46004 24.6741 0.980426 25.6973 0.910486C26.4241 0.858469 27.138 1.00026 27.818 1.32928C28.134 1.48129 28.3091 1.82079 28.255 2.17096M22.8963 2.25681L20.8064 4.38862C20.8064 4.38863 20.8064 4.38864 20.8064 4.38865C20.4605 4.74126 20.27 5.21024 20.27 5.70816C20.27 5.93544 20.1831 6.14871 20.0251 6.30979L19.819 6.51991C19.6784 6.41993 19.5113 6.36606 19.336 6.36606C19.108 6.36606 18.8938 6.45713 18.736 6.6202C18.7359 6.62029 18.7358 6.62038 18.7357 6.62047L18.1747 7.19221L18.1747 7.19222M22.8963 2.25681L18.1747 7.19222M28.255 2.17096L28.1561 2.15569M28.255 2.17096C28.255 2.17095 28.255 2.17095 28.255 2.17094L28.1561 2.15569M28.1561 2.15569C28.2037 1.84792 28.0499 1.55173 27.7744 1.4193L27.5697 2.73789C27.8729 2.69806 28.1086 2.46396 28.1561 2.15569ZM18.1747 7.19222C17.8085 7.56548 17.8084 8.17179 18.1747 8.54502L19.8343 10.2368L19.8344 10.2368M18.1747 7.19222L19.8344 10.2368M19.8344 10.2368C20.0121 10.4178 20.2492 10.5181 20.5016 10.5181C20.7538 10.5181 20.991 10.4178 21.1688 10.2368L21.1688 10.2368M19.8344 10.2368L21.1688 10.2368M21.1688 10.2368L21.7287 9.66604C21.8867 9.50499 21.977 9.28324 21.977 9.05666C21.977 8.87812 21.9237 8.70714 21.8243 8.56312L22.1446 8.23675L22.1447 8.23671M21.1688 10.2368L22.1447 8.23671M22.1447 8.23671C22.2772 8.10154 22.43 7.99477 22.6025 7.91735L22.6025 7.91735M22.1447 8.23671L22.6025 7.91735M22.6025 7.91735L22.6034 7.91695M22.6025 7.91735L22.6034 7.91695M22.6034 7.91695C22.7684 7.841 22.9488 7.79655 23.1374 7.78538C23.568 7.76355 23.9903 7.92789 24.2933 8.23673L24.2933 8.23673M22.6034 7.91695L24.2933 8.23673M24.2933 8.23673L25.521 9.48802C25.6352 9.69356 26.0045 10.3419 26.5047 11.0554C27.0134 11.7809 27.6644 12.584 28.3257 13.0526L28.3258 13.0527M24.2933 8.23673L28.3258 13.0527M28.3258 13.0527C28.6174 13.2588 28.9251 13.5879 29.2346 13.9723C29.5432 14.3556 29.8485 14.7874 30.1367 15.1952C30.523 15.7416 30.8358 16.1769 31.1164 16.4895C31.3958 16.8006 31.6558 17.0049 31.9408 17.0687C32.0319 17.0897 32.1254 17.1 32.2213 17.1C32.6406 17.1 33.0998 16.902 33.5877 16.5303L33.5877 16.5303M28.3258 13.0527L33.5877 16.5303M33.5877 16.5303C33.6112 16.5124 33.633 16.4925 33.6531 16.4706L34.6521 15.3844L34.6521 15.3844M33.5877 16.5303L34.6521 15.3844M34.6521 15.3844C34.6726 15.3621 34.691 15.338 34.707 15.3127M34.6521 15.3844L34.707 15.3127M24.9408 5.95488C24.965 6.03068 25.0065 6.09946 25.0619 6.15593L26.6228 7.74836L25.9237 8.46086L25.0013 7.52071C24.5286 7.03894 23.8836 6.76898 23.2122 6.76898C23.1695 6.76898 23.1267 6.77004 23.0835 6.77229L23.0829 6.77233C22.7694 6.79071 22.4693 6.86478 22.1948 6.99105C21.9118 7.1181 21.6567 7.2964 21.4366 7.52071L21.0208 7.94452C20.7264 8.24455 20.6947 8.71137 20.9252 9.04743L20.5016 9.47925L18.9216 7.86878L19.346 7.43619C19.4868 7.53493 19.6559 7.58988 19.8283 7.58988C20.0555 7.58988 20.2756 7.49609 20.4294 7.33554L20.7331 7.02593L20.7331 7.02592C21.0789 6.67337 21.2694 6.20515 21.2694 5.70828C21.2694 5.47975 21.3564 5.2659 21.5145 5.1046L21.4469 5.03832L21.5145 5.1046L23.6038 2.97314C24.2201 2.34678 24.9881 1.97582 25.7656 1.92261L25.766 1.92258C26.0896 1.89937 26.4028 1.92481 26.7122 1.99983C26.0348 2.2273 25.4899 2.63545 25.1449 3.19153L25.1449 3.19154C24.6718 3.95445 24.6071 4.91305 24.9408 5.95488ZM24.9408 5.95488L25.0361 5.92445L24.9408 5.95495C24.9408 5.95493 24.9408 5.95491 24.9408 5.95488ZM30.3069 10.7786L30.3068 10.7786C29.9725 10.2884 29.3951 9.77755 28.8142 9.33746C28.2741 8.92824 27.7384 8.58564 27.4092 8.38436L26.5482 9.262C26.7453 9.59752 27.0822 10.146 27.4848 10.6988C27.9164 11.2915 28.4173 11.8803 28.8972 12.2203C29.6305 12.7386 30.3334 13.7332 30.9412 14.5932L30.9485 14.6035L30.3069 10.7786ZM30.3069 10.7786C30.8156 11.5239 31.7902 12.2392 32.6331 12.8578L32.6439 12.8657L32.6439 12.8658L32.6442 12.866C32.9297 13.0756 33.2853 13.3366 33.5765 13.5757C33.7224 13.6954 33.85 13.808 33.9439 13.9045C33.9909 13.9528 34.0279 13.9955 34.0541 14.0319C34.0812 14.0694 34.0918 14.0932 34.0947 14.1048C34.1073 14.1633 34.1013 14.2474 34.0666 14.3575C34.0328 14.4646 33.9741 14.5892 33.8901 14.7267M30.3069 10.7786L33.8901 14.7267M34.707 15.3127C35.0331 14.7987 35.1642 14.3159 35.0704 13.8862L34.707 15.3127C34.707 15.3127 34.707 15.3127 34.707 15.3127ZM33.8901 14.7267L32.954 15.7445C32.7789 15.8745 32.6177 15.9683 32.4792 16.0242C32.3369 16.0817 32.2302 16.0947 32.1599 16.0788C32.1497 16.0761 32.127 16.0658 32.0903 16.0382C32.0549 16.0116 32.0132 15.974 31.9659 15.9262C31.8715 15.8307 31.7614 15.7008 31.6441 15.5525C31.4099 15.256 31.154 14.8941 30.9485 14.6036L33.8901 14.7267ZM25.9937 8.53225L25.9237 8.60364L25.8536 8.53225L25.9937 8.53225ZM20.5423 9.52078L20.5423 9.52076C20.5424 9.52085 20.5425 9.52095 20.5426 9.52104L20.5423 9.52078ZM18.8824 7.90879L18.8826 7.90853L18.8824 7.90879Z" fill="#613ED2" stroke="#613ED2" stroke-width="0.2"/>
</svg>
