<svg width="20" height="15" viewBox="0 0 20 15" fill="none" xmlns="http://www.w3.org/2000/svg">
<mask id="path-1-inside-1_12910_2604" fill="white">
<path d="M16.5352 0.333984H3.44284C2.01173 0.333984 0.832031 1.62968 0.832031 3.2155V11.1831C0.832031 12.7689 1.99243 14.0646 3.44284 14.0646H16.5546C17.9857 14.0646 19.1654 12.7689 19.1654 11.1831L19.1652 3.2155C19.1459 1.62979 17.9663 0.333984 16.5352 0.333984ZM3.44284 1.35894H16.5546C17.4248 1.35894 18.1404 2.19044 18.1404 3.21554L18.1209 4.50065H1.83765L1.85699 3.2154C1.85699 2.19044 2.57249 1.35894 3.44284 1.35894ZM16.5352 13.0396H3.44284C2.57263 13.0396 1.85699 12.2081 1.85699 11.183L1.83765 5.52561H18.1016L18.1209 11.183C18.1209 12.2081 17.4054 13.0396 16.5352 13.0396Z"/>
</mask>
<path d="M16.5352 0.333984H3.44284C2.01173 0.333984 0.832031 1.62968 0.832031 3.2155V11.1831C0.832031 12.7689 1.99243 14.0646 3.44284 14.0646H16.5546C17.9857 14.0646 19.1654 12.7689 19.1654 11.1831L19.1652 3.2155C19.1459 1.62979 17.9663 0.333984 16.5352 0.333984ZM3.44284 1.35894H16.5546C17.4248 1.35894 18.1404 2.19044 18.1404 3.21554L18.1209 4.50065H1.83765L1.85699 3.2154C1.85699 2.19044 2.57249 1.35894 3.44284 1.35894ZM16.5352 13.0396H3.44284C2.57263 13.0396 1.85699 12.2081 1.85699 11.183L1.83765 5.52561H18.1016L18.1209 11.183C18.1209 12.2081 17.4054 13.0396 16.5352 13.0396Z" fill="#51566B"/>
<path d="M19.1654 11.1831H20.4987V11.1831L19.1654 11.1831ZM19.1652 3.2155L20.4986 3.21548V3.20738L20.4985 3.19928L19.1652 3.2155ZM18.1404 3.21554L19.4736 3.23574L19.4737 3.22564V3.21554H18.1404ZM18.1209 4.50065V5.83398H19.4342L19.4541 4.52086L18.1209 4.50065ZM1.83765 4.50065L0.504467 4.48059L0.484099 5.83398H1.83765V4.50065ZM1.85699 3.2154L3.19017 3.23546L3.19032 3.22543V3.2154H1.85699ZM1.85699 11.183H3.19033L3.19031 11.1784L1.85699 11.183ZM1.83765 5.52561V4.19228H0.499746L0.504321 5.53017L1.83765 5.52561ZM18.1016 5.52561L19.4349 5.52105L19.4304 4.19228H18.1016V5.52561ZM18.1209 11.183H19.4543L19.4543 11.1784L18.1209 11.183ZM16.5352 -0.999349H3.44284V1.66732H16.5352V-0.999349ZM3.44284 -0.999349C1.15643 -0.999349 -0.501302 1.01814 -0.501302 3.2155H2.16536C2.16536 2.24123 2.86704 1.66732 3.44284 1.66732V-0.999349ZM-0.501302 3.2155V11.1831H2.16536V3.2155H-0.501302ZM-0.501302 11.1831C-0.501302 13.3738 1.13107 15.3979 3.44284 15.3979V12.7313C2.85378 12.7313 2.16536 12.1641 2.16536 11.1831H-0.501302ZM3.44284 15.3979H16.5546V12.7313H3.44284V15.3979ZM16.5546 15.3979C18.841 15.3979 20.4987 13.3805 20.4987 11.1831H17.832C17.832 12.1574 17.1304 12.7313 16.5546 12.7313V15.3979ZM20.4987 11.1831L20.4986 3.21548L17.8319 3.21552L17.832 11.1831L20.4987 11.1831ZM20.4985 3.19928C20.4719 1.0171 18.823 -0.999349 16.5352 -0.999349V1.66732C17.1096 1.66732 17.82 2.24248 17.832 3.23172L20.4985 3.19928ZM3.44284 2.69227H16.5546V0.0256081H3.44284V2.69227ZM16.5546 2.69227C16.556 2.69227 16.562 2.69193 16.577 2.69937C16.594 2.70778 16.625 2.72792 16.661 2.76999C16.735 2.85646 16.8071 3.01037 16.8071 3.21554H19.4737C19.4737 1.65579 18.3479 0.0256081 16.5546 0.0256081V2.69227ZM16.8072 3.19533L16.7877 4.48045L19.4541 4.52086L19.4736 3.23574L16.8072 3.19533ZM18.1209 3.16732H1.83765V5.83398H18.1209V3.16732ZM3.17083 4.52071L3.19017 3.23546L0.523809 3.19533L0.504467 4.48059L3.17083 4.52071ZM3.19032 3.2154C3.19032 3.01027 3.26236 2.8564 3.33636 2.76996C3.37237 2.72791 3.40332 2.70779 3.42028 2.69938C3.43526 2.69195 3.44128 2.69227 3.44284 2.69227V0.0256081C1.64939 0.0256081 0.523658 1.65581 0.523658 3.2154H3.19032ZM16.5352 11.7063H3.44284V14.3729H16.5352V11.7063ZM3.44284 11.7063C3.44135 11.7063 3.43535 11.7066 3.42037 11.6992C3.40339 11.6907 3.37243 11.6706 3.33641 11.6285C3.26238 11.5421 3.19032 11.3882 3.19032 11.183H0.523655C0.523655 12.7427 1.64954 14.3729 3.44284 14.3729V11.7063ZM3.19031 11.1784L3.17097 5.52105L0.504321 5.53017L0.523663 11.1875L3.19031 11.1784ZM1.83765 6.85894H18.1016V4.19228H1.83765V6.85894ZM16.7683 5.53017L16.7876 11.1875L19.4543 11.1784L19.4349 5.52105L16.7683 5.53017ZM16.7876 11.183C16.7876 11.3882 16.7155 11.5422 16.6415 11.6286C16.6055 11.6707 16.5746 11.6908 16.5576 11.6992C16.5427 11.7066 16.5367 11.7063 16.5352 11.7063V14.3729C18.3286 14.3729 19.4543 12.7426 19.4543 11.183H16.7876Z" fill="#51566B" mask="url(#path-1-inside-1_12910_2604)"/>
<path d="M11.9495 3.06787C11.9495 3.05215 11.9623 3.03938 11.978 3.03938C11.9937 3.03938 12.0065 3.05215 12.0065 3.06787C12.0065 3.08359 11.9937 3.09635 11.978 3.09635C11.9623 3.09635 11.9495 3.08359 11.9495 3.06787Z" fill="#51566B" stroke="#51566B" stroke-width="1.33333"/>
<path d="M14.5849 3.06787C14.5849 3.42035 14.2991 3.70605 13.9468 3.70605C13.5943 3.70605 13.3086 3.42034 13.3086 3.06787C13.3086 2.7154 13.5943 2.42969 13.9468 2.42969C14.2991 2.42969 14.5849 2.7154 14.5849 3.06787Z" fill="#51566B"/>
<path d="M16.6708 3.06787C16.6708 3.42035 16.3851 3.70605 16.0326 3.70605C15.6803 3.70605 15.3945 3.42034 15.3945 3.06787C15.3945 2.7154 15.6802 2.42969 16.0326 2.42969C16.3851 2.42969 16.6708 2.7154 16.6708 3.06787Z" fill="#51566B"/>
</svg>
