<svg width="28" height="28" viewBox="0 0 28 28" fill="none" xmlns="http://www.w3.org/2000/svg">
<path d="M26.9994 0H8.32497C7.89511 0 7.54688 0.348233 7.54688 0.7781V19.4525C7.54688 19.8824 7.89511 20.2306 8.32497 20.2306H26.9994C27.4292 20.2306 27.7775 19.8824 27.7775 19.4525V0.7781C27.7775 0.348233 27.4292 0 26.9994 0ZM26.2213 18.6744H9.10307V1.5562H26.2213V18.6744Z" fill="#613ED2"/>
<path d="M0.561021 3.98838C0.323409 4.24428 0.323409 4.65853 0.561021 4.91406C0.798633 5.16959 1.18328 5.16996 1.42056 4.91406L2.20633 4.06783L2.20634 16.6183L1.42056 15.7721C1.18295 15.5162 0.798299 15.5162 0.561021 15.7721C0.323752 16.028 0.323409 16.4422 0.561021 16.6977L2.38457 18.6616C2.62218 18.9175 3.00683 18.9175 3.24411 18.6616L5.06765 16.6977C5.18654 16.5697 5.2459 16.4024 5.2459 16.2347C5.2459 16.067 5.18654 15.8997 5.06799 15.7717C4.83038 15.5158 4.44572 15.5158 4.20845 15.7717L3.42237 16.6183L3.42237 4.0678L4.20814 4.91404C4.44576 5.16993 4.83041 5.16993 5.06768 4.91404C5.18658 4.78636 5.24593 4.61905 5.24593 4.45138C5.24593 4.28371 5.18657 4.1164 5.06802 3.98836L3.24448 2.02451C3.00687 1.76861 2.62222 1.76861 2.38494 2.02451L0.561021 3.98838Z" fill="#613ED2"/>
<path d="M23.7597 22.6802C23.5038 22.4426 23.0895 22.4426 22.834 22.6802C22.5785 22.9178 22.5781 23.3024 22.834 23.5397L23.6802 24.3255H11.1298L11.976 23.5397C12.2319 23.3021 12.2319 22.9174 11.976 22.6802C11.7201 22.4429 11.3058 22.4426 11.0503 22.6802L9.08645 24.5037C8.83056 24.7413 8.83056 25.126 9.08645 25.3632L11.0503 27.1868C11.1784 27.3057 11.3457 27.365 11.5133 27.365C11.681 27.365 11.8483 27.3057 11.9763 27.1871C12.2322 26.9495 12.2322 26.5649 11.9763 26.3276L11.1298 25.5415H23.6802L22.834 26.3273C22.5781 26.5649 22.5781 26.9495 22.834 27.1868C22.9617 27.3057 23.129 27.3651 23.2967 27.3651C23.4643 27.3651 23.6316 27.3057 23.7597 27.1872L25.7235 25.3636C25.9794 25.126 25.9794 24.7414 25.7235 24.5041L23.7597 22.6802Z" fill="#613ED2"/>
</svg>
