<?xml version="1.0" encoding="UTF-8" standalone="no"?>
<svg
   width="42"
   height="42"
   viewBox="0 0 42 42"
   fill="none"
   version="1.1"
   id="svg2"
   xmlns="http://www.w3.org/2000/svg"
   xmlnsSvg="http://www.w3.org/2000/svg">
  <g
     clip-path="url(#clip0_16329_99092)"
     id="g1">
    <path
       d="M22.2935 11.5468C22.2935 11.9703 22.2935 12.3939 22.2935 12.8174C22.2935 13.0024 22.3478 13.0653 22.5508 13.093C23.7613 13.2277 24.9104 13.6589 25.8779 14.3415C26.5735 14.8409 27.0118 15.529 27.4862 16.1911C27.5445 16.2707 27.4862 16.2984 27.4319 16.3336C26.8369 16.6924 26.2425 17.0524 25.6488 17.4137C25.5503 17.4748 25.508 17.4433 25.4477 17.3638C25.3653 17.2399 25.2608 17.1252 25.1864 16.9939C24.5712 15.9525 23.564 15.4531 22.3397 15.27C21.0446 15.0578 19.7132 15.1327 18.4558 15.4883C17.967 15.6306 17.521 15.8757 17.1531 16.2041C16.9573 16.3762 16.8037 16.5848 16.7025 16.8159C16.6013 17.047 16.5548 17.2954 16.5662 17.5443C16.5777 17.7932 16.6467 18.0371 16.7687 18.2595C16.8907 18.482 17.0628 18.6779 17.2737 18.8342C17.6263 19.0947 18.0266 19.2951 18.4558 19.4261C19.6017 19.8071 20.8018 19.981 21.9759 20.2548C23.0353 20.5026 24.1088 20.7116 25.11 21.1407C26.5876 21.7714 27.6169 22.7443 27.9245 24.2629C28.1113 25.1675 27.99 26.1031 27.5773 26.9419C27.1647 27.7808 26.4806 28.482 25.6186 28.9498C24.6906 29.4607 23.6577 29.7894 22.585 29.9153C22.3578 29.9468 22.2834 30.0115 22.2875 30.2279C22.3015 31.0843 22.2875 31.9388 22.2975 32.7952C22.2975 32.9579 22.2432 33.006 22.0703 33.0023C21.4177 32.9949 20.7643 32.9949 20.1103 33.0023C19.9354 33.0023 19.8831 32.9579 19.8851 32.7952C19.8851 31.9628 19.8851 31.1305 19.8972 30.2982C19.8972 30.0633 19.8248 29.9856 19.5735 29.9653C18.7437 29.8928 17.9304 29.7058 17.1611 29.4104C16.1856 29.0471 15.3386 28.4421 14.7145 27.6625C14.4934 27.3924 14.2903 27.1076 14.0712 26.8357C13.9928 26.7377 13.9807 26.6803 14.1034 26.6008C14.6683 26.242 15.2272 25.8757 15.786 25.5077C15.8906 25.4392 15.9489 25.4411 16.0233 25.5447C16.1459 25.7185 16.2967 25.8776 16.4133 26.0533C17.0425 27.0003 18.0034 27.4886 19.1453 27.6976C20.6913 27.9788 22.2292 27.9418 23.7128 27.4054C24.5974 27.0872 25.3211 26.5767 25.5402 25.6723C25.7834 24.655 25.4578 23.843 24.4606 23.3122C23.5841 22.8442 22.6091 22.6574 21.6462 22.441C20.2269 22.1229 18.7774 21.9046 17.4064 21.4182C16.0353 20.9317 14.9477 20.1641 14.427 18.8546C13.7476 17.1529 14.4029 15.3403 16.0735 14.1991C17.0224 13.5536 18.114 13.2613 19.2579 13.1004C19.8952 13.0116 19.8972 13.0264 19.8972 12.4327C19.8972 11.6929 19.8972 10.953 19.8972 10.2132C19.8972 10.0486 19.9515 10.006 20.1243 10.0079C20.7777 10.0171 21.4311 10.0079 22.0844 10.0079C22.2593 10.0079 22.3176 10.0541 22.3136 10.2169C22.2875 10.6515 22.2935 11.0991 22.2935 11.5468Z"
       fill="#613ED1"
       id="path1" />
  </g>
  <defs
     id="defs2">
    <clipPath
       id="clip0_16329_99092">
      <rect
         width="14"
         height="23"
         fill="white"
         transform="translate(14 10)"
         id="rect2" />
    </clipPath>
  </defs>
  <path
     style="fill:#000000;stroke-width:0.0485549"
     d="m 19.994636,32.954367 c -0.04295,-0.0273 -0.06235,-0.414516 -0.07283,-1.453547 -0.0093,-0.922259 -0.03241,-1.43443 -0.06622,-1.468198 -0.02856,-0.02852 -0.341062,-0.09429 -0.694447,-0.14616 -1.665575,-0.244454 -2.925538,-0.786161 -3.863157,-1.660919 -0.394762,-0.368298 -1.242439,-1.401891 -1.24016,-1.512158 6.46e-4,-0.0312 0.416266,-0.323674 0.9236,-0.649929 l 0.922427,-0.593192 0.116389,0.13192 c 0.06401,0.07256 0.265647,0.327741 0.448076,0.567078 0.402854,0.528523 0.773694,0.83659 1.351341,1.122593 1.427805,0.706933 4.071698,0.79166 5.761584,0.184638 1.3077,-0.469738 1.883858,-1.065683 2.030598,-2.100336 0.129964,-0.916359 -0.280572,-1.634148 -1.208854,-2.113587 -0.750446,-0.38759 -1.324572,-0.547524 -3.937085,-1.096749 -3.158857,-0.664083 -4.197717,-1.078184 -5.171098,-2.061259 -0.437703,-0.442062 -0.723551,-0.906792 -0.927566,-1.50803 -0.187306,-0.552 -0.218363,-1.345475 -0.07487,-1.912911 0.299742,-1.185319 1.188577,-2.20943 2.46544,-2.840667 0.713074,-0.35252 1.302155,-0.51332 2.865643,-0.782228 0.280151,-0.04818 0.281888,-0.05719 0.308347,-1.596985 l 0.02428,-1.412874 1.113401,-0.01307 c 0.61832,-0.0073 1.132915,0.0064 1.157285,0.03081 0.02439,0.0244 0.04125,0.666444 0.03795,1.445804 -0.0045,1.074568 0.0087,1.421801 0.05659,1.487057 0.04286,0.05836 0.199941,0.107471 0.499513,0.15616 1.300132,0.211313 2.475606,0.720763 3.334937,1.445361 0.331893,0.279857 1.302057,1.497088 1.302057,1.633646 0,0.06915 -1.848663,1.179321 -1.918922,1.152359 -0.03397,-0.01303 -0.197245,-0.221511 -0.362837,-0.463282 -0.872733,-1.274225 -2.063228,-1.767808 -4.273154,-1.771664 -1.773879,-0.0031 -3.009234,0.34113 -3.7665,1.049515 -0.41241,0.385789 -0.5749,0.745246 -0.577362,1.277229 -0.0016,0.344027 0.01678,0.427205 0.157485,0.71302 0.195761,0.397646 0.501376,0.683302 1.01635,0.949973 0.557459,0.288671 1.310144,0.507349 2.971343,0.863264 2.871311,0.615184 3.752407,0.858313 4.647779,1.282507 1.33527,0.632601 2.117723,1.485704 2.466479,2.689187 0.545612,1.882793 -0.339567,3.87883 -2.18147,4.919114 -0.801953,0.452933 -1.708146,0.768163 -2.683946,0.933644 -0.301142,0.05107 -0.579726,0.119572 -0.619076,0.152229 -0.06009,0.04987 -0.07154,0.290788 -0.07154,1.504884 0,1.273322 -0.0091,1.449018 -0.0768,1.474979 -0.11228,0.04309 -2.121998,0.03463 -2.190988,-0.0092 z"
     id="path2" />
</svg>
