<svg width="24" height="24" viewBox="0 0 24 24" fill="none" xmlns="http://www.w3.org/2000/svg">
<path fill-rule="evenodd" clip-rule="evenodd" d="M12.2053 22.2812C12.2053 22.2812 20.3871 16.8267 20.3871 10.4631C20.3871 8.29312 19.5251 6.21204 17.9907 4.67765C16.4563 3.14326 14.3752 2.28125 12.2053 2.28125C10.0353 2.28125 7.95422 3.14326 6.41984 4.67765C4.88545 6.21204 4.02344 8.29312 4.02344 10.4631C4.02344 16.8267 12.2053 22.2812 12.2053 22.2812ZM15.7969 10.4616C15.7969 12.446 14.1882 14.0547 12.2038 14.0547C10.2195 14.0547 8.6108 12.446 8.6108 10.4616C8.6108 8.47727 10.2195 6.86861 12.2038 6.86861C14.1882 6.86861 15.7969 8.47727 15.7969 10.4616Z" fill="#F95C66"/>
<path d="M12.2053 22.2812L11.817 22.8637C12.0521 23.0204 12.3584 23.0204 12.5935 22.8637L12.2053 22.2812ZM17.9907 4.67765L18.4856 4.18267L18.4856 4.18267L17.9907 4.67765ZM6.41984 4.67765L5.92486 4.18267L6.41984 4.67765ZM19.6871 10.4631C19.6871 13.3635 17.8056 16.1474 15.788 18.2771C14.7935 19.3268 13.7966 20.1855 13.0476 20.7819C12.6737 21.0797 12.3629 21.311 12.147 21.467C12.0391 21.5449 11.9549 21.604 11.8986 21.643C11.8704 21.6625 11.8492 21.677 11.8354 21.6863C11.8285 21.691 11.8235 21.6944 11.8204 21.6965C11.8189 21.6975 11.8178 21.6983 11.8172 21.6986C11.8169 21.6988 11.8168 21.6989 11.8167 21.699C11.8167 21.699 11.8168 21.6989 11.8168 21.699C11.8168 21.6989 11.817 21.6988 12.2053 22.2812C12.5935 22.8637 12.5937 22.8636 12.5939 22.8634C12.5941 22.8633 12.5943 22.8632 12.5945 22.863C12.595 22.8627 12.5956 22.8623 12.5963 22.8619C12.5977 22.8609 12.5996 22.8597 12.602 22.858C12.6067 22.8548 12.6134 22.8503 12.622 22.8445C12.6392 22.8328 12.6639 22.8159 12.6957 22.7939C12.7592 22.7499 12.8509 22.6856 12.9667 22.6019C13.1982 22.4347 13.5266 22.1902 13.9197 21.8771C14.7048 21.252 15.7534 20.3493 16.8043 19.2399C18.8776 17.0515 21.0871 13.9262 21.0871 10.4631H19.6871ZM17.4957 5.17262C18.8988 6.57574 19.6871 8.47877 19.6871 10.4631H21.0871C21.0871 8.10746 20.1513 5.84834 18.4856 4.18267L17.4957 5.17262ZM12.2053 2.98125C14.1896 2.98125 16.0926 3.76951 17.4957 5.17262L18.4856 4.18267C16.82 2.51701 14.5609 1.58125 12.2053 1.58125V2.98125ZM6.91481 5.17262C8.31792 3.76951 10.221 2.98125 12.2053 2.98125V1.58125C9.84965 1.58125 7.59053 2.51701 5.92486 4.18267L6.91481 5.17262ZM4.72344 10.4631C4.72344 8.47877 5.5117 6.57574 6.91481 5.17262L5.92486 4.18267C4.2592 5.84834 3.32344 8.10746 3.32344 10.4631H4.72344ZM12.2053 22.2812C12.5935 21.6988 12.5937 21.6989 12.5938 21.699C12.5937 21.6989 12.5938 21.699 12.5938 21.699C12.5937 21.6989 12.5936 21.6988 12.5933 21.6986C12.5927 21.6983 12.5916 21.6975 12.5901 21.6965C12.587 21.6944 12.582 21.691 12.5751 21.6863C12.5613 21.677 12.5401 21.6625 12.5119 21.643C12.4556 21.604 12.3715 21.5449 12.2635 21.467C12.0476 21.311 11.7369 21.0797 11.3629 20.7819C10.6139 20.1855 9.617 19.3268 8.62251 18.2771C6.60491 16.1474 4.72344 13.3635 4.72344 10.4631H3.32344C3.32344 13.9262 5.53288 17.0515 7.60618 19.2399C8.65715 20.3493 9.70573 21.252 10.4908 21.8771C10.8839 22.1902 11.2123 22.4347 11.4438 22.6019C11.5596 22.6856 11.6513 22.7499 11.7148 22.7939C11.7466 22.8159 11.7713 22.8328 11.7885 22.8445C11.7971 22.8503 11.8038 22.8548 11.8086 22.858C11.8109 22.8597 11.8128 22.8609 11.8142 22.8619C11.8149 22.8623 11.8155 22.8627 11.816 22.863C11.8162 22.8632 11.8165 22.8633 11.8166 22.8634C11.8168 22.8636 11.817 22.8637 12.2053 22.2812ZM12.2038 14.7547C14.5748 14.7547 16.4969 12.8326 16.4969 10.4616H15.0969C15.0969 12.0594 13.8016 13.3547 12.2038 13.3547V14.7547ZM7.9108 10.4616C7.9108 12.8326 9.83285 14.7547 12.2038 14.7547V13.3547C10.6061 13.3547 9.3108 12.0594 9.3108 10.4616H7.9108ZM12.2038 6.16861C9.83285 6.16861 7.9108 8.09067 7.9108 10.4616H9.3108C9.3108 8.86387 10.6061 7.56861 12.2038 7.56861V6.16861ZM16.4969 10.4616C16.4969 8.09067 14.5748 6.16861 12.2038 6.16861V7.56861C13.8016 7.56861 15.0969 8.86387 15.0969 10.4616H16.4969Z" fill="#F95C66"/>
</svg>
