<?xml version="1.0" encoding="UTF-8" standalone="no"?>
<svg
   width="42"
   height="42"
   viewBox="0 0 42 42"
   fill="none"
   version="1.1"
   id="svg6"
   xmlns="http://www.w3.org/2000/svg"
   xmlnsSvg="http://www.w3.org/2000/svg">
  <defs
     id="defs6" />
  <path
     d="M25.9676 23.0895C25.8763 22.9334 25.784 22.8103 25.9676 22.6179C26.5173 22.045 26.6097 21.3447 26.4327 20.6036C27.3562 20.5388 28.0148 19.9648 28.7119 19.4921C28.9549 19.326 28.9527 19.0083 28.7921 18.7422C28.6316 18.4761 28.3523 18.3024 28.0995 18.4344C27.3485 18.817 26.5107 19.094 25.9918 19.8637C25.4596 19.3271 24.7989 19.0853 24.027 19.2568C23.7445 19.3194 23.6807 19.1259 23.5872 18.961C23.1826 18.2661 22.7945 17.5625 22.3778 16.872C21.8962 16.076 21.0397 15.7406 20.2129 15.9924C19.3861 16.2442 18.8639 16.9929 18.9243 17.9286C18.9522 18.2005 18.8941 18.4743 18.7583 18.7114C17.6292 20.6707 16.3824 22.4991 14.2087 23.4623C13.5776 23.7415 12.9993 24.1461 12.4033 24.4958C10.8641 25.3907 10.2869 27.1345 11.0059 28.6958C11.6986 30.1999 13.4391 30.9068 15.074 30.312C15.3686 30.2021 15.4885 30.2702 15.6523 30.4912C16.202 31.2257 16.7518 31.9491 17.318 32.6715C17.9293 33.4587 18.5945 33.5137 19.3136 32.8463C19.4235 32.7473 19.5335 32.6506 19.6434 32.5527C20.2525 32.003 20.3174 31.4225 19.8281 30.7639C19.3388 30.1053 18.8144 29.4214 18.3009 28.7552C18.1547 28.5671 18.0646 28.4594 18.3911 28.3406C19.9864 27.7645 21.6192 27.3951 23.3211 27.416C23.7093 27.416 24.1139 27.3863 24.4811 27.6359C25.3365 28.2164 26.215 28.1625 26.8879 27.5259C27.5607 26.8893 27.6575 26.0273 27.144 25.1225C26.7592 24.4419 26.3612 23.7646 25.9676 23.0895ZM25.1452 21.5173C24.8219 21.2754 24.7483 20.9016 24.4602 20.5146C25.0913 20.6773 25.2496 20.9939 25.1452 21.5129V21.5173ZM16.1504 28.2054C15.4269 28.5693 14.8101 29.1675 14.0493 29.2125C13.1433 29.2213 12.4 28.6991 12.1395 27.9459C12.0083 27.5637 12.0046 27.1492 12.1289 26.7646C12.2532 26.3801 12.4988 26.0462 12.8288 25.813C13.2488 25.5282 13.7161 25.3127 14.1383 25.0323C14.3648 24.8817 14.4407 24.9686 14.5462 25.1533C15.0696 26.068 15.6039 26.9773 16.1284 27.8921C16.1801 27.9789 16.334 28.1087 16.1504 28.201V28.2054ZM18.5692 31.2982C18.7034 31.4698 18.7418 31.5951 18.556 31.7556C18.3361 31.9469 18.2833 31.7358 18.1954 31.6226C17.7138 31.0003 17.2487 30.3648 16.7507 29.7535C16.5033 29.4511 16.7177 29.3961 16.9706 29.2906C17.0728 29.2631 17.1102 29.3873 17.1696 29.4654C17.638 30.0745 18.0975 30.6891 18.5714 31.2938L18.5692 31.2982ZM20.6461 26.3341C19.6602 26.5191 18.6944 26.799 17.7622 27.1697C17.4071 27.3137 17.263 27.2357 17.0926 26.9168C16.7078 26.1923 16.2933 25.4875 15.8601 24.7849C15.6699 24.4782 15.6919 24.3111 15.9843 24.0747C17.4708 22.8653 18.755 21.4788 19.7467 19.7241L23.397 26.0471C22.435 26.101 21.5345 26.1571 20.6483 26.3297L20.6461 26.3341ZM25.795 26.676C25.6925 26.7201 25.5777 26.7263 25.471 26.6937C25.3643 26.6611 25.2726 26.5917 25.2123 26.4979C25.0341 26.245 24.8945 25.9658 24.7395 25.6975C23.2992 23.2054 21.8581 20.7132 20.4163 18.2211C20.2844 17.9935 20.1503 17.7813 20.3141 17.5141C20.3632 17.4251 20.4385 17.3532 20.5297 17.3082C20.6209 17.2632 20.7237 17.2472 20.8242 17.2623C21.109 17.2843 21.2102 17.5097 21.3278 17.7142C22.8766 20.3991 24.4243 23.084 25.9709 25.769C26.0424 25.8943 26.1017 26.0262 26.1501 26.1241C26.1215 26.3946 26.0314 26.5848 25.7972 26.6716L25.795 26.676Z"
     fill="#613ED2"
     id="path1" />
  <path
     d="M28.8153 10.0968C28.3898 10.1254 28.1985 9.96817 28.0808 9.57455C27.9346 9.08529 27.7235 8.61581 27.497 8.02539C27.2496 8.66748 27.0319 9.18424 26.8538 9.71418C26.7571 10.0022 26.6152 10.1089 26.3041 10.0946C25.6631 10.0671 25.021 10.0869 24.3789 10.0869C24.7127 10.3916 25.078 10.6599 25.4685 10.8873C26.2315 11.3601 26.226 11.3579 25.9083 12.2177C25.7741 12.5761 25.5784 12.917 25.54 13.3688C26.0732 13.039 26.5757 12.7652 27.0275 12.4277C27.3849 12.1616 27.6553 12.2078 27.9973 12.442C28.4492 12.7498 28.8967 13.0797 29.5102 13.3271C29.2903 12.7202 29.1187 12.2034 28.9 11.7097C28.7735 11.425 28.8428 11.293 29.0924 11.149C29.6135 10.8488 30.1171 10.519 30.6316 10.2024L30.6151 10.0869C30.0093 10.0869 29.4101 10.0561 28.8153 10.0968Z"
     fill="#613ED2"
     id="path2" />
  <path
     d="M13.1149 11.6622C12.895 12.1779 12.719 12.7133 12.4618 13.4137C13.1072 13.0146 13.6327 12.7232 14.1198 12.378C14.4133 12.1691 14.631 12.2087 14.9026 12.389C15.3996 12.7188 15.913 13.0245 16.5287 13.4093C16.3462 12.9046 16.211 12.5198 16.0659 12.1383C15.769 11.3566 15.7679 11.3588 16.4562 10.9289C16.852 10.6826 17.2463 10.4348 17.6392 10.1856C16.9866 10.0955 16.3272 10.0638 15.669 10.0911C15.3919 10.0988 15.2457 10.0251 15.1533 9.74252C14.9741 9.19279 14.7454 8.66724 14.4936 8.02734C14.2495 8.66724 14.0318 9.18289 13.8581 9.71284C13.7614 10.0075 13.6107 10.1043 13.3084 10.0922C12.6641 10.068 12.0165 10.0856 11.3711 10.0856C11.8696 10.4951 12.401 10.8628 12.9598 11.185C13.172 11.3126 13.2193 11.4192 13.1149 11.6622Z"
     fill="#613ED2"
     id="path3" />
  <path
     d="M19.8023 11.7214C19.6121 12.2349 19.4559 12.7604 19.2404 13.4223C19.8001 13.0177 20.2509 12.7142 20.6698 12.3756C20.9171 12.1777 21.0931 12.1898 21.335 12.3844C21.7451 12.7142 22.1859 13.0034 22.7467 13.4047C22.5268 12.734 22.3937 12.2239 22.1969 11.7368C22.0782 11.4366 22.1508 11.2827 22.4058 11.1156C22.8456 10.8275 23.2601 10.5021 23.6845 10.192L23.6603 10.0876C23.17 10.0876 22.6774 10.0645 22.1881 10.0942C21.8044 10.1184 21.6109 10.0183 21.5021 9.61041C21.3723 9.12114 21.2646 8.60768 20.9611 8.10742C20.7742 8.68245 20.5873 9.17831 20.4576 9.68847C20.3729 10.0238 20.2058 10.1107 19.8825 10.0942C19.3647 10.0678 18.8457 10.0876 18.1641 10.0876C18.7424 10.5109 19.1657 10.8484 19.6187 11.142C19.8803 11.3058 19.9023 11.4608 19.8023 11.7214Z"
     fill="#613ED2"
     id="path4" />
  <path
     d="M29.4114 21.7262C28.8122 21.7053 28.2097 21.7064 27.6094 21.7262C27.207 21.7427 26.9563 21.9967 26.9651 22.3958C26.9739 22.7949 27.2311 23.0258 27.6347 23.0478C27.9249 23.0643 28.2174 23.0478 28.5087 23.0478C28.8001 23.0478 29.0915 23.0478 29.3883 23.0478C29.8006 23.0423 30.0612 22.8103 30.0843 22.4233C30.1041 22.0077 29.8413 21.7416 29.4114 21.7262Z"
     fill="#613ED2"
     id="path5" />
  <path
     d="M25.0585 18.581C25.1688 18.5888 25.2791 18.565 25.3765 18.5124C25.4738 18.4599 25.5542 18.3807 25.6082 18.2841C25.9212 17.7512 26.225 17.2125 26.5197 16.6679C26.722 16.2929 26.5944 15.9796 26.2448 15.7883C25.915 15.6069 25.5851 15.6948 25.3894 16.0181C25.0596 16.5436 24.744 17.0758 24.4626 17.6255C24.4073 17.726 24.3799 17.8395 24.3831 17.9541C24.3862 18.0688 24.4199 18.1805 24.4806 18.2778C24.5413 18.3751 24.6268 18.4545 24.7284 18.5078C24.83 18.5611 24.9439 18.5863 25.0585 18.581V18.581Z"
     fill="#613ED2"
     id="path6" />
  <path
     style="fill:#000000;stroke-width:0.0485549"
     d="m 18.004415,33.213131 c -0.326273,-0.141892 -0.685369,-0.558942 -2.146676,-2.493125 -0.167749,-0.222032 -0.356092,-0.426974 -0.41854,-0.455428 -0.0895,-0.04078 -0.214348,-0.02313 -0.589647,0.08334 -1.809632,0.513392 -3.564055,-0.470612 -4.027487,-2.258898 -0.106702,-0.411741 -0.107974,-1.098702 -0.0028,-1.505202 0.30668,-1.185176 1.079494,-1.889196 3.383033,-3.081887 1.132511,-0.586374 1.50817,-0.852561 2.261756,-1.602654 0.704014,-0.70075 1.139224,-1.258318 1.779216,-2.279433 0.658084,-1.049983 0.681439,-1.107718 0.716107,-1.770254 0.02482,-0.474251 0.05084,-0.610413 0.163477,-0.855367 0.287586,-0.625416 0.856433,-1.00229 1.561525,-1.034546 0.471844,-0.02158 0.819405,0.09101 1.193354,0.386601 0.290051,0.229272 0.43746,0.449376 1.225507,1.829873 0.325349,0.569946 0.630326,1.057162 0.677727,1.082704 0.05438,0.02931 0.20693,0.02971 0.413441,0.0011 0.588448,-0.08155 1.119112,0.0718 1.600612,0.462535 l 0.206595,0.16765 0.133267,-0.158379 c 0.219902,-0.261338 0.359778,-0.382303 0.703842,-0.608679 0.398712,-0.262333 1.315086,-0.696478 1.470092,-0.696478 0.136287,0 0.388528,0.203366 0.485978,0.391811 0.08578,0.165873 0.09004,0.428969 0.0087,0.535793 -0.09089,0.11933 -0.891553,0.668362 -1.272845,0.872814 -0.364917,0.195671 -0.783801,0.335998 -1.002975,0.335998 -0.127878,0 -0.133624,0.009 -0.100436,0.157803 0.01936,0.08679 0.03331,0.354451 0.031,0.594798 -0.0048,0.501307 -0.118246,0.816438 -0.425473,1.18205 -0.09749,0.116024 -0.177265,0.263727 -0.177265,0.32823 0,0.0645 0.299352,0.63599 0.665227,1.269972 0.827679,1.434192 0.903686,1.611886 0.908871,2.124802 0.0035,0.346044 -0.01375,0.425367 -0.154726,0.711751 -0.205414,0.417273 -0.62671,0.81593 -1.017115,0.962461 -0.22429,0.08418 -0.360778,0.102129 -0.677552,0.08909 -0.371068,-0.01528 -0.43014,-0.03357 -0.914805,-0.283383 l -0.518122,-0.267052 -1.100224,0.0016 c -1.488179,0.0022 -2.49761,0.171984 -4.078743,0.686176 -0.653224,0.212432 -0.833042,0.300418 -0.833042,0.407613 0,0.02449 0.370445,0.534059 0.823212,1.132382 0.98961,1.307753 1.105618,1.485778 1.146697,1.759713 0.0693,0.462108 -0.106105,0.790957 -0.696059,1.304992 -0.591229,0.515146 -1.007961,0.659663 -1.404695,0.487128 z m 0.667597,-1.560276 c 0.08584,-0.160385 0.06539,-0.194718 -0.738734,-1.240304 -0.382956,-0.497953 -0.743225,-0.967722 -0.800598,-1.043931 l -0.104315,-0.138562 -0.187015,0.09711 c -0.110602,0.05743 -0.192889,0.138201 -0.201393,0.197677 -0.0097,0.06819 0.236322,0.427744 0.764284,1.116763 1.024627,1.337194 0.941823,1.247178 1.086574,1.181225 0.06563,-0.0299 0.147168,-0.106393 0.181197,-0.169978 z m -4.061205,-2.548087 c 0.374089,-0.140968 1.631094,-0.92101 1.629013,-1.010893 -9.9e-4,-0.04273 -0.401462,-0.765956 -0.889938,-1.60717 -0.680305,-1.171564 -0.912354,-1.53305 -0.991615,-1.544738 -0.09595,-0.01415 -0.29714,0.0945 -1.305953,0.705261 -0.429525,0.260044 -0.751889,0.610452 -0.897294,0.975352 -0.087,0.218329 -0.110642,0.374559 -0.111859,0.739169 -0.0014,0.425972 0.01098,0.487767 0.157745,0.785852 0.432245,0.87792 1.49746,1.301003 2.409901,0.957167 z m 3.488611,-2.033286 c 1.448874,-0.544222 3.013037,-0.867791 4.611507,-0.953953 0.327488,-0.01765 0.620648,-0.0456 0.651467,-0.06209 0.0484,-0.02591 -0.700149,-1.348621 -3.478135,-6.146001 l -0.13947,-0.240856 -0.08858,0.160354 c -0.675745,1.223307 -2.128116,2.925576 -3.381198,3.962977 -0.420406,0.348045 -0.567496,0.526972 -0.567496,0.69033 0,0.05098 0.225595,0.473677 0.501321,0.93933 0.275726,0.465652 0.605242,1.037826 0.732257,1.271497 0.238501,0.438775 0.363866,0.570519 0.542896,0.570519 0.0572,0 0.334143,-0.08645 0.61543,-0.192102 z m 7.85621,-0.476227 c 0.189275,-0.169117 0.250754,-0.41839 0.152513,-0.618376 -0.138794,-0.282538 -4.879678,-8.498255 -4.952137,-8.581809 -0.108641,-0.125275 -0.368262,-0.182951 -0.571247,-0.126905 -0.196601,0.05429 -0.361167,0.278618 -0.361454,0.492729 -2.5e-4,0.186446 -0.05349,0.0902 2.367139,4.279185 1.18947,2.058419 2.250839,3.895528 2.358598,4.082464 0.276253,0.479234 0.414947,0.606937 0.659176,0.606937 0.146765,0 0.235602,-0.03432 0.347412,-0.134225 z m -0.779905,-5.345932 c 0,-0.332508 -0.09527,-0.4882 -0.391095,-0.639117 -0.326223,-0.166426 -0.355768,-0.130876 -0.169915,0.20445 0.218725,0.394632 0.449635,0.719448 0.511454,0.719448 0.02807,0 0.04956,-0.123463 0.04956,-0.284781 z"
     id="path7" />
  <path
     style="fill:#000000;stroke-width:0.0485549"
     d="m 12.551445,13.27914 c 0,-0.02698 0.142023,-0.430098 0.315607,-0.895812 0.312825,-0.839289 0.347424,-0.972707 0.278447,-1.073718 -0.01962,-0.02873 -0.319719,-0.238557 -0.666886,-0.466277 -0.347168,-0.22772 -0.714652,-0.481601 -0.816632,-0.564181 l -0.185418,-0.150145 1.070297,-0.01479 c 0.995213,-0.01375 1.077011,-0.02161 1.166,-0.111903 0.05264,-0.05341 0.238268,-0.4770052 0.412513,-0.9413219 0.312751,-0.8334006 0.349027,-0.9152071 0.388196,-0.875441 0.02518,0.025567 0.469629,1.1485497 0.589989,1.4907296 0.14997,0.4263573 0.128274,0.4188753 1.315191,0.4535933 0.930691,0.02722 1.148701,0.04917 1.081251,0.108834 -0.01113,0.0098 -0.341964,0.218732 -0.735193,0.464197 -0.736576,0.459793 -0.911628,0.615022 -0.911628,0.8084 0,0.06164 0.131735,0.476847 0.292745,0.922673 0.161009,0.445826 0.281632,0.821705 0.268051,0.835286 -0.01358,0.01358 -0.402051,-0.213198 -0.863265,-0.503956 -1.010935,-0.63731 -1.091183,-0.654251 -1.566895,-0.330793 -0.545273,0.370757 -1.43237,0.893851 -1.43237,0.844627 z"
     id="path8" />
  <path
     style="fill:#000000;stroke-width:0.0485549"
     d="m 19.300578,13.317534 c 0,-0.0091 0.131098,-0.408451 0.29133,-0.887476 0.160231,-0.479025 0.291329,-0.919566 0.291329,-0.978979 0,-0.124277 -0.10304,-0.214116 -0.990269,-0.863399 l -0.626108,-0.458191 0.973157,-0.01503 c 1.125751,-0.01739 1.128526,-0.01844 1.254826,-0.4727123 0.04138,-0.1488544 0.164152,-0.5421822 0.272817,-0.8740617 l 0.197573,-0.6034173 0.115855,0.2279654 c 0.06372,0.125381 0.191523,0.4908546 0.284005,0.8121636 0.09248,0.321309 0.190694,0.6263223 0.218248,0.6778073 0.100959,0.188643 0.237483,0.216459 1.185308,0.241499 l 0.918938,0.02428 -0.360556,0.270927 c -0.198306,0.14901 -0.52443,0.387547 -0.724719,0.530082 -0.411832,0.29308 -0.481814,0.368203 -0.484005,0.519552 -8.49e-4,0.05868 0.119269,0.462432 0.26693,0.897229 0.147661,0.434796 0.262372,0.819472 0.254914,0.854834 -0.0129,0.06118 -0.373152,-0.174074 -1.19636,-0.781265 -0.463513,-0.341884 -0.419389,-0.353736 -1.422272,0.382029 -0.619375,0.454404 -0.720941,0.524304 -0.720941,0.496169 z"
     id="path9" />
  <path
     style="fill:#000000;stroke-width:0.0485549"
     d="m 25.589017,13.172644 c 0.01843,-0.08796 0.128235,-0.401477 0.244017,-0.696705 0.293323,-0.747935 0.339784,-0.949741 0.257785,-1.11972 -0.03796,-0.07869 -0.228319,-0.241216 -0.453825,-0.387476 -0.213641,-0.138565 -0.563237,-0.379923 -0.776878,-0.536351 l -0.38844,-0.284415 1.043931,-0.02428 c 0.685982,-0.01595 1.079054,-0.04442 1.146366,-0.08303 0.111082,-0.063715 0.160872,-0.1725782 0.555609,-1.2147955 0.14392,-0.3799908 0.276275,-0.6749619 0.294122,-0.6554913 0.01785,0.019471 0.155801,0.3631468 0.306564,0.7637248 0.150763,0.4005781 0.306355,0.8005432 0.345759,0.8888114 0.109886,0.2461536 0.316612,0.3089966 0.987656,0.3002436 1.039834,-0.01356 1.468403,-2.4e-4 1.440574,0.04479 -0.01504,0.02434 -0.371389,0.25642 -0.791883,0.51574 -0.420495,0.25932 -0.813698,0.516338 -0.873784,0.571151 -0.141502,0.129083 -0.137765,0.260702 0.0179,0.630439 0.122471,0.290897 0.504067,1.33187 0.504067,1.375067 0,0.04914 -0.552708,-0.262824 -1.109477,-0.626228 -0.807467,-0.527034 -0.853794,-0.528556 -1.586833,-0.05213 -0.292926,0.190381 -0.682023,0.437146 -0.864662,0.548367 l -0.33207,0.202219 z"
     id="path10" />
  <path
     style="fill:#000000;stroke-width:0.0485549"
     d="m 24.788251,18.489607 c -0.202448,-0.104588 -0.389407,-0.367518 -0.389407,-0.547644 0,-0.148788 0.255404,-0.651579 0.736476,-1.449834 0.348111,-0.57763 0.46816,-0.71247 0.676896,-0.760296 0.175265,-0.04016 0.503043,0.100965 0.655591,0.282259 0.208002,0.247196 0.155051,0.427764 -0.423803,1.445207 -0.277266,0.487345 -0.559256,0.926774 -0.626645,0.976509 -0.183163,0.135178 -0.430621,0.15634 -0.629108,0.0538 z"
     id="path11" />
  <path
     style="fill:#000000;stroke-width:0.0485549"
     d="m 27.425413,22.987744 c -0.196811,-0.05918 -0.383306,-0.28096 -0.425534,-0.506052 -0.04036,-0.215127 0.07804,-0.481602 0.279404,-0.628848 0.128992,-0.09432 0.202229,-0.100243 1.240286,-0.100243 1.202202,0 1.260159,0.01186 1.446229,0.295834 0.104841,0.160007 0.104841,0.510753 0,0.67076 -0.182816,0.279013 -0.254341,0.295015 -1.364654,0.30531 -0.562074,0.0052 -1.091153,-0.01133 -1.175731,-0.03676 z"
     id="path12" />
</svg>
