<?xml version="1.0" encoding="UTF-8" standalone="no"?>
<svg
   width="170"
   height="36"
   viewBox="0 0 170 36"
   fill="none"
   version="1.1"
   id="svg15"
   xmlns="http://www.w3.org/2000/svg"
   xmlnsSvg="http://www.w3.org/2000/svg">
  <g
     clip-path="url(#clip0_3195_1350)"
     id="g8">
    <path
       d="M20.3274 33.1635V33.6848L20.1668 33.726C19.7958 33.8196 19.423 33.9141 19.0512 34.0068L17.6247 34.3632C15.9629 34.778 14.2444 35.2066 12.5543 35.6222C12.4006 35.66 12.252 35.6875 12.1094 35.703C11.1991 35.0734 10.324 34.3804 9.49951 33.6367C13.1039 33.4786 16.7101 33.3215 20.3274 33.1626"
       fill="white"
       id="path1" />
    <path
       d="M25.715 25.6581L24.7051 26.7926L24.5513 26.6629C24.3229 26.4706 24.0979 26.2782 23.8703 26.0858L20.6549 23.3557C19.0507 21.9945 17.4473 20.6315 15.8439 19.2703C14.584 18.2011 13.3233 17.1327 12.0634 16.0644C11.0818 15.2322 10.0993 14.3983 9.11684 13.5652C6.7199 11.5307 4.32039 9.49449 1.92432 7.45739C2.19999 6.47921 2.53321 5.51133 2.91796 4.57952C3.18419 3.93541 3.4822 3.29131 3.80339 2.66695C4.21905 1.85366 4.68367 1.05669 5.18264 0.294922L10.9925 7.47113C15.904 13.5386 20.8078 19.5949 25.715 25.6581Z"
       fill="white"
       id="path2" />
    <path
       d="M23.8961 27.6971L22.5864 29.1648C20.9058 28.4288 19.2251 27.6894 17.5452 26.9491L13.3525 25.1035C9.41919 23.373 5.48413 21.6408 1.54563 19.912C1.24849 18.5319 1.0647 17.114 0.997714 15.6935C0.977961 15.2899 0.966797 14.8708 0.966797 14.4474C0.966797 14.1288 0.972809 13.7981 0.985691 13.4623C1.02777 12.3476 1.14199 11.2354 1.3232 10.1499C8.87041 16.0156 16.3747 21.8503 23.8961 27.6962"
       fill="white"
       id="path3" />
    <path
       d="M21.729 30.125L20.8539 31.1084C20.628 31.36 20.47 31.6614 20.3893 31.9869L19.1191 31.9466C17.6823 31.901 16.2455 31.8547 14.8087 31.8074C12.3525 31.7267 9.89891 31.646 7.44444 31.5601C6.51177 30.5063 5.66155 29.3684 4.91181 28.1755C4.50559 27.5297 4.12514 26.8607 3.78076 26.1831C3.26891 25.1817 2.81889 24.1391 2.44531 23.0776L21.7299 30.1259L21.729 30.125Z"
       fill="white"
       id="path4" />
    <path
       d="M44.434 33.6365C43.6095 34.3803 42.7335 35.0733 41.824 35.7028C41.6815 35.6874 41.5312 35.6599 41.3783 35.6221C39.6719 35.2022 37.9388 34.7702 36.2615 34.3511L34.8814 34.0058C34.5061 33.9131 34.13 33.816 33.7564 33.7224L33.6035 33.6829V33.1616C37.2217 33.3196 40.8278 33.4768 44.4322 33.6357"
       fill="white"
       id="path5" />
    <path
       d="M52.0116 7.45739C49.6146 9.49535 47.216 11.5316 44.8182 13.5652C43.8211 14.4112 42.8249 15.2571 41.8269 16.1013C40.5808 17.1585 39.3364 18.214 38.0911 19.2712C36.541 20.5869 34.99 21.9043 33.4398 23.22L30.0647 26.0867C29.8345 26.2825 29.6035 26.4766 29.3716 26.6732L29.2299 26.7926L28.2183 25.6581C33.1272 19.5949 38.0301 13.5386 42.9425 7.47199L48.7524 0.294922C49.2513 1.05669 49.7151 1.85366 50.1325 2.66695C50.4537 3.29217 50.7517 3.93541 51.0171 4.57952C51.4027 5.51219 51.7367 6.47921 52.0124 7.45739"
       fill="white"
       id="path6" />
    <path
       d="M52.9667 14.4473C52.9667 14.8715 52.9564 15.2898 52.9366 15.6943C52.8688 17.1122 52.6858 18.5318 52.3878 19.911C48.4854 21.6243 44.5847 23.3411 40.684 25.0579L36.39 26.9481C34.8965 27.6068 33.1359 28.3814 31.347 29.1638L30.0391 27.6961C37.5596 21.8502 45.0639 16.0155 52.612 10.1489C52.7932 11.2345 52.9074 12.3475 52.9495 13.4614C52.9615 13.7971 52.9675 14.1278 52.9675 14.4464"
       fill="white"
       id="path7" />
    <path
       d="M51.4899 23.0765C51.1146 24.138 50.6663 25.1806 50.1536 26.1829C49.8092 26.8587 49.4287 27.5286 49.0217 28.1744C48.2728 29.3673 47.42 30.5052 46.4899 31.559C44.0337 31.6449 41.5801 31.7248 39.1256 31.8063C37.6888 31.8536 36.252 31.9008 34.8153 31.9455L33.5434 31.9858C33.4635 31.6603 33.3055 31.3606 33.0805 31.1081L32.2036 30.1239L51.489 23.0757L51.4899 23.0765Z"
       fill="white"
       id="path8" />
  </g>
  <!-- <g
     clip-path="url(#clip1_3195_1350)"
     id="g14">
    <path
       d="M84.5536 8.5249H81.0656L77.0866 24.8217V8.5249H73.6635H73.056H69.568L64.9663 27.4752H69.0618L73.056 11.0272V27.4752H76.4381H77.0866H80.5345L84.5536 11.0183V27.4752H88.5592V8.5249H85.162H84.5536Z"
       fill="white"
       id="path10" />
    <path
       d="M99.9592 8C94.4519 8 89.9712 12.4807 89.9712 17.988C89.9712 23.4953 94.4519 28 99.9592 28C105.466 28 109.971 23.5086 109.971 17.988C109.971 15.3033 108.93 12.7894 107.038 10.9089C105.153 9.03278 102.639 8 99.9592 8ZM105.941 18.012C105.941 21.2972 103.258 23.9703 99.9592 23.9703C96.6607 23.9703 94.0009 21.2972 94.0009 18.012C94.0009 14.7269 96.674 12.0297 99.9592 12.0297C103.244 12.0297 105.941 14.7135 105.941 18.012Z"
       fill="white"
       id="path11" />
    <path
       d="M119.6 19.7404H125.257V22.2935C124.128 23.3761 122.655 23.9703 121.09 23.9703C119.524 23.9703 117.997 23.344 116.877 22.2018C115.751 21.0765 115.131 19.5803 115.131 17.9889C115.131 16.3975 115.753 14.8977 116.877 13.7519C118.002 12.6266 119.498 12.0075 121.09 12.0075C122.681 12.0075 124.253 12.6577 125.389 13.8382L125.899 14.3675L128.776 11.5271L128.267 11.0103C126.353 9.06836 123.804 8 121.09 8C118.375 8 115.912 9.03367 114.035 10.9098C112.171 12.7743 111.102 15.354 111.102 17.988C111.102 20.622 112.142 23.1457 114.032 25.0627C115.9 26.9574 118.406 28 121.09 28C123.773 28 126.338 26.9227 128.267 24.9666L128.283 24.9497C128.613 24.5921 128.888 24.2603 129.147 23.908L129.288 23.7168V15.7107H119.6V19.7404H119.6Z"
       fill="white"
       id="path12" />
    <path
       d="M142.426 20.3516C142.426 22.3807 140.826 23.9704 138.783 23.9704C136.741 23.9704 135.164 22.3807 135.164 20.3516V8.5249H131.135V20.3507C131.135 24.5681 134.566 27.9992 138.783 27.9992C143.001 27.9992 146.456 24.5681 146.456 20.3507V8.5249H142.426V20.3507V20.3516Z"
       fill="white"
       id="path13" />
    <path
       d="M152.613 23.4455V8.5249H148.583V27.4752H163.929V23.4455H152.613Z"
       fill="white"
       id="path14" />
  </g> -->
  <defs
     id="defs15">
    <clipPath
       id="clip0_3195_1350">
      <rect
         width="52"
         height="35.4087"
         fill="white"
         transform="translate(0.966309 0.29541)"
         id="rect14" />
    </clipPath>
    <clipPath
       id="clip1_3195_1350">
      <rect
         width="104.114"
         height="20"
         fill="white"
         transform="translate(64.9663 8)"
         id="rect15" />
    </clipPath>
  </defs>
</svg>
