<?xml version="1.0" encoding="UTF-8"?>
<svg id="Layer_1" data-name="Layer 1" xmlns="http://www.w3.org/2000/svg" viewBox="0 0 658.57 100">
  <defs>
    <style>
      .cls-1 {
        fill: #fff;
      }
    </style>
  </defs>
  <polygon class="cls-1" points="261.71 2.63 244.27 2.63 224.37 84.11 224.37 2.63 207.26 2.63 204.22 2.63 186.78 2.63 163.77 97.37 184.25 97.37 204.22 15.14 204.22 97.37 221.13 97.37 224.37 97.37 241.61 97.37 261.71 15.09 261.71 97.37 281.73 97.37 281.73 2.63 264.75 2.63 261.71 2.63"/>
  <path class="cls-1" d="m338.73,0c-27.54,0-49.94,22.4-49.94,49.94s22.4,50.06,49.94,50.06,50.06-22.46,50.06-50.06c0-13.42-5.21-25.99-14.66-35.4-9.43-9.38-22-14.54-35.4-14.54m29.91,50.06c0,16.43-13.42,29.79-29.91,29.79s-29.79-13.36-29.79-29.79,13.36-29.91,29.79-29.91,29.91,13.42,29.91,29.91"/>
  <path class="cls-1" d="m436.94,58.7h28.29v12.76c-5.65,5.41-13.01,8.38-20.84,8.38s-15.46-3.13-21.07-8.84c-5.63-5.63-8.72-13.11-8.72-21.07s3.11-15.46,8.72-21.19c5.62-5.63,13.11-8.72,21.07-8.72s15.82,3.25,21.5,9.15l2.55,2.65,14.39-14.2-2.55-2.58c-9.57-9.7-22.31-15.05-35.88-15.05s-25.89,5.17-35.27,14.55c-9.32,9.32-14.67,22.22-14.67,35.39s5.2,25.79,14.65,35.37c9.34,9.47,21.87,14.69,35.29,14.69s26.24-5.39,35.88-15.17l.08-.09c1.65-1.79,3.02-3.45,4.32-5.21l.7-.96v-40.03h-48.44v20.15Z"/>
  <path class="cls-1" d="m551.06,61.76c0,10.15-8,18.09-18.21,18.09s-18.09-7.95-18.09-18.09V2.63h-20.15v59.13c0,21.09,17.16,38.24,38.24,38.24s38.36-17.16,38.36-38.24V2.63h-20.15v59.13Z"/>
  <polygon class="cls-1" points="602 77.22 602 2.63 581.85 2.63 581.85 97.37 658.57 97.37 658.57 77.22 602 77.22"/>
  <g>
    <path class="cls-1" d="m51.68,91.79v1.39l-.43.11c-.99.25-1.99.5-2.98.75l-3.81.95c-4.43,1.11-9.02,2.25-13.53,3.36-.41.1-.81.17-1.19.22-2.43-1.68-4.77-3.53-6.97-5.52,9.62-.42,19.25-.84,28.9-1.26Z"/>
    <path class="cls-1" d="m66.06,71.76l-2.7,3.03-.41-.35c-.61-.51-1.21-1.03-1.82-1.54l-8.58-7.29c-4.28-3.63-8.56-7.27-12.84-10.9-3.36-2.85-6.73-5.7-10.09-8.56-2.62-2.22-5.24-4.45-7.86-6.67-6.4-5.43-12.8-10.87-19.2-16.3.74-2.61,1.62-5.19,2.65-7.68.71-1.72,1.51-3.44,2.36-5.1,1.11-2.17,2.35-4.3,3.68-6.33l15.51,19.15c13.11,16.19,26.2,32.36,39.3,48.54Z"/>
    <path class="cls-1" d="m61.2,77.2l-3.49,3.92c-4.49-1.96-8.97-3.94-13.46-5.91l-11.19-4.92c-10.5-4.62-21-9.24-31.52-13.86-.79-3.68-1.28-7.47-1.46-11.26-.05-1.08-.08-2.19-.08-3.33,0-.85.02-1.73.05-2.63.11-2.97.42-5.94.9-8.84,20.14,15.66,40.18,31.23,60.25,46.84Z"/>
    <path class="cls-1" d="m55.42,83.68l-2.34,2.62c-.6.67-1.03,1.48-1.24,2.35l-3.39-.11c-3.83-.12-7.67-.25-11.5-.37-6.56-.22-13.1-.43-19.66-.66-2.49-2.81-4.76-5.85-6.76-9.03-1.08-1.72-2.1-3.51-3.02-5.32-1.37-2.67-2.57-5.46-3.57-8.29l51.47,18.81Z"/>
    <g>
      <path class="cls-1" d="m116.02,93.05c-2.2,1.99-4.54,3.83-6.97,5.52-.38-.04-.78-.12-1.19-.22-4.56-1.12-9.18-2.27-13.66-3.39l-3.68-.92c-1-.25-2.01-.51-3-.76l-.41-.1v-1.39c9.66.42,19.28.84,28.9,1.26Z"/>
      <path class="cls-1" d="m136.25,23.17c-6.4,5.44-12.8,10.87-19.2,16.3-2.66,2.26-5.32,4.51-7.98,6.77-3.33,2.82-6.65,5.64-9.97,8.46-4.14,3.51-8.28,7.03-12.41,10.54l-9.01,7.65c-.61.52-1.23,1.04-1.85,1.57l-.38.32-2.7-3.03c13.1-16.18,26.19-32.35,39.3-48.54l15.51-19.15c1.33,2.03,2.57,4.16,3.68,6.33.86,1.67,1.65,3.39,2.36,5.1,1.03,2.49,1.92,5.07,2.66,7.68Z"/>
      <path class="cls-1" d="m138.8,41.83c0,1.13-.03,2.25-.08,3.33-.18,3.78-.67,7.57-1.47,11.26-10.42,4.57-20.83,9.16-31.24,13.74l-11.46,5.05c-3.99,1.76-8.69,3.83-13.46,5.91l-3.49-3.92c20.07-15.6,40.1-31.18,60.25-46.84.48,2.9.79,5.87.9,8.84.03.9.05,1.78.05,2.63Z"/>
      <path class="cls-1" d="m134.86,64.87c-1,2.83-2.2,5.62-3.57,8.29-.92,1.81-1.94,3.59-3.02,5.31-2,3.18-4.27,6.22-6.76,9.03-6.56.23-13.1.44-19.66.66-3.83.13-7.67.25-11.5.37l-3.39.11c-.21-.87-.64-1.67-1.23-2.34l-2.34-2.63,51.48-18.81Z"/>
    </g>
  </g>
</svg>