<svg width="176" height="176" viewBox="0 0 176 176" fill="none" xmlns="http://www.w3.org/2000/svg">
<path d="M176 120.791L88.0277 175.999V153.236L158.387 109.066L176 120.791Z" fill="white"/>
<mask id="mask0_601_6350" style="mask-type:alpha" maskUnits="userSpaceOnUse" x="88" y="109" width="88" height="67">
<path d="M176 120.791L88.0272 175.999V153.236L158.386 109.066L176 120.791Z" fill="#2B66B1"/>
</mask>
<g mask="url(#mask0_601_6350)">
<path d="M112.178 124.263L46.1013 165.796L40.9277 185.278L60.1753 197.941C59.7849 198.355 59.7589 198.822 60.174 199.095C60.7011 199.442 61.7314 199.344 62.4756 198.877C63.2198 198.409 63.3944 197.749 62.8672 197.402C62.4521 197.129 61.7258 197.135 61.0731 197.376L42.089 184.887L47.1097 165.982L113.187 124.448L123.151 86.9288L252.057 5.90409L251.42 5.48522L122.142 86.7441L112.178 124.263Z" fill="#4360AB"/>
<path d="M116.209 125L50.1343 166.532L45.5732 183.71L57.3988 191.49C57.0083 191.904 56.9824 192.371 57.3974 192.644C57.9246 192.991 58.9548 192.894 59.699 192.426C60.4432 191.958 60.6177 191.298 60.0906 190.951C59.6755 190.678 58.9492 190.684 58.2965 190.926L46.7345 183.319L51.1426 166.718L117.218 125.186L127.181 87.6681L254.595 7.58119L253.958 7.16234L126.173 87.4828L116.209 125Z" fill="#4360AB"/>
<path d="M120.249 125.745L54.1719 167.278L50.2234 182.152L67.3608 193.427C66.9703 193.841 66.9444 194.308 67.3595 194.581C67.8866 194.927 68.9168 194.83 69.6611 194.362C70.4053 193.895 70.5798 193.235 70.0527 192.888C69.6376 192.615 68.9113 192.621 68.2585 192.862L51.3847 181.761L55.1802 167.463L121.258 125.93L131.221 88.4113L257.151 9.25747L256.514 8.83861L130.213 88.226L120.249 125.745Z" fill="#4360AB"/>
<path d="M124.283 126.482L58.2082 168.014L54.8715 180.584L64.5871 186.975C64.1966 187.39 64.1706 187.856 64.5857 188.129C65.1129 188.476 66.143 188.379 66.8872 187.911C67.6314 187.444 67.806 186.783 67.2788 186.437C66.8638 186.164 66.1375 186.17 65.4848 186.411L56.0328 180.193L59.2164 168.199L125.291 126.667L135.254 89.1506L259.69 10.9358L259.053 10.517L134.246 88.9653L124.283 126.482Z" fill="#4360AB"/>
<path d="M128.312 127.217L62.2422 168.746L60.127 176.714C59.8921 176.784 59.6616 176.883 59.4543 177.014C58.7101 177.481 58.5356 178.141 59.0627 178.488C59.5898 178.835 60.6199 178.738 61.364 178.27C62.1082 177.802 62.2827 177.142 61.7556 176.795C61.6086 176.699 61.4199 176.64 61.2117 176.611L63.2504 168.931L129.32 127.402L139.283 89.8881L262.222 12.6138L261.586 12.195L138.275 89.7029L128.312 127.217Z" fill="#4360AB"/>
<path d="M147.336 42.6977L96.3943 9.18287L84.819 10.2805L-3.47351 65.7777C-4.02933 65.6511 -4.78999 65.786 -5.37452 66.1534C-6.11888 66.6213 -6.29347 67.2815 -5.76623 67.6284C-5.23835 67.9757 -4.20859 67.8781 -3.46423 67.4102C-2.87969 67.0428 -2.65265 66.5568 -2.83674 66.1966L85.084 10.9331L95.76 9.9207L146.702 43.4356L176.354 40.6247L242.061 -0.676006L241.424 -1.09494L176.089 39.9721L147.336 42.6977Z" fill="#4360AB"/>
<path d="M142.269 48.6066L91.327 15.0913L86.944 15.5067L1.62622 69.1341C1.0704 69.0076 0.309744 69.1425 -0.27479 69.5099C-1.01915 69.9777 -1.19374 70.638 -0.666496 70.9848C-0.138619 71.3321 0.891142 71.2345 1.6355 70.7667C2.22004 70.3992 2.44708 69.9133 2.26299 69.5531L87.2081 16.1599L90.6927 15.8291L141.636 49.3448L178.481 45.8512L247.162 2.68127L246.525 2.26234L178.216 45.1986L142.269 48.6066Z" fill="#4360AB"/>
<path d="M161.584 163.6C161.028 163.473 160.268 163.608 159.682 163.976C158.938 164.443 158.763 165.104 159.29 165.451C159.818 165.799 160.85 165.701 161.593 165.233C162.179 164.865 162.406 164.379 162.221 164.019L189.264 147.021L207.24 145.317L251.205 174.243L252.104 173.678L207.874 144.579L188.999 146.368L161.584 163.6Z" fill="#4360AB"/>
<path d="M141.084 173.21C140.528 173.083 139.768 173.218 139.182 173.586C138.438 174.053 138.263 174.714 138.79 175.061C139.318 175.409 140.349 175.31 141.093 174.843C141.679 174.475 141.906 173.989 141.721 173.629L188.211 144.407L209.782 142.363L254.795 171.977L255.693 171.413L210.416 141.625L187.946 143.754L141.084 173.21Z" fill="#4360AB"/>
<path d="M118.034 181.145C117.478 181.018 116.718 181.152 116.133 181.52C115.389 181.988 115.214 182.649 115.741 182.996C116.269 183.343 117.3 183.245 118.044 182.777C118.629 182.409 118.856 181.923 118.672 181.563L186.096 139.183L214.856 136.458L261.975 167.458L262.873 166.893L215.491 135.72L185.831 138.53L118.034 181.145Z" fill="#4360AB"/>
<path d="M151.382 156.896C150.825 156.769 150.065 156.904 149.48 157.272C148.736 157.739 148.56 158.4 149.088 158.747C149.616 159.095 150.647 158.997 151.391 158.529C151.977 158.161 152.204 157.675 152.019 157.315L185.014 136.575L217.378 133.509L265.563 165.21L266.461 164.646L218.012 132.771L184.749 135.922L151.382 156.896Z" fill="#4360AB"/>
<path d="M94.9836 189.077C94.4277 188.95 93.6678 189.085 93.0823 189.453C92.3387 189.92 92.1632 190.581 92.6905 190.928C93.2185 191.275 94.2493 191.177 94.9929 190.71C95.5784 190.342 95.8055 189.856 95.6214 189.495L183.978 133.958L219.929 130.552L269.154 162.938L270.052 162.373L220.563 129.814L183.713 133.305L94.9836 189.077Z" fill="#4360AB"/>
<path d="M101.803 171.344C101.568 171.415 101.338 171.514 101.13 171.644C100.387 172.111 100.211 172.772 100.739 173.119C101.266 173.466 102.297 173.368 103.041 172.901C103.785 172.433 103.96 171.773 103.432 171.426C103.285 171.329 103.096 171.271 102.888 171.241L108.683 149.421L143.274 127.679L152.787 91.8575L165.914 83.6062C166.469 83.7333 167.23 83.5984 167.815 83.2305C168.559 82.7632 168.734 82.1024 168.207 81.7555C167.679 81.4082 166.649 81.5064 165.905 81.9737C165.32 82.3417 165.092 82.8272 165.277 83.1878L151.779 91.6722L142.266 127.493L107.674 149.236L101.803 171.344Z" fill="#4360AB"/>
<path d="M160.852 93.3436L171.004 86.963C171.558 87.0901 172.319 86.9552 172.905 86.5873C173.648 86.12 173.823 85.4592 173.296 85.1124C172.769 84.7655 171.738 84.8633 170.994 85.3305C170.409 85.6985 170.182 86.1844 170.367 86.5441L159.844 93.1584L150.331 128.978L115.741 150.72L114.049 157.093C113.813 157.165 113.584 157.264 113.376 157.395C112.632 157.862 112.457 158.523 112.984 158.869C113.511 159.216 114.542 159.119 115.286 158.651C116.029 158.184 116.205 157.523 115.677 157.176C115.53 157.08 115.342 157.021 115.133 156.992L116.75 150.905L151.34 129.163L160.852 93.3436Z" fill="#4360AB"/>
<path d="M182.525 82.9981C183.08 83.1252 183.84 82.9903 184.426 82.6223C185.169 82.1549 185.345 81.494 184.818 81.147C184.29 80.8001 183.259 80.8979 182.515 81.3653C181.93 81.7333 181.703 82.2193 181.888 82.5791L163.87 93.9045L154.453 129.365L161.675 134.117C161.046 134.696 160.965 135.382 161.557 135.772C162.259 136.233 163.636 136.103 164.627 135.481C165.617 134.858 165.851 133.976 165.149 133.514C164.558 133.125 163.489 133.161 162.574 133.552L155.614 128.974L164.878 94.0898L182.525 82.9981ZM164.252 134.078C164.604 134.309 164.487 134.75 163.991 135.061C163.495 135.373 162.807 135.438 162.456 135.207C162.104 134.975 162.221 134.535 162.717 134.223C163.212 133.912 163.9 133.846 164.252 134.078Z" fill="#4360AB"/>
<path d="M140.534 179.475C139.978 179.348 139.218 179.483 138.632 179.851C137.888 180.318 137.713 180.979 138.24 181.326C138.767 181.673 139.799 181.576 140.543 181.108C141.128 180.74 141.355 180.254 141.171 179.894L171.808 160.636L213.461 156.688L245.545 177.796L246.443 177.232L214.096 155.95L171.543 159.983L140.534 179.475Z" fill="#4360AB"/>
<path d="M152.058 175.506C151.502 175.38 150.742 175.514 150.157 175.882C149.413 176.35 149.237 177.011 149.765 177.358C150.293 177.705 151.324 177.607 152.068 177.139C152.653 176.771 152.881 176.285 152.695 175.925L172.865 163.248L210.923 159.64L241.954 180.056L242.853 179.491L211.558 158.902L172.599 162.595L152.058 175.506Z" fill="#4360AB"/>
<path d="M145.635 182.826C145.079 182.699 144.319 182.833 143.733 183.201C142.989 183.669 142.814 184.33 143.341 184.677C143.869 185.024 144.9 184.926 145.644 184.459C146.23 184.091 146.457 183.604 146.272 183.245L173.933 165.858L208.392 162.591L238.365 182.311L239.264 181.746L209.026 161.853L173.668 165.205L145.635 182.826Z" fill="#4360AB"/>
<path d="M157.16 178.857C156.604 178.73 155.843 178.864 155.258 179.233C154.514 179.7 154.338 180.361 154.866 180.708C155.394 181.056 156.425 180.958 157.169 180.49C157.755 180.122 157.982 179.636 157.797 179.276L174.989 168.469L205.854 165.543L234.775 184.571L235.673 184.006L206.488 164.805L174.723 167.817L157.16 178.857Z" fill="#4360AB"/>
<path d="M150.736 186.179C150.18 186.052 149.42 186.187 148.834 186.555C148.091 187.022 147.915 187.683 148.442 188.03C148.971 188.378 150.002 188.28 150.745 187.812C151.331 187.444 151.558 186.958 151.373 186.598L176.058 171.082L203.324 168.497L231.187 186.828L232.085 186.263L203.959 167.759L175.792 170.43L150.736 186.179Z" fill="#4360AB"/>
<path d="M-96.0821 140.376C-96.6379 140.25 -97.3976 140.384 -97.983 140.752C-98.7264 141.219 -98.9025 141.88 -98.3747 142.227C-97.8469 142.574 -96.8163 142.476 -96.0729 142.009C-95.4875 141.641 -95.2604 141.155 -95.4454 140.795L54.2856 46.6804L99.7086 76.5644C99.3181 76.9785 99.2921 77.4454 99.7073 77.7185C100.235 78.0658 101.266 77.9676 102.009 77.5003C102.753 77.0331 102.929 76.3727 102.401 76.0255C101.986 75.7523 101.259 75.7584 100.606 76L54.5467 45.6971L-96.0821 140.376Z" fill="#4360AB"/>
<path d="M115.604 85.3395C115.84 85.2679 116.069 85.1694 116.278 85.0384C117.021 84.571 117.197 83.9106 116.669 83.5632C116.142 83.2163 115.111 83.314 114.367 83.7814C113.623 84.2494 113.448 84.9097 113.975 85.2566C114.123 85.3539 114.312 85.4122 114.519 85.4424L104.601 122.79L27.666 171.148L23.6702 186.195L60.8741 210.671C60.4836 211.086 60.4576 211.553 60.8728 211.826C61.4001 212.173 62.4307 212.076 63.1752 211.608C63.9197 211.14 64.0943 210.479 63.5669 210.132C63.1517 209.859 62.4252 209.865 61.7722 210.107L24.8319 185.804L28.6746 171.334L105.61 122.975L115.604 85.3395Z" fill="#4360AB"/>
<path d="M24.6407 170.589L101.575 122.231L110.542 88.4626C110.777 88.3919 111.007 88.2934 111.215 88.1625C111.959 87.6951 112.134 87.0342 111.607 86.6873C111.08 86.3403 110.048 86.4381 109.305 86.9055C108.561 87.3729 108.386 88.0338 108.913 88.3807C109.061 88.4779 109.249 88.5358 109.456 88.566L100.566 122.046L23.632 170.403L19.0243 187.754L54.3797 211.014C53.9891 211.429 53.9631 211.896 54.3783 212.169C54.9056 212.516 55.9362 212.419 56.6807 211.951C57.4252 211.483 57.5998 210.822 57.0724 210.475C56.6572 210.202 55.9306 210.208 55.2777 210.45L20.186 187.363L24.6407 170.589Z" fill="#4360AB"/>
<path d="M-68.4029 126.25C-68.9587 126.123 -69.7184 126.258 -70.3038 126.626C-71.0472 127.093 -71.2233 127.753 -70.6955 128.101C-70.1676 128.448 -69.1371 128.35 -68.3936 127.882C-67.8083 127.514 -67.5812 127.028 -67.7662 126.669L53.2341 50.6129L89.743 74.6323C89.3525 75.0465 89.3265 75.5133 89.7417 75.7865C90.2695 76.1337 91.3001 76.0356 92.0435 75.5683C92.7869 75.101 92.9631 74.4407 92.4352 74.0934C92.0201 73.8203 91.2937 73.8264 90.6409 74.068L53.4952 49.6296L-68.4029 126.25Z" fill="#4360AB"/>
<path d="M16.5758 169.105L93.511 120.747L100.682 93.7459C100.917 93.6742 101.146 93.5757 101.355 93.4448C102.098 92.9774 102.275 92.3169 101.747 91.9695C101.219 91.6226 100.188 91.7203 99.4442 92.1877C98.6997 92.6557 98.525 93.3161 99.0524 93.663C99.1995 93.7598 99.3882 93.8181 99.5957 93.8483L92.5017 120.561L15.5664 168.92L9.73319 190.879L50.1043 217.44C49.7137 217.854 49.6877 218.321 50.103 218.594C50.6303 218.941 51.6609 218.844 52.4054 218.376C53.1499 217.908 53.3245 217.248 52.7971 216.901C52.3819 216.628 51.6553 216.634 51.0024 216.875L10.8949 190.488L16.5758 169.105Z" fill="#4360AB"/>
<path d="M-11.9949 179.642C-12.5496 179.515 -13.31 179.65 -13.8953 180.018C-14.6394 180.485 -14.814 181.145 -14.2869 181.492C-13.7598 181.839 -12.7297 181.742 -11.9856 181.274C-11.4003 180.906 -11.1734 180.42 -11.3583 180.061L85.3871 119.251L90.3341 100.623C90.569 100.552 90.7994 100.453 91.0068 100.323C91.7509 99.8553 91.9254 99.1953 91.3984 98.8485C90.8706 98.5013 89.8412 98.5989 89.0971 99.0666C88.3538 99.5338 88.1778 100.194 88.7055 100.541C88.8519 100.637 89.0412 100.696 89.2494 100.726L84.3789 119.066L-11.9949 179.642Z" fill="#4360AB"/>
<path d="M-17.0881 176.288C-17.6428 176.161 -18.4032 176.296 -18.9884 176.664C-19.7325 177.131 -19.9071 177.791 -19.38 178.138C-18.8529 178.485 -17.8229 178.388 -17.0788 177.92C-16.4936 177.552 -16.2666 177.066 -16.4516 176.707L77.3145 117.77L80.3045 106.511C80.5396 106.439 80.7691 106.341 80.9765 106.211C81.7197 105.744 81.8957 105.083 81.368 104.736C80.841 104.389 79.8101 104.487 79.0669 104.954C78.3228 105.422 78.1482 106.082 78.6753 106.429C78.8223 106.526 79.011 106.584 79.2192 106.613L76.3057 117.584L-17.0887 176.288L-17.0881 176.288Z" fill="#4360AB"/>
<path d="M204.698 116.04L193.343 123.177C192.788 123.05 192.028 123.184 191.442 123.553C190.698 124.02 190.523 124.681 191.05 125.028C191.578 125.375 192.609 125.277 193.353 124.81C193.938 124.442 194.165 123.956 193.98 123.596L205.706 116.225L214.497 83.1244L206.252 77.6999C206.642 77.2856 206.668 76.8186 206.253 76.5454C205.726 76.1985 204.694 76.2962 203.951 76.7637C203.207 77.2311 203.031 77.892 203.559 78.239C203.974 78.5122 204.701 78.5061 205.354 78.2645L213.335 83.5154L204.698 116.04Z" fill="#4360AB"/>
<path d="M200.659 115.299L194.386 119.242C193.831 119.115 193.07 119.25 192.485 119.618C191.741 120.085 191.566 120.746 192.093 121.093C192.621 121.441 193.652 121.343 194.396 120.875C194.981 120.507 195.208 120.021 195.023 119.661L201.668 115.484L209.847 84.6857L200.172 78.32C200.562 77.9057 200.588 77.4386 200.173 77.1654C199.646 76.8184 198.615 76.9156 197.87 77.3836C197.127 77.8511 196.951 78.5121 197.478 78.8591C197.894 79.1323 198.62 79.1263 199.274 78.8846L208.685 85.0763L200.659 115.299Z" fill="#4360AB"/>
<path d="M196.625 114.557L188.249 119.822C187.694 119.695 186.933 119.83 186.347 120.198C185.604 120.665 185.428 121.326 185.955 121.673C186.483 122.02 187.514 121.922 188.258 121.455C188.844 121.087 189.071 120.601 188.886 120.241L197.634 114.742L205.201 86.249L199.067 82.2133C199.457 81.7989 199.483 81.3319 199.068 81.0587C198.541 80.7118 197.51 80.809 196.766 81.277C196.022 81.7444 195.846 82.4053 196.374 82.7523C196.789 83.0255 197.516 83.0195 198.169 82.7778L204.039 86.64L196.625 114.557Z" fill="#4360AB"/>
<path d="M74.7704 176.762L76.9823 168.431L84.8449 163.489C85.4 163.616 86.161 163.481 86.7467 163.113C87.4914 162.645 87.666 161.984 87.1386 161.637C86.6111 161.29 85.5803 161.387 84.8356 161.855C84.2499 162.224 84.0228 162.71 84.2079 163.07L75.9734 168.245L73.6084 177.154L85.9477 185.272L83.8898 193.02L85.8653 194.32C85.4746 194.735 85.4486 195.202 85.8639 195.475C86.3914 195.822 87.4222 195.725 88.1669 195.257C88.9116 194.789 89.0862 194.128 88.5588 193.781C88.1434 193.508 87.4167 193.514 86.7635 193.756L85.0519 192.629L87.1097 184.881L74.7704 176.762Z" fill="#4360AB"/>
<path d="M79.4123 175.199L81.0126 169.173L90.9793 162.908C91.5345 163.036 92.2954 162.901 92.881 162.533C93.6257 162.065 93.8003 161.404 93.2729 161.057C92.7454 160.71 91.7147 160.807 90.9701 161.275C90.3844 161.643 90.1573 162.13 90.3423 162.489L80.0038 168.988L78.2504 175.59L90.5896 183.708L90.3082 184.768C90.0732 184.838 89.8426 184.937 89.6351 185.068C88.8905 185.536 88.7159 186.196 89.2433 186.543C89.7707 186.89 90.8015 186.793 91.5461 186.325C92.2907 185.857 92.4654 185.197 91.938 184.85C91.7908 184.753 91.602 184.694 91.3936 184.665L91.7515 183.317L79.4123 175.199Z" fill="#4360AB"/>
<path d="M-92.8833 144.103C-93.6267 144.57 -93.8028 145.23 -93.275 145.578C-92.7471 145.925 -91.7166 145.827 -90.9732 145.359C-90.3878 144.991 -90.1608 144.506 -90.3458 144.146L52.1996 54.5476L92.5281 81.0798C92.1376 81.494 92.1116 81.9608 92.5267 82.234C93.0545 82.5812 94.0851 82.4831 94.8285 82.0158C95.5719 81.5485 95.748 80.8882 95.2202 80.541C94.805 80.2678 94.0787 80.2739 93.4259 80.5155L52.4607 53.5644L-90.9816 143.726C-91.5373 143.6 -92.297 143.734 -92.8833 144.103Z" fill="#4360AB"/>
<path d="M-85.8715 148.713C-85.2861 148.346 -85.0591 147.86 -85.2441 147.5L50.1156 62.4184L85.3495 85.5989C84.959 86.0131 84.933 86.4799 85.3482 86.753C85.876 87.1003 86.9065 87.0021 87.6499 86.5349C88.3933 86.0676 88.5694 85.4073 88.0416 85.0601C87.6264 84.787 86.9001 84.793 86.2473 85.0346L50.3767 61.4352L-85.8799 147.081C-86.4356 146.954 -87.1953 147.088 -87.7807 147.456C-88.5241 147.924 -88.7002 148.584 -88.1723 148.931C-87.6445 149.278 -86.6149 149.181 -85.8715 148.713Z" fill="#4360AB"/>
<path d="M177.425 78.009C176.84 78.3769 176.613 78.8628 176.798 79.2225L155.809 92.4154L146.296 128.235L111.706 149.976L107.924 164.217C107.69 164.288 107.46 164.386 107.252 164.517C106.508 164.984 106.333 165.645 106.86 165.992C107.387 166.339 108.419 166.241 109.162 165.774C109.905 165.307 110.081 164.646 109.554 164.299C109.407 164.202 109.218 164.144 109.01 164.114L112.715 150.162L147.305 128.42L156.817 92.6007L177.435 79.6414C177.989 79.7685 178.75 79.6336 179.335 79.2657C180.079 78.7984 180.254 78.1376 179.727 77.7908C179.2 77.4439 178.169 77.5417 177.425 78.009Z" fill="#4360AB"/>
<path d="M188.435 94.9357C189.179 94.4683 189.354 93.8074 188.827 93.4604C188.299 93.1134 187.268 93.2112 186.524 93.6786C185.78 94.1466 185.605 94.807 186.132 95.154C186.279 95.2508 186.468 95.3091 186.676 95.3397L182.138 112.43C181.903 112.501 181.672 112.6 181.464 112.731C180.72 113.198 180.545 113.859 181.072 114.206C181.6 114.554 182.631 114.456 183.375 113.988C184.119 113.521 184.294 112.86 183.766 112.513C183.62 112.416 183.431 112.358 183.223 112.327L187.762 95.2369C187.997 95.1642 188.227 95.0667 188.435 94.9357Z" fill="#4360AB"/>
<path d="M177.862 110.357C177.119 110.824 176.942 111.485 177.47 111.832C177.998 112.179 179.029 112.081 179.773 111.614C180.517 111.146 180.692 110.485 180.165 110.139C180.018 110.042 179.828 109.983 179.621 109.953L182.313 99.8171C182.548 99.7454 182.778 99.6474 182.986 99.517C183.729 99.0495 183.905 98.3886 183.377 98.0416C182.85 97.6947 181.818 97.7924 181.075 98.2599C180.33 98.7278 180.156 99.3882 180.683 99.7352C180.83 99.832 181.019 99.8903 181.226 99.9205L178.535 110.056C178.299 110.128 178.07 110.226 177.862 110.357Z" fill="#4360AB"/>
<path d="M174.691 114.804C175.435 114.337 175.611 113.676 175.083 113.329C174.936 113.232 174.747 113.174 174.539 113.143L179.078 96.0529C179.312 95.9818 179.543 95.8827 179.751 95.7517C180.495 95.2843 180.67 94.6234 180.143 94.2764C179.616 93.9294 178.584 94.0272 177.84 94.4946C177.096 94.9626 176.921 95.623 177.449 95.97C177.596 96.0668 177.784 96.1251 177.992 96.1553L173.453 113.246C173.218 113.317 172.988 113.416 172.781 113.546C172.037 114.014 171.861 114.674 172.389 115.022C172.916 115.37 173.947 115.272 174.691 114.804Z" fill="#4360AB"/>
<path d="M121.788 135.355C121.203 135.723 120.976 136.209 121.161 136.569L71.9325 167.512L68.956 178.72L81.2903 186.834L78.0554 199.018C77.8202 199.09 77.5906 199.188 77.3823 199.319C76.6388 199.787 76.4627 200.447 76.9905 200.794C77.5178 201.141 78.5491 201.043 79.2926 200.576C80.037 200.108 80.2115 199.448 79.6843 199.101C79.5372 199.004 79.3478 198.946 79.1395 198.916L82.4518 186.443L70.1175 178.329L72.9404 167.696L121.796 136.988C122.352 137.114 123.112 136.979 123.698 136.611C124.441 136.144 124.617 135.484 124.09 135.136C123.563 134.79 122.532 134.888 121.788 135.355Z" fill="#4360AB"/>
<path d="M-15.7278 186.901C-15.1425 186.533 -14.9155 186.047 -15.1004 185.687L89.4217 119.989L97.1829 90.7615C97.418 90.6898 97.6476 90.5914 97.8559 90.4605C98.5991 89.9933 98.7752 89.3331 98.2475 88.9859C97.7204 88.6391 96.6893 88.7369 95.9461 89.204C95.2019 89.6718 95.0273 90.3318 95.5545 90.6786C95.7021 90.7758 95.8902 90.8337 96.0982 90.8643L88.4125 119.805L-15.737 185.268C-16.2918 185.141 -17.0523 185.276 -17.6376 185.644C-18.3817 186.112 -18.5563 186.772 -18.0292 187.119C-17.5021 187.465 -16.471 187.368 -15.7278 186.901Z" fill="#4360AB"/>
<path d="M-22.7326 182.289C-23.4767 182.757 -23.6512 183.417 -23.1241 183.764C-22.5971 184.11 -21.567 184.013 -20.8228 183.545C-20.2376 183.178 -20.0106 182.692 -20.1955 182.332L81.3474 118.507L87.2532 96.2689C87.488 96.1982 87.7176 96.0998 87.9258 95.9689C88.6691 95.5017 88.8445 94.8411 88.3174 94.4943C87.7903 94.1476 86.7593 94.2453 86.0161 94.7125C85.2728 95.1796 85.0974 95.8402 85.6245 96.187C85.7716 96.2837 85.9602 96.342 86.1676 96.3722L80.3392 118.322L-20.8321 181.913C-21.3869 181.786 -22.1464 181.921 -22.7326 182.289Z" fill="#4360AB"/>
<path d="M153.9 147.313C154.428 147.66 155.459 147.562 156.202 147.094C156.946 146.627 157.122 145.967 156.594 145.62C156.179 145.346 155.453 145.353 154.8 145.594L148.032 141.141L129.511 152.783L128.809 155.426C128.573 155.497 128.344 155.596 128.135 155.726C127.392 156.194 127.216 156.855 127.744 157.201C128.271 157.548 129.302 157.451 130.046 156.983C130.789 156.516 130.965 155.855 130.437 155.508C130.29 155.411 130.101 155.353 129.894 155.323L130.519 152.968L147.771 142.125L153.902 146.158C153.512 146.573 153.485 147.04 153.9 147.313Z" fill="#4360AB"/>
<path d="M157.492 145.053C158.019 145.401 159.05 145.303 159.793 144.835C160.537 144.368 160.713 143.708 160.185 143.36C159.77 143.087 159.044 143.094 158.391 143.335L149.076 137.207L125.477 152.04L122.686 162.55C122.451 162.62 122.221 162.719 122.013 162.85C121.27 163.317 121.094 163.978 121.621 164.324C122.148 164.671 123.18 164.574 123.923 164.106C124.666 163.639 124.842 162.978 124.315 162.631C124.168 162.535 123.979 162.476 123.771 162.447L126.486 152.225L148.815 138.19L157.493 143.899C157.103 144.314 157.076 144.78 157.492 145.053Z" fill="#4360AB"/>
<path d="M161.081 142.794C161.609 143.141 162.639 143.043 163.383 142.576C164.127 142.108 164.302 141.448 163.775 141.101C163.359 140.828 162.635 140.834 161.98 141.075L150.119 133.272L121.441 151.298L116.562 169.672C116.327 169.743 116.097 169.841 115.889 169.972C115.145 170.439 114.97 171.1 115.497 171.447C116.025 171.794 117.056 171.696 117.799 171.229C118.543 170.761 118.718 170.101 118.191 169.754C118.044 169.657 117.855 169.599 117.647 169.569L122.451 151.482L149.858 134.255L161.082 141.64C160.693 142.054 160.666 142.521 161.081 142.794Z" fill="#4360AB"/>
<path d="M135.202 124.802C134.212 125.424 133.977 126.307 134.679 126.769C135.382 127.231 136.76 127.1 137.749 126.478C138.74 125.855 138.974 124.973 138.272 124.511C138.036 124.356 137.722 124.273 137.374 124.247L145.625 93.1802C146.004 93.0857 146.38 92.9375 146.712 92.7286C147.703 92.106 147.937 91.2237 147.234 90.7615C146.532 90.2993 145.155 90.4298 144.164 91.0525C143.175 91.6746 142.939 92.5574 143.642 93.0196C143.878 93.1747 144.191 93.2576 144.539 93.2831L136.289 124.35C135.909 124.444 135.534 124.593 135.202 124.802ZM137.112 126.059C136.617 126.37 135.929 126.436 135.577 126.204C135.226 125.973 135.343 125.532 135.839 125.221C136.334 124.909 137.022 124.844 137.374 125.075C137.725 125.306 137.608 125.747 137.112 126.059ZM144.801 91.4715C145.297 91.1599 145.985 91.0947 146.336 91.326C146.688 91.5573 146.571 91.998 146.075 92.3096C145.579 92.6212 144.892 92.6864 144.54 92.4551C144.188 92.2238 144.305 91.7831 144.801 91.4715Z" fill="#4360AB"/>
<path d="M166.172 122.061C165.469 121.599 164.09 121.73 163.099 122.353C162.108 122.976 161.874 123.859 162.577 124.321C163.169 124.711 164.238 124.674 165.154 124.283L173.665 129.882C173.035 130.462 172.954 131.148 173.546 131.538C174.249 132 175.627 131.87 176.618 131.247C177.609 130.624 177.844 129.74 177.141 129.278C176.549 128.889 175.479 128.925 174.564 129.317L166.053 123.718C166.684 123.138 166.764 122.451 166.172 122.061ZM176.242 129.843C176.594 130.075 176.477 130.516 175.981 130.827C175.485 131.139 174.797 131.205 174.445 130.973C174.093 130.742 174.21 130.301 174.706 129.989C175.202 129.677 175.891 129.612 176.242 129.843ZM165.011 123.611C164.515 123.922 163.827 123.988 163.475 123.756C163.124 123.525 163.241 123.084 163.737 122.772C164.233 122.46 164.921 122.395 165.273 122.626C165.625 122.858 165.508 123.299 165.011 123.611Z" fill="#4360AB"/>
<path d="M108.33 83.0826C107.803 82.7357 106.772 82.8334 106.028 83.3008C105.284 83.7688 105.109 84.4291 105.636 84.776C105.783 84.8728 105.972 84.9311 106.18 84.9618L96.5288 121.304L19.5941 169.663L14.3746 189.316L50.7856 213.271C50.3951 213.686 50.369 214.153 50.7843 214.426C51.3116 214.773 52.3422 214.676 53.0867 214.208C53.8311 213.74 54.0058 213.079 53.4784 212.732C53.0632 212.459 52.3366 212.465 51.6837 212.707L15.5364 188.925L20.6036 169.847L97.5375 121.49L107.265 84.8589C107.501 84.7872 107.73 84.6888 107.939 84.5578C108.682 84.0904 108.858 83.4295 108.33 83.0826Z" fill="#4360AB"/>
</g>
<path d="M0 120.75L88.028 175.999V153.236L17.6131 109.025L0 120.75Z" fill="white"/>
<mask id="mask1_601_6350" style="mask-type:alpha" maskUnits="userSpaceOnUse" x="0" y="109" width="89" height="68">
<path d="M0 120.752L88.028 176V153.238L17.6131 109.027L0 120.752Z" fill="#2B66B1"/>
</mask>
<g mask="url(#mask1_601_6350)">
<path d="M-95.8658 121.172L-29.789 162.705L-24.6154 182.186L-43.863 194.849C-43.4725 195.264 -43.4465 195.73 -43.8616 196.003C-44.3888 196.35 -45.419 196.253 -46.1633 195.785C-46.9075 195.318 -47.0821 194.657 -46.5549 194.311C-46.1398 194.037 -45.4135 194.044 -44.7608 194.285L-25.7767 181.795L-30.7973 162.89L-96.8751 121.357L-106.839 83.8375L-235.745 2.81278L-235.108 2.39392L-105.83 83.6528L-95.8658 121.172Z" fill="#4360AB"/>
<path d="M-99.897 121.909L-33.822 163.441L-29.2609 180.619L-41.0864 188.399C-40.696 188.813 -40.67 189.279 -41.0851 189.553C-41.6123 189.899 -42.6424 189.802 -43.3867 189.334C-44.1309 188.867 -44.3054 188.207 -43.7783 187.86C-43.3632 187.587 -42.6369 187.593 -41.9842 187.834L-30.4222 180.228L-34.8302 163.626L-100.905 122.094L-110.869 84.5767L-238.282 4.48988L-237.646 4.07103L-109.86 84.3915L-99.897 121.909Z" fill="#4360AB"/>
<path d="M-103.937 122.653L-37.8596 164.187L-33.9111 179.061L-51.0485 190.335C-50.658 190.749 -50.632 191.216 -51.0471 191.489C-51.5743 191.836 -52.6045 191.739 -53.3487 191.271C-54.093 190.803 -54.2675 190.143 -53.7404 189.796C-53.3253 189.523 -52.599 189.529 -51.9462 189.771L-35.0724 178.67L-38.8679 164.372L-104.945 122.838L-114.909 85.32L-240.838 6.16616L-240.202 5.7473L-113.901 85.1347L-103.937 122.653Z" fill="#4360AB"/>
<path d="M-131.024 39.6064L-80.0819 6.09157L-68.5066 7.18916L19.7859 62.6864C20.3417 62.5598 21.1024 62.6947 21.6869 63.0621C22.4313 63.53 22.6058 64.1902 22.0786 64.5371C21.5507 64.8844 20.521 64.7868 19.7766 64.3189C19.1921 63.9515 18.965 63.4655 19.1491 63.1053L-68.7716 7.84174L-79.4477 6.82939L-130.389 40.3442L-160.042 37.5333L-225.748 -3.76731L-225.112 -4.18625L-159.777 36.8808L-131.024 39.6064Z" fill="#4360AB"/>
<path d="M-125.957 45.5153L-75.0143 12L-70.6313 12.4154L14.6864 66.0428C15.2422 65.9163 16.0029 66.0511 16.5874 66.4186C17.3318 66.8864 17.5064 67.5467 16.9791 67.8935C16.4512 68.2408 15.4215 68.1432 14.6771 67.6753C14.0926 67.3079 13.8655 66.822 14.0496 66.4618L-70.8955 13.0686L-74.3801 12.7378L-125.323 46.2535L-162.169 42.7599L-230.849 -0.410039L-230.212 -0.828969L-161.904 42.1073L-125.957 45.5153Z" fill="#4360AB"/>
<path d="M98.0957 186.713L115.342 175.366C114.952 174.952 114.926 174.485 115.341 174.212C115.868 173.865 116.899 173.962 117.643 174.43C118.387 174.898 118.562 175.558 118.035 175.905C117.62 176.178 116.893 176.172 116.24 175.93L99.2572 187.104L105.375 210.135L173.684 253.071L173.048 253.49L104.367 210.32L98.0957 186.713Z" fill="#4360AB"/>
<path d="M39.6307 77.8074L87.9934 108.206L118.73 111.12L122.103 113.24C122.658 113.112 123.419 113.247 124.004 113.615C124.748 114.083 124.924 114.743 124.396 115.091C123.868 115.437 122.837 115.34 122.094 114.872C121.508 114.504 121.281 114.018 121.466 113.659L118.465 111.772L87.7283 108.859L38.6221 77.9927L32.4408 54.717L-32.6417 13.8086L33.0834 -29.4323L33.9814 -28.8679L-31.1068 13.954L33.4494 54.5317L39.6307 77.8074Z" fill="#4360AB"/>
<path d="M43.6641 77.0639L89.0496 105.591L119.785 108.505L133.626 117.204C134.181 117.077 134.942 117.212 135.527 117.58C136.271 118.047 136.447 118.708 135.919 119.055C135.391 119.402 134.36 119.304 133.617 118.837C133.031 118.469 132.804 117.983 132.989 117.623L119.52 109.157L88.7845 106.244L42.6555 77.2492L36.4744 53.9741L-26.5024 14.3893L36.6737 -27.1747L37.5716 -26.6102L-24.9676 14.5347L37.483 53.7888L43.6641 77.0639Z" fill="#4360AB"/>
<path d="M47.703 76.3226L90.1143 102.981L120.851 105.894L127.199 109.885C127.754 109.757 128.515 109.892 129.101 110.26C129.844 110.728 130.02 111.388 129.492 111.735C128.964 112.083 127.934 111.985 127.19 111.517C126.605 111.149 126.378 110.663 126.563 110.304L120.586 106.547L89.8492 103.633L46.6944 76.5079L40.5141 53.233L-20.3599 14.9699L40.27 -24.9189L41.168 -24.3545L-18.8251 15.1153L41.5227 53.0477L47.703 76.3226Z" fill="#4360AB"/>
<path d="M55.7748 74.8385L92.2347 97.7558L122.971 100.669L132.295 106.53C132.85 106.402 133.61 106.537 134.196 106.905C134.939 107.373 135.115 108.033 134.588 108.38C134.06 108.728 133.029 108.63 132.285 108.162C131.7 107.794 131.473 107.308 131.658 106.949L122.706 101.322L91.9697 98.4085L54.7662 75.0238L48.5859 51.749L-8.08051 16.1306L47.4543 -20.4061L48.3523 -19.8416L-6.54571 16.2761L49.5945 51.5637L55.7748 74.8385Z" fill="#4360AB"/>
<path d="M59.8067 74.0922L93.2898 95.1384L124.025 98.0515L143.816 110.491C144.371 110.364 145.132 110.499 145.717 110.867C146.461 111.334 146.637 111.995 146.109 112.342C145.581 112.689 144.55 112.591 143.807 112.124C143.221 111.756 142.994 111.27 143.179 110.91L123.76 98.7041L93.0248 95.791L58.7982 74.2775L52.619 51.004L-1.94188 16.7091L51.0441 -18.1507L51.9421 -17.5863L-0.407117 16.8546L53.6275 50.8187L59.8067 74.0922Z" fill="#4360AB"/>
<path d="M189.958 203.533L157.982 183.435L170.743 175.039L167.546 163.003L106.143 124.408C105.588 124.534 104.828 124.4 104.243 124.032C103.499 123.564 103.324 122.904 103.851 122.558C104.379 122.21 105.408 122.308 106.153 122.776C106.738 123.144 106.965 123.629 106.78 123.989L168.554 162.818L171.904 175.43L159.516 183.58L190.223 202.881L210.797 204.831L229.31 216.468L228.673 216.887L210.532 205.484L189.958 203.533Z" fill="#4360AB"/>
<path d="M188.895 206.147L151.841 182.856L166.093 173.479L163.509 163.747L103.594 126.087C103.038 126.213 102.278 126.079 101.693 125.711C100.949 125.243 100.774 124.583 101.302 124.236C101.829 123.889 102.859 123.987 103.603 124.454C104.188 124.822 104.415 125.308 104.23 125.668L164.516 163.561L167.255 173.87L153.375 183.001L189.16 205.494L209.733 207.444L226.759 218.146L226.122 218.565L209.468 208.096L188.895 206.147Z" fill="#4360AB"/>
<path d="M112.395 137.285C112.95 137.159 113.71 137.293 114.295 137.661C115.039 138.128 115.215 138.788 114.687 139.136C114.159 139.483 113.129 139.385 112.385 138.918C111.8 138.55 111.573 138.064 111.758 137.704L-37.9732 43.589L-83.3963 73.473C-83.0058 73.8872 -82.9798 74.3541 -83.3949 74.6272C-83.9227 74.9745 -84.9533 74.8763 -85.6967 74.409C-86.4402 73.9417 -86.6163 73.2814 -86.0884 72.9342C-85.6733 72.661 -84.9469 72.6671 -84.2941 72.9087L-38.2343 42.6058L112.395 137.285Z" fill="#4360AB"/>
<path d="M-99.2921 82.2482C-99.5273 82.1765 -99.757 82.0781 -99.9653 81.9471C-100.709 81.4797 -100.885 80.8192 -100.357 80.4719C-99.8298 80.125 -98.7983 80.2227 -98.0547 80.6901C-97.3102 81.1581 -97.1356 81.8184 -97.663 82.1653C-97.8107 82.2625 -97.9994 82.3209 -98.2069 82.3511L-88.2886 119.699L-11.3537 168.057L-7.35786 183.103L-44.5618 207.58C-44.1713 207.994 -44.1452 208.461 -44.5605 208.735C-45.0878 209.082 -46.1184 208.984 -46.8629 208.516C-47.6073 208.048 -47.782 207.388 -47.2546 207.041C-46.8394 206.768 -46.1128 206.774 -45.4599 207.016L-8.51957 182.712L-12.3623 168.242L-89.2972 119.884L-99.2921 82.2482Z" fill="#4360AB"/>
<path d="M-8.32828 167.497L-85.2623 119.14L-94.2301 85.3713C-94.4651 85.3006 -94.6947 85.2021 -94.903 85.0712C-95.6466 84.6038 -95.8221 83.9429 -95.2948 83.596C-94.7675 83.249 -93.736 83.3468 -92.9924 83.8142C-92.2489 84.2816 -92.0734 84.9425 -92.6007 85.2894C-92.7484 85.3866 -92.9366 85.4445 -93.144 85.4747L-84.2537 118.954L-7.31965 167.312L-2.71195 184.663L-38.0673 207.923C-37.6767 208.337 -37.6507 208.804 -38.066 209.077C-38.5933 209.424 -39.6238 209.327 -40.3683 208.859C-41.1128 208.391 -41.2874 207.731 -40.7601 207.384C-40.3448 207.111 -39.6183 207.117 -38.9653 207.359L-3.87365 184.272L-8.32828 167.497Z" fill="#4360AB"/>
<path d="M84.7153 123.159C85.2711 123.032 86.0308 123.166 86.6162 123.534C87.3596 124.002 87.5357 124.662 87.0079 125.009C86.48 125.356 85.4494 125.258 84.706 124.791C84.1206 124.423 83.8936 123.937 84.0786 123.578L-36.9217 47.5216L-73.4307 71.541C-73.0402 71.9552 -73.0142 72.422 -73.4293 72.6951C-73.9572 73.0424 -74.9877 72.9443 -75.7312 72.477C-76.4746 72.0097 -76.6507 71.3494 -76.1228 71.0021C-75.7077 70.729 -74.9813 70.7351 -74.3285 70.9766L-37.1828 46.5383L84.7153 123.159Z" fill="#4360AB"/>
<path d="M-0.263141 166.014L-77.1984 117.655L-84.3689 90.6546C-84.6042 90.5829 -84.8338 90.4844 -85.0422 90.3535C-85.7858 89.8861 -85.9619 89.2256 -85.4339 88.8782C-84.9066 88.5313 -83.8751 88.629 -83.1315 89.0964C-82.387 89.5644 -82.2124 90.2247 -82.7398 90.5717C-82.8869 90.6685 -83.0756 90.7268 -83.2831 90.757L-76.1891 117.47L0.746179 165.828L6.57943 187.788L-33.7917 214.348C-33.4011 214.763 -33.3751 215.23 -33.7903 215.503C-34.3177 215.85 -35.3482 215.753 -36.0927 215.285C-36.8372 214.817 -37.0119 214.156 -36.4845 213.809C-36.0693 213.536 -35.3427 213.542 -34.6897 213.784L5.4177 187.397L-0.263141 166.014Z" fill="#4360AB"/>
<path d="M79.6141 126.512C80.1699 126.386 80.9296 126.52 81.515 126.888C82.2584 127.355 82.4345 128.015 81.9066 128.363C81.3788 128.71 80.3482 128.612 79.6049 128.145C79.0195 127.777 78.7924 127.291 78.9774 126.931L-34.8372 55.3918L-66.2516 76.0594C-65.8611 76.4736 -65.8351 76.9404 -66.2502 77.2135C-66.7781 77.5608 -67.8086 77.4626 -68.552 76.9954C-69.2954 76.5281 -69.4715 75.8678 -68.9437 75.5205C-68.5286 75.2474 -67.8022 75.2535 -67.1494 75.4951L-35.0983 54.4085L79.6141 126.512Z" fill="#4360AB"/>
<path d="M28.3072 176.551C28.8619 176.424 29.6224 176.559 30.2076 176.926C30.9517 177.394 31.1263 178.054 30.5992 178.401C30.0721 178.748 29.042 178.651 28.2979 178.183C27.7127 177.815 27.4857 177.329 27.6706 176.97L-69.0748 116.16L-74.0218 97.5317C-74.2567 97.461 -74.4871 97.3621 -74.6945 97.2317C-75.4386 96.764 -75.6131 96.104 -75.086 95.7572C-74.5583 95.41 -73.5289 95.5076 -72.7847 95.9753C-72.0415 96.4425 -71.8654 97.1027 -72.3932 97.4498C-72.5396 97.5462 -72.7289 97.6049 -72.9371 97.6345L-68.0666 115.974L28.3072 176.551Z" fill="#4360AB"/>
<path d="M33.4005 173.197C33.9552 173.07 34.7156 173.205 35.3008 173.572C36.0449 174.04 36.2194 174.7 35.6924 175.047C35.1653 175.394 34.1353 175.296 33.3912 174.829C32.806 174.461 32.579 173.975 32.7639 173.616L-61.0021 114.679L-63.9921 103.42C-64.2272 103.348 -64.4568 103.25 -64.6641 103.119C-65.4073 102.652 -65.5834 101.992 -65.0557 101.645C-64.5286 101.298 -63.4977 101.396 -62.7545 101.863C-62.0104 102.331 -61.8359 102.991 -62.3629 103.337C-62.51 103.434 -62.6986 103.493 -62.9068 103.522L-59.9933 114.493L33.4011 173.196L33.4005 173.197Z" fill="#4360AB"/>
<path d="M-52.6302 111.633L-57.5582 93.0798L-37.0444 79.5838C-37.4348 79.1696 -37.4608 78.7028 -37.0457 78.4297C-36.5186 78.0829 -35.4874 78.1806 -34.7441 78.6479C-33.9999 79.1157 -33.8253 79.7758 -34.3524 80.1226C-34.7676 80.3957 -35.4939 80.3896 -36.1466 80.1481L-56.3968 93.4707L-51.6218 111.448L56.8833 179.65L94.9348 182.52L104.099 176.491C103.709 176.076 103.682 175.61 104.098 175.337C104.625 174.99 105.655 175.087 106.399 175.555C107.142 176.022 107.319 176.683 106.791 177.03C106.376 177.303 105.649 177.297 104.997 177.055L95.5804 183.25L56.6354 180.313L-52.6302 111.633Z" fill="#4360AB"/>
<path d="M57.6306 177.661L-48.5925 110.894L-52.9087 94.6436L-39.8166 86.0302C-40.207 85.6161 -40.233 85.1493 -39.8179 84.8762C-39.2901 84.5289 -38.2597 84.6271 -37.5163 85.0943C-36.773 85.5615 -36.5969 86.2218 -37.1247 86.569C-37.5398 86.8421 -38.2661 86.836 -38.9188 86.5945L-51.7474 95.0344L-47.5842 110.708L57.8785 176.998L92.3534 179.598L106.875 170.044C106.484 169.63 106.458 169.163 106.874 168.89C107.401 168.543 108.431 168.64 109.175 169.108C109.919 169.576 110.094 170.236 109.567 170.583C109.152 170.856 108.425 170.85 107.773 170.608L92.999 180.328L57.6306 177.661Z" fill="#4360AB"/>
<path d="M89.7381 167.457C89.3477 167.043 89.3217 166.576 89.7368 166.303C90.2646 165.956 91.2941 166.054 92.0383 166.521C92.7825 166.989 92.9577 167.649 92.4299 167.996C92.0149 168.269 91.2886 168.263 90.6358 168.021L85.2563 171.561L60.6156 169.702L-36.4853 108.669L-38.966 99.3307L-22.6726 88.6113C-23.063 88.1971 -23.089 87.7304 -22.6739 87.4573C-22.1468 87.1105 -21.1157 87.2082 -20.3724 87.6754C-19.6291 88.1426 -19.4536 88.8033 -19.9808 89.1501C-20.3959 89.4232 -21.1221 89.4171 -21.7749 89.1755L-37.8047 99.7216L-35.4777 108.484L60.8638 169.04L84.6109 170.832L89.7381 167.457Z" fill="#4360AB"/>
<path d="M109.196 141.011C109.939 141.479 110.115 142.139 109.587 142.486C109.059 142.834 108.029 142.735 107.286 142.268C106.7 141.9 106.473 141.414 106.658 141.055L-35.8873 51.4563L-76.2157 77.9885C-75.8253 78.4027 -75.7993 78.8695 -76.2144 79.1426C-76.7422 79.4899 -77.7728 79.3918 -78.5162 78.9245C-79.2596 78.4572 -79.4357 77.7969 -78.9079 77.4496C-78.4927 77.1765 -77.7664 77.1826 -77.1136 77.4242L-36.1484 50.4731L107.294 140.635C107.85 140.509 108.609 140.643 109.196 141.011Z" fill="#4360AB"/>
<path d="M102.184 145.622C101.598 145.254 101.371 144.768 101.556 144.409L-33.8032 59.3271L-69.0372 82.5076C-68.6467 82.9218 -68.6207 83.3886 -69.0358 83.6617C-69.5637 84.009 -70.5942 83.9108 -71.3376 83.4436C-72.081 82.9763 -72.2571 82.316 -71.7292 81.9688C-71.3141 81.6957 -70.5878 81.7017 -69.935 81.9433L-34.0644 58.3439L102.192 143.989C102.748 143.863 103.508 143.997 104.093 144.365C104.836 144.832 105.012 145.492 104.485 145.84C103.957 146.187 102.927 146.089 102.184 145.622Z" fill="#4360AB"/>
<path d="M97.0842 148.972C96.4988 148.604 96.2718 148.118 96.4568 147.759L-31.717 67.194L-61.8566 87.023C-61.4661 87.4371 -61.4401 87.9039 -61.8553 88.177C-62.3831 88.5243 -63.4136 88.4261 -64.1569 87.9589C-64.9003 87.4916 -65.0764 86.8314 -64.5486 86.4841C-64.1335 86.211 -63.4071 86.2171 -62.7544 86.4586L-31.9781 66.2108L97.0926 147.339C97.6483 147.213 98.408 147.347 98.9933 147.715C99.7367 148.182 99.9128 148.843 99.385 149.19C98.8571 149.537 97.8275 149.439 97.0842 148.972Z" fill="#4360AB"/>
<path d="M96.9167 170.82C97.4445 170.473 98.4741 170.571 99.2183 171.038C99.9625 171.506 100.138 172.166 99.6099 172.513C99.1948 172.786 98.4685 172.78 97.8158 172.539L90.4179 177.406L58.6252 175.008L-44.5582 110.151L-48.2627 96.205L-29.8591 84.0972C-30.2495 83.6831 -30.2755 83.2163 -29.8604 82.9432C-29.3333 82.5964 -28.3021 82.6941 -27.5588 83.1613C-26.8155 83.6286 -26.64 84.2892 -27.1672 84.636C-27.5823 84.9091 -28.3086 84.9031 -28.9613 84.6615L-47.1013 96.5959L-43.5499 109.966L58.8731 174.345L89.7723 176.675L96.9181 171.974C96.5276 171.56 96.501 171.094 96.9167 170.82Z" fill="#4360AB"/>
<path d="M99.6943 164.371C100.221 164.024 101.252 164.121 101.996 164.589C102.74 165.056 102.915 165.717 102.388 166.063C101.972 166.336 101.246 166.33 100.593 166.089L87.8383 174.48L59.622 172.353L-40.5198 109.408L-43.6131 97.7656L-32.6304 90.54C-33.0208 90.1259 -33.0468 89.6591 -32.6317 89.386C-32.104 89.0388 -31.0735 89.137 -30.3302 89.6042C-29.5869 90.0714 -29.4108 90.7316 -29.9385 91.0789C-30.3536 91.352 -31.0799 91.3459 -31.7327 91.1043L-42.4512 98.1561L-39.5108 109.222L59.8706 171.689L87.1933 173.75L99.6963 165.524C99.3052 165.11 99.2786 164.644 99.6943 164.371Z" fill="#4360AB"/>
<path d="M92.5136 159.854C93.0407 159.508 94.0709 159.605 94.8151 160.073C95.5593 160.54 95.7339 161.2 95.2067 161.547C94.7917 161.82 94.0654 161.814 93.4127 161.573L82.6759 168.636L61.6118 167.048L-32.4475 107.927L-34.3164 100.892L-25.4444 95.0549C-25.8348 94.6408 -25.8608 94.174 -25.4457 93.9009C-24.9179 93.5537 -23.8875 93.6519 -23.1442 94.1191C-22.4009 94.5863 -22.2248 95.2465 -22.7526 95.5937C-23.1677 95.8668 -23.8939 95.8607 -24.5467 95.6192L-33.1558 101.283L-31.4398 107.742L61.8591 166.385L82.0297 167.907L92.5143 161.009C92.1245 160.594 92.0979 160.128 92.5136 159.854Z" fill="#4360AB"/>
<path d="M82.5579 161.785C83.0857 161.438 84.1152 161.535 84.8594 162.003C85.6036 162.471 85.7788 163.13 85.251 163.478C84.8359 163.751 84.1097 163.745 83.457 163.503L80.0956 165.715L62.6076 164.395L-28.4116 107.185L-29.6682 102.453L-15.485 93.1218C-15.8754 92.7077 -15.9014 92.2409 -15.4863 91.9678C-14.9592 91.621 -13.9281 91.7187 -13.1848 92.1859C-12.4415 92.6531 -12.2661 93.3138 -12.7932 93.6606C-13.2083 93.9336 -13.9346 93.9276 -14.5873 93.686L-28.5069 102.844L-27.4034 106.999L62.8564 163.733L79.4515 164.985L82.5608 162.939C82.1688 162.525 82.1422 162.058 82.5579 161.785Z" fill="#4360AB"/>
<path d="M68.8534 142.803L62.2955 138.681L51.0593 137.616L6.61267 109.679C6.05792 109.806 5.29752 109.671 4.71228 109.304C3.96817 108.836 3.79364 108.176 4.32071 107.829C4.84841 107.482 5.87783 107.58 6.62194 108.047C7.20718 108.415 7.43479 108.9 7.24922 109.26L51.3242 136.964L62.5604 138.029L69.4899 142.385C70.0455 142.258 70.8051 142.392 71.3903 142.76C72.1335 143.227 72.3089 143.888 71.7819 144.235C71.2542 144.582 70.2238 144.484 69.4806 144.017C68.8954 143.649 68.6693 143.163 68.8534 142.803Z" fill="#4360AB"/>
<path d="M-3.68125 96.7925C-4.67122 96.1703 -4.90536 95.2886 -4.2033 94.8267C-3.50125 94.3649 -2.12524 94.4953 -1.13528 95.1175C-0.301486 95.6416 -0.0123657 96.3474 -0.358705 96.8339L49.1188 127.933C49.8673 127.699 50.9711 127.869 51.8049 128.393C52.7948 129.015 53.029 129.897 52.3269 130.359C51.6249 130.821 50.2489 130.69 49.2589 130.068C48.4251 129.544 48.1351 128.838 48.4823 128.352L-0.995199 97.2526C-1.74363 97.4864 -2.84836 97.316 -3.68125 96.7925ZM-1.77177 95.5363C-2.2672 95.2249 -2.95508 95.1601 -3.30579 95.3909C-3.65649 95.6216 -3.54019 96.0624 -3.04476 96.3738C-2.54933 96.6852 -1.86146 96.7499 -1.51075 96.5192C-1.1594 96.288 -1.27634 95.8477 -1.77177 95.5363ZM49.8954 129.649C50.3899 129.96 51.0787 130.026 51.4294 129.795C51.7801 129.564 51.6629 129.123 51.1684 128.812C50.6739 128.501 49.9851 128.436 49.6344 128.667C49.2837 128.897 49.4 129.338 49.8954 129.649Z" fill="#4360AB"/>
<path d="M-6.81008 105.34C-7.55327 104.872 -7.72932 104.212 -7.20164 103.865C-6.67396 103.518 -5.64369 103.616 -4.9005 104.083C-4.31529 104.451 -4.08859 104.936 -4.27325 105.296L50.2619 139.575L61.4976 140.64L80.1957 152.392C80.7505 152.265 81.5108 152.4 82.096 152.768C82.8401 153.236 83.0153 153.895 82.4876 154.242C81.9599 154.59 80.9305 154.492 80.1865 154.024C79.6012 153.656 79.3743 153.171 79.5592 152.811L61.2327 141.292L49.997 140.227L-4.90978 105.715C-5.4654 105.842 -6.22487 105.707 -6.81008 105.34Z" fill="#4360AB"/>
<path d="M-0.385958 112.66C-1.13007 112.192 -1.30524 111.533 -0.777534 111.186C-0.249832 110.838 0.779587 110.936 1.5237 111.404C2.10894 111.772 2.33654 112.257 2.15098 112.617L49.1998 142.19L60.4359 143.255L64.3916 145.741C64.9473 145.614 65.7068 145.749 66.292 146.117C67.0352 146.584 67.2113 147.244 66.6836 147.591C66.1559 147.938 65.1256 147.84 64.3824 147.373C63.7971 147.005 63.5702 146.519 63.7551 146.16L60.171 143.907L48.9348 142.842L1.51442 113.036C0.958783 113.162 0.199279 113.028 -0.385958 112.66Z" fill="#4360AB"/>
<path d="M32.0401 183.809C31.4549 183.441 31.2279 182.956 31.4128 182.596L-73.1093 116.898L-80.8705 87.6702C-81.1057 87.5985 -81.3352 87.5001 -81.5435 87.3692C-82.2868 86.902 -82.4628 86.2418 -81.9351 85.8946C-81.408 85.5478 -80.377 85.6455 -79.6337 86.1127C-78.8895 86.5805 -78.715 87.2405 -79.2421 87.5873C-79.3898 87.6845 -79.5778 87.7424 -79.7858 87.773L-72.1002 116.713L32.0494 182.177C32.6042 182.05 33.3647 182.185 33.9499 182.553C34.6941 183.021 34.8687 183.681 34.3416 184.027C33.8144 184.374 32.7834 184.276 32.0401 183.809Z" fill="#4360AB"/>
<path d="M39.0449 179.198C39.789 179.665 39.9636 180.326 39.4365 180.672C38.9094 181.019 37.8793 180.922 37.1351 180.454C36.5499 180.086 36.3229 179.6 36.5078 179.241L-65.0351 115.416L-70.9408 93.1775C-71.1757 93.1069 -71.4053 93.0085 -71.6135 92.8776C-72.3568 92.4104 -72.5322 91.7498 -72.0051 91.403C-71.478 91.0563 -70.447 91.154 -69.7038 91.6212C-68.9605 92.0883 -68.7851 92.7489 -69.3122 93.0957C-69.4592 93.1924 -69.6479 93.2507 -69.8552 93.2809L-64.0269 115.23L37.1444 178.822C37.6992 178.695 38.4587 178.829 39.0449 179.198Z" fill="#4360AB"/>
<path d="M28.4233 72.9046C29.4134 73.5268 29.6475 74.4085 28.9454 74.8704C28.7099 75.0254 28.3962 75.1082 28.0492 75.1333L29.1293 79.2007L81.9098 112.376L87.9266 112.946C87.9592 112.723 88.0799 112.519 88.3154 112.364C89.0175 111.902 90.3936 112.032 91.3836 112.655C92.3736 113.277 92.6078 114.159 91.9057 114.62C91.2036 115.082 89.8275 114.952 88.8375 114.33C88.5054 114.121 88.2672 113.883 88.1111 113.641L81.6449 113.028L28.1212 79.3859L26.9646 75.0305C26.585 74.9361 26.2093 74.7884 25.8772 74.5796C24.8881 73.9579 24.6531 73.0757 25.3552 72.6138C26.0572 72.1519 27.4342 72.2828 28.4233 72.9046ZM89.4725 113.911C89.9671 114.222 90.6559 114.287 91.0066 114.056C91.3573 113.825 91.2401 113.384 90.7456 113.073C90.251 112.762 89.5622 112.697 89.2115 112.928C88.8607 113.159 88.978 113.6 89.4725 113.911ZM26.5138 74.1609C27.0092 74.4723 27.6971 74.537 28.0479 74.3063C28.3986 74.0755 28.2823 73.6348 27.7868 73.3233C27.2914 73.0119 26.6034 72.9472 26.2527 73.1779C25.902 73.4087 26.0183 73.8494 26.5138 74.1609Z" fill="#4360AB"/>
<path d="M73.0063 155.114C73.7505 155.582 73.9256 156.241 73.3979 156.589C72.8702 156.936 71.8407 156.838 71.0965 156.371C70.8891 156.24 70.7315 156.094 70.6148 155.945L54.7076 154.437L8.44388 125.358C7.8882 125.484 7.12929 125.35 6.54401 124.982C5.79985 124.514 5.62467 123.854 6.15241 123.507C6.67951 123.16 7.70963 123.258 8.4538 123.725C9.03907 124.093 9.26605 124.579 9.08047 124.939L54.9726 153.785L70.4302 155.25C70.4715 155.115 70.5578 154.993 70.7049 154.896C71.232 154.549 72.2621 154.646 73.0063 155.114Z" fill="#4360AB"/>
<path d="M15.4931 178.468C14.9369 178.595 14.1766 178.46 13.5908 178.092C12.8459 177.624 12.6712 176.963 13.1988 176.616C13.7264 176.269 14.7575 176.366 15.5023 176.835C16.0882 177.203 16.3153 177.689 16.1302 178.049L34.4514 189.565L-1.57048 213.264C-1.17971 213.678 -1.15371 214.146 -1.56915 214.419C-2.09674 214.766 -3.12782 214.669 -3.87266 214.201C-4.61662 213.733 -4.79222 213.072 -4.26463 212.725C-3.84918 212.451 -3.12225 212.457 -2.46897 212.699L32.9157 189.419L15.4931 178.468Z" fill="#4360AB"/>
<path d="M-92.018 79.9913C-91.4907 79.6443 -90.4592 79.7421 -89.7157 80.2095C-88.9712 80.6774 -88.7966 81.3378 -89.3239 81.6847C-89.471 81.7815 -89.6598 81.8398 -89.8678 81.8704L-80.2165 118.213L-3.2817 166.571L1.93774 186.225L-34.4733 210.18C-34.0827 210.594 -34.0567 211.061 -34.4719 211.335C-34.9992 211.681 -36.0298 211.584 -36.7743 211.116C-37.5188 210.648 -37.6934 209.988 -37.166 209.641C-36.7508 209.368 -36.0243 209.374 -35.3713 209.616L0.776028 185.834L-4.29125 166.756L-81.2251 118.398L-90.953 81.7676C-91.1883 81.6959 -91.4179 81.5975 -91.6263 81.4665C-92.3698 80.9991 -92.5454 80.3382 -92.018 79.9913Z" fill="#4360AB"/>
<path d="M-51.8897 86.2451C-52.4175 86.5923 -53.448 86.4942 -54.1914 86.027C-54.9347 85.5597 -55.1108 84.8995 -54.583 84.5522C-54.1679 84.2791 -53.4416 84.2852 -52.7888 84.5268L-30.9264 70.1434L69.4134 133.213C69.9692 133.086 70.7288 133.221 71.3141 133.589C72.0575 134.056 72.2336 134.716 71.7058 135.063C71.178 135.411 70.1475 135.312 69.4041 134.845C68.8188 134.477 68.5918 133.991 68.7768 133.632L-30.6662 71.1261L-51.8919 85.0905C-51.5006 85.5052 -51.4746 85.972 -51.8897 86.2451Z" fill="#4360AB"/>
<path d="M-59.0688 81.7297C-59.5966 82.077 -60.6272 81.9788 -61.3705 81.5116C-62.1139 81.0443 -62.29 80.384 -61.7622 80.0368C-61.3471 79.7637 -60.6207 79.7698 -59.9679 80.0113L-33.0113 62.2765L74.5145 129.863C75.0703 129.736 75.8299 129.871 76.4153 130.238C77.1586 130.706 77.3347 131.366 76.8069 131.713C76.2791 132.061 75.2486 131.962 74.5052 131.495C73.9199 131.127 73.6928 130.641 73.8778 130.282L-32.7511 63.2591L-59.071 80.5751C-58.6797 80.9898 -58.6537 81.4566 -59.0688 81.7297Z" fill="#4360AB"/>
</g>
<path d="M64.5399 109.374L41.0524 124.061V65.3354L64.5399 80.0336V109.374Z" fill="white"/>
<path d="M88.0274 65.349L64.5399 80.036V23.2593L88.0274 37.9575V65.349Z" fill="white"/>
<path d="M111.525 138.635L88.0277 153.322V65.3354L111.525 80.0336V138.635Z" fill="white"/>
<mask id="mask2_601_6350" style="mask-type:alpha" maskUnits="userSpaceOnUse" x="91" y="67" width="18" height="84">
<path d="M108.955 78.5002L108.828 150.773L91.0375 139.576L91.1264 67.0001L108.955 78.5002Z" fill="#2B66B1"/>
</mask>
<g mask="url(#mask2_601_6350)">
<path d="M80.2657 101.688L80.2254 185.493L92.9285 199.333L112.326 186.027C112.458 186.598 112.811 186.833 113.229 186.546C113.76 186.181 114.192 185.122 114.192 184.178C114.193 183.234 113.762 182.766 113.231 183.13C112.812 183.417 112.459 184.136 112.327 184.888L93.1946 198.012L80.8673 184.581L80.9075 100.775L56.4426 74.1195L56.5211 -89.3703L55.8795 -88.9302L55.8007 75.0322L80.2657 101.688Z" fill="#4360AB"/>
<path d="M82.8336 97.9899L82.7933 181.882L93.9953 194.099L105.914 185.915C106.046 186.486 106.398 186.721 106.817 186.434C107.348 186.069 107.78 185.008 107.78 184.064C107.781 183.119 107.35 182.65 106.818 183.015C106.4 183.302 106.047 184.022 105.914 184.775L94.2615 192.776L83.4352 180.97L83.4754 97.0774L59.0097 70.3941L59.0873 -91.3774L58.4457 -90.9368L58.3678 71.3066L82.8336 97.9899Z" fill="#4360AB"/>
<path d="M85.3998 94.4919L85.3596 178.336L95.0593 188.906L112.331 177.054C112.463 177.625 112.815 177.86 113.234 177.573C113.765 177.208 114.197 176.148 114.197 175.204C114.197 174.259 113.767 173.791 113.235 174.155C112.817 174.442 112.464 175.162 112.331 175.914L95.3255 187.585L86.0014 177.424L86.0417 93.58L61.5764 66.9126L61.6532 -92.8753L61.0115 -92.435L60.9346 67.8245L85.3998 94.4919Z" fill="#4360AB"/>
<path d="M87.9676 90.7925L87.9273 174.728L96.1252 183.671L105.918 176.943C106.05 177.515 106.402 177.751 106.821 177.463C107.352 177.098 107.783 176.037 107.784 175.091C107.784 174.146 107.354 173.677 106.822 174.042C106.404 174.329 106.051 175.05 105.918 175.803L96.3914 182.348L88.5692 173.815L88.6095 89.8796L64.1432 63.1832L64.2191 -94.8879L63.5774 -94.4471L63.5013 64.0961L87.9676 90.7925Z" fill="#4360AB"/>
<path d="M90.5377 87.0281L90.4974 171.105L95.6948 176.784C95.6344 177.048 95.5983 177.321 95.5982 177.585C95.5978 178.532 96.0286 179.001 96.56 178.636C97.0913 178.27 97.5229 177.207 97.5234 176.26C97.5238 175.313 97.093 174.843 96.5616 175.209C96.4134 175.311 96.2747 175.471 96.1489 175.664L91.1394 170.191L91.1797 86.1136L66.7111 59.3721L66.7861 -97.0733L66.1443 -96.6318L66.0692 60.2866L90.5377 87.0281Z" fill="#4360AB"/>
<path d="M111.994 133.531C111.934 133.793 111.898 134.064 111.898 134.326C111.897 135.265 112.328 135.732 112.859 135.369C113.39 135.006 113.822 133.95 113.822 133.011C113.823 132.071 113.392 131.605 112.861 131.968C112.713 132.069 112.574 132.228 112.448 132.42L98.2237 116.985L98.2448 73.3033L74.8926 47.9646L74.9006 31.3876C75.2734 30.8994 75.5426 30.0922 75.5429 29.3529C75.5434 28.4141 75.1126 27.9466 74.5814 28.3096C74.0495 28.6729 73.6186 29.7289 73.6182 30.6678C73.6178 31.407 73.8857 31.8475 74.259 31.8271L74.2508 48.8723L97.603 74.211L97.5819 117.893L111.994 133.531Z" fill="#4360AB"/>
<path d="M80.0273 40.5296L80.0334 27.6958C80.4063 27.207 80.6755 26.3988 80.6758 25.6587C80.6763 24.7188 80.2455 24.2509 79.7142 24.6142C79.183 24.9775 78.7515 26.0352 78.751 26.9751C78.7507 27.7152 79.0192 28.1556 79.3919 28.1345L79.3854 41.4384L102.738 66.8057L102.717 110.537L106.872 115.051C106.812 115.314 106.776 115.584 106.776 115.847C106.776 116.787 107.207 117.255 107.738 116.892C108.269 116.528 108.701 115.471 108.701 114.531C108.701 113.591 108.271 113.123 107.739 113.486C107.591 113.588 107.453 113.747 107.327 113.939L103.359 109.628L103.38 65.897L80.0273 40.5296Z" fill="#4360AB"/>
<path d="M82.6072 14.5459C82.9801 14.0604 83.2492 13.2578 83.2496 12.5228C83.25 11.5893 82.8193 11.1246 82.288 11.4854C81.7568 11.8462 81.3254 12.8967 81.3249 13.8301C81.3245 14.5651 81.5931 15.0026 81.9657 14.9816L81.9547 37.5996L105.066 62.5343L112.342 57.5922C112.485 58.4641 112.983 58.8475 113.579 58.4426C114.286 57.9624 114.862 56.5598 114.863 55.3164C114.863 54.0729 114.288 53.453 113.581 53.9332C112.985 54.3381 112.487 55.3977 112.342 56.4649L105.332 61.2266L82.5965 36.6971L82.6072 14.5459ZM113.58 55.0594C113.934 54.8189 114.222 55.1287 114.221 55.751C114.221 56.3733 113.933 57.0736 113.579 57.3141C113.225 57.5547 112.938 57.2449 112.938 56.6226C112.938 56.0014 113.226 55.3 113.58 55.0594Z" fill="#4360AB"/>
<path d="M51.4903 82.2111C51.5501 81.9494 51.5861 81.6813 51.5863 81.4195C51.5867 80.4854 51.1566 80.0199 50.6248 80.3814C50.0935 80.7425 49.6621 81.7937 49.6616 82.7279C49.6611 83.6631 50.0919 84.1271 50.6231 83.766C50.772 83.6648 50.9106 83.5063 51.0364 83.3171L75.3786 109.599L75.3317 206.251L85.1385 216.839L122.616 191.363C122.748 191.929 123.101 192.162 123.519 191.877C124.05 191.516 124.482 190.466 124.482 189.531C124.482 188.596 124.052 188.132 123.521 188.493C123.102 188.777 122.749 189.49 122.617 190.235L85.4046 215.53L75.9735 205.348L76.0204 108.696L51.4903 82.2111Z" fill="#4360AB"/>
<path d="M73.4062 209.022L73.4531 112.335L51.4435 88.5626C51.5039 88.3015 51.5399 88.0333 51.54 87.7715C51.5405 86.837 51.1097 86.3717 50.5785 86.7329C50.0473 87.0942 49.6158 88.1458 49.6154 89.0803C49.6149 90.0147 50.0457 90.48 50.5769 90.1188C50.7257 90.0176 50.8637 89.8594 50.9895 89.6701L72.8113 113.239L72.7645 209.926L84.0731 222.14L119.689 197.921C119.821 198.487 120.174 198.72 120.592 198.435C121.123 198.074 121.555 197.024 121.555 196.088C121.555 195.152 121.125 194.688 120.593 195.049C120.175 195.334 119.822 196.047 119.69 196.792L84.3393 220.831L73.4062 209.022Z" fill="#4360AB"/>
<path d="M68.2716 216.414L68.3185 119.812L50.7204 100.821C50.7801 100.559 50.8162 100.291 50.8163 100.029C50.8168 99.0957 50.3866 98.6304 49.8548 98.9917C49.3236 99.3527 48.8921 100.403 48.8916 101.337C48.8912 102.272 49.3219 102.736 49.8532 102.375C50.0014 102.274 50.14 102.116 50.2658 101.926L67.6761 120.715L67.6292 217.318L81.9409 232.765L122.608 205.134C122.74 205.699 123.093 205.932 123.511 205.648C124.042 205.287 124.474 204.237 124.474 203.303C124.475 202.368 124.044 201.904 123.513 202.265C123.094 202.549 122.741 203.261 122.609 204.006L82.2071 231.456L68.2716 216.414Z" fill="#4360AB"/>
<path d="M102.897 164.081L97.4683 158.271L97.4731 148.48C97.8459 147.998 98.115 147.202 98.1154 146.473C98.1158 145.546 97.6851 145.086 97.1539 145.444C96.6227 145.802 96.1912 146.843 96.1908 147.77C96.1904 148.499 96.4589 148.933 96.8315 148.912L96.8265 159.166L102.631 165.379L115.058 157.004L120.107 162.409L122.096 161.068C122.228 161.629 122.581 161.86 122.999 161.578C123.53 161.22 123.962 160.179 123.962 159.251C123.962 158.324 123.532 157.864 123.001 158.222C122.582 158.504 122.229 159.21 122.097 159.949L120.373 161.111L115.324 155.706L102.897 164.081Z" fill="#4360AB"/>
<path d="M103.962 158.671L100.035 154.459L100.041 142.022C100.414 141.54 100.683 140.742 100.683 140.011C100.684 139.082 100.253 138.621 99.7218 138.979C99.1906 139.338 98.7591 140.381 98.7587 141.311C98.7583 142.041 99.0268 142.476 99.3994 142.456L99.3931 155.356L103.695 159.971L116.123 151.579L116.813 152.319C116.753 152.579 116.717 152.846 116.716 153.105C116.716 154.034 117.147 154.495 117.678 154.136C118.209 153.778 118.641 152.734 118.641 151.805C118.641 150.876 118.211 150.415 117.68 150.774C117.531 150.874 117.393 151.031 117.267 151.221L116.389 150.279L103.962 158.671Z" fill="#4360AB"/>
<path d="M76.1908 17.3651C76.1905 18.1054 76.459 18.5459 76.8316 18.5248L76.8188 45.0671L100.171 70.4403L100.15 114.182L109.434 124.27C109.374 124.532 109.338 124.802 109.338 125.065C109.338 126.005 109.768 126.473 110.3 126.11C110.831 125.746 111.262 124.688 111.263 123.748C111.263 122.808 110.833 122.34 110.301 122.704C110.153 122.805 110.014 122.965 109.889 123.156L100.792 113.273L100.813 69.5314L77.4607 44.1581L77.4732 18.086C77.8461 17.5971 78.1152 16.7887 78.1156 16.0484C78.116 15.1083 77.6853 14.6403 77.154 15.0037C76.6228 15.3671 76.1913 16.425 76.1908 17.3651Z" fill="#4360AB"/>
<path d="M93.6474 99.2759C93.6471 100.015 93.9156 100.455 94.2882 100.433L94.2582 162.564L101.565 170.488L113.992 162.003L121.935 170.616C121.875 170.879 121.839 171.148 121.839 171.411C121.839 172.349 122.269 172.817 122.801 172.454C123.332 172.091 123.763 171.035 123.764 170.097C123.764 169.157 123.334 168.691 122.802 169.054C122.654 169.155 122.515 169.315 122.389 169.506L114.258 160.688L101.831 169.173L94.8994 161.657L94.9292 99.997C95.302 99.5079 95.5712 98.7011 95.5715 97.9622C95.572 97.0238 95.1418 96.5562 94.61 96.9194C94.0794 97.2817 93.6479 98.3376 93.6474 99.2759Z" fill="#4360AB"/>
<path d="M118.819 68.1897C119.351 67.8257 119.782 66.7676 119.783 65.827C119.783 64.8863 119.353 64.4176 118.821 64.7816C118.403 65.0679 118.05 65.785 117.917 66.5359L108.531 72.96L108.517 102.819L115.368 110.269C115.308 110.532 115.272 110.802 115.272 111.065C115.271 112.006 115.702 112.474 116.233 112.111C116.765 111.747 117.196 110.689 117.197 109.748C117.197 108.807 116.766 108.339 116.235 108.703C116.087 108.804 115.948 108.964 115.822 109.155L109.159 101.91L109.172 73.6569L117.917 67.672C118.049 68.2411 118.401 68.476 118.819 68.1897Z" fill="#4360AB"/>
<path d="M118.821 63.6015C119.353 63.2372 119.784 62.1783 119.784 61.237C119.785 60.2945 119.355 59.8265 118.823 60.1909C118.404 60.4774 118.052 61.1939 117.919 61.9465L105.966 70.1333L105.949 106.448L117.929 119.481C117.868 119.744 117.832 120.014 117.832 120.278C117.832 121.22 118.263 121.688 118.794 121.324C119.326 120.96 119.757 119.901 119.757 118.96C119.758 118.017 119.327 117.549 118.795 117.914C118.647 118.015 118.509 118.175 118.383 118.366L106.591 105.537L106.607 70.8307L117.918 63.0834C118.051 63.653 118.403 63.8881 118.821 63.6015Z" fill="#4360AB"/>
<path d="M92.0311 79.076C92.0305 80.3158 92.6055 80.936 93.3131 80.4563C94.0207 79.9766 94.5967 78.5763 94.5973 77.3365C94.5979 76.0956 94.0229 75.4765 93.3153 75.9562C93.0779 76.1171 92.8585 76.3862 92.6672 76.7138L72.4207 54.9147C72.5337 54.5029 72.6026 54.0716 72.6028 53.6554C72.6034 52.4145 72.0284 51.7954 71.3208 52.2751C70.6132 52.7547 70.0372 54.154 70.0366 55.3949C70.036 56.6347 70.611 57.2549 71.3186 56.7752C71.556 56.6143 71.7754 56.3451 71.9667 56.0175L92.2132 77.8166C92.1002 78.2284 92.0313 78.6597 92.0311 79.076ZM93.9558 77.7714C93.9555 78.3924 93.6678 79.0912 93.3137 79.3313C92.9595 79.5713 92.6724 79.2621 92.6727 78.6411C92.673 78.0201 92.9606 77.3213 93.3148 77.0812C93.6689 76.8411 93.9561 77.1503 93.9558 77.7714ZM70.6781 54.96C70.6784 54.339 70.9661 53.6401 71.3202 53.4001C71.6744 53.16 71.9615 53.4692 71.9612 54.0902C71.9609 54.7113 71.6733 55.4101 71.3191 55.6502C70.965 55.8902 70.6778 55.581 70.6781 54.96Z" fill="#4360AB"/>
<path d="M46.1457 88.2948C45.6145 88.6559 45.183 89.7072 45.1826 90.6414C45.1821 91.5768 45.6129 92.0407 46.1441 91.6796C46.2923 91.5789 46.4309 91.4204 46.5573 91.2307L70.2445 116.807L70.1976 213.465L83.0075 227.297L119.686 202.362C119.818 202.928 120.171 203.161 120.589 202.876C121.12 202.515 121.552 201.465 121.552 200.53C121.553 199.594 121.122 199.13 120.591 199.491C120.172 199.776 119.819 200.488 119.687 201.234L83.2736 225.988L70.8394 212.561L70.8862 115.904L47.0113 90.1246C47.0711 89.8629 47.1071 89.5948 47.1072 89.333C47.1077 88.3988 46.6769 87.9337 46.1457 88.2948Z" fill="#4360AB"/>
</g>
<path d="M82.3678 142.614L83.1166 143.47V75.0723L82.3678 75.9377V142.614Z" fill="white"/>
<path d="M76.3775 139.523L77.1263 140.133V78.4082L76.3775 79.0265V139.523Z" fill="white"/>
<path d="M69.6382 136.432L70.387 136.796V81.7441L69.6382 82.1152V136.432Z" fill="white"/>
<path d="M135.013 65.3366L111.526 80.0348V0L135.013 14.6869V65.3366Z" fill="white"/>
<path d="M158.501 109.577L135.013 124.275V65.3354L158.501 80.0336V109.577Z" fill="white"/>
</svg>
