<?xml version="1.0" encoding="UTF-8" standalone="no"?>
<svg
   width="122"
   height="120"
   viewBox="0 0 122 120"
   fill="none"
   version="1.1"
   id="svg60"
   xmlns="http://www.w3.org/2000/svg"
   xmlnsSvg="http://www.w3.org/2000/svg">
  <g
     clip-path="url(#clip0_14515_120584)"
     id="g60">
    <circle
       cx="61"
       cy="60"
       r="59"
       fill="white"
       stroke="#613ED2"
       stroke-width="2"
       id="circle1" />
    <path
       d="M85.7881 43.8116H38.3303C37.9185 43.8116 37.5585 43.5245 37.4572 43.1137C37.356 42.7029 37.5404 42.2756 37.9032 42.0739L61.6326 28.977C61.899 28.8306 62.2184 28.8306 62.4848 28.977L86.2152 42.0749C86.578 42.275 86.7625 42.7039 86.6612 43.1148C86.5604 43.5239 86.2003 43.8123 85.7885 43.8123L85.7881 43.8116ZM41.9046 41.9642H82.2127L62.0597 30.8398L41.9046 41.9642Z"
       fill="#613ED2"
       id="path1" />
    <path
       d="M86.4511 82.6779H37.6613C37.1647 82.6779 36.7617 82.2642 36.7617 81.7544V78.7895C36.7617 77.1087 38.0928 75.7422 39.7301 75.7422H84.3829C86.0202 75.7422 87.3513 77.1087 87.3513 78.7895V81.7544C87.3513 82.2642 86.9479 82.6779 86.4513 82.6779H86.4511ZM85.5499 80.8309V78.7895C85.5499 78.1283 85.0263 77.5897 84.3811 77.5897L39.7293 77.5893C39.0853 77.5893 38.5605 78.1267 38.5605 78.7891L38.5601 80.8309H85.5499L85.5499 80.8309Z"
       fill="#613ED2"
       id="path2" />
    <path
       d="M83.7214 77.5924C83.2248 77.5924 82.8218 77.1787 82.8218 76.6689V73.7036C82.8218 73.0424 82.2983 72.5037 81.653 72.5037H42.461C41.8169 72.5037 41.2922 73.0412 41.2922 73.7036V76.6685C41.2922 77.1783 40.8892 77.592 40.3926 77.592C39.896 77.592 39.493 77.1783 39.493 76.6685L39.4922 73.7036C39.4922 72.0227 40.8233 70.6562 42.4606 70.6562H81.6537C83.291 70.6562 84.622 72.0227 84.622 73.7036V76.6685C84.6212 77.1787 84.2178 77.5924 83.7212 77.5924L83.7214 77.5924Z"
       fill="#613ED2"
       id="path3" />
    <path
       d="M50.0002 48.0866H44.6327C43.4562 48.0866 42.5 47.1049 42.5 45.8972V42.8923C42.5 42.3825 42.903 41.9688 43.3996 41.9688C43.8962 41.9688 44.2992 42.3825 44.2992 42.8923V45.8972C44.2992 46.0849 44.4479 46.2391 44.6323 46.2391H49.9999C50.1827 46.2391 50.3329 46.0865 50.3329 45.8972V42.8923C50.3329 42.3825 50.7359 41.9688 51.2325 41.9688C51.7292 41.9688 52.1322 42.3825 52.1322 42.8923V45.8972C52.133 47.105 51.1767 48.0866 50.0002 48.0866Z"
       fill="#613ED2"
       id="path4" />
    <path
       d="M64.7463 48.0866H59.3788C58.2023 48.0866 57.2461 47.1049 57.2461 45.8972V42.8923C57.2461 42.3825 57.6491 41.9688 58.1457 41.9688C58.6423 41.9688 59.0453 42.3825 59.0453 42.8923V45.8972C59.0453 46.0849 59.194 46.2391 59.3784 46.2391H64.7459C64.9288 46.2391 65.079 46.0865 65.079 45.8972V42.8923C65.079 42.3825 65.482 41.9688 65.9786 41.9688C66.4752 41.9688 66.8782 42.3825 66.8782 42.8923V45.8972C66.8791 47.105 65.9224 48.0866 64.7463 48.0866Z"
       fill="#613ED2"
       id="path5" />
    <path
       d="M79.4768 48.0866H74.1092C72.9327 48.0866 71.9766 47.1049 71.9766 45.8972V42.8923C71.9766 42.3825 72.3796 41.9688 72.8762 41.9688C73.3728 41.9688 73.7758 42.3825 73.7758 42.8923V45.8972C73.7758 46.0849 73.9244 46.2391 74.1089 46.2391H79.4764C79.6592 46.2391 79.8095 46.0865 79.8095 45.8972V42.8923C79.8095 42.3825 80.2125 41.9688 80.7091 41.9688C81.2057 41.9688 81.6087 42.3825 81.6087 42.8923V45.8972C81.6095 47.105 80.6533 48.0866 79.4768 48.0866Z"
       fill="#613ED2"
       id="path6" />
    <path
       d="M51.2404 72.5167C50.7438 72.5167 50.3408 72.103 50.3408 71.5931V68.5882C50.3408 68.4006 50.1921 68.2463 50.0077 68.2463H44.6401C44.4573 68.2463 44.307 68.3989 44.307 68.5882V71.5927C44.307 72.1025 43.904 72.5163 43.4074 72.5163C42.9108 72.5163 42.5078 72.1025 42.5078 71.5927V68.5878C42.5078 67.38 43.4641 66.3984 44.6405 66.3984H50.008C51.1845 66.3984 52.1407 67.3801 52.1407 68.5878L52.1403 71.5927C52.1403 72.103 51.7373 72.5167 51.2403 72.5167L51.2404 72.5167Z"
       fill="#613ED2"
       id="path7" />
    <path
       d="M65.9786 72.5167C65.482 72.5167 65.079 72.103 65.079 71.5931V68.5882C65.079 68.4006 64.9304 68.2463 64.7459 68.2463H59.3784C59.1956 68.2463 59.0453 68.3989 59.0453 68.5882V71.5927C59.0453 72.1025 58.6423 72.5163 58.1457 72.5163C57.6491 72.5163 57.2461 72.1025 57.2461 71.5927V68.5878C57.2461 67.38 58.2024 66.3984 59.3788 66.3984H64.7463C65.9228 66.3984 66.879 67.3801 66.879 68.5878L66.8786 71.5927C66.8786 72.103 66.4752 72.5167 65.9786 72.5167L65.9786 72.5167Z"
       fill="#613ED2"
       id="path8" />
    <path
       d="M80.7095 72.5167C80.2129 72.5167 79.8099 72.103 79.8099 71.5931V68.5882C79.8099 68.4006 79.6612 68.2463 79.4768 68.2463H74.1093C73.9265 68.2463 73.7762 68.3989 73.7762 68.5882L73.7758 71.5927C73.7758 72.1025 73.3728 72.5163 72.8762 72.5163C72.3796 72.5163 71.9766 72.1025 71.9766 71.5927V68.5878C71.9766 67.38 72.9328 66.3984 74.1092 66.3984H79.4768C80.6533 66.3984 81.6094 67.3801 81.6094 68.5878L81.609 71.5927C81.609 72.103 81.206 72.5167 80.7094 72.5167L80.7095 72.5167Z"
       fill="#613ED2"
       id="path9" />
    <path
       d="M45.3645 68.2404C44.8678 68.2404 44.4648 67.8267 44.4648 67.3169V47.1579C44.4648 46.6481 44.8678 46.2344 45.3645 46.2344C45.8611 46.2344 46.2641 46.6481 46.2641 47.1579V67.3158C46.2645 67.8256 45.8611 68.2398 45.3645 68.2398V68.2404Z"
       fill="#613ED2"
       id="path10" />
    <path
       d="M49.275 68.2404C48.7784 68.2404 48.3754 67.8267 48.3754 67.3169L48.375 47.1579C48.375 46.6481 48.778 46.2344 49.2746 46.2344C49.7712 46.2344 50.1742 46.6481 50.1742 47.1579V67.3158C50.1746 67.8256 49.7716 68.2398 49.275 68.2398V68.2404Z"
       fill="#613ED2"
       id="path11" />
    <path
       d="M64.0207 68.2404C63.5241 68.2404 63.1211 67.8267 63.1211 67.3169V47.1579C63.1211 46.6481 63.5241 46.2344 64.0207 46.2344C64.5173 46.2344 64.9203 46.6481 64.9203 47.1579V67.3158C64.9207 67.8256 64.5177 68.2398 64.0207 68.2398V68.2404Z"
       fill="#613ED2"
       id="path12" />
    <path
       d="M60.1031 68.2404C59.6065 68.2404 59.2035 67.8267 59.2035 67.3169L59.2031 47.1579C59.2031 46.6481 59.6061 46.2344 60.1027 46.2344C60.5993 46.2344 61.0023 46.6481 61.0023 47.1579V67.3158C61.0027 67.8256 60.6014 68.2398 60.1031 68.2398V68.2404Z"
       fill="#613ED2"
       id="path13" />
    <path
       d="M74.8371 68.2404C74.3405 68.2404 73.9375 67.8267 73.9375 67.3169V47.1579C73.9375 46.6481 74.3405 46.2344 74.8371 46.2344C75.3337 46.2344 75.7367 46.6481 75.7367 47.1579V67.3158C75.7371 67.8256 75.3337 68.2398 74.8371 68.2398V68.2404Z"
       fill="#613ED2"
       id="path14" />
    <path
       d="M78.7516 68.2404C78.255 68.2404 77.852 67.8267 77.852 67.3169L77.8516 47.1579C77.8516 46.6481 78.2546 46.2344 78.7512 46.2344C79.2478 46.2344 79.6508 46.6481 79.6508 47.1579V67.3158C79.6512 67.8256 79.2482 68.2398 78.7516 68.2398V68.2404Z"
       fill="#613ED2"
       id="path15" />
    <path
       d="M62.0543 40.6965C60.0079 40.6965 58.3438 38.988 58.3438 36.8873C58.3438 34.7866 60.008 33.0781 62.0543 33.0781C64.1006 33.0777 65.7648 34.7862 65.7648 36.8873C65.7648 38.9881 64.1005 40.6965 62.0543 40.6965ZM62.0543 34.9252C61.0012 34.9252 60.1434 35.8046 60.1434 36.8869C60.1434 37.9692 61 38.8486 62.0543 38.8486C63.1073 38.8486 63.9652 37.9692 63.9652 36.8869C63.9652 35.8046 63.1073 34.9252 62.0543 34.9252Z"
       fill="#613ED2"
       id="path16" />
    <path
       d="M33.3127 85.5776C33.3103 85.5788 33.3078 85.5801 33.3046 85.5809C33.3013 85.5817 33.2981 85.5825 33.2948 85.5825C33.2859 85.5825 33.279 85.5801 33.2737 85.5743C33.2681 85.569 33.2656 85.562 33.2656 85.553C33.2656 85.5444 33.2681 85.5374 33.2737 85.5316C33.279 85.5263 33.2859 85.5234 33.2948 85.5234C33.2981 85.5234 33.3013 85.5243 33.3046 85.5251C33.3078 85.5263 33.3103 85.5275 33.3127 85.5284V85.5399C33.3103 85.5378 33.3078 85.5366 33.3046 85.5366C33.3021 85.5357 33.2997 85.5349 33.2965 85.5349C33.292 85.5349 33.2884 85.5366 33.2851 85.5399C33.2827 85.5431 33.2819 85.5477 33.2819 85.553C33.2819 85.5587 33.2827 85.5628 33.2851 85.5661C33.2883 85.5694 33.292 85.571 33.2965 85.571H33.3046C33.3078 85.5702 33.3103 85.5686 33.3127 85.5661V85.5776Z"
       fill="#613ED2"
       id="path17" />
    <path
       d="M33.3502 85.5371C33.3502 85.5362 33.3493 85.5354 33.3485 85.5354C33.3473 85.5345 33.346 85.5337 33.3452 85.5337C33.3406 85.5337 33.3373 85.5354 33.3352 85.5388C33.334 85.5413 33.3336 85.5439 33.3336 85.5473V85.5677H33.3203V85.5251H33.3336V85.5319C33.3357 85.5285 33.3373 85.5264 33.3386 85.5251C33.3406 85.5243 33.3435 85.5234 33.3469 85.5234H33.3485H33.3502V85.5371Z"
       fill="#613ED2"
       id="path18" />
    <path
       d="M33.4003 85.5456V85.5507H33.3687C33.3696 85.5541 33.3708 85.5566 33.3721 85.5575C33.3741 85.5588 33.377 85.5592 33.3804 85.5592C33.3837 85.5592 33.3862 85.5588 33.3886 85.5575C33.392 85.5566 33.3953 85.5554 33.3986 85.5541V85.566C33.3953 85.566 33.392 85.5668 33.3886 85.5677C33.3862 85.5686 33.3837 85.5694 33.3804 85.5694C33.3712 85.5694 33.3646 85.5673 33.3604 85.5626C33.3571 85.5583 33.3555 85.5532 33.3555 85.5473C33.3555 85.5396 33.3571 85.5337 33.3604 85.5302C33.3646 85.526 33.3708 85.5234 33.3787 85.5234C33.3853 85.5234 33.3903 85.526 33.3936 85.5302C33.3978 85.5337 33.4003 85.5388 33.4003 85.5456L33.4003 85.5456ZM33.387 85.5422C33.387 85.5388 33.3857 85.5366 33.3837 85.5354C33.3824 85.5345 33.3808 85.5337 33.3787 85.5337C33.3762 85.5337 33.3741 85.5345 33.3721 85.5354C33.3708 85.5366 33.3696 85.5388 33.3687 85.5422H33.387Z"
       fill="#613ED2"
       id="path19" />
    <path
       d="M33.4278 85.5473C33.4253 85.5473 33.4233 85.5485 33.4212 85.5507C33.4199 85.552 33.4195 85.5532 33.4195 85.5541C33.4195 85.5554 33.4199 85.5566 33.4212 85.5575C33.422 85.5588 33.4237 85.5592 33.4262 85.5592C33.4295 85.5592 33.4316 85.5588 33.4328 85.5575C33.4349 85.5554 33.4361 85.5532 33.4361 85.5507V85.5473H33.4278ZM33.4477 85.5439V85.5677H33.4361V85.5609C33.4336 85.5643 33.4316 85.5668 33.4295 85.5677C33.427 85.5686 33.4245 85.5694 33.4212 85.5694C33.4166 85.5694 33.4129 85.5681 33.4096 85.566C33.4071 85.5626 33.4062 85.5588 33.4062 85.5541C33.4062 85.5498 33.4079 85.5464 33.4112 85.5439C33.4145 85.5417 33.4195 85.5405 33.4262 85.5405H33.4361V85.5388C33.4361 85.5366 33.4349 85.5354 33.4328 85.5354C33.4315 85.5345 33.4286 85.5337 33.4245 85.5337H33.4162C33.4137 85.5337 33.4116 85.5345 33.4096 85.5354V85.5251H33.4179C33.4212 85.5243 33.4237 85.5234 33.4262 85.5234C33.4349 85.5234 33.4403 85.5251 33.4427 85.5285C33.4461 85.5319 33.4477 85.5371 33.4477 85.5439L33.4477 85.5439Z"
       fill="#613ED2"
       id="path20" />
    <path
       d="M33.4686 85.5234V85.5367H33.4815V85.545H33.4686V85.5632V85.5682H33.4735H33.4799V85.5782H33.4702C33.4646 85.5782 33.4605 85.5773 33.4573 85.5748C33.4549 85.5728 33.4541 85.569 33.4541 85.5632V85.545H33.4492V85.5367H33.4541V85.5234L33.4686 85.5234Z"
       fill="#613ED2"
       id="path21" />
    <path
       d="M33.5292 85.5456V85.5507H33.4976C33.4985 85.5541 33.4997 85.5566 33.501 85.5575C33.503 85.5588 33.5059 85.5592 33.5093 85.5592C33.5126 85.5592 33.5151 85.5588 33.5176 85.5575C33.5209 85.5566 33.5242 85.5554 33.5275 85.5541V85.566C33.5242 85.566 33.5209 85.5668 33.5176 85.5677C33.5151 85.5686 33.5126 85.5694 33.5093 85.5694C33.5001 85.5694 33.4935 85.5673 33.4894 85.5626C33.486 85.5583 33.4844 85.5532 33.4844 85.5473C33.4844 85.5396 33.486 85.5337 33.4894 85.5302C33.4935 85.526 33.4997 85.5234 33.5076 85.5234C33.5142 85.5234 33.5192 85.526 33.5225 85.5302C33.5267 85.5337 33.5292 85.5388 33.5292 85.5456L33.5292 85.5456ZM33.5159 85.5422C33.5159 85.5388 33.5147 85.5366 33.5126 85.5354C33.5113 85.5345 33.5097 85.5337 33.5076 85.5337C33.5051 85.5337 33.503 85.5345 33.501 85.5354C33.4997 85.5366 33.4985 85.5388 33.4976 85.5422H33.5159Z"
       fill="#613ED2"
       id="path22" />
    <path
       d="M33.566 85.5448V85.5234H33.579V85.5809H33.566V85.5743C33.5648 85.5776 33.5628 85.5801 33.5595 85.5809C33.5571 85.5817 33.555 85.5825 33.553 85.5825C33.5473 85.5825 33.5433 85.5805 33.54 85.576C33.5368 85.5719 33.5352 85.5669 33.5352 85.5612C33.5352 85.5538 33.5368 85.5481 33.54 85.5448C33.5433 85.5407 33.5473 85.5382 33.553 85.5382C33.555 85.5382 33.5571 85.539 33.5595 85.5399C33.5628 85.5411 33.5648 85.5427 33.566 85.5448V85.5448ZM33.5579 85.5727C33.5599 85.5727 33.5615 85.5719 33.5628 85.5694C33.5648 85.5673 33.566 85.5645 33.566 85.5612C33.566 85.5571 33.5648 85.5538 33.5628 85.5513C33.5615 85.5493 33.5599 85.5481 33.5579 85.5481C33.5546 85.5481 33.5518 85.5493 33.5498 85.5513C33.5485 85.5538 33.5481 85.5571 33.5481 85.5612C33.5481 85.5645 33.5485 85.5673 33.5498 85.5694C33.5518 85.5719 33.5546 85.5727 33.5579 85.5727Z"
       fill="#613ED2"
       id="path23" />
    <path
       d="M33.6461 85.5727C33.6493 85.5727 33.6514 85.5719 33.6526 85.5694C33.6534 85.5674 33.6542 85.5645 33.6542 85.5612C33.6542 85.5571 33.6534 85.5538 33.6526 85.5513C33.6514 85.5493 33.6493 85.5481 33.6461 85.5481C33.6429 85.5481 33.6404 85.5493 33.6396 85.5513C33.6384 85.5538 33.638 85.5571 33.638 85.5612C33.638 85.5645 33.6384 85.5674 33.6396 85.5694C33.6404 85.5719 33.6429 85.5727 33.6461 85.5727ZM33.638 85.5448C33.64 85.5427 33.642 85.5411 33.6445 85.5399C33.6465 85.539 33.6485 85.5382 33.651 85.5382C33.6562 85.5382 33.6607 85.5407 33.664 85.5448C33.6672 85.5481 33.6688 85.5538 33.6688 85.5612C33.6688 85.5669 33.6672 85.5719 33.664 85.576C33.6607 85.5805 33.6562 85.5825 33.651 85.5825C33.6485 85.5825 33.6465 85.5817 33.6445 85.5809C33.642 85.5801 33.64 85.5776 33.638 85.5743V85.5809H33.625V85.5234H33.638V85.5448Z"
       fill="#613ED2"
       id="path24" />
    <path
       d="M33.668 85.5312H33.681L33.6907 85.5592L33.7004 85.5312H33.715L33.6972 85.5756C33.6948 85.5809 33.6927 85.5842 33.6907 85.5854C33.6883 85.5875 33.685 85.5887 33.681 85.5887H33.6728V85.5789H33.6777H33.6826C33.6834 85.5789 33.6846 85.5772 33.6858 85.5739L33.668 85.5312Z"
       fill="#613ED2"
       id="path25" />
    <path
       d="M33.7918 85.5776C33.7874 85.5788 33.7837 85.5801 33.7805 85.5809C33.7772 85.5817 33.7728 85.5825 33.7675 85.5825C33.7586 85.5825 33.7517 85.5801 33.7464 85.5743C33.7407 85.569 33.7383 85.562 33.7383 85.553C33.7383 85.5444 33.7407 85.5374 33.7464 85.5316C33.7517 85.5263 33.7594 85.5234 33.7691 85.5234C33.7732 85.5234 33.7764 85.5243 33.7789 85.5251C33.7821 85.5263 33.7854 85.5275 33.7886 85.5284V85.5399C33.7854 85.5378 33.7821 85.5366 33.7789 85.5366C33.7764 85.5357 33.774 85.5349 33.7707 85.5349C33.7651 85.5349 33.761 85.5366 33.7578 85.5399C33.7553 85.5431 33.7545 85.5477 33.7545 85.553C33.7545 85.5587 33.7553 85.5628 33.7578 85.5661C33.761 85.5694 33.7651 85.571 33.7707 85.571H33.774C33.7748 85.571 33.776 85.5706 33.7772 85.5694V85.5596H33.7691V85.5497H33.7918V85.5776Z"
       fill="#613ED2"
       id="path26" />
    <path
       d="M33.8424 85.5371C33.8424 85.5362 33.8415 85.5354 33.8407 85.5354C33.8395 85.5345 33.8382 85.5337 33.8374 85.5337C33.8328 85.5337 33.8295 85.5354 33.8274 85.5388C33.8262 85.5413 33.8258 85.5439 33.8258 85.5473V85.5677H33.8125V85.5251H33.8258V85.5319C33.8278 85.5285 33.8295 85.5264 33.8307 85.5251C33.8328 85.5243 33.8357 85.5234 33.839 85.5234H33.8407H33.8424V85.5371Z"
       fill="#613ED2"
       id="path27" />
    <path
       d="M33.8692 85.5473C33.8667 85.5473 33.8647 85.5485 33.8626 85.5507C33.8613 85.552 33.8609 85.5532 33.8609 85.5541C33.8609 85.5554 33.8613 85.5566 33.8626 85.5575C33.8634 85.5588 33.8651 85.5592 33.8676 85.5592C33.8709 85.5592 33.873 85.5588 33.8742 85.5575C33.8763 85.5554 33.8775 85.5532 33.8775 85.5507V85.5473H33.8692ZM33.8891 85.5439V85.5677H33.8775V85.5609C33.875 85.5643 33.873 85.5668 33.8709 85.5677C33.8684 85.5686 33.8659 85.5694 33.8626 85.5694C33.858 85.5694 33.8543 85.5681 33.851 85.566C33.8485 85.5626 33.8477 85.5588 33.8477 85.5541C33.8477 85.5498 33.8493 85.5464 33.8526 85.5439C33.856 85.5417 33.8609 85.5405 33.8676 85.5405H33.8775V85.5388C33.8775 85.5366 33.8763 85.5354 33.8742 85.5354C33.873 85.5345 33.8701 85.5337 33.8659 85.5337H33.8576C33.8551 85.5337 33.853 85.5345 33.851 85.5354V85.5251H33.8593C33.8626 85.5243 33.8651 85.5234 33.8676 85.5234C33.8763 85.5234 33.8817 85.5251 33.8842 85.5285C33.8875 85.5319 33.8891 85.5371 33.8891 85.5439L33.8891 85.5439Z"
       fill="#613ED2"
       id="path28" />
    <path
       d="M33.9075 85.5596V85.5809H33.8945V85.5251H33.9075V85.53C33.9095 85.528 33.9116 85.5263 33.914 85.5251C33.916 85.5243 33.9181 85.5234 33.9205 85.5234C33.9258 85.5234 33.9302 85.5259 33.9335 85.53C33.9367 85.5333 33.9384 85.539 33.9384 85.5464C33.9384 85.5522 33.9367 85.5571 33.9335 85.5612C33.9302 85.5657 33.9258 85.5678 33.9205 85.5678C33.9181 85.5678 33.916 85.5669 33.914 85.5661C33.9116 85.5653 33.9095 85.5628 33.9075 85.5596V85.5596ZM33.9156 85.5333C33.9124 85.5333 33.91 85.5345 33.9091 85.5366C33.9079 85.539 33.9075 85.5423 33.9075 85.5464C33.9075 85.5497 33.9079 85.5526 33.9091 85.5546C33.91 85.5571 33.9124 85.5579 33.9156 85.5579C33.9189 85.5579 33.9209 85.5571 33.9221 85.5546C33.9229 85.5526 33.9238 85.5497 33.9238 85.5464C33.9238 85.5423 33.9229 85.539 33.9221 85.5366C33.9209 85.5345 33.9189 85.5333 33.9156 85.5333Z"
       fill="#613ED2"
       id="path29" />
    <path
       d="M33.9914 85.5563V85.5809H33.9768V85.5612V85.5546C33.9768 85.5538 33.976 85.5526 33.9752 85.5513C33.9752 85.5505 33.9744 85.5497 33.9736 85.5497C33.9736 85.5489 33.9724 85.5481 33.9703 85.5481C33.9679 85.5481 33.9659 85.5493 33.9638 85.5513C33.9626 85.5538 33.9622 85.5571 33.9622 85.5612V85.5809H33.9492V85.5234H33.9622V85.5448C33.9642 85.5427 33.9663 85.5411 33.9687 85.5399C33.9707 85.539 33.9728 85.5382 33.9752 85.5382C33.9805 85.5382 33.9841 85.5399 33.9866 85.5431C33.9898 85.5464 33.9914 85.5509 33.9914 85.5563L33.9914 85.5563Z"
       fill="#613ED2"
       id="path30" />
    <path
       d="M34 85.5399H34.0135V85.5809H34V85.5399ZM34 85.5234H34.0135V85.5333H34V85.5234Z"
       fill="#613ED2"
       id="path31" />
    <path
       d="M34.0345 85.5517L34.0195 85.5312H34.0328L34.0428 85.5432L34.0511 85.5312H34.066L34.0511 85.5517L34.066 85.5738H34.0511L34.0428 85.5602L34.0328 85.5738H34.0195L34.0345 85.5517Z"
       fill="#613ED2"
       id="path32" />
    <path
       d="M34.1107 85.5251V85.5371C34.1074 85.5349 34.1041 85.5337 34.1008 85.5337H34.0941H34.0875C34.0862 85.5337 34.0858 85.5349 34.0858 85.5371C34.0858 85.5383 34.0862 85.5396 34.0875 85.5405H34.0941H34.0958C34.1024 85.5417 34.1066 85.5434 34.1091 85.5456C34.1111 85.5468 34.1124 85.5503 34.1124 85.5558C34.1124 85.5592 34.1107 85.5626 34.1074 85.566C34.1049 85.5681 34.1008 85.5694 34.0941 85.5694C34.0908 85.5694 34.0875 85.5686 34.0842 85.5677C34.0817 85.5677 34.0792 85.5673 34.0759 85.566V85.5558C34.078 85.5571 34.08 85.5583 34.0825 85.5592H34.0925H34.0974C34.0983 85.5583 34.0991 85.5571 34.0991 85.5558C34.0991 85.5537 34.0983 85.5524 34.0974 85.5524C34.0974 85.5524 34.0962 85.552 34.0941 85.5507H34.0908C34.085 85.5498 34.0809 85.5485 34.0775 85.5473C34.075 85.5451 34.0742 85.5417 34.0742 85.5371C34.0742 85.5328 34.0759 85.5294 34.0792 85.5268C34.0825 85.5247 34.0875 85.5234 34.0941 85.5234C34.0962 85.5234 34.0983 85.5243 34.1008 85.5251H34.1107L34.1107 85.5251Z"
       fill="#613ED2"
       id="path33" />
    <path
       d="M34.1489 85.5859V85.593H34.1094V85.5859H34.1489Z"
       fill="#613ED2"
       id="path34" />
    <path
       d="M34.1843 85.5676H34.162L34.1589 85.579H34.1445L34.1652 85.5234H34.1811L34.2002 85.579H34.1875L34.1843 85.5676ZM34.1652 85.5594H34.1795L34.1732 85.5365L34.1652 85.5594Z"
       fill="#613ED2"
       id="path35" />
    <path
       d="M34.2486 85.5371C34.2486 85.5362 34.2478 85.5354 34.247 85.5354C34.2457 85.5345 34.2445 85.5337 34.2436 85.5337C34.2391 85.5337 34.2358 85.5354 34.2337 85.5388C34.2324 85.5413 34.232 85.5439 34.232 85.5473V85.5677H34.2188V85.5251H34.232V85.5319C34.2341 85.5285 34.2358 85.5264 34.237 85.5251C34.2391 85.5243 34.242 85.5234 34.2453 85.5234H34.247H34.2486V85.5371Z"
       fill="#613ED2"
       id="path36" />
    <path
       d="M34.2655 85.5234V85.5367H34.2784V85.545H34.2655V85.5632V85.5682H34.2703H34.2768V85.5782H34.2671C34.2614 85.5782 34.2574 85.5773 34.2542 85.5748C34.2517 85.5728 34.2509 85.569 34.2509 85.5632V85.545H34.2461V85.5367H34.2509V85.5234L34.2655 85.5234Z"
       fill="#613ED2"
       id="path37" />
    <path
       d="M33.2887 85.5938V85.602H33.2822C33.2797 85.602 33.2781 85.6028 33.2773 85.6036V85.6069V85.6102H33.2887V85.6184H33.2773V85.6512H33.2643V85.6184H33.2578V85.6102H33.2643V85.6069C33.2643 85.6028 33.2651 85.5995 33.2676 85.597C33.2696 85.595 33.2732 85.5938 33.2789 85.5938H33.2887Z"
       fill="#613ED2"
       id="path38" />
    <path
       d="M33.3228 85.623C33.3228 85.6221 33.322 85.6213 33.3212 85.6213C33.3199 85.6204 33.3187 85.6196 33.3179 85.6196C33.3133 85.6196 33.31 85.6213 33.3079 85.6247C33.3067 85.6272 33.3062 85.6298 33.3062 85.6332V85.6536H33.293V85.6111H33.3062V85.6179C33.3083 85.6145 33.31 85.6124 33.3112 85.6111C33.3133 85.6102 33.3162 85.6094 33.3195 85.6094H33.3212H33.3228V85.623Z"
       fill="#613ED2"
       id="path39" />
    <path
       d="M33.3514 85.6196C33.348 85.6196 33.3451 85.6209 33.3431 85.623C33.3418 85.6243 33.3414 85.6277 33.3414 85.6332C33.3414 85.6366 33.3418 85.6396 33.3431 85.6417C33.3451 85.6443 33.348 85.6451 33.3514 85.6451C33.3547 85.6451 33.3567 85.6443 33.358 85.6417C33.3601 85.6396 33.3613 85.6366 33.3613 85.6332C33.3613 85.6277 33.3601 85.6243 33.358 85.623C33.3567 85.6209 33.3547 85.6196 33.3514 85.6196ZM33.3514 85.6094C33.358 85.6094 33.3634 85.6119 33.3679 85.6162C33.3721 85.6196 33.3746 85.6255 33.3746 85.6332C33.3746 85.6392 33.3721 85.6443 33.3679 85.6485C33.3634 85.6532 33.358 85.6553 33.3514 85.6553C33.3435 85.6553 33.3373 85.6532 33.3331 85.6485C33.3298 85.6443 33.3281 85.6392 33.3281 85.6332C33.3281 85.6255 33.3298 85.6196 33.3331 85.6162C33.3372 85.6119 33.3435 85.6094 33.3514 85.6094Z"
       fill="#613ED2"
       id="path40" />
    <path
       d="M33.4274 85.6176C33.4294 85.6155 33.4314 85.6139 33.4338 85.6127C33.4358 85.6106 33.4378 85.6094 33.4402 85.6094C33.4454 85.6094 33.449 85.611 33.4514 85.6143C33.4546 85.6176 33.4562 85.6221 33.4562 85.6274V85.6521H33.4418V85.6307V85.6291C33.4418 85.6258 33.441 85.6237 33.4402 85.6225C33.4402 85.6205 33.439 85.6192 33.437 85.6192C33.4346 85.6192 33.4326 85.6205 33.4306 85.6225C33.4294 85.625 33.429 85.6283 33.429 85.6324V85.6521H33.4162V85.6307C33.4162 85.6266 33.4154 85.6237 33.4146 85.6225C33.4146 85.6205 33.4134 85.6192 33.4114 85.6192C33.4082 85.6192 33.4058 85.6205 33.405 85.6225C33.4038 85.625 33.4034 85.6283 33.4034 85.6324V85.6521H33.3906V85.611H33.4034V85.6159L33.4082 85.611C33.4102 85.6102 33.413 85.6094 33.4162 85.6094C33.4182 85.6094 33.4202 85.6106 33.4226 85.6127C33.4246 85.6139 33.4262 85.6155 33.4274 85.6176L33.4274 85.6176Z"
       fill="#613ED2"
       id="path41" />
    <path
       d="M33.4999 85.6016V85.6148H33.5128V85.6231H33.4999V85.6414V85.6463H33.5047H33.5112V85.6563H33.5015C33.4958 85.6563 33.4918 85.6555 33.4885 85.653C33.4861 85.6509 33.4853 85.6472 33.4853 85.6414V85.6231H33.4805V85.6148H33.4853V85.6016L33.4999 85.6016Z"
       fill="#613ED2"
       id="path42" />
    <path
       d="M33.5617 85.6266V85.6512H33.5471V85.6315V85.6249C33.5471 85.6241 33.5463 85.6229 33.5455 85.6217C33.5455 85.6208 33.5447 85.62 33.5439 85.62C33.5439 85.6192 33.5427 85.6184 33.5406 85.6184C33.5382 85.6184 33.5362 85.6196 33.5341 85.6217C33.5329 85.6241 33.5325 85.6274 33.5325 85.6315V85.6512H33.5195V85.5938H33.5325V85.6151C33.5345 85.613 33.5366 85.6114 33.539 85.6102C33.541 85.6093 33.5431 85.6085 33.5455 85.6085C33.5508 85.6085 33.5544 85.6102 33.5569 85.6134C33.5601 85.6167 33.5617 85.6212 33.5617 85.6266L33.5617 85.6266Z"
       fill="#613ED2"
       id="path43" />
    <path
       d="M33.6229 85.6315V85.6366H33.5914C33.5922 85.64 33.5935 85.6426 33.5947 85.6434C33.5968 85.6447 33.5997 85.6451 33.603 85.6451C33.6063 85.6451 33.6088 85.6447 33.6113 85.6434C33.6146 85.6426 33.6179 85.6413 33.6213 85.64V85.6519C33.6179 85.6519 33.6146 85.6528 33.6113 85.6536C33.6088 85.6545 33.6063 85.6553 33.603 85.6553C33.5939 85.6553 33.5872 85.6532 33.5831 85.6485C33.5798 85.6443 33.5781 85.6392 33.5781 85.6332C33.5781 85.6255 33.5798 85.6196 33.5831 85.6162C33.5872 85.6119 33.5935 85.6094 33.6014 85.6094C33.608 85.6094 33.613 85.6119 33.6163 85.6162C33.6204 85.6196 33.6229 85.6247 33.6229 85.6315L33.6229 85.6315ZM33.6096 85.6281C33.6096 85.6247 33.6084 85.6226 33.6063 85.6213C33.6051 85.6204 33.6034 85.6196 33.6014 85.6196C33.5989 85.6196 33.5968 85.6204 33.5947 85.6213C33.5935 85.6226 33.5922 85.6247 33.5914 85.6281H33.6096Z"
       fill="#613ED2"
       id="path44" />
    <path
       d="M33.6523 85.5938H33.6686L33.6881 85.6321V85.5938H33.7027V85.6504H33.6864L33.6653 85.6121V85.6504H33.6523V85.5938Z"
       fill="#613ED2"
       id="path45" />
    <path
       d="M33.7303 85.6196C33.7269 85.6196 33.724 85.6209 33.722 85.623C33.7207 85.6243 33.7203 85.6277 33.7203 85.6332C33.7203 85.6366 33.7207 85.6396 33.722 85.6417C33.724 85.6443 33.7269 85.6451 33.7303 85.6451C33.7336 85.6451 33.7356 85.6443 33.7369 85.6417C33.739 85.6396 33.7402 85.6366 33.7402 85.6332C33.7402 85.6277 33.739 85.6243 33.7369 85.623C33.7356 85.6209 33.7336 85.6196 33.7303 85.6196ZM33.7303 85.6094C33.7369 85.6094 33.7423 85.6119 33.7468 85.6162C33.751 85.6196 33.7535 85.6255 33.7535 85.6332C33.7535 85.6392 33.751 85.6443 33.7468 85.6485C33.7423 85.6532 33.7369 85.6553 33.7303 85.6553C33.7224 85.6553 33.7162 85.6532 33.712 85.6485C33.7087 85.6443 33.707 85.6392 33.707 85.6332C33.707 85.6255 33.7087 85.6196 33.712 85.6162C33.7162 85.6119 33.7224 85.6094 33.7303 85.6094Z"
       fill="#613ED2"
       id="path46" />
    <path
       d="M33.7695 85.6349V85.6094H33.7828V85.6128V85.623V85.6281V85.6366V85.64C33.7836 85.64 33.7845 85.6409 33.7845 85.6417H33.7894C33.7915 85.6417 33.7932 85.6413 33.7944 85.64C33.7965 85.6379 33.7977 85.6345 33.7977 85.6298V85.6094H33.811V85.6519H33.7977V85.6451C33.7952 85.6485 33.7932 85.6511 33.7911 85.6519C33.7886 85.6528 33.7861 85.6536 33.7828 85.6536C33.7782 85.6536 33.7749 85.6519 33.7728 85.6485C33.7704 85.6451 33.7695 85.6409 33.7695 85.6349V85.6349Z"
       fill="#613ED2"
       id="path47" />
    <path
       d="M33.8556 85.6281V85.6536H33.8407V85.6332V85.6264C33.8407 85.6255 33.8399 85.6243 33.839 85.623C33.839 85.6221 33.8382 85.6213 33.8374 85.6213C33.8374 85.6204 33.8361 85.6196 33.8341 85.6196C33.8316 85.6196 33.8295 85.6209 33.8274 85.623C33.8262 85.6255 33.8258 85.629 33.8258 85.6332V85.6536H33.8125V85.6111H33.8258V85.6162C33.8278 85.6141 33.8299 85.6124 33.8324 85.6111C33.8345 85.6102 33.8366 85.6094 33.839 85.6094C33.8444 85.6094 33.8482 85.6111 33.8507 85.6145C33.854 85.6179 33.8556 85.6226 33.8556 85.6281L33.8556 85.6281Z"
       fill="#613ED2"
       id="path48" />
    <path
       d="M33.8945 85.5938H33.9189C33.9254 85.5938 33.9302 85.5954 33.9335 85.5987C33.9375 85.6021 33.94 85.6071 33.94 85.6137C33.94 85.6196 33.9375 85.6237 33.9335 85.6271C33.9302 85.6296 33.9254 85.6304 33.9189 85.6304H33.9091V85.6504H33.8945L33.8945 85.5938ZM33.9091 85.6054V85.6204H33.9173C33.9193 85.6204 33.9209 85.62 33.9221 85.6187C33.9242 85.6179 33.9254 85.6162 33.9254 85.6137C33.9254 85.6104 33.9242 85.6083 33.9221 85.6071C33.9209 85.6062 33.9193 85.6054 33.9173 85.6054L33.9091 85.6054Z"
       fill="#613ED2"
       id="path49" />
    <path
       d="M33.9791 85.623C33.9791 85.6221 33.9783 85.6213 33.9774 85.6213C33.9762 85.6204 33.9749 85.6196 33.9741 85.6196C33.9695 85.6196 33.9662 85.6213 33.9641 85.6247C33.9629 85.6272 33.9625 85.6298 33.9625 85.6332V85.6536H33.9492V85.6111H33.9625V85.6179C33.9646 85.6145 33.9662 85.6124 33.9675 85.6111C33.9695 85.6102 33.9724 85.6094 33.9758 85.6094H33.9774H33.9791V85.623Z"
       fill="#613ED2"
       id="path50" />
    <path
       d="M34.0076 85.6196C34.0043 85.6196 34.0014 85.6209 33.9993 85.623C33.9981 85.6243 33.9976 85.6277 33.9976 85.6332C33.9976 85.6366 33.9981 85.6396 33.9993 85.6417C34.0014 85.6443 34.0043 85.6451 34.0076 85.6451C34.0109 85.6451 34.013 85.6443 34.0142 85.6417C34.0163 85.6396 34.0176 85.6366 34.0176 85.6332C34.0176 85.6277 34.0163 85.6243 34.0142 85.623C34.013 85.6209 34.0109 85.6196 34.0076 85.6196ZM34.0076 85.6094C34.0142 85.6094 34.0196 85.6119 34.0242 85.6162C34.0283 85.6196 34.0308 85.6255 34.0308 85.6332C34.0308 85.6392 34.0283 85.6443 34.0242 85.6485C34.0196 85.6532 34.0142 85.6553 34.0076 85.6553C33.9997 85.6553 33.9935 85.6532 33.9894 85.6485C33.986 85.6443 33.9844 85.6392 33.9844 85.6332C33.9844 85.6255 33.986 85.6196 33.9894 85.6162C33.9935 85.6119 33.9997 85.6094 34.0076 85.6094Z"
       fill="#613ED2"
       id="path51" />
    <path
       d="M34.0437 85.6104H34.0574V85.6503C34.0574 85.6557 34.0557 85.6603 34.0523 85.6636C34.0497 85.6669 34.0459 85.6686 34.0403 85.6686H34.0352V85.6586H34.0369C34.039 85.6586 34.0407 85.6578 34.042 85.6569C34.0429 85.6569 34.0437 85.6544 34.0437 85.6503L34.0437 85.6104ZM34.0437 85.5938H34.0574V85.6037H34.0437V85.5938Z"
       fill="#613ED2"
       id="path52" />
    <path
       d="M34.1073 85.6315V85.6366H34.0758C34.0766 85.64 34.0778 85.6426 34.0791 85.6434C34.0812 85.6447 34.0841 85.6451 34.0874 85.6451C34.0907 85.6451 34.0932 85.6447 34.0957 85.6434C34.099 85.6426 34.1023 85.6413 34.1056 85.64V85.6519C34.1023 85.6519 34.099 85.6528 34.0957 85.6536C34.0932 85.6545 34.0907 85.6553 34.0874 85.6553C34.0783 85.6553 34.0716 85.6532 34.0675 85.6485C34.0642 85.6443 34.0625 85.6392 34.0625 85.6332C34.0625 85.6255 34.0642 85.6196 34.0675 85.6162C34.0716 85.6119 34.0778 85.6094 34.0857 85.6094C34.0924 85.6094 34.0973 85.6119 34.1007 85.6162C34.1048 85.6196 34.1073 85.6247 34.1073 85.6315L34.1073 85.6315ZM34.094 85.6281C34.094 85.6247 34.0928 85.6226 34.0907 85.6213C34.0895 85.6204 34.0878 85.6196 34.0857 85.6196C34.0832 85.6196 34.0812 85.6204 34.0791 85.6213C34.0778 85.6226 34.0766 85.6247 34.0758 85.6281H34.094Z"
       fill="#613ED2"
       id="path53" />
    <path
       d="M34.1475 85.6111V85.623C34.1442 85.6221 34.1417 85.6213 34.1409 85.6213C34.1397 85.6204 34.1376 85.6196 34.1343 85.6196C34.1309 85.6196 34.128 85.6209 34.126 85.623C34.1235 85.6255 34.1226 85.629 34.1226 85.6332C34.1226 85.6366 34.1235 85.6396 34.126 85.6417C34.128 85.6443 34.1309 85.6451 34.1343 85.6451C34.1376 85.6451 34.1397 85.6447 34.1409 85.6434C34.143 85.6426 34.145 85.6417 34.1475 85.6417V85.6519C34.1442 85.6532 34.1413 85.6536 34.1392 85.6536C34.138 85.6545 34.1363 85.6553 34.1343 85.6553C34.1251 85.6553 34.1185 85.6532 34.1144 85.6485C34.111 85.6443 34.1094 85.6392 34.1094 85.6332C34.1094 85.6255 34.111 85.6196 34.1144 85.6162C34.1185 85.6119 34.1251 85.6094 34.1343 85.6094C34.1363 85.6094 34.138 85.6102 34.1392 85.6111H34.1475V85.6111Z"
       fill="#613ED2"
       id="path54" />
    <path
       d="M34.1795 85.6016V85.6148H34.1925V85.6231H34.1795V85.6414V85.6463H34.1844H34.1909V85.6563H34.1812C34.1755 85.6563 34.1715 85.6555 34.1682 85.653C34.1658 85.6509 34.165 85.6472 34.165 85.6414V85.6231H34.1602V85.6148H34.165V85.6016L34.1795 85.6016Z"
       fill="#613ED2"
       id="path55" />
    <path
       d="M99.7578 75.6774C99.6011 76.24 99.322 76.7104 98.7697 76.9906C98.4421 77.1574 98.098 77.2005 97.7346 77.2005C94.2106 77.1976 90.6868 77.1976 87.1633 77.2005C81.8626 77.2005 76.5619 77.2005 71.2612 77.2005C70.4552 77.2005 69.8432 76.9035 69.4551 76.199C69.3159 75.9271 69.2484 75.6252 69.2589 75.3211C69.2589 69.7945 69.2589 64.2678 69.2589 58.7411C69.2589 57.6335 70.0402 56.8697 71.1701 56.8697C80.0635 56.8663 88.9571 56.8663 97.851 56.8697C98.8212 56.8697 99.3682 57.3189 99.7556 58.3892L99.7578 75.6774Z"
       fill="#613ED2"
       id="path56" />
    <path
       d="M84.5113 65.2331C89.0771 65.2331 93.6435 65.2312 98.2103 65.2273C98.4849 65.2273 98.5514 65.2961 98.5506 65.5616C98.5409 68.7534 98.5446 71.9452 98.5439 75.137C98.5439 75.8152 98.3521 76.0039 97.6625 76.0039H71.363C70.6704 76.0039 70.4786 75.8166 70.4786 75.1407C70.4786 71.9481 70.4766 68.7561 70.4727 65.5645C70.4727 65.3056 70.5279 65.2258 70.8092 65.2266C75.3776 65.2358 79.9449 65.238 84.5113 65.2331Z"
       fill="white"
       id="path57" />
    <path
       d="M84.4771 61.6567C79.9217 61.6567 75.3661 61.6588 70.8102 61.6632C70.5408 61.6632 70.4624 61.6011 70.4691 61.3311C70.4878 60.5044 70.4736 59.6778 70.4766 58.8504C70.4766 58.2768 70.7005 58.0625 71.2878 58.0625H97.7284C98.3157 58.0625 98.5366 58.282 98.5389 58.8519C98.5389 59.6888 98.5284 60.5257 98.5456 61.3618C98.5508 61.6106 98.4769 61.6625 98.2329 61.6625C93.6501 61.6547 89.0649 61.6528 84.4771 61.6567Z"
       fill="white"
       id="path58" />
    <path
       d="M80.2156 68.8382C82.0015 68.8382 83.7874 68.8382 85.5733 68.8382C85.886 68.8382 86.1502 68.9114 86.2823 69.2099C86.3175 69.2931 86.3326 69.3832 86.3264 69.4731C86.3202 69.563 86.293 69.6503 86.2468 69.7281C86.2005 69.806 86.1366 69.8724 86.0599 69.9221C85.9832 69.9718 85.8959 70.0034 85.8047 70.0146C85.7055 70.0247 85.6058 70.0281 85.5061 70.0248H74.8221C74.4147 70.0131 74.1505 69.7856 74.1408 69.4396C74.1333 69.0855 74.4035 68.8382 74.8281 68.8368C76.6247 68.8353 78.4205 68.8358 80.2156 68.8382Z"
       fill="#613ED2"
       id="path59" />
    <path
       d="M77.7921 72.4127C76.8219 72.4127 75.8465 72.4127 74.8741 72.4127C74.6241 72.4127 74.4039 72.3652 74.2539 72.1435C74.1972 72.0635 74.1621 71.9708 74.1517 71.8739C74.1413 71.777 74.156 71.6792 74.1945 71.5894C74.233 71.4996 74.2939 71.4207 74.3718 71.3602C74.4496 71.2996 74.5418 71.2593 74.6397 71.243C74.7478 71.2282 74.8569 71.2226 74.9659 71.2261C76.8518 71.2261 78.7369 71.2364 80.6228 71.2188C81.2676 71.213 81.4437 71.5115 81.4512 71.8041C81.4587 72.0967 81.2728 72.4347 80.6198 72.4179C79.678 72.3945 78.7347 72.4127 77.7921 72.4127Z"
       fill="#613ED2"
       id="path60" />
  </g>
  <defs
     id="defs60">
    <clipPath
       id="clip0_14515_120584">
      <rect
         x="1"
         width="120"
         height="120"
         rx="60"
         fill="white"
         id="rect60" />
    </clipPath>
  </defs>
  <path
     style="fill:#000000;stroke-width:0.14104"
     d="M 57.96763,119.86889 C 44.919629,119.03428 33.417511,114.62877 23.412717,106.63375 20.927446,104.64773 16.918062,100.7081 14.917058,98.2859 8.0850937,90.015862 3.6309622,80.271423 1.9104745,69.830999 1.2756546,65.978726 1.132274,64.129648 1.138212,59.871676 1.1436414,55.978476 1.2632551,54.304371 1.776868,50.93309 4.1176563,35.568501 12.361424,21.755108 24.885048,12.212642 32.313299,6.552633 41.164287,2.6902573 50.563006,1.0073467 54.484622,0.30515237 56.367701,0.15056966 61,0.15056966 c 4.632299,0 6.515378,0.15458271 10.436994,0.85677704 18.469118,3.3070325 34.151316,14.8637633 42.802646,31.5426793 8.69097,16.755367 8.90072,36.753955 0.5639,53.766737 -2.90694,5.932135 -6.34794,10.793513 -11.06724,15.635567 -9.650294,9.90131 -22.590206,16.14938 -36.546076,17.64636 -1.99244,0.21372 -7.556895,0.37675 -9.222594,0.2702 z m 5.923699,-1.8915 c 14.63528,-0.79891 27.924857,-6.69281 38.152691,-16.92065 7.50296,-7.50296 12.68583,-16.66127 15.291,-27.019733 1.78322,-7.090273 2.18275,-15.010008 1.12728,-22.345678 C 114.96826,27.407146 96.512402,7.8997817 72.494798,3.1048735 c -7.793589,-1.555923 -15.196007,-1.555923 -22.989596,0 C 25.664486,7.8644678 7.2913284,27.119262 3.6119371,51.200331 2.0146861,61.654101 3.296129,72.381356 7.3013844,82.085549 c 3.8318776,9.284123 9.9125296,17.342877 17.7332976,23.502131 3.332813,2.62476 6.237562,4.45349 10.250922,6.4536 6.918275,3.44783 14.725723,5.50719 22.470465,5.927 2.973153,0.16116 3.339836,0.16171 6.13526,0.009 z"
     id="path61" />
  <path
     style="fill:#000000;stroke-width:0.14104"
     d="m 37.115501,82.321264 c -0.370044,-0.408894 -0.339381,-4.058906 0.04035,-4.803243 0.359783,-0.705233 1.134955,-1.37261 1.839496,-1.583695 l 0.566501,-0.169728 7.86e-4,-1.211779 c 9.75e-4,-1.501669 0.169811,-2.132794 0.74616,-2.789219 0.474406,-0.540319 1.365719,-1.023519 1.897562,-1.028711 0.301554,-0.0029 0.317341,-0.05752 0.317341,-1.097092 0,-0.601696 0.06241,-1.3116 0.138685,-1.57756 0.175773,-0.612885 0.911252,-1.378989 1.434111,-1.493828 l 0.401771,-0.08824 V 57.26216 48.046153 L 44.027886,47.890915 C 43.425565,47.692131 42.83841,47.078392 42.66196,46.463147 42.58592,46.197995 42.523697,45.488755 42.523697,44.887058 v -1.093994 h -2.192538 c -2.154521,0 -2.198692,-0.0062 -2.547487,-0.35495 -0.364088,-0.364087 -0.365909,-0.785451 -0.005,-1.14585 0.08864,-0.0885 5.541121,-3.126313 12.116625,-6.750688 8.616249,-4.74922 12.046306,-6.572407 12.280714,-6.527597 0.482912,0.09231 23.958487,13.062489 24.246483,13.396098 0.333771,0.386634 0.310766,0.626661 -0.09937,1.036796 -0.337642,0.337644 -0.399914,0.346191 -2.522324,0.346191 h -2.176134 l -0.0559,1.391673 c -0.05111,1.272501 -0.09068,1.43728 -0.46213,1.924271 -0.223428,0.29293 -0.649934,0.628327 -0.947791,0.745328 l -0.541557,0.21273 v 4.42138 4.421381 h 9.242681 c 10.189664,0 9.955221,-0.01949 10.499369,0.873015 0.277438,0.455053 0.284655,0.68925 0.285168,9.253642 5.78e-4,9.64061 0.02276,9.381464 -0.841099,9.82818 -0.350099,0.181044 -1.304167,0.213949 -6.203392,0.213949 -3.184315,0 -5.787414,0.0476 -5.784665,0.10578 0.0027,0.05818 0.0957,0.264451 0.206562,0.458382 0.148675,0.26008 0.202877,0.892741 0.206563,2.411088 0.0044,1.818965 -0.02501,2.085648 -0.252928,2.291907 -0.237936,0.215329 -2.171156,0.233421 -24.942302,0.233421 -23.734703,0 -24.693357,-0.0099 -24.917797,-0.257927 z m 48.55862,-2.457102 c -0.0097,-1.25116 -0.231789,-1.945535 -0.697242,-2.180371 -0.45047,-0.227276 -45.170008,-0.268233 -45.765271,-0.04191 -0.52013,0.197752 -0.778082,0.921298 -0.778082,2.182494 v 1.062333 H 62.057803 85.682081 Z M 98.37748,75.807491 c 0.275408,-0.275408 0.282739,-0.435641 0.246821,-5.394797 l -0.03702,-5.11096 -14.068786,-0.03594 -14.068786,-0.03594 v 5.282691 c 0,4.882341 0.01871,5.293585 0.246821,5.42645 0.162873,0.09486 4.863897,0.145219 13.821965,0.148048 13.41801,0.0042 13.578429,0.001 13.858983,-0.279549 z M 69.321387,74.116763 V 72.424277 H 55.772231 c -10.030477,0 -13.629162,0.04261 -13.857226,0.164078 -0.561183,0.298889 -0.65153,0.562732 -0.656184,1.916269 l -0.0045,1.304625 h 14.033526 14.033526 z m -18.929191,-4.619075 -0.04075,-1.234104 h -3.03237 -3.03237 l -0.04075,1.234104 -0.04075,1.234104 h 3.113872 3.113873 z m 6.940752,-0.03979 c 0,-0.763526 0.07791,-1.460363 0.194469,-1.739326 0.229366,-0.548949 0.839336,-1.065102 1.388493,-1.174933 l 0.391604,-0.07832 -0.0033,-9.18526 -0.0033,-9.18526 -0.692193,-0.303975 C 57.617018,47.355339 57.332948,46.74905 57.332948,45.068047 v -1.274983 h -2.592844 -2.592846 l -0.05589,1.391673 c -0.05111,1.272501 -0.09068,1.43728 -0.462131,1.924271 -0.223428,0.29293 -0.649934,0.628327 -0.94779,0.745328 l -0.541558,0.21273 v 9.205549 9.20555 l 0.403372,0.0886 c 0.551833,0.121202 1.253693,0.841479 1.426617,1.464048 0.07865,0.28317 0.143359,1.006734 0.143791,1.607919 l 7.87e-4,1.093064 h 2.609248 2.609249 z m 7.727456,0.03979 -0.04075,-1.234104 h -2.96185 -2.961849 l -0.04075,1.234104 -0.04075,1.234104 h 3.043352 3.043353 z m 4.261202,-4.936416 c 1.99e-4,-5.592078 0.02334,-6.216796 0.246821,-6.664162 0.39257,-0.785838 0.966853,-0.986808 2.82059,-0.987065 l 1.586706,-2.18e-4 V 52.47799 48.046153 l -0.470377,-0.155238 c -0.602322,-0.198784 -1.189476,-0.812523 -1.365928,-1.427768 -0.07604,-0.265152 -0.138262,-0.974392 -0.138262,-1.576089 v -1.093994 h -2.609248 -2.609249 v 1.283308 c 0,1.794434 -0.442352,2.593924 -1.595307,2.883298 l -0.37926,0.09519 v 9.22286 c 0,8.689448 0.01427,9.222891 0.246821,9.223388 0.400571,8.54e-4 1.144833,0.526072 1.446427,1.020726 0.228938,0.375489 0.280361,0.711509 0.280791,1.834815 l 5.28e-4,1.375145 h 1.269364 1.269364 z M 48.447399,57.262428 v -9.238151 h -1.128324 -1.128324 v 9.238151 9.23815 h 1.128324 1.128324 z m 14.775009,-0.03526 0.03628,-9.202891 H 62.129345 61 v 9.244083 9.244084 l 1.093064,-0.04119 1.093063,-0.04119 z m 35.404832,2.983383 c 0.02198,-0.783272 -0.02405,-1.592492 -0.10229,-1.798265 L 98.382704,58.03815 H 84.585456 c -10.543138,0 -13.837165,0.03992 -13.966496,0.169249 -0.112523,0.112522 -0.169249,0.727293 -0.169249,1.834207 v 1.664959 l 14.068786,-0.03594 14.068786,-0.03594 z M 77.924855,52.467052 v -4.442775 h -1.128323 -1.128324 v 4.442775 4.442775 h 1.128324 1.128323 z M 50.252717,46.162543 c 0.102706,-0.102707 0.169248,-0.601773 0.169248,-1.269364 v -1.100115 h -3.10289 -3.10289 v 1.187091 c 0,0.817704 0.05486,1.209226 0.176301,1.258229 0.09697,0.03913 1.417104,0.07615 2.933641,0.08227 1.969623,0.008 2.805692,-0.03722 2.92659,-0.158114 z m 14.807687,-1.135375 0.04075,-1.234104 h -3.037862 -3.03786 V 44.9684 c 0,0.646437 0.04356,1.218902 0.09681,1.272146 0.05324,0.05324 1.401944,0.07969 2.99711,0.05877 l 2.900301,-0.03804 z m 14.669769,1.135375 c 0.102707,-0.102707 0.169249,-0.601773 0.169249,-1.269364 v -1.100115 h -3.10289 -3.10289 v 1.187091 c 0,0.817704 0.05486,1.209226 0.1763,1.258229 0.09697,0.03913 1.417104,0.07615 2.933642,0.08227 1.969623,0.008 2.805692,-0.03722 2.926589,-0.158114 z m 2.425896,-4.33037 c -2.023152,-1.135958 -19.5672,-10.78601 -19.812164,-10.897622 -0.308424,-0.140528 -1.295576,0.370779 -10.257037,5.312755 -5.453674,3.007536 -10.010972,5.521214 -10.12733,5.585951 -0.116359,0.06474 8.927861,0.117703 20.098265,0.117703 11.170405,0 20.214625,-0.05345 20.098266,-0.118787 z"
     id="path62" />
  <path
     style="fill:#000000;stroke-width:0.14104"
     d="m 61.235866,40.487832 c -2.578054,-0.691888 -3.639414,-3.77262 -2.027714,-5.8857 1.730975,-2.269461 5.349077,-1.655544 6.251273,1.060713 0.323333,0.973465 0.203768,2.278555 -0.285184,3.112889 -0.810554,1.383105 -2.472377,2.105536 -3.938375,1.712098 z m 2.19437,-2.162799 c 0.548936,-0.548936 0.704055,-1.687658 0.328758,-2.413402 -0.826622,-1.59851 -3.481646,-1.14481 -3.615616,0.617849 -0.06412,0.843594 0.01725,1.185365 0.386737,1.624477 0.495485,0.588851 0.81187,0.70955 1.713685,0.653761 0.616759,-0.03815 0.82774,-0.123989 1.186436,-0.482685 z"
     id="path63" />
  <path
     style="fill:#000000;stroke-width:0.14104"
     d="m 74.575145,69.881154 c -0.344515,-0.138478 -0.418234,-0.543499 -0.148093,-0.81364 0.126021,-0.126021 1.616561,-0.169248 5.83591,-0.169248 4.781642,0 5.693204,0.03198 5.836617,0.204785 0.253488,0.305434 0.120959,0.686728 -0.277198,0.797515 -0.525676,0.14627 -10.879501,0.1284 -11.247236,-0.01941 z"
     id="path64" />
  <path
     style="fill:#000000;stroke-width:0.14104"
     d="m 74.302416,72.055021 c -0.04923,-0.128286 -0.02494,-0.335689 0.05398,-0.460897 0.123609,-0.196117 0.571166,-0.23317 3.231117,-0.2675 1.698198,-0.02192 3.234439,-0.0038 3.413868,0.04018 0.257073,0.06306 0.316874,0.161213 0.282081,0.462971 l -0.04415,0.382942 -3.423692,0.03777 c -3.076179,0.03394 -3.432778,0.0141 -3.513198,-0.195471 z"
     id="path65" />
</svg>
