<?xml version="1.0" encoding="UTF-8" standalone="no"?>
<svg
   width="121"
   height="120"
   viewBox="0 0 121 120"
   fill="none"
   version="1.1"
   id="svg5"
   xmlns="http://www.w3.org/2000/svg"
   xmlnsSvg="http://www.w3.org/2000/svg">
  <g
     clip-path="url(#clip0_14538_122513)"
     id="g5">
    <circle
       cx="61"
       cy="60"
       r="59"
       fill="white"
       stroke="#613ED2"
       stroke-width="2"
       id="circle1" />
    <path
       d="M88.1968 57.1896C88.2609 57.3795 88.3253 57.5694 88.3895 57.7592L88.4145 57.8331C88.3605 61.0761 85.6589 63.7347 82.311 63.7347C80.4749 63.7347 78.8598 62.9544 77.7282 61.6895L76.9829 60.8566L76.2376 61.6896C75.106 62.9544 73.4909 63.7347 71.6548 63.7347C69.8188 63.7347 68.2037 62.9544 67.072 61.6895L66.3268 60.8566L65.5815 61.6896C64.4498 62.9544 62.8348 63.7347 60.9987 63.7347C59.1626 63.7347 57.5475 62.9544 56.4159 61.6895L55.6706 60.8566L54.9254 61.6896C53.7937 62.9544 52.1786 63.7347 50.3426 63.7347C48.5065 63.7347 46.8914 62.9544 45.7597 61.6895L45.0145 60.8566L44.2692 61.6896C43.1376 62.9544 41.5225 63.7347 39.6864 63.7347C36.3385 63.7347 33.6369 61.0762 33.5829 57.8331C33.5929 57.8033 33.603 57.7736 33.6131 57.7438C33.6756 57.5593 33.7381 57.3745 33.8006 57.1898L42.5792 45.0886C42.7606 44.8631 43.0076 44.75 43.2385 44.75H78.759C78.9899 44.75 79.2368 44.8631 79.4182 45.0886L88.1968 57.1896Z"
       stroke="#613ED2"
       stroke-width="2"
       id="path1" />
    <path
       d="M82.3094 68.7256C83.3656 68.7256 84.3868 68.5551 85.3615 68.2709V85.7132C85.3615 87.3604 84.0013 88.7107 82.3094 88.7107H79.2574V71.7234V71.2234H78.7574H68.1012H67.6012V71.7234V88.7107H39.6849C37.9929 88.7107 36.6328 87.3604 36.6328 85.7132V68.2214C39.4064 68.988 42.4595 68.7517 45.0132 67.3846C48.2586 69.1188 52.4237 69.1188 55.6691 67.3844C58.9146 69.1189 63.0767 69.1187 66.3252 67.3843C69.5738 69.1189 73.7329 69.1188 76.9815 67.3842C78.6018 68.2555 80.4319 68.7256 82.3094 68.7256ZM57.4451 82.7161H57.9451V82.2161V71.7238V71.2238H57.4451H43.2369H42.7369V71.7238V82.2161V82.7161H43.2369H57.4451Z"
       fill="#613ED2"
       stroke="#613ED2"
       id="path2"
       style="fill:#000000" />
    <path
       d="M93.3846 32.9118C93.3846 35.3717 92.4371 37.0924 90.9504 38.2262C89.4278 39.3874 87.247 39.9996 84.7149 39.9996C82.1827 39.9996 79.9881 39.3874 78.4527 38.2286C76.9534 37.0972 76 35.3869 76 32.9555C76 31.4858 76.6609 29.845 77.729 28.2277C78.7014 26.755 79.9588 25.3818 81.1781 24.2895C82.2856 24.3982 83.4397 24.4687 84.6696 24.4687C85.9031 24.4687 87.0604 24.3978 88.1709 24.2885C89.4063 25.3601 90.6739 26.7237 91.652 28.1925C92.7238 29.8021 93.3846 31.4424 93.3846 32.9118Z"
       stroke="#613ED2"
       stroke-width="2"
       id="path3" />
    <path
       d="M85.2426 30.9801C85.0862 30.9324 84.9163 30.8878 84.6562 30.8266L84.6272 30.8198L84.6271 30.8199C84.3677 30.7584 84.1127 30.6753 83.8642 30.5713C83.7406 30.5193 83.6297 30.4337 83.5417 30.3213C83.4764 30.2338 83.4418 30.1211 83.4459 30.0054L83.4459 30.0054V30.0037V29.9463C83.4542 29.8498 83.4874 29.7586 83.5408 29.684C83.6444 29.5502 83.7777 29.4509 83.9262 29.3957L83.9263 29.3956C84.1788 29.3012 84.4439 29.2573 84.7097 29.2659L84.7097 29.2659H84.7114H84.729H84.7291C84.9304 29.2656 85.1307 29.2951 85.3252 29.3538C85.455 29.3943 85.5779 29.4599 85.6881 29.5481L85.6886 29.5484C85.7554 29.6007 85.8132 29.6668 85.8586 29.7436L86.1592 30.2534L86.1875 30.3014L86.2321 30.2682L87.1395 29.5934L87.1755 29.5666L87.1527 29.5278L86.8521 29.018C86.8521 29.018 86.8521 29.018 86.8521 29.018C86.7258 28.8037 86.5644 28.6177 86.3761 28.4699C86.1548 28.294 85.9078 28.1625 85.6458 28.0812L85.6457 28.0812C85.5484 28.0512 85.4498 28.0263 85.3504 28.0067V26.7734V26.7234L85.3004 26.7234L84.2121 26.7235L84.1621 26.7235L85.7303 31.1807L85.7458 31.1332C85.6009 31.0856 85.4371 31.0366 85.2426 30.9801ZM85.2426 30.9801C85.2427 30.9801 85.2428 30.9801 85.2429 30.9802L85.2283 31.028L85.2423 30.98C85.2424 30.98 85.2425 30.98 85.2426 30.9801ZM86.2023 30.228L86.1724 30.1879L86.1767 30.1847L86.2023 30.228ZM86.2023 30.228L86.2453 30.2026L86.2426 30.198L86.2023 30.228ZM84.3924 32.1178C84.0659 32.0429 83.7449 31.94 83.4324 31.81L83.4322 31.8099C83.13 31.6826 82.8605 31.4755 82.6464 31.207L82.6437 31.2101L82.6076 31.157L82.5903 31.1314C82.3521 30.7885 82.2341 30.3607 82.2576 29.9283C82.2696 29.5678 82.3772 29.2199 82.5663 28.9286L85.3517 35.3152M84.3924 32.1178C84.3923 32.1178 84.3922 32.1178 84.3921 32.1177L84.4038 32.0691L84.3927 32.1179C84.3926 32.1179 84.3925 32.1178 84.3924 32.1178ZM84.3924 32.1178C84.6315 32.1758 84.7838 32.2152 84.9195 32.2573L84.9268 32.2596H84.9344H84.9427M84.9427 32.2596C85.1185 32.3075 85.2639 32.3509 85.3933 32.3929M84.9427 32.2596C84.9405 32.259 84.9384 32.2584 84.9362 32.2578L84.9494 32.2096V32.2596H84.9427ZM85.3933 32.3929L85.3933 32.3929C85.5452 32.4435 85.6899 32.5182 85.8233 32.615L85.8237 32.6153C85.8948 32.6658 85.9559 32.733 86.0028 32.8129M85.3933 32.3929L85.4014 32.3429C85.404 32.3438 85.4066 32.3446 85.4091 32.3454C85.4091 32.3454 85.4091 32.3454 85.4091 32.3454L85.4091 32.3455V32.3458M85.3933 32.3929C85.3933 32.3929 85.3933 32.3929 85.3933 32.3929C85.3935 32.3929 85.3936 32.393 85.3938 32.393L85.4091 32.3458M86.0028 32.8129C86.0478 32.911 86.0699 33.0208 86.0665 33.1318L86.0665 33.1318V33.1333V33.1607H86.0665L86.0665 33.1622C86.0704 33.299 86.0343 33.4331 85.9645 33.544M86.0028 32.8129C86.0024 32.8122 86.0021 32.8115 86.0018 32.8108L86.0472 32.7897M86.0028 32.8129C86.0032 32.8135 86.0036 32.8142 86.0039 32.8149L86.0472 32.7897M85.9645 33.544C85.8553 33.7051 85.7073 33.826 85.539 33.8928L85.539 33.8927L85.5377 33.8933C85.2695 34.0083 84.9836 34.0619 84.6969 34.0511L84.6969 34.0511H84.695H84.6609V34.0511L84.6592 34.0511C84.3494 34.0621 84.0416 33.9911 83.7603 33.8437M85.9645 33.544C85.9646 33.5438 85.9648 33.5435 85.9649 33.5433L86.0064 33.5713M85.9645 33.544C85.9644 33.5442 85.9642 33.5444 85.9641 33.5446L86.0064 33.5713M83.7603 33.8437C83.6265 33.7647 83.5109 33.651 83.4232 33.5112L83.4231 33.511L83.1075 33.0133L83.0776 32.9661L83.034 33.0011L82.1484 33.7109L82.1138 33.7387L82.1373 33.7764L82.4515 34.2801L82.4518 34.2805C82.6511 34.5944 82.9148 34.851 83.2212 35.0282L83.2212 35.0282L83.2235 35.0294L83.2381 35.0369L83.2613 34.9926M83.7603 33.8437C83.7606 33.8439 83.761 33.8441 83.7613 33.8443L83.736 33.8874L83.7592 33.8431C83.7596 33.8433 83.7599 33.8435 83.7603 33.8437ZM83.2613 34.9926L83.2385 35.0371L83.2383 35.037C83.5312 35.1901 83.8431 35.2926 84.1635 35.3412M83.2613 34.9926C83.5623 35.15 83.8837 35.2529 84.2135 35.2979M83.2613 34.9926L83.2463 34.9849C82.9472 34.812 82.6893 34.5612 82.494 34.2537L84.2135 35.2979M84.1635 35.3412V36.5435V36.5935H84.2135H85.3017H85.3517V36.5435V35.3152M84.1635 35.3412V35.2979H84.2135M84.1635 35.3412C84.1779 35.3434 84.1923 35.3454 84.2067 35.3474L84.2135 35.2979M85.3517 35.3152C85.338 35.3178 85.3242 35.3203 85.3104 35.3227L85.3017 35.2735H85.3517V35.3152ZM82.6491 31.1288L82.649 31.1289L82.6491 31.1288ZM82.6491 31.1288C82.6492 31.129 82.6494 31.1292 82.6495 31.1294C82.6596 31.1427 82.6698 31.156 82.6802 31.1691L82.6491 31.1288ZM85.4091 32.3458L85.4092 32.3455C85.4092 32.3455 85.4092 32.3455 85.4092 32.3455C85.4117 32.3463 85.4142 32.3472 85.4167 32.348L85.4092 32.3955H85.4091V32.3458ZM83.0653 33.0401L83.026 33.0715L83.0231 33.0668L83.0653 33.0401ZM83.0653 33.0401L83.0922 33.0826L83.0966 33.0791L83.0653 33.0401ZM86.0064 33.5713C86.082 33.4517 86.1207 33.3074 86.1165 33.1607M86.0064 33.5713C85.8919 33.7405 85.7359 33.8684 85.5574 33.9392C85.2825 34.0571 84.9892 34.1122 84.695 34.1011H84.6609L86.1165 33.1607M86.1165 33.1607V33.1333C86.1201 33.0139 86.0962 32.8956 86.0472 32.7897M86.1165 33.1607L85.8526 32.5745C85.9304 32.6298 85.9968 32.7032 86.0472 32.7897M85.9646 35.1271C85.9647 35.1271 85.9648 35.127 85.965 35.127L85.9452 35.081L85.9643 35.1272C85.9644 35.1272 85.9645 35.1271 85.9646 35.1271ZM85.3004 26.8234V26.7734L85.3004 26.8234H85.3004ZM84.2121 28.0269L84.2051 27.9773C84.1907 27.9794 84.1764 27.9815 84.1621 27.9837V28.0269H84.2121ZM82.6998 28.8286C82.6919 28.8386 82.684 28.8487 82.6762 28.8588L82.6613 28.8785L82.6612 28.8786L82.6612 28.8786V28.8475V28.8473V28.8286H82.6613H82.6998ZM82.6199 31.0863L82.6117 31.0956L82.6116 31.0957L82.6248 31.1074L82.6249 31.1073L82.6199 31.0863Z"
       fill="#613ED2"
       stroke="#613ED2"
       stroke-width="0.1"
       id="path4"
       style="fill:#000000" />
    <path
       d="M87.6012 20.921C86.715 21.0118 85.7526 21.0695 84.7625 21.0714H84.7132C83.6171 21.0714 82.6219 21.0117 81.6997 20.8945C81.462 20.3761 81.2493 19.866 81.0857 19.4008C80.8748 18.8006 80.7764 18.3589 80.7665 18.0929C80.7906 18.0651 80.8359 18.0317 80.8935 18.0135C80.947 17.9966 80.993 17.998 81.0321 18.0107C81.0657 18.0215 81.1469 18.0573 81.2488 18.1977C81.5654 18.6368 82.0329 19.0564 82.6959 19.0696C83.2777 19.0811 83.7223 18.7562 83.936 18.5933C84.028 18.5232 84.1272 18.4417 84.2095 18.374C84.2355 18.3527 84.2597 18.3328 84.2815 18.3151C84.3856 18.2303 84.4697 18.1652 84.5486 18.1127C84.7066 18.0076 84.7758 18 84.8029 18L84.8032 18C84.8063 18 84.8155 18 84.8396 18.01C84.8689 18.0223 84.9161 18.048 84.9864 18.1014C85.0579 18.1558 85.1349 18.2244 85.233 18.3166C85.2527 18.3351 85.2748 18.356 85.2985 18.3785C85.3765 18.4526 85.4723 18.5435 85.5615 18.6215C85.7615 18.7964 86.2153 19.1802 86.8442 19.1614C87.5237 19.1411 87.9935 18.6835 88.3087 18.2462C88.4065 18.1159 88.4834 18.0796 88.5112 18.0696C88.5406 18.0591 88.558 18.0619 88.5688 18.0652C88.5973 18.0739 88.6156 18.0948 88.6156 18.1366C88.6156 18.1687 88.6032 18.2896 88.5399 18.5268C88.4807 18.7484 88.391 19.0206 88.2742 19.3329C88.094 19.8144 87.86 20.3626 87.6012 20.921ZM80.7548 18.1085C80.7548 18.1085 80.7551 18.108 80.7557 18.107L80.7548 18.1085Z"
       stroke="#613ED2"
       stroke-width="2"
       id="path5" />
    <path
       style="fill:#1a1a1a;stroke-width:0.139884"
       d="M 57.00289,119.80821 C 44.686092,118.90342 32.994021,114.34038 23.57052,106.76061 11.176161,96.791242 3.4317536,82.802926 1.4440894,66.794798 1.0843598,63.89763 1.0843598,56.12318 1.4440894,53.226012 2.4665628,44.991279 4.9661124,37.345839 8.9214157,30.354913 9.9510722,28.535015 12.614499,24.600607 13.983384,22.877386 23.269429,11.187646 36.435958,3.3786564 51.00159,0.92210753 54.661582,0.3048359 56.581232,0.15201391 60.709827,0.1492415 64.737666,0.14653676 66.225853,0.25149594 69.729749,0.78540084 88.75977,3.6850929 105.42348,15.816195 114.06499,33.061238 c 3.22038,6.42662 5.14944,13.017323 6.0454,20.654369 0.3428,2.921923 0.34151,9.640704 -0.002,12.588984 -0.62684,5.373659 -1.6879,9.913303 -3.3917,14.511045 -7.64255,20.623594 -25.936601,35.414294 -47.6134,38.495334 -3.725253,0.52949 -8.814145,0.73862 -12.1,0.49724 z m 7.343931,-1.88077 c 7.094882,-0.2689 15.219318,-2.3767 22.038075,-5.71755 2.803183,-1.37342 4.019825,-2.0749 6.848052,-3.94839 10.682612,-7.07644 18.748372,-17.610921 22.806012,-29.786355 1.26789,-3.804474 2.05089,-7.257045 2.61165,-11.515896 0.41675,-3.165131 0.45143,-10.331006 0.0651,-13.453469 -0.99045,-8.005228 -3.30484,-15.160891 -7.12585,-22.031792 C 111.20479,30.781561 110.18,29.144913 109.31254,27.836994 103.61798,19.250901 95.767152,12.363452 86.515581,7.8374548 80.23934,4.767031 73.566421,2.8972682 66.23526,2.1548761 64.084412,1.9370698 58.058778,1.9338136 55.883815,2.1492823 47.945406,2.9357227 41.277867,4.8814799 34.369945,8.4275749 20.239933,15.681039 9.6700103,28.516421 5.244391,43.79563 1.1555955,57.911971 2.5413636,72.932181 9.1472956,86.098844 18.557813,104.85549 37.5238,117.13262 58.401734,117.98242 c 1.307919,0.0532 2.755723,0.0787 3.217341,0.0567 0.461619,-0.022 1.689104,-0.0723 2.727746,-0.11167 z"
       id="path6" />
    <path
       style="fill:#1a1a1a;stroke-width:0.139884"
       d="m 82.811561,40.832182 c -3.368222,-0.617617 -5.735954,-2.031569 -6.820738,-4.073184 -1.034222,-1.946454 -1.160098,-4.433387 -0.331879,-6.556912 0.751548,-1.926943 2.693334,-4.569694 4.634698,-6.307776 l 0.629479,-0.563567 1.862017,0.136322 c 1.245806,0.09121 2.495715,0.08826 3.776878,-0.0089 l 1.914863,-0.145244 1.368251,1.352798 c 2.935672,2.902518 4.436951,5.759185 4.436951,8.442733 0,3.589624 -2.321982,6.402301 -6.112881,7.404691 -1.061442,0.280667 -4.462457,0.483205 -5.357639,0.319059 z m 4.743731,-2.087229 c 1.993235,-0.475835 3.548351,-1.562994 4.268426,-2.983995 1.381736,-2.726724 0.420805,-5.923537 -2.825464,-9.399731 l -0.973221,-1.042152 -3.315183,0.01539 -3.315182,0.01539 -0.56056,0.544144 c -1.620458,1.573004 -3.123003,3.868194 -3.641227,5.562104 -0.515518,1.685063 -0.211934,3.57154 0.8075,5.017823 0.828875,1.175934 2.749735,2.151841 4.881122,2.479891 1.102178,0.169641 3.54566,0.06044 4.673789,-0.208872 z"
       id="path7" />
    <path
       style="fill:#1a1a1a;stroke-width:0.139884"
       d="m 82.198735,21.888528 c -0.606331,-0.06958 -1.11591,-0.144496 -1.132396,-0.166479 -0.248321,-0.331109 -1.085443,-2.65509 -1.14866,-3.188858 l -0.0845,-0.713505 0.370118,0.09289 c 0.384868,0.0966 0.482975,-0.04839 0.214445,-0.316923 -0.24708,-0.247079 -0.0096,-0.459819 0.513236,-0.459819 0.353162,0 0.624914,0.130075 1.02286,0.489596 0.635948,0.57454 0.971089,0.610165 1.511445,0.160666 0.999064,-0.831079 1.503707,-0.849713 2.456956,-0.09072 0.386513,0.307745 0.785121,0.559537 0.885796,0.559537 0.100675,0 0.473969,-0.251792 0.829541,-0.559537 0.7334,-0.634753 0.996364,-0.681401 1.519864,-0.269616 0.448645,0.352904 0.470039,0.770215 0.09532,1.859346 -0.525762,1.528153 -0.999501,2.437785 -1.313795,2.522634 -0.559388,0.151015 -4.629147,0.208293 -5.740229,0.08079 z m 3.215728,-2.239519 -0.669212,-0.424402 -0.849304,0.424402 -0.849303,0.424401 h 1.518516 1.518515 z"
       id="path8" />
    <path
       style="fill:#1a1a1a;stroke-width:0.139884"
       d="m 38.608092,88.961357 c -0.859764,-0.266962 -1.582929,-0.902224 -2.015701,-1.770683 l -0.362333,-0.727108 v -9.40207 -9.402069 l 0.734393,0.205833 c 0.403916,0.113208 1.43008,0.241636 2.280363,0.285395 1.832385,0.0943 3.3829,-0.166813 4.796454,-0.807749 l 0.911814,-0.413436 1.039769,0.432857 c 1.434616,0.597232 2.64199,0.826206 4.365531,0.827906 1.62543,0.0016 3.213582,-0.310541 4.520344,-0.888453 l 0.78162,-0.345669 0.995336,0.418195 c 1.386351,0.582483 2.620816,0.814478 4.333913,0.814478 1.726389,0 2.929377,-0.228585 4.379038,-0.83208 l 1.053275,-0.43848 0.712002,0.360798 c 0.3916,0.198439 1.26235,0.492318 1.934999,0.653063 1.026173,0.245227 1.515663,0.281147 3.041496,0.223187 1.872818,-0.07114 3.093519,-0.344907 4.319842,-0.968809 l 0.542963,-0.276238 0.925823,0.426228 c 2.25419,1.03778 4.939208,1.213198 7.53536,0.492302 l 0.31474,-0.0874 -0.0014,9.353598 -0.0014,9.353598 -0.3303,0.709334 c -0.181665,0.390135 -0.574474,0.911263 -0.87291,1.158065 -0.814365,0.673464 -1.636607,0.860347 -3.785342,0.860347 h -1.86305 v -8.742775 -8.742775 h -5.455492 -5.455491 v 8.742775 8.742775 l -14.373121,-0.0097 c -11.892302,-0.0081 -14.481701,-0.04352 -15.002535,-0.20524 z M 57.492486,77.006358 v -5.315607 h -7.134104 -7.134105 v 5.315607 5.315607 h 7.134105 7.134104 z"
       id="path9" />
    <path
       style="fill:#1a1a1a;stroke-width:0.139884"
       d="m 38.24083,64.487924 c -2.306634,-0.501694 -4.415772,-2.305516 -5.160592,-4.413549 -0.364293,-1.03104 -0.476352,-2.227677 -0.264771,-2.827363 0.227231,-0.644041 8.819724,-12.508884 9.432025,-13.024102 l 0.438713,-0.369153 18.279153,7.37e-4 c 17.145294,6.9e-4 18.303243,0.01587 18.667549,0.244797 0.4849,0.304701 9.384195,12.559008 9.603796,13.224401 0.277037,0.839433 -0.176186,2.768475 -0.94242,4.011198 -0.164532,0.266848 -0.610437,0.801906 -0.990899,1.189018 -1.891551,1.92461 -4.700837,2.620072 -7.16182,1.772967 -1.087372,-0.374289 -1.50101,-0.605568 -2.415825,-1.350771 l -0.795482,-0.647995 -0.672759,0.604867 c -0.891667,0.801687 -1.949761,1.320387 -3.284152,1.60996 -1.989882,0.431821 -4.136621,-0.134652 -5.873142,-1.549784 l -0.813669,-0.663079 -0.62598,0.577008 c -0.827222,0.762507 -2.347778,1.476335 -3.594034,1.687229 -1.942064,0.32864 -4.196721,-0.336759 -5.737938,-1.693393 l -0.654595,-0.576196 -0.654594,0.576196 C 53.478177,64.227551 51.22352,64.89295 49.281456,64.56431 48.0352,64.353416 46.514644,63.639588 45.687422,62.877081 l -0.62598,-0.577008 -0.813669,0.663079 c -0.969444,0.790022 -2.19179,1.370953 -3.325695,1.580567 -1.035763,0.191471 -1.598203,0.179767 -2.681248,-0.05579 z m 3.753875,-2.220311 c 0.568748,-0.273285 1.119435,-0.726557 1.912412,-1.57411 l 1.113661,-1.190307 0.603722,0.673258 c 1.822107,2.031971 2.590377,2.46279 4.524055,2.536933 1.91866,0.07357 2.5902,-0.223338 4.225987,-1.868419 l 1.288414,-1.295737 1.299447,1.294422 c 1.65055,1.644164 2.325436,1.942229 4.237019,1.871281 1.880846,-0.06981 2.740906,-0.552453 4.523488,-2.53848 l 0.604289,-0.673258 1.113592,1.190235 c 1.557565,1.664761 2.213777,1.974777 4.180018,1.974777 1.997859,0 2.679171,-0.314733 4.252932,-1.964651 l 1.138912,-1.194027 0.995155,1.096772 c 0.678684,0.747987 1.278225,1.250232 1.88529,1.579339 0.854066,0.463011 0.949663,0.482567 2.358925,0.482567 1.294653,0 1.56199,-0.0437 2.254938,-0.368619 0.432384,-0.20274 1.036741,-0.59501 1.343016,-0.871711 0.745422,-0.673444 1.439075,-2.00252 1.536184,-2.943406 l 0.07717,-0.747709 -4.378941,-6.032255 -4.378941,-6.032254 H 60.990068 43.274686 l -0.979479,1.363873 c -0.538714,0.75013 -2.501443,3.462553 -4.361621,6.027605 -3.736384,5.152209 -3.632382,4.938446 -3.097826,6.367175 0.546546,1.460778 1.41444,2.353074 2.895285,2.976692 0.703548,0.296281 0.977613,0.333728 2.136007,0.291855 1.099373,-0.03974 1.466862,-0.114329 2.127653,-0.431841 z"
       id="path10" />
  </g>
  <defs
     id="defs5">
    <clipPath
       id="clip0_14538_122513">
      <rect
         x="0.5"
         width="120"
         height="120"
         rx="60"
         fill="white"
         id="rect5" />
    </clipPath>
  </defs>
</svg>
