<?xml version="1.0" encoding="UTF-8" standalone="no"?>
<svg
   width="42"
   height="42"
   viewBox="0 0 42 42"
   fill="none"
   version="1.1"
   id="svg2"
   xmlns="http://www.w3.org/2000/svg"
   xmlnsSvg="http://www.w3.org/2000/svg">
  <defs
     id="defs2" />
  <path
     d="M27.3824 16.7729C25.0214 14.6129 22.6624 12.4472 20.3056 10.2756C20.0259 10.0037 19.6512 9.85156 19.2611 9.85156C18.871 9.85156 18.4963 10.0037 18.2166 10.2756C15.8303 12.4777 13.4419 14.6729 11.0514 16.8614C10.8722 17.0164 10.7293 17.2089 10.6328 17.4253C10.5362 17.6417 10.4883 17.8766 10.4924 18.1135C10.4924 21.7135 10.4924 25.3124 10.4924 28.9103C10.4924 29.8672 11.124 30.5003 12.0919 30.5003H26.4035C27.3903 30.5003 28.0203 29.8687 28.0203 28.8866C28.0203 25.3403 28.0203 21.794 28.0203 18.2477C28.0308 17.9699 27.9789 17.6932 27.8685 17.438C27.7582 17.1828 27.5921 16.9556 27.3824 16.7729ZM21.4156 28.9151H17.1114V23.2514H21.4156V28.9151ZM26.4888 28.3672C26.4888 28.7335 26.2945 28.9293 25.9298 28.9293H23.2093C23.1588 28.9293 23.1067 28.9293 23.0261 28.9198V21.6566H15.5087V28.9198C15.4219 28.9198 15.3509 28.9308 15.2956 28.9308H12.6114C12.2214 28.9308 12.0366 28.7429 12.0366 28.3482C12.0366 25.0251 12.0366 21.7024 12.0366 18.3803C12.0345 18.2793 12.0553 18.179 12.0974 18.0872C12.1395 17.9953 12.2019 17.9141 12.2798 17.8498C14.3693 15.9329 16.4561 14.0145 18.5403 12.0945C18.6603 11.984 18.7787 11.8687 18.9035 11.7614C18.9494 11.7111 19.0052 11.6709 19.0675 11.6435C19.1297 11.616 19.197 11.6018 19.2651 11.6018C19.3331 11.6018 19.4004 11.616 19.4627 11.6435C19.5249 11.6709 19.5808 11.7111 19.6266 11.7614C20.4014 12.4729 21.1745 13.184 21.9461 13.8945C23.3872 15.2208 24.8293 16.5472 26.2724 17.8735C26.3425 17.9329 26.3984 18.0073 26.4358 18.0912C26.4733 18.1751 26.4914 18.2664 26.4888 18.3582C26.4877 21.6982 26.4877 25.0345 26.4888 28.3672Z"
     fill="#613ED2"
     id="path1" />
  <path
     d="M31.5367 8.14176C31.2209 7.82597 30.8088 7.80861 30.4899 8.12755C29.5004 9.10966 28.5151 10.0965 27.5341 11.0881C27.4306 11.1964 27.358 11.3306 27.3241 11.4765C27.2922 11.6228 27.3098 11.7754 27.3741 11.9106C27.4384 12.0458 27.5458 12.1558 27.6793 12.2233C27.8152 12.2933 27.9701 12.3172 28.1207 12.2916C28.2713 12.2659 28.4095 12.1921 28.5146 12.0812C29.0514 11.5491 29.5851 11.0123 30.1204 10.477C30.1693 10.4281 30.2214 10.3807 30.3083 10.2986V19.4297C30.3083 19.5023 30.3083 19.5749 30.3083 19.646C30.3157 19.7983 30.3735 19.9438 30.4727 20.0595C30.5719 20.1753 30.7068 20.2548 30.8562 20.2854C31.0052 20.3204 31.1616 20.3033 31.2996 20.237C31.4375 20.1706 31.5485 20.059 31.6141 19.9207C31.6721 19.7757 31.7006 19.6206 31.6978 19.4644C31.6978 16.4981 31.6978 13.5318 31.6978 10.5654V10.3002C31.7783 10.3744 31.8272 10.417 31.8714 10.4581C32.4062 10.9928 32.9414 11.5276 33.4772 12.0623C33.5406 12.134 33.618 12.192 33.7046 12.2326C33.7913 12.2731 33.8854 12.2955 33.9811 12.2981C34.0767 12.3008 34.1719 12.2837 34.2607 12.2481C34.3495 12.2124 34.43 12.1588 34.4972 12.0907C34.5643 12.0225 34.6167 11.9413 34.6514 11.8522C34.686 11.763 34.7021 11.6677 34.6987 11.5721C34.6953 11.4765 34.6725 11.3826 34.6316 11.2961C34.5907 11.2097 34.5326 11.1324 34.4609 11.0691C33.4872 10.0944 32.5125 9.1186 31.5367 8.14176Z"
     fill="#613ED2"
     id="path2" />
  <path
     style="fill:#000000;stroke-width:0.0485549"
     d="m 11.521946,30.381531 c -0.405997,-0.148047 -0.642342,-0.355208 -0.822313,-0.720775 l -0.163217,-0.331535 v -5.804354 -5.804354 l 0.156029,-0.316944 c 0.144144,-0.292805 0.282826,-0.43315 1.820809,-1.842655 0.915629,-0.839141 2.599882,-2.389412 3.742784,-3.445047 1.436992,-1.327269 2.162454,-1.964269 2.351772,-2.065 0.240092,-0.1277458 0.321939,-0.1454906 0.66535,-0.1442493 0.540096,0.00195 0.704759,0.099956 1.678285,0.9988823 0.440636,0.406871 2.108911,1.940582 3.707278,3.408247 1.817888,1.669236 2.959539,2.752546 3.048774,2.892975 0.300556,0.472985 0.287618,0.167919 0.273247,6.443161 l -0.01311,5.72584 -0.106228,0.227615 c -0.135749,0.290869 -0.447768,0.602889 -0.73624,0.73624 l -0.22574,0.104353 -7.574567,0.01043 c -7.049195,0.0097 -7.590404,0.0047 -7.802909,-0.07283 z m 3.991349,-5.060144 v -3.641618 h 3.738728 3.738728 v 3.641618 3.641619 h 1.53104 c 1.647131,0 1.792453,-0.01894 1.92459,-0.250803 0.09399,-0.164924 0.09581,-10.498013 0.0019,-10.662516 -0.05362,-0.09391 -6.392089,-5.958118 -6.848213,-6.335814 -0.174783,-0.14473 -0.395831,-0.172188 -0.572469,-0.07111 -0.05668,0.03243 -1.635961,1.468279 -3.509505,3.190765 -2.785035,2.560485 -3.415461,3.162793 -3.455866,3.301734 -0.03256,0.111973 -0.0445,1.936665 -0.035,5.349276 l 0.01442,5.179334 0.115283,0.122704 c 0.06341,0.06749 0.161729,0.131818 0.218497,0.142956 0.05677,0.01114 0.786018,0.02323 1.620556,0.02686 l 1.517341,0.0066 z m 5.923699,0.752601 v -2.840462 h -2.184971 -2.184971 v 2.840462 2.840463 h 2.184971 2.184971 z"
     id="path3" />
  <path
     style="fill:#000000;stroke-width:0.0485549"
     d="m 30.657469,20.16146 c -0.35653,-0.238178 -0.334766,0.09855 -0.33485,-5.180708 l -7.6e-5,-4.732543 -0.983237,0.97815 c -0.634164,0.630884 -1.031683,0.990151 -1.119695,1.011953 -0.527073,0.130565 -0.984059,-0.294551 -0.850829,-0.791491 0.03964,-0.147866 0.357086,-0.491246 1.689312,-1.8273415 L 30.69859,7.974219 30.935422,7.9524869 c 0.203369,-0.018662 0.267705,-9.329e-4 0.455329,0.1254702 0.313672,0.2113219 3.197677,3.1766389 3.258095,3.3499529 0.137071,0.393204 -0.218583,0.832206 -0.674207,0.832206 -0.25952,0 -0.406213,-0.117528 -1.41857,-1.13653 l -0.849711,-0.85529 -0.02428,4.746777 c -0.02678,5.235384 -0.0065,4.924485 -0.334926,5.145542 -0.213741,0.143882 -0.475092,0.144202 -0.689686,8.45e-4 z"
     id="path4" />
</svg>
