<svg width="61" height="60" viewBox="0 0 61 60" fill="none" xmlns="http://www.w3.org/2000/svg">
<path d="M20.76 36.6747V36.5751L20.6805 36.5151C16.7469 33.5449 14.2 28.8127 14.2 23.488C14.2 14.4978 21.4604 7.2 30.4 7.2C39.3396 7.2 46.6 14.4978 46.6 23.488C46.6 28.8123 44.0531 33.5441 40.1195 36.5151L40.04 36.5751V36.6747V49.4194C40.04 50.5573 39.4788 51.6196 38.5417 52.2568L38.5415 52.257C37.6062 52.895 36.4167 53.023 35.3668 52.601L30.5966 50.6834C30.5965 50.6834 30.5965 50.6834 30.5964 50.6833C30.4711 50.6326 30.3287 50.6327 30.2034 50.6834L25.4333 52.601C24.3833 53.023 23.1939 52.895 22.2586 52.257L22.2583 52.2568C21.3212 51.6196 20.76 50.5573 20.76 49.4194V36.6747ZM37.16 38.6021L37.16 38.2956L36.8795 38.419C34.8953 39.2917 32.704 39.7756 30.4 39.7756C28.096 39.7756 25.9047 39.2917 23.9205 38.419L23.64 38.2956V38.6021V49.4201C23.64 49.5952 23.727 49.7596 23.872 49.8579L23.8727 49.8585C24.0162 49.9548 24.2005 49.9776 24.3646 49.9106C24.3649 49.9104 24.3653 49.9103 24.3656 49.9102L29.1348 47.9933L29.1349 47.9932C29.9461 47.6662 30.8539 47.6662 31.6651 47.9932L31.6653 47.9933L36.4344 49.9102C36.4347 49.9103 36.435 49.9104 36.4353 49.9105C36.5995 49.9776 36.7838 49.9548 36.9273 49.8585L36.928 49.8579C37.073 49.7596 37.16 49.5952 37.16 49.4201L37.16 38.6021ZM43.72 23.4877C43.72 16.0989 37.752 10.0973 30.4 10.0973C23.048 10.0973 17.08 16.0989 17.08 23.4877C17.08 30.8766 23.048 36.8782 30.4 36.8782C37.752 36.8782 43.72 30.8766 43.72 23.4877Z" fill="#613ED2" stroke="white" stroke-width="0.4"/>
<path d="M29.1767 14.4847L29.1764 14.4852L26.823 18.3419L26.7798 18.4126L26.6993 18.4321L22.3237 19.4916L22.3231 19.4918C21.8356 19.6083 21.4449 19.9717 21.29 20.4511L21.29 20.4511C21.1352 20.9299 21.2392 21.4566 21.5653 21.8413L24.4861 25.2835L24.5394 25.3463L24.533 25.4284L24.1808 29.9393L29.1767 14.4847ZM29.1767 14.4847C29.437 14.0554 29.9029 13.7938 30.4026 13.7938C30.9026 13.7938 31.3685 14.0553 31.6311 14.4852L33.9845 18.3418L34.0276 18.4126L34.1081 18.4321L38.4841 19.4916L38.4845 19.4917C38.97 19.6082 39.363 19.9721 39.5174 20.451L39.5174 20.4511C39.6723 20.93 39.5686 21.4566 39.2425 21.8414L36.3193 25.2834L36.2659 25.3463M29.1767 14.4847L36.2659 25.3463M24.7713 31.2251L24.7713 31.2251C25.1756 31.5212 25.7039 31.5827 26.1683 31.3904L30.3258 29.6601L30.4026 29.6281L30.4794 29.6601L34.6398 31.3906C34.6398 31.3906 34.6398 31.3906 34.6399 31.3906C35.1016 31.5825 35.6299 31.5214 36.0362 31.225L24.7713 31.2251ZM24.7713 31.2251C24.3664 30.9286 24.1423 30.4413 24.1808 29.9395L24.7713 31.2251ZM36.2659 25.3463L36.2723 25.4284M36.2659 25.3463L36.2723 25.4284M36.2723 25.4284L36.6245 29.9393M36.2723 25.4284L36.6245 29.9393M36.6245 29.9393C36.6631 30.4417 36.4411 30.9287 36.0364 31.2249L36.6245 29.9393ZM30.5733 18.2916L30.4025 18.0119L30.2318 18.2918L28.9231 20.4389L28.923 20.439C28.7235 20.7667 28.4018 21.0019 28.032 21.0917C28.032 21.0917 28.032 21.0917 28.032 21.0917L25.5953 21.6786L25.2794 21.7547L25.4897 22.0025L27.1161 23.9188C27.3643 24.2113 27.4865 24.5902 27.4583 24.9736C27.4583 24.9737 27.4583 24.9739 27.4583 24.9741L27.2614 27.4862L27.2358 27.812L27.5376 27.6864L29.8541 26.7222L29.8544 26.7221C30.2055 26.5753 30.6017 26.5753 30.9532 26.7221L30.9534 26.7222L33.2677 27.6864L33.5692 27.812L33.544 27.4863L33.3493 24.9734L33.3492 24.9729C33.3187 24.5903 33.4409 24.2116 33.6893 23.9188C33.6893 23.9188 33.6893 23.9188 33.6893 23.9188L35.3154 22.0025L35.5256 21.7548L35.2098 21.6786L32.7752 21.0916C32.4037 21.002 32.0844 20.767 31.8847 20.439L31.8846 20.4387L30.5733 18.2916Z" fill="#613ED2" stroke="white" stroke-width="0.4"/>
</svg>
