<svg width="20" height="20" viewBox="0 0 20 20" fill="none" xmlns="http://www.w3.org/2000/svg">
<path d="M15 6.66406C16.3807 6.66406 17.5 5.54477 17.5 4.16406C17.5 2.78335 16.3807 1.66406 15 1.66406C13.6193 1.66406 12.5 2.78335 12.5 4.16406C12.5 5.54477 13.6193 6.66406 15 6.66406Z" stroke="#51566B" stroke-width="1.4" stroke-linecap="round" stroke-linejoin="round"/>
<path d="M5 12.5C6.38071 12.5 7.5 11.3807 7.5 10C7.5 8.61929 6.38071 7.5 5 7.5C3.61929 7.5 2.5 8.61929 2.5 10C2.5 11.3807 3.61929 12.5 5 12.5Z" stroke="#51566B" stroke-width="1.4" stroke-linecap="round" stroke-linejoin="round"/>
<path d="M15 18.3359C16.3807 18.3359 17.5 17.2167 17.5 15.8359C17.5 14.4552 16.3807 13.3359 15 13.3359C13.6193 13.3359 12.5 14.4552 12.5 15.8359C12.5 17.2167 13.6193 18.3359 15 18.3359Z" stroke="#51566B" stroke-width="1.4" stroke-linecap="round" stroke-linejoin="round"/>
<path d="M7.16016 11.2578L12.8518 14.5745" stroke="#51566B" stroke-width="1.4" stroke-linecap="round" stroke-linejoin="round"/>
<path d="M12.8435 5.42188L7.16016 8.73854" stroke="#51566B" stroke-width="1.4" stroke-linecap="round" stroke-linejoin="round"/>
</svg>
