<svg width="21" height="21" viewBox="0 0 21 21" fill="none" xmlns="http://www.w3.org/2000/svg">
<path d="M11.621 18.2696L11.6223 18.2709L11.6235 18.2735C11.7359 18.4487 11.8662 18.6108 12.0124 18.7571C12.534 19.2788 13.2548 19.6014 14.0506 19.6014C14.8464 19.6014 15.567 19.2788 16.0888 18.7571C16.6105 18.2355 16.933 17.5153 16.933 16.7189C16.933 15.9231 16.6104 15.2025 16.0888 14.6807C15.5672 14.1596 14.8464 13.8364 14.0506 13.8364C13.2548 13.8364 12.5341 14.1591 12.0124 14.6807C11.4907 15.2023 11.1681 15.9231 11.1681 16.7189C11.1681 17.2904 11.3347 17.8223 11.621 18.2696ZM12.2017 17.2281C12.0179 17.0444 12.0179 16.7463 12.2017 16.5626C12.3854 16.3789 12.6828 16.3789 12.8666 16.5626L13.4277 17.1237L15.2348 15.3165C15.4186 15.1328 15.716 15.1328 15.8998 15.3165C16.0835 15.5002 16.0835 15.7977 15.8998 15.9814L13.7601 18.1217C13.5764 18.3054 13.2784 18.3054 13.0946 18.1217L12.2017 17.2281ZM10.9788 18.9953H5.10811C4.55692 18.9953 4.05613 18.7698 3.69353 18.4072C3.33106 18.0447 3.10547 17.5438 3.10547 16.9926V5.2377C3.10547 4.68651 3.33092 4.18573 3.69353 3.82312C4.05599 3.46065 4.55688 3.23506 5.10811 3.23506H5.85406V2.61255C5.85406 2.35267 6.0648 2.14249 6.32468 2.14249H7.48352V2.02819C7.48352 1.59927 7.65869 1.20909 7.9413 0.926505C7.95116 0.916647 7.96159 0.907503 7.97202 0.898216C8.25219 0.63219 8.62953 0.46875 9.04298 0.46875C9.47058 0.46875 9.86021 0.643912 10.1422 0.926526L10.1441 0.928383C10.4261 1.21041 10.6019 1.60001 10.6019 2.02765V2.14195H11.7607C12.0206 2.14195 12.2313 2.35269 12.2313 2.61201V3.23453H12.9773C13.5285 3.23453 14.0293 3.45998 14.3919 3.82258C14.7543 4.18505 14.9799 4.68594 14.9799 5.23717V13.009C15.6626 13.1792 16.2728 13.5332 16.7546 14.0149C17.4465 14.7068 17.8741 15.6623 17.8741 16.7178C17.8741 17.7735 17.4458 18.7296 16.7546 19.4216C16.0626 20.1135 15.1071 20.5411 14.0508 20.5411C12.9952 20.5411 12.0391 20.1135 11.3471 19.4216C11.2144 19.2883 11.0914 19.1464 10.9788 18.9953ZM14.0382 12.896V5.23785C14.0382 4.94653 13.9191 4.68106 13.7261 4.48879C13.5338 4.29648 13.2683 4.17661 12.977 4.17661H12.2311V4.79912C12.2311 5.05901 12.0203 5.26973 11.7604 5.26973H6.32427C6.06438 5.26973 5.85365 5.059 5.85365 4.79912V4.17661H5.1077C4.81639 4.17661 4.55091 4.29648 4.35864 4.48879C4.16636 4.6811 4.04646 4.94656 4.04646 5.23785V16.9928C4.04646 17.2841 4.16562 17.5496 4.35864 17.7418C4.55094 17.9341 4.81641 18.054 5.1077 18.054H10.4671C10.3122 17.6387 10.2268 17.1882 10.2268 16.7187C10.2268 15.663 10.6544 14.7075 11.3463 14.0157C12.0358 13.3262 12.9874 12.899 14.0382 12.896ZM5.78395 13.2659C5.52406 13.2659 5.31388 13.0551 5.31388 12.7952C5.31388 12.5354 5.52462 12.3246 5.78395 12.3246H9.46342C9.7233 12.3246 9.93348 12.5354 9.93348 12.7952C9.93348 13.0551 9.72274 13.2659 9.46342 13.2659H5.78395ZM5.78395 10.529C5.52406 10.529 5.31388 10.3183 5.31388 10.0584C5.31388 9.79851 5.52462 9.58778 5.78395 9.58778H12.3017C12.5615 9.58778 12.7723 9.79851 12.7723 10.0584C12.7723 10.3183 12.5615 10.529 12.3017 10.529H5.78395ZM7.95359 3.08273H6.79474V4.32771H11.2895V3.08273H10.1306C9.87074 3.08273 9.66001 2.87199 9.66001 2.61211V2.02775C9.66001 1.85759 9.59057 1.70272 9.47942 1.59086C9.36698 1.47899 9.21267 1.41027 9.04253 1.41027C8.88151 1.41027 8.73407 1.47227 8.62407 1.57314L8.60621 1.59214C8.49377 1.70401 8.42433 1.85889 8.42433 2.02849V2.61285C8.42433 2.87273 8.21347 3.08273 7.95359 3.08273Z" fill="#613ED2"/>
</svg>
