<?xml version="1.0" encoding="UTF-8" standalone="no"?>
<svg
   width="42"
   height="42"
   viewBox="0 0 42 42"
   fill="none"
   version="1.1"
   id="svg3"
   xmlns="http://www.w3.org/2000/svg"
   xmlnsSvg="http://www.w3.org/2000/svg">
  <defs
     id="defs3" />
  <path
     d="M27.453 16.8523C25.1033 14.6967 22.7552 12.5373 20.4089 10.3741C19.6686 9.69167 18.871 9.68589 18.1301 10.3683C15.7987 12.5148 13.4648 14.6588 11.1284 16.8002C10.7032 17.1861 10.4948 17.6363 10.4961 18.2087C10.5034 21.7437 10.5047 25.2786 10.5 28.8136C10.5 29.9031 11.0943 30.4974 12.1864 30.4981H19.2563C21.6451 30.4981 24.0339 30.4981 26.4227 30.4981C27.4093 30.4981 28.0223 29.8761 28.0229 28.8901C28.0229 25.3011 28.0229 21.7126 28.0229 18.1245C28.0255 17.608 27.8319 17.1983 27.453 16.8523ZM26.4947 28.1903C26.4947 28.7846 26.3487 28.9319 25.7602 28.9319H12.7138C12.1993 28.9319 12.0365 28.7705 12.0365 28.2669C12.0365 24.9999 12.035 21.733 12.032 18.466C12.0266 18.3445 12.0491 18.2234 12.0977 18.1119C12.1463 18.0004 12.2198 17.9016 12.3125 17.8228C14.3887 15.9216 16.461 14.016 18.5295 12.1062C19.1032 11.5762 19.2068 11.3582 20.0146 12.1171C22.0509 14.0293 24.1226 15.9042 26.184 17.7894C26.2888 17.8789 26.3717 17.9911 26.4266 18.1175C26.4814 18.2439 26.5067 18.3811 26.5005 18.5187C26.4915 21.7405 26.4953 24.9654 26.4947 28.1897V28.1903Z"
     fill="#613ED2"
     id="path1" />
  <path
     d="M31.5634 8.18559C31.1691 7.79325 30.8198 7.79968 30.4243 8.19202C29.4762 9.13794 28.5292 10.0851 27.5833 11.0336C27.2354 11.3829 27.2071 11.8183 27.5081 12.1077C27.8091 12.3972 28.222 12.3592 28.5597 12.0228C29.1199 11.4633 29.6763 10.9011 30.2963 10.2792V17.2365C30.2963 18.0186 30.2905 18.8007 30.2963 19.5828C30.294 19.677 30.3106 19.7706 30.3451 19.8582C30.3797 19.9457 30.4315 20.0255 30.4975 20.0926C30.5635 20.1597 30.6424 20.2129 30.7293 20.249C30.8163 20.2851 30.9096 20.3033 31.0038 20.3026C31.373 20.3026 31.674 19.9958 31.6971 19.5989C31.7029 19.5024 31.6971 19.406 31.6971 19.3095V10.3544C31.7211 10.36 31.7444 10.3682 31.7666 10.3789C32.3133 10.923 32.86 11.4691 33.4074 12.0106C33.7618 12.3605 34.194 12.3965 34.4866 12.1071C34.7793 11.8177 34.7536 11.3829 34.4011 11.0298C33.4577 10.0791 32.5118 9.13107 31.5634 8.18559Z"
     fill="#613ED2"
     id="path2" />
  <path
     d="M20.4387 20.5738C19.7376 20.3487 19.0057 20.2278 18.3252 19.9358C18.0216 19.8072 17.7991 19.6142 17.7959 19.2469C17.7927 18.8681 18.0248 18.6572 18.3368 18.5285C18.8365 18.3221 19.3575 18.3156 19.8804 18.4346C20.2541 18.5202 20.5403 18.7189 20.7166 19.0714C20.8163 19.2714 20.9404 19.4573 21.0613 19.6657C21.444 19.3743 21.8177 19.09 22.1914 18.8044C22.2602 18.7523 22.3155 18.7099 22.2596 18.5993C21.8312 17.756 21.2987 17.0247 20.3127 16.7861C20.1248 16.7405 20.0875 16.6459 20.0933 16.471C20.1068 16.0851 20.0933 15.6991 20.101 15.3132C20.1043 15.1634 20.0676 15.1068 19.9081 15.1119C19.5338 15.1235 19.1581 15.1273 18.7838 15.1119C18.596 15.1036 18.5767 15.1852 18.5812 15.3364C18.5896 15.6252 18.558 15.9153 18.5902 16.2028C18.6314 16.5713 18.5105 16.7102 18.1335 16.8112C17.1733 17.0685 16.5391 17.7052 16.3326 18.6996C16.1262 19.694 16.3841 20.5488 17.1842 21.2009C17.6949 21.6171 18.3284 21.7592 18.9459 21.9303C19.4604 22.0725 19.9814 22.1773 20.4632 22.4275C21.0626 22.7382 20.9584 23.5351 20.5699 23.8682C19.9596 24.3931 18.0937 24.4947 17.6544 23.4277C17.5939 23.281 17.4852 23.1556 17.4055 23.016C17.3469 22.9131 17.298 22.8797 17.19 22.9723C16.8684 23.2508 16.5346 23.5228 16.1995 23.7885C16.0998 23.8669 16.1127 23.9236 16.1654 24.0239C16.6568 24.9514 17.3 25.6846 18.3934 25.8833C18.5555 25.9129 18.5915 25.9875 18.5863 26.1406C18.5761 26.5149 18.5864 26.8906 18.5799 27.2649C18.5761 27.4212 18.6063 27.4945 18.787 27.4868C19.1504 27.4726 19.5151 27.472 19.8804 27.4868C20.0785 27.4952 20.1088 27.4103 20.103 27.2417C20.092 26.9311 20.1184 26.6191 20.094 26.3104C20.0708 26.0133 20.1435 25.8666 20.4657 25.7811C20.826 25.6926 21.1617 25.524 21.4478 25.2878C21.7339 25.0516 21.963 24.7539 22.1181 24.4169C22.8957 22.789 22.1528 21.1238 20.4387 20.5738Z"
     fill="#613ED2"
     id="path3" />
  <path
     style="fill:#000000;stroke-width:0.0485549"
     d="m 11.547399,30.378463 c -0.487416,-0.16904 -0.811222,-0.492983 -0.950913,-0.951313 -0.04627,-0.151816 -0.06007,-1.513283 -0.06007,-5.926572 v -5.72948 l 0.151636,-0.315607 c 0.0834,-0.173583 0.225423,-0.390284 0.315607,-0.481555 0.406891,-0.411799 7.218809,-6.649103 7.417116,-6.791452 0.290489,-0.2085175 0.680862,-0.3213954 0.986372,-0.2852123 0.493295,0.058423 0.618168,0.1620923 4.540448,3.7694383 3.40166,3.128529 3.755079,3.467686 3.881238,3.724613 l 0.138797,0.282665 v 5.850867 c 0,5.846399 -7.8e-5,5.851037 -0.10224,6.071832 -0.149472,0.323044 -0.377555,0.558289 -0.690098,0.711771 l -0.27587,0.135473 -7.550289,0.01087 c -7.154787,0.0103 -7.56346,0.0063 -7.801734,-0.07634 z m 14.61202,-1.466692 c 0.37881,-0.105199 0.351564,0.321526 0.351564,-5.506159 0,-4.858659 -0.0055,-5.207651 -0.08498,-5.352929 -0.04674,-0.08547 -0.844254,-0.849748 -1.772255,-1.698384 -0.928,-0.848636 -2.242056,-2.056909 -2.920122,-2.685053 -1.950546,-1.806935 -2.057933,-1.901547 -2.263106,-1.993886 -0.113191,-0.05094 -0.250069,-0.07648 -0.328087,-0.06121 -0.155673,0.03047 -0.08864,-0.02888 -3.146987,2.785996 -1.293334,1.19037 -2.679261,2.464307 -3.079839,2.830971 -0.400578,0.366663 -0.765645,0.736481 -0.81126,0.821818 -0.0767,0.143483 -0.08304,0.544191 -0.08426,5.326254 -10e-4,4.040054 0.01195,5.197648 0.05933,5.292485 0.03336,0.06676 0.136823,0.159591 0.22992,0.206283 0.158724,0.07961 0.58962,0.08488 6.9184,0.0847 4.539689,-1.32e-4 6.80889,-0.01679 6.931673,-0.05089 z"
     id="path4" />
  <path
     style="fill:#000000;stroke-width:0.0485549"
     d="m 18.654455,27.426709 c -0.0185,-0.0185 -0.03398,-0.341362 -0.03439,-0.717461 -4.09e-4,-0.376098 -0.01881,-0.712301 -0.04089,-0.747117 -0.02208,-0.03482 -0.169234,-0.09665 -0.327003,-0.137401 -0.687804,-0.17767 -1.258814,-0.593212 -1.703963,-1.240029 -0.222439,-0.323212 -0.403697,-0.632308 -0.403697,-0.688418 0,-0.03116 1.060776,-0.905727 1.131486,-0.932862 0.03423,-0.01314 0.170147,0.165142 0.325496,0.426961 0.226668,0.382019 0.305967,0.472939 0.528112,0.605505 0.348125,0.207745 0.698455,0.274241 1.291816,0.245197 1.026593,-0.05025 1.55272,-0.48749 1.469971,-1.221632 -0.05588,-0.495798 -0.393957,-0.694948 -1.857864,-1.094414 -1.161517,-0.316951 -1.623251,-0.530898 -2.0316,-0.941351 -0.625141,-0.628364 -0.833183,-1.36914 -0.640239,-2.279696 0.194536,-0.918065 0.824567,-1.591175 1.735403,-1.854065 0.492162,-0.142049 0.495704,-0.148678 0.523719,-0.980211 l 0.02428,-0.720582 h 0.704046 0.704046 l 0.02428,0.775123 c 0.02766,0.883195 -0.01839,0.798755 0.545904,1.001015 0.554843,0.198874 1.05686,0.688065 1.476902,1.439169 0.206157,0.368644 0.258635,0.280254 -0.519756,0.875441 L 21.06853,19.631359 20.833415,19.221264 C 20.704102,18.995712 20.519348,18.74586 20.42285,18.666039 19.959433,18.28271 18.906397,18.228647 18.240401,18.553992 c -0.357643,0.174711 -0.455305,0.342276 -0.432713,0.742428 0.01636,0.289697 0.03017,0.322332 0.197834,0.467264 0.212979,0.184106 0.61885,0.336566 1.610663,0.605026 1.196079,0.32375 1.533821,0.485722 2.020636,0.969042 0.83241,0.826433 0.992228,1.959736 0.435099,3.085369 -0.314082,0.634576 -0.937198,1.157932 -1.583247,1.329771 -0.383817,0.102089 -0.384036,0.102587 -0.411216,0.936123 l -0.02428,0.744511 -0.682539,0.01341 c -0.375396,0.0074 -0.69768,-0.0017 -0.716185,-0.02023 z"
     id="path5" />
  <path
     style="fill:#000000;stroke-width:0.0485549"
     d="m 30.674123,20.174829 c -0.08704,-0.05307 -0.201666,-0.167696 -0.254732,-0.254732 -0.09454,-0.15505 -0.09649,-0.254127 -0.09667,-4.90449 -10e-5,-2.610434 -0.01678,-4.746243 -0.03708,-4.746243 -0.02029,0 -0.451824,0.416614 -0.95896,0.92581 -0.507135,0.509195 -0.981065,0.957114 -1.053178,0.995376 -0.07211,0.03826 -0.218839,0.06957 -0.326057,0.06957 -0.238084,0 -0.50371,-0.209631 -0.58756,-0.463699 -0.112944,-0.342221 -0.06068,-0.409742 1.645133,-2.1253143 0.871513,-0.8765005 1.643571,-1.6248531 1.715684,-1.6630058 0.167366,-0.088548 0.395831,-0.08855 0.563204,-5.8e-6 0.200402,0.1060173 3.250162,3.1890689 3.308663,3.3447809 0.02824,0.07518 0.05135,0.225234 0.05135,0.333458 0,0.163832 -0.03156,0.228326 -0.188508,0.385278 -0.156952,0.156952 -0.221445,0.188508 -0.385278,0.188508 -0.108224,0 -0.257893,-0.02324 -0.332596,-0.05164 -0.0747,-0.0284 -0.562283,-0.470859 -1.083508,-0.983237 l -0.947683,-0.931596 -0.02428,4.734104 c -0.02276,4.439101 -0.02972,4.744071 -0.111606,4.894054 -0.17884,0.327564 -0.585723,0.442422 -0.896352,0.253029 z"
     id="path6" />
</svg>
