<svg width="24" height="24" viewBox="0 0 24 24" fill="none" xmlns="http://www.w3.org/2000/svg">
<path d="M12.0437 11.1578C14.4655 11.1578 16.4234 9.19984 16.4234 6.77811C16.4234 4.35639 14.4655 2.39844 12.0437 2.39844C9.62201 2.39844 7.66406 4.35639 7.66406 6.77811C7.66406 9.19984 9.62201 11.1578 12.0437 11.1578ZM12.0437 3.94413C13.6153 3.94413 14.8778 5.20657 14.8778 6.77816C14.8778 8.34971 13.6153 9.61219 12.0437 9.61219C10.4721 9.61219 9.20971 8.34975 9.20971 6.77816C9.20971 5.20643 10.4721 3.94413 12.0437 3.94413Z" fill="#613ED2"/>
<path d="M6.06626 20.5876H17.9946C18.3295 20.5876 18.6644 20.4331 18.8964 20.2013C19.1282 19.9436 19.257 19.6088 19.2313 19.2481C18.9479 15.1775 15.8564 12.0859 12.0177 12.0859C8.17894 12.0859 5.08741 15.1518 4.80402 19.2481C4.77832 19.6087 4.90699 19.9437 5.13899 20.2013C5.39652 20.4588 5.73148 20.5876 6.06626 20.5876ZM12.0433 13.6316C14.9546 13.6316 17.3505 15.9245 17.6854 19.0418L6.40118 19.0417C6.73616 15.9501 9.13202 13.6314 12.0433 13.6314V13.6316Z" fill="#613ED2"/>
<circle cx="16.8008" cy="18" r="6" fill="#FAFAFA"/>
<path d="M16.8008 13.1954C15.5275 13.1954 14.3065 13.7012 13.4061 14.6015C12.5058 15.5018 12 16.723 12 17.9962C12 19.2694 12.5058 20.4905 13.4061 21.3909C14.3064 22.2912 15.5276 22.797 16.8008 22.797C18.074 22.797 19.2951 22.2912 20.1955 21.3909C21.0958 20.4905 21.6016 19.2694 21.6016 17.9962C21.6016 17.1535 21.3797 16.3256 20.9584 15.5957C20.5371 14.8659 19.9309 14.2598 19.2012 13.8384C18.4713 13.4171 17.6434 13.1953 16.8007 13.1953L16.8008 13.1954ZM16.8008 21.8369C15.7822 21.8369 14.8052 21.4323 14.0851 20.712C13.3648 19.9918 12.9601 19.0148 12.9601 17.9963C12.9601 16.9777 13.3648 16.0007 14.0851 15.2806C14.8053 14.5603 15.7822 14.1556 16.8008 14.1556C17.8194 14.1556 18.7963 14.5603 19.5165 15.2806C20.2368 16.0008 20.6414 16.9777 20.6414 17.9963C20.6414 18.6704 20.464 19.3328 20.1268 19.9166C19.7897 20.5005 19.305 20.9853 18.7211 21.3223C18.1372 21.6595 17.4749 21.837 16.8007 21.837L16.8008 21.8369Z" fill="#613ED2"/>
<path d="M16.8044 15.1173C16.6771 15.1173 16.5549 15.1678 16.4649 15.2579C16.3749 15.3479 16.3244 15.47 16.3244 15.5973V17.8009L15.0233 19.0971C14.9217 19.1841 14.861 19.3096 14.8558 19.4432C14.8507 19.5769 14.9016 19.7067 14.9962 19.8013C15.0907 19.8959 15.2205 19.9467 15.3541 19.9415C15.4878 19.9364 15.6132 19.8756 15.7002 19.774L17.1404 18.3338C17.2309 18.2451 17.2827 18.1244 17.2845 17.9977V15.5972C17.2845 15.4699 17.2339 15.3479 17.1439 15.2578C17.0539 15.1677 16.9317 15.1172 16.8044 15.1172L16.8044 15.1173Z" fill="#613ED2"/>
</svg>
