<svg width="70" height="70" viewBox="0 0 70 70" fill="none" xmlns="http://www.w3.org/2000/svg">
<path d="M60 35.5V24.25H20.625C19.1332 24.25 17.7024 23.6574 16.6475 22.6025C15.5926 21.5476 15 20.1168 15 18.625C15 15.5312 17.5312 13 20.625 13H54.375V24.25" stroke="#613ED2" stroke-width="2" stroke-linecap="round" stroke-linejoin="round"/>
<path d="M15 19.25V52.4643C15 55.5089 17.5312 58 20.625 58H60V46.9286" stroke="#613ED2" stroke-width="2" stroke-linecap="round" stroke-linejoin="round"/>
<path d="M54.1667 35.5C52.7301 35.5 51.3523 36.0926 50.3365 37.1475C49.3207 38.2024 48.75 39.6332 48.75 41.125C48.75 44.2188 51.1875 46.75 54.1667 46.75H65V35.5H54.1667Z" stroke="#613ED2" stroke-width="2" stroke-linecap="round" stroke-linejoin="round"/>
<path d="M36.3485 29.9002L36.4485 29.9002L38.8305 29.9L38.9305 29.9V30V32.7878C39.1506 32.8322 39.3688 32.8888 39.5843 32.9571L39.5844 32.9572C40.157 33.1397 40.6967 33.4356 41.1802 33.8308C41.5913 34.1627 41.9437 34.5804 42.2193 35.0617C42.2193 35.0617 42.2193 35.0617 42.2193 35.0617L42.8773 36.2098L42.9208 36.2857L42.8513 36.3389L40.8653 37.8584L40.7746 37.9278L40.7178 37.8287L40.0599 36.6808C39.9596 36.5064 39.8322 36.3563 39.6849 36.2379L39.684 36.2372C39.4418 36.0378 39.1719 35.8895 38.8867 35.7981C38.4604 35.6657 38.0212 35.5992 37.5801 35.5999H37.5799H37.5413H37.5379L37.5379 35.5998C36.9553 35.5804 36.374 35.6795 35.8205 35.8925L35.8204 35.8925C35.4939 36.0175 35.2006 36.2421 34.9723 36.5452C34.8539 36.7154 34.7803 36.9235 34.762 37.1438V37.2738V37.2772L34.762 37.2772C34.753 37.5412 34.8297 37.7983 34.9745 37.9978C35.1682 38.2524 35.4123 38.4463 35.6842 38.5638C36.2299 38.7988 36.7899 38.9864 37.3596 39.1252L37.3599 39.1249L37.419 39.1392C37.9883 39.277 38.3599 39.3773 38.702 39.4846C39.1277 39.612 39.486 39.7223 39.8032 39.8293M36.3485 29.9002L39.7714 39.9241M36.3485 29.9002V30.0002V32.7365M36.3485 29.9002V32.7365M39.8032 39.8293C39.8033 39.8293 39.8033 39.8293 39.8034 39.8294L39.7714 39.9241M39.8032 39.8293C39.8032 39.8293 39.8032 39.8293 39.8031 39.8293L39.7714 39.9241M39.8032 39.8293C40.3618 40.0161 40.895 40.2915 41.3871 40.6473L41.3882 40.6482C41.8862 41.019 42.3032 41.5153 42.6082 42.0984L42.6082 42.0985L42.6261 42.1328L42.6284 42.1373L42.6283 42.1373C42.9767 42.8969 43.1372 43.7516 43.0928 44.6081C43.0483 45.4647 42.8008 46.2917 42.376 46.9984L42.3741 47.0015L42.3741 47.0014C41.8419 47.8183 41.1161 48.4429 40.2817 48.7986M39.7714 39.9241C40.3201 40.1076 40.8443 40.3783 41.3285 40.7284C41.8136 41.0897 42.2211 41.5741 42.5196 42.1447L42.5374 42.179C42.8789 42.9236 43.0365 43.7621 42.9929 44.603C42.9493 45.4439 42.7063 46.2549 42.2903 46.9468C41.7679 47.7487 41.0568 48.3596 40.2418 48.7068M40.2817 48.7986C40.2819 48.7985 40.2821 48.7984 40.2823 48.7983L40.2418 48.7068M40.2817 48.7986C39.8458 48.9915 39.3942 49.1338 38.9335 49.2232V52V52.1H38.8335H36.4515H36.3515V52V49.2814C35.6481 49.1726 34.9632 48.9416 34.3203 48.5959C34.3202 48.5958 34.3201 48.5958 34.3199 48.5957L34.2879 48.5789L34.2833 48.5764L34.2834 48.5763C33.6139 48.1781 33.0381 47.6015 32.6028 46.8963L32.6024 46.8956L31.9145 45.7613L31.8696 45.6873L31.9364 45.6323L33.8748 44.0339L33.9633 43.9609L34.0235 44.0586L34.7143 45.1793L34.7145 45.1797C34.9075 45.4962 35.1619 45.7536 35.456 45.9322C36.073 46.2649 36.7481 46.425 37.4272 46.4003L37.4309 46.4002V46.4002H37.5054H37.5093L37.5093 46.4003C38.1378 46.4246 38.7645 46.3037 39.3528 46.0443L39.3553 46.0431L39.3554 46.0432C39.7253 45.8921 40.0511 45.6186 40.2913 45.2537C40.4457 45.0017 40.5255 44.6966 40.5169 44.3855L40.5168 44.3827H40.5168V44.3209V44.3179L40.5169 44.318C40.5243 44.0654 40.4754 43.8157 40.3757 43.5926C40.2723 43.411 40.1372 43.2582 39.9803 43.1435L39.9794 43.1429C39.6867 42.9244 39.3692 42.7558 39.0361 42.6416L39.0361 42.6415C38.7524 42.5469 38.4337 42.4491 38.0485 42.341H38.0294H38.0138L37.9989 42.3363C37.7017 42.2412 37.3681 42.1525 36.8446 42.0219C36.1303 41.8532 35.4283 41.6218 34.7447 41.3292L34.7443 41.3291C34.0809 41.0416 33.4903 40.5733 33.0218 39.9663L33.0163 39.9726L32.9437 39.8626L32.9057 39.8049C32.9056 39.8048 32.9055 39.8046 32.9054 39.8045C32.386 39.0348 32.1287 38.075 32.18 37.1047C32.2064 36.2872 32.4457 35.4984 32.8664 34.8404H32.8562L32.9734 34.6811L33.0062 34.6365L33.0066 34.6359C33.5367 33.9266 34.2246 33.3941 34.9982 33.0969L34.9985 33.0968C35.438 32.9298 35.8899 32.8091 36.3485 32.7365M40.2817 48.7986C40.2815 48.7987 40.2812 48.7987 40.281 48.7988L40.2418 48.7068M40.2418 48.7068C39.787 48.9083 39.3149 49.0536 38.8335 49.1401V51.9V52H38.7335H36.5515H36.4515V51.9V49.1951C35.7298 49.0939 35.0263 48.862 34.3673 48.5076L34.3345 48.4904C33.6798 48.1009 33.1153 47.5363 32.6879 46.8438L32 45.7094L33.8605 44.1753L33.8532 44.1635L33.9384 44.111L34.002 44.1882L33.9913 44.197L34.6291 45.2318C34.8304 45.5617 35.0967 45.8315 35.4063 46.019C36.0391 46.3607 36.7326 46.5256 37.4309 46.5002H37.5054C38.1495 46.5252 38.7913 46.4012 39.3931 46.1357C39.7838 45.9763 40.1252 45.6883 40.3757 45.3073C40.5412 45.0378 40.626 44.7129 40.6168 44.3827V44.3209C40.6247 44.0521 40.5724 43.7857 40.465 43.5473C40.3547 43.3524 40.2096 43.1872 40.0393 43.0627C39.7431 42.8417 39.4217 42.67 39.0841 42.5523L39.0687 42.647H39.0685V42.5476L36.3485 32.7365M33.1288 34.6404C33.6424 33.9728 34.2995 33.4724 35.0341 33.1902L33.1288 34.6404ZM33.1288 34.6404H33.0541H33.0539V34.6713V34.6717V34.7403L33.1288 34.6404ZM32.9857 34.8404C32.5533 35.4933 32.3063 36.2856 32.2799 37.109C32.2301 38.0474 32.4754 38.9747 32.9698 39.721L32.9857 34.8404ZM33.0887 39.8892C33.5495 40.4915 34.1315 40.9545 34.784 41.2373C35.4626 41.5277 36.1593 41.7574 36.8682 41.9247C37.3922 42.0554 37.7287 42.1448 38.0294 42.241L33.0887 39.8892ZM38.0622 42.241C38.4479 42.349 38.7678 42.4469 39.0527 42.5416L38.0622 42.241Z" fill="#613ED2" stroke="#613ED2" stroke-width="0.2"/>
</svg>
