<svg width="159" height="33" viewBox="0 0 159 33" fill="none" xmlns="http://www.w3.org/2000/svg">
<g clip-path="url(#clip0_3003_8118)">
<path d="M43.292 11.0071H45.0066L49.8046 22.1446H47.5393L46.501 19.5962H41.6717L40.6649 22.1446H38.4468L43.292 11.0071ZM45.8089 17.8973L44.0942 13.3667L42.3481 17.8973H45.8089Z" fill="#293036"/>
<path d="M51.9312 11.0071H54.2121L57.2482 19.4231L60.3786 11.0071H62.5183L58.0191 22.1446H56.3045L51.9312 11.0071Z" fill="#293036"/>
<path d="M69.6013 11.0071H71.3163L76.1139 22.1446H73.8487L72.8107 19.5962H67.981L66.9741 22.1446H64.7563L69.6013 11.0071ZM72.1183 17.8973L70.4038 13.3667L68.6576 17.8973H72.1183Z" fill="#293036"/>
<path d="M80.4985 11.0071H82.4808V20.3513H87.2156V22.1446H80.4985V11.0071Z" fill="#293036"/>
<path d="M95.404 11.0071H97.1191L101.917 22.1446H99.6514L98.6134 19.5962H93.7838L92.7769 22.1446H90.5591L95.404 11.0071ZM97.9211 17.8973L96.2065 13.3667L94.4603 17.8973H97.9211Z" fill="#293036"/>
<path d="M106.301 11.0071H108.928L114.323 19.2815H114.355V11.0071H116.337V22.1446H113.82L108.314 13.6027H108.283V22.1446H106.301V11.0071Z" fill="#293036"/>
<path d="M129.612 13.6164C129.203 13.1759 128.805 12.8823 128.417 12.7355C128.039 12.5886 127.656 12.5153 127.269 12.5153C126.692 12.5153 126.167 12.6201 125.695 12.8299C125.234 13.0291 124.836 13.3123 124.5 13.6794C124.164 14.0359 123.902 14.4554 123.713 14.9378C123.535 15.4202 123.446 15.9394 123.446 16.4952C123.446 17.0929 123.535 17.6436 123.713 18.1469C123.902 18.6503 124.164 19.0855 124.5 19.4526C124.836 19.8197 125.234 20.108 125.695 20.3178C126.167 20.5276 126.692 20.6324 127.269 20.6324C127.72 20.6324 128.155 20.5276 128.574 20.3178C129.004 20.0976 129.402 19.7515 129.77 19.2796L131.405 20.4437C130.902 21.1358 130.289 21.6392 129.565 21.9538C128.841 22.2684 128.071 22.4258 127.253 22.4258C126.393 22.4258 125.601 22.2894 124.878 22.0167C124.164 21.7336 123.545 21.3403 123.021 20.8369C122.507 20.3231 122.103 19.7095 121.81 18.9964C121.516 18.2833 121.369 17.4915 121.369 16.621C121.369 15.7296 121.516 14.9221 121.81 14.1985C122.103 13.4643 122.507 12.8403 123.021 12.3265C123.545 11.8126 124.164 11.4193 124.878 11.1467C125.601 10.8635 126.393 10.7219 127.253 10.7219C128.008 10.7219 128.705 10.8583 129.345 11.1309C129.995 11.3931 130.598 11.844 131.154 12.4838L129.612 13.6164Z" fill="#293036"/>
<path d="M135.882 11.0071H137.864V15.4432H143.071V11.0071H145.053V22.1446H143.071V17.2365H137.864V22.1446H135.882V11.0071Z" fill="#293036"/>
<path d="M150.688 11.0071H158.066V12.8004H152.671V15.5376H157.783V17.3309H152.671V20.3513H158.35V22.1446H150.688V11.0071Z" fill="#293036"/>
<path fill-rule="evenodd" clip-rule="evenodd" d="M32.5795 16.5761C32.5795 25.399 25.4272 32.5514 16.6042 32.5514C7.78132 32.5514 0.628906 25.399 0.628906 16.5761C0.628906 7.75322 7.78132 0.60083 16.6042 0.60083C25.4272 0.60083 32.5795 7.75322 32.5795 16.5761ZM12.0773 22.9332H8.97697C8.32552 22.9332 8.00369 22.9332 7.80744 22.8076C7.59554 22.6702 7.46601 22.4426 7.45031 22.1914C7.43855 21.9599 7.59944 21.6773 7.92127 21.1122L15.5764 7.6189C15.9022 7.04591 16.067 6.75944 16.275 6.65347C16.4987 6.53969 16.7656 6.53969 16.9893 6.65347C17.1973 6.75944 17.3621 7.04591 17.6878 7.6189L19.2616 10.3661L19.2696 10.3801C19.6214 10.9948 19.7998 11.3065 19.8777 11.6337C19.964 11.9908 19.964 12.3675 19.8777 12.7247C19.7992 13.0544 19.6226 13.3683 19.2655 13.9923L15.2444 21.1004L15.234 21.1187C14.8798 21.7384 14.7004 22.0525 14.4516 22.2896C14.1809 22.5486 13.8551 22.7369 13.498 22.8429C13.1723 22.9332 12.8073 22.9332 12.0773 22.9332ZM19.9068 22.9335H24.3493C25.0047 22.9335 25.3344 22.9335 25.5306 22.804C25.7425 22.6667 25.8759 22.4351 25.8877 22.1839C25.8991 21.96 25.7417 21.6884 25.4332 21.1561C25.4227 21.138 25.4119 21.1195 25.4011 21.1008L23.1759 17.294L23.1506 17.2512C22.8379 16.7224 22.6799 16.4553 22.4773 16.3521C22.2536 16.2383 21.9907 16.2383 21.767 16.3521C21.5629 16.4581 21.3981 16.7367 21.0723 17.2979L18.855 21.1047L18.8474 21.1178C18.5228 21.6781 18.3606 21.9581 18.3723 22.1879C18.388 22.439 18.5175 22.6706 18.7294 22.8079C18.9217 22.9335 19.2513 22.9335 19.9068 22.9335Z" fill="#293036"/>
</g>
<defs>
<clipPath id="clip0_3003_8118">
<rect width="157.778" height="32" fill="white" transform="translate(0.60791 0.589111)"/>
</clipPath>
</defs>
</svg>
