<svg width="132" height="33" viewBox="0 0 132 33" fill="none" xmlns="http://www.w3.org/2000/svg">
<path d="M126.406 28.0967H127.925C128.395 28.0967 128.768 28.2383 129.045 28.5086C129.322 28.7789 129.463 29.2101 129.463 29.7958V30.8385C129.463 31.4306 129.322 31.8618 129.045 32.1322C128.768 32.4025 128.395 32.5376 127.925 32.5376H126.406V28.0967ZM127.931 32.1128C128.633 32.1128 128.987 31.7009 128.987 30.8642V29.8151C128.987 29.3646 128.89 29.0364 128.71 28.8304C128.53 28.6244 128.266 28.5215 127.931 28.5215H126.882V32.1128H127.931Z" fill="#293036"/>
<path d="M123.445 28.0967V32.5376H122.975L120.677 28.9591V32.5376H120.207V28.0967H120.677L122.975 31.6623V28.0967H123.445Z" fill="#293036"/>
<path d="M114.938 32.3896C114.706 32.2673 114.519 32.0935 114.39 31.8618C114.255 31.6366 114.191 31.3791 114.191 31.0895V28.0967H114.667V31.0509C114.667 31.392 114.757 31.6623 114.95 31.8618C115.143 32.0614 115.401 32.1579 115.723 32.1579C116.038 32.1579 116.296 32.0614 116.489 31.8618C116.682 31.6623 116.778 31.392 116.778 31.0509V28.0967H117.248V31.0895C117.248 31.3856 117.177 31.643 117.049 31.8683C116.92 32.0935 116.74 32.2673 116.508 32.3896C116.276 32.5183 116.012 32.5762 115.723 32.5762C115.427 32.5762 115.169 32.5183 114.938 32.3896Z" fill="#293036"/>
<path d="M109.261 28.5215V30.079H111.166V30.5038H109.261V32.5376H108.791V28.0967H111.488V28.5215H109.261Z" fill="#293036"/>
<path d="M102.504 28.0967V32.5376H102.035V29.0621L100.779 31.6494H100.419L99.1576 29.0621V32.5376H98.6877V28.0967H99.1576L100.599 31.0895L102.035 28.0967H102.504Z" fill="#293036"/>
<path d="M93.7069 28.5215V30.0661H95.612V30.4909H93.7069V32.1128H95.9338V32.5376H93.2371V28.0967H95.9338V28.5215H93.7069Z" fill="#293036"/>
<path d="M90.737 28.5215H89.4691V32.5376H89.0057V28.5215H87.7378V28.0967H90.737V28.5215Z" fill="#293036"/>
<path d="M82.892 32.248C82.6346 32.0292 82.493 31.7074 82.4543 31.2826H82.9178C82.9757 31.8747 83.3297 32.1643 83.9733 32.1643C84.308 32.1643 84.559 32.0935 84.7328 31.9519C84.9065 31.8103 84.9966 31.6044 84.9966 31.3341C84.9966 31.0895 84.9258 30.9093 84.7907 30.7806C84.6491 30.6583 84.4431 30.5746 84.1664 30.5231L83.6643 30.4394C83.3039 30.3815 83.0272 30.2592 82.8341 30.0726C82.641 29.8859 82.5445 29.6221 82.5445 29.2809C82.5445 28.8948 82.6732 28.5858 82.9371 28.367C83.1945 28.1482 83.5421 28.0388 83.9733 28.0388C84.3659 28.0388 84.6877 28.1417 84.9387 28.3477C85.1897 28.5537 85.3378 28.8626 85.3892 29.2745H84.9258C84.8743 28.721 84.5525 28.4442 83.9668 28.4442C83.6579 28.4442 83.4198 28.5215 83.2524 28.6631C83.0851 28.8047 83.0014 29.0042 83.0014 29.2488C83.0014 29.4676 83.0658 29.6414 83.1945 29.7636C83.3232 29.8859 83.5228 29.9696 83.7931 30.0147L84.308 30.1048C84.6813 30.1691 84.9644 30.2979 85.164 30.4909C85.3571 30.684 85.46 30.9608 85.46 31.3083C85.46 31.7138 85.3249 32.0292 85.0546 32.248C84.7842 32.4668 84.4109 32.5763 83.9411 32.5763C83.4906 32.5763 83.143 32.4668 82.892 32.248Z" fill="#293036"/>
<path d="M78.94 30.6776V32.5376H78.4701V30.6711L77.1443 28.0967H77.6527L78.7018 30.227L79.7574 28.0967H80.2658L78.94 30.6776Z" fill="#293036"/>
<path d="M72.3678 32.248C72.1104 32.0292 71.9688 31.7074 71.9302 31.2826H72.3936C72.4515 31.8747 72.8055 32.1643 73.4491 32.1643C73.7838 32.1643 74.0348 32.0935 74.2086 31.9519C74.3824 31.8103 74.4725 31.6044 74.4725 31.3341C74.4725 31.0895 74.4017 30.9093 74.2665 30.7806C74.1249 30.6583 73.919 30.5746 73.6422 30.5231L73.1402 30.4394C72.7798 30.3815 72.503 30.2592 72.3099 30.0726C72.1168 29.8859 72.0203 29.6221 72.0203 29.2809C72.0203 28.8948 72.149 28.5858 72.4129 28.367C72.6703 28.1482 73.0179 28.0388 73.4491 28.0388C73.8417 28.0388 74.1635 28.1417 74.4145 28.3477C74.6655 28.5537 74.8136 28.8626 74.8651 29.2745H74.4017C74.3502 28.721 74.0284 28.4442 73.4427 28.4442C73.1337 28.4442 72.8956 28.5215 72.7283 28.6631C72.5609 28.8047 72.4773 29.0042 72.4773 29.2488C72.4773 29.4676 72.5416 29.6414 72.6703 29.7636C72.7991 29.8859 72.9986 29.9696 73.2689 30.0147L73.7838 30.1048C74.1571 30.1691 74.4403 30.2979 74.6398 30.4909C74.8329 30.684 74.9359 30.9608 74.9359 31.3083C74.9359 31.7138 74.8007 32.0292 74.5304 32.248C74.2601 32.4668 73.8868 32.5763 73.4169 32.5763C72.9664 32.5763 72.6188 32.4668 72.3678 32.248Z" fill="#293036"/>
<path d="M66.6954 32.1836C66.4186 31.9133 66.2834 31.4821 66.2834 30.89V29.7379C66.2834 29.1522 66.4186 28.721 66.7018 28.4507C66.9785 28.1804 67.3518 28.0388 67.8281 28.0388C68.2915 28.0388 68.6648 28.1804 68.9416 28.4507C69.2183 28.721 69.3599 29.1522 69.3599 29.7379V30.89C69.3599 31.4821 69.2183 31.9133 68.9416 32.1836C68.6584 32.454 68.2851 32.5891 67.8217 32.5891C67.3454 32.5891 66.9721 32.454 66.6954 32.1836ZM68.8901 30.9157V29.7572C68.8901 28.8948 68.5361 28.4635 67.8281 28.4635C67.4677 28.4635 67.2038 28.5665 67.0236 28.7725C66.8434 28.9784 66.7533 29.3067 66.7533 29.7572V30.9157C66.7533 31.3534 66.8434 31.6688 67.0236 31.8618C67.2038 32.0614 67.4741 32.1579 67.8281 32.1579C68.5361 32.1579 68.8901 31.746 68.8901 30.9157Z" fill="#293036"/>
<path d="M60.8491 32.1836C60.5659 31.9133 60.4243 31.4821 60.4243 30.89V29.7379C60.4243 29.1522 60.5659 28.721 60.8491 28.4507C61.1323 28.1804 61.512 28.0388 61.9883 28.0388C62.2844 28.0388 62.5482 28.0967 62.7799 28.2061C63.0116 28.3219 63.1854 28.4764 63.3142 28.6824C63.4364 28.8883 63.5008 29.1265 63.5008 29.3968V29.4161H63.031V29.3968C63.031 29.1136 62.9344 28.8819 62.7478 28.7146C62.5611 28.5472 62.3101 28.4635 61.9883 28.4635C61.6279 28.4635 61.3576 28.5665 61.1709 28.766C60.9843 28.972 60.8942 29.3002 60.8942 29.7572V30.9157C60.8942 31.746 61.261 32.1579 61.9947 32.1579C62.3165 32.1579 62.5676 32.0807 62.7542 31.9133C62.9344 31.746 63.031 31.5207 63.031 31.2311V31.2053H63.4879V31.2311C63.4879 31.6494 63.3528 31.9777 63.0824 32.2223C62.8121 32.4668 62.4453 32.5891 61.9883 32.5891C61.512 32.5891 61.1323 32.454 60.8491 32.1836Z" fill="#293036"/>
<path d="M55.5336 28.5215V30.0661H57.4387V30.4909H55.5336V32.1128H57.7605V32.5376H55.0637V28.0967H57.7605V28.5215H55.5336Z" fill="#293036"/>
<path d="M46.7569 28.5215V30.0661H48.6621V30.4909H46.7569V32.1128H48.9839V32.5376H46.2871V28.0967H48.9839V28.5215H46.7569Z" fill="#293036"/>
<path d="M43.3269 28.0967V32.5376H42.8571V30.4781H40.7782V32.5376H40.3083V28.0967H40.7782V30.0533H42.8571V28.0967H43.3269Z" fill="#293036"/>
<path d="M34.7837 32.1836C34.5005 31.9133 34.3589 31.4821 34.3589 30.89V29.7379C34.3589 29.1522 34.5005 28.721 34.7837 28.4507C35.0669 28.1804 35.4466 28.0388 35.9229 28.0388C36.2189 28.0388 36.4828 28.0967 36.7145 28.2061C36.9462 28.3219 37.12 28.4764 37.2487 28.6824C37.371 28.8883 37.4354 29.1265 37.4354 29.3968V29.4161H36.9655V29.3968C36.9655 29.1136 36.869 28.8819 36.6823 28.7146C36.4957 28.5472 36.2447 28.4635 35.9229 28.4635C35.5625 28.4635 35.2921 28.5665 35.1055 28.766C34.9188 28.972 34.8287 29.3002 34.8287 29.7572V30.9157C34.8287 31.746 35.1956 32.1579 35.9293 32.1579C36.2511 32.1579 36.5021 32.0807 36.6888 31.9133C36.869 31.746 36.9655 31.5207 36.9655 31.2311V31.2053H37.4225V31.2311C37.4225 31.6494 37.2873 31.9777 37.017 32.2223C36.7467 32.4668 36.3798 32.5891 35.9229 32.5891C35.4466 32.5891 35.0669 32.454 34.7837 32.1836Z" fill="#293036"/>
<path d="M31.4881 28.0967V32.5376H31.0183L28.7206 28.9591V32.5376H28.2507V28.0967H28.7206L31.0183 31.6623V28.0967H31.4881Z" fill="#293036"/>
<path d="M24.8899 31.4692H23.0041L22.6308 32.5376H22.1353L23.7507 28.0967H24.1433L25.7588 32.5376H25.2632L24.8899 31.4692ZM24.7548 31.0702L23.9438 28.7532L23.1393 31.0702H24.7548Z" fill="#293036"/>
<path d="M17.2678 28.0967H17.7377V32.1128H19.9517V32.5376H17.2678V28.0967Z" fill="#293036"/>
<path d="M13.907 31.4692H12.0212L11.6479 32.5376H11.1523L12.7678 28.0967H13.1604L14.7759 32.5376H14.2803L13.907 31.4692ZM13.7719 31.0702L12.9609 28.7532L12.1564 31.0702H13.7719Z" fill="#293036"/>
<path d="M6.04736 28.0967H6.53651L7.68858 31.7782L8.83422 28.0967H9.32337L7.87523 32.5376H7.48906L6.04736 28.0967Z" fill="#293036"/>
<path d="M3.39555 31.4692H1.50975L1.13645 32.5376H0.640869L2.25635 28.0967H2.64895L4.26443 32.5376H3.76884L3.39555 31.4692ZM3.26039 31.0702L2.44943 28.7532L1.64491 31.0702H3.26039Z" fill="#293036"/>
<path d="M106.028 11.6593H103.382V18.7904C103.382 19.0273 103.19 19.2194 102.953 19.2194H100.274C100.037 19.2194 99.8447 19.0273 99.8447 18.7904V1.01819C99.8447 0.781216 100.037 0.589111 100.274 0.589111H106.919C108.728 0.589111 110.186 1.10212 111.266 2.10114C112.346 3.10016 112.886 4.45018 112.886 6.15121C112.886 7.39323 112.589 8.41925 112.022 9.25627C111.455 10.1203 110.645 10.7413 109.592 11.1193L113.331 18.5985C113.474 18.8838 113.267 19.2194 112.948 19.2194H109.838C109.671 19.2194 109.52 19.1231 109.449 18.9722L106.028 11.6593ZM103.382 8.71626H106.73C107.54 8.71626 108.188 8.50025 108.647 8.06825C109.106 7.63624 109.349 6.98823 109.349 6.15121C109.349 5.3952 109.106 4.80119 108.647 4.34218C108.161 3.91017 107.54 3.66717 106.73 3.66717H103.382V8.71626Z" fill="#293036"/>
<path d="M91.5151 18.92C91.5716 19.0983 91.7371 19.2194 91.9241 19.2194H94.7546C95.0512 19.2194 95.2584 18.9257 95.1587 18.6463L88.8226 0.874097C88.7616 0.703212 88.5998 0.589111 88.4184 0.589111H86.1349C85.9533 0.589111 85.7913 0.703463 85.7305 0.874617L79.4201 18.6468C79.321 18.9261 79.5281 19.2194 79.8245 19.2194H82.6281C82.8155 19.2194 82.9811 19.0979 83.0374 18.9193L87.2629 5.5032L91.5151 18.92Z" fill="#293036"/>
<path d="M74.507 16.1144C74.744 16.1144 74.9361 16.3065 74.9361 16.5435V18.7904C74.9361 19.0273 74.744 19.2194 74.507 19.2194H63.2689C63.0319 19.2194 62.8398 19.0273 62.8398 18.7904V16.2406C62.8398 16.1582 62.8636 16.0775 62.9082 16.0083L70.859 3.66717H63.4309C63.194 3.66717 63.0018 3.47506 63.0018 3.23809V1.01819C63.0018 0.781216 63.194 0.589111 63.4309 0.589111H74.264C74.501 0.589111 74.6931 0.781216 74.6931 1.01819V3.54127C74.6931 3.62347 74.6694 3.70394 74.625 3.7731L66.7009 16.1144H74.507Z" fill="#293036"/>
<path d="M56.9818 16.1144C57.2188 16.1144 57.4109 16.3065 57.4109 16.5435V18.7904C57.4109 19.0273 57.2188 19.2194 56.9818 19.2194H45.7438C45.5068 19.2194 45.3147 19.0273 45.3147 18.7904V16.2406C45.3147 16.1582 45.3384 16.0775 45.3831 16.0083L53.3338 3.66717H45.9058C45.6688 3.66717 45.4767 3.47506 45.4767 3.23809V1.01819C45.4767 0.781216 45.6688 0.589111 45.9058 0.589111H56.7388C56.9758 0.589111 57.1679 0.781216 57.1679 1.01819V3.54127C57.1679 3.62347 57.1443 3.70394 57.0999 3.7731L49.1758 16.1144H56.9818Z" fill="#293036"/>
<path d="M36.6624 1.01819C36.6624 0.781216 36.8545 0.589111 37.0914 0.589111H39.7703C40.0073 0.589111 40.1994 0.781216 40.1994 1.01819V18.7904C40.1994 19.0273 40.0073 19.2194 39.7703 19.2194H37.0914C36.8545 19.2194 36.6624 19.0273 36.6624 18.7904V1.01819Z" fill="#293036"/>
<path d="M19.4717 1.01819C19.4717 0.781216 19.6638 0.589111 19.9008 0.589111H22.5797C22.8166 0.589111 23.0087 0.781216 23.0087 1.01819V15.7123C23.0087 15.9493 23.2008 16.1414 23.4378 16.1414H30.7338C30.9708 16.1414 31.1629 16.3335 31.1629 16.5705V18.7904C31.1629 19.0273 30.9708 19.2194 30.7338 19.2194H19.9008C19.6638 19.2194 19.4717 19.0273 19.4717 18.7904V1.01819Z" fill="#293036"/>
<path fill-rule="evenodd" clip-rule="evenodd" d="M13.6756 13.8733C13.6756 12.8743 13.4326 12.0103 13.0006 11.2813C12.5686 10.5793 11.9206 10.0123 11.0836 9.63427C11.8126 9.28327 12.3796 8.77026 12.8116 8.06825C13.2166 7.36623 13.4326 6.61022 13.4326 5.7732C13.4326 4.12618 12.9196 2.85715 11.8936 1.93914C10.8676 1.04812 9.46357 0.589111 7.65454 0.589111H0.90149C0.664517 0.589111 0.472412 0.781216 0.472412 1.01819V3.24012C0.472412 3.47715 0.664599 3.66927 0.901624 3.6692L7.38454 3.66717C8.19455 3.66717 8.78856 3.88317 9.22057 4.26118C9.65258 4.66618 9.86858 5.23319 9.86858 5.98921C9.86858 6.69122 9.65258 7.25823 9.22057 7.63624C8.78856 8.01424 8.19455 8.20325 7.38454 8.20325H4.00948V6.20614C4.00948 5.96917 3.81737 5.77706 3.5804 5.77706H0.901489C0.664517 5.77706 0.472412 5.96917 0.472412 6.20614V18.7904C0.472412 19.0273 0.664516 19.2194 0.901489 19.2194H7.95155C9.73358 19.2194 11.1376 18.7604 12.1636 17.8154C13.1626 16.8974 13.6756 15.5744 13.6756 13.8733ZM10.1386 13.6303C10.1386 14.4404 9.92258 15.0614 9.49057 15.4934C9.05857 15.9254 8.43755 16.1414 7.60054 16.1414H4.00948V11.2813H7.60054C8.43755 11.2813 9.05857 11.4973 9.49057 11.9023C9.92258 12.3343 10.1386 12.9013 10.1386 13.6303Z" fill="#293036"/>
<path d="M125.304 0.589111H119.172C118.935 0.589111 118.743 0.781215 118.743 1.01819V3.23659C118.743 3.47352 118.935 3.66561 119.172 3.66567L125.277 3.66717C126.357 3.66717 127.14 4.04517 127.68 4.74719C128.193 5.4492 128.463 6.61022 128.463 8.17625V11.7673C128.463 13.2793 128.193 14.3864 127.653 15.0884C127.113 15.7904 126.33 16.1414 125.277 16.1414H122.28V6.19823C122.28 5.96126 122.088 5.76915 121.851 5.76915H119.172C118.935 5.76915 118.743 5.96126 118.743 6.19823V18.7904C118.743 19.0273 118.935 19.2194 119.172 19.2194H125.196C127.275 19.2194 128.922 18.6524 130.164 17.4914C131.379 16.3304 132 14.4404 132 11.7943V7.98724C132 5.3682 131.379 3.47816 130.191 2.31714C129.003 1.18312 127.356 0.589111 125.304 0.589111Z" fill="#293036"/>
</svg>
