<svg width="121" height="33" viewBox="0 0 121 33" fill="none" xmlns="http://www.w3.org/2000/svg">
<mask id="mask0_3003_8115" style="mask-type:alpha" maskUnits="userSpaceOnUse" x="0" y="0" width="121" height="33">
<path fill-rule="evenodd" clip-rule="evenodd" d="M30.2034 4.99466C30.4158 5.27439 30.4866 5.55412 30.4866 5.90375C30.4866 7.44221 30.4158 8.98067 30.2034 10.5191C30.2034 10.659 30.1326 10.8688 30.0617 11.0785L15.6071 7.02264L1.22342 11.0785C1.22342 10.8688 1.15256 10.7289 1.15256 10.5191C0.939996 8.98067 0.869141 7.44221 0.869141 5.90375C0.869141 5.55412 0.939996 5.27439 1.15256 4.99466C1.36513 4.71496 1.64855 4.57509 2.00283 4.43523C3.56165 4.01566 15.6071 0.589111 15.6779 0.589111C15.7488 0.589111 27.8651 4.01566 29.3531 4.43523C29.7073 4.50518 29.9908 4.64501 30.2034 4.99466ZM1.5777 13.0366C2.00283 15.0645 2.64053 17.0226 3.4908 18.9806L15.6779 15.554L27.8651 18.9806C28.7154 17.0226 29.3531 15.0645 29.7782 13.0366L15.6779 9.05059L1.5777 13.0366ZM4.41191 20.7988C4.48278 20.9386 4.48278 21.0085 4.55362 21.0785C5.47475 22.7568 6.53758 24.3652 7.81299 25.8337C8.09642 26.1833 8.09642 26.1833 8.09642 26.1833L15.7488 24.0854L23.4012 26.1833C23.4012 26.1833 23.4012 26.1833 23.6846 25.8337C24.8892 24.3652 26.0229 22.7568 26.944 21.0785C27.0148 21.0085 27.0148 20.8687 27.0857 20.7988L15.8197 17.582L4.41191 20.7988ZM106.231 15.624H98.5791V12.0576H105.31V9.95968H98.5791V6.53313H106.16V4.43523H96.2408V17.6519H106.231V15.624ZM111.333 17.7219H108.995V4.50518H114.946C117.993 4.50518 119.906 6.11356 119.906 8.70094C119.906 10.8688 118.56 12.1974 116.718 12.6869L120.332 17.6519H117.568L114.309 13.0366H111.404V17.7219H111.333ZM111.333 11.0785H114.734C116.435 11.0785 117.497 10.2394 117.497 8.84081C117.497 7.37229 116.435 6.60304 114.734 6.60304H111.333V11.0785ZM69.5991 17.7219H67.19L73.0711 4.43523H75.2676L81.1486 17.7219H78.6686L77.3223 14.5051H71.016L69.5991 17.7219ZM71.8665 12.4771H76.4721L74.1339 7.16248L71.8665 12.4771ZM9.51351 27.7917C9.58438 27.9316 9.65523 28.0015 9.72607 28.0714C9.93866 28.2812 10.0804 28.4211 10.2929 28.6309C11.71 29.9594 13.2689 31.1483 14.9694 32.1972C15.182 32.3371 15.4654 32.407 15.6779 32.407C15.8905 32.407 16.1739 32.3371 16.3865 32.1972C18.087 31.1483 19.6459 30.0294 21.063 28.6309C21.2756 28.4211 21.4172 28.2812 21.6298 28.0714C21.7007 28.0015 21.7715 27.9316 21.8424 27.7917C21.8424 27.7917 15.8197 26.1134 15.6779 26.1134C15.5362 26.0435 9.51351 27.7917 9.51351 27.7917ZM44.6578 17.7219H39.6979V4.50518H44.6578C48.8385 4.50518 51.7434 7.37229 51.7434 11.0785C51.7434 14.7848 48.8385 17.7219 44.6578 17.7219ZM41.9652 15.624H44.587C47.4213 15.624 49.1926 13.7359 49.1926 11.1485C49.1926 8.56108 47.3504 6.67299 44.587 6.67299H41.9652V15.624ZM92.8398 22.6869L96.8784 31.4281H95.8156L94.7528 29.1204H89.9346L88.8717 31.4281H87.8798L91.9184 22.6869H92.8398ZM94.3984 28.2812L92.4146 23.8057L90.4307 28.2812H94.3984ZM85.1163 31.4281H86.1083V22.7568H85.1163V31.4281ZM96.8784 23.6659H99.8542V31.498H100.846V23.6659H103.822V22.7568H96.8784V23.6659ZM43.3824 22.6869L47.4213 31.4281H46.3585L45.2957 29.1204H40.4775L39.4147 31.4281H38.4227L42.4613 22.6869H43.3824ZM44.8704 28.2812L42.8866 23.8057L40.9024 28.2812H44.8704ZM85.8251 17.7219H83.4868V4.50518H88.73C91.8476 4.50518 93.8317 6.2534 93.8317 8.91073C93.8317 11.9177 91.4226 13.4561 88.5174 13.4561H85.8959V17.7219H85.8251ZM85.8251 11.3583H88.5883C90.3598 11.3583 91.4935 10.3792 91.4935 8.98067C91.4935 7.44221 90.3598 6.60304 88.5883 6.60304H85.8251V11.3583ZM106.657 27.512H111.475V26.6029H106.657V23.596H112.042V22.6869H105.664V31.4281H112.112V30.519H106.657V27.512ZM117.285 26.6029C115.372 26.1833 114.876 25.7638 114.876 24.9246C114.876 24.1554 115.584 23.526 116.789 23.526C117.71 23.526 118.489 23.8057 119.34 24.505L119.906 23.7358C118.985 23.0365 118.064 22.6869 116.789 22.6869C115.088 22.6869 113.884 23.6659 113.884 25.0645C113.884 26.533 114.805 27.1623 116.86 27.5819C118.702 28.0015 119.127 28.4211 119.127 29.2603C119.127 30.1693 118.348 30.7289 117.143 30.7289C115.939 30.7289 115.017 30.3092 114.096 29.4701L113.459 30.1693C114.522 31.0783 115.655 31.5679 117.072 31.5679C118.844 31.5679 120.119 30.589 120.119 29.1204C120.119 27.7917 119.269 27.0225 117.285 26.6029ZM60.0336 26.6029C58.1206 26.1833 57.6245 25.7638 57.6245 24.9246C57.6245 24.1554 58.3329 23.526 59.5375 23.526C60.4588 23.526 61.2381 23.8057 62.0883 24.505L62.6553 23.7358C61.7339 23.0365 60.8129 22.6869 59.5375 22.6869C57.8371 22.6869 56.6325 23.6659 56.6325 25.0645C56.6325 26.533 57.5536 27.1623 59.6083 27.5819C61.4507 28.0015 61.8757 28.4211 61.8757 29.2603C61.8757 30.1693 61.0964 30.7289 59.8918 30.7289C58.6873 30.7289 57.7662 30.3092 56.8451 29.4701L56.2073 30.1693C57.2701 31.0783 58.4038 31.5679 59.8209 31.5679C61.5925 31.5679 62.8676 30.589 62.8676 29.1204C62.9385 27.7917 62.0174 27.0225 60.0336 26.6029ZM79.7314 30.7289C77.8184 30.7289 76.3304 29.1204 76.3304 27.0924C76.3304 25.0645 77.8184 23.526 79.7314 23.526C80.936 23.526 81.7862 24.0155 82.4946 24.7148L83.2033 24.0155C82.3531 23.1764 81.3609 22.6169 79.7314 22.6169C77.1097 22.6169 75.2676 24.6449 75.2676 27.1623C75.2676 29.6799 77.1806 31.6379 79.6605 31.6379C81.2903 31.6379 82.2823 31.0084 83.2033 30.0993L82.5655 29.4701C81.7862 30.2392 80.936 30.7289 79.7314 30.7289ZM52.0978 26.6029C50.1845 26.1833 49.6887 25.7638 49.6887 24.9246C49.6887 24.1554 50.3971 23.526 51.6017 23.526C52.5227 23.526 53.3023 23.8057 54.1525 24.505L54.7192 23.7358C53.7982 23.0365 52.8771 22.6869 51.6017 22.6869C49.9013 22.6869 48.6967 23.6659 48.6967 25.0645C48.6967 26.533 49.6178 27.1623 51.6725 27.5819C53.515 28.0015 53.9399 28.4211 53.9399 29.2603C53.9399 30.1693 53.1606 30.7289 51.956 30.7289C50.7515 30.7289 49.8304 30.3092 48.9091 29.4701L48.2715 30.1693C49.3343 31.0783 50.468 31.5679 51.8852 31.5679C53.6564 31.5679 54.9318 30.589 54.9318 29.1204C55.0027 27.7917 54.0817 27.0225 52.0978 26.6029ZM73.5669 27.0924C73.5669 29.5401 71.7248 31.6379 69.0322 31.6379C66.3395 31.6379 64.5683 29.5401 64.5683 27.1623C64.5683 24.7148 66.4104 22.6169 69.103 22.6169C71.7956 22.6169 73.5669 24.6449 73.5669 27.0924ZM72.575 27.0924C72.575 25.1344 71.0869 23.4561 69.103 23.4561C67.1192 23.4561 65.6311 25.0645 65.6311 27.0924C65.6311 29.1204 67.1192 30.7289 69.103 30.7289C71.0869 30.7289 72.575 29.1204 72.575 27.0924ZM65.9146 17.7219H63.1511L59.8918 13.1065H56.9869V17.7219H54.6486V4.50518H60.6003C63.6472 4.50518 65.5602 6.11356 65.5602 8.70094C65.5602 10.8688 64.2139 12.1974 62.3718 12.6869L65.9146 17.7219ZM60.3879 11.0785C62.0883 11.0785 63.1511 10.2394 63.1511 8.84081C63.1511 7.37229 62.0883 6.60304 60.3879 6.60304H56.9869V11.0086H60.3879V11.0785Z" fill="#081C3A"/>
</mask>
<g mask="url(#mask0_3003_8115)">
<rect x="0.869141" y="0.589111" width="119.365" height="31.7168" fill="#293036"/>
</g>
</svg>
