<svg width="183" height="29" viewBox="0 0 183 29" fill="none" xmlns="http://www.w3.org/2000/svg">
<mask id="mask0_3003_8085" style="mask-type:alpha" maskUnits="userSpaceOnUse" x="0" y="0" width="183" height="29">
<g clip-path="url(#clip0_3003_8085)">
<path d="M125.451 10.2585C125.451 10.0974 125.58 9.95239 125.757 9.95239H130.584C132.521 9.95239 134.103 11.5182 134.103 13.44C134.103 14.9253 133.119 16.1206 131.714 16.686L133.926 20.7874C134.038 20.9968 133.926 21.2561 133.652 21.2561H131.503C131.375 21.2561 131.278 21.1756 131.246 21.1111L129.099 16.8326H127.984V20.9501C127.984 21.1111 127.839 21.2561 127.678 21.2561H125.757C125.58 21.2561 125.451 21.1111 125.451 20.9501V10.2585ZM130.374 14.7787C131.036 14.7787 131.602 14.1649 131.602 13.4867C131.602 12.8085 131.036 12.2592 130.374 12.2592H127.986V14.7787H130.374Z" fill="black"/>
<path d="M135.2 20.8313L140.252 9.96571C140.301 9.86906 140.413 9.78851 140.526 9.78851H140.687C140.8 9.78851 140.913 9.86906 140.961 9.96571L146.013 20.8313C146.11 21.0407 145.981 21.2517 145.74 21.2517H143.949C143.659 21.2517 143.528 21.1551 143.383 20.8474L142.802 19.5715H138.413L137.832 20.8635C137.751 21.0568 137.574 21.2517 137.25 21.2517H135.474C135.232 21.2517 135.103 21.0423 135.2 20.8313ZM141.834 17.3775L140.607 14.7131H140.59L139.379 17.3775H141.834Z" fill="black"/>
<path d="M152.617 9.80396C153.973 9.80396 155.458 10.3694 156.557 11.3214C156.702 11.4342 156.718 11.6275 156.589 11.758L155.313 13.1144C155.185 13.2271 155.007 13.2271 154.877 13.1305C154.263 12.565 153.553 12.3556 152.762 12.3556C151.002 12.3556 149.581 13.8409 149.581 15.6177C149.581 17.3784 151.018 18.8315 152.778 18.8315C153.247 18.8315 153.73 18.767 154.215 18.5737V17.6378H153.199C153.022 17.6378 152.893 17.5089 152.893 17.3478V15.7498C152.893 15.5726 153.022 15.4437 153.199 15.4437H156.444C156.605 15.4437 156.734 15.5887 156.734 15.7498L156.75 20.0928C156.75 20.1734 156.686 20.3022 156.621 20.3506C156.621 20.3506 154.959 21.3993 152.617 21.3993C149.404 21.3993 146.822 18.8476 146.822 15.6193C146.822 12.3911 149.406 9.80396 152.617 9.80396Z" fill="black"/>
<path d="M164.32 9.78851C167.549 9.78851 170.131 12.3885 170.131 15.6168C170.131 18.845 167.548 21.4128 164.32 21.4128C161.091 21.4128 158.525 18.845 158.525 15.6168C158.525 12.3885 161.092 9.78851 164.32 9.78851ZM164.32 18.8305C166.096 18.8305 167.549 17.3775 167.549 15.6168C167.549 13.8416 166.096 12.3708 164.32 12.3708C162.561 12.3708 161.107 13.8399 161.107 15.6168C161.108 17.3775 162.561 18.8305 164.32 18.8305Z" fill="black"/>
<path d="M172.455 10.0785C172.455 9.91739 172.6 9.78851 172.761 9.78851H173.165L179.606 15.9889H179.622V10.2573C179.622 10.0962 179.751 9.95121 179.928 9.95121H181.865C182.026 9.95121 182.171 10.0962 182.171 10.2573V21.1229C182.171 21.2839 182.026 21.4128 181.865 21.4128H181.608C181.559 21.4128 181.431 21.3645 181.398 21.3323L175.022 14.9225H175.006V20.944C175.006 21.1051 174.877 21.2501 174.7 21.2501H172.778C172.617 21.2501 172.472 21.1051 172.472 20.944L172.455 10.0785Z" fill="black"/>
<path d="M111.07 7.55119C111.07 7.35144 111.229 7.17102 111.429 7.17102H116.166C120.023 7.17102 123.182 10.3091 123.182 14.1479C123.182 18.0253 120.023 21.165 116.166 21.165H111.429C111.229 21.165 111.07 20.9845 111.07 20.7848V7.55119ZM115.926 18.7261C118.524 18.7261 120.423 16.7672 120.423 14.1479C120.423 11.5495 118.524 9.5906 115.926 9.5906H113.647V18.7261H115.926Z" fill="black"/>
<path d="M52.2593 10.2585C52.2593 10.0974 52.3881 9.95239 52.5653 9.95239H57.3923C59.3299 9.95239 60.9115 11.5182 60.9115 13.44C60.9115 14.9253 59.9274 16.1206 58.523 16.686L60.7343 20.7874C60.8471 20.9968 60.7343 21.2561 60.4605 21.2561H58.3136C58.1847 21.2561 58.0881 21.1756 58.0559 21.1111L55.9089 16.8326H54.7944V20.9501C54.7944 21.1111 54.6494 21.2561 54.4884 21.2561H52.5669C52.3897 21.2561 52.2609 21.1111 52.2609 20.9501V10.2585H52.2593ZM57.1829 14.7787C57.8449 14.7787 58.4102 14.1649 58.4102 13.4867C58.4102 12.8085 57.8449 12.2592 57.1829 12.2592H54.7944V14.7787H57.1829Z" fill="black"/>
<path d="M62.0079 20.8313L67.0604 9.96571C67.1087 9.86906 67.2215 9.78851 67.3342 9.78851H67.4953C67.608 9.78851 67.7208 9.86906 67.7691 9.96571L72.8216 20.8313C72.9182 21.0407 72.7894 21.2517 72.5478 21.2517H70.7552C70.4652 21.2517 70.3348 21.1551 70.1898 20.8474L69.6084 19.5715H65.2179L64.6364 20.8635C64.5559 21.0568 64.3787 21.2517 64.055 21.2517H62.2785C62.0401 21.2517 61.9113 21.0423 62.0079 20.8313ZM68.642 17.3775L67.4147 14.7131H67.3986L66.1874 17.3775H68.642Z" fill="black"/>
<path d="M74.5342 10.2585C74.5342 10.0974 74.663 9.95239 74.8402 9.95239H78.7314C80.7173 9.95239 82.3473 11.5665 82.3473 13.5206C82.3473 15.5229 80.7173 17.1531 78.7476 17.1531H77.0532V20.9468C77.0532 21.1079 76.9082 21.2529 76.7472 21.2529H74.8418C74.6646 21.2529 74.5358 21.1079 74.5358 20.9468V10.2585H74.5342ZM78.5865 14.7948C79.2807 14.7948 79.8621 14.2455 79.8621 13.5189C79.8621 12.8407 79.2807 12.3236 78.5865 12.3236H77.0532V14.7932H78.5865V14.7948Z" fill="black"/>
<path d="M84.3818 10.2585C84.3818 10.0974 84.5107 9.95239 84.6878 9.95239H91.3703C91.5475 9.95239 91.6763 10.0974 91.6763 10.2585V12.0176C91.6763 12.1787 91.5475 12.3236 91.3703 12.3236H86.8992V14.326H90.5795C90.7405 14.326 90.8855 14.471 90.8855 14.6321V16.3928C90.8855 16.57 90.7405 16.6989 90.5795 16.6989H86.8992V18.8784H91.3703C91.5475 18.8784 91.6763 19.0234 91.6763 19.1845V20.9436C91.6763 21.1047 91.5475 21.2497 91.3703 21.2497H84.6878C84.5107 21.2497 84.3818 21.1047 84.3818 20.9436V10.2585Z" fill="black"/>
<path d="M94.2285 10.2585C94.2285 10.0974 94.3574 9.95239 94.5345 9.95239H99.3616C101.299 9.95239 102.881 11.5182 102.881 13.44C102.881 14.9253 101.897 16.1206 100.492 16.686L102.704 20.7874C102.816 20.9968 102.704 21.2561 102.43 21.2561H100.283C100.154 21.2561 100.057 21.1756 100.025 21.1111L97.8782 16.8326H96.7636V20.9501C96.7636 21.1111 96.6187 21.2561 96.4576 21.2561H94.5361C94.359 21.2561 94.2301 21.1111 94.2301 20.9501V10.2585H94.2285ZM99.1506 14.7787C99.8125 14.7787 100.378 14.1649 100.378 13.4867C100.378 12.8085 99.8125 12.2592 99.1506 12.2592H96.762V14.7787H99.1506Z" fill="black"/>
<path d="M37.8784 7.55126C37.8784 7.3515 38.0379 7.17108 38.2376 7.17108H42.9744C46.8318 7.17108 49.9903 10.3091 49.9903 14.1479C49.9903 18.0254 46.8318 21.165 42.9744 21.165H38.2376C38.0379 21.165 37.8784 20.9846 37.8784 20.7849V7.55126ZM42.736 18.7261C45.334 18.7261 47.2329 16.7673 47.2329 14.1479C47.2329 11.5495 45.334 9.59066 42.736 9.59066H40.457V18.7261H42.736Z" fill="black"/>
<path d="M11.9285 22.6763C10.9686 22.1962 10.2744 20.9349 10.2309 18.6152C10.218 17.887 10.3485 17.059 10.3646 16.3309C10.3952 14.9036 10.2309 13.2347 9.83792 12.5582C9.52707 12.0233 8.9859 11.7092 8.51077 11.9863C7.88102 12.3536 7.86813 12.6484 7.56695 12.8272C7.12242 13.0914 6.54098 13.0817 6.03203 13.13C5.4216 13.1864 4.79346 13.1767 4.1927 13.0398C3.46793 12.8739 3.3584 12.2843 3.4341 11.6287C3.46148 11.3886 3.51624 11.184 3.52591 10.9811C3.5404 10.7201 3.57423 10.4479 3.47759 10.1273C3.40028 9.87438 3.05239 9.49098 3.16191 9.39755C3.24405 9.32828 3.59194 9.61019 3.59194 9.61019C3.59194 9.61019 4.39725 10.4205 5.20256 9.74551C6.04169 9.04154 6.3461 8.48256 7.38012 8.17326C8.52849 7.83014 9.81054 8.12332 9.81054 8.12332C9.81054 8.12332 9.18401 8.2973 9.18401 8.60176C9.18401 8.89656 9.5625 8.96422 10.0215 9.26868C10.8703 9.83088 11.6176 10.8715 11.9478 11.4643C12.2087 11.9331 12.3779 12.4438 12.5067 12.9593C12.6758 13.631 12.7998 14.2802 12.8385 14.9632V0.589111L0.198374 4.12666C0.198374 4.12666 -0.109254 9.92754 1.47559 14.7619C3.36485 20.5209 7.37528 25.1909 12.4729 28.3998C12.5953 28.4771 12.7177 28.5528 12.8401 28.6286V22.9098V22.7552C12.4745 22.847 12.1926 22.8083 11.9285 22.6763Z" fill="#FF003E"/>
<path d="M12.8527 15.2757C12.8624 15.8589 12.864 17.4843 12.8704 17.9321C12.8737 18.1383 12.8543 18.736 12.9945 18.8987C13.1249 19.0517 13.6178 18.1432 13.7128 17.974C14.0285 17.4086 14.4553 16.6837 15.6278 13.6197C16.8905 10.3206 18.0228 8.14426 19.1438 6.3916C19.9942 5.0626 21.5742 3.51935 21.9688 3.14401L12.8398 0.589111V14.9632C12.8463 15.0663 12.8511 15.1694 12.8527 15.2757Z" fill="#E00022"/>
<path d="M25.484 4.12817C24.3663 4.85953 22.5656 6.27068 21.6153 7.79782C20.9517 8.86424 20.7778 9.6117 20.7343 10.1594C20.6908 10.7071 20.7182 10.8424 20.169 11.2597C19.6182 11.6769 18.874 12.8593 18.1122 14.6232C17.5195 15.9941 17.2747 16.5499 16.8286 18.3138C16.5129 19.559 16.4259 19.9682 15.6963 20.7737C14.8266 21.7354 14.0857 22.2106 13.443 22.5263C13.2192 22.6375 13.0211 22.7116 12.8439 22.7567V22.9113H12.8423V23.0789V23.1224V23.3189V28.6301C12.9647 28.5544 13.0887 28.4786 13.2095 28.4013C18.3071 25.1924 22.3175 20.5224 24.2068 14.7634C25.7916 9.92905 25.484 4.12817 25.484 4.12817Z" fill="#E00022"/>
<path d="M11.9285 22.6763C10.9686 22.1962 10.2744 20.9349 10.2309 18.6152C10.218 17.887 10.3485 17.059 10.3646 16.3309C10.3952 14.9036 10.2309 13.2347 9.83792 12.5582C9.52707 12.0233 8.9859 11.7092 8.51077 11.9863C7.88102 12.3536 7.86813 12.6484 7.56695 12.8272C7.12242 13.0914 6.54098 13.0817 6.03203 13.13C5.4216 13.1864 4.79346 13.1767 4.1927 13.0398C3.46793 12.8739 3.3584 12.2843 3.4341 11.6287C3.46148 11.3886 3.51624 11.184 3.52591 10.9811C3.5404 10.7201 3.57423 10.4479 3.47759 10.1273C3.40028 9.87438 3.05239 9.49098 3.16191 9.39755C3.24405 9.32828 3.59194 9.61019 3.59194 9.61019C3.59194 9.61019 4.39725 10.4205 5.20256 9.74551C6.04169 9.04154 6.3461 8.48256 7.38012 8.17326C8.52849 7.83014 9.81054 8.12332 9.81054 8.12332C9.81054 8.12332 9.18401 8.2973 9.18401 8.60176C9.18401 8.89656 9.5625 8.96422 10.0215 9.26868C10.8703 9.83088 11.6176 10.8715 11.9478 11.4643C12.2087 11.9331 12.3779 12.4438 12.5067 12.9593C12.6758 13.631 12.7998 14.2802 12.8385 14.9632V0.589111L0.198374 4.12666C0.198374 4.12666 -0.109254 9.92754 1.47559 14.7619C3.36485 20.5209 7.37528 25.1909 12.4729 28.3998C12.5953 28.4771 12.7177 28.5528 12.8401 28.6286V22.9098V22.7552C12.4745 22.847 12.1926 22.8083 11.9285 22.6763Z" fill="#FF003E"/>
<path d="M12.8527 15.2757C12.8624 15.8589 12.864 17.4843 12.8704 17.9321C12.8737 18.1383 12.8543 18.736 12.9945 18.8987C13.1249 19.0517 13.6178 18.1432 13.7128 17.974C14.0285 17.4086 14.4553 16.6837 15.6278 13.6197C16.8905 10.3206 18.0228 8.14426 19.1438 6.3916C19.9942 5.0626 21.5742 3.51935 21.9688 3.14401L12.8398 0.589111V14.9632C12.8463 15.0663 12.8511 15.1694 12.8527 15.2757Z" fill="#E00022"/>
<path d="M25.484 4.12817C24.3663 4.85953 22.5656 6.27068 21.6153 7.79782C20.9517 8.86424 20.7778 9.6117 20.7343 10.1594C20.6908 10.7071 20.7182 10.8424 20.169 11.2597C19.6182 11.6769 18.874 12.8593 18.1122 14.6232C17.5195 15.9941 17.2747 16.5499 16.8286 18.3138C16.5129 19.559 16.4259 19.9682 15.6963 20.7737C14.8266 21.7354 14.0857 22.2106 13.443 22.5263C13.2192 22.6375 13.0211 22.7116 12.8439 22.7567V22.9113H12.8423V23.0789V23.1224V23.3189V28.6301C12.9647 28.5544 13.0887 28.4786 13.2095 28.4013C18.3071 25.1924 22.3175 20.5224 24.2068 14.7634C25.7916 9.92905 25.484 4.12817 25.484 4.12817Z" fill="#E00022"/>
</g>
</mask>
<g mask="url(#mask0_3003_8085)">
<rect x="0.173828" y="0.589111" width="182.608" height="28" fill="#293036"/>
</g>
<defs>
<clipPath id="clip0_3003_8085">
<rect width="182" height="28.0378" fill="white" transform="translate(0.173828 0.589111)"/>
</clipPath>
</defs>
</svg>
