<svg width="24" height="25" viewBox="0 0 24 25" fill="none" xmlns="http://www.w3.org/2000/svg">
<path d="M12 2.36635C15.204 2.36635 15.584 2.37835 16.849 2.43635C18.157 2.49635 19.504 2.79435 20.457 3.74735C21.419 4.70935 21.708 6.04335 21.768 7.35535C21.826 8.62035 21.838 9.00035 21.838 12.2043C21.838 15.4083 21.826 15.7883 21.768 17.0533C21.709 18.3543 21.404 19.7143 20.457 20.6613C19.495 21.6233 18.162 21.9123 16.849 21.9723C15.584 22.0303 15.204 22.0423 12 22.0423C8.796 22.0423 8.416 22.0303 7.151 21.9723C5.86 21.9133 4.482 21.6013 3.543 20.6613C2.586 19.7043 2.292 18.3573 2.232 17.0533C2.174 15.7883 2.162 15.4083 2.162 12.2043C2.162 9.00035 2.174 8.62035 2.232 7.35535C2.291 6.05935 2.599 4.69135 3.543 3.74735C4.503 2.78735 5.842 2.49635 7.151 2.43635C8.416 2.37835 8.796 2.36635 12 2.36635ZM12 0.204346C8.741 0.204346 8.332 0.218346 7.052 0.276346C5.197 0.361346 3.355 0.877346 2.014 2.21835C0.668 3.56435 0.157 5.40235 0.072 7.25635C0.014 8.53635 0 8.94535 0 12.2043C0 15.4633 0.014 15.8723 0.072 17.1523C0.157 19.0053 0.675 20.8523 2.014 22.1903C3.359 23.5353 5.2 24.0473 7.052 24.1323C8.332 24.1903 8.741 24.2043 12 24.2043C15.259 24.2043 15.668 24.1903 16.948 24.1323C18.802 24.0473 20.646 23.5303 21.986 22.1903C23.333 20.8433 23.843 19.0063 23.928 17.1523C23.986 15.8723 24 15.4633 24 12.2043C24 8.94535 23.986 8.53635 23.928 7.25635C23.843 5.40135 23.326 3.55835 21.986 2.21835C20.643 0.875346 18.797 0.360346 16.948 0.276346C15.668 0.218346 15.259 0.204346 12 0.204346Z" fill="#4360AB"/>
<path d="M12.0018 6.04248C8.59884 6.04248 5.83984 8.80148 5.83984 12.2045C5.83984 15.6075 8.59884 18.3665 12.0018 18.3665C15.4048 18.3665 18.1638 15.6075 18.1638 12.2045C18.1638 8.80148 15.4048 6.04248 12.0018 6.04248ZM12.0018 16.2045C9.79284 16.2045 8.00184 14.4135 8.00184 12.2045C8.00184 9.99548 9.79284 8.20448 12.0018 8.20448C14.2108 8.20448 16.0018 9.99548 16.0018 12.2045C16.0018 14.4135 14.2108 16.2045 12.0018 16.2045Z" fill="#4360AB"/>
<path d="M18.4048 7.2384C19.2001 7.2384 19.8448 6.59369 19.8448 5.7984C19.8448 5.00311 19.2001 4.3584 18.4048 4.3584C17.6096 4.3584 16.9648 5.00311 16.9648 5.7984C16.9648 6.59369 17.6096 7.2384 18.4048 7.2384Z" fill="#4360AB"/>
</svg>
