<svg width="24" height="25" viewBox="0 0 24 25" fill="none" xmlns="http://www.w3.org/2000/svg">
<path d="M20.4495 20.6545H16.8932V15.0853C16.8932 13.7572 16.8696 12.0482 15.0435 12.0482C13.1915 12.0482 12.9076 13.4946 12.9076 14.9895V20.6545H9.35254V9.20155H12.7669V10.7662H12.8142C13.5108 9.57646 14.8046 8.86567 16.1824 8.91653C19.7872 8.91653 20.4507 11.2878 20.4507 14.371L20.4495 20.6545ZM5.33975 7.6357C4.19965 7.6357 3.27599 6.71204 3.27599 5.57194C3.27599 4.43185 4.19965 3.50819 5.33975 3.50819C6.47984 3.50819 7.4035 4.43185 7.4035 5.57194C7.4035 6.71204 6.47984 7.6357 5.33975 7.6357ZM7.1173 20.6545H3.55747V9.20155H7.1173V20.6545ZM22.2223 0.206178H1.77045C0.804214 0.195534 0.0118267 0.970182 0 1.93642V22.4723C0.0118267 23.4397 0.804214 24.2143 1.77045 24.2037H22.2223C23.1909 24.2155 23.9869 23.4409 23.9999 22.4723V1.93524C23.9857 0.966634 23.1898 0.191986 22.2223 0.204995" fill="#4360AB"/>
</svg>
