<svg width="32" height="33" viewBox="0 0 32 33" fill="none" xmlns="http://www.w3.org/2000/svg">
<path d="M27.2672 27.7674H22.5252V20.3415C22.5252 18.5706 22.4937 16.2919 20.0589 16.2919C17.5894 16.2919 17.2109 18.2205 17.2109 20.2138V27.7674H12.4706V12.4961H17.0232V14.5824H17.0863C18.0152 12.996 19.7403 12.0483 21.5775 12.1161C26.3841 12.1161 27.2687 15.2779 27.2687 19.389L27.2672 27.7674ZM7.11996 10.4082C5.59977 10.4082 4.36817 9.17663 4.36817 7.65645C4.36817 6.13626 5.59977 4.90466 7.11996 4.90466C8.64015 4.90466 9.87175 6.13626 9.87175 7.65645C9.87175 9.17663 8.64015 10.4082 7.11996 10.4082ZM9.49013 27.7674H4.74349V12.4961H9.49013V27.7674ZM29.631 0.501792H2.3607C1.07233 0.4876 0.0157696 1.52051 0 2.80888V30.1912C0.0157696 31.4811 1.07233 32.514 2.3607 32.4998H29.631C30.9225 32.5156 31.9838 31.4827 32.0012 30.1912V2.8073C31.9823 1.51578 30.921 0.482869 29.631 0.500215" fill="white"/>
</svg>
