<svg width="62" height="42" viewBox="0 0 62 42" fill="none" xmlns="http://www.w3.org/2000/svg">
<g opacity="0.3">
<path d="M30.2429 30.4172L29.7253 30.9979L4.78271 4.26413C4.34056 3.79224 4.22497 3.10522 4.46721 2.50766C4.81644 1.65028 5.19649 0.815595 5.61735 0L30.2429 30.4172Z" fill="white"/>
<path d="M31.7566 30.4172L56.3822 0C56.803 0.815595 57.1831 1.65028 57.5323 2.50766C57.7745 3.10522 57.659 3.79224 57.2168 4.26413L32.2742 30.9979L31.7566 30.4172Z" fill="white"/>
<path d="M29.3414 31.4286L2.73618 5.43027C2.41311 6.28906 2.13281 7.16208 1.88575 8.05408C1.71472 8.67564 1.90951 9.34464 2.40361 9.76217L28.735 32.1089L29.3414 31.4286Z" fill="white"/>
<path d="M28.252 32.6509L1.16835 11.597C0.978307 12.731 0.850031 13.8839 0.783517 15.0559C0.75026 15.6537 1.03057 16.2231 1.53417 16.5457L27.6082 33.3731L28.252 32.6509Z" fill="white"/>
<path d="M27.159 33.8771L0.759766 18.6303C0.83103 20.0727 0.997315 21.4819 1.25862 22.8673C1.35839 23.394 1.71946 23.8352 2.20881 24.0535L26.4177 34.7089L27.159 33.8771Z" fill="white"/>
<path d="M25.9137 35.2743L2.1233 26.5794C2.49388 27.7845 2.94047 28.9612 3.44882 30.1047C3.65311 30.5602 4.0617 30.8923 4.55105 31.0156L25.1618 36.1179L25.9137 35.2743Z" fill="white"/>
<path d="M24.6627 36.6779L5.02139 33.1555C5.73404 34.3797 6.52745 35.5516 7.39213 36.6666C7.69144 37.0509 8.14754 37.2739 8.63214 37.2881L24.1119 37.7893C24.1164 37.4662 24.2372 37.1553 24.4524 36.9138L24.6627 36.6779Z" fill="white"/>
<path d="M24.1118 38.4831C19.0893 38.6621 9.50051 39.116 9.50051 39.116C10.144 39.789 10.8151 40.4315 11.516 41.0412C12.4614 41.8668 13.7489 42.1941 14.9652 41.8857L24.1118 39.6021V38.4831Z" fill="white"/>
<path d="M37.8878 39.6021L47.0343 41.8857C48.2506 42.1941 49.5381 41.8668 50.4835 41.0412C51.1845 40.4315 51.8555 39.789 52.499 39.116C52.499 39.116 42.9103 38.6621 37.8878 38.4831V39.6021Z" fill="white"/>
<path d="M37.8876 37.7893L53.3674 37.2881C53.852 37.2739 54.3081 37.0509 54.6074 36.6666C55.4721 35.5516 56.2655 34.3797 56.9781 33.1555L37.3368 36.6779L37.5471 36.9138C37.7623 37.1553 37.8831 37.4662 37.8876 37.7893Z" fill="white"/>
<path d="M36.8377 36.1179L57.4485 31.0156C57.9378 30.8923 58.3464 30.5602 58.5507 30.1047C59.059 28.9612 59.5056 27.7845 59.8762 26.5794L36.0859 35.2743L36.8377 36.1179Z" fill="white"/>
<path d="M35.5818 34.7089L59.7907 24.0535C60.28 23.8352 60.6411 23.394 60.7409 22.8673C61.0022 21.4819 61.1685 20.0727 61.2397 18.6303L34.8405 33.8771L35.5818 34.7089Z" fill="white"/>
<path d="M34.3913 33.3731L60.4653 16.5457C60.9689 16.2231 61.2493 15.6537 61.216 15.0559C61.1495 13.8839 61.0212 12.731 60.8312 11.597L33.7475 32.6509L34.3913 33.3731Z" fill="white"/>
<path d="M33.2645 32.1089L59.5959 9.76217C60.09 9.34464 60.2848 8.67564 60.1138 8.05408C59.8667 7.16208 59.5864 6.28906 59.2633 5.43027L32.6581 31.4286L33.2645 32.1089Z" fill="white"/>
</g>
</svg>
