<svg width="519" height="471" viewBox="0 0 519 471" fill="none" xmlns="http://www.w3.org/2000/svg">
<rect width="519" height="471" fill="#F0EEEB"/>
<g clip-path="url(#clip0_2999_6201)">
<path fill-rule="evenodd" clip-rule="evenodd" d="M519 0H1L30.4862 112H489.514L519 0ZM487.408 120H32.5924L62.0786 232H457.921L487.408 120ZM93.6709 352L64.1847 240H455.815L426.329 352H93.6709ZM95.7771 360L125 471H395L424.223 360H95.7771Z" fill="#003726"/>
</g>
<g clip-path="url(#clip1_2999_6201)">
<path fill-rule="evenodd" clip-rule="evenodd" d="M519 0H1L30.4862 112H489.514L519 0ZM487.408 120H32.5924L62.0786 232H457.921L487.408 120ZM93.6709 352L64.1847 240H455.815L426.329 352H93.6709ZM95.7771 360L125 471H395L424.223 360H95.7771Z" fill="#16AF7F"/>
</g>
<g clip-path="url(#clip2_2999_6201)">
<path fill-rule="evenodd" clip-rule="evenodd" d="M519 0H1L30.4862 112H489.514L519 0ZM487.408 120H32.5924L62.0786 232H457.921L487.408 120ZM93.6709 352L64.1847 240H455.815L426.329 352H93.6709ZM95.7771 360L125 471H395L424.223 360H95.7771Z" fill="#046149"/>
</g>
<g clip-path="url(#clip3_2999_6201)">
<path fill-rule="evenodd" clip-rule="evenodd" d="M519 0H1L30.4862 112H489.514L519 0ZM487.408 120H32.5924L62.0786 232H457.921L487.408 120ZM93.6709 352L64.1847 240H455.815L426.329 352H93.6709ZM95.7771 360L125 471H395L424.223 360H95.7771Z" fill="#004634"/>
</g>
<path d="M227.12 53.688C227.12 50.328 228.272 48.952 233.872 44.952C238.512 41.624 240.56 40.504 240.56 38.072C240.56 36.344 239.6 35.352 237.648 35.352C234.928 35.352 233.712 37.496 233.68 40.312H227.056C227.216 34.168 231.344 30.296 238.32 30.296C244.176 30.296 247.696 33.016 247.696 37.688C247.696 41.08 245.808 43.128 241.072 46.04C239.12 47.256 237.296 48.408 235.696 49.496H247.568V55H227.12V53.688ZM261.35 55.608C254.118 55.608 250.342 51.16 250.342 42.968C250.342 34.744 254.118 30.296 261.35 30.296C268.614 30.296 272.358 34.776 272.358 42.968C272.358 51.16 268.614 55.608 261.35 55.608ZM257.67 42.968C257.67 48.568 258.726 50.52 261.35 50.52C263.974 50.52 265.062 48.568 265.062 42.968C265.062 37.368 263.974 35.384 261.35 35.384C258.726 35.384 257.67 37.368 257.67 42.968ZM280.282 54.744V49.144H275.002V44.408H280.282V38.776H285.274V44.408H290.522V49.144H285.274V54.744H280.282Z" fill="white"/>
<path d="M61.044 86V85.928C61.746 85.496 61.836 84.866 61.836 83.588V74.786C61.836 73.436 61.746 72.878 61.044 72.428V72.374H65.922C69 72.374 71.052 73.328 71.052 75.722C71.052 77.882 69.396 78.998 67.074 79.232L72.06 85.874V86H69.72L65.292 79.394H63.852V83.588C63.852 84.866 63.942 85.496 64.662 85.928V86H61.044ZM63.852 78.512H65.31C67.56 78.512 69.054 77.738 69.054 75.758C69.054 73.922 67.686 73.256 65.58 73.256H63.852V78.512ZM76.7847 86.306C74.1927 86.306 72.3207 84.578 72.3207 81.626C72.3207 78.728 74.3007 76.892 76.8387 76.892C79.4127 76.892 81.0867 78.584 81.1227 81.032H74.1027V81.338C74.1027 83.498 75.0927 85.154 77.1627 85.154C78.8727 85.154 79.8087 84.038 80.1687 82.616H81.1587C80.7447 84.668 79.3227 86.306 76.7847 86.306ZM74.2107 80.222H79.3407C79.1787 78.8 78.3327 77.72 76.8387 77.72C75.4347 77.72 74.4987 78.692 74.2107 80.222ZM85.0725 86.234C83.5425 86.234 82.4445 85.46 82.4445 83.912C82.4445 82.274 83.7225 81.68 85.9545 81.032C87.6465 80.546 88.4925 80.312 88.5105 79.16C88.5105 78.206 87.8985 77.702 86.8005 77.702C85.5945 77.702 84.4965 78.386 84.4785 80.078H82.7685C82.9125 77.99 84.8205 76.874 86.9625 76.874C88.8165 76.874 90.2925 77.666 90.2925 79.844V83.75C90.2925 84.758 90.5985 85.154 91.1385 85.154C91.3905 85.154 91.5885 85.082 91.7865 84.92V85.586C91.4265 85.928 90.9585 86.144 90.3285 86.144C89.3385 86.144 88.5285 85.496 88.5285 83.912V83.642C88.0605 85.064 86.9085 86.234 85.0725 86.234ZM84.2265 83.678C84.2265 84.668 84.8745 85.082 85.6485 85.082C87.3405 85.082 88.5105 83.57 88.5105 81.41V80.564C88.2585 81.14 87.5205 81.392 86.4225 81.752C84.9825 82.22 84.2265 82.616 84.2265 83.678ZM92.5008 86V85.928C93.1668 85.496 93.2568 84.866 93.2568 83.588V74.354C93.2568 73.274 93.1308 72.698 92.5908 72.284V72.212L95.2008 71.906L95.2188 71.978C95.1288 72.518 95.0928 72.932 95.0928 74.354V83.588C95.0928 84.866 95.1828 85.496 95.8308 85.928V86H92.5008ZM102.388 86V85.928C103.09 85.496 103.18 84.866 103.18 83.588V74.786C103.18 73.436 103.09 72.878 102.388 72.428V72.374H111.19V73.994C109.246 73.508 108.022 73.256 106.942 73.256H105.196V78.44H106.276C107.302 78.44 108.796 78.386 110.272 78.332V79.412C108.796 79.34 107.302 79.304 106.276 79.304H105.196V85.1H107.266C108.508 85.082 109.876 84.776 111.532 84.272V86H102.388ZM116.766 86.306C114.408 86.306 112.806 85.046 112.554 83.048H114.246C114.39 84.524 115.254 85.46 116.784 85.46C117.864 85.46 118.62 84.992 118.62 84.146C118.62 83.21 117.648 82.85 116.028 82.184C114.354 81.518 112.986 80.924 112.986 79.34C112.986 77.756 114.372 76.874 116.352 76.874C118.494 76.874 119.88 77.936 120.186 79.664H118.512C118.35 78.494 117.63 77.702 116.316 77.702C115.272 77.702 114.606 78.152 114.606 78.908C114.606 79.79 115.434 80.204 117.108 80.834C118.998 81.554 120.294 82.22 120.294 83.75C120.294 85.442 118.728 86.306 116.766 86.306ZM125.303 86.162C123.863 86.162 122.729 85.46 122.729 83.156V78.044H120.875V77.198H122.729V74.768L124.493 73.454H124.565V77.198H127.463V78.044H124.565V83.12C124.565 84.614 125.141 85.01 125.969 85.01C126.761 85.01 127.409 84.56 127.841 83.714L128.039 84.38C127.535 85.496 126.527 86.162 125.303 86.162ZM131.356 86.234C129.826 86.234 128.728 85.46 128.728 83.912C128.728 82.274 130.006 81.68 132.238 81.032C133.93 80.546 134.776 80.312 134.794 79.16C134.794 78.206 134.182 77.702 133.084 77.702C131.878 77.702 130.78 78.386 130.762 80.078H129.052C129.196 77.99 131.104 76.874 133.246 76.874C135.1 76.874 136.576 77.666 136.576 79.844V83.75C136.576 84.758 136.882 85.154 137.422 85.154C137.674 85.154 137.872 85.082 138.07 84.92V85.586C137.71 85.928 137.242 86.144 136.612 86.144C135.622 86.144 134.812 85.496 134.812 83.912V83.642C134.344 85.064 133.192 86.234 131.356 86.234ZM130.51 83.678C130.51 84.668 131.158 85.082 131.932 85.082C133.624 85.082 134.794 83.57 134.794 81.41V80.564C134.542 81.14 133.804 81.392 132.706 81.752C131.266 82.22 130.51 82.616 130.51 83.678ZM142.125 86.162C140.685 86.162 139.551 85.46 139.551 83.156V78.044H137.697V77.198H139.551V74.768L141.315 73.454H141.387V77.198H144.285V78.044H141.387V83.12C141.387 84.614 141.963 85.01 142.791 85.01C143.583 85.01 144.231 84.56 144.663 83.714L144.861 84.38C144.357 85.496 143.349 86.162 142.125 86.162ZM149.962 86.306C147.37 86.306 145.498 84.578 145.498 81.626C145.498 78.728 147.478 76.892 150.016 76.892C152.59 76.892 154.264 78.584 154.3 81.032H147.28V81.338C147.28 83.498 148.27 85.154 150.34 85.154C152.05 85.154 152.986 84.038 153.346 82.616H154.336C153.922 84.668 152.5 86.306 149.962 86.306ZM147.388 80.222H152.518C152.356 78.8 151.51 77.72 150.016 77.72C148.612 77.72 147.676 78.692 147.388 80.222ZM167.711 86.162L162.797 74.39V83.588C162.797 84.866 162.887 85.496 163.643 85.928V86H160.835V85.928C161.555 85.496 161.663 84.866 161.663 83.588V74.786C161.663 73.436 161.555 72.878 160.871 72.428V72.374H163.913L168.413 83.318L172.823 72.374H175.865V72.428C175.181 72.878 175.091 73.436 175.091 74.786V83.588C175.091 84.866 175.181 85.496 175.883 85.928V86H172.319V85.928C173.039 85.496 173.147 84.866 173.147 83.588V74.174L168.269 86.162H167.711ZM180.047 86.234C178.517 86.234 177.419 85.46 177.419 83.912C177.419 82.274 178.697 81.68 180.929 81.032C182.621 80.546 183.467 80.312 183.485 79.16C183.485 78.206 182.873 77.702 181.775 77.702C180.569 77.702 179.471 78.386 179.453 80.078H177.743C177.887 77.99 179.795 76.874 181.937 76.874C183.791 76.874 185.267 77.666 185.267 79.844V83.75C185.267 84.758 185.573 85.154 186.113 85.154C186.365 85.154 186.563 85.082 186.761 84.92V85.586C186.401 85.928 185.933 86.144 185.303 86.144C184.313 86.144 183.503 85.496 183.503 83.912V83.642C183.035 85.064 181.883 86.234 180.047 86.234ZM179.201 83.678C179.201 84.668 179.849 85.082 180.623 85.082C182.315 85.082 183.485 83.57 183.485 81.41V80.564C183.233 81.14 182.495 81.392 181.397 81.752C179.957 82.22 179.201 82.616 179.201 83.678ZM187.511 86V85.928C188.141 85.496 188.249 84.866 188.249 83.588V79.61C188.249 78.26 188.141 77.702 187.511 77.252V77.198H190.337C190.121 77.666 190.085 78.26 190.085 79.61V79.916C190.373 78.656 191.579 77.108 193.721 77.09V78.656C191.147 78.566 190.085 79.79 190.085 81.464V83.66C190.085 84.92 190.175 85.514 190.877 85.946V86H187.511ZM201.15 86L197.046 81.374V83.588C197.046 84.866 197.136 85.496 197.784 85.928V86H194.454V85.928C195.12 85.496 195.21 84.866 195.21 83.588V74.354C195.21 73.256 195.12 72.698 194.598 72.284V72.212L197.046 71.906L197.172 71.96C197.082 72.5 197.046 72.932 197.046 74.354V80.726L199.692 78.53C200.322 78.008 200.556 77.468 200.484 77.234V77.198H202.896V77.324C202.284 77.576 201.798 77.864 201.06 78.458L198.378 80.672L203.31 85.874V86H201.15ZM207.953 86.306C205.361 86.306 203.489 84.578 203.489 81.626C203.489 78.728 205.469 76.892 208.007 76.892C210.581 76.892 212.255 78.584 212.291 81.032H205.271V81.338C205.271 83.498 206.261 85.154 208.331 85.154C210.041 85.154 210.977 84.038 211.337 82.616H212.327C211.913 84.668 210.491 86.306 207.953 86.306ZM205.379 80.222H210.509C210.347 78.8 209.501 77.72 208.007 77.72C206.603 77.72 205.667 78.692 205.379 80.222ZM217.342 86.162C215.902 86.162 214.768 85.46 214.768 83.156V78.044H212.914V77.198H214.768V74.768L216.532 73.454H216.604V77.198H219.502V78.044H216.604V83.12C216.604 84.614 217.18 85.01 218.008 85.01C218.8 85.01 219.448 84.56 219.88 83.714L220.078 84.38C219.574 85.496 218.566 86.162 217.342 86.162ZM224.924 86.306C222.566 86.306 220.964 85.046 220.712 83.048H222.404C222.548 84.524 223.412 85.46 224.942 85.46C226.022 85.46 226.778 84.992 226.778 84.146C226.778 83.21 225.806 82.85 224.186 82.184C222.512 81.518 221.144 80.924 221.144 79.34C221.144 77.756 222.53 76.874 224.51 76.874C226.652 76.874 228.038 77.936 228.344 79.664H226.67C226.508 78.494 225.788 77.702 224.474 77.702C223.43 77.702 222.764 78.152 222.764 78.908C222.764 79.79 223.592 80.204 225.266 80.834C227.156 81.554 228.452 82.22 228.452 83.75C228.452 85.442 226.886 86.306 224.924 86.306ZM233.356 85.946C233.986 85.55 234.472 85.01 234.868 83.912L238.72 73.58C238.882 73.094 238.9 72.734 238.756 72.374H240.808L245.164 83.984C245.524 84.974 245.884 85.55 246.496 85.928V86H242.572V85.946C243.274 85.55 243.328 84.974 242.986 84.002L242.23 81.806H236.848L236.074 83.966C235.696 85.028 235.75 85.568 236.362 85.946V86H233.356V85.946ZM237.172 80.906H241.906L239.566 74.174L237.172 80.906ZM247.295 86V85.928C247.925 85.496 248.015 84.866 248.015 83.588V79.61C248.015 78.26 247.925 77.702 247.295 77.252V77.198H250.121C249.923 77.612 249.869 78.116 249.851 79.142C250.409 77.9 251.543 76.892 253.271 76.892C254.999 76.892 256.061 77.828 256.061 80.186V83.588C256.061 84.866 256.151 85.496 256.763 85.928V86H253.559V85.928C254.135 85.496 254.225 84.866 254.225 83.588V80.33C254.225 78.692 253.613 77.99 252.425 77.99C251.039 77.99 250.121 79.07 249.851 80.348V83.588C249.851 84.866 249.941 85.496 250.553 85.928V86H247.295ZM260.643 86.234C259.113 86.234 258.015 85.46 258.015 83.912C258.015 82.274 259.293 81.68 261.525 81.032C263.217 80.546 264.063 80.312 264.081 79.16C264.081 78.206 263.469 77.702 262.371 77.702C261.165 77.702 260.067 78.386 260.049 80.078H258.339C258.483 77.99 260.391 76.874 262.533 76.874C264.387 76.874 265.863 77.666 265.863 79.844V83.75C265.863 84.758 266.169 85.154 266.709 85.154C266.961 85.154 267.159 85.082 267.357 84.92V85.586C266.997 85.928 266.529 86.144 265.899 86.144C264.909 86.144 264.099 85.496 264.099 83.912V83.642C263.631 85.064 262.479 86.234 260.643 86.234ZM259.797 83.678C259.797 84.668 260.445 85.082 261.219 85.082C262.911 85.082 264.081 83.57 264.081 81.41V80.564C263.829 81.14 263.091 81.392 261.993 81.752C260.553 82.22 259.797 82.616 259.797 83.678ZM268.071 86V85.928C268.737 85.496 268.827 84.866 268.827 83.588V74.354C268.827 73.274 268.701 72.698 268.161 72.284V72.212L270.771 71.906L270.789 71.978C270.699 72.518 270.663 72.932 270.663 74.354V83.588C270.663 84.866 270.753 85.496 271.401 85.928V86H268.071ZM273.325 90.374C272.893 90.374 272.425 90.284 272.137 90.122V88.664C272.425 88.826 272.911 88.97 273.451 88.97C274.729 88.97 275.557 88.16 276.457 86H275.971L273.397 79.376C272.983 78.314 272.695 77.63 272.155 77.252V77.198H275.341V77.252C274.837 77.594 275.017 78.188 275.413 79.304L277.123 84.128L278.851 79.304C279.247 78.224 279.373 77.576 278.869 77.252V77.198H281.245V77.252C280.759 77.612 280.417 78.206 280.003 79.304L277.429 85.982C276.205 89.168 275.071 90.374 273.325 90.374ZM281.866 86V85.208L287.104 78.008H285.25C284.26 78.008 283.09 78.242 281.866 78.566V77.198H289.228V77.846L283.936 85.172H286.024C287.284 85.172 288.31 84.92 289.336 84.56V86H281.866ZM294.841 86.306C292.249 86.306 290.377 84.578 290.377 81.626C290.377 78.728 292.357 76.892 294.895 76.892C297.469 76.892 299.143 78.584 299.179 81.032H292.159V81.338C292.159 83.498 293.149 85.154 295.219 85.154C296.929 85.154 297.865 84.038 298.225 82.616H299.215C298.801 84.668 297.379 86.306 294.841 86.306ZM292.267 80.222H297.397C297.235 78.8 296.389 77.72 294.895 77.72C293.491 77.72 292.555 78.692 292.267 80.222ZM307.485 86C307.557 85.226 307.593 84.506 307.593 83.678C307.053 85.118 305.955 86.162 304.245 86.162C301.869 86.162 300.555 84.164 300.555 81.608C300.555 78.89 302.049 76.91 304.461 76.91C305.847 76.91 306.963 77.576 307.593 78.638V74.354C307.593 73.256 307.503 72.68 306.981 72.266V72.212L309.429 71.906L309.537 71.96C309.447 72.5 309.429 72.932 309.429 74.354V83.588C309.429 84.866 309.519 85.496 310.131 85.928V86H307.485ZM302.481 81.608C302.481 83.588 303.201 85.19 304.911 85.19C306.657 85.19 307.575 83.498 307.575 81.338H307.593V79.61C307.143 78.548 306.153 77.81 305.037 77.81C303.417 77.81 302.481 79.304 302.481 81.608ZM318.897 86.234C317.367 86.234 316.269 85.46 316.269 83.912C316.269 82.274 317.547 81.68 319.779 81.032C321.471 80.546 322.317 80.312 322.335 79.16C322.335 78.206 321.723 77.702 320.625 77.702C319.419 77.702 318.321 78.386 318.303 80.078H316.593C316.737 77.99 318.645 76.874 320.787 76.874C322.641 76.874 324.117 77.666 324.117 79.844V83.75C324.117 84.758 324.423 85.154 324.963 85.154C325.215 85.154 325.413 85.082 325.611 84.92V85.586C325.251 85.928 324.783 86.144 324.153 86.144C323.163 86.144 322.353 85.496 322.353 83.912V83.642C321.885 85.064 320.733 86.234 318.897 86.234ZM318.051 83.678C318.051 84.668 318.699 85.082 319.473 85.082C321.165 85.082 322.335 83.57 322.335 81.41V80.564C322.083 81.14 321.345 81.392 320.247 81.752C318.807 82.22 318.051 82.616 318.051 83.678ZM330.63 86.306C328.056 86.306 326.184 84.524 326.184 81.608C326.184 78.62 328.164 76.892 330.774 76.892C333.204 76.892 334.716 78.386 334.968 80.24H333.33C333.132 79.034 332.502 77.738 330.81 77.738C328.956 77.738 328.02 79.25 328.02 81.338C328.02 83.444 328.956 85.19 331.044 85.19C332.79 85.19 333.726 84.002 334.05 82.4H335.04C334.716 84.614 333.222 86.306 330.63 86.306ZM336.275 86V85.928C336.905 85.496 337.013 84.866 337.013 83.588V79.61C337.013 78.26 336.905 77.702 336.275 77.252V77.198H339.101C338.885 77.666 338.849 78.26 338.849 79.61V79.916C339.137 78.656 340.343 77.108 342.485 77.09V78.656C339.911 78.566 338.849 79.79 338.849 81.464V83.66C338.849 84.92 338.939 85.514 339.641 85.946V86H336.275ZM347.774 86.306C344.948 86.306 343.112 84.398 343.112 81.59C343.112 78.764 344.948 76.892 347.774 76.892C350.618 76.892 352.436 78.764 352.436 81.59C352.436 84.398 350.618 86.306 347.774 86.306ZM344.966 81.59C344.966 84.02 346.01 85.46 347.792 85.46C349.538 85.46 350.582 84.02 350.582 81.59C350.582 79.142 349.538 77.738 347.792 77.738C346.01 77.738 344.966 79.142 344.966 81.59ZM357.885 86.306C355.527 86.306 353.925 85.046 353.673 83.048H355.365C355.509 84.524 356.373 85.46 357.903 85.46C358.983 85.46 359.739 84.992 359.739 84.146C359.739 83.21 358.767 82.85 357.147 82.184C355.473 81.518 354.105 80.924 354.105 79.34C354.105 77.756 355.491 76.874 357.471 76.874C359.613 76.874 360.999 77.936 361.305 79.664H359.631C359.469 78.494 358.749 77.702 357.435 77.702C356.391 77.702 355.725 78.152 355.725 78.908C355.725 79.79 356.553 80.204 358.227 80.834C360.117 81.554 361.413 82.22 361.413 83.75C361.413 85.442 359.847 86.306 357.885 86.306ZM366.815 86.306C364.457 86.306 362.855 85.046 362.603 83.048H364.295C364.439 84.524 365.303 85.46 366.833 85.46C367.913 85.46 368.669 84.992 368.669 84.146C368.669 83.21 367.697 82.85 366.077 82.184C364.403 81.518 363.035 80.924 363.035 79.34C363.035 77.756 364.421 76.874 366.401 76.874C368.543 76.874 369.929 77.936 370.235 79.664H368.561C368.399 78.494 367.679 77.702 366.365 77.702C365.321 77.702 364.655 78.152 364.655 78.908C364.655 79.79 365.483 80.204 367.157 80.834C369.047 81.554 370.343 82.22 370.343 83.75C370.343 85.442 368.777 86.306 366.815 86.306ZM378.473 86V85.928C379.283 85.496 379.409 84.848 379.409 83.552V74.966C378.977 75.812 377.861 76.82 376.367 76.928V75.614C378.509 75.344 379.913 73.724 380.237 72.374H381.425V83.588C381.425 84.866 381.515 85.496 382.271 85.928V86H378.473ZM385.996 86V85.928C386.806 85.496 386.932 84.848 386.932 83.552V74.966C386.5 75.812 385.384 76.82 383.89 76.928V75.614C386.032 75.344 387.436 73.724 387.76 72.374H388.948V83.588C388.948 84.866 389.038 85.496 389.794 85.928V86H385.996ZM395.553 85.658V81.806H391.989V80.87H395.571V77H396.561V80.87H400.125V81.788H396.543V85.658H395.553ZM410.813 86.306C408.455 86.306 406.853 85.046 406.601 83.048H408.293C408.437 84.524 409.301 85.46 410.831 85.46C411.911 85.46 412.667 84.992 412.667 84.146C412.667 83.21 411.695 82.85 410.075 82.184C408.401 81.518 407.033 80.924 407.033 79.34C407.033 77.756 408.419 76.874 410.399 76.874C412.541 76.874 413.927 77.936 414.233 79.664H412.559C412.397 78.494 411.677 77.702 410.363 77.702C409.319 77.702 408.653 78.152 408.653 78.908C408.653 79.79 409.481 80.204 411.155 80.834C413.045 81.554 414.341 82.22 414.341 83.75C414.341 85.442 412.775 86.306 410.813 86.306ZM419.35 86.162C417.91 86.162 416.776 85.46 416.776 83.156V78.044H414.922V77.198H416.776V74.768L418.54 73.454H418.612V77.198H421.51V78.044H418.612V83.12C418.612 84.614 419.188 85.01 420.016 85.01C420.808 85.01 421.456 84.56 421.888 83.714L422.086 84.38C421.582 85.496 420.574 86.162 419.35 86.162ZM425.403 86.234C423.873 86.234 422.775 85.46 422.775 83.912C422.775 82.274 424.053 81.68 426.285 81.032C427.977 80.546 428.823 80.312 428.841 79.16C428.841 78.206 428.229 77.702 427.131 77.702C425.925 77.702 424.827 78.386 424.809 80.078H423.099C423.243 77.99 425.151 76.874 427.293 76.874C429.147 76.874 430.623 77.666 430.623 79.844V83.75C430.623 84.758 430.929 85.154 431.469 85.154C431.721 85.154 431.919 85.082 432.117 84.92V85.586C431.757 85.928 431.289 86.144 430.659 86.144C429.669 86.144 428.859 85.496 428.859 83.912V83.642C428.391 85.064 427.239 86.234 425.403 86.234ZM424.557 83.678C424.557 84.668 425.205 85.082 425.979 85.082C427.671 85.082 428.841 83.57 428.841 81.41V80.564C428.589 81.14 427.851 81.392 426.753 81.752C425.313 82.22 424.557 82.616 424.557 83.678ZM436.172 86.162C434.732 86.162 433.598 85.46 433.598 83.156V78.044H431.744V77.198H433.598V74.768L435.362 73.454H435.434V77.198H438.332V78.044H435.434V83.12C435.434 84.614 436.01 85.01 436.838 85.01C437.63 85.01 438.278 84.56 438.71 83.714L438.908 84.38C438.404 85.496 437.396 86.162 436.172 86.162ZM444.009 86.306C441.417 86.306 439.545 84.578 439.545 81.626C439.545 78.728 441.525 76.892 444.063 76.892C446.637 76.892 448.311 78.584 448.347 81.032H441.327V81.338C441.327 83.498 442.317 85.154 444.387 85.154C446.097 85.154 447.033 84.038 447.393 82.616H448.383C447.969 84.668 446.547 86.306 444.009 86.306ZM441.435 80.222H446.565C446.403 78.8 445.557 77.72 444.063 77.72C442.659 77.72 441.723 78.692 441.435 80.222ZM453.809 86.306C451.451 86.306 449.849 85.046 449.597 83.048H451.289C451.433 84.524 452.297 85.46 453.827 85.46C454.907 85.46 455.663 84.992 455.663 84.146C455.663 83.21 454.691 82.85 453.071 82.184C451.397 81.518 450.029 80.924 450.029 79.34C450.029 77.756 451.415 76.874 453.395 76.874C455.537 76.874 456.923 77.936 457.229 79.664H455.555C455.393 78.494 454.673 77.702 453.359 77.702C452.315 77.702 451.649 78.152 451.649 78.908C451.649 79.79 452.477 80.204 454.151 80.834C456.041 81.554 457.337 82.22 457.337 83.75C457.337 85.442 455.771 86.306 453.809 86.306Z" fill="white"/>
<path d="M216.124 170.667V165.323V155.595C215.132 156.779 213.436 157.611 210.972 157.643V152.235C214.62 151.787 217.724 149.547 218.364 146.443H223.58V165.323V170.667H216.124ZM226.608 172.907C228.72 172.843 229.872 172.299 230.096 170.571H227.344V165.355H233.168V169.451C233.168 173.547 230.672 175.723 226.608 175.819V172.907ZM246.756 171.275C239.524 171.275 235.748 166.827 235.748 158.635C235.748 150.411 239.524 145.963 246.756 145.963C254.02 145.963 257.764 150.443 257.764 158.635C257.764 166.827 254.02 171.275 246.756 171.275ZM243.076 158.635C243.076 164.235 244.132 166.187 246.756 166.187C249.38 166.187 250.468 164.235 250.468 158.635C250.468 153.035 249.38 151.051 246.756 151.051C244.132 151.051 243.076 153.035 243.076 158.635ZM271.256 171.275C264.024 171.275 260.248 166.827 260.248 158.635C260.248 150.411 264.024 145.963 271.256 145.963C278.52 145.963 282.264 150.443 282.264 158.635C282.264 166.827 278.52 171.275 271.256 171.275ZM267.576 158.635C267.576 164.235 268.632 166.187 271.256 166.187C273.88 166.187 274.968 164.235 274.968 158.635C274.968 153.035 273.88 151.051 271.256 151.051C268.632 151.051 267.576 153.035 267.576 158.635ZM295.756 171.275C288.524 171.275 284.748 166.827 284.748 158.635C284.748 150.411 288.524 145.963 295.756 145.963C303.02 145.963 306.764 150.443 306.764 158.635C306.764 166.827 303.02 171.275 295.756 171.275ZM292.076 158.635C292.076 164.235 293.132 166.187 295.756 166.187C298.38 166.187 299.468 164.235 299.468 158.635C299.468 153.035 298.38 151.051 295.756 151.051C293.132 151.051 292.076 153.035 292.076 158.635Z" fill="white"/>
<path d="M101.544 201.667V201.595C102.246 201.163 102.336 200.533 102.336 199.255V190.453C102.336 189.103 102.246 188.545 101.544 188.095V188.041H106.224C109.536 188.041 111.606 189.031 111.606 191.569C111.606 194.179 109.248 195.277 105.846 195.277H104.352V199.255C104.352 200.533 104.442 201.163 105.162 201.595V201.667H101.544ZM104.352 194.395H105.738C108.042 194.395 109.572 193.585 109.572 191.569C109.572 189.643 108.204 188.923 106.08 188.923H104.352V194.395ZM112.541 201.667V201.595C113.171 201.163 113.279 200.533 113.279 199.255V195.277C113.279 193.927 113.171 193.369 112.541 192.919V192.865H115.367C115.151 193.333 115.115 193.927 115.115 195.277V195.583C115.403 194.323 116.609 192.775 118.751 192.757V194.323C116.177 194.233 115.115 195.457 115.115 197.131V199.327C115.115 200.587 115.205 201.181 115.907 201.613V201.667H112.541ZM124.039 201.973C121.213 201.973 119.377 200.065 119.377 197.257C119.377 194.431 121.213 192.559 124.039 192.559C126.883 192.559 128.701 194.431 128.701 197.257C128.701 200.065 126.883 201.973 124.039 201.973ZM121.231 197.257C121.231 199.687 122.275 201.127 124.057 201.127C125.803 201.127 126.847 199.687 126.847 197.257C126.847 194.809 125.803 193.405 124.057 193.405C122.275 193.405 121.231 194.809 121.231 197.257ZM129.993 205.987V205.915C130.623 205.537 130.713 204.979 130.713 203.827V195.025C130.713 193.819 130.623 193.315 129.993 192.919V192.865H132.819C132.603 193.261 132.549 193.801 132.549 194.935C133.089 193.567 134.205 192.577 135.933 192.577C138.255 192.577 139.587 194.539 139.587 197.149C139.587 199.849 138.075 201.829 135.699 201.829C134.349 201.829 133.179 201.181 132.549 200.047V203.827C132.549 204.979 132.657 205.537 133.287 205.915V205.987H129.993ZM132.549 199.111C133.053 200.209 133.989 200.929 135.105 200.929C136.725 200.929 137.679 199.453 137.679 197.167C137.679 195.169 136.923 193.549 135.249 193.549C133.521 193.549 132.567 195.205 132.567 197.437L132.549 197.419V199.111ZM145.392 201.973C142.8 201.973 140.928 200.245 140.928 197.293C140.928 194.395 142.908 192.559 145.446 192.559C148.02 192.559 149.694 194.251 149.73 196.699H142.71V197.005C142.71 199.165 143.7 200.821 145.77 200.821C147.48 200.821 148.416 199.705 148.776 198.283H149.766C149.352 200.335 147.93 201.973 145.392 201.973ZM142.818 195.889H147.948C147.786 194.467 146.94 193.387 145.446 193.387C144.042 193.387 143.106 194.359 142.818 195.889ZM151.16 201.667V201.595C151.79 201.163 151.898 200.533 151.898 199.255V195.277C151.898 193.927 151.79 193.369 151.16 192.919V192.865H153.986C153.77 193.333 153.734 193.927 153.734 195.277V195.583C154.022 194.323 155.228 192.775 157.37 192.757V194.323C154.796 194.233 153.734 195.457 153.734 197.131V199.327C153.734 200.587 153.824 201.181 154.526 201.613V201.667H151.16ZM162.146 201.829C160.706 201.829 159.572 201.127 159.572 198.823V193.711H157.718V192.865H159.572V190.435L161.336 189.121H161.408V192.865H164.306V193.711H161.408V198.787C161.408 200.281 161.984 200.677 162.812 200.677C163.604 200.677 164.252 200.227 164.684 199.381L164.882 200.047C164.378 201.163 163.37 201.829 162.146 201.829ZM165.571 201.667V201.595C166.201 201.163 166.291 200.551 166.291 199.255L166.309 195.241C166.309 193.891 166.237 193.351 165.661 192.955V192.883L168.145 192.757V199.255C168.145 200.533 168.235 201.163 168.865 201.595V201.667H165.571ZM166.255 190.651V188.617H168.163V190.651H166.255ZM174.642 201.973C172.05 201.973 170.178 200.245 170.178 197.293C170.178 194.395 172.158 192.559 174.696 192.559C177.27 192.559 178.944 194.251 178.98 196.699H171.96V197.005C171.96 199.165 172.95 200.821 175.02 200.821C176.73 200.821 177.666 199.705 178.026 198.283H179.016C178.602 200.335 177.18 201.973 174.642 201.973ZM172.068 195.889H177.198C177.036 194.467 176.19 193.387 174.696 193.387C173.292 193.387 172.356 194.359 172.068 195.889ZM184.442 201.973C182.084 201.973 180.482 200.713 180.23 198.715H181.922C182.066 200.191 182.93 201.127 184.46 201.127C185.54 201.127 186.296 200.659 186.296 199.813C186.296 198.877 185.324 198.517 183.704 197.851C182.03 197.185 180.662 196.591 180.662 195.007C180.662 193.423 182.048 192.541 184.028 192.541C186.17 192.541 187.556 193.603 187.862 195.331H186.188C186.026 194.161 185.306 193.369 183.992 193.369C182.948 193.369 182.282 193.819 182.282 194.575C182.282 195.457 183.11 195.871 184.784 196.501C186.674 197.221 187.97 197.887 187.97 199.417C187.97 201.109 186.404 201.973 184.442 201.973ZM194.462 201.667V201.595C195.164 201.163 195.254 200.533 195.254 199.255V190.453C195.254 189.103 195.164 188.545 194.462 188.095V188.041H199.142C202.454 188.041 204.524 189.031 204.524 191.569C204.524 194.179 202.166 195.277 198.764 195.277H197.27V199.255C197.27 200.533 197.36 201.163 198.08 201.595V201.667H194.462ZM197.27 194.395H198.656C200.96 194.395 202.49 193.585 202.49 191.569C202.49 189.643 201.122 188.923 198.998 188.923H197.27V194.395ZM205.459 201.667V201.595C206.089 201.163 206.197 200.533 206.197 199.255V195.277C206.197 193.927 206.089 193.369 205.459 192.919V192.865H208.285C208.069 193.333 208.033 193.927 208.033 195.277V195.583C208.321 194.323 209.527 192.775 211.669 192.757V194.323C209.095 194.233 208.033 195.457 208.033 197.131V199.327C208.033 200.587 208.123 201.181 208.825 201.613V201.667H205.459ZM216.957 201.973C214.131 201.973 212.295 200.065 212.295 197.257C212.295 194.431 214.131 192.559 216.957 192.559C219.801 192.559 221.619 194.431 221.619 197.257C221.619 200.065 219.801 201.973 216.957 201.973ZM214.149 197.257C214.149 199.687 215.193 201.127 216.975 201.127C218.721 201.127 219.765 199.687 219.765 197.257C219.765 194.809 218.721 193.405 216.975 193.405C215.193 193.405 214.149 194.809 214.149 197.257ZM223.299 195.025C222.885 193.963 222.615 193.279 222.093 192.919V192.865H225.297V192.919C224.811 193.261 224.955 193.855 225.351 194.971L227.025 199.669L228.717 194.971C229.131 193.891 229.239 193.243 228.771 192.919V192.865H231.147V192.919C230.661 193.225 230.301 193.891 229.887 194.989L227.907 200.101C227.655 200.749 227.439 201.343 227.439 201.667H225.891L223.299 195.025ZM231.964 201.667V201.595C232.594 201.163 232.684 200.551 232.684 199.255L232.702 195.241C232.702 193.891 232.63 193.351 232.054 192.955V192.883L234.538 192.757V199.255C234.538 200.533 234.628 201.163 235.258 201.595V201.667H231.964ZM232.648 190.651V188.617H234.556V190.651H232.648ZM243.501 201.667C243.573 200.893 243.609 200.173 243.609 199.345C243.069 200.785 241.971 201.829 240.261 201.829C237.885 201.829 236.571 199.831 236.571 197.275C236.571 194.557 238.065 192.577 240.477 192.577C241.863 192.577 242.979 193.243 243.609 194.305V190.021C243.609 188.923 243.519 188.347 242.997 187.933V187.879L245.445 187.573L245.553 187.627C245.463 188.167 245.445 188.599 245.445 190.021V199.255C245.445 200.533 245.535 201.163 246.147 201.595V201.667H243.501ZM238.497 197.275C238.497 199.255 239.217 200.857 240.927 200.857C242.673 200.857 243.591 199.165 243.591 197.005H243.609V195.277C243.159 194.215 242.169 193.477 241.053 193.477C239.433 193.477 238.497 194.971 238.497 197.275ZM251.986 201.973C249.394 201.973 247.522 200.245 247.522 197.293C247.522 194.395 249.502 192.559 252.04 192.559C254.614 192.559 256.288 194.251 256.324 196.699H249.304V197.005C249.304 199.165 250.294 200.821 252.364 200.821C254.074 200.821 255.01 199.705 255.37 198.283H256.36C255.946 200.335 254.524 201.973 251.986 201.973ZM249.412 195.889H254.542C254.38 194.467 253.534 193.387 252.04 193.387C250.636 193.387 249.7 194.359 249.412 195.889ZM264.63 201.667C264.702 200.893 264.738 200.173 264.738 199.345C264.198 200.785 263.1 201.829 261.39 201.829C259.014 201.829 257.7 199.831 257.7 197.275C257.7 194.557 259.194 192.577 261.606 192.577C262.992 192.577 264.108 193.243 264.738 194.305V190.021C264.738 188.923 264.648 188.347 264.126 187.933V187.879L266.574 187.573L266.682 187.627C266.592 188.167 266.574 188.599 266.574 190.021V199.255C266.574 200.533 266.664 201.163 267.276 201.595V201.667H264.63ZM259.626 197.275C259.626 199.255 260.346 200.857 262.056 200.857C263.802 200.857 264.72 199.165 264.72 197.005H264.738V195.277C264.288 194.215 263.298 193.477 262.182 193.477C260.562 193.477 259.626 194.971 259.626 197.275ZM276.861 201.829C275.421 201.829 274.287 201.127 274.287 198.823V193.711H272.433V192.865H274.287V190.435L276.051 189.121H276.123V192.865H279.021V193.711H276.123V198.787C276.123 200.281 276.699 200.677 277.527 200.677C278.319 200.677 278.967 200.227 279.399 199.381L279.597 200.047C279.093 201.163 278.085 201.829 276.861 201.829ZM280.358 201.667V201.595C281.024 201.163 281.114 200.533 281.114 199.255V190.021C281.114 188.941 280.988 188.365 280.448 187.951V187.879L283.058 187.573L283.076 187.645C282.986 188.185 282.95 188.599 282.95 190.021V194.809C283.508 193.567 284.642 192.559 286.37 192.559C288.098 192.559 289.16 193.495 289.16 195.853V199.255C289.16 200.533 289.25 201.163 289.862 201.595V201.667H286.658V201.595C287.234 201.163 287.324 200.533 287.324 199.255V195.997C287.324 194.359 286.712 193.657 285.524 193.657C284.138 193.657 283.22 194.737 282.95 196.015V199.255C282.95 200.533 283.04 201.163 283.688 201.595V201.667H280.358ZM291.222 201.667V201.595C291.852 201.163 291.96 200.533 291.96 199.255V195.277C291.96 193.927 291.852 193.369 291.222 192.919V192.865H294.048C293.832 193.333 293.796 193.927 293.796 195.277V195.583C294.084 194.323 295.29 192.775 297.432 192.757V194.323C294.858 194.233 293.796 195.457 293.796 197.131V199.327C293.796 200.587 293.886 201.181 294.588 201.613V201.667H291.222ZM302.721 201.973C299.895 201.973 298.059 200.065 298.059 197.257C298.059 194.431 299.895 192.559 302.721 192.559C305.565 192.559 307.383 194.431 307.383 197.257C307.383 200.065 305.565 201.973 302.721 201.973ZM299.913 197.257C299.913 199.687 300.957 201.127 302.739 201.127C304.485 201.127 305.529 199.687 305.529 197.257C305.529 194.809 304.485 193.405 302.739 193.405C300.957 193.405 299.913 194.809 299.913 197.257ZM312.221 201.937C310.475 201.937 309.413 200.983 309.413 198.643V195.277C309.413 193.981 309.323 193.369 308.693 192.919V192.865H311.897V192.919C311.339 193.369 311.249 193.981 311.249 195.277V198.481C311.249 200.119 311.843 200.821 313.031 200.821C314.417 200.821 315.299 199.705 315.605 198.229V195.277C315.605 193.981 315.515 193.369 314.921 192.919V192.865H318.161V192.919C317.531 193.369 317.441 193.981 317.441 195.277V199.255C317.441 200.605 317.531 201.163 318.161 201.595V201.667H315.371C315.551 201.217 315.605 200.677 315.605 199.525C315.083 200.821 313.931 201.937 312.221 201.937ZM323.264 206.221C321.428 206.221 319.97 205.699 319.97 204.403C319.97 203.521 320.726 202.909 322.004 202.513H321.968C320.582 202.513 319.628 201.901 319.628 200.839C319.628 199.885 320.402 199.129 321.554 198.589C320.78 198.013 320.312 197.131 320.312 196.015C320.312 193.855 322.112 192.595 324.362 192.595C325.55 192.595 326.612 192.937 327.35 193.567C327.512 192.163 328.43 191.173 329.744 191.155V192.703C328.592 192.703 327.944 193.171 327.8 194.035C328.196 194.575 328.43 195.241 328.43 196.015C328.43 198.193 326.666 199.435 324.38 199.435C323.552 199.435 322.778 199.273 322.148 198.949C321.374 199.309 320.978 199.759 320.978 200.281C320.978 200.803 321.338 201.073 322.418 201.073C323.912 201.055 326.162 200.461 327.62 200.461C328.988 200.461 329.834 201.073 329.834 202.225C329.834 204.637 326.396 206.221 323.264 206.221ZM321.32 204.151C321.32 205.015 322.184 205.357 323.444 205.357C325.658 205.357 328.268 204.295 328.268 202.801C328.268 202.189 327.908 201.937 326.99 201.937C326.162 201.937 324.812 202.171 323.534 202.513C322.058 202.891 321.32 203.359 321.32 204.151ZM322.13 196.015C322.13 197.617 322.976 198.625 324.362 198.625C325.784 198.625 326.63 197.617 326.63 196.015C326.63 194.413 325.766 193.423 324.362 193.423C322.976 193.423 322.13 194.413 322.13 196.015ZM330.632 201.667V201.595C331.298 201.163 331.388 200.533 331.388 199.255V190.021C331.388 188.941 331.262 188.365 330.722 187.951V187.879L333.332 187.573L333.35 187.645C333.26 188.185 333.224 188.599 333.224 190.021V194.809C333.782 193.567 334.916 192.559 336.644 192.559C338.372 192.559 339.434 193.495 339.434 195.853V199.255C339.434 200.533 339.524 201.163 340.136 201.595V201.667H336.932V201.595C337.508 201.163 337.598 200.533 337.598 199.255V195.997C337.598 194.359 336.986 193.657 335.798 193.657C334.412 193.657 333.494 194.737 333.224 196.015V199.255C333.224 200.533 333.314 201.163 333.962 201.595V201.667H330.632ZM346.618 201.667V201.595C347.32 201.163 347.41 200.533 347.41 199.255V190.453C347.41 189.103 347.32 188.545 346.618 188.095V188.041H351.298C354.61 188.041 356.68 189.031 356.68 191.569C356.68 194.179 354.322 195.277 350.92 195.277H349.426V199.255C349.426 200.533 349.516 201.163 350.236 201.595V201.667H346.618ZM349.426 194.395H350.812C353.116 194.395 354.646 193.585 354.646 191.569C354.646 189.643 353.278 188.923 351.154 188.923H349.426V194.395ZM359.08 201.901C357.55 201.901 356.452 201.127 356.452 199.579C356.452 197.941 357.73 197.347 359.962 196.699C361.654 196.213 362.5 195.979 362.518 194.827C362.518 193.873 361.906 193.369 360.808 193.369C359.602 193.369 358.504 194.053 358.486 195.745H356.776C356.92 193.657 358.828 192.541 360.97 192.541C362.824 192.541 364.3 193.333 364.3 195.511V199.417C364.3 200.425 364.606 200.821 365.146 200.821C365.398 200.821 365.596 200.749 365.794 200.587V201.253C365.434 201.595 364.966 201.811 364.336 201.811C363.346 201.811 362.536 201.163 362.536 199.579V199.309C362.068 200.731 360.916 201.901 359.08 201.901ZM358.234 199.345C358.234 200.335 358.882 200.749 359.656 200.749C361.348 200.749 362.518 199.237 362.518 197.077V196.231C362.266 196.807 361.528 197.059 360.43 197.419C358.99 197.887 358.234 198.283 358.234 199.345ZM366.545 201.667V201.595C367.175 201.163 367.283 200.533 367.283 199.255V195.277C367.283 193.927 367.175 193.369 366.545 192.919V192.865H369.371C369.155 193.333 369.119 193.927 369.119 195.277V195.583C369.407 194.323 370.613 192.775 372.755 192.757V194.323C370.181 194.233 369.119 195.457 369.119 197.131V199.327C369.119 200.587 369.209 201.181 369.911 201.613V201.667H366.545ZM377.531 201.829C376.091 201.829 374.957 201.127 374.957 198.823V193.711H373.103V192.865H374.957V190.435L376.721 189.121H376.793V192.865H379.691V193.711H376.793V198.787C376.793 200.281 377.369 200.677 378.197 200.677C378.989 200.677 379.637 200.227 380.069 199.381L380.267 200.047C379.763 201.163 378.755 201.829 377.531 201.829ZM381.082 201.667V201.595C381.712 201.163 381.802 200.533 381.802 199.255V195.277C381.802 193.927 381.712 193.369 381.082 192.919V192.865H383.908C383.71 193.279 383.656 193.783 383.638 194.809C384.196 193.567 385.33 192.559 387.058 192.559C388.786 192.559 389.848 193.495 389.848 195.853V199.255C389.848 200.533 389.938 201.163 390.55 201.595V201.667H387.346V201.595C387.922 201.163 388.012 200.533 388.012 199.255V195.997C388.012 194.359 387.4 193.657 386.212 193.657C384.826 193.657 383.908 194.737 383.638 196.015V199.255C383.638 200.533 383.728 201.163 384.34 201.595V201.667H381.082ZM396.32 201.973C393.728 201.973 391.856 200.245 391.856 197.293C391.856 194.395 393.836 192.559 396.374 192.559C398.948 192.559 400.622 194.251 400.658 196.699H393.638V197.005C393.638 199.165 394.628 200.821 396.698 200.821C398.408 200.821 399.344 199.705 399.704 198.283H400.694C400.28 200.335 398.858 201.973 396.32 201.973ZM393.746 195.889H398.876C398.714 194.467 397.868 193.387 396.374 193.387C394.97 193.387 394.034 194.359 393.746 195.889ZM402.088 201.667V201.595C402.718 201.163 402.826 200.533 402.826 199.255V195.277C402.826 193.927 402.718 193.369 402.088 192.919V192.865H404.914C404.698 193.333 404.662 193.927 404.662 195.277V195.583C404.95 194.323 406.156 192.775 408.298 192.757V194.323C405.724 194.233 404.662 195.457 404.662 197.131V199.327C404.662 200.587 404.752 201.181 405.454 201.613V201.667H402.088ZM413.204 201.973C410.846 201.973 409.244 200.713 408.992 198.715H410.684C410.828 200.191 411.692 201.127 413.222 201.127C414.302 201.127 415.058 200.659 415.058 199.813C415.058 198.877 414.086 198.517 412.466 197.851C410.792 197.185 409.424 196.591 409.424 195.007C409.424 193.423 410.81 192.541 412.79 192.541C414.932 192.541 416.318 193.603 416.624 195.331H414.95C414.788 194.161 414.068 193.369 412.754 193.369C411.71 193.369 411.044 193.819 411.044 194.575C411.044 195.457 411.872 195.871 413.546 196.501C415.436 197.221 416.732 197.887 416.732 199.417C416.732 201.109 415.166 201.973 413.204 201.973Z" fill="white"/>
<path d="M232.624 286.333V280.989V271.261C231.632 272.445 229.936 273.277 227.472 273.309V267.901C231.12 267.453 234.224 265.213 234.864 262.109H240.08V280.989V286.333H232.624ZM254.756 286.941C247.524 286.941 243.748 282.493 243.748 274.301C243.748 266.077 247.524 261.629 254.756 261.629C262.02 261.629 265.764 266.109 265.764 274.301C265.764 282.493 262.02 286.941 254.756 286.941ZM251.076 274.301C251.076 279.901 252.132 281.853 254.756 281.853C257.38 281.853 258.468 279.901 258.468 274.301C258.468 268.701 257.38 266.717 254.756 266.717C252.132 266.717 251.076 268.701 251.076 274.301ZM279.256 286.941C272.024 286.941 268.248 282.493 268.248 274.301C268.248 266.077 272.024 261.629 279.256 261.629C286.52 261.629 290.264 266.109 290.264 274.301C290.264 282.493 286.52 286.941 279.256 286.941ZM275.576 274.301C275.576 279.901 276.632 281.853 279.256 281.853C281.88 281.853 282.968 279.901 282.968 274.301C282.968 268.701 281.88 266.717 279.256 266.717C276.632 266.717 275.576 268.701 275.576 274.301Z" fill="white"/>
<path d="M152.044 317.333V317.261C152.746 316.829 152.836 316.199 152.836 314.921V306.119C152.836 304.769 152.746 304.211 152.044 303.761V303.707H156.724C160.036 303.707 162.106 304.697 162.106 307.235C162.106 309.845 159.748 310.943 156.346 310.943H154.852V314.921C154.852 316.199 154.942 316.829 155.662 317.261V317.333H152.044ZM154.852 310.061H156.238C158.542 310.061 160.072 309.251 160.072 307.235C160.072 305.309 158.704 304.589 156.58 304.589H154.852V310.061ZM163.041 317.333V317.261C163.671 316.829 163.779 316.199 163.779 314.921V310.943C163.779 309.593 163.671 309.035 163.041 308.585V308.531H165.867C165.651 308.999 165.615 309.593 165.615 310.943V311.249C165.903 309.989 167.109 308.441 169.251 308.423V309.989C166.677 309.899 165.615 311.123 165.615 312.797V314.993C165.615 316.253 165.705 316.847 166.407 317.279V317.333H163.041ZM174.539 317.639C171.713 317.639 169.877 315.731 169.877 312.923C169.877 310.097 171.713 308.225 174.539 308.225C177.383 308.225 179.201 310.097 179.201 312.923C179.201 315.731 177.383 317.639 174.539 317.639ZM171.731 312.923C171.731 315.353 172.775 316.793 174.557 316.793C176.303 316.793 177.347 315.353 177.347 312.923C177.347 310.475 176.303 309.071 174.557 309.071C172.775 309.071 171.731 310.475 171.731 312.923ZM180.493 321.653V321.581C181.123 321.203 181.213 320.645 181.213 319.493V310.691C181.213 309.485 181.123 308.981 180.493 308.585V308.531H183.319C183.103 308.927 183.049 309.467 183.049 310.601C183.589 309.233 184.705 308.243 186.433 308.243C188.755 308.243 190.087 310.205 190.087 312.815C190.087 315.515 188.575 317.495 186.199 317.495C184.849 317.495 183.679 316.847 183.049 315.713V319.493C183.049 320.645 183.157 321.203 183.787 321.581V321.653H180.493ZM183.049 314.777C183.553 315.875 184.489 316.595 185.605 316.595C187.225 316.595 188.179 315.119 188.179 312.833C188.179 310.835 187.423 309.215 185.749 309.215C184.021 309.215 183.067 310.871 183.067 313.103L183.049 313.085V314.777ZM195.892 317.639C193.3 317.639 191.428 315.911 191.428 312.959C191.428 310.061 193.408 308.225 195.946 308.225C198.52 308.225 200.194 309.917 200.23 312.365H193.21V312.671C193.21 314.831 194.2 316.487 196.27 316.487C197.98 316.487 198.916 315.371 199.276 313.949H200.266C199.852 316.001 198.43 317.639 195.892 317.639ZM193.318 311.555H198.448C198.286 310.133 197.44 309.053 195.946 309.053C194.542 309.053 193.606 310.025 193.318 311.555ZM201.66 317.333V317.261C202.29 316.829 202.398 316.199 202.398 314.921V310.943C202.398 309.593 202.29 309.035 201.66 308.585V308.531H204.486C204.27 308.999 204.234 309.593 204.234 310.943V311.249C204.522 309.989 205.728 308.441 207.87 308.423V309.989C205.296 309.899 204.234 311.123 204.234 312.797V314.993C204.234 316.253 204.324 316.847 205.026 317.279V317.333H201.66ZM212.646 317.495C211.206 317.495 210.072 316.793 210.072 314.489V309.377H208.218V308.531H210.072V306.101L211.836 304.787H211.908V308.531H214.806V309.377H211.908V314.453C211.908 315.947 212.484 316.343 213.312 316.343C214.104 316.343 214.752 315.893 215.184 315.047L215.382 315.713C214.878 316.829 213.87 317.495 212.646 317.495ZM216.071 317.333V317.261C216.701 316.829 216.791 316.217 216.791 314.921L216.809 310.907C216.809 309.557 216.737 309.017 216.161 308.621V308.549L218.645 308.423V314.921C218.645 316.199 218.735 316.829 219.365 317.261V317.333H216.071ZM216.755 306.317V304.283H218.663V306.317H216.755ZM225.142 317.639C222.55 317.639 220.678 315.911 220.678 312.959C220.678 310.061 222.658 308.225 225.196 308.225C227.77 308.225 229.444 309.917 229.48 312.365H222.46V312.671C222.46 314.831 223.45 316.487 225.52 316.487C227.23 316.487 228.166 315.371 228.526 313.949H229.516C229.102 316.001 227.68 317.639 225.142 317.639ZM222.568 311.555H227.698C227.536 310.133 226.69 309.053 225.196 309.053C223.792 309.053 222.856 310.025 222.568 311.555ZM234.942 317.639C232.584 317.639 230.982 316.379 230.73 314.381H232.422C232.566 315.857 233.43 316.793 234.96 316.793C236.04 316.793 236.796 316.325 236.796 315.479C236.796 314.543 235.824 314.183 234.204 313.517C232.53 312.851 231.162 312.257 231.162 310.673C231.162 309.089 232.548 308.207 234.528 308.207C236.67 308.207 238.056 309.269 238.362 310.997H236.688C236.526 309.827 235.806 309.035 234.492 309.035C233.448 309.035 232.782 309.485 232.782 310.241C232.782 311.123 233.61 311.537 235.284 312.167C237.174 312.887 238.47 313.553 238.47 315.083C238.47 316.775 236.904 317.639 234.942 317.639ZM253.962 305.327C252.144 304.841 250.794 304.589 249.354 304.589H247.77V309.467H249.012C250.02 309.467 251.46 309.413 252.954 309.359V310.439C251.46 310.367 250.02 310.331 249.012 310.331H247.77V314.921C247.77 316.199 247.86 316.829 248.58 317.261V317.333H244.962V317.261C245.664 316.829 245.754 316.199 245.754 314.921V306.119C245.754 304.769 245.664 304.211 244.962 303.761V303.707H253.962V305.327ZM257.885 317.603C256.139 317.603 255.077 316.649 255.077 314.309V310.943C255.077 309.647 254.987 309.035 254.357 308.585V308.531H257.561V308.585C257.003 309.035 256.913 309.647 256.913 310.943V314.147C256.913 315.785 257.507 316.487 258.695 316.487C260.081 316.487 260.963 315.371 261.269 313.895V310.943C261.269 309.647 261.179 309.035 260.585 308.585V308.531H263.825V308.585C263.195 309.035 263.105 309.647 263.105 310.943V314.921C263.105 316.271 263.195 316.829 263.825 317.261V317.333H261.035C261.215 316.883 261.269 316.343 261.269 315.191C260.747 316.487 259.595 317.603 257.885 317.603ZM265.31 317.333V317.261C265.94 316.829 266.048 316.199 266.048 314.921V310.943C266.048 309.593 265.94 309.035 265.31 308.585V308.531H268.136C267.92 308.999 267.884 309.593 267.884 310.943V311.249C268.172 309.989 269.378 308.441 271.52 308.423V309.989C268.946 309.899 267.884 311.123 267.884 312.797V314.993C267.884 316.253 267.974 316.847 268.676 317.279V317.333H265.31ZM276.297 317.495C274.857 317.495 273.723 316.793 273.723 314.489V309.377H271.869V308.531H273.723V306.101L275.487 304.787H275.559V308.531H278.457V309.377H275.559V314.453C275.559 315.947 276.135 316.343 276.963 316.343C277.755 316.343 278.403 315.893 278.835 315.047L279.033 315.713C278.529 316.829 277.521 317.495 276.297 317.495ZM279.794 317.333V317.261C280.46 316.829 280.55 316.199 280.55 314.921V305.687C280.55 304.607 280.424 304.031 279.884 303.617V303.545L282.494 303.239L282.512 303.311C282.422 303.851 282.386 304.265 282.386 305.687V310.475C282.944 309.233 284.078 308.225 285.806 308.225C287.534 308.225 288.596 309.161 288.596 311.519V314.921C288.596 316.199 288.686 316.829 289.298 317.261V317.333H286.094V317.261C286.67 316.829 286.76 316.199 286.76 314.921V311.663C286.76 310.025 286.148 309.323 284.96 309.323C283.574 309.323 282.656 310.403 282.386 311.681V314.921C282.386 316.199 282.476 316.829 283.124 317.261V317.333H279.794ZM295.068 317.639C292.476 317.639 290.604 315.911 290.604 312.959C290.604 310.061 292.584 308.225 295.122 308.225C297.696 308.225 299.37 309.917 299.406 312.365H292.386V312.671C292.386 314.831 293.376 316.487 295.446 316.487C297.156 316.487 298.092 315.371 298.452 313.949H299.442C299.028 316.001 297.606 317.639 295.068 317.639ZM292.494 311.555H297.624C297.462 310.133 296.616 309.053 295.122 309.053C293.718 309.053 292.782 310.025 292.494 311.555ZM300.836 317.333V317.261C301.466 316.829 301.574 316.199 301.574 314.921V310.943C301.574 309.593 301.466 309.035 300.836 308.585V308.531H303.662C303.446 308.999 303.41 309.593 303.41 310.943V311.249C303.698 309.989 304.904 308.441 307.046 308.423V309.989C304.472 309.899 303.41 311.123 303.41 312.797V314.993C303.41 316.253 303.5 316.847 304.202 317.279V317.333H300.836ZM312.181 305.561C311.821 304.589 311.569 304.103 311.047 303.761V303.707H314.719V303.761C313.999 304.085 314.053 304.607 314.359 305.525L317.671 315.443L321.055 305.525C321.397 304.517 321.361 304.067 320.785 303.761V303.707H323.431V303.761C322.891 304.085 322.657 304.553 322.297 305.543L318.427 316.361C318.283 316.739 318.247 316.991 318.247 317.333H316.429L312.181 305.561ZM327.236 317.639C324.644 317.639 322.772 315.911 322.772 312.959C322.772 310.061 324.752 308.225 327.29 308.225C329.864 308.225 331.538 309.917 331.574 312.365H324.554V312.671C324.554 314.831 325.544 316.487 327.614 316.487C329.324 316.487 330.26 315.371 330.62 313.949H331.61C331.196 316.001 329.774 317.639 327.236 317.639ZM324.662 311.555H329.792C329.63 310.133 328.784 309.053 327.29 309.053C325.886 309.053 324.95 310.025 324.662 311.555ZM336.625 317.495C335.185 317.495 334.051 316.793 334.051 314.489V309.377H332.197V308.531H334.051V306.101L335.815 304.787H335.887V308.531H338.785V309.377H335.887V314.453C335.887 315.947 336.463 316.343 337.291 316.343C338.083 316.343 338.731 315.893 339.163 315.047L339.361 315.713C338.857 316.829 337.849 317.495 336.625 317.495ZM342.83 317.495C341.39 317.495 340.256 316.793 340.256 314.489V309.377H338.402V308.531H340.256V306.101L342.02 304.787H342.092V308.531H344.99V309.377H342.092V314.453C342.092 315.947 342.668 316.343 343.496 316.343C344.288 316.343 344.936 315.893 345.368 315.047L345.566 315.713C345.062 316.829 344.054 317.495 342.83 317.495ZM350.668 317.639C348.076 317.639 346.204 315.911 346.204 312.959C346.204 310.061 348.184 308.225 350.722 308.225C353.296 308.225 354.97 309.917 355.006 312.365H347.986V312.671C347.986 314.831 348.976 316.487 351.046 316.487C352.756 316.487 353.692 315.371 354.052 313.949H355.042C354.628 316.001 353.206 317.639 350.668 317.639ZM348.094 311.555H353.224C353.062 310.133 352.216 309.053 350.722 309.053C349.318 309.053 348.382 310.025 348.094 311.555ZM363.311 317.333C363.383 316.559 363.419 315.839 363.419 315.011C362.879 316.451 361.781 317.495 360.071 317.495C357.695 317.495 356.381 315.497 356.381 312.941C356.381 310.223 357.875 308.243 360.287 308.243C361.673 308.243 362.789 308.909 363.419 309.971V305.687C363.419 304.589 363.329 304.013 362.807 303.599V303.545L365.255 303.239L365.363 303.293C365.273 303.833 365.255 304.265 365.255 305.687V314.921C365.255 316.199 365.345 316.829 365.957 317.261V317.333H363.311ZM358.307 312.941C358.307 314.921 359.027 316.523 360.737 316.523C362.483 316.523 363.401 314.831 363.401 312.671H363.419V310.943C362.969 309.881 361.979 309.143 360.863 309.143C359.243 309.143 358.307 310.637 358.307 312.941Z" fill="white"/>
<path d="M257.124 408V402.656V392.928C256.132 394.112 254.436 394.944 251.972 394.976V389.568C255.62 389.12 258.724 386.88 259.364 383.776H264.58V402.656V408H257.124Z" fill="white"/>
<path d="M135.044 439V438.928C135.746 438.496 135.836 437.866 135.836 436.588V427.786C135.836 426.436 135.746 425.878 135.044 425.428V425.374H139.724C143.036 425.374 145.106 426.364 145.106 428.902C145.106 431.512 142.748 432.61 139.346 432.61H137.852V436.588C137.852 437.866 137.942 438.496 138.662 438.928V439H135.044ZM137.852 431.728H139.238C141.542 431.728 143.072 430.918 143.072 428.902C143.072 426.976 141.704 426.256 139.58 426.256H137.852V431.728ZM146.041 439V438.928C146.671 438.496 146.779 437.866 146.779 436.588V432.61C146.779 431.26 146.671 430.702 146.041 430.252V430.198H148.867C148.651 430.666 148.615 431.26 148.615 432.61V432.916C148.903 431.656 150.109 430.108 152.251 430.09V431.656C149.677 431.566 148.615 432.79 148.615 434.464V436.66C148.615 437.92 148.705 438.514 149.407 438.946V439H146.041ZM157.539 439.306C154.713 439.306 152.877 437.398 152.877 434.59C152.877 431.764 154.713 429.892 157.539 429.892C160.383 429.892 162.201 431.764 162.201 434.59C162.201 437.398 160.383 439.306 157.539 439.306ZM154.731 434.59C154.731 437.02 155.775 438.46 157.557 438.46C159.303 438.46 160.347 437.02 160.347 434.59C160.347 432.142 159.303 430.738 157.557 430.738C155.775 430.738 154.731 432.142 154.731 434.59ZM163.493 443.32V443.248C164.123 442.87 164.213 442.312 164.213 441.16V432.358C164.213 431.152 164.123 430.648 163.493 430.252V430.198H166.319C166.103 430.594 166.049 431.134 166.049 432.268C166.589 430.9 167.705 429.91 169.433 429.91C171.755 429.91 173.087 431.872 173.087 434.482C173.087 437.182 171.575 439.162 169.199 439.162C167.849 439.162 166.679 438.514 166.049 437.38V441.16C166.049 442.312 166.157 442.87 166.787 443.248V443.32H163.493ZM166.049 436.444C166.553 437.542 167.489 438.262 168.605 438.262C170.225 438.262 171.179 436.786 171.179 434.5C171.179 432.502 170.423 430.882 168.749 430.882C167.021 430.882 166.067 432.538 166.067 434.77L166.049 434.752V436.444ZM178.892 439.306C176.3 439.306 174.428 437.578 174.428 434.626C174.428 431.728 176.408 429.892 178.946 429.892C181.52 429.892 183.194 431.584 183.23 434.032H176.21V434.338C176.21 436.498 177.2 438.154 179.27 438.154C180.98 438.154 181.916 437.038 182.276 435.616H183.266C182.852 437.668 181.43 439.306 178.892 439.306ZM176.318 433.222H181.448C181.286 431.8 180.44 430.72 178.946 430.72C177.542 430.72 176.606 431.692 176.318 433.222ZM184.66 439V438.928C185.29 438.496 185.398 437.866 185.398 436.588V432.61C185.398 431.26 185.29 430.702 184.66 430.252V430.198H187.486C187.27 430.666 187.234 431.26 187.234 432.61V432.916C187.522 431.656 188.728 430.108 190.87 430.09V431.656C188.296 431.566 187.234 432.79 187.234 434.464V436.66C187.234 437.92 187.324 438.514 188.026 438.946V439H184.66ZM195.646 439.162C194.206 439.162 193.072 438.46 193.072 436.156V431.044H191.218V430.198H193.072V427.768L194.836 426.454H194.908V430.198H197.806V431.044H194.908V436.12C194.908 437.614 195.484 438.01 196.312 438.01C197.104 438.01 197.752 437.56 198.184 436.714L198.382 437.38C197.878 438.496 196.87 439.162 195.646 439.162ZM199.739 443.374C199.307 443.374 198.839 443.284 198.551 443.122V441.664C198.839 441.826 199.325 441.97 199.865 441.97C201.143 441.97 201.971 441.16 202.871 439H202.385L199.811 432.376C199.397 431.314 199.109 430.63 198.569 430.252V430.198H201.755V430.252C201.251 430.594 201.431 431.188 201.827 432.304L203.537 437.128L205.265 432.304C205.661 431.224 205.787 430.576 205.283 430.252V430.198H207.659V430.252C207.173 430.612 206.831 431.206 206.417 432.304L203.843 438.982C202.619 442.168 201.485 443.374 199.739 443.374ZM220.145 439.288C215.807 439.288 212.837 436.426 212.837 432.214C212.837 428.002 215.807 425.158 220.145 425.158C224.447 425.158 227.417 428.002 227.417 432.232C227.417 436.444 224.447 439.288 220.145 439.288ZM214.961 432.232C214.961 435.814 216.941 438.352 220.145 438.352C223.331 438.352 225.311 435.814 225.311 432.214C225.311 428.632 223.331 426.112 220.145 426.112C216.941 426.112 214.961 428.632 214.961 432.232ZM229.103 439V438.928C229.751 438.496 229.841 437.866 229.841 436.588V431.044H227.933V430.198H229.841V429.118C229.841 426.292 231.461 425.212 233.207 425.212C234.521 425.212 235.493 425.77 236.105 426.67C236.681 425.356 237.815 424.78 239.129 424.78C240.569 424.78 241.631 425.482 242.189 426.49L241.001 427.39C240.659 426.382 240.101 425.644 239.093 425.644C238.031 425.644 237.455 426.418 237.455 428.002C237.455 428.686 237.491 429.46 237.527 430.198H240.893V431.044H237.563V436.552C237.563 437.848 237.671 438.496 238.445 438.928V439H235.007V438.928C235.637 438.496 235.727 437.866 235.727 436.588V431.044H231.677V436.552C231.677 437.848 231.785 438.496 232.469 438.928V439H229.103ZM231.569 428.524C231.569 429.028 231.605 429.586 231.641 430.198H235.727V428.812C235.727 428.578 235.745 428.362 235.763 428.146C235.421 426.796 234.629 426.004 233.405 426.004C232.289 426.004 231.569 426.724 231.569 428.524ZM245.408 439.306C242.816 439.306 240.944 437.578 240.944 434.626C240.944 431.728 242.924 429.892 245.462 429.892C248.036 429.892 249.71 431.584 249.746 434.032H242.726V434.338C242.726 436.498 243.716 438.154 245.786 438.154C247.496 438.154 248.432 437.038 248.792 435.616H249.782C249.368 437.668 247.946 439.306 245.408 439.306ZM242.834 433.222H247.964C247.802 431.8 246.956 430.72 245.462 430.72C244.058 430.72 243.122 431.692 242.834 433.222ZM251.176 439V438.928C251.806 438.496 251.914 437.866 251.914 436.588V432.61C251.914 431.26 251.806 430.702 251.176 430.252V430.198H254.002C253.786 430.666 253.75 431.26 253.75 432.61V432.916C254.038 431.656 255.244 430.108 257.386 430.09V431.656C254.812 431.566 253.75 432.79 253.75 434.464V436.66C253.75 437.92 253.84 438.514 254.542 438.946V439H251.176ZM262.476 439.306C259.884 439.306 258.012 437.578 258.012 434.626C258.012 431.728 259.992 429.892 262.53 429.892C265.104 429.892 266.778 431.584 266.814 434.032H259.794V434.338C259.794 436.498 260.784 438.154 262.854 438.154C264.564 438.154 265.5 437.038 265.86 435.616H266.85C266.436 437.668 265.014 439.306 262.476 439.306ZM259.902 433.222H265.032C264.87 431.8 264.024 430.72 262.53 430.72C261.126 430.72 260.19 431.692 259.902 433.222ZM275.12 439C275.192 438.226 275.228 437.506 275.228 436.678C274.688 438.118 273.59 439.162 271.88 439.162C269.504 439.162 268.19 437.164 268.19 434.608C268.19 431.89 269.684 429.91 272.096 429.91C273.482 429.91 274.598 430.576 275.228 431.638V427.354C275.228 426.256 275.138 425.68 274.616 425.266V425.212L277.064 424.906L277.172 424.96C277.082 425.5 277.064 425.932 277.064 427.354V436.588C277.064 437.866 277.154 438.496 277.766 438.928V439H275.12ZM270.116 434.608C270.116 436.588 270.836 438.19 272.546 438.19C274.292 438.19 275.21 436.498 275.21 434.338H275.228V432.61C274.778 431.548 273.788 430.81 272.672 430.81C271.052 430.81 270.116 432.304 270.116 434.608ZM288.619 439.306C285.793 439.306 283.957 437.398 283.957 434.59C283.957 431.764 285.793 429.892 288.619 429.892C291.463 429.892 293.281 431.764 293.281 434.59C293.281 437.398 291.463 439.306 288.619 439.306ZM285.811 434.59C285.811 437.02 286.855 438.46 288.637 438.46C290.383 438.46 291.427 437.02 291.427 434.59C291.427 432.142 290.383 430.738 288.637 430.738C286.855 430.738 285.811 432.142 285.811 434.59ZM294.717 439V438.928C295.347 438.496 295.437 437.866 295.437 436.588V432.61C295.437 431.26 295.347 430.702 294.717 430.252V430.198H297.543C297.345 430.612 297.291 431.116 297.273 432.142C297.831 430.9 298.965 429.892 300.693 429.892C302.421 429.892 303.483 430.828 303.483 433.186V436.588C303.483 437.866 303.573 438.496 304.185 438.928V439H300.981V438.928C301.557 438.496 301.647 437.866 301.647 436.588V433.33C301.647 431.692 301.035 430.99 299.847 430.99C298.461 430.99 297.543 432.07 297.273 433.348V436.588C297.273 437.866 297.363 438.496 297.975 438.928V439H294.717ZM310.667 439V438.928C311.369 438.496 311.459 437.866 311.459 436.588V427.786C311.459 426.436 311.369 425.878 310.667 425.428V425.374H315.347C318.659 425.374 320.729 426.364 320.729 428.902C320.729 431.512 318.371 432.61 314.969 432.61H313.475V436.588C313.475 437.866 313.565 438.496 314.285 438.928V439H310.667ZM313.475 431.728H314.861C317.165 431.728 318.695 430.918 318.695 428.902C318.695 426.976 317.327 426.256 315.203 426.256H313.475V431.728ZM321.821 439V438.928C322.487 438.496 322.577 437.866 322.577 436.588V427.354C322.577 426.274 322.451 425.698 321.911 425.284V425.212L324.521 424.906L324.539 424.978C324.449 425.518 324.413 425.932 324.413 427.354V436.588C324.413 437.866 324.503 438.496 325.151 438.928V439H321.821ZM328.93 439.234C327.4 439.234 326.302 438.46 326.302 436.912C326.302 435.274 327.58 434.68 329.812 434.032C331.504 433.546 332.35 433.312 332.368 432.16C332.368 431.206 331.756 430.702 330.658 430.702C329.452 430.702 328.354 431.386 328.336 433.078H326.626C326.77 430.99 328.678 429.874 330.82 429.874C332.674 429.874 334.15 430.666 334.15 432.844V436.75C334.15 437.758 334.456 438.154 334.996 438.154C335.248 438.154 335.446 438.082 335.644 437.92V438.586C335.284 438.928 334.816 439.144 334.186 439.144C333.196 439.144 332.386 438.496 332.386 436.912V436.642C331.918 438.064 330.766 439.234 328.93 439.234ZM328.084 436.678C328.084 437.668 328.732 438.082 329.506 438.082C331.198 438.082 332.368 436.57 332.368 434.41V433.564C332.116 434.14 331.378 434.392 330.28 434.752C328.84 435.22 328.084 435.616 328.084 436.678ZM339.699 439.162C338.259 439.162 337.125 438.46 337.125 436.156V431.044H335.271V430.198H337.125V427.768L338.889 426.454H338.961V430.198H341.859V431.044H338.961V436.12C338.961 437.614 339.537 438.01 340.365 438.01C341.157 438.01 341.805 437.56 342.237 436.714L342.435 437.38C341.931 438.496 340.923 439.162 339.699 439.162ZM343.844 439V438.928C344.474 438.496 344.564 437.866 344.564 436.588V431.044H342.656V430.198H344.564V428.812C344.564 425.968 346.076 424.78 347.966 424.78C349.406 424.78 350.468 425.482 351.026 426.49L349.838 427.39C349.496 426.382 348.938 425.644 347.93 425.644C346.868 425.644 346.292 426.418 346.292 428.002C346.292 428.686 346.328 429.46 346.364 430.198H349.73V431.044H346.4V436.552C346.4 437.848 346.508 438.496 347.282 438.928V439H343.844ZM354.45 439.306C351.624 439.306 349.788 437.398 349.788 434.59C349.788 431.764 351.624 429.892 354.45 429.892C357.294 429.892 359.112 431.764 359.112 434.59C359.112 437.398 357.294 439.306 354.45 439.306ZM351.642 434.59C351.642 437.02 352.686 438.46 354.468 438.46C356.214 438.46 357.258 437.02 357.258 434.59C357.258 432.142 356.214 430.738 354.468 430.738C352.686 430.738 351.642 432.142 351.642 434.59ZM360.529 439V438.928C361.159 438.496 361.267 437.866 361.267 436.588V432.61C361.267 431.26 361.159 430.702 360.529 430.252V430.198H363.355C363.139 430.666 363.103 431.26 363.103 432.61V432.916C363.391 431.656 364.597 430.108 366.739 430.09V431.656C364.165 431.566 363.103 432.79 363.103 434.464V436.66C363.103 437.92 363.193 438.514 363.895 438.946V439H360.529ZM367.754 439V438.928C368.384 438.496 368.474 437.866 368.474 436.588V432.61C368.474 431.26 368.384 430.702 367.754 430.252V430.198H370.526C370.346 430.612 370.292 431.116 370.274 432.124C370.814 430.9 371.93 429.892 373.622 429.892C375.062 429.892 376.034 430.576 376.286 432.25C376.808 430.954 377.942 429.892 379.688 429.892C381.38 429.892 382.424 430.828 382.424 433.186V436.588C382.424 437.866 382.514 438.496 383.108 438.928V439H379.958V438.928C380.534 438.496 380.624 437.866 380.624 436.588V433.33C380.624 431.692 380.012 430.99 378.86 430.99C377.528 430.99 376.646 432.016 376.358 433.258V436.588C376.358 437.866 376.448 438.496 377.042 438.928V439H373.892V438.928C374.468 438.496 374.558 437.866 374.558 436.588V433.33C374.558 431.692 373.946 430.99 372.794 430.99C371.426 430.99 370.526 432.07 370.274 433.348V436.588C370.274 437.866 370.364 438.496 370.958 438.928V439H367.754Z" fill="white"/>
<defs>
<clipPath id="clip0_2999_6201">
<rect width="518" height="112" fill="white" transform="translate(1)"/>
</clipPath>
<clipPath id="clip1_2999_6201">
<rect width="518" height="111" fill="white" transform="translate(1 360)"/>
</clipPath>
<clipPath id="clip2_2999_6201">
<rect width="518" height="112" fill="white" transform="translate(1 240)"/>
</clipPath>
<clipPath id="clip3_2999_6201">
<rect width="518" height="112" fill="white" transform="translate(1 120)"/>
</clipPath>
</defs>
</svg>
