<svg width="519" height="471" viewBox="0 0 519 471" fill="none" xmlns="http://www.w3.org/2000/svg">
<rect width="519" height="471" fill="#F0EEEB"/>
<g opacity="0.5" filter="url(#filter0_f_2962_10310)">
<rect x="260.173" y="133.489" width="145.217" height="145.217" transform="rotate(45 260.173 133.489)" stroke="#16AF7F" stroke-width="24"/>
</g>
<rect x="260" y="180" width="79.4407" height="79.4407" transform="rotate(45 260 180)" fill="#F0EEEB"/>
<rect opacity="0.1" x="260" y="72.9675" width="230.318" height="230.318" transform="rotate(45 260 72.9675)" stroke="#046149" stroke-width="16"/>
<rect opacity="0.05" x="260" y="12.3105" width="316.1" height="316.1" transform="rotate(45 260 12.3105)" stroke="#046149" stroke-width="16"/>
<rect x="260" y="132.314" width="146.879" height="146.879" transform="rotate(45 260 132.314)" stroke="#046149" stroke-width="16"/>
<g opacity="0.5">
<mask id="mask0_2962_10310" style="mask-type:alpha" maskUnits="userSpaceOnUse" x="25" y="0" width="470" height="471">
<rect opacity="0.2" x="260" y="72.9675" width="230.318" height="230.318" transform="rotate(45 260 72.9675)" stroke="#046149" stroke-width="16"/>
<rect opacity="0.1" x="260" y="12.3105" width="316.1" height="316.1" transform="rotate(45 260 12.3105)" stroke="#046149" stroke-width="16"/>
<rect opacity="0.5" x="260" y="132.314" width="146.879" height="146.879" transform="rotate(45 260 132.314)" stroke="#046149" stroke-width="16"/>
</mask>
<g mask="url(#mask0_2962_10310)">
<rect width="260" height="471" fill="#4360AB"/>
</g>
</g>
<path d="M259.374 244.072L258.946 244.57L238.326 221.655C237.96 221.25 237.865 220.662 238.065 220.149C238.354 219.415 238.668 218.699 239.016 218L259.374 244.072Z" fill="#4360AB"/>
<path d="M260.626 244.072L280.984 218C281.332 218.699 281.646 219.415 281.935 220.149C282.135 220.662 282.04 221.25 281.674 221.655L261.054 244.57L260.626 244.072Z" fill="#4360AB"/>
<path d="M258.629 244.939L236.634 222.655C236.367 223.391 236.135 224.139 235.931 224.904C235.789 225.436 235.951 226.01 236.359 226.368L258.128 245.522L258.629 244.939Z" fill="#4360AB"/>
<path d="M257.728 245.986L235.338 227.94C235.181 228.912 235.075 229.901 235.02 230.905C234.992 231.417 235.224 231.905 235.64 232.182L257.196 246.606L257.728 245.986Z" fill="#4360AB"/>
<path d="M256.825 247.038L235 233.969C235.059 235.205 235.196 236.413 235.412 237.601C235.495 238.052 235.793 238.43 236.198 238.617L256.212 247.75L256.825 247.038Z" fill="#4360AB"/>
<path d="M255.795 248.235L236.127 240.782C236.434 241.815 236.803 242.824 237.223 243.804C237.392 244.194 237.73 244.479 238.134 244.585L255.174 248.958L255.795 248.235Z" fill="#4360AB"/>
<path d="M254.761 249.438L238.523 246.419C239.112 247.468 239.768 248.473 240.483 249.429C240.731 249.758 241.108 249.949 241.508 249.961L254.306 250.391C254.309 250.114 254.409 249.847 254.587 249.64L254.761 249.438Z" fill="#4360AB"/>
<path d="M254.306 250.986C250.153 251.139 242.226 251.528 242.226 251.528C242.758 252.105 243.313 252.656 243.892 253.178C244.674 253.886 245.738 254.166 246.744 253.902L254.306 251.945V250.986Z" fill="#4360AB"/>
<path d="M265.694 251.945L273.256 253.902C274.262 254.166 275.326 253.886 276.108 253.178C276.687 252.656 277.242 252.105 277.774 251.528C277.774 251.528 269.847 251.139 265.694 250.986V251.945Z" fill="#4360AB"/>
<path d="M265.694 250.391L278.492 249.961C278.892 249.949 279.269 249.758 279.517 249.429C280.232 248.473 280.888 247.468 281.477 246.419L265.239 249.438L265.413 249.64C265.591 249.847 265.691 250.114 265.694 250.391Z" fill="#4360AB"/>
<path d="M264.826 248.958L281.866 244.585C282.27 244.479 282.608 244.194 282.777 243.804C283.197 242.824 283.566 241.815 283.873 240.782L264.205 248.235L264.826 248.958Z" fill="#4360AB"/>
<path d="M263.788 247.75L283.802 238.617C284.207 238.43 284.505 238.052 284.588 237.601C284.804 236.413 284.941 235.205 285 233.969L263.175 247.038L263.788 247.75Z" fill="#4360AB"/>
<path d="M262.804 246.606L284.36 232.182C284.776 231.905 285.008 231.417 284.98 230.905C284.925 229.901 284.819 228.912 284.662 227.94L262.272 245.986L262.804 246.606Z" fill="#4360AB"/>
<path d="M261.872 245.522L283.641 226.368C284.049 226.01 284.211 225.436 284.069 224.904C283.865 224.139 283.633 223.391 283.366 222.655L261.371 244.939L261.872 245.522Z" fill="#4360AB"/>
<path d="M214.863 64V61.32V51.54V48.86H223.743V50.48C221.963 50.46 220.583 50.46 219.643 50.46H217.083V55.34H218.563C219.763 55.34 220.983 55.34 222.743 55.3V56.92C220.983 56.88 219.763 56.88 218.563 56.88H217.083V62.4H219.723C220.683 62.4 222.203 62.4 223.883 62.38V64H214.863ZM230.036 64.34C227.176 64.34 224.996 62.4 224.996 59.06C224.996 55.76 227.156 53.88 230.136 53.88C232.896 53.88 234.676 55.58 235.036 57.66H233.116C232.856 56.64 232.056 55.42 230.156 55.42C228.036 55.42 226.996 57 226.996 59.06C226.996 61.1 228.036 62.8 230.156 62.8C232.136 62.8 232.956 61.44 233.156 60.1H235.076C234.816 62.36 233.136 64.34 230.036 64.34ZM241.603 64.34C238.323 64.34 236.383 62.18 236.383 59.1C236.383 56.02 238.323 53.88 241.603 53.88C244.883 53.88 246.803 56.02 246.803 59.1C246.803 62.18 244.883 64.34 241.603 64.34ZM238.363 59.1C238.363 61.5 239.683 62.78 241.603 62.78C243.523 62.78 244.823 61.5 244.823 59.1C244.823 56.72 243.523 55.44 241.603 55.44C239.683 55.44 238.363 56.72 238.363 59.1ZM248.977 64V61.32V56.9V54.22H251.017V56.14C251.657 54.9 252.897 53.88 254.817 53.88C256.737 53.88 257.977 54.96 257.977 57.68V61.32V64H255.937V61.32V58.04C255.937 56.26 255.257 55.46 253.877 55.46C252.257 55.46 251.217 56.7 251.017 58.1V61.32V64H248.977ZM265.275 64.34C261.995 64.34 260.055 62.18 260.055 59.1C260.055 56.02 261.995 53.88 265.275 53.88C268.555 53.88 270.475 56.02 270.475 59.1C270.475 62.18 268.555 64.34 265.275 64.34ZM262.035 59.1C262.035 61.5 263.355 62.78 265.275 62.78C267.195 62.78 268.495 61.5 268.495 59.1C268.495 56.72 267.195 55.44 265.275 55.44C263.355 55.44 262.035 56.72 262.035 59.1ZM272.649 64V61.32V56.9V54.22H274.649V56.1C275.289 54.88 276.489 53.88 278.349 53.88C279.889 53.88 280.989 54.6 281.329 56.34C281.929 55.02 283.169 53.88 285.149 53.88C287.029 53.88 288.249 54.96 288.249 57.68V61.32V64H286.249V61.32V58.04C286.249 56.26 285.589 55.46 284.229 55.46C282.689 55.46 281.689 56.62 281.449 57.98V61.32V64H279.449V61.32V58.04C279.449 56.26 278.789 55.46 277.429 55.46C275.889 55.46 274.889 56.62 274.649 57.98V61.32V64H272.649ZM291.008 64V61.32V56.9V54.22H293.048V61.32V64H291.008ZM290.928 51.78V49.5H293.128V51.78H290.928ZM300.29 64.34C297.43 64.34 295.25 62.4 295.25 59.06C295.25 55.76 297.41 53.88 300.39 53.88C303.15 53.88 304.93 55.58 305.29 57.66H303.37C303.11 56.64 302.31 55.42 300.41 55.42C298.29 55.42 297.25 57 297.25 59.06C297.25 61.1 298.29 62.8 300.41 62.8C302.39 62.8 303.21 61.44 303.41 60.1H305.33C305.07 62.36 303.39 64.34 300.29 64.34ZM209.248 84V81.32V71.54V68.86H214.088C219.448 68.86 222.948 71.92 222.948 76.42C222.948 80.96 219.468 84 214.108 84H209.248ZM211.468 82.36H214.028C218.088 82.36 220.688 79.98 220.688 76.44C220.688 72.88 218.108 70.5 214.028 70.5H211.468V82.36ZM229.699 84.34C226.419 84.34 224.479 82.18 224.479 79.1C224.479 76.02 226.419 73.88 229.699 73.88C232.979 73.88 234.899 76.02 234.899 79.1C234.899 82.18 232.979 84.34 229.699 84.34ZM226.459 79.1C226.459 81.5 227.779 82.78 229.699 82.78C231.619 82.78 232.919 81.5 232.919 79.1C232.919 76.72 231.619 75.44 229.699 75.44C227.779 75.44 226.459 76.72 226.459 79.1ZM236.356 75.62C236.216 75.22 235.996 74.64 235.836 74.22H238.076C238.196 74.62 238.396 75.22 238.536 75.62L240.396 81.14L242.296 74.56H243.796L245.736 81.16L247.576 75.6L248.056 74.22H250.076L249.576 75.64L246.956 82.96C246.816 83.36 246.676 83.7 246.636 84H244.976L242.996 77.08L241.336 82.76C241.156 83.4 241.056 83.7 240.996 84H239.336L236.356 75.62ZM251.818 84V81.32V76.9V74.22H253.858V76.14C254.498 74.9 255.738 73.88 257.658 73.88C259.578 73.88 260.818 74.96 260.818 77.68V81.32V84H258.778V81.32V78.04C258.778 76.26 258.098 75.46 256.718 75.46C255.098 75.46 254.058 76.7 253.858 78.1V81.32V84H251.818ZM267.199 84.18C265.459 84.18 264.179 83.32 264.179 80.66V75.66H262.079V74.22H264.179V71.48L266.159 70.04H266.219V74.22H269.379V75.66H266.219V80.62C266.219 82.2 266.939 82.64 267.839 82.64C268.659 82.64 269.299 82.28 269.739 81.68L270.019 83C269.579 83.58 268.619 84.18 267.199 84.18ZM274.703 84.28C272.763 84.28 271.523 83.2 271.523 80.46V76.9V74.22H273.563V76.9V80.16C273.563 81.94 274.263 82.7 275.543 82.7C277.203 82.7 278.143 81.54 278.443 79.92V76.9V74.22H280.483V76.9V81.32V84H278.443V81.94C277.803 83.18 276.523 84.28 274.703 84.28ZM283.322 84V81.32V76.9V74.22H285.362V76.9C285.682 75.72 286.882 74.18 289.282 74.16V75.9C286.682 75.9 285.402 77.04 285.362 79.16V81.32V84H283.322ZM290.998 84V81.32V76.9V74.22H293.038V76.14C293.678 74.9 294.918 73.88 296.838 73.88C298.758 73.88 299.998 74.96 299.998 77.68V81.32V84H297.958V81.32V78.04C297.958 76.26 297.278 75.46 295.898 75.46C294.278 75.46 293.238 76.7 293.038 78.1V81.32V84H290.998ZM306.736 84.34C304.076 84.34 302.216 83.02 301.956 80.7H303.916C304.116 82.06 305.076 82.82 306.776 82.82C307.816 82.82 308.736 82.5 308.736 81.64C308.736 80.7 307.576 80.38 305.916 79.78C303.936 79.06 302.396 78.46 302.396 76.66C302.396 74.82 303.976 73.86 306.256 73.86C308.896 73.86 310.336 75.12 310.636 77.04H308.676C308.516 76 307.636 75.36 306.256 75.36C305.076 75.36 304.316 75.74 304.316 76.5C304.316 77.34 305.096 77.68 307.116 78.36C309.476 79.16 310.736 79.84 310.736 81.48C310.736 83.44 308.936 84.34 306.736 84.34Z" fill="#293036"/>
<path d="M236.03 402L228.83 390.1V399.32V402H226.65V399.32V389.54V386.86H228.97L236.17 398.72V389.54V386.86H238.35V389.54V402H236.03ZM243.729 402.28C241.929 402.28 240.669 401.4 240.669 399.64C240.669 397.72 242.169 397.1 244.669 396.36C246.489 395.82 247.449 395.56 247.449 394.56C247.449 393.74 246.769 393.32 245.529 393.32C243.969 393.32 242.929 394.08 242.889 395.46H240.929C241.149 393.34 242.869 391.86 245.649 391.86C247.789 391.86 249.429 392.74 249.429 395.1V399.02C249.429 400.36 249.829 400.76 250.469 400.76C250.649 400.76 250.909 400.72 251.069 400.58V401.8C250.809 401.98 250.329 402.14 249.709 402.14C248.629 402.14 247.649 401.48 247.549 399.84C246.969 401.14 245.729 402.28 243.729 402.28ZM242.649 399.54C242.649 400.5 243.369 400.84 244.129 400.84C246.029 400.84 247.469 399.2 247.469 396.96V396.34C247.169 397.02 246.309 397.28 245.109 397.68C243.409 398.24 242.649 398.58 242.649 399.54ZM255.91 402.18C254.17 402.18 252.89 401.32 252.89 398.66V393.66H250.79V392.22H252.89V389.48L254.87 388.04H254.93V392.22H258.09V393.66H254.93V398.62C254.93 400.2 255.65 400.64 256.55 400.64C257.37 400.64 258.01 400.28 258.45 399.68L258.73 401C258.29 401.58 257.33 402.18 255.91 402.18ZM263.414 402.28C261.474 402.28 260.234 401.2 260.234 398.46V394.9V392.22H262.274V394.9V398.16C262.274 399.94 262.974 400.7 264.254 400.7C265.914 400.7 266.854 399.54 267.154 397.92V394.9V392.22H269.194V394.9V399.32V402H267.154V399.94C266.514 401.18 265.234 402.28 263.414 402.28ZM272.033 402V399.32V394.9V392.22H274.073V394.9C274.393 393.72 275.593 392.18 277.993 392.16V393.9C275.393 393.9 274.113 395.04 274.073 397.16V399.32V402H272.033ZM281.678 402.28C279.878 402.28 278.618 401.4 278.618 399.64C278.618 397.72 280.118 397.1 282.618 396.36C284.438 395.82 285.398 395.56 285.398 394.56C285.398 393.74 284.718 393.32 283.478 393.32C281.918 393.32 280.878 394.08 280.838 395.46H278.878C279.098 393.34 280.818 391.86 283.598 391.86C285.738 391.86 287.378 392.74 287.378 395.1V399.02C287.378 400.36 287.778 400.76 288.418 400.76C288.598 400.76 288.858 400.72 289.018 400.58V401.8C288.758 401.98 288.278 402.14 287.658 402.14C286.578 402.14 285.598 401.48 285.498 399.84C284.918 401.14 283.678 402.28 281.678 402.28ZM280.598 399.54C280.598 400.5 281.318 400.84 282.078 400.84C283.978 400.84 285.418 399.2 285.418 396.96V396.34C285.118 397.02 284.258 397.28 283.058 397.68C281.358 398.24 280.598 398.58 280.598 399.54ZM290.608 402V399.32V389.04V386.4H292.648V389.04V399.32V402H290.608ZM216.338 422V419.32V409.54V406.86H221.178C226.538 406.86 230.038 409.92 230.038 414.42C230.038 418.96 226.558 422 221.198 422H216.338ZM218.558 420.36H221.118C225.178 420.36 227.778 417.98 227.778 414.44C227.778 410.88 225.198 408.5 221.118 408.5H218.558V420.36ZM232.249 422V419.32V414.9V412.22H234.289V419.32V422H232.249ZM232.169 409.78V407.5H234.369V409.78H232.169ZM241.15 422.34C238.49 422.34 236.63 421.02 236.37 418.7H238.33C238.53 420.06 239.49 420.82 241.19 420.82C242.23 420.82 243.15 420.5 243.15 419.64C243.15 418.7 241.99 418.38 240.33 417.78C238.35 417.06 236.81 416.46 236.81 414.66C236.81 412.82 238.39 411.86 240.67 411.86C243.31 411.86 244.75 413.12 245.05 415.04H243.09C242.93 414 242.05 413.36 240.67 413.36C239.49 413.36 238.73 413.74 238.73 414.5C238.73 415.34 239.51 415.68 241.53 416.36C243.89 417.16 245.15 417.84 245.15 419.48C245.15 421.44 243.35 422.34 241.15 422.34ZM249.686 422.28C247.886 422.28 246.626 421.4 246.626 419.64C246.626 417.72 248.126 417.1 250.626 416.36C252.446 415.82 253.406 415.56 253.406 414.56C253.406 413.74 252.726 413.32 251.486 413.32C249.926 413.32 248.886 414.08 248.846 415.46H246.886C247.106 413.34 248.826 411.86 251.606 411.86C253.746 411.86 255.386 412.74 255.386 415.1V419.02C255.386 420.36 255.786 420.76 256.426 420.76C256.606 420.76 256.866 420.72 257.026 420.58V421.8C256.766 421.98 256.286 422.14 255.666 422.14C254.586 422.14 253.606 421.48 253.506 419.84C252.926 421.14 251.686 422.28 249.686 422.28ZM248.606 419.54C248.606 420.5 249.326 420.84 250.086 420.84C251.986 420.84 253.426 419.2 253.426 416.96V416.34C253.126 417.02 252.266 417.28 251.066 417.68C249.366 418.24 248.606 418.58 248.606 419.54ZM262.596 422.34C259.936 422.34 258.076 421.02 257.816 418.7H259.776C259.976 420.06 260.936 420.82 262.636 420.82C263.676 420.82 264.596 420.5 264.596 419.64C264.596 418.7 263.436 418.38 261.776 417.78C259.796 417.06 258.256 416.46 258.256 414.66C258.256 412.82 259.836 411.86 262.116 411.86C264.756 411.86 266.196 413.12 266.496 415.04H264.536C264.376 414 263.496 413.36 262.116 413.36C260.936 413.36 260.176 413.74 260.176 414.5C260.176 415.34 260.956 415.68 262.976 416.36C265.336 417.16 266.596 417.84 266.596 419.48C266.596 421.44 264.796 422.34 262.596 422.34ZM272.375 422.18C270.635 422.18 269.355 421.32 269.355 418.66V413.66H267.255V412.22H269.355V409.48L271.335 408.04H271.395V412.22H274.555V413.66H271.395V418.62C271.395 420.2 272.115 420.64 273.015 420.64C273.835 420.64 274.475 420.28 274.915 419.68L275.195 421C274.755 421.58 273.795 422.18 272.375 422.18ZM281.024 422.34C278.124 422.34 275.944 420.5 275.944 417.1C275.944 413.94 278.084 411.88 280.964 411.88C283.924 411.88 285.964 413.86 285.984 416.94H277.824V417.06C277.824 419.24 279.004 420.8 281.084 420.8C282.904 420.8 283.784 419.58 284.004 418.48H285.924C285.584 420.4 284.004 422.34 281.024 422.34ZM278.024 415.58H283.944C283.604 414.3 282.604 413.38 281.004 413.38C279.504 413.38 278.464 414.22 278.024 415.58ZM288.127 422V419.32V414.9V412.22H290.167V414.9C290.487 413.72 291.687 412.18 294.087 412.16V413.9C291.487 413.9 290.207 415.04 290.167 417.16V419.32V422H288.127ZM299.647 422.34C296.987 422.34 295.127 421.02 294.867 418.7H296.827C297.027 420.06 297.987 420.82 299.687 420.82C300.727 420.82 301.647 420.5 301.647 419.64C301.647 418.7 300.487 418.38 298.827 417.78C296.847 417.06 295.307 416.46 295.307 414.66C295.307 412.82 296.887 411.86 299.167 411.86C301.807 411.86 303.247 413.12 303.547 415.04H301.587C301.427 414 300.547 413.36 299.167 413.36C297.987 413.36 297.227 413.74 297.227 414.5C297.227 415.34 298.007 415.68 300.027 416.36C302.387 417.16 303.647 417.84 303.647 419.48C303.647 421.44 301.847 422.34 299.647 422.34Z" fill="#293036"/>
<path d="M407.881 233V230.32V220.54V217.86H416.761V219.48C414.981 219.46 413.601 219.46 412.661 219.46H410.101V224.34H411.581C412.781 224.34 414.001 224.34 415.761 224.3V225.92C414.001 225.88 412.781 225.88 411.581 225.88H410.101V231.4H412.741C413.701 231.4 415.221 231.4 416.901 231.38V233H407.881ZM425.128 233L423.788 231.22L422.428 229.46L421.188 231.22C420.748 231.84 420.328 232.46 419.928 233H417.688C418.168 232.4 418.688 231.72 419.148 231.12L421.428 228.16L419.048 225.08C418.568 224.44 418.088 223.84 417.608 223.22H420.008L421.348 224.98L422.628 226.64L423.808 225L425.108 223.22H427.308L425.868 225.08L423.628 227.96L426.088 231.14C426.448 231.6 427.048 232.38 427.548 233H425.128ZM432.922 233.18C431.182 233.18 429.902 232.32 429.902 229.66V224.66H427.802V223.22H429.902V220.48L431.882 219.04H431.942V223.22H435.102V224.66H431.942V229.62C431.942 231.2 432.662 231.64 433.562 231.64C434.382 231.64 435.022 231.28 435.462 230.68L435.742 232C435.302 232.58 434.342 233.18 432.922 233.18ZM441.57 233.34C438.67 233.34 436.49 231.5 436.49 228.1C436.49 224.94 438.63 222.88 441.51 222.88C444.47 222.88 446.51 224.86 446.53 227.94H438.37V228.06C438.37 230.24 439.55 231.8 441.63 231.8C443.45 231.8 444.33 230.58 444.55 229.48H446.47C446.13 231.4 444.55 233.34 441.57 233.34ZM438.57 226.58H444.49C444.15 225.3 443.15 224.38 441.55 224.38C440.05 224.38 439.01 225.22 438.57 226.58ZM448.674 233V230.32V225.9V223.22H450.714V225.9C451.034 224.72 452.234 223.18 454.634 223.16V224.9C452.034 224.9 450.754 226.04 450.714 228.16V230.32V233H448.674ZM456.35 233V230.32V225.9V223.22H458.39V225.14C459.03 223.9 460.27 222.88 462.19 222.88C464.11 222.88 465.35 223.96 465.35 226.68V230.32V233H463.31V230.32V227.04C463.31 225.26 462.63 224.46 461.25 224.46C459.63 224.46 458.59 225.7 458.39 227.1V230.32V233H456.35ZM470.448 233.28C468.648 233.28 467.388 232.4 467.388 230.64C467.388 228.72 468.888 228.1 471.388 227.36C473.208 226.82 474.168 226.56 474.168 225.56C474.168 224.74 473.488 224.32 472.248 224.32C470.688 224.32 469.648 225.08 469.608 226.46H467.648C467.868 224.34 469.588 222.86 472.368 222.86C474.508 222.86 476.148 223.74 476.148 226.1V230.02C476.148 231.36 476.548 231.76 477.188 231.76C477.368 231.76 477.628 231.72 477.788 231.58V232.8C477.528 232.98 477.048 233.14 476.428 233.14C475.348 233.14 474.368 232.48 474.268 230.84C473.688 232.14 472.448 233.28 470.448 233.28ZM469.368 230.54C469.368 231.5 470.088 231.84 470.848 231.84C472.748 231.84 474.188 230.2 474.188 227.96V227.34C473.888 228.02 473.028 228.28 471.828 228.68C470.128 229.24 469.368 229.58 469.368 230.54ZM479.378 233V230.32V220.04V217.4H481.418V220.04V230.32V233H479.378ZM400.185 253V250.32V240.54V237.86H404.605C408.585 237.86 410.425 239.28 410.425 242C410.425 244.76 408.445 246.38 404.345 246.38H402.405V250.32V253H400.185ZM402.405 244.78H404.325C407.065 244.78 408.245 243.84 408.245 242C408.245 240.24 407.105 239.46 404.585 239.46H402.405V244.78ZM412.014 253V250.32V245.9V243.22H414.054V245.9C414.374 244.72 415.574 243.18 417.974 243.16V244.9C415.374 244.9 414.094 246.04 414.054 248.16V250.32V253H412.014ZM423.778 253.34C420.877 253.34 418.698 251.5 418.698 248.1C418.698 244.94 420.838 242.88 423.718 242.88C426.678 242.88 428.718 244.86 428.738 247.94H420.577V248.06C420.577 250.24 421.758 251.8 423.838 251.8C425.658 251.8 426.538 250.58 426.758 249.48H428.678C428.338 251.4 426.758 253.34 423.778 253.34ZM420.778 246.58H426.698C426.358 245.3 425.358 244.38 423.758 244.38C422.258 244.38 421.218 245.22 420.778 246.58ZM434.881 253.34C432.221 253.34 430.361 252.02 430.101 249.7H432.061C432.261 251.06 433.221 251.82 434.921 251.82C435.961 251.82 436.881 251.5 436.881 250.64C436.881 249.7 435.721 249.38 434.061 248.78C432.081 248.06 430.541 247.46 430.541 245.66C430.541 243.82 432.121 242.86 434.401 242.86C437.041 242.86 438.481 244.12 438.781 246.04H436.821C436.661 245 435.781 244.36 434.401 244.36C433.221 244.36 432.461 244.74 432.461 245.5C432.461 246.34 433.241 246.68 435.261 247.36C437.621 248.16 438.881 248.84 438.881 250.48C438.881 252.44 437.081 253.34 434.881 253.34ZM445.057 253.34C442.397 253.34 440.537 252.02 440.277 249.7H442.237C442.437 251.06 443.397 251.82 445.097 251.82C446.137 251.82 447.057 251.5 447.057 250.64C447.057 249.7 445.897 249.38 444.237 248.78C442.257 248.06 440.717 247.46 440.717 245.66C440.717 243.82 442.297 242.86 444.577 242.86C447.217 242.86 448.657 244.12 448.957 246.04H446.997C446.837 245 445.957 244.36 444.577 244.36C443.397 244.36 442.637 244.74 442.637 245.5C442.637 246.34 443.417 246.68 445.437 247.36C447.797 248.16 449.057 248.84 449.057 250.48C449.057 252.44 447.257 253.34 445.057 253.34ZM454.313 253.28C452.373 253.28 451.132 252.2 451.132 249.46V245.9V243.22H453.173V245.9V249.16C453.173 250.94 453.873 251.7 455.153 251.7C456.813 251.7 457.753 250.54 458.053 248.92V245.9V243.22H460.092V245.9V250.32V253H458.053V250.94C457.413 252.18 456.133 253.28 454.313 253.28ZM462.932 253V250.32V245.9V243.22H464.972V245.9C465.292 244.72 466.492 243.18 468.892 243.16V244.9C466.292 244.9 465.012 246.04 464.972 248.16V250.32V253H462.932ZM474.695 253.34C471.795 253.34 469.615 251.5 469.615 248.1C469.615 244.94 471.755 242.88 474.635 242.88C477.595 242.88 479.635 244.86 479.655 247.94H471.495V248.06C471.495 250.24 472.675 251.8 474.755 251.8C476.575 251.8 477.455 250.58 477.675 249.48H479.595C479.255 251.4 477.675 253.34 474.695 253.34ZM471.695 246.58H477.615C477.275 245.3 476.275 244.38 474.675 244.38C473.175 244.38 472.135 245.22 471.695 246.58ZM485.799 253.34C483.139 253.34 481.279 252.02 481.019 249.7H482.979C483.179 251.06 484.139 251.82 485.839 251.82C486.879 251.82 487.799 251.5 487.799 250.64C487.799 249.7 486.639 249.38 484.979 248.78C482.999 248.06 481.459 247.46 481.459 245.66C481.459 243.82 483.039 242.86 485.319 242.86C487.959 242.86 489.399 244.12 489.699 246.04H487.739C487.579 245 486.699 244.36 485.319 244.36C484.139 244.36 483.379 244.74 483.379 245.5C483.379 246.34 484.159 246.68 486.179 247.36C488.539 248.16 489.799 248.84 489.799 250.48C489.799 252.44 487.999 253.34 485.799 253.34Z" fill="#293036"/>
<path d="M41.1802 233.18L35.9802 220.74V230.32V233H33.9002V230.32V220.54V217.86H36.7202L41.6002 229.74L46.4402 217.86H49.2602V220.54V230.32V233H47.0802V230.32V220.8L41.9402 233.18H41.1802ZM54.6511 233.28C52.8511 233.28 51.5911 232.4 51.5911 230.64C51.5911 228.72 53.0911 228.1 55.5911 227.36C57.4111 226.82 58.3711 226.56 58.3711 225.56C58.3711 224.74 57.6911 224.32 56.4511 224.32C54.8911 224.32 53.8511 225.08 53.8111 226.46H51.8511C52.0711 224.34 53.7911 222.86 56.5711 222.86C58.7111 222.86 60.3511 223.74 60.3511 226.1V230.02C60.3511 231.36 60.7511 231.76 61.3911 231.76C61.5711 231.76 61.8311 231.72 61.9911 231.58V232.8C61.7311 232.98 61.2511 233.14 60.6311 233.14C59.5511 233.14 58.5711 232.48 58.4711 230.84C57.8911 232.14 56.6511 233.28 54.6511 233.28ZM53.5711 230.54C53.5711 231.5 54.2911 231.84 55.0511 231.84C56.9511 231.84 58.3911 230.2 58.3911 227.96V227.34C58.0911 228.02 57.2311 228.28 56.0311 228.68C54.3311 229.24 53.5711 229.58 53.5711 230.54ZM63.5606 233V230.32V225.9V223.22H65.6006V225.9C65.9206 224.72 67.1206 223.18 69.5206 223.16V224.9C66.9206 224.9 65.6406 226.04 65.6006 228.16V230.32V233H63.5606ZM77.6411 233L73.1011 228.06V230.32V233H71.0611V230.32V220.04V217.46V217.4H73.1011V220.04V226.88L75.9811 224.44C76.3811 224.1 76.9411 223.58 77.3411 223.22H79.5011V223.36C79.0411 223.76 78.5811 224.14 78.1011 224.54L74.7411 227.34L80.0211 232.88V233H77.6411ZM85.1486 233.34C82.2486 233.34 80.0686 231.5 80.0686 228.1C80.0686 224.94 82.2086 222.88 85.0886 222.88C88.0486 222.88 90.0886 224.86 90.1086 227.94H81.9486V228.06C81.9486 230.24 83.1286 231.8 85.2086 231.8C87.0286 231.8 87.9086 230.58 88.1286 229.48H90.0486C89.7086 231.4 88.1286 233.34 85.1486 233.34ZM82.1486 226.58H88.0686C87.7286 225.3 86.7286 224.38 85.1286 224.38C83.6286 224.38 82.5886 225.22 82.1486 226.58ZM95.8358 233.18C94.0958 233.18 92.8158 232.32 92.8158 229.66V224.66H90.7158V223.22H92.8158V220.48L94.7958 219.04H94.8558V223.22H98.0158V224.66H94.8558V229.62C94.8558 231.2 95.5758 231.64 96.4758 231.64C97.2958 231.64 97.9358 231.28 98.3758 230.68L98.6558 232C98.2158 232.58 97.2558 233.18 95.8358 233.18ZM25.9661 239.5C25.7861 239.02 25.5461 238.38 25.3861 237.86H27.7261C27.8861 238.4 28.0661 238.96 28.2261 239.48L31.9061 250.64L35.4661 239.48C35.6261 238.96 35.8061 238.38 35.9861 237.86H38.2661C38.0861 238.4 37.8861 239.02 37.7261 239.48L33.3261 252.12C33.2061 252.4 33.1061 252.72 33.0461 253H30.7061L25.9661 239.5ZM43.1792 253.34C39.8992 253.34 37.9592 251.18 37.9592 248.1C37.9592 245.02 39.8992 242.88 43.1792 242.88C46.4592 242.88 48.3792 245.02 48.3792 248.1C48.3792 251.18 46.4592 253.34 43.1792 253.34ZM39.9392 248.1C39.9392 250.5 41.2592 251.78 43.1792 251.78C45.0992 251.78 46.3992 250.5 46.3992 248.1C46.3992 245.72 45.0992 244.44 43.1792 244.44C41.2592 244.44 39.9392 245.72 39.9392 248.1ZM50.5728 253V250.32V240.04V237.4H52.6128V240.04V250.32V253H50.5728ZM57.6394 253.28C55.8394 253.28 54.5794 252.4 54.5794 250.64C54.5794 248.72 56.0794 248.1 58.5794 247.36C60.3994 246.82 61.3594 246.56 61.3594 245.56C61.3594 244.74 60.6794 244.32 59.4394 244.32C57.8794 244.32 56.8394 245.08 56.7994 246.46H54.8394C55.0594 244.34 56.7794 242.86 59.5594 242.86C61.6994 242.86 63.3394 243.74 63.3394 246.1V250.02C63.3394 251.36 63.7394 251.76 64.3794 251.76C64.5594 251.76 64.8194 251.72 64.9794 251.58V252.8C64.7194 252.98 64.2394 253.14 63.6194 253.14C62.5394 253.14 61.5594 252.48 61.4594 250.84C60.8794 252.14 59.6394 253.28 57.6394 253.28ZM56.5594 250.54C56.5594 251.5 57.2794 251.84 58.0394 251.84C59.9394 251.84 61.3794 250.2 61.3794 247.96V247.34C61.0794 248.02 60.2194 248.28 59.0194 248.68C57.3194 249.24 56.5594 249.58 56.5594 250.54ZM69.8202 253.18C68.0802 253.18 66.8002 252.32 66.8002 249.66V244.66H64.7002V243.22H66.8002V240.48L68.7802 239.04H68.8402V243.22H72.0002V244.66H68.8402V249.62C68.8402 251.2 69.5602 251.64 70.4602 251.64C71.2802 251.64 71.9202 251.28 72.3602 250.68L72.6402 252C72.2002 252.58 71.2402 253.18 69.8202 253.18ZM74.2642 253V250.32V245.9V243.22H76.3042V250.32V253H74.2642ZM74.1842 240.78V238.5H76.3842V240.78H74.1842ZM79.1861 253V250.32V240.04V237.4H81.2261V240.04V250.32V253H79.1861ZM84.108 253V250.32V245.9V243.22H86.148V250.32V253H84.108ZM84.028 240.78V238.5H86.228V240.78H84.028ZM92.7498 253.18C91.0098 253.18 89.7298 252.32 89.7298 249.66V244.66H87.6298V243.22H89.7298V240.48L91.7098 239.04H91.7698V243.22H94.9298V244.66H91.7698V249.62C91.7698 251.2 92.4898 251.64 93.3898 251.64C94.2098 251.64 94.8498 251.28 95.2898 250.68L95.5698 252C95.1298 252.58 94.1698 253.18 92.7498 253.18ZM97.1363 257.86C96.5363 257.86 96.0363 257.74 95.7563 257.56V256.04C95.9963 256.18 96.4963 256.28 97.0163 256.28C98.2962 256.28 99.0963 255.52 100.116 253H99.7163L96.7963 245.4L95.9563 243.22H98.2363L98.9563 245.34L100.816 250.72L102.636 245.34C102.876 244.64 103.156 243.8 103.336 243.22H105.596C105.316 243.9 105.036 244.62 104.756 245.34L101.836 252.92C100.376 256.72 98.9763 257.86 97.1363 257.86Z" fill="#293036"/>
<defs>
<filter id="filter0_f_2962_10310" x="60.5186" y="36.5188" width="399.309" height="399.308" filterUnits="userSpaceOnUse" color-interpolation-filters="sRGB">
<feFlood flood-opacity="0" result="BackgroundImageFix"/>
<feBlend mode="normal" in="SourceGraphic" in2="BackgroundImageFix" result="shape"/>
<feGaussianBlur stdDeviation="40" result="effect1_foregroundBlur_2962_10310"/>
</filter>
</defs>
</svg>
