<svg width="372" height="32" viewBox="0 0 372 32" fill="none" xmlns="http://www.w3.org/2000/svg">
<path d="M125.542 17.6616L125.314 9.52812C124.977 9.56954 124.614 9.62218 124.445 9.63508C123.739 9.52079 123.164 9.64235 122.886 9.53085C123.028 9.23461 121.24 9.54128 121.33 9.55944C121.025 9.4852 120.08 9.42762 119.759 9.4034C119.412 9.70058 118.256 9.41476 118.215 9.50725C118.278 9.23686 116.285 10.157 116.438 9.93607C116.428 9.57406 115.63 9.35306 115.631 9.35827C115.619 8.93115 113.642 9.51457 113.643 9.53801C113.642 9.49894 112.292 9.25808 112.295 9.37267C112.286 9.04712 110.923 9.3097 110.92 9.18209C110.91 8.84612 109.481 8.62849 109.488 8.8707C109.476 8.46963 107.831 8.79286 107.833 8.8788C107.83 8.77723 106.249 8.86914 106.258 9.18687C106.265 9.43429 104.772 9.49747 104.77 9.3959C104.768 9.336 103.115 9.404 103.115 9.404C103.112 9.30764 101.503 9.31961 101.509 9.54619C101.51 9.57484 100.351 9.82345 100.353 9.89377C100.355 9.96409 98.7604 10.192 98.7551 10.0018C98.7564 10.0487 97.6759 9.904 97.6891 10.3728C97.6816 10.1071 96.4153 10.6301 96.4159 10.6509C96.4204 10.815 94.9567 10.6427 94.9619 10.8276C94.9531 10.5151 93.414 11.1453 93.412 11.075C93.4177 11.2781 91.7685 10.8377 91.7753 11.08C91.7772 11.1477 90.3788 11.0881 90.3739 10.911C90.3698 10.7652 88.9014 10.7468 88.9057 10.8979C88.9078 10.9734 87.5453 10.9232 87.5403 10.7461C87.5405 10.7513 86.071 10.3759 86.0777 10.6155C86.0751 10.5217 84.5163 10.4487 84.5171 10.4774C84.5194 10.5607 83.069 10.865 83.0688 10.8572C83.0767 11.1411 81.3791 10.5614 81.3816 10.65C81.3789 10.551 79.8588 10.5916 79.8648 10.8051C79.868 10.9197 78.5255 11.2677 78.522 11.1427C78.5206 11.0906 76.9097 11.0661 76.9122 11.1547C76.912 11.1468 75.5684 11.4532 75.5685 11.4558C75.5606 11.1745 74.0417 11.5747 74.0413 11.5617C74.0386 11.4653 72.515 11.6963 72.514 11.6598C72.5178 11.7952 71.0892 11.9269 71.0877 11.8722C71.0893 11.9295 69.6213 12.2421 69.6157 12.0442C69.6237 12.3281 68.1353 12.5449 68.1264 12.2298C68.1302 12.3652 66.5212 12.0878 66.5207 12.0696C66.5271 12.2988 64.984 12.1524 64.9844 12.168C64.9804 12.0248 63.4177 12.4472 63.4133 12.2909C63.4092 12.145 61.8383 12.2783 61.8399 12.333C61.8311 12.0205 60.3348 12.2741 60.333 12.209C60.3355 12.3001 58.7793 12.3209 58.7766 12.2219C58.7769 12.235 57.1581 12.2446 57.1604 12.3253C57.1619 12.38 55.7404 12.1283 55.7392 12.0866C55.7422 12.1908 54.0979 12.2429 54.0976 12.2325C54.0937 12.0944 52.4999 12.0434 52.5071 12.3012C52.5022 12.1241 51.0253 12.437 51.0181 12.1818C51.0168 12.1349 49.4734 12.2935 49.4707 12.1971C49.4728 12.2727 47.9923 11.822 47.9953 11.9288C47.9905 11.7569 46.4271 11.8378 46.4273 11.8456C46.4299 11.9394 44.849 12.0313 44.8513 12.1146C44.8535 12.1902 43.3032 12.1065 43.307 12.2419C43.3067 12.2315 41.6163 11.907 41.6215 12.092C41.6262 12.2612 40.1884 12.3801 40.1901 12.44C40.1938 12.5728 39.6682 12.8624 39.6683 12.8676C39.6629 12.6748 38.3635 12.9694 38.3682 13.1387C38.371 13.2403 36.8512 13.2886 36.8502 13.2548C36.8544 13.4032 35.2806 13.4297 35.2834 13.5313C35.2843 13.5626 33.6428 13.7162 33.6411 13.6537C33.6431 13.7267 32.1718 13.2835 32.1699 13.2158C32.1695 13.2028 30.4677 13.4235 30.4697 13.4964C30.4746 13.6709 29.0495 13.6095 29.0382 13.2058C29.0437 13.4012 27.283 13.7435 27.276 13.4935C27.2757 13.4857 25.7579 13.6043 25.7515 13.3778C25.7498 13.3179 24.1597 13.397 24.1595 13.3892C24.1608 13.4361 22.5438 13.5108 22.5425 13.4665C22.5454 13.5681 21.1171 13.0742 21.1167 13.0585C21.1132 12.9361 19.4656 13.1864 19.4677 13.262C19.4684 13.2854 17.9203 13.2799 17.9183 13.2069C17.9196 13.2538 16.3858 13.4408 16.3836 13.3626C16.3858 13.4408 14.8615 13.3276 14.8669 13.5204C14.8672 13.5334 13.4486 13.3858 13.251 13.3188C13.1454 13.3585 11.7297 13.3125 11.6973 13.4281C11.2602 13.3839 10.2125 13.4572 10.1895 13.5908C10.0499 13.3708 8.69554 13.6097 8.68265 13.7847C8.45075 13.7631 6.99299 14.1223 7.16733 13.9946C6.59586 14.2359 4.83541 13.9527 5.57716 13.7557C5.48048 13.7977 4.58435 13.8821 4.14095 13.9319L4.34749 21.3023L125.542 17.6538L125.542 17.6616Z" fill="white"/>
<path d="M126.502 25.2221L126.502 16.4995L4.25307 20.1607L4.25412 30.5967C4.83786 30.381 5.858 30.5198 5.99837 30.6719C5.63852 30.4586 8.03633 30.2196 7.80938 30.5392C7.92671 30.8407 9.72317 30.5129 9.61043 30.3755C9.95553 30.386 11.2161 30.3637 11.403 30.2303C11.2568 30.5188 13.3035 30.0558 13.1254 29.8527C13.4364 29.9423 14.7777 29.8837 14.9209 29.8142C14.6937 30.1234 16.8429 30.0796 16.8361 29.8374C16.8384 29.9181 18.9813 29.3271 18.9843 29.4339C18.9843 29.4339 20.9589 29.6325 20.9631 29.7835C20.9708 30.057 23.3224 29.7881 23.3201 29.7074C23.3193 29.6787 25.3959 29.9577 25.3938 29.8795C25.3892 29.7154 26.5915 30.5264 26.5902 30.4821C26.5953 30.6644 28.4633 29.9748 28.4694 30.1936C28.4631 29.967 30.4358 30.4237 30.4368 30.4575C30.434 30.3586 32.1982 30.1751 32.2003 30.2507C32.1973 30.1413 33.5407 29.8376 33.5355 29.6527C33.5426 29.9053 35.4219 29.6193 35.4202 29.5594C35.4126 29.286 37.1164 29.2138 37.1185 29.2894C37.1263 29.568 39.3157 29.3379 39.3196 29.4785C39.3191 29.4603 40.7424 29.0916 40.7388 28.9614C40.7391 28.9744 42.6203 28.7536 42.6235 28.8682C42.6237 28.876 44.6407 28.6458 44.6478 28.8985C44.652 29.0495 45.8954 28.4126 45.8898 28.2146C45.892 28.2928 47.8576 28.171 47.8594 28.2362C47.8633 28.3768 49.8855 28.0057 49.8843 27.9641C49.8908 28.1959 50.9807 28.5592 50.9787 28.4863C50.9783 28.4733 52.7965 28.2726 52.8023 28.4783C52.8001 28.4002 54.2934 28.5872 54.2992 28.7956C54.2938 28.6003 56.1056 28.822 56.1021 28.6944C56.1095 28.96 57.4567 27.8195 57.4671 28.1893C57.4667 28.1763 59.3759 28.3091 59.3756 28.2987C59.3793 28.4315 60.8563 27.712 60.8604 27.8578C60.8641 27.9906 62.8939 28.2162 62.8923 28.1615C62.8934 28.198 64.3935 27.3344 64.4004 27.5792C64.41 27.9204 66.1983 27.3035 66.2056 27.5613C66.2031 27.4728 67.9973 27.7107 67.9924 27.5362C67.994 27.5935 69.7928 27.6749 69.7905 27.5916C69.7946 27.7374 71.699 27.0545 71.7047 27.255C71.7005 27.1066 73.6582 27.0268 73.6593 27.0659C73.655 26.9148 75.7434 27.2898 75.7451 27.3497C75.7446 27.3315 77.7113 26.9282 77.7193 27.2121C77.7251 27.4179 79.6481 26.75 79.6536 26.9454C79.6561 27.0365 81.717 27.402 81.7088 27.1077C81.7207 27.5348 83.5659 26.6764 83.5626 26.5618C83.5569 26.3561 85.478 26.5902 85.4814 26.7126C85.474 26.4469 87.3572 26.3016 87.3704 26.7704C87.3755 26.9553 89.1571 26.4195 89.1579 26.4481C89.158 26.4533 91.0447 26.4304 91.0481 26.5502C91.0485 26.5658 92.8943 26.7031 92.8869 26.4375C92.8908 26.5781 94.704 26.1977 94.6988 26.0154C94.6986 26.0076 96.5756 26.2874 96.5741 26.2327C96.5789 26.4046 98.4164 26.245 98.4205 26.3908C98.4153 26.2059 100.261 26.3276 100.26 26.3016C100.255 26.1192 102.105 26.074 102.109 26.2303C102.105 26.0844 103.919 26.0793 103.925 26.2746C103.927 26.3606 105.82 25.9048 105.826 26.1157C105.827 26.1652 107.634 25.871 107.643 26.181C107.643 26.2044 109.539 26.1942 109.537 26.1057C109.537 26.1291 111.368 26.048 111.371 26.1391C111.355 25.5792 113.275 26.1052 113.272 25.9776C113.275 26.0844 114.999 26.4365 114.998 26.3974C115.008 26.749 116.768 26.0887 116.945 25.9166C116.963 25.6058 119.484 26.1946 118.941 26.237C119.319 26.1474 120.329 26.2187 120.849 26.0284C120.397 26.0577 122.545 25.6672 122.656 25.7316C122.979 25.6046 124.543 25.7139 124.576 25.6034C124.394 25.575 125.477 25.5388 126.002 25.4995L126.502 25.2221Z" fill="white"/>
<path d="M246.713 13.248L246.485 5.11454C246.148 5.15596 245.785 5.2086 245.616 5.2215C244.91 5.10721 244.335 5.22878 244.056 5.11727C244.199 4.82103 242.411 5.12771 242.5 5.14587C242.196 5.07163 241.251 5.01405 240.93 4.98982C240.583 5.28701 239.427 5.00119 239.385 5.09368C239.449 4.82328 237.455 5.74348 237.609 5.52249C237.599 5.16048 236.801 4.93949 236.801 4.9447C236.789 4.51758 234.813 5.101 234.814 5.12443C234.813 5.08537 233.463 4.8445 233.466 4.95909C233.457 4.63355 232.094 4.89613 232.09 4.76851C232.081 4.43255 230.652 4.21492 230.658 4.45713C230.647 4.05605 229.002 4.37928 229.004 4.46523C229.001 4.36366 227.42 4.45556 227.429 4.7733C227.436 5.02071 225.943 5.0839 225.94 4.98233C225.939 4.92243 224.286 4.99043 224.286 4.99043C224.283 4.89407 222.674 4.90604 222.68 5.13262C222.681 5.16127 221.522 5.40988 221.524 5.4802C221.526 5.55052 219.931 5.77839 219.926 5.58827C219.927 5.63515 218.847 5.49042 218.86 5.95921C218.853 5.69356 217.586 6.21651 217.587 6.23735C217.591 6.40142 216.128 6.22915 216.133 6.41406C216.124 6.10153 214.585 6.73174 214.583 6.66142C214.589 6.86457 212.939 6.42417 212.946 6.66638C212.948 6.7341 211.55 6.67454 211.545 6.49744C211.541 6.35159 210.072 6.33324 210.077 6.48429C210.079 6.55982 208.716 6.50961 208.711 6.33251C208.711 6.33772 207.242 5.9623 207.249 6.2019C207.246 6.10814 205.687 6.03517 205.688 6.06381C205.69 6.14715 204.24 6.45147 204.24 6.44366C204.248 6.72754 202.55 6.14785 202.553 6.2364C202.55 6.13744 201.03 6.17798 201.036 6.39154C201.039 6.50614 199.696 6.85413 199.693 6.72912C199.691 6.67703 198.081 6.65254 198.083 6.74109C198.083 6.73327 196.739 7.0396 196.739 7.0422C196.731 6.76093 195.213 7.16115 195.212 7.14812C195.21 7.05176 193.686 7.2827 193.685 7.24624C193.689 7.38166 192.26 7.5133 192.259 7.4586C192.26 7.5159 190.792 7.82857 190.787 7.63064C190.795 7.91451 189.306 8.13136 189.297 7.81623C189.301 7.95166 187.692 7.67427 187.692 7.65604C187.698 7.88523 186.155 7.73879 186.155 7.75442C186.151 7.61118 184.589 8.03358 184.584 7.87731C184.58 7.73147 183.009 7.86477 183.011 7.91947C183.002 7.60694 181.506 7.86051 181.504 7.7954C181.506 7.88656 179.95 7.90734 179.947 7.80837C179.948 7.82139 178.329 7.83103 178.331 7.91177C178.333 7.96646 176.911 7.71471 176.91 7.67304C176.913 7.77721 175.269 7.82932 175.268 7.8189C175.265 7.68087 173.671 7.6298 173.678 7.88763C173.673 7.71054 172.196 8.02347 172.189 7.76824C172.188 7.72136 170.644 7.87991 170.642 7.78355C170.644 7.85908 169.163 7.4084 169.166 7.51518C169.161 7.34329 167.598 7.42424 167.598 7.43205C167.601 7.52581 166.02 7.61771 166.022 7.70105C166.024 7.77658 164.474 7.69292 164.478 7.82835C164.478 7.81793 162.787 7.49347 162.792 7.67839C162.797 7.84767 161.359 7.96655 161.361 8.02645C161.365 8.15927 160.839 8.44879 160.839 8.454C160.834 8.26127 159.534 8.55584 159.539 8.72512C159.542 8.82669 158.022 8.87505 158.021 8.84119C158.025 8.98964 156.451 9.01617 156.454 9.11774C156.455 9.149 154.814 9.30267 154.812 9.24017C154.814 9.31309 153.343 8.86996 153.341 8.80224C153.34 8.78922 151.639 9.00988 151.641 9.0828C151.645 9.2573 150.22 9.19594 150.209 8.79226C150.215 8.98758 148.454 9.32992 148.447 9.0799C148.447 9.07209 146.929 9.19077 146.922 8.96418C146.921 8.90428 145.331 8.98343 145.33 8.97562C145.332 9.0225 143.715 9.09724 143.713 9.05297C143.716 9.15454 142.288 8.66058 142.288 8.64496C142.284 8.52255 140.637 8.77286 140.639 8.84838C140.639 8.87182 139.091 8.8663 139.089 8.79337C139.091 8.84025 137.557 9.02718 137.555 8.94905C137.557 9.02718 136.032 8.91407 136.038 9.1068C136.038 9.11982 134.62 8.97224 134.422 8.90521C134.316 8.94488 132.901 8.89888 132.868 9.01454C132.431 8.97036 131.383 9.0436 131.36 9.17723C131.221 8.95726 129.866 9.19614 129.854 9.37117C129.622 9.34948 128.164 9.70876 128.338 9.581C127.767 9.82237 126.006 9.53912 126.748 9.34215C126.651 9.38416 125.755 9.46848 125.312 9.51832L125.518 16.8887L246.713 13.2402L246.713 13.248Z" fill="white"/>
<path d="M246.924 20.7174L247.002 12.9995L124.502 15.4995L125.771 25.8452C126.355 25.6295 127.375 25.7682 127.516 25.9204C127.156 25.707 129.553 25.468 129.327 25.7877C129.444 26.0891 131.24 25.7613 131.128 25.624C131.473 25.6344 132.733 25.6121 132.92 25.4788C132.774 25.7673 134.821 25.3043 134.643 25.1011C134.954 25.1908 136.295 25.1322 136.438 25.0627C136.211 25.3719 138.36 25.328 138.353 25.0858C138.356 25.1666 140.499 24.5755 140.501 24.6823C140.501 24.6823 142.476 24.8809 142.48 25.032C142.488 25.3054 144.84 25.0365 144.837 24.9558C144.836 24.9271 146.913 25.2061 146.911 25.128C146.906 24.9639 148.109 25.7748 148.107 25.7306C148.112 25.9129 149.98 25.2232 149.987 25.442C149.98 25.2154 151.953 25.6721 151.954 25.706C151.951 25.607 153.715 25.4236 153.717 25.4991C153.714 25.3897 155.058 25.086 155.053 24.9011C155.06 25.1537 156.939 24.8678 156.937 24.8079C156.93 24.5344 158.634 24.4623 158.636 24.5378C158.643 24.8165 160.833 24.5863 160.837 24.727C160.836 24.7087 162.26 24.3401 162.256 24.2099C162.256 24.2229 164.137 24.002 164.141 24.1166C164.141 24.1244 166.158 23.8943 166.165 24.1469C166.169 24.298 167.413 23.661 167.407 23.4631C167.409 23.5412 169.375 23.4195 169.377 23.4846C169.381 23.6252 171.403 23.2542 171.401 23.2125C171.408 23.4443 172.498 23.8077 172.496 23.7348C172.495 23.7217 174.314 23.521 174.319 23.7268C174.317 23.6486 175.811 23.8357 175.816 24.044C175.811 23.8487 177.623 24.0705 177.619 23.9428C177.627 24.2085 178.974 23.0679 178.984 23.4378C178.984 23.4248 180.893 23.5576 180.893 23.5471C180.896 23.68 182.373 22.9604 182.378 23.1062C182.381 23.2391 184.411 23.4647 184.41 23.41C184.411 23.4465 185.911 22.5828 185.918 22.8276C185.927 23.1688 187.715 22.5519 187.723 22.8098C187.72 22.7212 189.514 22.9592 189.51 22.7847C189.511 22.842 191.31 22.9233 191.308 22.84C191.312 22.9859 193.216 22.3029 193.222 22.5035C193.218 22.355 195.175 22.2752 195.176 22.3143C195.172 22.1633 197.261 22.5383 197.262 22.5982C197.262 22.58 199.228 22.1767 199.236 22.4606C199.242 22.6663 201.165 21.9985 201.171 22.1938C201.173 22.285 203.234 22.6504 203.226 22.3561C203.238 22.7832 205.083 21.9248 205.08 21.8102C205.074 21.6045 206.995 21.8386 206.999 21.961C206.991 21.6954 208.874 21.55 208.888 22.0188C208.893 22.2037 210.674 21.6679 210.675 21.6965C210.675 21.7018 212.562 21.6788 212.565 21.7986C212.566 21.8143 214.411 21.9516 214.404 21.6859C214.408 21.8266 216.221 21.4462 216.216 21.2639C216.216 21.2561 218.093 21.5358 218.091 21.4811C218.096 21.653 219.934 21.4934 219.938 21.6393C219.932 21.4543 221.778 21.576 221.777 21.55C221.772 21.3677 223.622 21.3224 223.626 21.4787C223.622 21.3328 225.437 21.3277 225.442 21.5231C225.444 21.609 227.337 21.1532 227.343 21.3642C227.344 21.4137 229.151 21.1195 229.16 21.4294C229.16 21.4528 231.056 21.4427 231.054 21.3541C231.055 21.3776 232.885 21.2964 232.888 21.3875C232.872 20.8276 234.792 21.3537 234.789 21.2261C234.792 21.3328 236.516 21.6849 236.515 21.6459C236.525 21.9975 238.285 21.3371 238.462 21.165C238.48 20.8543 241.001 21.4431 240.458 21.4855C240.836 21.3959 241.846 21.4672 242.367 21.2768C241.914 21.3061 244.062 20.9156 244.173 20.98C244.496 20.853 246.06 20.9623 246.093 20.8519C245.911 20.8235 246.399 20.7671 246.924 20.7278L246.924 20.7174Z" fill="white"/>
<path d="M246.713 13.248L246.485 5.11454C246.824 5.13563 247.189 5.16633 247.358 5.16906C248.057 5.01249 248.637 5.09927 248.91 4.97117C248.75 4.68403 250.553 4.8826 250.465 4.90611C250.764 4.81368 251.704 4.69937 252.023 4.65588C252.387 4.93166 253.524 4.5768 253.571 4.66661C253.493 4.4005 255.535 5.19921 255.368 4.98786C255.358 4.62585 256.143 4.35723 256.143 4.36243C256.131 3.93531 258.136 4.39886 258.137 4.42229C258.136 4.38323 259.47 4.06155 259.473 4.17614C259.464 3.8506 260.839 4.03076 260.836 3.90315C260.826 3.56718 262.241 3.26393 262.248 3.50614C262.237 3.10506 263.898 3.32875 263.9 3.41469C263.897 3.31312 265.481 3.30977 265.49 3.6275C265.496 3.87492 266.99 3.8482 266.987 3.74663C266.986 3.68673 268.64 3.65518 268.64 3.65518C268.637 3.55882 270.245 3.47393 270.251 3.70051C270.252 3.72916 271.422 3.90766 271.424 3.97798C271.426 4.0483 273.031 4.17984 273.026 3.98972C273.027 4.0366 274.098 3.82712 274.111 4.29591C274.103 4.03026 275.397 4.47615 275.397 4.49698C275.402 4.66106 276.854 4.40101 276.859 4.58592C276.85 4.2734 278.422 4.80995 278.42 4.73964C278.426 4.94278 280.047 4.40391 280.054 4.64612C280.056 4.71384 281.449 4.57025 281.444 4.39316C281.44 4.24731 282.904 4.14065 282.909 4.29171C282.911 4.36724 284.268 4.23514 284.263 4.05805C284.263 4.06325 285.709 3.60006 285.716 3.83967C285.713 3.74591 287.266 3.57928 287.266 3.60793C287.269 3.69127 288.734 3.90782 288.733 3.90001C288.741 4.18389 290.404 3.50305 290.406 3.5916C290.403 3.49264 291.923 3.44167 291.929 3.65523C291.932 3.76982 293.292 4.03647 293.289 3.91146C293.287 3.85937 294.894 3.73801 294.896 3.82656C294.896 3.81875 296.255 4.04372 296.255 4.04633C296.247 3.76506 297.786 4.07323 297.785 4.0602C297.782 3.96384 299.316 4.10273 299.315 4.06627C299.319 4.2017 300.753 4.24717 300.751 4.19247C300.753 4.24977 302.236 4.4736 302.23 4.27567C302.238 4.55955 303.736 4.68648 303.727 4.37135C303.731 4.50678 305.322 4.13307 305.322 4.11483C305.328 4.34402 306.86 4.105 306.861 4.12063C306.857 3.97739 308.44 4.30506 308.436 4.1488C308.432 4.00295 310.008 4.04153 310.009 4.09622C310 3.7837 311.508 3.94683 311.507 3.88172C311.509 3.97287 313.064 3.9 313.061 3.80103C313.062 3.81406 314.678 3.72629 314.68 3.80703C314.682 3.86172 316.087 3.52488 316.086 3.48321C316.089 3.58738 317.733 3.54048 317.733 3.53006C317.729 3.39203 319.317 3.24517 319.324 3.503C319.32 3.3259 320.811 3.54947 320.804 3.29424C320.803 3.24736 322.353 3.31279 322.35 3.21643C322.352 3.29195 323.805 2.75297 323.808 2.85975C323.803 2.68786 325.368 2.67462 325.369 2.68244C325.371 2.77619 326.955 2.77284 326.957 2.85618C326.959 2.9317 328.502 2.75492 328.506 2.89035C328.505 2.87994 330.175 2.45433 330.18 2.63924C330.185 2.80853 331.627 2.84071 331.629 2.90061C331.632 3.03343 332.173 3.29084 332.173 3.29605C332.168 3.10332 333.482 3.31922 333.486 3.4885C333.489 3.59007 335.009 3.54692 335.008 3.51306C335.013 3.66151 336.585 3.59332 336.588 3.69489C336.589 3.72614 338.236 3.78081 338.234 3.71831C338.236 3.79123 339.681 3.26033 339.679 3.19261C339.678 3.17959 341.39 3.2975 341.392 3.37042C341.397 3.54491 342.816 3.39793 342.804 2.99425C342.81 3.18957 344.587 3.42541 344.58 3.17539C344.58 3.16758 346.102 3.19474 346.095 2.96816C346.094 2.90826 347.685 2.89162 347.685 2.8838C347.687 2.93068 349.305 2.90802 349.304 2.86375C349.307 2.96532 350.705 2.38627 350.704 2.37065C350.701 2.24824 352.36 2.39901 352.362 2.47453C352.363 2.49797 353.908 2.39933 353.906 2.3264C353.907 2.37328 355.449 2.46763 355.446 2.3895C355.449 2.46763 356.964 2.263 356.97 2.45573C356.97 2.46875 358.378 2.23608 358.571 2.15727C358.679 2.19052 360.09 2.05943 360.129 2.17295C360.563 2.10254 361.613 2.11264 361.643 2.24466C361.77 2.01667 363.135 2.17366 363.158 2.34762C363.388 2.31202 364.864 2.58299 364.683 2.46594C365.267 2.67252 367.008 2.28385 366.257 2.13183C366.356 2.16795 367.255 2.19822 367.7 2.2213L367.907 9.59172L246.713 13.2402L246.713 13.248Z" fill="white"/>
<path d="M246.922 20.7168L246.501 12.9991L368.158 9.29638L368.158 18.5476C367.563 18.3674 366.552 18.5673 366.421 18.7276C366.768 18.493 364.361 18.3987 364.605 18.7041C364.505 19.0121 362.693 18.7929 362.798 18.649C362.454 18.6802 361.194 18.7338 361 18.6119C361.163 18.8912 359.093 18.552 359.26 18.3385C358.954 18.4467 357.612 18.4689 357.465 18.4082C357.709 18.7032 355.561 18.7887 355.554 18.5465C355.557 18.6272 353.384 18.1661 353.387 18.2729C353.387 18.2729 351.427 18.5899 351.431 18.741C351.439 19.0144 349.076 18.8875 349.074 18.8067C349.073 18.7781 347.016 19.1815 347.014 19.1034C347.009 18.9393 345.854 19.8212 345.853 19.7769C345.858 19.9592 343.955 19.3831 343.961 19.6019C343.954 19.3753 342.011 19.9499 342.011 19.9838C342.009 19.8848 340.237 19.8078 340.239 19.8834C340.236 19.774 338.878 19.5516 338.873 19.3667C338.88 19.6193 336.988 19.4469 336.986 19.387C336.978 19.1135 335.273 19.144 335.276 19.2195C335.283 19.4982 333.085 19.4002 333.089 19.5408C333.088 19.5226 331.647 19.2402 331.643 19.1099C331.643 19.123 329.753 19.0156 329.756 19.1302C329.757 19.1381 327.73 19.0296 327.737 19.2823C327.741 19.4333 326.464 18.8722 326.459 18.6743C326.461 18.7524 324.492 18.7492 324.494 18.8143C324.498 18.9549 322.458 18.7061 322.457 18.6644C322.464 18.8962 321.396 19.3246 321.394 19.2517C321.393 19.2386 319.567 19.1476 319.573 19.3534C319.571 19.2753 318.09 19.5518 318.096 19.7602C318.091 19.5648 316.294 19.8952 316.291 19.7676C316.298 20.0332 314.889 18.9757 314.9 19.3455C314.899 19.3325 313.001 19.5799 313.001 19.5695C313.004 19.7023 311.489 19.0728 311.494 19.2187C311.497 19.3515 309.484 19.6988 309.482 19.6441C309.483 19.6806 307.937 18.9087 307.944 19.1535C307.953 19.4947 306.134 18.9864 306.141 19.2443C306.138 19.1557 304.36 19.5012 304.356 19.3267C304.357 19.384 302.566 19.5734 302.564 19.4901C302.568 19.636 300.628 19.0688 300.634 19.2693C300.63 19.1208 298.671 19.159 298.672 19.198C298.668 19.047 296.604 19.547 296.605 19.6069C296.605 19.5887 294.619 19.3044 294.627 19.5883C294.633 19.794 292.675 19.243 292.681 19.4383C292.684 19.5295 290.647 20.0183 290.638 19.724C290.65 20.1511 288.76 19.4052 288.757 19.2906C288.751 19.0848 286.846 19.4341 286.85 19.5565C286.842 19.2909 284.954 19.2591 284.967 19.7279C284.973 19.9128 283.164 19.485 283.165 19.5137C283.165 19.5189 281.28 19.6095 281.284 19.7293C281.284 19.7449 279.449 19.9931 279.442 19.7274C279.445 19.8681 277.614 19.5974 277.609 19.4151C277.609 19.4073 275.751 19.7994 275.749 19.7448C275.754 19.9166 273.911 19.8679 273.915 20.0137C273.909 19.8288 272.074 20.0613 272.073 20.0353C272.068 19.853 270.219 19.9191 270.223 20.0753C270.219 19.9295 268.407 20.0335 268.413 20.2289C268.415 20.3148 266.5 19.9737 266.506 20.1846C266.508 20.2341 264.688 20.0491 264.696 20.359C264.697 20.3824 262.804 20.4864 262.801 20.3978C262.802 20.4212 260.97 20.4503 260.972 20.5415C260.957 19.9815 259.069 20.6222 259.065 20.4946C259.068 20.6014 257.366 21.0567 257.365 21.0176C257.375 21.3692 255.581 20.8159 255.395 20.6546C255.359 20.3455 252.876 21.085 253.42 21.0947C253.037 21.028 252.034 21.1599 251.503 21.0012C251.957 21.0032 249.79 20.7426 249.683 20.8136C249.354 20.7062 247.799 20.9094 247.759 20.8011C247.94 20.7618 247.449 20.7349 246.922 20.7273L246.922 20.7168Z" fill="white"/>
<path d="M368.16 18.5422L371.909 18.4293L371.919 18.3959L371.851 18.2262L371.849 18.0546L371.761 17.8917L371.865 17.6801L371.443 17.6033L371.447 17.4524L371.491 17.261L371.43 17.0457L371.327 16.8575L371.402 16.6738L371.302 16.4892L371.625 16.3041L371.335 16.1227L371.499 15.9363L371.667 15.7473L371.719 15.5606L371.622 15.3783L371.309 15.2075L371.419 15.0178L371.572 14.8243L371.506 14.6423L371.573 14.4527L371.356 14.2937L371.345 14.1199L371.199 13.9501L371.2 13.7797L371.259 13.6062L371.179 13.4406L370.878 13.354L370.636 13.2485L370.399 13.1183L370.513 12.8794L370.364 12.7061L370.029 12.5383L369.929 12.366L369.938 12.1781L369.73 12.0482L369.537 11.9192L369.455 11.7708L369.372 11.5673L369.162 11.3909L368.916 11.2241L368.686 11.041L368.949 10.8467L368.794 10.6809L368.864 10.5022L368.793 10.3314L368.883 10.1546L368.536 9.98598L368.787 9.81041L368.805 9.63573L369.26 9.41726L368.937 9.20501L369.173 8.98577L369.004 8.83509L368.968 8.67799L369.156 8.51045L369.146 8.35869L369.058 8.17496L368.937 7.964L369.156 7.78449L369.387 7.61198L369.619 7.44315L370.064 7.32672L370.255 7.14808L370.188 6.9367L370.576 6.79382L370.597 6.61415L370.494 6.43576L370.754 6.26116L370.599 6.08677L370.821 5.90472L370.63 5.73636L370.616 5.5614L370.738 5.37993L370.661 5.20933L370.42 5.04489L370.706 4.85971L370.689 4.68974L370.351 4.52947L370.548 4.3531L370.414 4.18791L370.288 4.02123L370.674 3.8367L370.597 3.66733L370.383 3.50701L370.338 3.33913L370.338 3.14782L370.149 2.97937L370.118 2.7841L369.818 2.63741L369.721 2.46987L369.871 2.28998L369.859 2.14566L367.702 2.21056L363.502 10.8465L368.16 18.5422Z" fill="white"/>
<path d="M4.59618 30.2241L0.548695 30.3459L0.535356 30.3133L0.598849 30.1402L0.590947 29.9692L0.676342 29.8014L0.552566 29.5972L1.00325 29.4944L0.989727 29.3443L0.931651 29.1565L0.984561 28.9384L1.08476 28.7445L0.992776 28.5663L1.08996 28.3762L0.731212 28.2121L1.0332 28.0134L0.844997 27.838L0.653618 27.6603L0.586367 27.4776L0.680521 27.2901L1.00762 27.1004L0.878253 26.9184L0.702257 26.7353L0.762301 26.55L0.679461 26.3653L0.904535 26.1934L0.905881 26.0197L1.05311 25.8416L1.04214 25.6719L0.969061 25.5028L1.04507 25.333L1.36522 25.2279L1.61969 25.1077L1.86728 24.9633L1.73034 24.7325L1.88057 24.5506L2.23256 24.3627L2.3301 24.1848L2.30934 23.9983L2.52592 23.856L2.72701 23.7154L2.80661 23.5625L2.88467 23.3547L3.09994 23.1659L3.35581 22.9845L3.59262 22.7878L3.29874 22.6107L3.45539 22.436L3.36975 22.2624L3.43631 22.0879L3.32902 21.9175L3.69339 21.7279L3.41245 21.5688L3.38275 21.396L2.88039 21.2068L3.21563 20.9754L2.94898 20.7718L3.12155 20.6112L3.15128 20.4525L2.93879 20.2975L2.94075 20.1457L3.02556 19.9572L3.14372 19.7396L2.89678 19.5746L2.63763 19.4173L2.37859 19.2636L1.89149 19.1755L1.67559 19.0095L1.73481 18.7949L1.309 18.6768L1.27607 18.4992L1.37653 18.3152L1.08631 18.1576L1.24272 17.9743L0.992603 17.8069L1.1895 17.6273L1.19392 17.4522L1.05237 17.2791L1.12514 17.1044L1.37488 16.9257L1.05644 16.7591L1.0641 16.5888L1.4194 16.4081L1.19736 16.2448L1.33231 16.0719L1.45792 15.8981L1.03095 15.7385L1.10375 15.565L1.32569 15.392L1.36441 15.222L1.35286 15.0316L1.54665 14.852L1.56911 14.6556L1.88447 14.4908L1.97904 14.3179L1.80653 14.1482L1.8118 14.0037L4.13967 13.9336L5.88333 21.7285L4.59618 30.2241Z" fill="white"/>
</svg>
