<svg width="23" height="22" viewBox="0 0 23 22" fill="none" xmlns="http://www.w3.org/2000/svg">
<path d="M14.8106 20.1697H8.18957C7.3089 20.1697 6.62669 19.3976 6.73374 18.5217L7.81346 9.68766C7.94365 8.6226 8.84632 7.82227 9.91736 7.82227H13.0827C14.1537 7.82227 15.0564 8.6226 15.1866 9.68766L16.2663 18.5217C16.3735 19.3976 15.6915 20.1697 14.8106 20.1697Z" fill="#F8615D"/>
<path d="M15.1863 9.68766C15.0561 8.6226 14.1534 7.82227 13.0824 7.82227H11.4102V20.1695H14.8102C15.6909 20.1695 16.3731 19.3974 16.266 18.5215L15.1863 9.68766Z" fill="#EE3D31"/>
<path d="M8.02462 16.6256C8.01845 16.6256 8.01228 16.6254 8.00591 16.6245C7.9224 16.6142 7.86299 16.5381 7.87321 16.4546L8.03832 15.1026C8.04854 15.019 8.1253 14.9606 8.20805 14.9697C8.29156 14.9799 8.35097 15.056 8.34075 15.1397L8.17545 16.4915C8.16619 16.569 8.10062 16.6256 8.02462 16.6256Z" fill="white"/>
<path d="M11.4998 16.5418C13.1926 16.5418 14.565 15.167 14.565 13.4711C14.565 11.7752 13.1926 10.4004 11.4998 10.4004C9.80691 10.4004 8.43457 11.7752 8.43457 13.4711C8.43457 15.167 9.80691 16.5418 11.4998 16.5418Z" fill="#F88080"/>
<path d="M8.36056 14.1519C8.35439 14.1519 8.34822 14.1515 8.34185 14.1507C8.25833 14.1405 8.19893 14.0644 8.20915 13.9807L8.73609 9.66909C8.74631 9.58543 8.82308 9.52669 8.90582 9.53616C8.98934 9.5464 9.04874 9.62253 9.03852 9.70619L8.51158 14.0178C8.50213 14.0951 8.43636 14.1519 8.36056 14.1519Z" fill="white"/>
<path d="M11.4102 10.405V16.5374C11.4401 16.5384 11.4694 16.5418 11.4997 16.5418C13.1925 16.5418 14.5648 15.167 14.5648 13.4711C14.5648 11.7752 13.1925 10.4004 11.4997 10.4004C11.4696 10.4004 11.4402 10.4041 11.4102 10.405Z" fill="#F8615D"/>
<path d="M17.4141 21.5862H5.58628C5.35849 21.5862 5.1849 21.3816 5.22174 21.1563L5.48637 19.5396C5.60287 18.8285 6.21622 18.3066 6.93546 18.3066H16.0647C16.7839 18.3066 17.3975 18.8285 17.5138 19.5396L17.7784 21.1563C17.8154 21.3814 17.6421 21.5862 17.4141 21.5862Z" fill="#55575A"/>
<path d="M17.5134 19.5396C17.3969 18.8285 16.7835 18.3066 16.0643 18.3066H11.4102V21.5864H17.4136C17.6414 21.5864 17.815 21.3818 17.7782 21.1565L17.5134 19.5396Z" fill="#3D3E41"/>
<path d="M11.5004 0.414062C11.278 0.414062 11.0977 0.594728 11.0977 0.817516V5.30033C11.0977 5.52331 11.278 5.70378 11.5004 5.70378C11.7228 5.70378 11.9031 5.52311 11.9031 5.30033V0.817516C11.9031 0.594535 11.7228 0.414062 11.5004 0.414062Z" fill="#EE3D31"/>
<path d="M22.5972 11.5312H18.1225C17.9001 11.5312 17.7197 11.7117 17.7197 11.9347C17.7197 12.1575 17.9001 12.3382 18.1225 12.3382H22.5972C22.8196 12.3382 22.9999 12.1575 22.9999 11.9347C22.9999 11.7117 22.8196 11.5312 22.5972 11.5312Z" fill="#EE3D31"/>
<path d="M4.87747 11.5312H0.402727C0.18034 11.5312 0 11.7117 0 11.9347C0 12.1575 0.18034 12.3382 0.402727 12.3382H4.87747C5.09986 12.3382 5.2802 12.1575 5.2802 11.9347C5.2802 11.7117 5.09986 11.5312 4.87747 11.5312Z" fill="#EE3D31"/>
<path d="M17.8469 5.57528C17.6898 5.41761 17.4348 5.41761 17.2776 5.57528L15.8983 6.95684C15.7409 7.11432 15.7409 7.36976 15.8983 7.52743C15.977 7.60627 16.08 7.64569 16.183 7.64569C16.286 7.64569 16.3892 7.60627 16.4677 7.52743L17.8469 6.14568C18.0043 5.9884 18.0043 5.73296 17.8469 5.57528Z" fill="#EE3D31"/>
<path d="M19.5097 3.90927C19.3523 3.7516 19.0975 3.7516 18.9401 3.90927L18.5253 4.3247C18.3679 4.48218 18.3679 4.73762 18.5253 4.89529C18.604 4.97413 18.707 5.01355 18.81 5.01355C18.9129 5.01355 19.0159 4.97413 19.0946 4.89529L19.5095 4.47967C19.6669 4.32238 19.6669 4.06694 19.5097 3.90927Z" fill="#EE3D31"/>
<path d="M5.72276 5.57528C5.56537 5.41761 5.31058 5.41761 5.1532 5.57528C4.99581 5.73276 4.99581 5.9882 5.1532 6.14568L6.53227 7.52743C6.61096 7.60627 6.71396 7.64569 6.81695 7.64569C6.91995 7.64569 7.02314 7.60627 7.10164 7.52743C7.25903 7.36995 7.25903 7.11451 7.10164 6.95684L5.72276 5.57528Z" fill="#EE3D31"/>
<path d="M4.163 4.01474C4.00561 3.85707 3.75082 3.85707 3.59363 4.01474C3.43624 4.17222 3.43624 4.42766 3.59363 4.58514L4.00831 5.00057C4.08701 5.0794 4.19 5.11882 4.293 5.11882C4.39599 5.11882 4.49918 5.0794 4.57768 5.00057C4.73507 4.84309 4.73507 4.58765 4.57768 4.43017L4.163 4.01474Z" fill="#EE3D31"/>
</svg>
