<svg width="628" height="442" viewBox="0 0 628 442" fill="none" xmlns="http://www.w3.org/2000/svg">
<path d="M1.71 24V9.96H6.858C8.64 9.96 11.592 10.932 11.592 14.298C11.592 16.818 10.044 18.24 8.172 18.528V18.546C9.396 20.364 10.62 22.182 11.826 24H9.648L6.102 18.672H3.636C3.636 20.454 3.636 22.218 3.636 24H1.71ZM3.636 16.962H6.57C8.136 16.962 9.558 16.206 9.558 14.352C9.558 12.534 8.064 11.724 6.516 11.724H3.636C3.636 13.542 3.636 15.126 3.636 16.962ZM18.0124 24.306C15.1144 24.306 12.9544 22.2 12.9544 19.05C12.9544 15.954 15.0244 13.722 17.9044 13.722C20.0824 13.722 22.5844 15.036 22.5844 18.87V19.464H14.8084C14.9344 21.462 16.2844 22.668 18.0124 22.668C19.4344 22.668 20.4784 21.804 20.9824 20.562L22.6744 21.228C21.9724 23.082 20.2264 24.306 18.0124 24.306ZM14.8984 18.114H20.7124C20.6044 16.044 19.2184 15.306 17.8864 15.306C16.2664 15.306 15.1684 16.458 14.8984 18.114ZM27.3569 24.306C25.6649 24.306 24.0989 23.406 24.0989 21.552C24.0989 19.68 25.7009 18.906 27.5369 18.528C29.5709 18.114 30.6149 18.042 30.6149 16.998C30.6149 16.062 29.7869 15.234 28.5089 15.234C27.3929 15.234 26.5109 15.9 26.1689 17.088L24.4409 16.512C25.0349 14.514 26.8169 13.722 28.5989 13.722C30.7229 13.722 32.4689 14.802 32.4689 17.16V20.886C32.4689 22.524 32.5949 23.226 32.7929 24H30.9749C30.7949 23.424 30.7409 22.92 30.7409 22.29H30.7049C30.1289 23.46 28.9409 24.306 27.3569 24.306ZM26.0969 21.48C26.0969 22.362 26.7809 22.866 27.8249 22.866C29.5529 22.866 30.6149 21.3 30.6149 20.112V19.014C30.0749 19.338 29.4269 19.536 28.4369 19.734C27.4649 19.932 26.0969 20.328 26.0969 21.48ZM35.2247 24V9.6H37.0607V24H35.2247ZM44.7237 24V9.96H53.7057V11.742H46.6497C46.6497 13.128 46.6497 14.514 46.6497 15.9H53.3457V17.754H46.6497C46.6497 19.23 46.6497 20.706 46.6497 22.182H53.8857V24H44.7237ZM59.4899 24.306C57.3659 24.306 55.7639 23.19 55.2599 21.498L56.9519 20.958C57.4379 22.146 58.4819 22.794 59.4719 22.794C60.1919 22.794 61.2899 22.452 61.2899 21.372C61.2899 20.436 60.3899 20.148 59.5079 19.896L58.4999 19.608C57.4199 19.284 55.7279 18.618 55.7279 16.674C55.7279 14.766 57.4019 13.722 59.2379 13.722C61.0919 13.722 62.4779 14.802 62.9099 16.206L61.1999 16.782C60.9119 15.972 60.2459 15.234 59.1479 15.234C58.2299 15.234 57.5639 15.738 57.5639 16.548C57.5639 17.556 58.7339 17.934 59.6159 18.186L60.4619 18.438C61.4879 18.726 63.2159 19.23 63.2159 21.174C63.2159 23.01 61.7219 24.306 59.4899 24.306ZM68.7435 24.306C65.8815 24.306 65.8815 22.02 65.8815 20.922V15.666C65.2155 15.666 64.5675 15.666 63.9015 15.666V14.01H65.8815C65.8815 13.056 65.8815 12.084 65.8815 11.112H67.6995V14.01C68.6715 14.01 69.6255 14.01 70.5975 14.01V15.666H67.6995C67.6995 17.214 67.6995 18.762 67.6995 20.31C67.6995 21.354 67.6995 22.65 69.1035 22.65C69.5535 22.65 70.0755 22.506 70.5975 22.2V23.874C70.0935 24.162 69.4095 24.306 68.7435 24.306ZM75.0464 24.306C73.3544 24.306 71.7884 23.406 71.7884 21.552C71.7884 19.68 73.3904 18.906 75.2264 18.528C77.2604 18.114 78.3044 18.042 78.3044 16.998C78.3044 16.062 77.4764 15.234 76.1984 15.234C75.0824 15.234 74.2004 15.9 73.8584 17.088L72.1304 16.512C72.7244 14.514 74.5064 13.722 76.2884 13.722C78.4124 13.722 80.1584 14.802 80.1584 17.16V20.886C80.1584 22.524 80.2844 23.226 80.4824 24H78.6644C78.4844 23.424 78.4304 22.92 78.4304 22.29H78.3944C77.8184 23.46 76.6304 24.306 75.0464 24.306ZM73.7864 21.48C73.7864 22.362 74.4704 22.866 75.5144 22.866C77.2424 22.866 78.3044 21.3 78.3044 20.112V19.014C77.7644 19.338 77.1164 19.536 76.1264 19.734C75.1544 19.932 73.7864 20.328 73.7864 21.48ZM86.4271 24.306C83.5651 24.306 83.5651 22.02 83.5651 20.922V15.666C82.8991 15.666 82.2511 15.666 81.5851 15.666V14.01H83.5651C83.5651 13.056 83.5651 12.084 83.5651 11.112H85.3831V14.01C86.3551 14.01 87.3091 14.01 88.2811 14.01V15.666H85.3831C85.3831 17.214 85.3831 18.762 85.3831 20.31C85.3831 21.354 85.3831 22.65 86.7871 22.65C87.2371 22.65 87.7591 22.506 88.2811 22.2V23.874C87.7771 24.162 87.0931 24.306 86.4271 24.306ZM94.4069 24.306C91.5089 24.306 89.3489 22.2 89.3489 19.05C89.3489 15.954 91.4189 13.722 94.2989 13.722C96.4769 13.722 98.9789 15.036 98.9789 18.87V19.464H91.2029C91.3289 21.462 92.6789 22.668 94.4069 22.668C95.8289 22.668 96.8729 21.804 97.3769 20.562L99.0689 21.228C98.3669 23.082 96.6209 24.306 94.4069 24.306ZM91.2929 18.114H97.1069C96.9989 16.044 95.6129 15.306 94.2809 15.306C92.6609 15.306 91.5629 16.458 91.2929 18.114ZM107.882 24L104.12 14.01H106.118C107.09 16.602 107.99 19.14 108.962 21.84H108.998C109.97 19.14 110.87 16.602 111.842 14.01H113.768L110.024 24H107.882ZM118.588 24.306C116.464 24.306 114.862 23.19 114.358 21.498L116.05 20.958C116.536 22.146 117.58 22.794 118.57 22.794C119.29 22.794 120.388 22.452 120.388 21.372C120.388 20.436 119.488 20.148 118.606 19.896L117.598 19.608C116.518 19.284 114.826 18.618 114.826 16.674C114.826 14.766 116.5 13.722 118.336 13.722C120.19 13.722 121.576 14.802 122.008 16.206L120.298 16.782C120.01 15.972 119.344 15.234 118.246 15.234C117.328 15.234 116.662 15.738 116.662 16.548C116.662 17.556 117.832 17.934 118.714 18.186L119.56 18.438C120.586 18.726 122.314 19.23 122.314 21.174C122.314 23.01 120.82 24.306 118.588 24.306ZM125.191 24.126C124.471 24.126 123.913 23.55 123.913 22.812C123.913 22.128 124.471 21.552 125.191 21.552C125.893 21.552 126.451 22.128 126.451 22.812C126.451 23.55 125.893 24.126 125.191 24.126ZM139.351 24.306C135.463 24.306 132.277 21.282 132.277 16.998C132.277 12.732 135.445 9.672 139.351 9.672C143.311 9.672 146.425 12.822 146.425 16.998C146.425 21.192 143.293 24.306 139.351 24.306ZM134.329 16.998C134.329 20.202 136.633 22.488 139.369 22.488C142.123 22.488 144.373 20.166 144.373 16.998C144.373 13.848 142.141 11.49 139.369 11.49C136.615 11.49 134.329 13.794 134.329 16.998ZM152.31 24.306C149.448 24.306 149.448 22.02 149.448 20.922V15.666C148.782 15.666 148.134 15.666 147.468 15.666V14.01H149.448C149.448 13.056 149.448 12.084 149.448 11.112H151.266V14.01C152.238 14.01 153.192 14.01 154.164 14.01V15.666H151.266C151.266 17.214 151.266 18.762 151.266 20.31C151.266 21.354 151.266 22.65 152.67 22.65C153.12 22.65 153.642 22.506 154.164 22.2V23.874C153.66 24.162 152.976 24.306 152.31 24.306ZM156.057 24V9.6H157.893V15.72H157.929C158.685 14.334 159.873 13.722 161.205 13.722C163.005 13.722 164.787 14.838 164.787 17.718V24H162.951V18.528C162.951 16.584 162.123 15.45 160.629 15.45C158.973 15.45 157.893 16.8 157.893 18.636V24H156.057ZM171.856 24.306C168.958 24.306 166.798 22.2 166.798 19.05C166.798 15.954 168.868 13.722 171.748 13.722C173.926 13.722 176.428 15.036 176.428 18.87V19.464H168.652C168.778 21.462 170.128 22.668 171.856 22.668C173.278 22.668 174.322 21.804 174.826 20.562L176.518 21.228C175.816 23.082 174.07 24.306 171.856 24.306ZM168.742 18.114H174.556C174.448 16.044 173.062 15.306 171.73 15.306C170.11 15.306 169.012 16.458 168.742 18.114ZM178.645 24V14.01H180.445V15.828H180.517C181.021 14.64 182.137 13.722 183.541 13.722C183.883 13.722 184.243 13.776 184.603 13.92V15.936C184.225 15.792 183.685 15.72 183.379 15.72C181.165 15.72 180.481 17.862 180.481 19.608V24H178.645ZM188.476 24L194.002 9.96H196.216L201.742 24H199.672L197.944 19.68C196.036 19.68 194.128 19.68 192.202 19.68C191.626 21.12 191.086 22.56 190.51 24H188.476ZM192.904 17.826H197.26C196.558 16.062 195.802 14.118 195.118 12.264H195.082L192.904 17.826ZM206.619 24.306C204.495 24.306 202.893 23.19 202.389 21.498L204.081 20.958C204.567 22.146 205.611 22.794 206.601 22.794C207.321 22.794 208.419 22.452 208.419 21.372C208.419 20.436 207.519 20.148 206.637 19.896L205.629 19.608C204.549 19.284 202.857 18.618 202.857 16.674C202.857 14.766 204.531 13.722 206.367 13.722C208.221 13.722 209.607 14.802 210.039 16.206L208.329 16.782C208.041 15.972 207.375 15.234 206.277 15.234C205.359 15.234 204.693 15.738 204.693 16.548C204.693 17.556 205.863 17.934 206.745 18.186L207.591 18.438C208.617 18.726 210.345 19.23 210.345 21.174C210.345 23.01 208.851 24.306 206.619 24.306ZM215.707 24.306C213.583 24.306 211.981 23.19 211.477 21.498L213.169 20.958C213.655 22.146 214.699 22.794 215.689 22.794C216.409 22.794 217.507 22.452 217.507 21.372C217.507 20.436 216.607 20.148 215.725 19.896L214.717 19.608C213.637 19.284 211.945 18.618 211.945 16.674C211.945 14.766 213.619 13.722 215.455 13.722C217.309 13.722 218.695 14.802 219.127 16.206L217.417 16.782C217.129 15.972 216.463 15.234 215.365 15.234C214.447 15.234 213.781 15.738 213.781 16.548C213.781 17.556 214.951 17.934 215.833 18.186L216.679 18.438C217.705 18.726 219.433 19.23 219.433 21.174C219.433 23.01 217.939 24.306 215.707 24.306ZM225.839 24.306C222.941 24.306 220.781 22.2 220.781 19.05C220.781 15.954 222.851 13.722 225.731 13.722C227.909 13.722 230.411 15.036 230.411 18.87V19.464H222.635C222.761 21.462 224.111 22.668 225.839 22.668C227.261 22.668 228.305 21.804 228.809 20.562L230.501 21.228C229.799 23.082 228.053 24.306 225.839 24.306ZM222.725 18.114H228.539C228.431 16.044 227.045 15.306 225.713 15.306C224.093 15.306 222.995 16.458 222.725 18.114ZM236.105 24.306C233.243 24.306 233.243 22.02 233.243 20.922V15.666C232.577 15.666 231.929 15.666 231.263 15.666V14.01H233.243C233.243 13.056 233.243 12.084 233.243 11.112H235.061V14.01C236.033 14.01 236.987 14.01 237.959 14.01V15.666H235.061C235.061 17.214 235.061 18.762 235.061 20.31C235.061 21.354 235.061 22.65 236.465 22.65C236.915 22.65 237.437 22.506 237.959 22.2V23.874C237.455 24.162 236.771 24.306 236.105 24.306ZM250.993 24.306C246.799 24.306 243.811 21.336 243.811 16.98C243.811 12.426 247.087 9.672 250.885 9.672C253.675 9.672 256.249 11.184 257.185 13.92L255.403 14.64C254.629 12.714 252.955 11.49 250.867 11.49C248.095 11.49 245.845 13.596 245.845 17.052C245.845 20.85 248.545 22.488 251.065 22.488C253.567 22.488 255.259 20.886 255.925 18.636L257.707 19.266C256.699 22.416 254.305 24.306 250.993 24.306ZM259.434 24V9.6H261.27V24H259.434ZM266.666 24.306C264.974 24.306 263.408 23.406 263.408 21.552C263.408 19.68 265.01 18.906 266.846 18.528C268.88 18.114 269.924 18.042 269.924 16.998C269.924 16.062 269.096 15.234 267.818 15.234C266.702 15.234 265.82 15.9 265.478 17.088L263.75 16.512C264.344 14.514 266.126 13.722 267.908 13.722C270.032 13.722 271.777 14.802 271.777 17.16V20.886C271.777 22.524 271.904 23.226 272.102 24H270.284C270.104 23.424 270.05 22.92 270.05 22.29H270.014C269.438 23.46 268.25 24.306 266.666 24.306ZM265.406 21.48C265.406 22.362 266.09 22.866 267.134 22.866C268.862 22.866 269.924 21.3 269.924 20.112V19.014C269.384 19.338 268.736 19.536 267.746 19.734C266.774 19.932 265.406 20.328 265.406 21.48ZM277.845 24.306C275.721 24.306 274.119 23.19 273.615 21.498L275.307 20.958C275.793 22.146 276.837 22.794 277.827 22.794C278.547 22.794 279.645 22.452 279.645 21.372C279.645 20.436 278.745 20.148 277.863 19.896L276.855 19.608C275.775 19.284 274.083 18.618 274.083 16.674C274.083 14.766 275.757 13.722 277.593 13.722C279.447 13.722 280.833 14.802 281.265 16.206L279.555 16.782C279.267 15.972 278.601 15.234 277.503 15.234C276.585 15.234 275.919 15.738 275.919 16.548C275.919 17.556 277.089 17.934 277.971 18.186L278.817 18.438C279.843 18.726 281.571 19.23 281.571 21.174C281.571 23.01 280.077 24.306 277.845 24.306ZM286.933 24.306C284.809 24.306 283.207 23.19 282.703 21.498L284.395 20.958C284.881 22.146 285.925 22.794 286.915 22.794C287.635 22.794 288.733 22.452 288.733 21.372C288.733 20.436 287.833 20.148 286.951 19.896L285.943 19.608C284.863 19.284 283.171 18.618 283.171 16.674C283.171 14.766 284.845 13.722 286.681 13.722C288.535 13.722 289.921 14.802 290.353 16.206L288.643 16.782C288.355 15.972 287.689 15.234 286.591 15.234C285.673 15.234 285.007 15.738 285.007 16.548C285.007 17.556 286.177 17.934 287.059 18.186L287.905 18.438C288.931 18.726 290.659 19.23 290.659 21.174C290.659 23.01 289.165 24.306 286.933 24.306ZM297.065 24.306C294.167 24.306 292.007 22.2 292.007 19.05C292.007 15.954 294.077 13.722 296.957 13.722C299.135 13.722 301.637 15.036 301.637 18.87V19.464H293.861C293.987 21.462 295.337 22.668 297.065 22.668C298.487 22.668 299.531 21.804 300.035 20.562L301.727 21.228C301.025 23.082 299.279 24.306 297.065 24.306ZM293.951 18.114H299.765C299.657 16.044 298.271 15.306 296.939 15.306C295.319 15.306 294.221 16.458 293.951 18.114ZM307.166 24.306C305.042 24.306 303.44 23.19 302.936 21.498L304.628 20.958C305.114 22.146 306.158 22.794 307.148 22.794C307.868 22.794 308.966 22.452 308.966 21.372C308.966 20.436 308.066 20.148 307.184 19.896L306.176 19.608C305.096 19.284 303.404 18.618 303.404 16.674C303.404 14.766 305.078 13.722 306.914 13.722C308.768 13.722 310.154 14.802 310.586 16.206L308.876 16.782C308.588 15.972 307.922 15.234 306.824 15.234C305.906 15.234 305.24 15.738 305.24 16.548C305.24 17.556 306.41 17.934 307.292 18.186L308.138 18.438C309.164 18.726 310.892 19.23 310.892 21.174C310.892 23.01 309.398 24.306 307.166 24.306Z" fill="white"/>
<path d="M484.32 21V11.64H487.764C490.884 11.64 492.204 13.728 492.204 16.26C492.204 19.044 490.596 21 487.872 21H484.32ZM485.604 19.812H487.8C489.528 19.812 490.848 18.708 490.848 16.344C490.848 13.752 489.264 12.828 487.452 12.828H485.604C485.604 15.144 485.604 17.496 485.604 19.812ZM495.371 21.204C494.243 21.204 493.199 20.604 493.199 19.368C493.199 18.12 494.267 17.604 495.491 17.352C496.847 17.076 497.543 17.028 497.543 16.332C497.543 15.708 496.991 15.156 496.139 15.156C495.395 15.156 494.807 15.6 494.579 16.392L493.427 16.008C493.823 14.676 495.011 14.148 496.199 14.148C497.615 14.148 498.779 14.868 498.779 16.44V18.924C498.779 20.016 498.863 20.484 498.995 21H497.783C497.663 20.616 497.627 20.28 497.627 19.86H497.603C497.219 20.64 496.427 21.204 495.371 21.204ZM494.531 19.32C494.531 19.908 494.987 20.244 495.683 20.244C496.835 20.244 497.543 19.2 497.543 18.408V17.676C497.183 17.892 496.751 18.024 496.091 18.156C495.443 18.288 494.531 18.552 494.531 19.32ZM502.958 21.204C501.05 21.204 501.05 19.68 501.05 18.948V15.444C500.606 15.444 500.174 15.444 499.73 15.444V14.34H501.05C501.05 13.704 501.05 13.056 501.05 12.408H502.262V14.34C502.91 14.34 503.546 14.34 504.194 14.34V15.444H502.262C502.262 16.476 502.262 17.508 502.262 18.54C502.262 19.236 502.262 20.1 503.198 20.1C503.498 20.1 503.846 20.004 504.194 19.8V20.916C503.858 21.108 503.402 21.204 502.958 21.204ZM508.278 21.204C506.346 21.204 504.906 19.8 504.906 17.7C504.906 15.636 506.286 14.148 508.206 14.148C509.658 14.148 511.326 15.024 511.326 17.58V17.976H506.142C506.226 19.308 507.126 20.112 508.278 20.112C509.226 20.112 509.922 19.536 510.258 18.708L511.386 19.152C510.918 20.388 509.754 21.204 508.278 21.204ZM506.202 17.076H510.078C510.006 15.696 509.082 15.204 508.194 15.204C507.114 15.204 506.382 15.972 506.202 17.076ZM515.827 21V14.34H517.027V15.552H517.075C517.411 14.76 518.155 14.148 519.091 14.148C519.319 14.148 519.559 14.184 519.799 14.28V15.624C519.547 15.528 519.187 15.48 518.983 15.48C517.507 15.48 517.051 16.908 517.051 18.072V21H515.827ZM522.406 21.204C521.278 21.204 520.234 20.604 520.234 19.368C520.234 18.12 521.302 17.604 522.526 17.352C523.882 17.076 524.578 17.028 524.578 16.332C524.578 15.708 524.026 15.156 523.174 15.156C522.43 15.156 521.842 15.6 521.614 16.392L520.462 16.008C520.858 14.676 522.046 14.148 523.234 14.148C524.65 14.148 525.814 14.868 525.814 16.44V18.924C525.814 20.016 525.898 20.484 526.03 21H524.818C524.698 20.616 524.662 20.28 524.662 19.86H524.638C524.254 20.64 523.462 21.204 522.406 21.204ZM521.566 19.32C521.566 19.908 522.022 20.244 522.718 20.244C523.87 20.244 524.578 19.2 524.578 18.408V17.676C524.218 17.892 523.786 18.024 523.126 18.156C522.478 18.288 521.566 18.552 521.566 19.32ZM527.651 21V14.34H528.851V15.48H528.875C529.379 14.556 530.195 14.148 531.095 14.148C532.295 14.148 533.471 14.892 533.471 16.812V21H532.247V17.352C532.247 16.056 531.695 15.3 530.699 15.3C529.595 15.3 528.875 16.2 528.875 17.424V21H527.651ZM538.196 23.832C536.912 23.832 535.664 23.388 535.112 21.9L536.216 21.516C536.54 22.332 537.152 22.788 538.172 22.788C539.3 22.788 540.164 22.14 540.164 20.28V19.704H540.14C539.648 20.592 538.796 20.976 537.896 20.976C535.988 20.976 534.812 19.44 534.812 17.568C534.812 15.564 536.144 14.148 537.86 14.148C538.892 14.148 539.72 14.664 540.164 15.492H540.188V14.34H541.388V20.244C541.388 22.956 539.936 23.832 538.196 23.832ZM536.084 17.544C536.084 18.828 536.936 19.836 538.112 19.836C539.276 19.836 540.188 18.828 540.188 17.544C540.188 16.248 539.276 15.288 538.112 15.288C536.936 15.288 536.084 16.284 536.084 17.544ZM546.188 21.204C544.256 21.204 542.816 19.8 542.816 17.7C542.816 15.636 544.196 14.148 546.116 14.148C547.568 14.148 549.236 15.024 549.236 17.58V17.976H544.052C544.136 19.308 545.036 20.112 546.188 20.112C547.136 20.112 547.832 19.536 548.168 18.708L549.296 19.152C548.828 20.388 547.664 21.204 546.188 21.204ZM544.112 17.076H547.988C547.916 15.696 546.992 15.204 546.104 15.204C545.024 15.204 544.292 15.972 544.112 17.076ZM551.41 15.924C550.93 15.924 550.546 15.528 550.546 15.048C550.546 14.58 550.93 14.208 551.41 14.208C551.866 14.208 552.25 14.58 552.25 15.048C552.25 15.528 551.866 15.924 551.41 15.924ZM550.546 20.196C550.546 19.74 550.93 19.368 551.41 19.368C551.866 19.368 552.25 19.74 552.25 20.196C552.25 20.688 551.866 21.084 551.41 21.084C550.93 21.084 550.546 20.688 550.546 20.196ZM558.387 21V13.932C557.943 14.508 557.175 14.94 556.371 15.084V13.776C557.559 13.5 558.423 12.624 558.423 11.64H559.683V21H558.387ZM564.476 21.204C563.36 21.204 562.256 20.772 561.536 19.896L562.268 19.02C562.916 19.788 563.648 20.076 564.38 20.076C566.168 20.076 567.044 18.336 567.044 16.332H567.02C566.684 17.244 565.7 17.88 564.56 17.88C562.928 17.88 561.428 16.608 561.428 14.724C561.428 12.9 562.808 11.448 564.848 11.448C566.72 11.448 568.376 12.66 568.376 15.9C568.376 18.768 567.068 21.204 564.476 21.204ZM562.772 14.7C562.772 15.936 563.672 16.8 564.764 16.8C565.916 16.8 566.816 15.84 566.816 14.604C566.816 13.344 565.856 12.588 564.812 12.588C563.732 12.588 562.772 13.392 562.772 14.7ZM572.644 21.204C571.528 21.204 570.424 20.772 569.704 19.896L570.436 19.02C571.084 19.788 571.816 20.076 572.548 20.076C574.336 20.076 575.212 18.336 575.212 16.332H575.188C574.852 17.244 573.868 17.88 572.728 17.88C571.096 17.88 569.596 16.608 569.596 14.724C569.596 12.9 570.976 11.448 573.016 11.448C574.888 11.448 576.544 12.66 576.544 15.9C576.544 18.768 575.236 21.204 572.644 21.204ZM570.94 14.7C570.94 15.936 571.84 16.8 572.932 16.8C574.084 16.8 574.984 15.84 574.984 14.604C574.984 13.344 574.024 12.588 572.98 12.588C571.9 12.588 570.94 13.392 570.94 14.7ZM580.993 21.204C579.349 21.204 577.957 20.364 577.573 19.068L578.689 18.504C578.929 19.2 579.661 20.016 580.969 20.016C582.109 20.016 582.901 19.38 582.901 18.372C582.901 17.448 582.229 16.752 580.873 16.752H579.937V15.696H580.861C582.001 15.696 582.649 15.036 582.649 14.16C582.649 13.212 581.881 12.624 580.849 12.624C579.865 12.624 579.085 13.212 578.941 14.292L577.777 14.028C577.969 12.54 579.241 11.448 580.969 11.448C582.589 11.448 583.993 12.396 583.993 13.944C583.993 15 583.345 15.852 582.433 16.104V16.116C583.477 16.32 584.269 17.112 584.269 18.336C584.269 19.8 583.129 21.204 580.993 21.204ZM588.63 17.868V16.824H592.194V17.868H588.63ZM596.622 20.868C596.766 18.636 597.69 17.916 599.706 16.524C600.534 15.96 601.494 15.252 601.494 14.184C601.494 13.284 600.81 12.612 599.73 12.612C598.446 12.612 597.642 13.56 597.642 14.928L596.454 14.724C596.454 12.816 597.798 11.448 599.754 11.448C601.506 11.448 602.826 12.54 602.826 14.184C602.826 15.516 601.974 16.368 601.038 17.04C599.754 17.964 598.566 18.42 598.23 19.788H602.802V21H596.622V20.868ZM607.673 21.204C605.525 21.204 604.109 19.212 604.109 16.344C604.109 13.464 605.525 11.448 607.673 11.448C609.809 11.448 611.225 13.464 611.225 16.344C611.225 19.212 609.809 21.204 607.673 21.204ZM605.477 16.344C605.477 18.636 606.365 20.004 607.685 20.004C608.981 20.004 609.845 18.636 609.845 16.344C609.845 14.028 608.981 12.648 607.685 12.648C606.365 12.648 605.477 14.028 605.477 16.344ZM616.087 21.204C613.939 21.204 612.523 19.212 612.523 16.344C612.523 13.464 613.939 11.448 616.087 11.448C618.223 11.448 619.639 13.464 619.639 16.344C619.639 19.212 618.223 21.204 616.087 21.204ZM613.891 16.344C613.891 18.636 614.779 20.004 616.099 20.004C617.395 20.004 618.259 18.636 618.259 16.344C618.259 14.028 617.395 12.648 616.099 12.648C614.779 12.648 613.891 14.028 613.891 16.344ZM624.094 21.204C622.45 21.204 621.058 20.364 620.674 19.068L621.79 18.504C622.03 19.2 622.762 20.016 624.07 20.016C625.21 20.016 626.002 19.38 626.002 18.372C626.002 17.448 625.33 16.752 623.974 16.752H623.038V15.696H623.962C625.102 15.696 625.75 15.036 625.75 14.16C625.75 13.212 624.982 12.624 623.95 12.624C622.966 12.624 622.186 13.212 622.042 14.292L620.878 14.028C621.07 12.54 622.342 11.448 624.07 11.448C625.69 11.448 627.094 12.396 627.094 13.944C627.094 15 626.446 15.852 625.534 16.104V16.116C626.578 16.32 627.37 17.112 627.37 18.336C627.37 19.8 626.23 21.204 624.094 21.204Z" fill="#51585F"/>
<path d="M3.105 73V63.505C2.535 64.315 1.545 64.87 0.39 65.02V63.985C2.01 63.7 3.15 62.59 3.15 61.3H4.185V73H3.105ZM10.4511 73.255C8.54613 73.255 6.83613 72.25 6.23613 70.555L7.12113 70.06C7.69113 71.485 9.02613 72.295 10.4661 72.295C12.1311 72.295 13.4661 71.095 13.4661 69.31C13.4661 67.63 12.2361 66.445 10.6011 66.445C9.35613 66.445 8.35113 67.105 7.84113 68.02L6.97113 67.675L8.33613 61.3H13.9311V62.245H9.08613C8.77113 63.745 8.44113 65.23 8.12613 66.73H8.15613C8.59113 66.1 9.61113 65.56 10.8111 65.56C12.7461 65.56 14.5911 66.925 14.5911 69.28C14.5911 71.62 12.7611 73.255 10.4511 73.255ZM17.843 67.225C16.658 67.225 15.863 66.115 15.863 64.54C15.863 62.935 16.658 61.825 17.843 61.825C19.043 61.825 19.838 62.95 19.838 64.54C19.838 66.115 19.043 67.225 17.843 67.225ZM16.148 73L24.488 62.245H25.403L17.123 73H16.148ZM16.733 64.54C16.733 65.755 17.183 66.46 17.843 66.46C18.503 66.46 18.953 65.755 18.953 64.54C18.953 63.295 18.503 62.59 17.843 62.59C17.183 62.59 16.733 63.31 16.733 64.54ZM21.923 70.525C21.923 68.935 22.718 67.81 23.903 67.81C25.103 67.81 25.898 68.935 25.898 70.525C25.898 72.1 25.103 73.21 23.903 73.21C22.718 73.21 21.923 72.1 21.923 70.525ZM22.793 70.525C22.793 71.755 23.243 72.445 23.903 72.445C24.563 72.445 25.013 71.755 25.013 70.525C25.013 69.295 24.563 68.59 23.903 68.59C23.243 68.59 22.793 69.295 22.793 70.525Z" fill="#6A7379"/>
<path d="M3.105 134V124.505C2.535 125.315 1.545 125.87 0.39 126.02V124.985C2.01 124.7 3.15 123.59 3.15 122.3H4.185V134H3.105ZM11.0661 134.255C8.45613 134.255 6.68613 131.765 6.68613 128.18C6.68613 124.58 8.45613 122.06 11.0661 122.06C13.6461 122.06 15.4161 124.58 15.4161 128.18C15.4161 131.765 13.6461 134.255 11.0661 134.255ZM7.84113 128.18C7.84113 131.255 9.14613 133.25 11.0661 133.25C12.9711 133.25 14.2611 131.255 14.2611 128.18C14.2611 125.09 12.9711 123.065 11.0661 123.065C9.14613 123.065 7.84113 125.09 7.84113 128.18ZM18.8684 128.225C17.6834 128.225 16.8884 127.115 16.8884 125.54C16.8884 123.935 17.6834 122.825 18.8684 122.825C20.0684 122.825 20.8634 123.95 20.8634 125.54C20.8634 127.115 20.0684 128.225 18.8684 128.225ZM17.1734 134L25.5134 123.245H26.4284L18.1484 134H17.1734ZM17.7584 125.54C17.7584 126.755 18.2084 127.46 18.8684 127.46C19.5284 127.46 19.9784 126.755 19.9784 125.54C19.9784 124.295 19.5284 123.59 18.8684 123.59C18.2084 123.59 17.7584 124.31 17.7584 125.54ZM22.9484 131.525C22.9484 129.935 23.7434 128.81 24.9284 128.81C26.1284 128.81 26.9234 129.935 26.9234 131.525C26.9234 133.1 26.1284 134.21 24.9284 134.21C23.7434 134.21 22.9484 133.1 22.9484 131.525ZM23.8184 131.525C23.8184 132.755 24.2684 133.445 24.9284 133.445C25.5884 133.445 26.0384 132.755 26.0384 131.525C26.0384 130.295 25.5884 129.59 24.9284 129.59C24.2684 129.59 23.8184 130.295 23.8184 131.525Z" fill="#6A7379"/>
<path d="M4.665 195.255C2.76 195.255 1.05 194.25 0.45 192.555L1.335 192.06C1.905 193.485 3.24 194.295 4.68 194.295C6.345 194.295 7.68 193.095 7.68 191.31C7.68 189.63 6.45 188.445 4.815 188.445C3.57 188.445 2.565 189.105 2.055 190.02L1.185 189.675L2.55 183.3H8.145V184.245H3.3C2.985 185.745 2.655 187.23 2.34 188.73H2.37C2.805 188.1 3.825 187.56 5.025 187.56C6.96 187.56 8.805 188.925 8.805 191.28C8.805 193.62 6.975 195.255 4.665 195.255ZM12.0568 189.225C10.8718 189.225 10.0768 188.115 10.0768 186.54C10.0768 184.935 10.8718 183.825 12.0568 183.825C13.2568 183.825 14.0518 184.95 14.0518 186.54C14.0518 188.115 13.2568 189.225 12.0568 189.225ZM10.3618 195L18.7018 184.245H19.6168L11.3368 195H10.3618ZM10.9468 186.54C10.9468 187.755 11.3968 188.46 12.0568 188.46C12.7168 188.46 13.1668 187.755 13.1668 186.54C13.1668 185.295 12.7168 184.59 12.0568 184.59C11.3968 184.59 10.9468 185.31 10.9468 186.54ZM16.1368 192.525C16.1368 190.935 16.9318 189.81 18.1168 189.81C19.3168 189.81 20.1118 190.935 20.1118 192.525C20.1118 194.1 19.3168 195.21 18.1168 195.21C16.9318 195.21 16.1368 194.1 16.1368 192.525ZM17.0068 192.525C17.0068 193.755 17.4568 194.445 18.1168 194.445C18.7768 194.445 19.2268 193.755 19.2268 192.525C19.2268 191.295 18.7768 190.59 18.1168 190.59C17.4568 190.59 17.0068 191.295 17.0068 192.525Z" fill="#6A7379"/>
<path d="M5.28 256.255C2.67 256.255 0.9 253.765 0.9 250.18C0.9 246.58 2.67 244.06 5.28 244.06C7.86 244.06 9.63 246.58 9.63 250.18C9.63 253.765 7.86 256.255 5.28 256.255ZM2.055 250.18C2.055 253.255 3.36 255.25 5.28 255.25C7.185 255.25 8.475 253.255 8.475 250.18C8.475 247.09 7.185 245.065 5.28 245.065C3.36 245.065 2.055 247.09 2.055 250.18ZM13.0822 250.225C11.8972 250.225 11.1022 249.115 11.1022 247.54C11.1022 245.935 11.8972 244.825 13.0822 244.825C14.2822 244.825 15.0772 245.95 15.0772 247.54C15.0772 249.115 14.2822 250.225 13.0822 250.225ZM11.3872 256L19.7272 245.245H20.6422L12.3622 256H11.3872ZM11.9722 247.54C11.9722 248.755 12.4222 249.46 13.0822 249.46C13.7422 249.46 14.1922 248.755 14.1922 247.54C14.1922 246.295 13.7422 245.59 13.0822 245.59C12.4222 245.59 11.9722 246.31 11.9722 247.54ZM17.1622 253.525C17.1622 251.935 17.9572 250.81 19.1422 250.81C20.3422 250.81 21.1372 251.935 21.1372 253.525C21.1372 255.1 20.3422 256.21 19.1422 256.21C17.9572 256.21 17.1622 255.1 17.1622 253.525ZM18.0322 253.525C18.0322 254.755 18.4822 255.445 19.1422 255.445C19.8022 255.445 20.2522 254.755 20.2522 253.525C20.2522 252.295 19.8022 251.59 19.1422 251.59C18.4822 251.59 18.0322 252.295 18.0322 253.525Z" fill="#6A7379"/>
<path d="M0.885 312.875V311.99H4.965V312.875H0.885ZM10.5097 317.255C8.60473 317.255 6.89473 316.25 6.29473 314.555L7.17973 314.06C7.74973 315.485 9.08473 316.295 10.5247 316.295C12.1897 316.295 13.5247 315.095 13.5247 313.31C13.5247 311.63 12.2947 310.445 10.6597 310.445C9.41473 310.445 8.40973 311.105 7.89973 312.02L7.02973 311.675L8.39473 305.3H13.9897V306.245H9.14473C8.82973 307.745 8.49973 309.23 8.18473 310.73H8.21473C8.64973 310.1 9.66973 309.56 10.8697 309.56C12.8047 309.56 14.6497 310.925 14.6497 313.28C14.6497 315.62 12.8197 317.255 10.5097 317.255ZM17.9016 311.225C16.7166 311.225 15.9216 310.115 15.9216 308.54C15.9216 306.935 16.7166 305.825 17.9016 305.825C19.1016 305.825 19.8966 306.95 19.8966 308.54C19.8966 310.115 19.1016 311.225 17.9016 311.225ZM16.2066 317L24.5466 306.245H25.4616L17.1816 317H16.2066ZM16.7916 308.54C16.7916 309.755 17.2416 310.46 17.9016 310.46C18.5616 310.46 19.0116 309.755 19.0116 308.54C19.0116 307.295 18.5616 306.59 17.9016 306.59C17.2416 306.59 16.7916 307.31 16.7916 308.54ZM21.9816 314.525C21.9816 312.935 22.7766 311.81 23.9616 311.81C25.1616 311.81 25.9566 312.935 25.9566 314.525C25.9566 316.1 25.1616 317.21 23.9616 317.21C22.7766 317.21 21.9816 316.1 21.9816 314.525ZM22.8516 314.525C22.8516 315.755 23.3016 316.445 23.9616 316.445C24.6216 316.445 25.0716 315.755 25.0716 314.525C25.0716 313.295 24.6216 312.59 23.9616 312.59C23.3016 312.59 22.8516 313.295 22.8516 314.525Z" fill="#6A7379"/>
<path d="M0.885 372.875V371.99H4.965V372.875H0.885ZM8.53957 377V367.505C7.96957 368.315 6.97957 368.87 5.82457 369.02V367.985C7.44457 367.7 8.58457 366.59 8.58457 365.3H9.61957V377H8.53957ZM16.5007 377.255C13.8907 377.255 12.1207 374.765 12.1207 371.18C12.1207 367.58 13.8907 365.06 16.5007 365.06C19.0807 365.06 20.8507 367.58 20.8507 371.18C20.8507 374.765 19.0807 377.255 16.5007 377.255ZM13.2757 371.18C13.2757 374.255 14.5807 376.25 16.5007 376.25C18.4057 376.25 19.6957 374.255 19.6957 371.18C19.6957 368.09 18.4057 366.065 16.5007 366.065C14.5807 366.065 13.2757 368.09 13.2757 371.18ZM24.3029 371.225C23.1179 371.225 22.3229 370.115 22.3229 368.54C22.3229 366.935 23.1179 365.825 24.3029 365.825C25.5029 365.825 26.2979 366.95 26.2979 368.54C26.2979 370.115 25.5029 371.225 24.3029 371.225ZM22.6079 377L30.9479 366.245H31.8629L23.5829 377H22.6079ZM23.1929 368.54C23.1929 369.755 23.6429 370.46 24.3029 370.46C24.9629 370.46 25.4129 369.755 25.4129 368.54C25.4129 367.295 24.9629 366.59 24.3029 366.59C23.6429 366.59 23.1929 367.31 23.1929 368.54ZM28.3829 374.525C28.3829 372.935 29.1779 371.81 30.3629 371.81C31.5629 371.81 32.3579 372.935 32.3579 374.525C32.3579 376.1 31.5629 377.21 30.3629 377.21C29.1779 377.21 28.3829 376.1 28.3829 374.525ZM29.2529 374.525C29.2529 375.755 29.7029 376.445 30.3629 376.445C31.0229 376.445 31.4729 375.755 31.4729 374.525C31.4729 373.295 31.0229 372.59 30.3629 372.59C29.7029 372.59 29.2529 373.295 29.2529 374.525Z" fill="#6A7379"/>
<path d="M107.436 233.255C105.306 233.255 103.461 232.13 102.876 229.805L104.631 229.19C105.096 230.915 106.251 231.53 107.421 231.53C108.531 231.53 109.611 230.99 109.611 229.85C109.611 228.695 108.531 228.38 107.481 228.065L106.431 227.735C105.276 227.375 103.266 226.625 103.266 224.42C103.266 222.305 105.096 221.06 107.241 221.06C109.341 221.06 110.826 222.275 111.246 223.805L109.521 224.51C109.146 223.445 108.351 222.77 107.181 222.77C106.056 222.77 105.246 223.385 105.246 224.27C105.246 225.38 106.536 225.83 107.406 226.115L108.621 226.505C109.746 226.865 111.636 227.42 111.636 229.61C111.636 231.725 109.911 233.255 107.436 233.255ZM115.787 223.04H112.142V221.3H121.337V223.04H117.677V233H115.787V223.04ZM122.036 231.23C124.211 228.5 126.401 225.785 128.576 223.055V223.04H122.246V221.3H130.946V223.085L124.346 231.215V231.245H131.081V233H122.036V231.23Z" fill="#6A7379"/>
<path d="M211.435 277.255C209.155 277.255 207.355 276.025 206.8 273.79L208.885 273.085C209.335 274.735 210.4 275.23 211.405 275.23C212.44 275.23 213.355 274.735 213.355 273.79C213.355 272.8 212.365 272.485 211.375 272.17L210.325 271.855C209.17 271.51 207.205 270.73 207.205 268.51C207.205 266.395 208.99 265.06 211.24 265.06C213.46 265.06 214.93 266.365 215.305 267.79L213.265 268.615C212.905 267.67 212.23 267.085 211.195 267.085C210.205 267.085 209.545 267.61 209.545 268.33C209.545 269.275 210.64 269.68 211.57 269.98L212.8 270.37C213.865 270.715 215.725 271.3 215.725 273.52C215.725 275.635 214.06 277.255 211.435 277.255ZM217.171 277V268.63H219.271V277H217.171ZM216.931 266.035C216.931 265.345 217.486 264.76 218.236 264.76C218.971 264.76 219.526 265.345 219.526 266.035C219.526 266.785 218.971 267.37 218.236 267.37C217.486 267.37 216.931 266.785 216.931 266.035ZM221.331 277V268.63H223.401V269.86H223.431C224.046 268.855 225.006 268.39 226.026 268.39C227.571 268.39 228.951 269.44 228.951 271.72V277H226.851V272.65C226.851 271.54 226.566 270.4 225.276 270.4C224.286 270.4 223.431 271.09 223.431 272.68V277H221.331ZM234.676 280.54C233.191 280.54 231.436 280.075 230.701 278.14L232.606 277.45C233.011 278.365 233.641 278.755 234.616 278.755C235.996 278.755 236.746 277.9 236.746 276.1V275.71H236.716C236.131 276.64 235.186 276.955 234.241 276.955C231.736 276.955 230.401 274.975 230.401 272.695C230.401 270.175 232.036 268.39 234.166 268.39C235.411 268.39 236.281 268.99 236.746 269.755H236.776V268.63H238.846V276.16C238.846 279.55 236.836 280.54 234.676 280.54ZM232.576 272.65C232.576 273.925 233.446 274.945 234.676 274.945C235.921 274.945 236.791 273.91 236.791 272.65C236.791 271.375 235.906 270.385 234.676 270.385C233.446 270.385 232.576 271.39 232.576 272.65ZM240.916 277V265H243.016V277H240.916ZM248.887 277.255C246.412 277.255 244.552 275.515 244.552 272.86C244.552 270.28 246.292 268.39 248.737 268.39C250.822 268.39 252.772 269.77 252.772 272.845V273.415H246.652C246.832 274.675 247.777 275.365 248.872 275.365C249.727 275.365 250.462 274.9 250.837 274.03L252.802 274.825C252.247 276.19 250.837 277.255 248.887 277.255ZM246.757 271.975H250.657C250.507 270.685 249.667 270.19 248.722 270.19C247.642 270.19 246.967 270.925 246.757 271.975ZM258.133 277V265.3H265.663V267.37H260.368C260.368 268.33 260.368 269.275 260.368 270.22H265.363V272.395H260.368C260.368 273.925 260.368 275.47 260.368 277H258.133ZM269.197 277.255C267.772 277.255 266.392 276.46 266.392 274.81C266.392 273.25 267.637 272.62 269.092 272.305C270.982 271.9 271.582 271.84 271.582 271.18C271.582 270.565 271.057 270.1 270.247 270.1C269.512 270.1 268.882 270.49 268.612 271.435L266.647 270.775C267.172 269.02 268.702 268.39 270.322 268.39C272.392 268.39 273.697 269.41 273.697 271.36V274.39C273.697 275.755 273.802 276.34 273.967 277H271.882C271.762 276.64 271.717 276.295 271.717 275.905H271.687C271.252 276.73 270.292 277.255 269.197 277.255ZM268.687 274.75C268.687 275.35 269.167 275.635 269.812 275.635C270.922 275.635 271.597 274.705 271.597 273.85V273.175C271.162 273.355 270.427 273.55 269.962 273.64C269.302 273.805 268.687 274.12 268.687 274.75ZM275.706 277V268.63H277.776V269.86H277.806C278.376 268.885 279.381 268.39 280.356 268.39C281.376 268.39 282.381 268.9 282.846 269.92H282.876C283.686 268.765 284.706 268.39 285.591 268.39C287.091 268.39 288.546 269.5 288.546 271.72V277H286.446V272.65C286.446 271.51 286.161 270.4 284.961 270.4C284.046 270.4 283.176 271.09 283.176 272.68V277H281.076V272.635C281.076 271.495 280.791 270.4 279.591 270.4C278.661 270.4 277.806 271.09 277.806 272.68V277H275.706ZM290.531 277V268.63H292.631V277H290.531ZM290.291 266.035C290.291 265.345 290.846 264.76 291.596 264.76C292.331 264.76 292.886 265.345 292.886 266.035C292.886 266.785 292.331 267.37 291.596 267.37C290.846 267.37 290.291 266.785 290.291 266.035ZM294.691 277V265H296.791V277H294.691ZM299.991 280.3L301.116 277.36L297.876 268.63H300.186C300.891 270.55 301.536 272.44 302.241 274.555H302.271C302.961 272.44 303.636 270.55 304.311 268.63H306.561L302.226 280.3H299.991ZM229.554 295V283.3H234.069C234.864 283.3 238.134 283.63 238.134 287.065C238.134 289.27 236.829 290.29 235.494 290.635V290.65C236.469 292.09 237.444 293.545 238.419 295H235.899L233.139 290.815H231.789C231.789 292.21 231.789 293.605 231.789 295H229.554ZM231.789 288.835H233.664C234.504 288.835 235.794 288.52 235.794 287.11C235.794 285.715 234.519 285.325 233.694 285.325H231.789C231.789 286.645 231.789 287.515 231.789 288.835ZM243.423 295.255C240.948 295.255 239.088 293.515 239.088 290.86C239.088 288.28 240.828 286.39 243.273 286.39C245.358 286.39 247.308 287.77 247.308 290.845V291.415H241.188C241.368 292.675 242.313 293.365 243.408 293.365C244.263 293.365 244.998 292.9 245.373 292.03L247.338 292.825C246.783 294.19 245.373 295.255 243.423 295.255ZM241.293 289.975H245.193C245.043 288.685 244.203 288.19 243.258 288.19C242.178 288.19 241.503 288.925 241.293 289.975ZM248.885 295V286.63H250.955V287.86H250.985C251.6 286.855 252.56 286.39 253.58 286.39C255.125 286.39 256.505 287.44 256.505 289.72V295H254.405V290.65C254.405 289.54 254.12 288.4 252.83 288.4C251.84 288.4 250.985 289.09 250.985 290.68V295H248.885ZM261.992 295.255C259.187 295.255 259.187 293.2 259.187 292.33V288.535C258.632 288.535 258.092 288.535 257.537 288.535V286.63H259.187C259.187 285.85 259.187 285.055 259.187 284.26H261.287V286.63C262.037 286.63 262.802 286.63 263.552 286.63V288.535H261.287C261.287 289.555 261.287 290.56 261.287 291.58C261.287 292.375 261.287 293.35 262.427 293.35C262.832 293.35 263.222 293.23 263.552 293.05V294.94C263.132 295.165 262.577 295.255 261.992 295.255ZM267.293 295.255C265.868 295.255 264.488 294.46 264.488 292.81C264.488 291.25 265.733 290.62 267.188 290.305C269.078 289.9 269.678 289.84 269.678 289.18C269.678 288.565 269.153 288.1 268.343 288.1C267.608 288.1 266.978 288.49 266.708 289.435L264.743 288.775C265.268 287.02 266.798 286.39 268.418 286.39C270.488 286.39 271.793 287.41 271.793 289.36V292.39C271.793 293.755 271.898 294.34 272.063 295H269.978C269.858 294.64 269.813 294.295 269.813 293.905H269.783C269.348 294.73 268.388 295.255 267.293 295.255ZM266.783 292.75C266.783 293.35 267.263 293.635 267.908 293.635C269.018 293.635 269.693 292.705 269.693 291.85V291.175C269.258 291.355 268.523 291.55 268.058 291.64C267.398 291.805 266.783 292.12 266.783 292.75ZM273.802 295V283H275.902V295H273.802ZM280.902 295.255C278.997 295.255 277.647 294.31 277.257 292.9L279.207 292.27C279.582 293.2 280.287 293.53 280.887 293.53C281.382 293.53 281.982 293.335 281.982 292.735C281.982 292.135 281.352 291.94 280.797 291.775L279.912 291.505C278.877 291.19 277.647 290.56 277.647 289.015C277.647 287.41 278.997 286.39 280.797 286.39C282.477 286.39 283.647 287.305 283.992 288.505L282.057 289.135C281.862 288.595 281.472 288.1 280.737 288.1C280.152 288.1 279.747 288.415 279.747 288.88C279.747 289.48 280.557 289.735 281.217 289.93L281.862 290.11C282.672 290.335 284.217 290.77 284.217 292.54C284.217 294.19 282.927 295.255 280.902 295.255Z" fill="white"/>
<path d="M368.002 277.255C366.277 277.255 364.297 276.385 363.622 273.82L364.612 273.46C365.107 275.335 366.472 276.265 368.032 276.265C369.337 276.265 370.837 275.605 370.837 273.985C370.837 272.455 369.487 272.155 368.347 271.795L367.252 271.45C366.082 271.075 364.027 270.355 364.027 268.18C364.027 266.095 365.947 265.06 367.822 265.06C369.652 265.06 371.182 266.05 371.692 267.865L370.732 268.255C370.297 266.92 369.217 266.05 367.717 266.05C366.307 266.05 365.152 266.845 365.152 268.105C365.152 269.65 366.877 270.19 367.627 270.43L368.767 270.805C370.072 271.225 371.992 271.705 371.992 273.835C371.992 275.92 370.147 277.255 368.002 277.255ZM376.77 277.255C375 277.255 373.425 276.175 373.425 274.345C373.425 272.65 374.79 271.66 376.05 270.865C375.24 269.995 374.265 268.855 374.265 267.58C374.265 266.14 375.48 265.06 377.085 265.06C378.795 265.06 379.86 266.32 379.86 267.655C379.86 269.065 378.69 270.205 377.49 270.985L380.055 273.7C380.4 272.95 380.655 272.125 380.835 271.27L381.795 271.48C381.51 272.56 381.18 273.565 380.73 274.405L383.175 276.985H381.915L380.22 275.2C379.365 276.475 378.255 277.255 376.77 277.255ZM374.49 274.255C374.49 275.53 375.555 276.31 376.815 276.31C378 276.31 378.885 275.59 379.56 274.525L376.695 271.525C375.555 272.26 374.49 272.965 374.49 274.255ZM375.345 267.58C375.345 268.6 376.095 269.485 376.89 270.355C378.015 269.575 378.78 268.945 378.78 267.76C378.78 266.62 378.03 266.005 377.04 266.005C376.125 266.005 375.345 266.56 375.345 267.58ZM384.549 277V265.3H388.659C390.774 265.3 392.499 266.53 392.499 268.765C392.499 271.15 390.699 272.35 388.899 272.35H385.629C385.629 274.06 385.629 275.305 385.629 277H384.549ZM385.629 271.345H388.569C390.264 271.345 391.374 270.475 391.374 268.825C391.374 267.175 390.159 266.275 388.464 266.275H385.629C385.629 268.015 385.629 269.83 385.629 271.345ZM401.071 277.255C399.166 277.255 397.456 276.25 396.856 274.555L397.741 274.06C398.311 275.485 399.646 276.295 401.086 276.295C402.751 276.295 404.086 275.095 404.086 273.31C404.086 271.63 402.856 270.445 401.221 270.445C399.976 270.445 398.971 271.105 398.461 272.02L397.591 271.675L398.956 265.3H404.551V266.245H399.706C399.391 267.745 399.061 269.23 398.746 270.73H398.776C399.211 270.1 400.231 269.56 401.431 269.56C403.366 269.56 405.211 270.925 405.211 273.28C405.211 275.62 403.381 277.255 401.071 277.255ZM411.193 277.255C408.583 277.255 406.813 274.765 406.813 271.18C406.813 267.58 408.583 265.06 411.193 265.06C413.773 265.06 415.543 267.58 415.543 271.18C415.543 274.765 413.773 277.255 411.193 277.255ZM407.968 271.18C407.968 274.255 409.273 276.25 411.193 276.25C413.098 276.25 414.388 274.255 414.388 271.18C414.388 268.09 413.098 266.065 411.193 266.065C409.273 266.065 407.968 268.09 407.968 271.18ZM421.725 277.255C419.115 277.255 417.345 274.765 417.345 271.18C417.345 267.58 419.115 265.06 421.725 265.06C424.305 265.06 426.075 267.58 426.075 271.18C426.075 274.765 424.305 277.255 421.725 277.255ZM418.5 271.18C418.5 274.255 419.805 276.25 421.725 276.25C423.63 276.25 424.92 274.255 424.92 271.18C424.92 268.09 423.63 266.065 421.725 266.065C419.805 266.065 418.5 268.09 418.5 271.18Z" fill="#6A7379"/>
<path d="M516.638 277V265.3H520.748C522.833 265.3 524.588 266.53 524.588 268.78C524.588 270.79 523.328 272.11 521.558 272.29V272.305C522.608 273.865 523.658 275.425 524.708 277H523.508L520.388 272.335H517.718C517.718 273.895 517.718 275.44 517.718 277H516.638ZM517.718 271.375H520.658C522.353 271.375 523.463 270.49 523.463 268.84C523.463 267.205 522.248 266.275 520.553 266.275H517.718C517.718 267.955 517.718 269.695 517.718 271.375ZM527.054 277V265.3H534.419V266.275H528.134C528.134 267.685 528.134 269.08 528.134 270.49H534.119V271.495H528.134C528.134 272.995 528.134 274.48 528.134 275.98H534.569V277H527.054ZM536.927 277V265.3H538.007V277H536.927ZM543.815 266.275H539.81V265.3H548.885V266.275H544.88V277H543.815V266.275ZM551.41 277.255C549.775 277.255 548.455 276.325 548.005 274.93L548.95 274.63C549.37 275.68 550.405 276.385 551.425 276.385C552.115 276.385 553.3 276.04 553.3 274.885C553.3 273.94 552.445 273.655 551.56 273.415L550.765 273.19C549.985 272.965 548.395 272.47 548.395 270.79C548.395 269.215 549.835 268.48 551.125 268.48C552.55 268.48 553.69 269.38 554.065 270.505L553.09 270.835C552.82 270.055 552.115 269.35 551.035 269.35C550.105 269.35 549.415 269.875 549.415 270.7C549.415 271.75 550.54 272.125 551.335 272.365L552.115 272.59C553.015 272.845 554.365 273.25 554.365 274.75C554.365 276.16 553.165 277.255 551.41 277.255Z" fill="#6A7379"/>
<path d="M383.247 112.238C382.057 112.238 380.797 111.762 379.845 110.614L380.475 109.97C381.329 110.978 382.211 111.356 383.149 111.356C385.487 111.356 386.551 109.004 386.551 106.19H386.523C386.145 107.52 384.815 108.402 383.359 108.402C381.427 108.402 379.747 106.848 379.747 104.65C379.747 102.494 381.343 100.856 383.625 100.856C385.655 100.856 387.573 102.158 387.573 106.008C387.573 109.298 386.173 112.238 383.247 112.238ZM380.783 104.65C380.783 106.33 381.945 107.562 383.471 107.562C385.081 107.562 386.285 106.19 386.285 104.496C386.285 102.76 385.011 101.724 383.569 101.724C382.057 101.724 380.783 102.872 380.783 104.65ZM389.515 112.098C389.067 112.098 388.731 111.748 388.731 111.3C388.731 110.88 389.067 110.53 389.515 110.53C389.935 110.53 390.271 110.88 390.271 111.3C390.271 111.748 389.935 112.098 389.515 112.098ZM395.429 112.238C394.239 112.238 392.979 111.762 392.027 110.614L392.657 109.97C393.511 110.978 394.393 111.356 395.331 111.356C397.669 111.356 398.733 109.004 398.733 106.19H398.705C398.327 107.52 396.997 108.402 395.541 108.402C393.609 108.402 391.929 106.848 391.929 104.65C391.929 102.494 393.525 100.856 395.807 100.856C397.837 100.856 399.755 102.158 399.755 106.008C399.755 109.298 398.355 112.238 395.429 112.238ZM392.965 104.65C392.965 106.33 394.127 107.562 395.653 107.562C397.263 107.562 398.467 106.19 398.467 104.496C398.467 102.76 397.193 101.724 395.751 101.724C394.239 101.724 392.965 102.872 392.965 104.65ZM402.985 106.61C401.879 106.61 401.137 105.574 401.137 104.104C401.137 102.606 401.879 101.57 402.985 101.57C404.105 101.57 404.847 102.62 404.847 104.104C404.847 105.574 404.105 106.61 402.985 106.61ZM401.403 112L409.187 101.962H410.041L402.313 112H401.403ZM401.949 104.104C401.949 105.238 402.369 105.896 402.985 105.896C403.601 105.896 404.021 105.238 404.021 104.104C404.021 102.942 403.601 102.284 402.985 102.284C402.369 102.284 401.949 102.956 401.949 104.104ZM406.793 109.69C406.793 108.206 407.535 107.156 408.641 107.156C409.761 107.156 410.503 108.206 410.503 109.69C410.503 111.16 409.761 112.196 408.641 112.196C407.535 112.196 406.793 111.16 406.793 109.69ZM407.605 109.69C407.605 110.838 408.025 111.482 408.641 111.482C409.257 111.482 409.677 110.838 409.677 109.69C409.677 108.542 409.257 107.884 408.641 107.884C408.025 107.884 407.605 108.542 407.605 109.69Z" fill="#99A2A8"/>
<path d="M371 139C371 134.582 374.582 131 379 131H411C415.418 131 419 134.582 419 139V249H371V139Z" fill="white" fill-opacity="0.2"/>
<path d="M522.52 123.238C521.33 123.238 520.07 122.762 519.118 121.614L519.748 120.97C520.602 121.978 521.484 122.356 522.422 122.356C524.76 122.356 525.824 120.004 525.824 117.19H525.796C525.418 118.52 524.088 119.402 522.632 119.402C520.7 119.402 519.02 117.848 519.02 115.65C519.02 113.494 520.616 111.856 522.898 111.856C524.928 111.856 526.846 113.158 526.846 117.008C526.846 120.298 525.446 123.238 522.52 123.238ZM520.056 115.65C520.056 117.33 521.218 118.562 522.744 118.562C524.354 118.562 525.558 117.19 525.558 115.496C525.558 113.76 524.284 112.724 522.842 112.724C521.33 112.724 520.056 113.872 520.056 115.65ZM528.789 123.098C528.341 123.098 528.005 122.748 528.005 122.3C528.005 121.88 528.341 121.53 528.789 121.53C529.209 121.53 529.545 121.88 529.545 122.3C529.545 122.748 529.209 123.098 528.789 123.098ZM534.856 123.238C533.008 123.238 531.496 122.258 531.034 120.746L531.888 120.312C532.266 121.432 533.344 122.328 534.856 122.328C536.368 122.328 537.474 121.418 537.474 120.032C537.474 118.772 536.564 117.806 534.632 117.806H533.554V116.98H534.716C536.326 116.98 537.152 116.028 537.152 114.866C537.152 113.564 536.102 112.766 534.702 112.766C533.386 112.766 532.35 113.522 532.14 114.894L531.258 114.712C531.496 112.976 532.938 111.856 534.8 111.856C536.62 111.856 538.188 112.92 538.188 114.712C538.188 115.972 537.404 117.008 536.298 117.33V117.344C537.586 117.596 538.51 118.52 538.51 119.962C538.51 121.712 537.166 123.238 534.856 123.238ZM541.712 117.61C540.606 117.61 539.864 116.574 539.864 115.104C539.864 113.606 540.606 112.57 541.712 112.57C542.832 112.57 543.574 113.62 543.574 115.104C543.574 116.574 542.832 117.61 541.712 117.61ZM540.13 123L547.914 112.962H548.768L541.04 123H540.13ZM540.676 115.104C540.676 116.238 541.096 116.896 541.712 116.896C542.328 116.896 542.748 116.238 542.748 115.104C542.748 113.942 542.328 113.284 541.712 113.284C541.096 113.284 540.676 113.956 540.676 115.104ZM545.52 120.69C545.52 119.206 546.262 118.156 547.368 118.156C548.488 118.156 549.23 119.206 549.23 120.69C549.23 122.16 548.488 123.196 547.368 123.196C546.262 123.196 545.52 122.16 545.52 120.69ZM546.332 120.69C546.332 121.838 546.752 122.482 547.368 122.482C547.984 122.482 548.404 121.838 548.404 120.69C548.404 119.542 547.984 118.884 547.368 118.884C546.752 118.884 546.332 119.542 546.332 120.69Z" fill="#99A2A8"/>
<path d="M510 150C510 145.582 513.582 142 518 142H550C554.418 142 558 145.582 558 150V249H510V150Z" fill="white" fill-opacity="0.2"/>
<path d="M234.104 65V55.837C233.492 56.517 232.438 57.146 231.486 57.367V54.732C232.999 54.273 234.155 53.049 234.155 51.74H236.637V65H234.104ZM243.625 65.289C241.194 65.289 239.086 64.099 238.525 62.263L240.735 61.158C240.939 61.719 241.67 62.96 243.54 62.96C244.917 62.96 245.801 62.28 245.801 61.141C245.801 60.087 245.019 59.305 243.557 59.305H242.214V57.248H243.421C244.662 57.248 245.461 56.568 245.461 55.531C245.461 54.46 244.594 53.78 243.404 53.78C242.214 53.78 241.313 54.511 241.126 55.871L238.848 55.344C239.086 53.236 240.939 51.468 243.625 51.468C246.005 51.468 248.096 52.845 248.096 55.089C248.096 56.551 247.229 57.69 245.988 57.996V58.013C247.365 58.285 248.487 59.407 248.487 61.107C248.487 63.147 246.906 65.289 243.625 65.289ZM251.45 65.119C250.617 65.119 249.937 64.439 249.937 63.572C249.937 62.756 250.617 62.093 251.45 62.093C252.283 62.093 252.946 62.756 252.946 63.572C252.946 64.439 252.283 65.119 251.45 65.119ZM259.334 65.289C256.308 65.289 254.336 63.47 254.336 61.294C254.336 59.628 255.475 58.387 256.716 58.047V58.013C255.577 57.52 254.931 56.466 254.931 55.191C254.931 53.015 256.852 51.468 259.334 51.468C261.765 51.468 263.737 52.947 263.737 55.208C263.737 56.398 263.21 57.52 261.918 58.013V58.047C263.176 58.387 264.332 59.628 264.332 61.294C264.332 63.487 262.36 65.289 259.334 65.289ZM256.954 60.971C256.954 62.297 258.042 63.079 259.283 63.079C260.524 63.079 261.714 62.297 261.714 60.937C261.714 59.713 260.762 58.88 259.334 58.88C257.957 58.88 256.954 59.679 256.954 60.971ZM257.464 55.31C257.464 56.296 258.28 57.01 259.334 57.01C260.371 57.01 261.187 56.313 261.187 55.31C261.187 54.324 260.388 53.627 259.334 53.627C258.297 53.627 257.464 54.324 257.464 55.31ZM268.189 59.067C266.523 59.067 265.503 57.639 265.503 55.616C265.503 53.576 266.523 52.148 268.189 52.148C269.855 52.148 270.858 53.576 270.858 55.616C270.858 57.622 269.855 59.067 268.189 59.067ZM265.979 65L275.431 52.811H277.573L268.189 65H265.979ZM267.509 55.616C267.509 56.857 267.781 57.282 268.189 57.282C268.563 57.282 268.852 56.874 268.852 55.616C268.852 54.324 268.563 53.916 268.189 53.916C267.781 53.916 267.509 54.341 267.509 55.616ZM273.136 61.787C273.136 59.747 274.139 58.319 275.805 58.319C277.471 58.319 278.491 59.764 278.491 61.787C278.491 63.81 277.471 65.238 275.805 65.238C274.139 65.238 273.136 63.827 273.136 61.787ZM275.142 61.787C275.142 63.045 275.414 63.47 275.805 63.47C276.196 63.47 276.468 63.062 276.468 61.787C276.468 60.495 276.196 60.087 275.805 60.087C275.414 60.087 275.142 60.512 275.142 61.787Z" fill="white"/>
<g clip-path="url(#clip0_3186_5387)">
<path d="M279 250.5C279.552 250.5 280 250.052 280 249.5V93C280 88.0294 275.971 84 271 84H239C234.029 84 230 88.0294 230 93V249.5C230 250.052 230.448 250.5 231 250.5H279Z" fill="#3C9689" stroke="#DDFFF4" stroke-width="2" stroke-linejoin="round"/>
</g>
<path fill-rule="evenodd" clip-rule="evenodd" d="M63 250V248H628V250H63Z" fill="#99A2A8"/>
<defs>
<clipPath id="clip0_3186_5387">
<rect width="52" height="166" fill="white" transform="translate(229 83)"/>
</clipPath>
</defs>
</svg>
