<svg width="519" height="471" viewBox="0 0 519 471" fill="none" xmlns="http://www.w3.org/2000/svg">
<rect width="519" height="471" fill="#F0EEEB"/>
<g clip-path="url(#clip0_3005_10515)">
<path fill-rule="evenodd" clip-rule="evenodd" d="M519 0H1L30.4862 112H489.514L519 0ZM487.408 120H32.5924L62.0786 232H457.921L487.408 120ZM93.6709 352L64.1847 240H455.815L426.329 352H93.6709ZM95.7771 360L125 471H395L424.223 360H95.7771Z" fill="#003726"/>
</g>
<g clip-path="url(#clip1_3005_10515)">
<path fill-rule="evenodd" clip-rule="evenodd" d="M519 0H1L30.4862 112H489.514L519 0ZM487.408 120H32.5924L62.0786 232H457.921L487.408 120ZM93.6709 352L64.1847 240H455.815L426.329 352H93.6709ZM95.7771 360L125 471H395L424.223 360H95.7771Z" fill="#16AF7F"/>
</g>
<g clip-path="url(#clip2_3005_10515)">
<path fill-rule="evenodd" clip-rule="evenodd" d="M519 0H1L30.4862 112H489.514L519 0ZM487.408 120H32.5924L62.0786 232H457.921L487.408 120ZM93.6709 352L64.1847 240H455.815L426.329 352H93.6709ZM95.7771 360L125 471H395L424.223 360H95.7771Z" fill="#046149"/>
</g>
<g clip-path="url(#clip3_3005_10515)">
<path fill-rule="evenodd" clip-rule="evenodd" d="M519 0H1L30.4862 112H489.514L519 0ZM487.408 120H32.5924L62.0786 232H457.921L487.408 120ZM93.6709 352L64.1847 240H455.815L426.329 352H93.6709ZM95.7771 360L125 471H395L424.223 360H95.7771Z" fill="#004634"/>
</g>
<path d="M279.639 54.4485V48.8485H274.359V44.1125H279.639V38.4805H284.631V44.1125H289.879V48.8485H284.631V54.4485H279.639Z" fill="white"/>
<path d="M260.707 55.312C253.475 55.312 249.699 50.864 249.699 42.672C249.699 34.448 253.475 30 260.707 30C267.971 30 271.715 34.48 271.715 42.672C271.715 50.864 267.971 55.312 260.707 55.312ZM257.027 42.672C257.027 48.272 258.083 50.224 260.707 50.224C263.331 50.224 264.419 48.272 264.419 42.672C264.419 37.072 263.331 35.088 260.707 35.088C258.083 35.088 257.027 37.072 257.027 42.672Z" fill="white"/>
<path d="M226.478 53.392C226.478 50.032 227.63 48.656 233.23 44.656C237.87 41.328 239.918 40.208 239.918 37.776C239.918 36.048 238.958 35.056 237.006 35.056C234.286 35.056 233.07 37.2 233.038 40.016H226.414C226.574 33.872 230.702 30 237.678 30C243.534 30 247.054 32.72 247.054 37.392C247.054 40.784 245.166 42.832 240.43 45.744C238.478 46.96 236.654 48.112 235.054 49.2H246.926V54.704H226.478V53.392Z" fill="white"/>
<path d="M452.765 77.7113C450.407 77.7113 448.805 76.4513 448.553 74.4533H450.245C450.389 75.9293 451.253 76.8653 452.783 76.8653C453.863 76.8653 454.619 76.3973 454.619 75.5513C454.619 74.6153 453.647 74.2553 452.027 73.5893C450.353 72.9233 448.985 72.3293 448.985 70.7453C448.985 69.1613 450.371 68.2793 452.351 68.2793C454.493 68.2793 455.879 69.3413 456.185 71.0693H454.511C454.349 69.8993 453.629 69.1073 452.315 69.1073C451.271 69.1073 450.605 69.5573 450.605 70.3133C450.605 71.1953 451.433 71.6093 453.107 72.2393C454.997 72.9593 456.293 73.6253 456.293 75.1553C456.293 76.8473 454.727 77.7113 452.765 77.7113Z" fill="white"/>
<path d="M442.965 77.7119C440.373 77.7119 438.501 75.9839 438.501 73.0319C438.501 70.1339 440.481 68.2979 443.019 68.2979C445.593 68.2979 447.267 69.9899 447.303 72.4379H440.283V72.7439C440.283 74.9039 441.273 76.5599 443.343 76.5599C445.053 76.5599 445.989 75.4439 446.349 74.0219H447.339C446.925 76.0739 445.503 77.7119 442.965 77.7119ZM440.391 71.6279H445.521C445.359 70.2059 444.513 69.1259 443.019 69.1259C441.615 69.1259 440.679 70.0979 440.391 71.6279Z" fill="white"/>
<path d="M435.128 77.5674C433.688 77.5674 432.554 76.8654 432.554 74.5614V69.4494H430.7V68.6034H432.554V66.1734L434.318 64.8594H434.39V68.6034H437.288V69.4494H434.39V74.5254C434.39 76.0194 434.966 76.4154 435.794 76.4154C436.586 76.4154 437.234 75.9654 437.666 75.1194L437.864 75.7854C437.36 76.9014 436.352 77.5674 435.128 77.5674Z" fill="white"/>
<path d="M424.359 77.6393C422.829 77.6393 421.731 76.8653 421.731 75.3173C421.731 73.6793 423.009 73.0853 425.241 72.4373C426.933 71.9513 427.779 71.7173 427.797 70.5653C427.797 69.6113 427.185 69.1073 426.087 69.1073C424.881 69.1073 423.783 69.7913 423.765 71.4833H422.055C422.199 69.3953 424.107 68.2793 426.249 68.2793C428.103 68.2793 429.579 69.0713 429.579 71.2493V75.1553C429.579 76.1633 429.885 76.5593 430.425 76.5593C430.677 76.5593 430.875 76.4873 431.073 76.3253V76.9913C430.713 77.3333 430.245 77.5493 429.615 77.5493C428.625 77.5493 427.815 76.9013 427.815 75.3173V75.0473C427.347 76.4693 426.195 77.6393 424.359 77.6393ZM423.513 75.0833C423.513 76.0733 424.161 76.4873 424.935 76.4873C426.627 76.4873 427.797 74.9753 427.797 72.8153V71.9693C427.545 72.5453 426.807 72.7973 425.709 73.1573C424.269 73.6253 423.513 74.0213 423.513 75.0833Z" fill="white"/>
<path d="M418.306 77.5674C416.866 77.5674 415.732 76.8654 415.732 74.5614V69.4494H413.878V68.6034H415.732V66.1734L417.496 64.8594H417.568V68.6034H420.466V69.4494H417.568V74.5254C417.568 76.0194 418.144 76.4154 418.972 76.4154C419.764 76.4154 420.412 75.9654 420.844 75.1194L421.042 75.7854C420.538 76.9014 419.53 77.5674 418.306 77.5674Z" fill="white"/>
<path d="M409.769 77.7113C407.411 77.7113 405.809 76.4513 405.557 74.4533H407.249C407.393 75.9293 408.257 76.8653 409.787 76.8653C410.867 76.8653 411.623 76.3973 411.623 75.5513C411.623 74.6153 410.651 74.2553 409.031 73.5893C407.357 72.9233 405.989 72.3293 405.989 70.7453C405.989 69.1613 407.375 68.2793 409.355 68.2793C411.497 68.2793 412.883 69.3413 413.189 71.0693H411.515C411.353 69.8993 410.633 69.1073 409.319 69.1073C408.275 69.1073 407.609 69.5573 407.609 70.3133C407.609 71.1953 408.437 71.6093 410.111 72.2393C412.001 72.9593 413.297 73.6253 413.297 75.1553C413.297 76.8473 411.731 77.7113 409.769 77.7113Z" fill="white"/>
<path d="M394.509 77.0633V73.2113H390.945V72.2753H394.527V68.4053H395.517V72.2753H399.081V73.1933H395.499V77.0633H394.509Z" fill="white"/>
<path d="M384.952 77.4053V77.3333C385.762 76.9013 385.888 76.2533 385.888 74.9573V66.3713C385.456 67.2173 384.34 68.2253 382.846 68.3333V67.0193C384.988 66.7493 386.392 65.1293 386.716 63.7793H387.904V74.9933C387.904 76.2713 387.994 76.9013 388.75 77.3333V77.4053H384.952Z" fill="white"/>
<path d="M377.429 77.4053V77.3333C378.239 76.9013 378.365 76.2533 378.365 74.9573V66.3713C377.933 67.2173 376.817 68.2253 375.323 68.3333V67.0193C377.465 66.7493 378.869 65.1293 379.193 63.7793H380.381V74.9933C380.381 76.2713 380.471 76.9013 381.227 77.3333V77.4053H377.429Z" fill="white"/>
<path d="M365.771 77.7113C363.413 77.7113 361.811 76.4513 361.559 74.4533H363.251C363.395 75.9293 364.259 76.8653 365.789 76.8653C366.869 76.8653 367.625 76.3973 367.625 75.5513C367.625 74.6153 366.653 74.2553 365.033 73.5893C363.359 72.9233 361.991 72.3293 361.991 70.7453C361.991 69.1613 363.377 68.2793 365.357 68.2793C367.499 68.2793 368.885 69.3413 369.191 71.0693H367.517C367.355 69.8993 366.635 69.1073 365.321 69.1073C364.277 69.1073 363.611 69.5573 363.611 70.3133C363.611 71.1953 364.439 71.6093 366.113 72.2393C368.003 72.9593 369.299 73.6253 369.299 75.1553C369.299 76.8473 367.733 77.7113 365.771 77.7113Z" fill="white"/>
<path d="M356.841 77.7113C354.483 77.7113 352.881 76.4513 352.629 74.4533H354.321C354.465 75.9293 355.329 76.8653 356.859 76.8653C357.939 76.8653 358.695 76.3973 358.695 75.5513C358.695 74.6153 357.723 74.2553 356.103 73.5893C354.429 72.9233 353.061 72.3293 353.061 70.7453C353.061 69.1613 354.447 68.2793 356.427 68.2793C358.569 68.2793 359.955 69.3413 360.261 71.0693H358.587C358.425 69.8993 357.705 69.1073 356.391 69.1073C355.347 69.1073 354.681 69.5573 354.681 70.3133C354.681 71.1953 355.509 71.6093 357.183 72.2393C359.073 72.9593 360.369 73.6253 360.369 75.1553C360.369 76.8473 358.803 77.7113 356.841 77.7113Z" fill="white"/>
<path d="M346.73 77.7119C343.904 77.7119 342.068 75.8039 342.068 72.9959C342.068 70.1699 343.904 68.2979 346.73 68.2979C349.574 68.2979 351.392 70.1699 351.392 72.9959C351.392 75.8039 349.574 77.7119 346.73 77.7119ZM343.922 72.9959C343.922 75.4259 344.966 76.8659 346.748 76.8659C348.494 76.8659 349.538 75.4259 349.538 72.9959C349.538 70.5479 348.494 69.1439 346.748 69.1439C344.966 69.1439 343.922 70.5479 343.922 72.9959Z" fill="white"/>
<path d="M335.231 77.4051V77.3331C335.861 76.9011 335.969 76.2711 335.969 74.9931V71.0151C335.969 69.6651 335.861 69.1071 335.231 68.6571V68.6031H338.057C337.841 69.0711 337.805 69.6651 337.805 71.0151V71.3211C338.093 70.0611 339.299 68.5131 341.441 68.4951V70.0611C338.867 69.9711 337.805 71.1951 337.805 72.8691V75.0651C337.805 76.3251 337.895 76.9191 338.597 77.3511V77.4051H335.231Z" fill="white"/>
<path d="M329.586 77.7119C327.012 77.7119 325.14 75.9299 325.14 73.0139C325.14 70.0259 327.12 68.2979 329.73 68.2979C332.16 68.2979 333.672 69.7919 333.924 71.6459H332.286C332.088 70.4399 331.458 69.1439 329.766 69.1439C327.912 69.1439 326.976 70.6559 326.976 72.7439C326.976 74.8499 327.912 76.5959 330 76.5959C331.746 76.5959 332.682 75.4079 333.006 73.8059H333.996C333.672 76.0199 332.178 77.7119 329.586 77.7119Z" fill="white"/>
<path d="M317.853 77.6393C316.323 77.6393 315.225 76.8653 315.225 75.3173C315.225 73.6793 316.503 73.0853 318.735 72.4373C320.427 71.9513 321.273 71.7173 321.291 70.5653C321.291 69.6113 320.679 69.1073 319.581 69.1073C318.375 69.1073 317.277 69.7913 317.259 71.4833H315.549C315.693 69.3953 317.601 68.2793 319.743 68.2793C321.597 68.2793 323.073 69.0713 323.073 71.2493V75.1553C323.073 76.1633 323.379 76.5593 323.919 76.5593C324.171 76.5593 324.369 76.4873 324.567 76.3253V76.9913C324.207 77.3333 323.739 77.5493 323.109 77.5493C322.119 77.5493 321.309 76.9013 321.309 75.3173V75.0473C320.841 76.4693 319.689 77.6393 317.853 77.6393ZM317.007 75.0833C317.007 76.0733 317.655 76.4873 318.429 76.4873C320.121 76.4873 321.291 74.9753 321.291 72.8153V71.9693C321.039 72.5453 320.301 72.7973 319.203 73.1573C317.763 73.6253 317.007 74.0213 317.007 75.0833Z" fill="white"/>
<path d="M306.441 77.4055C306.513 76.6315 306.549 75.9115 306.549 75.0835C306.009 76.5235 304.911 77.5675 303.201 77.5675C300.825 77.5675 299.511 75.5695 299.511 73.0135C299.511 70.2955 301.005 68.3155 303.417 68.3155C304.803 68.3155 305.919 68.9815 306.549 70.0435V65.7595C306.549 64.6615 306.459 64.0855 305.937 63.6715V63.6175L308.385 63.3115L308.493 63.3655C308.403 63.9055 308.385 64.3375 308.385 65.7595V74.9935C308.385 76.2715 308.475 76.9015 309.087 77.3335V77.4055H306.441ZM301.437 73.0135C301.437 74.9935 302.157 76.5955 303.867 76.5955C305.613 76.5955 306.531 74.9035 306.531 72.7435H306.549V71.0155C306.099 69.9535 305.109 69.2155 303.993 69.2155C302.373 69.2155 301.437 70.7095 301.437 73.0135Z" fill="white"/>
<path d="M293.797 77.7119C291.205 77.7119 289.333 75.9839 289.333 73.0319C289.333 70.1339 291.313 68.2979 293.851 68.2979C296.425 68.2979 298.099 69.9899 298.135 72.4379H291.115V72.7439C291.115 74.9039 292.105 76.5599 294.175 76.5599C295.885 76.5599 296.821 75.4439 297.181 74.0219H298.171C297.757 76.0739 296.335 77.7119 293.797 77.7119ZM291.223 71.6279H296.353C296.191 70.2059 295.345 69.1259 293.851 69.1259C292.447 69.1259 291.511 70.0979 291.223 71.6279Z" fill="white"/>
<path d="M280.822 77.4055V76.6135L286.06 69.4135H284.206C283.216 69.4135 282.046 69.6475 280.822 69.9715V68.6035H288.184V69.2515L282.892 76.5775H284.98C286.24 76.5775 287.266 76.3255 288.292 75.9655V77.4055H280.822Z" fill="white"/>
<path d="M272.281 81.7795C271.849 81.7795 271.381 81.6895 271.093 81.5275V80.0695C271.381 80.2315 271.867 80.3755 272.407 80.3755C273.685 80.3755 274.513 79.5655 275.413 77.4055H274.927L272.353 70.7815C271.939 69.7195 271.651 69.0355 271.111 68.6575V68.6035H274.297V68.6575C273.793 68.9995 273.973 69.5935 274.369 70.7095L276.079 75.5335L277.807 70.7095C278.203 69.6295 278.329 68.9815 277.825 68.6575V68.6035H280.201V68.6575C279.715 69.0175 279.373 69.6115 278.959 70.7095L276.385 77.3875C275.161 80.5735 274.027 81.7795 272.281 81.7795Z" fill="white"/>
<path d="M267.027 77.4055V77.3335C267.693 76.9015 267.783 76.2715 267.783 74.9935V65.7595C267.783 64.6795 267.657 64.1035 267.117 63.6895V63.6175L269.727 63.3115L269.745 63.3835C269.655 63.9235 269.619 64.3375 269.619 65.7595V74.9935C269.619 76.2715 269.709 76.9015 270.357 77.3335V77.4055H267.027Z" fill="white"/>
<path d="M259.599 77.6393C258.069 77.6393 256.971 76.8653 256.971 75.3173C256.971 73.6793 258.249 73.0853 260.481 72.4373C262.173 71.9513 263.019 71.7173 263.037 70.5653C263.037 69.6113 262.425 69.1073 261.327 69.1073C260.121 69.1073 259.023 69.7913 259.005 71.4833H257.295C257.439 69.3953 259.347 68.2793 261.489 68.2793C263.343 68.2793 264.819 69.0713 264.819 71.2493V75.1553C264.819 76.1633 265.125 76.5593 265.665 76.5593C265.917 76.5593 266.115 76.4873 266.313 76.3253V76.9913C265.953 77.3333 265.485 77.5493 264.855 77.5493C263.865 77.5493 263.055 76.9013 263.055 75.3173V75.0473C262.587 76.4693 261.435 77.6393 259.599 77.6393ZM258.753 75.0833C258.753 76.0733 259.401 76.4873 260.175 76.4873C261.867 76.4873 263.037 74.9753 263.037 72.8153V71.9693C262.785 72.5453 262.047 72.7973 260.949 73.1573C259.509 73.6253 258.753 74.0213 258.753 75.0833Z" fill="white"/>
<path d="M246.251 77.4059V77.3339C246.881 76.9019 246.971 76.2719 246.971 74.9939V71.0159C246.971 69.6659 246.881 69.1079 246.251 68.6579V68.6039H249.077C248.879 69.0179 248.825 69.5219 248.807 70.5479C249.365 69.3059 250.499 68.2979 252.227 68.2979C253.955 68.2979 255.017 69.2339 255.017 71.5919V74.9939C255.017 76.2719 255.107 76.9019 255.719 77.3339V77.4059H252.515V77.3339C253.091 76.9019 253.181 76.2719 253.181 74.9939V71.7359C253.181 70.0979 252.569 69.3959 251.381 69.3959C249.995 69.3959 249.077 70.4759 248.807 71.7539V74.9939C248.807 76.2719 248.897 76.9019 249.509 77.3339V77.4059H246.251Z" fill="white"/>
<path d="M232.312 77.3513C232.942 76.9553 233.428 76.4153 233.824 75.3173L237.676 64.9853C237.838 64.4993 237.856 64.1393 237.712 63.7793H239.764L244.12 75.3893C244.48 76.3793 244.84 76.9553 245.452 77.3333V77.4053H241.528V77.3513C242.23 76.9553 242.284 76.3793 241.942 75.4073L241.186 73.2113H235.804L235.03 75.3713C234.652 76.4333 234.706 76.9733 235.318 77.3513V77.4053H232.312V77.3513ZM236.128 72.3113H240.862L238.522 65.5793L236.128 72.3113Z" fill="white"/>
<path d="M223.88 77.7113C221.522 77.7113 219.92 76.4513 219.668 74.4533H221.36C221.504 75.9293 222.368 76.8653 223.898 76.8653C224.978 76.8653 225.734 76.3973 225.734 75.5513C225.734 74.6153 224.762 74.2553 223.142 73.5893C221.468 72.9233 220.1 72.3293 220.1 70.7453C220.1 69.1613 221.486 68.2793 223.466 68.2793C225.608 68.2793 226.994 69.3413 227.3 71.0693H225.626C225.464 69.8993 224.744 69.1073 223.43 69.1073C222.386 69.1073 221.72 69.5573 221.72 70.3133C221.72 71.1953 222.548 71.6093 224.222 72.2393C226.112 72.9593 227.408 73.6253 227.408 75.1553C227.408 76.8473 225.842 77.7113 223.88 77.7113Z" fill="white"/>
<path d="M216.298 77.5674C214.858 77.5674 213.724 76.8654 213.724 74.5614V69.4494H211.87V68.6034H213.724V66.1734L215.488 64.8594H215.56V68.6034H218.458V69.4494H215.56V74.5254C215.56 76.0194 216.136 76.4154 216.964 76.4154C217.756 76.4154 218.404 75.9654 218.836 75.1194L219.034 75.7854C218.53 76.9014 217.522 77.5674 216.298 77.5674Z" fill="white"/>
<path d="M206.909 77.7119C204.317 77.7119 202.445 75.9839 202.445 73.0319C202.445 70.1339 204.425 68.2979 206.963 68.2979C209.537 68.2979 211.211 69.9899 211.247 72.4379H204.227V72.7439C204.227 74.9039 205.217 76.5599 207.287 76.5599C208.997 76.5599 209.933 75.4439 210.293 74.0219H211.283C210.869 76.0739 209.447 77.7119 206.909 77.7119ZM204.335 71.6279H209.465C209.303 70.2059 208.457 69.1259 206.963 69.1259C205.559 69.1259 204.623 70.0979 204.335 71.6279Z" fill="white"/>
<path d="M200.106 77.4055L196.002 72.7795V74.9935C196.002 76.2715 196.092 76.9015 196.74 77.3335V77.4055H193.41V77.3335C194.076 76.9015 194.166 76.2715 194.166 74.9935V65.7595C194.166 64.6615 194.076 64.1035 193.554 63.6895V63.6175L196.002 63.3115L196.128 63.3655C196.038 63.9055 196.002 64.3375 196.002 65.7595V72.1315L198.648 69.9355C199.278 69.4135 199.512 68.8735 199.44 68.6395V68.6035H201.852V68.7295C201.24 68.9815 200.754 69.2695 200.016 69.8635L197.334 72.0775L202.266 77.2795V77.4055H200.106Z" fill="white"/>
<path d="M186.467 77.4051V77.3331C187.097 76.9011 187.205 76.2711 187.205 74.9931V71.0151C187.205 69.6651 187.097 69.1071 186.467 68.6571V68.6031H189.293C189.077 69.0711 189.041 69.6651 189.041 71.0151V71.3211C189.329 70.0611 190.535 68.5131 192.677 68.4951V70.0611C190.103 69.9711 189.041 71.1951 189.041 72.8691V75.0651C189.041 76.3251 189.131 76.9191 189.833 77.3511V77.4051H186.467Z" fill="white"/>
<path d="M179.003 77.6393C177.473 77.6393 176.375 76.8653 176.375 75.3173C176.375 73.6793 177.653 73.0853 179.885 72.4373C181.577 71.9513 182.423 71.7173 182.441 70.5653C182.441 69.6113 181.829 69.1073 180.731 69.1073C179.525 69.1073 178.427 69.7913 178.409 71.4833H176.699C176.843 69.3953 178.751 68.2793 180.893 68.2793C182.747 68.2793 184.223 69.0713 184.223 71.2493V75.1553C184.223 76.1633 184.529 76.5593 185.069 76.5593C185.321 76.5593 185.519 76.4873 185.717 76.3253V76.9913C185.357 77.3333 184.889 77.5493 184.259 77.5493C183.269 77.5493 182.459 76.9013 182.459 75.3173V75.0473C181.991 76.4693 180.839 77.6393 179.003 77.6393ZM178.157 75.0833C178.157 76.0733 178.805 76.4873 179.579 76.4873C181.271 76.4873 182.441 74.9753 182.441 72.8153V71.9693C182.189 72.5453 181.451 72.7973 180.353 73.1573C178.913 73.6253 178.157 74.0213 178.157 75.0833Z" fill="white"/>
<path d="M166.667 77.5673L161.753 65.7953V74.9933C161.753 76.2713 161.843 76.9013 162.599 77.3333V77.4053H159.791V77.3333C160.511 76.9013 160.619 76.2713 160.619 74.9933V66.1913C160.619 64.8413 160.511 64.2833 159.827 63.8333V63.7793H162.869L167.369 74.7233L171.779 63.7793H174.821V63.8333C174.137 64.2833 174.047 64.8413 174.047 66.1913V74.9933C174.047 76.2713 174.137 76.9013 174.839 77.3333V77.4053H171.275V77.3333C171.995 76.9013 172.103 76.2713 172.103 74.9933V65.5793L167.225 77.5673H166.667Z" fill="white"/>
<path d="M148.918 77.7119C146.326 77.7119 144.454 75.9839 144.454 73.0319C144.454 70.1339 146.434 68.2979 148.972 68.2979C151.546 68.2979 153.22 69.9899 153.256 72.4379H146.236V72.7439C146.236 74.9039 147.226 76.5599 149.296 76.5599C151.006 76.5599 151.942 75.4439 152.302 74.0219H153.292C152.878 76.0739 151.456 77.7119 148.918 77.7119ZM146.344 71.6279H151.474C151.312 70.2059 150.466 69.1259 148.972 69.1259C147.568 69.1259 146.632 70.0979 146.344 71.6279Z" fill="white"/>
<path d="M141.081 77.5674C139.641 77.5674 138.507 76.8654 138.507 74.5614V69.4494H136.653V68.6034H138.507V66.1734L140.271 64.8594H140.343V68.6034H143.241V69.4494H140.343V74.5254C140.343 76.0194 140.919 76.4154 141.747 76.4154C142.539 76.4154 143.187 75.9654 143.619 75.1194L143.817 75.7854C143.313 76.9014 142.305 77.5674 141.081 77.5674Z" fill="white"/>
<path d="M130.312 77.6393C128.782 77.6393 127.684 76.8653 127.684 75.3173C127.684 73.6793 128.962 73.0853 131.194 72.4373C132.886 71.9513 133.732 71.7173 133.75 70.5653C133.75 69.6113 133.138 69.1073 132.04 69.1073C130.834 69.1073 129.736 69.7913 129.718 71.4833H128.008C128.152 69.3953 130.06 68.2793 132.202 68.2793C134.056 68.2793 135.532 69.0713 135.532 71.2493V75.1553C135.532 76.1633 135.838 76.5593 136.378 76.5593C136.63 76.5593 136.828 76.4873 137.026 76.3253V76.9913C136.666 77.3333 136.198 77.5493 135.568 77.5493C134.578 77.5493 133.768 76.9013 133.768 75.3173V75.0473C133.3 76.4693 132.148 77.6393 130.312 77.6393ZM129.466 75.0833C129.466 76.0733 130.114 76.4873 130.888 76.4873C132.58 76.4873 133.75 74.9753 133.75 72.8153V71.9693C133.498 72.5453 132.76 72.7973 131.662 73.1573C130.222 73.6253 129.466 74.0213 129.466 75.0833Z" fill="white"/>
<path d="M124.259 77.5674C122.819 77.5674 121.685 76.8654 121.685 74.5614V69.4494H119.831V68.6034H121.685V66.1734L123.449 64.8594H123.521V68.6034H126.419V69.4494H123.521V74.5254C123.521 76.0194 124.097 76.4154 124.925 76.4154C125.717 76.4154 126.365 75.9654 126.797 75.1194L126.995 75.7854C126.491 76.9014 125.483 77.5674 124.259 77.5674Z" fill="white"/>
<path d="M115.722 77.7113C113.364 77.7113 111.762 76.4513 111.51 74.4533H113.202C113.346 75.9293 114.21 76.8653 115.74 76.8653C116.82 76.8653 117.576 76.3973 117.576 75.5513C117.576 74.6153 116.604 74.2553 114.984 73.5893C113.31 72.9233 111.942 72.3293 111.942 70.7453C111.942 69.1613 113.328 68.2793 115.308 68.2793C117.45 68.2793 118.836 69.3413 119.142 71.0693H117.468C117.306 69.8993 116.586 69.1073 115.272 69.1073C114.228 69.1073 113.562 69.5573 113.562 70.3133C113.562 71.1953 114.39 71.6093 116.064 72.2393C117.954 72.9593 119.25 73.6253 119.25 75.1553C119.25 76.8473 117.684 77.7113 115.722 77.7113Z" fill="white"/>
<path d="M101.344 77.4053V77.3333C102.046 76.9013 102.136 76.2713 102.136 74.9933V66.1913C102.136 64.8413 102.046 64.2833 101.344 63.8333V63.7793H110.146V65.3993C108.202 64.9133 106.978 64.6613 105.898 64.6613H104.152V69.8453H105.232C106.258 69.8453 107.752 69.7913 109.228 69.7373V70.8173C107.752 70.7453 106.258 70.7093 105.232 70.7093H104.152V76.5053H106.222C107.464 76.4873 108.832 76.1813 110.488 75.6773V77.4053H101.344Z" fill="white"/>
<path d="M91.4568 77.4055V77.3335C92.1228 76.9015 92.2128 76.2715 92.2128 74.9935V65.7595C92.2128 64.6795 92.0868 64.1035 91.5468 63.6895V63.6175L94.1568 63.3115L94.1748 63.3835C94.0848 63.9235 94.0488 64.3375 94.0488 65.7595V74.9935C94.0488 76.2715 94.1388 76.9015 94.7868 77.3335V77.4055H91.4568Z" fill="white"/>
<path d="M84.0285 77.6393C82.4985 77.6393 81.4005 76.8653 81.4005 75.3173C81.4005 73.6793 82.6785 73.0853 84.9105 72.4373C86.6025 71.9513 87.4485 71.7173 87.4665 70.5653C87.4665 69.6113 86.8545 69.1073 85.7565 69.1073C84.5505 69.1073 83.4525 69.7913 83.4345 71.4833H81.7245C81.8685 69.3953 83.7765 68.2793 85.9185 68.2793C87.7725 68.2793 89.2485 69.0713 89.2485 71.2493V75.1553C89.2485 76.1633 89.5545 76.5593 90.0945 76.5593C90.3465 76.5593 90.5445 76.4873 90.7425 76.3253V76.9913C90.3825 77.3333 89.9145 77.5493 89.2845 77.5493C88.2945 77.5493 87.4845 76.9013 87.4845 75.3173V75.0473C87.0165 76.4693 85.8645 77.6393 84.0285 77.6393ZM83.1825 75.0833C83.1825 76.0733 83.8305 76.4873 84.6045 76.4873C86.2965 76.4873 87.4665 74.9753 87.4665 72.8153V71.9693C87.2145 72.5453 86.4765 72.7973 85.3785 73.1573C83.9385 73.6253 83.1825 74.0213 83.1825 75.0833Z" fill="white"/>
<path d="M75.7407 77.7119C73.1487 77.7119 71.2767 75.9839 71.2767 73.0319C71.2767 70.1339 73.2567 68.2979 75.7947 68.2979C78.3687 68.2979 80.0427 69.9899 80.0787 72.4379H73.0587V72.7439C73.0587 74.9039 74.0487 76.5599 76.1187 76.5599C77.8287 76.5599 78.7647 75.4439 79.1247 74.0219H80.1147C79.7007 76.0739 78.2787 77.7119 75.7407 77.7119ZM73.1667 71.6279H78.2967C78.1347 70.2059 77.2887 69.1259 75.7947 69.1259C74.3907 69.1259 73.4547 70.0979 73.1667 71.6279Z" fill="white"/>
<path d="M60 77.4053V77.3333C60.702 76.9013 60.792 76.2713 60.792 74.9933V66.1913C60.792 64.8413 60.702 64.2833 60 63.8333V63.7793H64.878C67.956 63.7793 70.008 64.7333 70.008 67.1273C70.008 69.2873 68.352 70.4033 66.03 70.6373L71.016 77.2793V77.4053H68.676L64.248 70.7993H62.808V74.9933C62.808 76.2713 62.898 76.9013 63.618 77.3333V77.4053H60ZM62.808 69.9173H64.266C66.516 69.9173 68.01 69.1433 68.01 67.1633C68.01 65.3273 66.642 64.6613 64.536 64.6613H62.808V69.9173Z" fill="white"/>
<path d="M295.035 173.312C287.803 173.312 284.027 168.864 284.027 160.672C284.027 152.448 287.803 148 295.035 148C302.299 148 306.043 152.48 306.043 160.672C306.043 168.864 302.299 173.312 295.035 173.312ZM291.355 160.672C291.355 166.272 292.411 168.224 295.035 168.224C297.659 168.224 298.747 166.272 298.747 160.672C298.747 155.072 297.659 153.088 295.035 153.088C292.411 153.088 291.355 155.072 291.355 160.672Z" fill="white"/>
<path d="M270.535 173.312C263.303 173.312 259.527 168.864 259.527 160.672C259.527 152.448 263.303 148 270.535 148C277.799 148 281.543 152.48 281.543 160.672C281.543 168.864 277.799 173.312 270.535 173.312ZM266.855 160.672C266.855 166.272 267.911 168.224 270.535 168.224C273.159 168.224 274.247 166.272 274.247 160.672C274.247 155.072 273.159 153.088 270.535 153.088C267.911 153.088 266.855 155.072 266.855 160.672Z" fill="white"/>
<path d="M246.035 173.312C238.803 173.312 235.027 168.864 235.027 160.672C235.027 152.448 238.803 148 246.035 148C253.299 148 257.043 152.48 257.043 160.672C257.043 168.864 253.299 173.312 246.035 173.312ZM242.355 160.672C242.355 166.272 243.411 168.224 246.035 168.224C248.659 168.224 249.747 166.272 249.747 160.672C249.747 155.072 248.659 153.088 246.035 153.088C243.411 153.088 242.355 155.072 242.355 160.672Z" fill="white"/>
<path d="M225.887 174.944C227.999 174.88 229.151 174.336 229.375 172.608H226.623V167.392H232.447V171.488C232.447 175.584 229.951 177.76 225.887 177.856V174.944Z" fill="white"/>
<path d="M215.403 172.704V167.36V157.632C214.411 158.816 212.715 159.648 210.251 159.68V154.272C213.899 153.824 217.003 151.584 217.643 148.48H222.859V167.36V172.704H215.403Z" fill="white"/>
<path d="M412.212 200.256C409.854 200.256 408.252 198.996 408 196.998H409.692C409.836 198.474 410.7 199.41 412.23 199.41C413.31 199.41 414.066 198.942 414.066 198.096C414.066 197.16 413.094 196.8 411.474 196.134C409.8 195.468 408.432 194.874 408.432 193.29C408.432 191.706 409.818 190.824 411.798 190.824C413.94 190.824 415.326 191.886 415.632 193.614H413.958C413.796 192.444 413.076 191.652 411.762 191.652C410.718 191.652 410.052 192.102 410.052 192.858C410.052 193.74 410.88 194.154 412.554 194.784C414.444 195.504 415.74 196.17 415.74 197.7C415.74 199.392 414.174 200.256 412.212 200.256Z" fill="white"/>
<path d="M401.096 199.95V199.878C401.726 199.446 401.834 198.816 401.834 197.538V193.56C401.834 192.21 401.726 191.652 401.096 191.202V191.148H403.922C403.706 191.616 403.67 192.21 403.67 193.56V193.866C403.958 192.606 405.164 191.058 407.306 191.04V192.606C404.732 192.516 403.67 193.74 403.67 195.414V197.61C403.67 198.87 403.76 199.464 404.462 199.896V199.95H401.096Z" fill="white"/>
<path d="M395.329 200.257C392.737 200.257 390.865 198.529 390.865 195.577C390.865 192.679 392.845 190.843 395.383 190.843C397.957 190.843 399.631 192.535 399.667 194.983H392.647V195.289C392.647 197.449 393.637 199.105 395.707 199.105C397.417 199.105 398.353 197.989 398.713 196.567H399.703C399.289 198.619 397.867 200.257 395.329 200.257ZM392.755 194.173H397.885C397.723 192.751 396.877 191.671 395.383 191.671C393.979 191.671 393.043 192.643 392.755 194.173Z" fill="white"/>
<path d="M380.091 199.951V199.879C380.721 199.447 380.811 198.817 380.811 197.539V193.561C380.811 192.211 380.721 191.653 380.091 191.203V191.149H382.917C382.719 191.563 382.665 192.067 382.647 193.093C383.205 191.851 384.339 190.843 386.067 190.843C387.795 190.843 388.857 191.779 388.857 194.137V197.539C388.857 198.817 388.947 199.447 389.559 199.879V199.951H386.355V199.879C386.931 199.447 387.021 198.817 387.021 197.539V194.281C387.021 192.643 386.409 191.941 385.221 191.941C383.835 191.941 382.917 193.021 382.647 194.299V197.539C382.647 198.817 382.737 199.447 383.349 199.879V199.951H380.091Z" fill="white"/>
<path d="M376.54 200.112C375.1 200.112 373.966 199.41 373.966 197.106V191.994H372.112V191.148H373.966V188.718L375.73 187.404H375.802V191.148H378.7V191.994H375.802V197.07C375.802 198.564 376.378 198.96 377.206 198.96C377.998 198.96 378.646 198.51 379.078 197.664L379.276 198.33C378.772 199.446 377.764 200.112 376.54 200.112Z" fill="white"/>
<path d="M365.553 199.95V199.878C366.183 199.446 366.291 198.816 366.291 197.538V193.56C366.291 192.21 366.183 191.652 365.553 191.202V191.148H368.379C368.163 191.616 368.127 192.21 368.127 193.56V193.866C368.415 192.606 369.621 191.058 371.763 191.04V192.606C369.189 192.516 368.127 193.74 368.127 195.414V197.61C368.127 198.87 368.217 199.464 368.919 199.896V199.95H365.553Z" fill="white"/>
<path d="M358.089 200.184C356.559 200.184 355.461 199.41 355.461 197.862C355.461 196.224 356.739 195.63 358.971 194.982C360.663 194.496 361.509 194.262 361.527 193.11C361.527 192.156 360.915 191.652 359.817 191.652C358.611 191.652 357.513 192.336 357.495 194.028H355.785C355.929 191.94 357.837 190.824 359.979 190.824C361.833 190.824 363.309 191.616 363.309 193.794V197.7C363.309 198.708 363.615 199.104 364.155 199.104C364.407 199.104 364.605 199.032 364.803 198.87V199.536C364.443 199.878 363.975 200.094 363.345 200.094C362.355 200.094 361.545 199.446 361.545 197.862V197.592C361.077 199.014 359.925 200.184 358.089 200.184ZM357.243 197.628C357.243 198.618 357.891 199.032 358.665 199.032C360.357 199.032 361.527 197.52 361.527 195.36V194.514C361.275 195.09 360.537 195.342 359.439 195.702C357.999 196.17 357.243 196.566 357.243 197.628Z" fill="white"/>
<path d="M345.627 199.95V199.878C346.329 199.446 346.419 198.816 346.419 197.538V188.736C346.419 187.386 346.329 186.828 345.627 186.378V186.324H350.307C353.619 186.324 355.689 187.314 355.689 189.852C355.689 192.462 353.331 193.56 349.929 193.56H348.435V197.538C348.435 198.816 348.525 199.446 349.245 199.878V199.95H345.627ZM348.435 192.678H349.821C352.125 192.678 353.655 191.868 353.655 189.852C353.655 187.926 352.287 187.206 350.163 187.206H348.435V192.678Z" fill="white"/>
<path d="M329.64 199.95V199.878C330.306 199.446 330.396 198.816 330.396 197.538V188.304C330.396 187.224 330.27 186.648 329.73 186.234V186.162L332.34 185.856L332.358 185.928C332.268 186.468 332.232 186.882 332.232 188.304V193.092C332.79 191.85 333.924 190.842 335.652 190.842C337.38 190.842 338.442 191.778 338.442 194.136V197.538C338.442 198.816 338.532 199.446 339.144 199.878V199.95H335.94V199.878C336.516 199.446 336.606 198.816 336.606 197.538V194.28C336.606 192.642 335.994 191.94 334.806 191.94C333.42 191.94 332.502 193.02 332.232 194.298V197.538C332.232 198.816 332.322 199.446 332.97 199.878V199.95H329.64Z" fill="white"/>
<path d="M322.273 204.504C320.437 204.504 318.979 203.982 318.979 202.686C318.979 201.804 319.735 201.192 321.013 200.796H320.977C319.591 200.796 318.637 200.184 318.637 199.122C318.637 198.168 319.411 197.412 320.563 196.872C319.789 196.296 319.321 195.414 319.321 194.298C319.321 192.138 321.121 190.878 323.371 190.878C324.559 190.878 325.621 191.22 326.359 191.85C326.521 190.446 327.439 189.456 328.753 189.438V190.986C327.601 190.986 326.953 191.454 326.809 192.318C327.205 192.858 327.439 193.524 327.439 194.298C327.439 196.476 325.675 197.718 323.389 197.718C322.561 197.718 321.787 197.556 321.157 197.232C320.383 197.592 319.987 198.042 319.987 198.564C319.987 199.086 320.347 199.356 321.427 199.356C322.921 199.338 325.171 198.744 326.629 198.744C327.997 198.744 328.843 199.356 328.843 200.508C328.843 202.92 325.405 204.504 322.273 204.504ZM320.329 202.434C320.329 203.298 321.193 203.64 322.453 203.64C324.667 203.64 327.277 202.578 327.277 201.084C327.277 200.472 326.917 200.22 325.999 200.22C325.171 200.22 323.821 200.454 322.543 200.796C321.067 201.174 320.329 201.642 320.329 202.434ZM321.139 194.298C321.139 195.9 321.985 196.908 323.371 196.908C324.793 196.908 325.639 195.9 325.639 194.298C325.639 192.696 324.775 191.706 323.371 191.706C321.985 191.706 321.139 192.696 321.139 194.298Z" fill="white"/>
<path d="M311.229 200.22C309.483 200.22 308.421 199.266 308.421 196.926V193.56C308.421 192.264 308.331 191.652 307.701 191.202V191.148H310.905V191.202C310.347 191.652 310.257 192.264 310.257 193.56V196.764C310.257 198.402 310.851 199.104 312.039 199.104C313.425 199.104 314.307 197.988 314.613 196.512V193.56C314.613 192.264 314.523 191.652 313.929 191.202V191.148H317.169V191.202C316.539 191.652 316.449 192.264 316.449 193.56V197.538C316.449 198.888 316.539 199.446 317.169 199.878V199.95H314.379C314.559 199.5 314.613 198.96 314.613 197.808C314.091 199.104 312.939 200.22 311.229 200.22Z" fill="white"/>
<path d="M301.73 200.257C298.904 200.257 297.068 198.349 297.068 195.541C297.068 192.715 298.904 190.843 301.73 190.843C304.574 190.843 306.392 192.715 306.392 195.541C306.392 198.349 304.574 200.257 301.73 200.257ZM298.922 195.541C298.922 197.971 299.966 199.411 301.748 199.411C303.494 199.411 304.538 197.971 304.538 195.541C304.538 193.093 303.494 191.689 301.748 191.689C299.966 191.689 298.922 193.093 298.922 195.541Z" fill="white"/>
<path d="M290.231 199.95V199.878C290.861 199.446 290.969 198.816 290.969 197.538V193.56C290.969 192.21 290.861 191.652 290.231 191.202V191.148H293.057C292.841 191.616 292.805 192.21 292.805 193.56V193.866C293.093 192.606 294.299 191.058 296.441 191.04V192.606C293.867 192.516 292.805 193.74 292.805 195.414V197.61C292.805 198.87 292.895 199.464 293.597 199.896V199.95H290.231Z" fill="white"/>
<path d="M279.367 199.95V199.878C280.033 199.446 280.123 198.816 280.123 197.538V188.304C280.123 187.224 279.997 186.648 279.457 186.234V186.162L282.067 185.856L282.085 185.928C281.995 186.468 281.959 186.882 281.959 188.304V193.092C282.517 191.85 283.651 190.842 285.379 190.842C287.107 190.842 288.169 191.778 288.169 194.136V197.538C288.169 198.816 288.259 199.446 288.871 199.878V199.95H285.667V199.878C286.243 199.446 286.333 198.816 286.333 197.538V194.28C286.333 192.642 285.721 191.94 284.533 191.94C283.147 191.94 282.229 193.02 281.959 194.298V197.538C281.959 198.816 282.049 199.446 282.697 199.878V199.95H279.367Z" fill="white"/>
<path d="M275.87 200.112C274.43 200.112 273.296 199.41 273.296 197.106V191.994H271.442V191.148H273.296V188.718L275.06 187.404H275.132V191.148H278.03V191.994H275.132V197.07C275.132 198.564 275.708 198.96 276.536 198.96C277.328 198.96 277.976 198.51 278.408 197.664L278.606 198.33C278.102 199.446 277.094 200.112 275.87 200.112Z" fill="white"/>
<path d="M263.638 199.95C263.71 199.176 263.746 198.456 263.746 197.628C263.206 199.068 262.108 200.112 260.398 200.112C258.022 200.112 256.708 198.114 256.708 195.558C256.708 192.84 258.202 190.86 260.614 190.86C262 190.86 263.116 191.526 263.746 192.588V188.304C263.746 187.206 263.656 186.63 263.134 186.216V186.162L265.582 185.856L265.69 185.91C265.6 186.45 265.582 186.882 265.582 188.304V197.538C265.582 198.816 265.672 199.446 266.284 199.878V199.95H263.638ZM258.634 195.558C258.634 197.538 259.354 199.14 261.064 199.14C262.81 199.14 263.728 197.448 263.728 195.288H263.746V193.56C263.296 192.498 262.306 191.76 261.19 191.76C259.57 191.76 258.634 193.254 258.634 195.558Z" fill="white"/>
<path d="M250.995 200.257C248.403 200.257 246.531 198.529 246.531 195.577C246.531 192.679 248.511 190.843 251.049 190.843C253.623 190.843 255.297 192.535 255.333 194.983H248.313V195.289C248.313 197.449 249.303 199.105 251.373 199.105C253.083 199.105 254.019 197.989 254.379 196.567H255.369C254.955 198.619 253.533 200.257 250.995 200.257ZM248.421 194.173H253.551C253.389 192.751 252.543 191.671 251.049 191.671C249.645 191.671 248.709 192.643 248.421 194.173Z" fill="white"/>
<path d="M242.509 199.95C242.581 199.176 242.617 198.456 242.617 197.628C242.077 199.068 240.979 200.112 239.269 200.112C236.893 200.112 235.579 198.114 235.579 195.558C235.579 192.84 237.073 190.86 239.485 190.86C240.871 190.86 241.987 191.526 242.617 192.588V188.304C242.617 187.206 242.527 186.63 242.005 186.216V186.162L244.453 185.856L244.561 185.91C244.471 186.45 244.453 186.882 244.453 188.304V197.538C244.453 198.816 244.543 199.446 245.155 199.878V199.95H242.509ZM237.505 195.558C237.505 197.538 238.225 199.14 239.935 199.14C241.681 199.14 242.599 197.448 242.599 195.288H242.617V193.56C242.167 192.498 241.177 191.76 240.061 191.76C238.441 191.76 237.505 193.254 237.505 195.558Z" fill="white"/>
<path d="M230.973 199.95V199.878C231.603 199.446 231.693 198.834 231.693 197.538L231.711 193.524C231.711 192.174 231.639 191.634 231.063 191.238V191.166L233.547 191.04V197.538C233.547 198.816 233.637 199.446 234.267 199.878V199.95H230.973ZM231.657 188.934V186.9H233.565V188.934H231.657Z" fill="white"/>
<path d="M222.307 193.308C221.893 192.246 221.623 191.562 221.101 191.202V191.148H224.305V191.202C223.819 191.544 223.963 192.138 224.359 193.254L226.033 197.952L227.725 193.254C228.139 192.174 228.247 191.526 227.779 191.202V191.148H230.155V191.202C229.669 191.508 229.309 192.174 228.895 193.272L226.915 198.384C226.663 199.032 226.447 199.626 226.447 199.95H224.899L222.307 193.308Z" fill="white"/>
<path d="M215.966 200.257C213.14 200.257 211.304 198.349 211.304 195.541C211.304 192.715 213.14 190.843 215.966 190.843C218.81 190.843 220.628 192.715 220.628 195.541C220.628 198.349 218.81 200.257 215.966 200.257ZM213.158 195.541C213.158 197.971 214.202 199.411 215.984 199.411C217.73 199.411 218.774 197.971 218.774 195.541C218.774 193.093 217.73 191.689 215.984 191.689C214.202 191.689 213.158 193.093 213.158 195.541Z" fill="white"/>
<path d="M204.467 199.95V199.878C205.097 199.446 205.205 198.816 205.205 197.538V193.56C205.205 192.21 205.097 191.652 204.467 191.202V191.148H207.293C207.077 191.616 207.041 192.21 207.041 193.56V193.866C207.329 192.606 208.535 191.058 210.677 191.04V192.606C208.103 192.516 207.041 193.74 207.041 195.414V197.61C207.041 198.87 207.131 199.464 207.833 199.896V199.95H204.467Z" fill="white"/>
<path d="M193.471 199.95V199.878C194.173 199.446 194.263 198.816 194.263 197.538V188.736C194.263 187.386 194.173 186.828 193.471 186.378V186.324H198.151C201.463 186.324 203.533 187.314 203.533 189.852C203.533 192.462 201.175 193.56 197.773 193.56H196.279V197.538C196.279 198.816 196.369 199.446 197.089 199.878V199.95H193.471ZM196.279 192.678H197.665C199.969 192.678 201.499 191.868 201.499 189.852C201.499 187.926 200.131 187.206 198.007 187.206H196.279V192.678Z" fill="white"/>
<path d="M183.451 200.256C181.093 200.256 179.491 198.996 179.239 196.998H180.931C181.075 198.474 181.939 199.41 183.469 199.41C184.549 199.41 185.305 198.942 185.305 198.096C185.305 197.16 184.333 196.8 182.713 196.134C181.039 195.468 179.671 194.874 179.671 193.29C179.671 191.706 181.057 190.824 183.037 190.824C185.179 190.824 186.565 191.886 186.871 193.614H185.197C185.035 192.444 184.315 191.652 183.001 191.652C181.957 191.652 181.291 192.102 181.291 192.858C181.291 193.74 182.119 194.154 183.793 194.784C185.683 195.504 186.979 196.17 186.979 197.7C186.979 199.392 185.413 200.256 183.451 200.256Z" fill="white"/>
<path d="M173.651 200.257C171.059 200.257 169.187 198.529 169.187 195.577C169.187 192.679 171.167 190.843 173.705 190.843C176.279 190.843 177.953 192.535 177.989 194.983H170.969V195.289C170.969 197.449 171.959 199.105 174.029 199.105C175.739 199.105 176.675 197.989 177.035 196.567H178.025C177.611 198.619 176.189 200.257 173.651 200.257ZM171.077 194.173H176.207C176.045 192.751 175.199 191.671 173.705 191.671C172.301 191.671 171.365 192.643 171.077 194.173Z" fill="white"/>
<path d="M164.58 199.95V199.878C165.21 199.446 165.3 198.834 165.3 197.538L165.318 193.524C165.318 192.174 165.246 191.634 164.67 191.238V191.166L167.154 191.04V197.538C167.154 198.816 167.244 199.446 167.874 199.878V199.95H164.58ZM165.264 188.934V186.9H167.172V188.934H165.264Z" fill="white"/>
<path d="M161.155 200.112C159.715 200.112 158.581 199.41 158.581 197.106V191.994H156.727V191.148H158.581V188.718L160.345 187.404H160.417V191.148H163.315V191.994H160.417V197.07C160.417 198.564 160.993 198.96 161.821 198.96C162.613 198.96 163.261 198.51 163.693 197.664L163.891 198.33C163.387 199.446 162.379 200.112 161.155 200.112Z" fill="white"/>
<path d="M150.169 199.95V199.878C150.799 199.446 150.907 198.816 150.907 197.538V193.56C150.907 192.21 150.799 191.652 150.169 191.202V191.148H152.995C152.779 191.616 152.743 192.21 152.743 193.56V193.866C153.031 192.606 154.237 191.058 156.379 191.04V192.606C153.805 192.516 152.743 193.74 152.743 195.414V197.61C152.743 198.87 152.833 199.464 153.535 199.896V199.95H150.169Z" fill="white"/>
<path d="M144.401 200.257C141.809 200.257 139.937 198.529 139.937 195.577C139.937 192.679 141.917 190.843 144.455 190.843C147.029 190.843 148.703 192.535 148.739 194.983H141.719V195.289C141.719 197.449 142.709 199.105 144.779 199.105C146.489 199.105 147.425 197.989 147.785 196.567H148.775C148.361 198.619 146.939 200.257 144.401 200.257ZM141.827 194.173H146.957C146.795 192.751 145.949 191.671 144.455 191.671C143.051 191.671 142.115 192.643 141.827 194.173Z" fill="white"/>
<path d="M129.002 204.27V204.198C129.632 203.82 129.722 203.262 129.722 202.11V193.308C129.722 192.102 129.632 191.598 129.002 191.202V191.148H131.828C131.612 191.544 131.558 192.084 131.558 193.218C132.098 191.85 133.214 190.86 134.942 190.86C137.264 190.86 138.596 192.822 138.596 195.432C138.596 198.132 137.084 200.112 134.708 200.112C133.358 200.112 132.188 199.464 131.558 198.33V202.11C131.558 203.262 131.666 203.82 132.296 204.198V204.27H129.002ZM131.558 197.394C132.062 198.492 132.998 199.212 134.114 199.212C135.734 199.212 136.688 197.736 136.688 195.45C136.688 193.452 135.932 191.832 134.258 191.832C132.53 191.832 131.576 193.488 131.576 195.72L131.558 195.702V197.394Z" fill="white"/>
<path d="M123.048 200.257C120.222 200.257 118.386 198.349 118.386 195.541C118.386 192.715 120.222 190.843 123.048 190.843C125.892 190.843 127.71 192.715 127.71 195.541C127.71 198.349 125.892 200.257 123.048 200.257ZM120.24 195.541C120.24 197.971 121.284 199.411 123.066 199.411C124.812 199.411 125.856 197.971 125.856 195.541C125.856 193.093 124.812 191.689 123.066 191.689C121.284 191.689 120.24 193.093 120.24 195.541Z" fill="white"/>
<path d="M111.549 199.95V199.878C112.179 199.446 112.287 198.816 112.287 197.538V193.56C112.287 192.21 112.179 191.652 111.549 191.202V191.148H114.375C114.159 191.616 114.123 192.21 114.123 193.56V193.866C114.411 192.606 115.617 191.058 117.759 191.04V192.606C115.185 192.516 114.123 193.74 114.123 195.414V197.61C114.123 198.87 114.213 199.464 114.915 199.896V199.95H111.549Z" fill="white"/>
<path d="M100.553 199.95V199.878C101.255 199.446 101.345 198.816 101.345 197.538V188.736C101.345 187.386 101.255 186.828 100.553 186.378V186.324H105.233C108.545 186.324 110.615 187.314 110.615 189.852C110.615 192.462 108.257 193.56 104.855 193.56H103.361V197.538C103.361 198.816 103.451 199.446 104.171 199.878V199.95H100.553ZM103.361 192.678H104.747C107.051 192.678 108.581 191.868 108.581 189.852C108.581 187.926 107.213 187.206 105.089 187.206H103.361V192.678Z" fill="white"/>
<path d="M278.535 295.312C271.303 295.312 267.527 290.864 267.527 282.672C267.527 274.448 271.303 270 278.535 270C285.799 270 289.543 274.48 289.543 282.672C289.543 290.864 285.799 295.312 278.535 295.312ZM274.855 282.672C274.855 288.272 275.911 290.224 278.535 290.224C281.159 290.224 282.247 288.272 282.247 282.672C282.247 277.072 281.159 275.088 278.535 275.088C275.911 275.088 274.855 277.072 274.855 282.672Z" fill="white"/>
<path d="M254.035 295.312C246.803 295.312 243.027 290.864 243.027 282.672C243.027 274.448 246.803 270 254.035 270C261.299 270 265.043 274.48 265.043 282.672C265.043 290.864 261.299 295.312 254.035 295.312ZM250.355 282.672C250.355 288.272 251.411 290.224 254.035 290.224C256.659 290.224 257.747 288.272 257.747 282.672C257.747 277.072 256.659 275.088 254.035 275.088C251.411 275.088 250.355 277.072 250.355 282.672Z" fill="white"/>
<path d="M231.903 294.704V289.36V279.632C230.911 280.816 229.215 281.648 226.751 281.68V276.272C230.399 275.824 233.503 273.584 234.143 270.48H239.359V289.36V294.704H231.903Z" fill="white"/>
<path d="M362.457 317.406C362.529 316.632 362.565 315.912 362.565 315.084C362.025 316.524 360.927 317.568 359.217 317.568C356.841 317.568 355.527 315.57 355.527 313.014C355.527 310.296 357.021 308.316 359.433 308.316C360.819 308.316 361.935 308.982 362.565 310.044V305.76C362.565 304.662 362.475 304.086 361.953 303.672V303.618L364.401 303.312L364.509 303.366C364.419 303.906 364.401 304.338 364.401 305.76V314.994C364.401 316.272 364.491 316.902 365.103 317.334V317.406H362.457ZM357.453 313.014C357.453 314.994 358.173 316.596 359.883 316.596C361.629 316.596 362.547 314.904 362.547 312.744H362.565V311.016C362.115 309.954 361.125 309.216 360.009 309.216C358.389 309.216 357.453 310.71 357.453 313.014Z" fill="white"/>
<path d="M349.813 317.712C347.221 317.712 345.349 315.984 345.349 313.032C345.349 310.134 347.329 308.298 349.867 308.298C352.441 308.298 354.115 309.99 354.151 312.438H347.131V312.744C347.131 314.904 348.121 316.56 350.191 316.56C351.901 316.56 352.837 315.444 353.197 314.022H354.187C353.773 316.074 352.351 317.712 349.813 317.712ZM347.239 311.628H352.369C352.207 310.206 351.361 309.126 349.867 309.126C348.463 309.126 347.527 310.098 347.239 311.628Z" fill="white"/>
<path d="M341.976 317.567C340.536 317.567 339.402 316.865 339.402 314.561V309.449H337.548V308.603H339.402V306.173L341.166 304.859H341.238V308.603H344.136V309.449H341.238V314.525C341.238 316.019 341.814 316.415 342.642 316.415C343.434 316.415 344.082 315.965 344.514 315.119L344.712 315.785C344.208 316.901 343.2 317.567 341.976 317.567Z" fill="white"/>
<path d="M335.771 317.567C334.331 317.567 333.197 316.865 333.197 314.561V309.449H331.343V308.603H333.197V306.173L334.961 304.859H335.033V308.603H337.931V309.449H335.033V314.525C335.033 316.019 335.609 316.415 336.437 316.415C337.229 316.415 337.877 315.965 338.309 315.119L338.507 315.785C338.003 316.901 336.995 317.567 335.771 317.567Z" fill="white"/>
<path d="M326.382 317.712C323.79 317.712 321.918 315.984 321.918 313.032C321.918 310.134 323.898 308.298 326.436 308.298C329.01 308.298 330.684 309.99 330.72 312.438H323.7V312.744C323.7 314.904 324.69 316.56 326.76 316.56C328.47 316.56 329.406 315.444 329.766 314.022H330.756C330.342 316.074 328.92 317.712 326.382 317.712ZM323.808 311.628H328.938C328.776 310.206 327.93 309.126 326.436 309.126C325.032 309.126 324.096 310.098 323.808 311.628Z" fill="white"/>
<path d="M311.327 305.633C310.967 304.661 310.715 304.175 310.193 303.833V303.779H313.865V303.833C313.145 304.157 313.199 304.679 313.505 305.597L316.817 315.515L320.201 305.597C320.543 304.589 320.507 304.139 319.931 303.833V303.779H322.577V303.833C322.037 304.157 321.803 304.625 321.443 305.615L317.573 316.433C317.429 316.811 317.393 317.063 317.393 317.405H315.575L311.327 305.633Z" fill="white"/>
<path d="M299.982 317.405V317.333C300.612 316.901 300.72 316.271 300.72 314.993V311.015C300.72 309.665 300.612 309.107 299.982 308.657V308.603H302.808C302.592 309.071 302.556 309.665 302.556 311.015V311.321C302.844 310.061 304.05 308.513 306.192 308.495V310.061C303.618 309.971 302.556 311.195 302.556 312.869V315.065C302.556 316.325 302.646 316.919 303.348 317.351V317.405H299.982Z" fill="white"/>
<path d="M294.214 317.712C291.622 317.712 289.75 315.984 289.75 313.032C289.75 310.134 291.73 308.298 294.268 308.298C296.842 308.298 298.516 309.99 298.552 312.438H291.532V312.744C291.532 314.904 292.522 316.56 294.592 316.56C296.302 316.56 297.238 315.444 297.598 314.022H298.588C298.174 316.074 296.752 317.712 294.214 317.712ZM291.64 311.628H296.77C296.608 310.206 295.762 309.126 294.268 309.126C292.864 309.126 291.928 310.098 291.64 311.628Z" fill="white"/>
<path d="M278.94 317.406V317.334C279.606 316.902 279.696 316.272 279.696 314.994V305.76C279.696 304.68 279.57 304.104 279.03 303.69V303.618L281.64 303.312L281.658 303.384C281.568 303.924 281.532 304.338 281.532 305.76V310.548C282.09 309.306 283.224 308.298 284.952 308.298C286.68 308.298 287.742 309.234 287.742 311.592V314.994C287.742 316.272 287.832 316.902 288.444 317.334V317.406H285.24V317.334C285.816 316.902 285.906 316.272 285.906 314.994V311.736C285.906 310.098 285.294 309.396 284.106 309.396C282.72 309.396 281.802 310.476 281.532 311.754V314.994C281.532 316.272 281.622 316.902 282.27 317.334V317.406H278.94Z" fill="white"/>
<path d="M275.443 317.567C274.003 317.567 272.869 316.865 272.869 314.561V309.449H271.015V308.603H272.869V306.173L274.633 304.859H274.705V308.603H277.603V309.449H274.705V314.525C274.705 316.019 275.281 316.415 276.109 316.415C276.901 316.415 277.549 315.965 277.981 315.119L278.179 315.785C277.675 316.901 276.667 317.567 275.443 317.567Z" fill="white"/>
<path d="M264.456 317.405V317.333C265.086 316.901 265.194 316.271 265.194 314.993V311.015C265.194 309.665 265.086 309.107 264.456 308.657V308.603H267.282C267.066 309.071 267.03 309.665 267.03 311.015V311.321C267.318 310.061 268.524 308.513 270.666 308.495V310.061C268.092 309.971 267.03 311.195 267.03 312.869V315.065C267.03 316.325 267.12 316.919 267.822 317.351V317.405H264.456Z" fill="white"/>
<path d="M257.03 317.676C255.284 317.676 254.222 316.722 254.222 314.382V311.016C254.222 309.72 254.132 309.108 253.502 308.658V308.604H256.706V308.658C256.148 309.108 256.058 309.72 256.058 311.016V314.22C256.058 315.858 256.652 316.56 257.84 316.56C259.226 316.56 260.108 315.444 260.414 313.968V311.016C260.414 309.72 260.324 309.108 259.73 308.658V308.604H262.97V308.658C262.34 309.108 262.25 309.72 262.25 311.016V314.994C262.25 316.344 262.34 316.902 262.97 317.334V317.406H260.18C260.36 316.956 260.414 316.416 260.414 315.264C259.892 316.56 258.74 317.676 257.03 317.676Z" fill="white"/>
<path d="M253.108 305.399C251.29 304.913 249.94 304.661 248.5 304.661H246.916V309.539H248.158C249.166 309.539 250.606 309.485 252.1 309.431V310.511C250.606 310.439 249.166 310.403 248.158 310.403H246.916V314.993C246.916 316.271 247.006 316.901 247.726 317.333V317.405H244.108V317.333C244.81 316.901 244.9 316.271 244.9 314.993V306.191C244.9 304.841 244.81 304.283 244.108 303.833V303.779H253.108V305.399Z" fill="white"/>
<path d="M234.088 317.711C231.73 317.711 230.128 316.451 229.876 314.453H231.568C231.712 315.929 232.576 316.865 234.106 316.865C235.186 316.865 235.942 316.397 235.942 315.551C235.942 314.615 234.97 314.255 233.35 313.589C231.676 312.923 230.308 312.329 230.308 310.745C230.308 309.161 231.694 308.279 233.674 308.279C235.816 308.279 237.202 309.341 237.508 311.069H235.834C235.672 309.899 234.952 309.107 233.638 309.107C232.594 309.107 231.928 309.557 231.928 310.313C231.928 311.195 232.756 311.609 234.43 312.239C236.32 312.959 237.616 313.625 237.616 315.155C237.616 316.847 236.05 317.711 234.088 317.711Z" fill="white"/>
<path d="M224.288 317.712C221.696 317.712 219.824 315.984 219.824 313.032C219.824 310.134 221.804 308.298 224.342 308.298C226.916 308.298 228.59 309.99 228.626 312.438H221.606V312.744C221.606 314.904 222.596 316.56 224.666 316.56C226.376 316.56 227.312 315.444 227.672 314.022H228.662C228.248 316.074 226.826 317.712 224.288 317.712ZM221.714 311.628H226.844C226.682 310.206 225.836 309.126 224.342 309.126C222.938 309.126 222.002 310.098 221.714 311.628Z" fill="white"/>
<path d="M215.217 317.405V317.333C215.847 316.901 215.937 316.289 215.937 314.993L215.955 310.979C215.955 309.629 215.883 309.089 215.307 308.693V308.621L217.791 308.495V314.993C217.791 316.271 217.881 316.901 218.511 317.333V317.405H215.217ZM215.901 306.389V304.355H217.809V306.389H215.901Z" fill="white"/>
<path d="M211.792 317.567C210.352 317.567 209.218 316.865 209.218 314.561V309.449H207.364V308.603H209.218V306.173L210.982 304.859H211.054V308.603H213.952V309.449H211.054V314.525C211.054 316.019 211.63 316.415 212.458 316.415C213.25 316.415 213.898 315.965 214.33 315.119L214.528 315.785C214.024 316.901 213.016 317.567 211.792 317.567Z" fill="white"/>
<path d="M200.806 317.405V317.333C201.436 316.901 201.544 316.271 201.544 314.993V311.015C201.544 309.665 201.436 309.107 200.806 308.657V308.603H203.632C203.416 309.071 203.38 309.665 203.38 311.015V311.321C203.668 310.061 204.874 308.513 207.016 308.495V310.061C204.442 309.971 203.38 311.195 203.38 312.869V315.065C203.38 316.325 203.47 316.919 204.172 317.351V317.405H200.806Z" fill="white"/>
<path d="M195.038 317.712C192.446 317.712 190.574 315.984 190.574 313.032C190.574 310.134 192.554 308.298 195.092 308.298C197.666 308.298 199.34 309.99 199.376 312.438H192.356V312.744C192.356 314.904 193.346 316.56 195.416 316.56C197.126 316.56 198.062 315.444 198.422 314.022H199.412C198.998 316.074 197.576 317.712 195.038 317.712ZM192.464 311.628H197.594C197.432 310.206 196.586 309.126 195.092 309.126C193.688 309.126 192.752 310.098 192.464 311.628Z" fill="white"/>
<path d="M179.639 321.725V321.653C180.269 321.275 180.359 320.717 180.359 319.565V310.763C180.359 309.557 180.269 309.053 179.639 308.657V308.603H182.465C182.249 308.999 182.195 309.539 182.195 310.673C182.735 309.305 183.851 308.315 185.579 308.315C187.901 308.315 189.233 310.277 189.233 312.887C189.233 315.587 187.721 317.567 185.345 317.567C183.995 317.567 182.825 316.919 182.195 315.785V319.565C182.195 320.717 182.303 321.275 182.933 321.653V321.725H179.639ZM182.195 314.849C182.699 315.947 183.635 316.667 184.751 316.667C186.371 316.667 187.325 315.191 187.325 312.905C187.325 310.907 186.569 309.287 184.895 309.287C183.167 309.287 182.213 310.943 182.213 313.175L182.195 313.157V314.849Z" fill="white"/>
<path d="M173.685 317.712C170.859 317.712 169.023 315.804 169.023 312.996C169.023 310.17 170.859 308.298 173.685 308.298C176.529 308.298 178.347 310.17 178.347 312.996C178.347 315.804 176.529 317.712 173.685 317.712ZM170.877 312.996C170.877 315.426 171.921 316.866 173.703 316.866C175.449 316.866 176.493 315.426 176.493 312.996C176.493 310.548 175.449 309.144 173.703 309.144C171.921 309.144 170.877 310.548 170.877 312.996Z" fill="white"/>
<path d="M162.187 317.405V317.333C162.817 316.901 162.925 316.271 162.925 314.993V311.015C162.925 309.665 162.817 309.107 162.187 308.657V308.603H165.013C164.797 309.071 164.761 309.665 164.761 311.015V311.321C165.049 310.061 166.255 308.513 168.397 308.495V310.061C165.823 309.971 164.761 311.195 164.761 312.869V315.065C164.761 316.325 164.851 316.919 165.553 317.351V317.405H162.187Z" fill="white"/>
<path d="M151.19 317.405V317.333C151.892 316.901 151.982 316.271 151.982 314.993V306.191C151.982 304.841 151.892 304.283 151.19 303.833V303.779H155.87C159.182 303.779 161.252 304.769 161.252 307.307C161.252 309.917 158.894 311.015 155.492 311.015H153.998V314.993C153.998 316.271 154.088 316.901 154.808 317.333V317.405H151.19ZM153.998 310.133H155.384C157.688 310.133 159.218 309.323 159.218 307.307C159.218 305.381 157.85 304.661 155.726 304.661H153.998V310.133Z" fill="white"/>
<path d="M263.209 403.224V397.88V388.152C262.217 389.336 260.521 390.168 258.057 390.2V384.792C261.705 384.344 264.809 382.104 265.449 379H270.665V397.88V403.224H263.209Z" fill="white"/>
<path d="M333.076 425.444C333.148 424.67 333.184 423.95 333.184 423.122C332.644 424.562 331.546 425.606 329.836 425.606C327.46 425.606 326.146 423.608 326.146 421.052C326.146 418.334 327.64 416.354 330.052 416.354C331.438 416.354 332.554 417.02 333.184 418.082V413.798C333.184 412.7 333.094 412.124 332.572 411.71V411.656L335.02 411.35L335.128 411.404C335.038 411.944 335.02 412.376 335.02 413.798V423.032C335.02 424.31 335.11 424.94 335.722 425.372V425.444H333.076ZM328.072 421.052C328.072 423.032 328.792 424.634 330.502 424.634C332.248 424.634 333.166 422.942 333.166 420.782H333.184V419.054C332.734 417.992 331.744 417.254 330.628 417.254C329.008 417.254 328.072 418.748 328.072 421.052Z" fill="white"/>
<path d="M320.432 425.75C317.84 425.75 315.968 424.022 315.968 421.07C315.968 418.172 317.948 416.336 320.486 416.336C323.06 416.336 324.734 418.028 324.77 420.476H317.75V420.782C317.75 422.942 318.74 424.598 320.81 424.598C322.52 424.598 323.456 423.482 323.816 422.06H324.806C324.392 424.112 322.97 425.75 320.432 425.75ZM317.858 419.666H322.988C322.826 418.244 321.98 417.164 320.486 417.164C319.082 417.164 318.146 418.136 317.858 419.666Z" fill="white"/>
<path d="M309.132 425.443V425.371C309.762 424.939 309.869 424.309 309.869 423.031V419.053C309.869 417.703 309.762 417.145 309.132 416.695V416.641H311.958C311.742 417.109 311.705 417.703 311.705 419.053V419.359C311.993 418.099 313.199 416.551 315.341 416.533V418.099C312.767 418.009 311.705 419.233 311.705 420.907V423.103C311.705 424.363 311.796 424.957 312.498 425.389V425.443H309.132Z" fill="white"/>
<path d="M303.364 425.75C300.772 425.75 298.9 424.022 298.9 421.07C298.9 418.172 300.88 416.336 303.418 416.336C305.992 416.336 307.666 418.028 307.702 420.476H300.682V420.782C300.682 422.942 301.672 424.598 303.742 424.598C305.452 424.598 306.388 423.482 306.748 422.06H307.738C307.324 424.112 305.902 425.75 303.364 425.75ZM300.79 419.666H305.92C305.758 418.244 304.912 417.164 303.418 417.164C302.014 417.164 301.078 418.136 300.79 419.666Z" fill="white"/>
<path d="M287.059 425.444V425.372C287.707 424.94 287.797 424.31 287.797 423.032V417.488H285.889V416.642H287.797V415.562C287.797 412.736 289.417 411.656 291.163 411.656C292.477 411.656 293.449 412.214 294.061 413.114C294.637 411.8 295.771 411.224 297.085 411.224C298.525 411.224 299.587 411.926 300.145 412.934L298.957 413.834C298.615 412.826 298.057 412.088 297.049 412.088C295.987 412.088 295.411 412.862 295.411 414.446C295.411 415.13 295.447 415.904 295.483 416.642H298.849V417.488H295.519V422.996C295.519 424.292 295.627 424.94 296.401 425.372V425.444H292.963V425.372C293.593 424.94 293.683 424.31 293.683 423.032V417.488H289.633V422.996C289.633 424.292 289.741 424.94 290.425 425.372V425.444H287.059ZM289.525 414.968C289.525 415.472 289.561 416.03 289.597 416.642H293.683V415.256C293.683 415.022 293.701 414.806 293.719 414.59C293.377 413.24 292.585 412.448 291.361 412.448C290.245 412.448 289.525 413.168 289.525 414.968Z" fill="white"/>
<path d="M278.101 425.732C273.763 425.732 270.793 422.87 270.793 418.658C270.793 414.446 273.763 411.602 278.101 411.602C282.403 411.602 285.373 414.446 285.373 418.676C285.373 422.888 282.403 425.732 278.101 425.732ZM272.917 418.676C272.917 422.258 274.897 424.796 278.101 424.796C281.287 424.796 283.267 422.258 283.267 418.658C283.267 415.076 281.287 412.556 278.101 412.556C274.897 412.556 272.917 415.076 272.917 418.676Z" fill="white"/>
<path d="M257.695 429.818C257.263 429.818 256.795 429.728 256.507 429.566V428.108C256.795 428.27 257.281 428.414 257.821 428.414C259.099 428.414 259.927 427.604 260.827 425.444H260.341L257.767 418.82C257.353 417.758 257.065 417.074 256.525 416.696V416.642H259.711V416.696C259.207 417.038 259.387 417.632 259.783 418.748L261.493 423.572L263.221 418.748C263.617 417.668 263.743 417.02 263.239 416.696V416.642H265.615V416.696C265.129 417.056 264.787 417.65 264.373 418.748L261.799 425.426C260.575 428.612 259.441 429.818 257.695 429.818Z" fill="white"/>
<path d="M253.602 425.605C252.162 425.605 251.028 424.903 251.028 422.599V417.487H249.174V416.641H251.028V414.211L252.792 412.897H252.864V416.641H255.762V417.487H252.864V422.563C252.864 424.057 253.44 424.453 254.268 424.453C255.06 424.453 255.708 424.003 256.14 423.157L256.338 423.823C255.834 424.939 254.826 425.605 253.602 425.605Z" fill="white"/>
<path d="M242.616 425.443V425.371C243.246 424.939 243.354 424.309 243.354 423.031V419.053C243.354 417.703 243.246 417.145 242.616 416.695V416.641H245.442C245.226 417.109 245.19 417.703 245.19 419.053V419.359C245.478 418.099 246.684 416.551 248.826 416.533V418.099C246.252 418.009 245.19 419.233 245.19 420.907V423.103C245.19 424.363 245.28 424.957 245.982 425.389V425.443H242.616Z" fill="white"/>
<path d="M236.848 425.75C234.256 425.75 232.384 424.022 232.384 421.07C232.384 418.172 234.364 416.336 236.902 416.336C239.476 416.336 241.15 418.028 241.186 420.476H234.166V420.782C234.166 422.942 235.156 424.598 237.226 424.598C238.936 424.598 239.872 423.482 240.232 422.06H241.222C240.808 424.112 239.386 425.75 236.848 425.75ZM234.274 419.666H239.404C239.242 418.244 238.396 417.164 236.902 417.164C235.498 417.164 234.562 418.136 234.274 419.666Z" fill="white"/>
<path d="M221.449 429.764V429.692C222.079 429.314 222.169 428.756 222.169 427.604V418.802C222.169 417.596 222.079 417.092 221.449 416.696V416.642H224.275C224.059 417.038 224.005 417.578 224.005 418.712C224.545 417.344 225.661 416.354 227.389 416.354C229.711 416.354 231.043 418.316 231.043 420.926C231.043 423.626 229.531 425.606 227.155 425.606C225.805 425.606 224.635 424.958 224.005 423.824V427.604C224.005 428.756 224.113 429.314 224.743 429.692V429.764H221.449ZM224.005 422.888C224.509 423.986 225.445 424.706 226.561 424.706C228.181 424.706 229.135 423.23 229.135 420.944C229.135 418.946 228.379 417.326 226.705 417.326C224.977 417.326 224.023 418.982 224.023 421.214L224.005 421.196V422.888Z" fill="white"/>
<path d="M215.495 425.75C212.669 425.75 210.833 423.842 210.833 421.034C210.833 418.208 212.669 416.336 215.495 416.336C218.339 416.336 220.157 418.208 220.157 421.034C220.157 423.842 218.339 425.75 215.495 425.75ZM212.687 421.034C212.687 423.464 213.731 424.904 215.513 424.904C217.259 424.904 218.303 423.464 218.303 421.034C218.303 418.586 217.259 417.182 215.513 417.182C213.731 417.182 212.687 418.586 212.687 421.034Z" fill="white"/>
<path d="M203.997 425.443V425.371C204.627 424.939 204.735 424.309 204.735 423.031V419.053C204.735 417.703 204.627 417.145 203.997 416.695V416.641H206.823C206.607 417.109 206.571 417.703 206.571 419.053V419.359C206.859 418.099 208.065 416.551 210.207 416.533V418.099C207.633 418.009 206.571 419.233 206.571 420.907V423.103C206.571 424.363 206.661 424.957 207.363 425.389V425.443H203.997Z" fill="white"/>
<path d="M193 425.443V425.371C193.702 424.939 193.792 424.309 193.792 423.031V414.229C193.792 412.879 193.702 412.321 193 411.871V411.817H197.68C200.992 411.817 203.062 412.807 203.062 415.345C203.062 417.955 200.704 419.053 197.302 419.053H195.808V423.031C195.808 424.309 195.898 424.939 196.618 425.371V425.443H193ZM195.808 418.171H197.194C199.498 418.171 201.028 417.361 201.028 415.345C201.028 413.419 199.66 412.699 197.536 412.699H195.808V418.171Z" fill="white"/>
<path d="M298.582 450.038V449.966C299.212 449.534 299.302 448.904 299.302 447.626V443.648C299.302 442.298 299.212 441.74 298.582 441.29V441.236H301.354C301.174 441.65 301.12 442.154 301.102 443.162C301.642 441.938 302.758 440.93 304.45 440.93C305.89 440.93 306.862 441.614 307.114 443.288C307.636 441.992 308.77 440.93 310.516 440.93C312.208 440.93 313.252 441.866 313.252 444.224V447.626C313.252 448.904 313.342 449.534 313.936 449.966V450.038H310.786V449.966C311.362 449.534 311.452 448.904 311.452 447.626V444.368C311.452 442.73 310.84 442.028 309.688 442.028C308.356 442.028 307.474 443.054 307.186 444.296V447.626C307.186 448.904 307.276 449.534 307.87 449.966V450.038H304.72V449.966C305.296 449.534 305.386 448.904 305.386 447.626V444.368C305.386 442.73 304.774 442.028 303.622 442.028C302.254 442.028 301.354 443.108 301.102 444.386V447.626C301.102 448.904 301.192 449.534 301.786 449.966V450.038H298.582Z" fill="white"/>
<path d="M291.357 450.037V449.965C291.987 449.533 292.095 448.903 292.095 447.625V443.647C292.095 442.297 291.987 441.739 291.357 441.289V441.235H294.183C293.967 441.703 293.931 442.297 293.931 443.647V443.953C294.219 442.693 295.425 441.145 297.567 441.127V442.693C294.993 442.603 293.931 443.827 293.931 445.501V447.697C293.931 448.957 294.021 449.551 294.723 449.983V450.037H291.357Z" fill="white"/>
<path d="M285.278 450.344C282.452 450.344 280.616 448.436 280.616 445.628C280.616 442.802 282.452 440.93 285.278 440.93C288.122 440.93 289.94 442.802 289.94 445.628C289.94 448.436 288.122 450.344 285.278 450.344ZM282.47 445.628C282.47 448.058 283.514 449.498 285.296 449.498C287.042 449.498 288.086 448.058 288.086 445.628C288.086 443.18 287.042 441.776 285.296 441.776C283.514 441.776 282.47 443.18 282.47 445.628Z" fill="white"/>
<path d="M274.673 450.037V449.965C275.303 449.533 275.393 448.903 275.393 447.625V442.081H273.485V441.235H275.393V439.849C275.393 437.005 276.905 435.817 278.795 435.817C280.235 435.817 281.297 436.519 281.855 437.527L280.667 438.427C280.325 437.419 279.767 436.681 278.759 436.681C277.697 436.681 277.121 437.455 277.121 439.039C277.121 439.723 277.157 440.497 277.193 441.235H280.559V442.081H277.229V447.589C277.229 448.885 277.337 449.533 278.111 449.965V450.037H274.673Z" fill="white"/>
<path d="M270.528 450.199C269.088 450.199 267.954 449.497 267.954 447.193V442.081H266.1V441.235H267.954V438.805L269.718 437.491H269.79V441.235H272.688V442.081H269.79V447.157C269.79 448.651 270.366 449.047 271.194 449.047C271.986 449.047 272.634 448.597 273.066 447.751L273.264 448.417C272.76 449.533 271.752 450.199 270.528 450.199Z" fill="white"/>
<path d="M259.758 450.271C258.228 450.271 257.13 449.497 257.13 447.949C257.13 446.311 258.408 445.717 260.64 445.069C262.332 444.583 263.178 444.349 263.196 443.197C263.196 442.243 262.584 441.739 261.486 441.739C260.28 441.739 259.182 442.423 259.164 444.115H257.454C257.598 442.027 259.506 440.911 261.648 440.911C263.502 440.911 264.978 441.703 264.978 443.881V447.787C264.978 448.795 265.284 449.191 265.824 449.191C266.076 449.191 266.274 449.119 266.472 448.957V449.623C266.112 449.965 265.644 450.181 265.014 450.181C264.024 450.181 263.214 449.533 263.214 447.949V447.679C262.746 449.101 261.594 450.271 259.758 450.271ZM258.912 447.715C258.912 448.705 259.56 449.119 260.334 449.119C262.026 449.119 263.196 447.607 263.196 445.447V444.601C262.944 445.177 262.206 445.429 261.108 445.789C259.668 446.257 258.912 446.653 258.912 447.715Z" fill="white"/>
<path d="M252.65 450.037V449.965C253.316 449.533 253.406 448.903 253.406 447.625V438.391C253.406 437.311 253.28 436.735 252.74 436.321V436.249L255.35 435.943L255.368 436.015C255.278 436.555 255.242 436.969 255.242 438.391V447.625C255.242 448.903 255.332 449.533 255.98 449.965V450.037H252.65Z" fill="white"/>
<path d="M241.495 450.037V449.965C242.197 449.533 242.287 448.903 242.287 447.625V438.823C242.287 437.473 242.197 436.915 241.495 436.465V436.411H246.175C249.487 436.411 251.557 437.401 251.557 439.939C251.557 442.549 249.199 443.647 245.797 443.647H244.303V447.625C244.303 448.903 244.393 449.533 245.113 449.965V450.037H241.495ZM244.303 442.765H245.689C247.993 442.765 249.523 441.955 249.523 439.939C249.523 438.013 248.155 437.293 246.031 437.293H244.303V442.765Z" fill="white"/>
<path d="M225.545 450.038V449.966C226.175 449.534 226.265 448.904 226.265 447.626V443.648C226.265 442.298 226.175 441.74 225.545 441.29V441.236H228.371C228.173 441.65 228.119 442.154 228.101 443.18C228.659 441.938 229.793 440.93 231.521 440.93C233.249 440.93 234.311 441.866 234.311 444.224V447.626C234.311 448.904 234.401 449.534 235.013 449.966V450.038H231.809V449.966C232.385 449.534 232.475 448.904 232.475 447.626V444.368C232.475 442.73 231.863 442.028 230.675 442.028C229.289 442.028 228.371 443.108 228.101 444.386V447.626C228.101 448.904 228.191 449.534 228.803 449.966V450.038H225.545Z" fill="white"/>
<path d="M219.448 450.344C216.622 450.344 214.786 448.436 214.786 445.628C214.786 442.802 216.622 440.93 219.448 440.93C222.292 440.93 224.11 442.802 224.11 445.628C224.11 448.436 222.292 450.344 219.448 450.344ZM216.64 445.628C216.64 448.058 217.684 449.498 219.466 449.498C221.212 449.498 222.256 448.058 222.256 445.628C222.256 443.18 221.212 441.776 219.466 441.776C217.684 441.776 216.64 443.18 216.64 445.628Z" fill="white"/>
<defs>
<clipPath id="clip0_3005_10515">
<rect width="518" height="112" fill="white" transform="translate(1)"/>
</clipPath>
<clipPath id="clip1_3005_10515">
<rect width="518" height="111" fill="white" transform="translate(1 360)"/>
</clipPath>
<clipPath id="clip2_3005_10515">
<rect width="518" height="112" fill="white" transform="translate(1 240)"/>
</clipPath>
<clipPath id="clip3_3005_10515">
<rect width="518" height="112" fill="white" transform="translate(1 120)"/>
</clipPath>
</defs>
</svg>
