<svg width="519" height="471" viewBox="0 0 519 471" fill="none" xmlns="http://www.w3.org/2000/svg">
<g opacity="0.5" filter="url(#filter0_f_3005_10497)">
<rect x="260.173" y="133.489" width="145.217" height="145.217" transform="rotate(45 260.173 133.489)" stroke="#16AF7F" stroke-width="24"/>
</g>
<rect x="260" y="180" width="79.4407" height="79.4407" transform="rotate(45 260 180)" fill="#F0EEEB"/>
<rect opacity="0.1" x="260" y="72.968" width="230.318" height="230.318" transform="rotate(45 260 72.968)" stroke="#046149" stroke-width="16"/>
<rect opacity="0.05" x="260" y="12.3108" width="316.1" height="316.1" transform="rotate(45 260 12.3108)" stroke="#046149" stroke-width="16"/>
<rect x="260" y="132.314" width="146.879" height="146.879" transform="rotate(45 260 132.314)" stroke="#046149" stroke-width="16"/>
<g opacity="0.5">
<mask id="mask0_3005_10497" style="mask-type:alpha" maskUnits="userSpaceOnUse" x="25" y="0" width="470" height="471">
<rect opacity="0.2" x="260" y="72.968" width="230.318" height="230.318" transform="rotate(45 260 72.968)" stroke="#046149" stroke-width="16"/>
<rect opacity="0.1" x="260" y="12.3108" width="316.1" height="316.1" transform="rotate(45 260 12.3108)" stroke="#046149" stroke-width="16"/>
<rect opacity="0.5" x="260" y="132.314" width="146.879" height="146.879" transform="rotate(45 260 132.314)" stroke="#046149" stroke-width="16"/>
</mask>
<g mask="url(#mask0_3005_10497)">
<rect width="260" height="471" fill="#4360AB"/>
</g>
</g>
<path d="M259.374 244.072L258.946 244.57L238.326 221.655C237.96 221.25 237.865 220.662 238.065 220.149C238.354 219.415 238.668 218.699 239.016 218L259.374 244.072Z" fill="#4360AB"/>
<path d="M260.626 244.072L280.984 218C281.332 218.699 281.646 219.415 281.935 220.149C282.135 220.662 282.04 221.25 281.674 221.655L261.054 244.57L260.626 244.072Z" fill="#4360AB"/>
<path d="M258.629 244.939L236.634 222.655C236.367 223.391 236.135 224.139 235.931 224.904C235.789 225.436 235.951 226.01 236.359 226.368L258.128 245.522L258.629 244.939Z" fill="#4360AB"/>
<path d="M257.728 245.986L235.338 227.94C235.181 228.912 235.075 229.901 235.02 230.905C234.992 231.417 235.224 231.905 235.64 232.182L257.196 246.606L257.728 245.986Z" fill="#4360AB"/>
<path d="M256.825 247.038L235 233.969C235.059 235.205 235.196 236.413 235.412 237.601C235.495 238.052 235.793 238.43 236.198 238.617L256.212 247.75L256.825 247.038Z" fill="#4360AB"/>
<path d="M255.795 248.235L236.127 240.782C236.434 241.815 236.803 242.824 237.223 243.804C237.392 244.194 237.73 244.479 238.134 244.585L255.174 248.958L255.795 248.235Z" fill="#4360AB"/>
<path d="M254.761 249.438L238.523 246.419C239.112 247.468 239.768 248.473 240.483 249.429C240.731 249.758 241.108 249.949 241.508 249.961L254.306 250.391C254.309 250.114 254.409 249.847 254.587 249.64L254.761 249.438Z" fill="#4360AB"/>
<path d="M254.306 250.986C250.153 251.139 242.226 251.528 242.226 251.528C242.758 252.105 243.313 252.656 243.892 253.178C244.674 253.886 245.738 254.166 246.744 253.902L254.306 251.945V250.986Z" fill="#4360AB"/>
<path d="M265.694 251.945L273.256 253.902C274.262 254.166 275.326 253.886 276.108 253.178C276.687 252.656 277.242 252.105 277.774 251.528C277.774 251.528 269.847 251.139 265.694 250.986V251.945Z" fill="#4360AB"/>
<path d="M265.694 250.391L278.492 249.961C278.892 249.949 279.269 249.758 279.517 249.429C280.232 248.473 280.888 247.468 281.477 246.419L265.239 249.438L265.413 249.64C265.591 249.847 265.691 250.114 265.694 250.391Z" fill="#4360AB"/>
<path d="M264.826 248.958L281.866 244.585C282.27 244.479 282.608 244.194 282.777 243.804C283.197 242.824 283.566 241.815 283.873 240.782L264.205 248.235L264.826 248.958Z" fill="#4360AB"/>
<path d="M263.788 247.75L283.802 238.617C284.207 238.43 284.505 238.052 284.588 237.601C284.804 236.413 284.941 235.205 285 233.969L263.175 247.038L263.788 247.75Z" fill="#4360AB"/>
<path d="M262.804 246.606L284.36 232.182C284.776 231.905 285.008 231.417 284.98 230.905C284.925 229.901 284.819 228.912 284.662 227.94L262.272 245.986L262.804 246.606Z" fill="#4360AB"/>
<path d="M261.872 245.522L283.641 226.368C284.049 226.01 284.211 225.436 284.069 224.904C283.865 224.139 283.633 223.391 283.366 222.655L261.371 244.939L261.872 245.522Z" fill="#4360AB"/>
<path d="M306.736 84.3404C304.076 84.3404 302.216 83.0204 301.956 80.7004H303.916C304.116 82.0604 305.076 82.8204 306.776 82.8204C307.816 82.8204 308.736 82.5004 308.736 81.6404C308.736 80.7004 307.576 80.3804 305.916 79.7804C303.936 79.0604 302.396 78.4604 302.396 76.6604C302.396 74.8204 303.976 73.8604 306.256 73.8604C308.896 73.8604 310.336 75.1204 310.636 77.0404H308.676C308.516 76.0004 307.636 75.3604 306.256 75.3604C305.076 75.3604 304.316 75.7404 304.316 76.5004C304.316 77.3404 305.096 77.6804 307.116 78.3604C309.476 79.1604 310.736 79.8404 310.736 81.4804C310.736 83.4404 308.936 84.3404 306.736 84.3404Z" fill="#293036"/>
<path d="M290.998 83.9999V81.3199V76.8999V74.2199H293.038V76.1399C293.678 74.8999 294.918 73.8799 296.838 73.8799C298.758 73.8799 299.998 74.9599 299.998 77.6799V81.3199V83.9999H297.958V81.3199V78.0399C297.958 76.2599 297.278 75.4599 295.898 75.4599C294.278 75.4599 293.238 76.6999 293.038 78.0999V81.3199V83.9999H290.998Z" fill="#293036"/>
<path d="M283.322 84.0002V81.3202V76.9002V74.2202H285.362V76.9002C285.682 75.7202 286.882 74.1802 289.282 74.1602V75.9002C286.682 75.9002 285.402 77.0402 285.362 79.1602V81.3202V84.0002H283.322Z" fill="#293036"/>
<path d="M274.703 84.2807C272.763 84.2807 271.523 83.2007 271.523 80.4607V76.9007V74.2207H273.563V76.9007V80.1607C273.563 81.9407 274.263 82.7007 275.543 82.7007C277.203 82.7007 278.143 81.5407 278.443 79.9207V76.9007V74.2207H280.483V76.9007V81.3207V84.0007H278.443V81.9407C277.803 83.1807 276.523 84.2807 274.703 84.2807Z" fill="#293036"/>
<path d="M267.199 84.18C265.459 84.18 264.179 83.32 264.179 80.66V75.66H262.079V74.22H264.179V71.48L266.159 70.04H266.219V74.22H269.379V75.66H266.219V80.62C266.219 82.2 266.939 82.64 267.839 82.64C268.659 82.64 269.299 82.28 269.739 81.68L270.019 83C269.579 83.58 268.619 84.18 267.199 84.18Z" fill="#293036"/>
<path d="M251.818 83.9999V81.3199V76.8999V74.2199H253.858V76.1399C254.498 74.8999 255.738 73.8799 257.658 73.8799C259.578 73.8799 260.818 74.9599 260.818 77.6799V81.3199V83.9999H258.778V81.3199V78.0399C258.778 76.2599 258.098 75.4599 256.718 75.4599C255.098 75.4599 254.058 76.6999 253.858 78.0999V81.3199V83.9999H251.818Z" fill="#293036"/>
<path d="M236.356 75.6207C236.216 75.2207 235.996 74.6407 235.836 74.2207H238.076C238.196 74.6207 238.396 75.2207 238.536 75.6207L240.396 81.1407L242.296 74.5607H243.796L245.736 81.1607L247.576 75.6007L248.056 74.2207H250.076L249.576 75.6407L246.956 82.9607C246.816 83.3607 246.676 83.7007 246.636 84.0007H244.976L242.996 77.0807L241.336 82.7607C241.156 83.4007 241.056 83.7007 240.996 84.0007H239.336L236.356 75.6207Z" fill="#293036"/>
<path d="M229.699 84.3399C226.419 84.3399 224.479 82.1799 224.479 79.0999C224.479 76.0199 226.419 73.8799 229.699 73.8799C232.979 73.8799 234.899 76.0199 234.899 79.0999C234.899 82.1799 232.979 84.3399 229.699 84.3399ZM226.459 79.0999C226.459 81.4999 227.779 82.7799 229.699 82.7799C231.619 82.7799 232.919 81.4999 232.919 79.0999C232.919 76.7199 231.619 75.4399 229.699 75.4399C227.779 75.4399 226.459 76.7199 226.459 79.0999Z" fill="#293036"/>
<path d="M209.248 84.0004V81.3204V71.5404V68.8604H214.088C219.448 68.8604 222.948 71.9204 222.948 76.4204C222.948 80.9604 219.468 84.0004 214.108 84.0004H209.248ZM211.468 82.3604H214.028C218.088 82.3604 220.688 79.9804 220.688 76.4404C220.688 72.8804 218.108 70.5004 214.028 70.5004H211.468V82.3604Z" fill="#293036"/>
<path d="M300.29 64.3399C297.43 64.3399 295.25 62.3999 295.25 59.0599C295.25 55.7599 297.41 53.8799 300.39 53.8799C303.15 53.8799 304.93 55.5799 305.29 57.6599H303.37C303.11 56.6399 302.31 55.4199 300.41 55.4199C298.29 55.4199 297.25 56.9999 297.25 59.0599C297.25 61.0999 298.29 62.7999 300.41 62.7999C302.39 62.7999 303.21 61.4399 303.41 60.0999H305.33C305.07 62.3599 303.39 64.3399 300.29 64.3399Z" fill="#293036"/>
<path d="M291.008 64V61.32V56.9V54.22H293.048V61.32V64H291.008ZM290.928 51.78V49.5H293.128V51.78H290.928Z" fill="#293036"/>
<path d="M272.648 63.9999V61.3199V56.8999V54.2199H274.648V56.0999C275.288 54.8799 276.489 53.8799 278.349 53.8799C279.889 53.8799 280.988 54.5999 281.328 56.3399C281.928 55.0199 283.168 53.8799 285.148 53.8799C287.028 53.8799 288.248 54.9599 288.248 57.6799V61.3199V63.9999H286.249V61.3199V58.0399C286.249 56.2599 285.589 55.4599 284.229 55.4599C282.688 55.4599 281.689 56.6199 281.449 57.9799V61.3199V63.9999H279.449V61.3199V58.0399C279.449 56.2599 278.788 55.4599 277.428 55.4599C275.888 55.4599 274.888 56.6199 274.648 57.9799V61.3199V63.9999H272.648Z" fill="#293036"/>
<path d="M265.275 64.3399C261.995 64.3399 260.055 62.1799 260.055 59.0999C260.055 56.0199 261.995 53.8799 265.275 53.8799C268.555 53.8799 270.475 56.0199 270.475 59.0999C270.475 62.1799 268.555 64.3399 265.275 64.3399ZM262.035 59.0999C262.035 61.4999 263.355 62.7799 265.275 62.7799C267.195 62.7799 268.495 61.4999 268.495 59.0999C268.495 56.7199 267.195 55.4399 265.275 55.4399C263.355 55.4399 262.035 56.7199 262.035 59.0999Z" fill="#293036"/>
<path d="M248.977 63.9999V61.3199V56.8999V54.2199H251.017V56.1399C251.657 54.8999 252.897 53.8799 254.817 53.8799C256.737 53.8799 257.977 54.9599 257.977 57.6799V61.3199V63.9999H255.937V61.3199V58.0399C255.937 56.2599 255.257 55.4599 253.877 55.4599C252.257 55.4599 251.217 56.6999 251.017 58.0999V61.3199V63.9999H248.977Z" fill="#293036"/>
<path d="M241.603 64.3399C238.323 64.3399 236.383 62.1799 236.383 59.0999C236.383 56.0199 238.323 53.8799 241.603 53.8799C244.883 53.8799 246.803 56.0199 246.803 59.0999C246.803 62.1799 244.883 64.3399 241.603 64.3399ZM238.363 59.0999C238.363 61.4999 239.683 62.7799 241.603 62.7799C243.523 62.7799 244.823 61.4999 244.823 59.0999C244.823 56.7199 243.523 55.4399 241.603 55.4399C239.683 55.4399 238.363 56.7199 238.363 59.0999Z" fill="#293036"/>
<path d="M230.036 64.3399C227.176 64.3399 224.996 62.3999 224.996 59.0599C224.996 55.7599 227.156 53.8799 230.136 53.8799C232.896 53.8799 234.676 55.5799 235.036 57.6599H233.116C232.856 56.6399 232.056 55.4199 230.156 55.4199C228.036 55.4199 226.996 56.9999 226.996 59.0599C226.996 61.0999 228.036 62.7999 230.156 62.7999C232.136 62.7999 232.956 61.4399 233.156 60.0999H235.076C234.816 62.3599 233.136 64.3399 230.036 64.3399Z" fill="#293036"/>
<path d="M214.863 64.0004V61.3204V51.5404V48.8604H223.743V50.4804C221.963 50.4604 220.583 50.4604 219.643 50.4604H217.083V55.3404H218.563C219.763 55.3404 220.983 55.3404 222.743 55.3004V56.9204C220.983 56.8804 219.763 56.8804 218.563 56.8804H217.083V62.4004H219.723C220.683 62.4004 222.203 62.4004 223.883 62.3804V64.0004H214.863Z" fill="#293036"/>
<path d="M299.647 422.34C296.987 422.34 295.127 421.02 294.867 418.7H296.827C297.027 420.06 297.987 420.82 299.687 420.82C300.727 420.82 301.647 420.5 301.647 419.64C301.647 418.7 300.487 418.38 298.827 417.78C296.847 417.06 295.307 416.46 295.307 414.66C295.307 412.82 296.887 411.86 299.167 411.86C301.807 411.86 303.247 413.12 303.547 415.04H301.587C301.427 414 300.547 413.36 299.167 413.36C297.987 413.36 297.227 413.74 297.227 414.5C297.227 415.34 298.007 415.68 300.027 416.36C302.387 417.16 303.647 417.84 303.647 419.48C303.647 421.44 301.847 422.34 299.647 422.34Z" fill="#293036"/>
<path d="M288.127 422V419.32V414.9V412.22H290.167V414.9C290.487 413.72 291.687 412.18 294.087 412.16V413.9C291.487 413.9 290.207 415.04 290.167 417.16V419.32V422H288.127Z" fill="#293036"/>
<path d="M281.024 422.341C278.124 422.341 275.944 420.501 275.944 417.101C275.944 413.941 278.084 411.881 280.964 411.881C283.924 411.881 285.964 413.861 285.984 416.941H277.824V417.061C277.824 419.241 279.004 420.801 281.084 420.801C282.904 420.801 283.784 419.581 284.004 418.481H285.924C285.584 420.401 284.004 422.341 281.024 422.341ZM278.024 415.581H283.944C283.604 414.301 282.604 413.381 281.004 413.381C279.504 413.381 278.464 414.221 278.024 415.581Z" fill="#293036"/>
<path d="M272.375 422.18C270.635 422.18 269.355 421.32 269.355 418.66V413.66H267.255V412.22H269.355V409.48L271.335 408.04H271.395V412.22H274.555V413.66H271.395V418.62C271.395 420.2 272.115 420.64 273.015 420.64C273.835 420.64 274.475 420.28 274.915 419.68L275.195 421C274.755 421.58 273.795 422.18 272.375 422.18Z" fill="#293036"/>
<path d="M262.596 422.34C259.936 422.34 258.076 421.02 257.816 418.7H259.776C259.976 420.06 260.936 420.82 262.636 420.82C263.676 420.82 264.596 420.5 264.596 419.64C264.596 418.7 263.436 418.38 261.776 417.78C259.796 417.06 258.256 416.46 258.256 414.66C258.256 412.82 259.836 411.86 262.116 411.86C264.756 411.86 266.196 413.12 266.496 415.04H264.536C264.376 414 263.496 413.36 262.116 413.36C260.936 413.36 260.176 413.74 260.176 414.5C260.176 415.34 260.956 415.68 262.976 416.36C265.336 417.16 266.596 417.84 266.596 419.48C266.596 421.44 264.796 422.34 262.596 422.34Z" fill="#293036"/>
<path d="M249.686 422.28C247.886 422.28 246.626 421.4 246.626 419.64C246.626 417.72 248.126 417.1 250.626 416.36C252.446 415.82 253.406 415.56 253.406 414.56C253.406 413.74 252.726 413.32 251.486 413.32C249.926 413.32 248.886 414.08 248.846 415.46H246.886C247.106 413.34 248.826 411.86 251.606 411.86C253.746 411.86 255.386 412.74 255.386 415.1V419.02C255.386 420.36 255.786 420.76 256.426 420.76C256.606 420.76 256.866 420.72 257.026 420.58V421.8C256.766 421.98 256.286 422.14 255.666 422.14C254.586 422.14 253.606 421.48 253.506 419.84C252.926 421.14 251.686 422.28 249.686 422.28ZM248.606 419.54C248.606 420.5 249.326 420.84 250.086 420.84C251.986 420.84 253.426 419.2 253.426 416.96V416.34C253.126 417.02 252.266 417.28 251.066 417.68C249.366 418.24 248.606 418.58 248.606 419.54Z" fill="#293036"/>
<path d="M241.15 422.34C238.49 422.34 236.63 421.02 236.37 418.7H238.33C238.53 420.06 239.49 420.82 241.19 420.82C242.23 420.82 243.15 420.5 243.15 419.64C243.15 418.7 241.99 418.38 240.33 417.78C238.35 417.06 236.81 416.46 236.81 414.66C236.81 412.82 238.39 411.86 240.67 411.86C243.31 411.86 244.75 413.12 245.05 415.04H243.09C242.93 414 242.05 413.36 240.67 413.36C239.49 413.36 238.73 413.74 238.73 414.5C238.73 415.34 239.51 415.68 241.53 416.36C243.89 417.16 245.15 417.84 245.15 419.48C245.15 421.44 243.35 422.34 241.15 422.34Z" fill="#293036"/>
<path d="M232.249 422V419.32V414.9V412.22H234.289V419.32V422H232.249ZM232.169 409.78V407.5H234.369V409.78H232.169Z" fill="#293036"/>
<path d="M216.338 422V419.32V409.54V406.86H221.178C226.538 406.86 230.038 409.92 230.038 414.42C230.038 418.96 226.558 422 221.198 422H216.338ZM218.558 420.36H221.118C225.178 420.36 227.778 417.98 227.778 414.44C227.778 410.88 225.198 408.5 221.118 408.5H218.558V420.36Z" fill="#293036"/>
<path d="M290.608 402V399.32V389.04V386.4H292.648V389.04V399.32V402H290.608Z" fill="#293036"/>
<path d="M281.678 402.28C279.878 402.28 278.618 401.4 278.618 399.64C278.618 397.72 280.118 397.1 282.618 396.36C284.438 395.82 285.398 395.56 285.398 394.56C285.398 393.74 284.718 393.32 283.478 393.32C281.918 393.32 280.878 394.08 280.838 395.46H278.878C279.098 393.34 280.818 391.86 283.598 391.86C285.738 391.86 287.378 392.74 287.378 395.1V399.02C287.378 400.36 287.778 400.76 288.418 400.76C288.598 400.76 288.858 400.72 289.018 400.58V401.8C288.758 401.98 288.278 402.14 287.658 402.14C286.578 402.14 285.598 401.48 285.498 399.84C284.918 401.14 283.678 402.28 281.678 402.28ZM280.598 399.54C280.598 400.5 281.318 400.84 282.078 400.84C283.978 400.84 285.418 399.2 285.418 396.96V396.34C285.118 397.02 284.258 397.28 283.058 397.68C281.358 398.24 280.598 398.58 280.598 399.54Z" fill="#293036"/>
<path d="M272.033 402V399.32V394.9V392.22H274.073V394.9C274.393 393.72 275.593 392.18 277.993 392.16V393.9C275.393 393.9 274.113 395.04 274.073 397.16V399.32V402H272.033Z" fill="#293036"/>
<path d="M263.414 402.281C261.474 402.281 260.234 401.201 260.234 398.461V394.901V392.221H262.274V394.901V398.161C262.274 399.941 262.974 400.701 264.254 400.701C265.914 400.701 266.854 399.541 267.154 397.921V394.901V392.221H269.194V394.901V399.321V402.001H267.154V399.941C266.514 401.181 265.234 402.281 263.414 402.281Z" fill="#293036"/>
<path d="M255.91 402.18C254.17 402.18 252.89 401.32 252.89 398.66V393.66H250.79V392.22H252.89V389.48L254.87 388.04H254.93V392.22H258.09V393.66H254.93V398.62C254.93 400.2 255.65 400.64 256.55 400.64C257.37 400.64 258.01 400.28 258.45 399.68L258.73 401C258.29 401.58 257.33 402.18 255.91 402.18Z" fill="#293036"/>
<path d="M243.729 402.28C241.929 402.28 240.669 401.4 240.669 399.64C240.669 397.72 242.169 397.1 244.669 396.36C246.489 395.82 247.449 395.56 247.449 394.56C247.449 393.74 246.769 393.32 245.529 393.32C243.969 393.32 242.929 394.08 242.889 395.46H240.929C241.149 393.34 242.869 391.86 245.649 391.86C247.789 391.86 249.429 392.74 249.429 395.1V399.02C249.429 400.36 249.829 400.76 250.469 400.76C250.649 400.76 250.909 400.72 251.069 400.58V401.8C250.809 401.98 250.329 402.14 249.709 402.14C248.629 402.14 247.649 401.48 247.549 399.84C246.969 401.14 245.729 402.28 243.729 402.28ZM242.649 399.54C242.649 400.5 243.369 400.84 244.129 400.84C246.029 400.84 247.469 399.2 247.469 396.96V396.34C247.169 397.02 246.309 397.28 245.109 397.68C243.409 398.24 242.649 398.58 242.649 399.54Z" fill="#293036"/>
<path d="M236.03 402L228.83 390.1V399.32V402H226.65V399.32V389.54V386.86H228.97L236.17 398.72V389.54V386.86H238.35V389.54V402H236.03Z" fill="#293036"/>
<path d="M485.799 253.34C483.139 253.34 481.279 252.02 481.019 249.7H482.979C483.179 251.06 484.139 251.82 485.839 251.82C486.879 251.82 487.799 251.5 487.799 250.64C487.799 249.7 486.639 249.38 484.979 248.78C482.999 248.06 481.459 247.46 481.459 245.66C481.459 243.82 483.039 242.86 485.319 242.86C487.959 242.86 489.399 244.12 489.699 246.04H487.739C487.579 245 486.699 244.36 485.319 244.36C484.139 244.36 483.379 244.74 483.379 245.5C483.379 246.34 484.159 246.68 486.179 247.36C488.539 248.16 489.799 248.84 489.799 250.48C489.799 252.44 487.999 253.34 485.799 253.34Z" fill="#293036"/>
<path d="M474.695 253.341C471.795 253.341 469.615 251.501 469.615 248.101C469.615 244.941 471.755 242.881 474.635 242.881C477.595 242.881 479.635 244.861 479.655 247.941H471.495V248.061C471.495 250.241 472.675 251.801 474.755 251.801C476.575 251.801 477.455 250.581 477.675 249.481H479.595C479.255 251.401 477.675 253.341 474.695 253.341ZM471.695 246.581H477.615C477.275 245.301 476.275 244.381 474.675 244.381C473.175 244.381 472.135 245.221 471.695 246.581Z" fill="#293036"/>
<path d="M462.932 253V250.32V245.9V243.22H464.972V245.9C465.292 244.72 466.492 243.18 468.892 243.16V244.9C466.292 244.9 465.012 246.04 464.972 248.16V250.32V253H462.932Z" fill="#293036"/>
<path d="M454.313 253.281C452.373 253.281 451.133 252.201 451.133 249.461V245.901V243.221H453.173V245.901V249.161C453.173 250.941 453.873 251.701 455.153 251.701C456.813 251.701 457.753 250.541 458.053 248.921V245.901V243.221H460.093V245.901V250.321V253.001H458.053V250.941C457.413 252.181 456.133 253.281 454.313 253.281Z" fill="#293036"/>
<path d="M445.057 253.34C442.397 253.34 440.537 252.02 440.277 249.7H442.237C442.437 251.06 443.397 251.82 445.097 251.82C446.137 251.82 447.057 251.5 447.057 250.64C447.057 249.7 445.897 249.38 444.237 248.78C442.257 248.06 440.717 247.46 440.717 245.66C440.717 243.82 442.297 242.86 444.577 242.86C447.217 242.86 448.657 244.12 448.957 246.04H446.997C446.837 245 445.957 244.36 444.577 244.36C443.397 244.36 442.637 244.74 442.637 245.5C442.637 246.34 443.417 246.68 445.437 247.36C447.797 248.16 449.057 248.84 449.057 250.48C449.057 252.44 447.257 253.34 445.057 253.34Z" fill="#293036"/>
<path d="M434.881 253.34C432.221 253.34 430.361 252.02 430.101 249.7H432.061C432.261 251.06 433.221 251.82 434.921 251.82C435.961 251.82 436.881 251.5 436.881 250.64C436.881 249.7 435.721 249.38 434.061 248.78C432.081 248.06 430.541 247.46 430.541 245.66C430.541 243.82 432.121 242.86 434.401 242.86C437.041 242.86 438.481 244.12 438.781 246.04H436.821C436.661 245 435.781 244.36 434.401 244.36C433.221 244.36 432.461 244.74 432.461 245.5C432.461 246.34 433.241 246.68 435.261 247.36C437.621 248.16 438.881 248.84 438.881 250.48C438.881 252.44 437.081 253.34 434.881 253.34Z" fill="#293036"/>
<path d="M423.778 253.341C420.878 253.341 418.698 251.501 418.698 248.101C418.698 244.941 420.838 242.881 423.718 242.881C426.678 242.881 428.718 244.861 428.738 247.941H420.578V248.061C420.578 250.241 421.758 251.801 423.838 251.801C425.658 251.801 426.538 250.581 426.758 249.481H428.678C428.338 251.401 426.758 253.341 423.778 253.341ZM420.778 246.581H426.698C426.358 245.301 425.358 244.381 423.758 244.381C422.258 244.381 421.218 245.221 420.778 246.581Z" fill="#293036"/>
<path d="M412.014 253V250.32V245.9V243.22H414.054V245.9C414.374 244.72 415.574 243.18 417.974 243.16V244.9C415.374 244.9 414.094 246.04 414.054 248.16V250.32V253H412.014Z" fill="#293036"/>
<path d="M400.185 253V250.32V240.54V237.86H404.605C408.585 237.86 410.425 239.28 410.425 242C410.425 244.76 408.445 246.38 404.345 246.38H402.405V250.32V253H400.185ZM402.405 244.78H404.325C407.065 244.78 408.245 243.84 408.245 242C408.245 240.24 407.105 239.46 404.585 239.46H402.405V244.78Z" fill="#293036"/>
<path d="M479.378 233V230.32V220.04V217.4H481.418V220.04V230.32V233H479.378Z" fill="#293036"/>
<path d="M470.448 233.28C468.648 233.28 467.388 232.4 467.388 230.64C467.388 228.72 468.888 228.1 471.388 227.36C473.208 226.82 474.168 226.56 474.168 225.56C474.168 224.74 473.488 224.32 472.248 224.32C470.688 224.32 469.648 225.08 469.608 226.46H467.648C467.868 224.34 469.588 222.86 472.368 222.86C474.508 222.86 476.148 223.74 476.148 226.1V230.02C476.148 231.36 476.548 231.76 477.188 231.76C477.368 231.76 477.628 231.72 477.788 231.58V232.8C477.528 232.98 477.048 233.14 476.428 233.14C475.348 233.14 474.368 232.48 474.268 230.84C473.688 232.14 472.448 233.28 470.448 233.28ZM469.368 230.54C469.368 231.5 470.088 231.84 470.848 231.84C472.748 231.84 474.188 230.2 474.188 227.96V227.34C473.888 228.02 473.028 228.28 471.828 228.68C470.128 229.24 469.368 229.58 469.368 230.54Z" fill="#293036"/>
<path d="M456.35 233.001V230.321V225.901V223.221H458.39V225.141C459.03 223.901 460.27 222.881 462.19 222.881C464.11 222.881 465.35 223.961 465.35 226.681V230.321V233.001H463.31V230.321V227.041C463.31 225.261 462.63 224.461 461.25 224.461C459.63 224.461 458.59 225.701 458.39 227.101V230.321V233.001H456.35Z" fill="#293036"/>
<path d="M448.674 233V230.32V225.9V223.22H450.714V225.9C451.034 224.72 452.234 223.18 454.634 223.16V224.9C452.034 224.9 450.754 226.04 450.714 228.16V230.32V233H448.674Z" fill="#293036"/>
<path d="M441.57 233.341C438.67 233.341 436.49 231.501 436.49 228.101C436.49 224.941 438.63 222.881 441.51 222.881C444.47 222.881 446.51 224.861 446.53 227.941H438.37V228.061C438.37 230.241 439.55 231.801 441.63 231.801C443.45 231.801 444.33 230.581 444.55 229.481H446.47C446.13 231.401 444.55 233.341 441.57 233.341ZM438.57 226.581H444.49C444.15 225.301 443.15 224.381 441.55 224.381C440.05 224.381 439.01 225.221 438.57 226.581Z" fill="#293036"/>
<path d="M432.922 233.18C431.182 233.18 429.902 232.32 429.902 229.66V224.66H427.802V223.22H429.902V220.48L431.882 219.04H431.942V223.22H435.102V224.66H431.942V229.62C431.942 231.2 432.662 231.64 433.562 231.64C434.382 231.64 435.022 231.28 435.462 230.68L435.742 232C435.302 232.58 434.342 233.18 432.922 233.18Z" fill="#293036"/>
<path d="M425.128 233.001L423.788 231.221L422.428 229.461L421.188 231.221C420.748 231.841 420.328 232.461 419.928 233.001H417.688C418.168 232.401 418.688 231.721 419.148 231.121L421.428 228.161L419.048 225.081C418.568 224.441 418.088 223.841 417.608 223.221H420.008L421.348 224.981L422.628 226.641L423.808 225.001L425.108 223.221H427.308L425.868 225.081L423.628 227.961L426.088 231.141C426.448 231.601 427.048 232.381 427.548 233.001H425.128Z" fill="#293036"/>
<path d="M407.881 233V230.32V220.54V217.86H416.761V219.48C414.981 219.46 413.601 219.46 412.661 219.46H410.101V224.34H411.581C412.781 224.34 414.001 224.34 415.761 224.3V225.92C414.001 225.88 412.781 225.88 411.581 225.88H410.101V231.4H412.741C413.701 231.4 415.221 231.4 416.901 231.38V233H407.881Z" fill="#293036"/>
<path d="M97.1363 257.861C96.5363 257.861 96.0363 257.741 95.7563 257.561V256.041C95.9963 256.181 96.4963 256.281 97.0163 256.281C98.2963 256.281 99.0963 255.521 100.116 253.001H99.7163L96.7963 245.401L95.9563 243.221H98.2363L98.9563 245.341L100.816 250.721L102.636 245.341C102.876 244.641 103.156 243.801 103.336 243.221H105.596C105.316 243.901 105.036 244.621 104.756 245.341L101.836 252.921C100.376 256.721 98.9763 257.861 97.1363 257.861Z" fill="#293036"/>
<path d="M92.7499 253.18C91.0099 253.18 89.7299 252.32 89.7299 249.66V244.66H87.6299V243.22H89.7299V240.48L91.7099 239.04H91.7699V243.22H94.9299V244.66H91.7699V249.62C91.7699 251.2 92.4899 251.64 93.3899 251.64C94.2099 251.64 94.8498 251.28 95.2898 250.68L95.5699 252C95.1299 252.58 94.1699 253.18 92.7499 253.18Z" fill="#293036"/>
<path d="M84.108 253V250.32V245.9V243.22H86.148V250.32V253H84.108ZM84.028 240.78V238.5H86.228V240.78H84.028Z" fill="#293036"/>
<path d="M79.1861 253V250.32V240.04V237.4H81.2261V240.04V250.32V253H79.1861Z" fill="#293036"/>
<path d="M74.2642 253V250.32V245.9V243.22H76.3042V250.32V253H74.2642ZM74.1842 240.78V238.5H76.3842V240.78H74.1842Z" fill="#293036"/>
<path d="M69.8202 253.18C68.0802 253.18 66.8002 252.32 66.8002 249.66V244.66H64.7002V243.22H66.8002V240.48L68.7802 239.04H68.8402V243.22H72.0002V244.66H68.8402V249.62C68.8402 251.2 69.5602 251.64 70.4602 251.64C71.2802 251.64 71.9202 251.28 72.3602 250.68L72.6402 252C72.2002 252.58 71.2402 253.18 69.8202 253.18Z" fill="#293036"/>
<path d="M57.6394 253.28C55.8394 253.28 54.5794 252.4 54.5794 250.64C54.5794 248.72 56.0794 248.1 58.5794 247.36C60.3994 246.82 61.3594 246.56 61.3594 245.56C61.3594 244.74 60.6794 244.32 59.4394 244.32C57.8794 244.32 56.8394 245.08 56.7994 246.46H54.8394C55.0594 244.34 56.7794 242.86 59.5594 242.86C61.6994 242.86 63.3394 243.74 63.3394 246.1V250.02C63.3394 251.36 63.7394 251.76 64.3794 251.76C64.5594 251.76 64.8194 251.72 64.9794 251.58V252.8C64.7194 252.98 64.2394 253.14 63.6194 253.14C62.5394 253.14 61.5594 252.48 61.4594 250.84C60.8794 252.14 59.6394 253.28 57.6394 253.28ZM56.5594 250.54C56.5594 251.5 57.2794 251.84 58.0394 251.84C59.9394 251.84 61.3794 250.2 61.3794 247.96V247.34C61.0794 248.02 60.2194 248.28 59.0194 248.68C57.3194 249.24 56.5594 249.58 56.5594 250.54Z" fill="#293036"/>
<path d="M50.5728 253V250.32V240.04V237.4H52.6128V240.04V250.32V253H50.5728Z" fill="#293036"/>
<path d="M43.1792 253.341C39.8992 253.341 37.9592 251.181 37.9592 248.101C37.9592 245.021 39.8992 242.881 43.1792 242.881C46.4592 242.881 48.3792 245.021 48.3792 248.101C48.3792 251.181 46.4592 253.341 43.1792 253.341ZM39.9392 248.101C39.9392 250.501 41.2592 251.781 43.1792 251.781C45.0992 251.781 46.3992 250.501 46.3992 248.101C46.3992 245.721 45.0992 244.441 43.1792 244.441C41.2592 244.441 39.9392 245.721 39.9392 248.101Z" fill="#293036"/>
<path d="M25.9661 239.5C25.7861 239.02 25.5461 238.38 25.3861 237.86H27.7261C27.8861 238.4 28.0661 238.96 28.2261 239.48L31.9061 250.64L35.4661 239.48C35.6261 238.96 35.8061 238.38 35.9861 237.86H38.2661C38.0861 238.4 37.8861 239.02 37.7261 239.48L33.3261 252.12C33.2061 252.4 33.1061 252.72 33.0461 253H30.7061L25.9661 239.5Z" fill="#293036"/>
<path d="M95.8358 233.18C94.0958 233.18 92.8158 232.32 92.8158 229.66V224.66H90.7158V223.22H92.8158V220.48L94.7958 219.04H94.8558V223.22H98.0158V224.66H94.8558V229.62C94.8558 231.2 95.5758 231.64 96.4758 231.64C97.2958 231.64 97.9358 231.28 98.3758 230.68L98.6558 232C98.2158 232.58 97.2558 233.18 95.8358 233.18Z" fill="#293036"/>
<path d="M85.1486 233.341C82.2486 233.341 80.0686 231.501 80.0686 228.101C80.0686 224.941 82.2086 222.881 85.0886 222.881C88.0486 222.881 90.0886 224.861 90.1086 227.941H81.9486V228.061C81.9486 230.241 83.1286 231.801 85.2086 231.801C87.0286 231.801 87.9086 230.581 88.1286 229.481H90.0486C89.7086 231.401 88.1286 233.341 85.1486 233.341ZM82.1486 226.581H88.0686C87.7286 225.301 86.7286 224.381 85.1286 224.381C83.6286 224.381 82.5886 225.221 82.1486 226.581Z" fill="#293036"/>
<path d="M77.6411 233L73.1011 228.06V230.32V233H71.0611V230.32V220.04V217.46V217.4H73.1011V220.04V226.88L75.9811 224.44C76.3811 224.1 76.9411 223.58 77.3411 223.22H79.5011V223.36C79.0411 223.76 78.5811 224.14 78.1011 224.54L74.7411 227.34L80.0211 232.88V233H77.6411Z" fill="#293036"/>
<path d="M63.5606 233V230.32V225.9V223.22H65.6006V225.9C65.9206 224.72 67.1206 223.18 69.5206 223.16V224.9C66.9206 224.9 65.6406 226.04 65.6006 228.16V230.32V233H63.5606Z" fill="#293036"/>
<path d="M54.6511 233.28C52.8511 233.28 51.5911 232.4 51.5911 230.64C51.5911 228.72 53.0911 228.1 55.5911 227.36C57.4111 226.82 58.3711 226.56 58.3711 225.56C58.3711 224.74 57.6911 224.32 56.4511 224.32C54.8911 224.32 53.8511 225.08 53.8111 226.46H51.8511C52.0711 224.34 53.7911 222.86 56.5711 222.86C58.7111 222.86 60.3511 223.74 60.3511 226.1V230.02C60.3511 231.36 60.7511 231.76 61.3911 231.76C61.5711 231.76 61.8311 231.72 61.9911 231.58V232.8C61.7311 232.98 61.2511 233.14 60.6311 233.14C59.5511 233.14 58.5711 232.48 58.4711 230.84C57.8911 232.14 56.6511 233.28 54.6511 233.28ZM53.5711 230.54C53.5711 231.5 54.2911 231.84 55.0511 231.84C56.9511 231.84 58.3911 230.2 58.3911 227.96V227.34C58.0911 228.02 57.2311 228.28 56.0311 228.68C54.3311 229.24 53.5711 229.58 53.5711 230.54Z" fill="#293036"/>
<path d="M41.1802 233.18L35.9802 220.74V230.32V233H33.9002V230.32V220.54V217.86H36.7202L41.6002 229.74L46.4402 217.86H49.2602V220.54V230.32V233H47.0802V230.32V220.8L41.9402 233.18H41.1802Z" fill="#293036"/>
<defs>
<filter id="filter0_f_3005_10497" x="60.5187" y="36.5186" width="399.308" height="399.309" filterUnits="userSpaceOnUse" color-interpolation-filters="sRGB">
<feFlood flood-opacity="0" result="BackgroundImageFix"/>
<feBlend mode="normal" in="SourceGraphic" in2="BackgroundImageFix" result="shape"/>
<feGaussianBlur stdDeviation="40" result="effect1_foregroundBlur_3005_10497"/>
</filter>
</defs>
</svg>
