<svg width="48" height="48" viewBox="0 0 48 48" fill="none" xmlns="http://www.w3.org/2000/svg">
<mask id="mask0_3548_59532" style="mask-type:alpha" maskUnits="userSpaceOnUse" x="0" y="0" width="48" height="48">
<rect width="48" height="48" fill="#D9D9D9"/>
</mask>
<g mask="url(#mask0_3548_59532)">
<path d="M11.7016 45.9016C10.1516 45.9016 8.83073 45.3557 7.73906 44.2641C6.6474 43.1724 6.10156 41.8516 6.10156 40.3016C6.10156 38.7516 6.6474 37.4307 7.73906 36.3391C8.83073 35.2474 10.1497 34.7016 11.6961 34.7016C12.1664 34.7016 12.5599 34.7391 12.8766 34.8141C13.1932 34.8891 13.5432 35.0016 13.9266 35.1516L18.4266 29.5266C17.8432 28.7766 17.4016 27.9516 17.1016 27.0516C16.8016 26.1516 16.7182 25.2099 16.8516 24.2266L10.3766 22.0516C9.87656 22.8516 9.2349 23.4766 8.45156 23.9266C7.66823 24.3766 6.7534 24.6016 5.70706 24.6016C4.1534 24.6016 2.83073 24.0557 1.73906 22.9641C0.647396 21.8724 0.101562 20.5516 0.101562 19.0016C0.101562 17.4516 0.647396 16.1307 1.73906 15.0391C2.83073 13.9474 4.15156 13.4016 5.70156 13.4016C7.25156 13.4016 8.5724 13.9474 9.66406 15.0391C10.7557 16.1307 11.3016 17.4516 11.3016 19.0016V19.1266L17.8266 21.3766C18.3599 20.4099 19.0307 19.6557 19.8391 19.1141C20.6474 18.5724 21.5266 18.1849 22.4766 17.9516V11.0983C21.1599 10.7171 20.1516 10.0016 19.4516 8.95156C18.7516 7.90156 18.4016 6.81823 18.4016 5.70156C18.4016 4.15156 18.9474 2.83073 20.0391 1.73906C21.1307 0.647396 22.4516 0.101562 24.0016 0.101562C25.5516 0.101562 26.8724 0.647396 27.9641 1.73906C29.0557 2.83073 29.6016 4.15156 29.6016 5.70156C29.6016 6.81823 29.2432 7.90156 28.5266 8.95156C27.8099 10.0016 26.8099 10.7171 25.5266 11.0983V17.9516C26.4766 18.1849 27.3599 18.5724 28.1766 19.1141C28.9932 19.6557 29.6849 20.4099 30.2516 21.3766L36.7016 19.1166V19.0016C36.7016 17.4516 37.2474 16.1307 38.3391 15.0391C39.4307 13.9474 40.7516 13.4016 42.3016 13.4016C43.8516 13.4016 45.1724 13.9474 46.2641 15.0391C47.3557 16.1307 47.9016 17.4516 47.9016 19.0016C47.9016 20.5516 47.3557 21.8724 46.2641 22.9641C45.1724 24.0557 43.8497 24.6016 42.2961 24.6016C41.2497 24.6016 40.3266 24.3766 39.5266 23.9266C38.7266 23.4766 38.0932 22.8516 37.6266 22.0516L31.1516 24.2266C31.2849 25.2266 31.2099 26.1807 30.9266 27.0891C30.6432 27.9974 30.1932 28.8099 29.5766 29.5266L34.1016 35.1766C34.4682 35.0099 34.8099 34.8891 35.1266 34.8141C35.4432 34.7391 35.8294 34.7016 36.2852 34.7016C37.8628 34.7016 39.1932 35.2474 40.2766 36.3391C41.3599 37.4307 41.9016 38.7516 41.9016 40.3016C41.9016 41.8516 41.3557 43.1724 40.2641 44.2641C39.1724 45.3557 37.8516 45.9016 36.3016 45.9016C34.7516 45.9016 33.4307 45.3578 32.3391 44.2703C31.2474 43.1828 30.7016 41.8575 30.7016 40.2944C30.7016 39.6325 30.7891 39.0516 30.9641 38.5516C31.1391 38.0516 31.3849 37.5516 31.7016 37.0516L27.2016 31.4016C26.1973 31.9182 25.1213 32.1807 23.9734 32.1891C22.8255 32.1974 21.7599 31.9349 20.7766 31.4016L16.3016 37.1016C16.6182 37.6016 16.8641 38.0932 17.0391 38.5766C17.2141 39.0599 17.3016 39.6325 17.3016 40.2944C17.3016 41.8575 16.7557 43.1828 15.6641 44.2703C14.5724 45.3578 13.2516 45.9016 11.7016 45.9016ZM5.70331 21.7266C6.46175 21.7266 7.10523 21.4617 7.63376 20.932C8.1623 20.4023 8.42656 19.7582 8.42656 18.9998C8.42656 18.2414 8.16171 17.5979 7.63201 17.0694C7.10228 16.5408 6.45821 16.2766 5.69981 16.2766C4.94141 16.2766 4.29793 16.5414 3.76936 17.0711C3.24083 17.6008 2.97656 18.2449 2.97656 19.0033C2.97656 19.7617 3.24141 20.4052 3.77111 20.9338C4.30085 21.4623 4.94491 21.7266 5.70331 21.7266ZM11.7033 43.0266C12.4617 43.0266 13.1052 42.7617 13.6338 42.232C14.1623 41.7023 14.4266 41.0582 14.4266 40.2998C14.4266 39.5414 14.1617 38.8979 13.632 38.3694C13.1023 37.8408 12.4582 37.5766 11.6998 37.5766C10.9414 37.5766 10.2979 37.8414 9.76936 38.3711C9.24083 38.9008 8.97656 39.5449 8.97656 40.3033C8.97656 41.0617 9.24141 41.7052 9.77111 42.2338C10.3008 42.7623 10.9449 43.0266 11.7033 43.0266ZM24.0033 8.42656C24.7617 8.42656 25.4052 8.16171 25.9338 7.63201C26.4623 7.10228 26.7266 6.45821 26.7266 5.69981C26.7266 4.94141 26.4617 4.29793 25.932 3.76936C25.4023 3.24083 24.7582 2.97656 23.9998 2.97656C23.2414 2.97656 22.5979 3.24141 22.0694 3.77111C21.5408 4.30085 21.2766 4.94491 21.2766 5.70331C21.2766 6.46171 21.5414 7.10519 22.0711 7.63376C22.6008 8.16229 23.2449 8.42656 24.0033 8.42656ZM24.0266 29.3016C25.2266 29.3016 26.2432 28.8807 27.0766 28.0391C27.9099 27.1974 28.3266 26.1766 28.3266 24.9766C28.3266 23.7766 27.9082 22.7599 27.0716 21.9266C26.2349 21.0932 25.2116 20.6766 24.0016 20.6766C22.8182 20.6766 21.8057 21.0949 20.9641 21.9316C20.1224 22.7682 19.7016 23.7916 19.7016 25.0016C19.7016 26.1849 20.1224 27.1974 20.9641 28.0391C21.8057 28.8807 22.8266 29.3016 24.0266 29.3016ZM36.3033 43.0266C37.0617 43.0266 37.7052 42.7617 38.2338 42.232C38.7623 41.7023 39.0266 41.0582 39.0266 40.2998C39.0266 39.5414 38.7617 38.8979 38.232 38.3694C37.7023 37.8408 37.0582 37.5766 36.2998 37.5766C35.5414 37.5766 34.8979 37.8414 34.3694 38.3711C33.8408 38.9008 33.5766 39.5449 33.5766 40.3033C33.5766 41.0617 33.8414 41.7052 34.3711 42.2338C34.9008 42.7623 35.5449 43.0266 36.3033 43.0266ZM42.3033 21.7266C43.0617 21.7266 43.7052 21.4617 44.2338 20.932C44.7623 20.4023 45.0266 19.7582 45.0266 18.9998C45.0266 18.2414 44.7617 17.5979 44.232 17.0694C43.7023 16.5408 43.0582 16.2766 42.2998 16.2766C41.5414 16.2766 40.8979 16.5414 40.3694 17.0711C39.8408 17.6008 39.5766 18.2449 39.5766 19.0033C39.5766 19.7617 39.8414 20.4052 40.3711 20.9338C40.9008 21.4623 41.5449 21.7266 42.3033 21.7266Z" fill="#046149"/>
</g>
</svg>
