<svg width="48" height="48" viewBox="0 0 48 48" fill="none" xmlns="http://www.w3.org/2000/svg">
<mask id="mask0_3548_59539" style="mask-type:alpha" maskUnits="userSpaceOnUse" x="0" y="0" width="48" height="48">
<rect width="48" height="48" fill="#D9D9D9"/>
</mask>
<g mask="url(#mask0_3548_59539)">
<path d="M23.998 44.7C21.4314 42.4333 18.6279 40.6921 15.5876 39.4763C12.5473 38.2606 9.43415 37.6528 6.24805 37.6528V16.525C9.29805 16.525 12.3522 17.2625 15.4105 18.7375C18.4689 20.2125 21.3314 22.1833 23.998 24.65C26.648 22.1833 29.5022 20.2125 32.5605 18.7375C35.6189 17.2625 38.6814 16.525 41.748 16.525V37.65C38.5777 37.65 35.4685 38.2583 32.4203 39.475C29.3721 40.6917 26.5647 42.4333 23.998 44.7ZM23.998 41.025C26.3301 39.3431 28.7422 37.9977 31.2345 36.9886C33.7269 35.9795 36.273 35.3427 38.873 35.0782V19.675C36.6526 20.0489 34.3017 20.9507 31.8202 22.3805C29.3388 23.8102 26.7314 25.8083 23.998 28.375C20.998 25.675 18.323 23.6292 15.973 22.2375C13.623 20.8458 11.3397 19.9917 9.12305 19.675V35.0782C11.723 35.3427 14.2692 35.9795 16.7615 36.9886C19.2538 37.9977 21.666 39.3431 23.998 41.025ZM24.148 17.4C22.0147 17.4 20.2189 16.6708 18.7605 15.2125C17.3022 13.7542 16.573 11.9583 16.573 9.825C16.573 7.69167 17.3022 5.89583 18.7605 4.4375C20.2189 2.97917 22.0147 2.25 24.148 2.25C26.2814 2.25 28.0772 2.97917 29.5355 4.4375C30.9939 5.89583 31.723 7.69167 31.723 9.825C31.723 11.9583 30.9939 13.7542 29.5355 15.2125C28.0772 16.6708 26.2814 17.4 24.148 17.4ZM24.156 14.525C25.4507 14.525 26.5564 14.064 27.473 13.1421C28.3897 12.2201 28.848 11.1117 28.848 9.81705C28.848 8.52235 28.3871 7.41667 27.4651 6.5C26.5431 5.58333 25.4348 5.125 24.1401 5.125C22.8454 5.125 21.7397 5.58598 20.823 6.50795C19.9064 7.42995 19.448 8.53828 19.448 9.83295C19.448 11.1277 19.909 12.2333 20.831 13.15C21.753 14.0667 22.8613 14.525 24.156 14.525Z" fill="#046149"/>
</g>
</svg>
