<svg width="48" height="48" viewBox="0 0 48 48" fill="none" xmlns="http://www.w3.org/2000/svg">
<mask id="mask0_3548_59553" style="mask-type:alpha" maskUnits="userSpaceOnUse" x="0" y="0" width="48" height="48">
<rect width="48" height="48" fill="#D9D9D9"/>
</mask>
<g mask="url(#mask0_3548_59553)">
<path d="M17.4034 44.7234L13.6488 38.2984L6.17383 36.7762L7.02383 29.5234L2.29883 23.9984L7.02383 18.523L6.17383 11.2734L13.6556 9.75344L17.3988 3.27344L23.9965 6.35744L30.5942 3.27344L34.3988 9.74844L41.8238 11.2706L40.9738 18.5234L45.6988 23.9984L40.9738 29.5238L41.8238 36.7734L34.392 38.2934L30.5988 44.7234L24.0011 41.6394L17.4034 44.7234ZM18.6988 40.9234L23.9988 38.6984L29.4488 40.9234L32.7988 35.9734L38.5962 34.4646L37.9919 28.5768L42.0238 23.9984L37.9919 19.3194L38.5962 13.4315L32.7988 12.0234L29.3488 7.07344L23.9988 9.29844L18.5488 7.07344L15.1988 12.0234L9.40143 13.4315L10.0057 19.3194L5.97383 23.9984L10.0057 28.5768L9.40143 34.5653L15.1988 35.9734L18.6988 40.9234ZM21.8738 30.5234L33.0738 19.4234L30.8988 17.4734L21.8824 26.3984L17.1488 21.4484L14.9238 23.6234L21.8738 30.5234Z" fill="#046149"/>
</g>
</svg>
