<svg width="48" height="48" viewBox="0 0 48 48" fill="none" xmlns="http://www.w3.org/2000/svg">
<mask id="mask0_3548_59546" style="mask-type:alpha" maskUnits="userSpaceOnUse" x="0" y="0" width="48" height="48">
<rect width="48" height="48" fill="#D9D9D9"/>
</mask>
<g mask="url(#mask0_3548_59546)">
<path d="M6.62073 26.4234C5.95613 26.4234 5.38216 26.1807 4.89883 25.6953C4.41549 25.2099 4.17383 24.6349 4.17383 23.9703C4.17383 23.3057 4.41653 22.7318 4.90193 22.2484C5.38733 21.7651 5.96233 21.5234 6.62693 21.5234C7.29153 21.5234 7.86549 21.7661 8.34883 22.2515C8.83216 22.7369 9.07383 23.3119 9.07383 23.9765C9.07383 24.6411 8.83113 25.2151 8.34573 25.6984C7.86033 26.1818 7.28533 26.4234 6.62073 26.4234ZM10.2488 39.7484L8.19883 37.6984L16.7238 29.1734L18.7738 31.2234L10.2488 39.7484ZM16.7238 18.6984L8.24883 10.2234L10.2988 8.17344L18.7738 16.6484L16.7238 18.6984ZM24.0207 43.8234C23.3561 43.8234 22.7822 43.5807 22.2988 43.0953C21.8155 42.6099 21.5738 42.0349 21.5738 41.3703C21.5738 40.7057 21.8165 40.1318 22.3019 39.6484C22.7873 39.1651 23.3623 38.9234 24.0269 38.9234C24.6915 38.9234 25.2655 39.1661 25.7488 39.6515C26.2322 40.1369 26.4738 40.7119 26.4738 41.3765C26.4738 42.0411 26.2311 42.6151 25.7457 43.0984C25.2603 43.5818 24.6853 43.8234 24.0207 43.8234ZM24.0207 9.04844C23.3561 9.04844 22.7822 8.80574 22.2988 8.32034C21.8155 7.83494 21.5738 7.25994 21.5738 6.59534C21.5738 5.93074 21.8165 5.35677 22.3019 4.87344C22.7873 4.3901 23.3623 4.14844 24.0269 4.14844C24.6915 4.14844 25.2655 4.39114 25.7488 4.87654C26.2322 5.36194 26.4738 5.93694 26.4738 6.60154C26.4738 7.26614 26.2311 7.8401 25.7457 8.32344C25.2603 8.80677 24.6853 9.04844 24.0207 9.04844ZM31.2988 18.6984L29.2488 16.6484L37.7238 8.17344L39.7738 10.2234L31.2988 18.6984ZM37.7238 39.6984L29.2488 31.2234L31.2988 29.1734L39.7738 37.6484L37.7238 39.6984ZM41.3957 26.4234C40.7311 26.4234 40.1572 26.1807 39.6738 25.6953C39.1905 25.2099 38.9488 24.6349 38.9488 23.9703C38.9488 23.3057 39.1915 22.7318 39.6769 22.2484C40.1623 21.7651 40.7373 21.5234 41.4019 21.5234C42.0665 21.5234 42.6405 21.7661 43.1238 22.2515C43.6072 22.7369 43.8488 23.3119 43.8488 23.9765C43.8488 24.6411 43.6061 25.2151 43.1207 25.6984C42.6353 26.1818 42.0603 26.4234 41.3957 26.4234Z" fill="#046149"/>
</g>
</svg>
