<?xml version="1.0" encoding="UTF-8" standalone="no"?>
<svg
   width="121"
   height="133"
   viewBox="0 0 121 133"
   fill="none"
   version="1.1"
   id="svg4"
   xmlns="http://www.w3.org/2000/svg"
   xmlnsSvg="http://www.w3.org/2000/svg">
  <g
     clip-path="url(#clip0_14075_117686)"
     id="g1">
    <circle
       cx="61"
       cy="73"
       r="59"
       fill="white"
       stroke="#613ED2"
       stroke-width="2"
       id="circle1" />
    <path
       d="M33.3599 53.6484C33.0902 53.6475 32.8308 53.7542 32.6401 53.9448C32.4495 54.1359 32.3429 54.3948 32.3438 54.6646V89.6282C32.3442 89.897 32.4517 90.1546 32.6424 90.3439C32.8331 90.5332 33.091 90.6394 33.3599 90.6385H53.2631L50.5156 97.6081H43.8795C43.6111 97.6067 43.3536 97.7124 43.1629 97.9018C42.9723 98.0906 42.8647 98.3477 42.8638 98.6161C42.8625 98.8858 42.9696 99.1451 43.1602 99.3358C43.3509 99.5265 43.6098 99.6331 43.8795 99.6322H79.5152C79.784 99.6317 80.0415 99.5242 80.2308 99.3335C80.4206 99.1429 80.5263 98.8849 80.5254 98.6161C80.5232 98.0594 80.0718 97.609 79.5152 97.6081H72.8717L70.1261 90.6385H90.0351C90.5918 90.6362 91.0418 90.1849 91.0431 89.6283V54.6646C91.0454 54.1057 90.594 53.6507 90.0351 53.6485L33.3599 53.6484ZM34.3701 55.6725H89.0184V88.6121H34.3701V55.6725ZM46.0798 62.755C45.8358 62.7713 45.6063 62.8752 45.4333 63.0473C45.2431 63.2375 45.136 63.4951 45.136 63.7639C45.136 64.0327 45.2431 64.2907 45.4333 64.4805L47.8252 66.89L45.4333 69.2994V69.2999C45.2426 69.4896 45.1351 69.7481 45.1351 70.0174C45.1351 70.2866 45.2426 70.5446 45.4333 70.7348C45.6244 70.9246 45.8833 71.0308 46.1526 71.0294C46.4218 71.0276 46.6794 70.9192 46.8682 70.7271L49.2519 68.3276L51.6339 70.7271H51.6343C52.0269 71.1216 52.6644 71.1252 53.0611 70.7348C53.2532 70.546 53.362 70.2884 53.3638 70.0187C53.3652 69.7494 53.259 69.4906 53.0693 69.2999L50.6774 66.8904L53.0693 64.4809V64.4805C53.2586 64.2898 53.3643 64.0314 53.3625 63.7626C53.3611 63.4937 53.2527 63.2362 53.0611 63.0473C52.6644 62.657 52.0269 62.6606 51.6343 63.055L49.2524 65.4546L46.8687 63.055H46.8682C46.6617 62.8449 46.3739 62.7356 46.0798 62.755L46.0798 62.755ZM70.9739 62.755C70.7299 62.7713 70.5004 62.8752 70.3273 63.0473C70.1358 63.2362 70.0273 63.4937 70.026 63.7626C70.0246 64.0314 70.1299 64.2898 70.3192 64.4805L72.7111 66.89L70.3192 69.2994V69.2999C70.1295 69.4906 70.0233 69.7494 70.0251 70.0187C70.0264 70.2884 70.1353 70.546 70.3273 70.7348C70.518 70.9241 70.7764 71.0299 71.0453 71.0281C71.3145 71.0267 71.5716 70.9183 71.7605 70.7271L74.1401 68.3295L76.5202 70.7271C76.7091 70.9183 76.9662 71.0267 77.235 71.0281C77.5038 71.0299 77.7622 70.9241 77.9534 70.7348C78.1454 70.546 78.2543 70.2884 78.2556 70.0187C78.257 69.7494 78.1512 69.4906 77.9615 69.2999L75.5696 66.8904L77.9615 64.4809V64.4805C78.1508 64.2898 78.2561 64.0314 78.2547 63.7626C78.2529 63.4937 78.1445 63.2362 77.9534 63.0473C77.7622 62.858 77.5038 62.7528 77.235 62.7541C76.9662 62.7555 76.7091 62.8639 76.5202 63.055L74.1401 65.451L71.7605 63.055C71.5545 62.8454 71.2671 62.736 70.9739 62.755V62.755ZM61.6974 74.2612C58.3965 74.2612 55.7142 76.9688 55.7142 80.282V80.521C55.7128 80.7893 55.8185 81.0473 56.0074 81.238C56.1967 81.4282 56.4538 81.5362 56.7221 81.5371C56.9919 81.538 57.2508 81.4314 57.4419 81.2407C57.6325 81.05 57.7392 80.7907 57.7383 80.521V80.282C57.7383 78.0469 59.4912 76.2852 61.6974 76.2852C63.9035 76.2852 65.6565 78.0468 65.6565 80.282V80.521C65.6556 80.7898 65.7613 81.0478 65.9507 81.2384C66.1404 81.4291 66.398 81.5366 66.6663 81.5371C66.9351 81.5357 67.1918 81.4282 67.3811 81.238C67.5699 81.0473 67.6757 80.7893 67.6748 80.521V80.282C67.6748 76.9685 64.9982 74.2611 61.6973 74.2611L61.6974 74.2612ZM55.4452 90.6378H67.9518L70.6934 97.6074H52.6951L55.4452 90.6378Z"
       fill="#613ED2"
       id="path1" />
  </g>
  <path
     d="M20 39C30.4934 39 39 30.4934 39 20C39 9.50659 30.4934 1 20 1C9.50659 1 1 9.50659 1 20C1 30.4934 9.50659 39 20 39Z"
     fill="white"
     stroke="#613ED2"
     stroke-width="2"
     stroke-linecap="round"
     stroke-linejoin="round"
     id="path2" />
  <path
     d="M20 12.3984V19.9984"
     stroke="#613ED2"
     stroke-width="2"
     stroke-linecap="round"
     stroke-linejoin="round"
     id="path3" />
  <path
     d="M20 27.6016H20.0201"
     stroke="#613ED2"
     stroke-width="2"
     stroke-linecap="round"
     stroke-linejoin="round"
     id="path4" />
  <defs
     id="defs4">
    <clipPath
       id="clip0_14075_117686">
      <rect
         x="1"
         y="13"
         width="120"
         height="120"
         rx="60"
         fill="white"
         id="rect4" />
    </clipPath>
  </defs>
  <path
     style="fill:#000000;stroke-width:0.139884"
     d="M 57.212717,132.82064 C 46.461558,132.05364 36.388021,128.6203 27.582719,122.72192 21.107432,118.38434 15.269608,112.47844 10.945012,105.89021 -0.10753909,89.052383 -1.9928424,67.977463 5.8978843,49.470739 c 1.3452854,-3.1552 3.6540486,-7.395755 5.4313037,-9.975793 0.429403,-0.623363 0.762763,-1.145905 0.740801,-1.161205 -0.02196,-0.0153 -0.606463,-0.328886 -1.298891,-0.69686 C 5.4725179,34.821075 1.7374474,29.871386 0.47316504,23.990134 0.02333375,21.897587 0.01911502,18.127954 0.46429053,16.06035 2.1717677,8.1300262 8.1189998,2.1713728 16.022824,0.47193788 c 2.086214,-0.44856564 5.85902,-0.45220683 7.923763,-0.007647 2.803673,0.60365862 5.365029,1.72448872 7.646284,3.34595612 1.45668,1.0353778 3.572576,3.153004 4.613524,4.6172982 1.542504,2.1698288 2.893159,5.2793648 3.33521,7.6784628 0.134474,0.729816 0.207582,0.883189 0.385576,0.808901 1.024889,-0.427746 4.66174,-1.561092 6.451047,-2.010329 5.154624,-1.29416 8.872246,-1.743845 14.471483,-1.750477 5.69706,-0.0067 9.304782,0.412239 14.430285,1.675877 8.551542,2.10829 16.315316,5.939559 23.268559,11.482579 2.435225,1.941323 7.208065,6.713655 9.133235,9.132263 10.6824,13.420404 15.16246,30.335533 12.47428,47.098545 -2.62355,16.359984 -12.13976,31.143543 -25.943931,40.304233 -8.376518,5.55881 -17.501759,8.79766 -27.69711,9.83062 -2.035655,0.20625 -7.281768,0.28656 -9.302312,0.14242 z m 11.190751,-2.21989 c 13.031951,-1.78879 24.488799,-7.41645 33.641782,-16.52503 9.42501,-9.37927 15.25375,-21.666471 16.7327,-35.273127 0.28207,-2.595148 0.31871,-8.492703 0.0681,-10.958662 -0.81677,-8.036317 -2.8705,-15.000552 -6.43555,-21.823106 -8.5116,-16.28885 -24.403076,-27.630491 -42.608188,-30.409156 -3.19936,-0.488322 -5.090839,-0.621888 -8.812717,-0.622309 -6.95625,-7.86e-4 -12.874075,1.000819 -19.408959,3.285011 l -1.643642,0.574517 -0.0011,1.066885 C 39.924718,30.26067 32.08637,38.85709 21.779131,39.82848 c -2.0943,0.197374 -4.59637,0.0067 -6.568059,-0.500403 l -1.295286,-0.333169 -0.739831,1.065551 C 7.05264,48.87964 3.4648094,59.607086 3.0223029,70.419404 2.6042291,80.634727 4.6168182,90.050265 9.1545647,99.108092 c 2.8880313,5.764818 6.0641803,10.132468 10.8395513,14.905898 3.79966,3.79812 6.89247,6.23594 11.060219,8.71791 7.995374,4.76139 15.686945,7.22053 25.598844,8.18443 0.307746,0.0299 2.605347,0.036 5.105781,0.0134 3.644915,-0.0329 4.962239,-0.0981 6.644508,-0.329 z M 23.21534,37.755492 c 3.526571,-0.581511 6.848924,-2.327818 9.53063,-5.009522 3.534646,-3.534648 5.287907,-7.819858 5.270723,-12.882386 -0.0167,-4.921116 -1.80327,-9.157709 -5.338931,-12.6605055 C 29.125518,3.6838512 24.958964,1.9774682 19.933526,1.9837665 16.225873,1.9884133 12.982945,2.9749808 9.8108383,5.0633032 8.4667978,5.948138 5.8919357,8.5454278 4.9843891,9.9317919 2.9288319,13.071852 1.9713221,16.305766 1.9816181,20.07341 c 0.013446,4.920286 1.7889151,9.182125 5.2793488,12.67256 4.2693711,4.269371 9.8384331,6.018003 15.9543731,5.009522 z"
     id="path5" />
  <path
     style="fill:#000000;stroke-width:0.139884"
     d="m 19.373988,20.632948 c -0.26727,-0.26727 -0.279768,-0.466281 -0.279768,-4.45462 0,-3.973755 0.01325,-4.186845 0.275133,-4.423844 0.382119,-0.345813 0.982489,-0.316142 1.290113,0.06376 0.231572,0.285979 0.253251,0.664666 0.253251,4.423844 0,3.92458 -0.01269,4.123785 -0.279769,4.390861 -0.153873,0.153873 -0.437139,0.279769 -0.62948,0.279769 -0.192341,0 -0.475607,-0.125896 -0.62948,-0.279769 z"
     id="path6" />
  <path
     style="fill:#000000;stroke-width:0.139884"
     d="m 19.315241,28.199076 c -0.332448,-0.367352 -0.231876,-0.973789 0.216793,-1.307229 0.594194,-0.441591 1.380683,-0.02938 1.380683,0.723632 0,0.768635 -1.074706,1.161251 -1.597476,0.583597 z"
     id="path7" />
  <path
     style="fill:#000000;stroke-width:0.139884"
     d="m 43.228472,99.252613 c -0.317833,-0.351203 -0.318771,-0.915993 -0.0021,-1.265909 0.230635,-0.254849 0.480986,-0.275268 3.802341,-0.310104 l 3.555449,-0.03729 1.380204,-3.497109 1.380203,-3.49711 -10.213296,-0.06994 -10.213296,-0.06994 -0.267369,-0.330236 c -0.260071,-0.321222 -0.26737,-0.810755 -0.26737,-17.931067 0,-10.493019 0.05246,-17.738801 0.129895,-17.942482 0.07529,-0.19803 0.31928,-0.407671 0.580412,-0.498702 0.636472,-0.221875 56.547595,-0.224273 57.183911,-0.0025 0.243914,0.08503 0.505099,0.269734 0.580411,0.410457 0.08725,0.163025 0.136932,6.674023 0.136932,17.944933 0,17.207195 -0.0073,17.698071 -0.26737,18.019313 l -0.267369,0.330236 -10.206953,0.06994 -10.206952,0.06994 1.392218,3.532081 1.392216,3.532081 h 3.546519 3.546518 l 0.289922,0.368575 c 0.362713,0.461115 0.362713,0.620231 0,1.081346 l -0.289922,0.368576 h -18.22308 c -17.943093,0 -18.226906,-0.0042 -18.472073,-0.275133 z m 27.483089,-1.676544 c 0,-0.07325 -0.607623,-1.678423 -1.350274,-3.567052 l -1.350274,-3.433872 h -6.313796 -6.313796 l -1.361913,3.462138 c -0.749052,1.904177 -1.360365,3.50935 -1.358474,3.567052 0.0052,0.159098 18.048527,0.13084 18.048527,-0.02827 z M 89.036416,72.110405 V 55.604046 H 61.689017 34.341618 v 16.506359 16.506358 h 27.347399 27.347399 z"
     id="path8" />
  <path
     style="fill:#000000;stroke-width:0.139884"
     d="m 45.621177,70.701408 c -0.651085,-0.512143 -0.506239,-0.88286 0.952504,-2.437824 l 1.312284,-1.398844 -1.316682,-1.344278 c -1.068041,-1.090427 -1.316682,-1.423132 -1.316682,-1.761846 0,-0.517356 0.380733,-0.880581 0.923026,-0.880581 0.33348,0 0.661534,0.251177 1.732029,1.326142 l 1.320628,1.326142 1.34979,-1.326142 c 1.096521,-1.077312 1.428139,-1.326142 1.767356,-1.326142 0.517356,0 0.880582,0.380732 0.880582,0.923026 0,0.33348 -0.251178,0.661534 -1.326142,1.732029 l -1.326142,1.320628 1.326142,1.349789 c 1.061967,1.080904 1.325715,1.430324 1.324,1.754066 -0.0012,0.222352 -0.04839,0.473538 -0.104914,0.558191 -0.127409,0.190813 -0.655841,0.475565 -0.882533,0.475565 -0.09277,0 -0.777345,-0.598005 -1.521274,-1.328901 -0.743929,-0.730896 -1.408058,-1.328902 -1.475843,-1.328902 -0.06778,0 -0.731913,0.598006 -1.475842,1.328902 -0.743929,0.730896 -1.447349,1.328901 -1.563155,1.328901 -0.115806,0 -0.376416,-0.130464 -0.579132,-0.289921 z"
     id="path9" />
  <path
     style="fill:#000000;stroke-width:0.139884"
     d="m 56.087283,81.139306 c -0.405155,-0.405155 -0.432573,-0.869262 -0.127751,-2.162448 0.430083,-1.824594 1.626617,-3.27749 3.385229,-4.110528 0.867594,-0.410971 1.060553,-0.447833 2.344256,-0.447833 1.283704,0 1.476662,0.03686 2.344257,0.447833 2.155657,1.021115 3.60083,3.237621 3.60083,5.522705 0,0.469595 -0.546262,1.093624 -0.957335,1.093624 -0.581599,0 -0.88089,-0.444126 -0.994064,-1.475123 -0.177902,-1.620642 -0.904947,-2.735544 -2.195712,-3.367056 -0.628102,-0.307301 -0.968732,-0.37957 -1.777105,-0.377033 -2.243581,0.007 -3.745662,1.399726 -3.991535,3.700835 -0.08502,0.795702 -0.172359,1.053501 -0.42668,1.259437 -0.433238,0.350815 -0.794481,0.325496 -1.20439,-0.08441 z"
     id="path10" />
  <path
     style="fill:#000000;stroke-width:0.139884"
     d="m 70.641618,70.824175 c -0.38512,-0.218388 -0.484959,-0.395883 -0.487453,-0.866602 -0.0017,-0.323742 0.262033,-0.673162 1.324,-1.754066 l 1.326142,-1.349789 -1.326142,-1.320628 c -1.108433,-1.103824 -1.326142,-1.392157 -1.326142,-1.756335 0,-0.529837 0.371964,-0.89872 0.906226,-0.89872 0.310417,0 0.68081,0.282057 1.73615,1.322093 l 1.341549,1.322093 1.345669,-1.322093 c 1.092884,-1.073738 1.424108,-1.322093 1.763235,-1.322093 0.517356,0 0.880582,0.380732 0.880582,0.923026 0,0.33348 -0.251178,0.661534 -1.326142,1.732029 l -1.326143,1.320628 1.326143,1.349789 c 1.061966,1.080904 1.325715,1.430324 1.323999,1.754066 -0.0012,0.222352 -0.04839,0.473538 -0.104913,0.558191 -0.127409,0.190813 -0.655841,0.475565 -0.882534,0.475565 -0.09277,0 -0.777344,-0.598005 -1.521273,-1.328901 -0.743929,-0.730896 -1.408058,-1.328902 -1.475843,-1.328902 -0.06778,0 -0.731913,0.598006 -1.475842,1.328902 -0.743929,0.730896 -1.440101,1.326987 -1.547049,1.324648 -0.106947,-0.0023 -0.320346,-0.07565 -0.474219,-0.162901 z"
     id="path11" />
</svg>
