<?xml version="1.0" encoding="UTF-8" standalone="no"?>
<svg
   width="121"
   height="133"
   viewBox="0 0 121 133"
   fill="none"
   version="1.1"
   id="svg4"
   xmlns="http://www.w3.org/2000/svg"
   xmlnsSvg="http://www.w3.org/2000/svg">
  <g
     clip-path="url(#clip0_14386_119425)"
     id="g1">
    <circle
       cx="61"
       cy="73"
       r="59"
       fill="white"
       stroke="#613ED2"
       stroke-width="2"
       id="circle1" />
    <path
       d="M51.8088 49.0461H66.1834L64.3473 47.2178H46.4096C45.2845 47.2178 44.2622 47.6746 43.5216 48.4141C42.781 49.1515 42.3202 50.1695 42.3202 51.2898V90.6644C42.3202 91.7864 42.781 92.8027 43.5216 93.5418C44.0552 94.0732 44.7336 94.4592 45.4915 94.6327V55.3364C45.4915 53.6035 46.201 52.0316 47.345 50.8923C48.4891 49.7531 50.0693 49.0467 51.808 49.0467L51.8088 49.0461ZM69.3326 49.0461H70.207C70.5094 49.0461 70.7964 49.1673 71.0066 49.3838L81.9412 60.2722C82.1587 60.4815 82.2804 60.7673 82.2804 61.0684V94.7103C82.2804 96.4432 81.5709 98.0151 80.4269 99.1544C79.2829 100.294 77.7027 101 75.964 101H51.8086C50.0683 101 48.4897 100.294 47.3456 99.1544C46.7178 98.5292 46.2226 97.7744 45.9008 96.9331C44.3638 96.8103 42.9781 96.1349 41.9472 95.1084C40.8032 93.9692 40.0938 92.3972 40.0938 90.6643V51.2897C40.0938 49.5568 40.8032 47.9849 41.9472 46.8456C43.0913 45.7064 44.6699 45 46.4102 45H64.8085C65.1214 45 65.4047 45.128 65.6065 45.3357L69.3326 49.0461ZM54.1963 89.3554C53.581 89.3554 53.0817 88.8587 53.0817 88.2455C53.0817 87.6329 53.5806 87.1357 54.1963 87.1357H73.5767C74.1919 87.1357 74.6912 87.6324 74.6912 88.2455C74.6912 88.8582 74.1924 89.3554 73.5767 89.3554H54.1963ZM54.1963 77.6117C53.581 77.6117 53.0817 77.115 53.0817 76.5019C53.0817 75.8892 53.5806 75.392 54.1963 75.392H73.5767C74.1919 75.392 74.6912 75.8888 74.6912 76.5019C74.6912 77.1145 74.1924 77.6117 73.5767 77.6117H54.1963ZM54.1963 83.4824C53.581 83.4824 53.0817 82.9857 53.0817 82.3726C53.0817 81.7599 53.5806 81.2627 54.1963 81.2627H73.5767C74.1919 81.2627 74.6912 81.7594 74.6912 82.3726C74.6912 82.9852 74.1924 83.4824 73.5767 83.4824H54.1963ZM54.1963 71.7388C53.581 71.7388 53.0817 71.242 53.0817 70.6289C53.0817 70.0163 53.5806 69.5191 54.1963 69.5191H73.5767C74.1919 69.5191 74.6912 70.0158 74.6912 70.6289C74.6912 71.2416 74.1924 71.7388 73.5767 71.7388H54.1963ZM71.3216 52.83V55.8857C71.3216 57.0076 71.7805 58.024 72.523 58.763C73.2636 59.5005 74.286 59.9578 75.411 59.9578H78.4797L71.3216 52.83ZM69.0946 51.2613H51.8109C50.6842 51.2613 49.6635 51.7182 48.9212 52.4576C48.1807 53.195 47.7214 54.213 47.7214 55.3333V94.7234C47.725 95.8384 48.1839 96.8492 48.9212 97.5835C49.6618 98.3209 50.6842 98.7798 51.8109 98.7798H75.9662C77.0913 98.7798 78.1136 98.3229 78.8558 97.5835C79.5964 96.846 80.0573 95.828 80.0573 94.7077V62.1736H75.4132C73.6729 62.1736 72.0943 61.4671 70.9502 60.328C69.8062 59.1887 69.0967 57.6168 69.0967 55.8839V51.2616L69.0946 51.2613Z"
       fill="#613ED2"
       id="path1" />
  </g>
  <path
     d="M20 39C30.4934 39 39 30.4934 39 20C39 9.50659 30.4934 1 20 1C9.50659 1 1 9.50659 1 20C1 30.4934 9.50659 39 20 39Z"
     fill="white"
     stroke="#613ED2"
     stroke-width="2"
     stroke-linecap="round"
     stroke-linejoin="round"
     id="path2" />
  <path
     d="M20 12.3984V19.9984"
     stroke="#613ED2"
     stroke-width="2"
     stroke-linecap="round"
     stroke-linejoin="round"
     id="path3" />
  <path
     d="M20 27.6016H20.0201"
     stroke="#613ED2"
     stroke-width="2"
     stroke-linecap="round"
     stroke-linejoin="round"
     id="path4" />
  <defs
     id="defs4">
    <clipPath
       id="clip0_14386_119425">
      <rect
         x="1"
         y="13"
         width="120"
         height="120"
         rx="60"
         fill="white"
         id="rect4" />
    </clipPath>
  </defs>
  <path
     style="fill:#000000;stroke-width:0.139884"
     d="M 57.212717,132.82064 C 46.461558,132.05364 36.388021,128.6203 27.582719,122.72192 21.107432,118.38434 15.269608,112.47844 10.945012,105.89021 -0.10753909,89.052383 -1.9928424,67.977463 5.8978843,49.470739 c 1.3452854,-3.1552 3.6540486,-7.395755 5.4313037,-9.975793 0.429403,-0.623363 0.762763,-1.145905 0.740801,-1.161205 -0.02196,-0.0153 -0.606463,-0.328886 -1.298891,-0.69686 C 5.4725179,34.821075 1.7374474,29.871386 0.47316504,23.990134 0.02333375,21.897587 0.01911502,18.127954 0.46429053,16.06035 2.1717677,8.1300262 8.1189998,2.1713728 16.022824,0.47193788 c 2.086214,-0.44856564 5.85902,-0.45220683 7.923763,-0.007647 2.803673,0.60365862 5.365029,1.72448872 7.646284,3.34595612 1.45668,1.0353778 3.572576,3.153004 4.613524,4.6172982 1.542504,2.1698288 2.893159,5.2793648 3.33521,7.6784628 0.134474,0.729816 0.207582,0.883189 0.385576,0.808901 1.024889,-0.427746 4.66174,-1.561092 6.451047,-2.010329 5.154624,-1.29416 8.872246,-1.743845 14.471483,-1.750477 5.69706,-0.0067 9.304782,0.412239 14.430285,1.675877 8.551542,2.10829 16.315316,5.939559 23.268559,11.482579 2.435225,1.941323 7.208065,6.713655 9.133235,9.132263 10.6824,13.420404 15.16246,30.335533 12.47428,47.098545 -2.62355,16.359984 -12.13976,31.143543 -25.943931,40.304233 -8.376518,5.55881 -17.501759,8.79766 -27.69711,9.83062 -2.035655,0.20625 -7.281768,0.28656 -9.302312,0.14242 z m 11.190751,-2.21989 c 13.031951,-1.78879 24.488799,-7.41645 33.641782,-16.52503 9.42501,-9.37927 15.25375,-21.666471 16.7327,-35.273127 0.28207,-2.595148 0.31871,-8.492703 0.0681,-10.958662 -0.81677,-8.036317 -2.8705,-15.000552 -6.43555,-21.823106 -8.5116,-16.28885 -24.403076,-27.630491 -42.608188,-30.409156 -3.19936,-0.488322 -5.090839,-0.621888 -8.812717,-0.622309 -6.95625,-7.86e-4 -12.874075,1.000819 -19.408959,3.285011 l -1.643642,0.574517 -0.0011,1.066885 C 39.924718,30.26067 32.08637,38.85709 21.779131,39.82848 c -2.0943,0.197374 -4.59637,0.0067 -6.568059,-0.500403 l -1.295286,-0.333169 -0.739831,1.065551 C 7.05264,48.87964 3.4648094,59.607086 3.0223029,70.419404 2.6042291,80.634727 4.6168182,90.050265 9.1545647,99.108092 c 2.8880313,5.764818 6.0641803,10.132468 10.8395513,14.905898 3.79966,3.79812 6.89247,6.23594 11.060219,8.71791 7.995374,4.76139 15.686945,7.22053 25.598844,8.18443 0.307746,0.0299 2.605347,0.036 5.105781,0.0134 3.644915,-0.0329 4.962239,-0.0981 6.644508,-0.329 z M 23.21534,37.755492 c 3.526571,-0.581511 6.848924,-2.327818 9.53063,-5.009522 3.534646,-3.534648 5.287907,-7.819858 5.270723,-12.882386 -0.0167,-4.921116 -1.80327,-9.157709 -5.338931,-12.6605055 C 29.125518,3.6838512 24.958964,1.9774682 19.933526,1.9837665 16.225873,1.9884133 12.982945,2.9749808 9.8108383,5.0633032 8.4667978,5.948138 5.8919357,8.5454278 4.9843891,9.9317919 2.9288319,13.071852 1.9713221,16.305766 1.9816181,20.07341 c 0.013446,4.920286 1.7889151,9.182125 5.2793488,12.67256 4.2693711,4.269371 9.8384331,6.018003 15.9543731,5.009522 z"
     id="path5" />
  <path
     style="fill:#000000;stroke-width:0.139884"
     d="m 19.373988,20.632948 c -0.26727,-0.26727 -0.279768,-0.466281 -0.279768,-4.45462 0,-3.973755 0.01325,-4.186845 0.275133,-4.423844 0.382119,-0.345813 0.982489,-0.316142 1.290113,0.06376 0.231572,0.285979 0.253251,0.664666 0.253251,4.423844 0,3.92458 -0.01269,4.123785 -0.279769,4.390861 -0.153873,0.153873 -0.437139,0.279769 -0.62948,0.279769 -0.192341,0 -0.475607,-0.125896 -0.62948,-0.279769 z"
     id="path6" />
  <path
     style="fill:#000000;stroke-width:0.139884"
     d="m 19.315241,28.199076 c -0.332448,-0.367352 -0.231876,-0.973789 0.216793,-1.307229 0.594194,-0.441591 1.380683,-0.02938 1.380683,0.723632 0,0.768635 -1.074706,1.161251 -1.597476,0.583597 z"
     id="path7" />
  <path
     style="fill:#000000;stroke-width:0.139884"
     d="m 50.288439,100.72614 c -1.64209,-0.45765 -3.26368,-1.729955 -3.962491,-3.108991 -0.338179,-0.667366 -0.389742,-0.706079 -1.168195,-0.877098 -2.200398,-0.483407 -4.026467,-2.141108 -4.686017,-4.253958 -0.241887,-0.774879 -0.254973,-1.880894 -0.254973,-21.550007 0,-20.584769 0.0021,-20.739335 0.289009,-21.589011 0.614785,-1.820476 2.21055,-3.398673 3.99326,-3.949296 0.891917,-0.275486 1.256628,-0.285062 10.856054,-0.285062 h 9.93313 l 2.056729,2.028323 c 2.016408,1.988561 2.068882,2.028445 2.6767,2.034486 l 0.619973,0.0062 5.770232,5.708257 5.770231,5.708258 V 78.09213 c 0,16.741984 -0.01133,17.530323 -0.263542,18.340687 -0.144947,0.465719 -0.422162,1.117426 -0.61603,1.448239 -0.444427,0.758357 -1.690097,1.94433 -2.448679,2.331334 -1.419656,0.72425 -1.22399,0.71513 -15.060965,0.70169 -9.862642,-0.01 -13.022223,-0.0536 -13.504426,-0.18794 z M 77.48011,98.542469 c 0.874004,-0.327007 1.747266,-1.108832 2.213235,-1.981495 l 0.320528,-0.60028 0.03716,-16.960983 0.03716,-16.960983 h -2.857357 c -2.387103,0 -2.994179,-0.04258 -3.688726,-0.258751 -1.569013,-0.488332 -2.921939,-1.630224 -3.671105,-3.098474 -0.592188,-1.160597 -0.694755,-1.867091 -0.696512,-4.797625 l -0.0017,-2.769302 -9.127456,0.04156 -9.127457,0.04156 -0.778677,0.365196 c -0.921101,0.431993 -1.67893,1.170238 -2.119756,2.064976 l -0.318908,0.647285 v 20.70289 20.70289 l 0.333737,0.73851 c 0.196363,0.434523 0.609005,0.986 1.002478,1.339766 1.232418,1.10805 0.430614,1.050791 14.850156,1.060492 12.588624,0.0085 12.843469,0.0033 13.593161,-0.277224 z M 45.53237,74.775093 c 0,-14.062099 0.0455,-20.073019 0.155913,-20.597977 0.398801,-1.896067 1.68384,-3.538154 3.45337,-4.412885 l 1.061893,-0.524925 8.015857,-0.03935 c 4.408721,-0.02164 8.015857,-0.0829 8.015857,-0.13612 0,-0.05322 -0.391606,-0.491889 -0.870236,-0.974811 l -0.870236,-0.878041 h -9.45629 c -10.827136,0 -10.310916,-0.05276 -11.543575,1.179894 -1.283492,1.283493 -1.181334,-0.696357 -1.169252,22.660343 0.008,15.378217 0.05211,20.685525 0.174856,21.018458 0.304208,0.825111 1.040907,1.698518 1.799691,2.133656 0.408406,0.234207 0.852716,0.426423 0.987354,0.427146 0.231997,0.0012 0.244798,-1.037001 0.244798,-19.855388 z M 78.545087,59.974405 c 0,-0.137117 -7.032929,-7.168047 -7.170084,-7.168047 -0.157606,0 -0.122722,3.633569 0.04053,4.221335 0.20982,0.75544 0.960512,1.796007 1.636712,2.268718 0.325669,0.227666 0.955149,0.491912 1.398844,0.587214 0.883341,0.189733 4.094001,0.260926 4.094001,0.09078 z"
     id="path8" />
  <path
     style="fill:#000000;stroke-width:0.139884"
     d="m 53.593845,71.378708 c -0.520162,-0.467149 -0.544177,-1.051497 -0.06169,-1.501004 0.302206,-0.281548 0.435487,-0.285218 10.357804,-0.285218 h 10.051658 l 0.343351,0.343352 c 0.411855,0.411854 0.439552,0.90568 0.07598,1.354734 l -0.267369,0.330237 -10.073141,0.03767 -10.07314,0.03767 z"
     id="path9" />
  <path
     style="fill:#000000;stroke-width:0.139884"
     d="M 53.593845,77.253852 C 53.073683,76.786703 53.049668,76.202355 53.532157,75.752848 53.834363,75.4713 53.967644,75.46763 63.889961,75.46763 h 10.051658 l 0.343351,0.343353 c 0.411855,0.411854 0.439552,0.905679 0.07598,1.354734 l -0.267369,0.330237 -10.073141,0.03767 -10.07314,0.03767 z"
     id="path10" />
  <path
     style="fill:#000000;stroke-width:0.139884"
     d="m 53.593845,83.128997 c -0.520162,-0.467149 -0.544177,-1.051497 -0.06169,-1.501004 0.302206,-0.281548 0.435487,-0.285218 10.357804,-0.285218 h 10.051658 l 0.343351,0.343352 c 0.411855,0.411854 0.439552,0.90568 0.07598,1.354734 l -0.267369,0.330237 -10.073141,0.03767 -10.07314,0.03767 z"
     id="path11" />
  <path
     style="fill:#000000;stroke-width:0.139884"
     d="m 53.593845,89.004141 c -0.520162,-0.467149 -0.544177,-1.051497 -0.06169,-1.501004 0.302206,-0.281548 0.435487,-0.285218 10.357804,-0.285218 h 10.051658 l 0.343351,0.343353 c 0.411855,0.411854 0.439552,0.905679 0.07598,1.354734 l -0.267369,0.330237 -10.073141,0.03767 -10.07314,0.03767 z"
     id="path12" />
</svg>
