<?xml version="1.0" encoding="UTF-8" standalone="no"?>
<svg
   width="121"
   height="133"
   viewBox="0 0 121 133"
   fill="none"
   version="1.1"
   id="svg8"
   xmlns="http://www.w3.org/2000/svg"
   xmlnsSvg="http://www.w3.org/2000/svg">
  <g
     clip-path="url(#clip0_14088_119753)"
     id="g5">
    <circle
       cx="61"
       cy="73"
       r="59"
       fill="white"
       stroke="#613ED2"
       stroke-width="2"
       id="circle1" />
    <path
       d="M17.5 132.503V101.914H32.6458V132.503H17.5Z"
       stroke="#613ED2"
       id="path1" />
    <path
       d="M41.7227 132.506V84.0625H56.8684V132.506H41.7227Z"
       stroke="#613ED2"
       id="path2" />
    <path
       d="M65.9375 132.494V86.7969H81.0833V132.494H65.9375Z"
       stroke="#613ED2"
       id="path3" />
    <path
       d="M90.1562 132.503V67.5781H105.302V132.503H90.1562Z"
       stroke="#613ED2"
       id="path4" />
    <path
       d="M97.6686 40.2819C97.621 39.255 96.2348 38.6587 95.1787 39.2098L87.3862 43.2903C86.3154 43.8504 86.4108 45.1574 87.5549 45.6091L89.7588 46.4824L71.0348 72.429L50.3856 60.0279C49.9749 59.7809 49.4615 59.6846 48.9628 59.7568C48.464 59.8291 48.0203 60.067 47.738 60.4134L22.3143 91.621C21.7422 92.3226 21.9732 93.2712 22.8277 93.741C23.1467 93.9157 23.506 94 23.8618 94C24.4632 94 25.0499 93.7621 25.4092 93.3224L49.7548 63.4399L70.4921 75.8952C70.9175 76.1512 71.4492 76.2445 71.9626 76.1602C72.476 76.0729 72.9233 75.8139 73.191 75.4435L93.1215 47.8255L95.6774 48.8374C96.7775 49.274 98.0464 48.5904 97.9987 47.5906L97.6686 40.2909V40.2819Z"
       fill="#613ED2"
       id="path5" />
    <circle
       cx="61"
       cy="73"
       r="59"
       stroke="#613ED2"
       stroke-width="2"
       id="circle5" />
  </g>
  <path
     d="M20 39C30.4934 39 39 30.4934 39 20C39 9.50659 30.4934 1 20 1C9.50659 1 1 9.50659 1 20C1 30.4934 9.50659 39 20 39Z"
     fill="white"
     stroke="#613ED2"
     stroke-width="2"
     stroke-linecap="round"
     stroke-linejoin="round"
     id="path6" />
  <path
     d="M20 12.3984V19.9984"
     stroke="#613ED2"
     stroke-width="2"
     stroke-linecap="round"
     stroke-linejoin="round"
     id="path7" />
  <path
     d="M20 27.6016H20.0201"
     stroke="#613ED2"
     stroke-width="2"
     stroke-linecap="round"
     stroke-linejoin="round"
     id="path8" />
  <defs
     id="defs8">
    <clipPath
       id="clip0_14088_119753">
      <rect
         x="1"
         y="13"
         width="120"
         height="120"
         rx="60"
         fill="white"
         id="rect8" />
    </clipPath>
  </defs>
  <path
     style="fill:#000000;stroke-width:0.139884"
     d="M 57.982081,132.87452 C 51.309208,132.48585 45.038185,131.1225 39.017741,128.75157 28.822709,124.73665 19.949865,118.00358 13.22319,109.17765 3.0646182,95.848793 -1.0180937,78.486444 2.1057003,61.898844 3.1070173,56.58177 4.7727075,51.580634 7.2073307,46.581503 8.2739503,44.39136 10.406132,40.716052 11.52543,39.13826 l 0.562478,-0.792884 -1.287885,-0.687781 C 5.4598387,34.805723 1.739791,29.882289 0.47316504,23.990134 0.02333375,21.897587 0.01911502,18.127954 0.46429053,16.06035 2.1717677,8.1300262 8.1189998,2.1713728 16.022824,0.47193788 c 2.086214,-0.44856564 5.85902,-0.45220683 7.923763,-0.007647 2.803673,0.60365862 5.365029,1.72448872 7.646284,3.34595612 1.45668,1.0353778 3.572576,3.153004 4.613524,4.6172982 1.535749,2.1603258 2.893199,5.2795888 3.330561,7.6532318 l 0.161288,0.875339 1.343364,-0.480604 c 6.105722,-2.184396 13.223855,-3.396321 19.947987,-3.396321 9.291076,0 18.588967,2.184818 26.787152,6.294442 22.849133,11.453919 35.908343,35.966878 32.656503,61.298302 -2.5243,19.663895 -14.79339,37.007945 -32.403092,45.806205 -6.829142,3.41201 -13.419144,5.345 -20.907007,6.13248 -2.040501,0.2146 -7.353906,0.36799 -9.14107,0.2639 z m 6.904754,-1.96174 0.649003,-0.089 v -22.2226 -22.222607 h 7.973411 7.97341 v 20.438287 20.43829 l 0.367931,-0.0923 c 0.622807,-0.15631 4.365954,-1.85312 6.136693,-2.78183 l 1.678613,-0.88038 0.03531,-28.143093 0.03531,-28.143086 h 7.972621 7.972623 l 0.0354,21.367341 0.0354,21.367338 0.87108,-1.08923 c 4.94551,-6.18414 8.84676,-14.215324 10.78465,-22.201518 2.21457,-9.126395 2.15451,-18.934125 -0.17147,-28.001356 C 111.61713,36.750053 94.025176,20.235701 71.760694,15.966528 62.043021,14.103182 52.155949,14.791116 42.489884,18.003161 l -2.55289,0.848328 -0.0011,1.065585 c -0.01114,10.34355 -7.850098,18.940074 -18.156716,19.911406 -2.091434,0.197104 -4.595963,0.0069 -6.559515,-0.498237 L 13.93292,38.99924 12.967572,40.412337 c -5.1069543,7.475662 -8.3346238,16.112935 -9.6380766,25.791575 -0.3547121,2.633875 -0.3528572,10.797373 0.00307,13.530192 1.2465391,9.570847 4.2413716,17.687739 9.3934136,25.458956 1.217405,1.83631 3.912659,5.37452 4.255457,5.58638 0.111498,0.0689 0.154445,-1.20992 0.154445,-4.59893 v -4.69438 h 7.972578 7.972578 l 0.0358,11.22572 0.0358,11.22572 1.967441,0.98827 c 1.931511,0.97022 5.072942,2.32417 5.831114,2.5132 l 0.384682,0.0959 v -21.977 -21.977015 h 7.973411 7.97341 v 23.617145 c 0,12.98944 0.04196,23.65912 0.09326,23.71041 0.118957,0.11896 6.647124,0.12269 7.510919,0.004 z m -8.443482,-23.2018 V 84.560116 h -7.134104 -7.134104 v 21.675514 21.67551 l 1.363872,0.43808 c 1.846099,0.59298 4.659561,1.30642 6.609538,1.67606 1.720848,0.3262 5.091174,0.80129 5.840173,0.82325 l 0.454625,0.0133 z m 14.280206,22.51028 c 2.615196,-0.44151 5.353412,-1.11305 7.926441,-1.94392 l 1.993353,-0.64368 V 107.42579 87.217919 h -7.134104 -7.134104 v 21.772131 21.77214 l 1.130752,-0.0943 c 0.621914,-0.0519 2.069861,-0.25285 3.217662,-0.44663 z m -38.480206,-17.4045 v -10.49133 h -7.134104 -7.134104 l -0.0022,4.86099 -0.0022,4.86098 2.275302,2.23892 c 2.334758,2.29743 5.283138,4.7582 7.698376,6.4252 1.514117,1.04504 4.016937,2.59657 4.18862,2.59657 0.06065,0 0.110273,-4.7211 0.110273,-10.49133 z m 60.90313,8.4783 c 3.428895,-2.28165 5.782275,-4.22273 8.934157,-7.36896 l 2.76271,-2.75775 V 89.611051 68.053757 h -7.134101 -7.134104 v 27.417341 c 0,15.079542 0.03977,27.417342 0.08839,27.417342 0.04861,0 1.16594,-0.71702 2.482948,-1.59338 z M 23.21534,37.755492 c 3.526571,-0.581511 6.848924,-2.327818 9.53063,-5.009522 3.534646,-3.534648 5.287907,-7.819858 5.270723,-12.882386 -0.0167,-4.921116 -1.80327,-9.157709 -5.338931,-12.6605055 C 29.125518,3.6838512 24.958964,1.9774682 19.933526,1.9837665 16.225873,1.9884133 12.982945,2.9749808 9.8108383,5.0633032 8.4667978,5.948138 5.8919357,8.5454278 4.9843891,9.9317919 2.9288319,13.071852 1.9713221,16.305766 1.9816181,20.07341 c 0.013446,4.920286 1.7889151,9.182125 5.2793488,12.67256 4.2693711,4.269371 9.8384331,6.018003 15.9543731,5.009522 z"
     id="path9" />
  <path
     style="fill:#000000;stroke-width:0.139884"
     d="m 19.373988,20.632948 c -0.26727,-0.26727 -0.279768,-0.466281 -0.279768,-4.45462 0,-3.973755 0.01325,-4.186845 0.275133,-4.423844 0.382119,-0.345813 0.982489,-0.316142 1.290113,0.06376 0.231572,0.285979 0.253251,0.664666 0.253251,4.423844 0,3.92458 -0.01269,4.123785 -0.279769,4.390861 -0.153873,0.153873 -0.437139,0.279769 -0.62948,0.279769 -0.192341,0 -0.475607,-0.125896 -0.62948,-0.279769 z"
     id="path10" />
  <path
     style="fill:#000000;stroke-width:0.139884"
     d="m 19.315241,28.199076 c -0.332448,-0.367352 -0.231876,-0.973789 0.216793,-1.307229 0.594194,-0.441591 1.380683,-0.02938 1.380683,0.723632 0,0.768635 -1.074706,1.161251 -1.597476,0.583597 z"
     id="path11" />
  <path
     style="fill:#000000;stroke-width:0.139884"
     d="m 22.856814,93.612408 c -0.595468,-0.400847 -0.885374,-0.968845 -0.730115,-1.430477 0.135432,-0.402684 25.550539,-31.648079 26.063474,-32.0425 0.239375,-0.184068 0.573805,-0.268911 1.059974,-0.268911 0.687724,0 1.040912,0.198372 11.129841,6.251181 5.730768,3.438148 10.488698,6.270807 10.573177,6.294797 0.08448,0.02399 4.377178,-5.807735 9.539329,-12.959389 l 9.385731,-13.003006 -1.263299,-0.502811 c -0.694814,-0.276546 -1.398295,-0.637809 -1.563293,-0.802806 -0.368644,-0.368645 -0.391833,-1.049753 -0.04865,-1.428966 0.431118,-0.476381 8.51953,-4.621832 9.017903,-4.621832 0.542576,0 1.210417,0.329124 1.404785,0.692304 0.132312,0.247228 0.363382,3.811683 0.451579,6.966016 0.03415,1.221461 0.01641,1.313338 -0.318233,1.647981 -0.613651,0.613651 -1.193414,0.599575 -2.93662,-0.0713 -0.849169,-0.326803 -1.562426,-0.571246 -1.585014,-0.543208 -0.02259,0.02804 -4.464092,6.188407 -9.87001,13.689708 -5.405917,7.5013 -9.99209,13.812839 -10.191494,14.025641 -0.511833,0.546222 -1.325528,0.743736 -1.98949,0.482925 -0.284167,-0.111624 -5.153968,-2.98563 -10.821779,-6.386678 -5.667812,-3.401049 -10.364995,-6.163438 -10.438188,-6.138645 -0.07319,0.02479 -5.594787,6.747564 -12.270212,14.939489 -6.675424,8.191926 -12.351025,15.037518 -12.612446,15.212428 -0.618092,0.41355 -1.370818,0.412814 -1.98695,-0.0019 z"
     id="path12" />
</svg>
