<?xml version="1.0" encoding="UTF-8" standalone="no"?>
<svg
   width="120"
   height="120"
   viewBox="0 0 120 120"
   fill="none"
   version="1.1"
   id="svg7"
   xmlns="http://www.w3.org/2000/svg"
   xmlnsSvg="http://www.w3.org/2000/svg">
  <g
     clip-path="url(#clip0_14088_119600)"
     id="g6">
    <circle
       cx="60"
       cy="60"
       r="59"
       fill="white"
       stroke="#613ED2"
       stroke-width="2"
       id="circle1" />
    <g
       clip-path="url(#clip1_14088_119600)"
       id="g5">
      <path
         d="M85.6085 73.2862C85.3275 73.1454 85.0375 72.9999 84.743 72.8169C83.3349 72.0201 82.1502 70.8591 81.3045 69.4469C80.4587 68.0347 79.9808 66.4195 79.9172 64.7589V51.3835C79.9172 40.1246 70.9726 30.9688 59.9797 30.9688C48.9868 30.9688 40.0422 40.1251 40.0422 51.3835V64.7589C39.9826 66.423 39.507 68.0423 38.6619 69.4591C37.8168 70.8756 36.6311 72.0406 35.221 72.8404C34.9582 72.9812 34.6953 73.1126 34.4326 73.244C32.8829 74.0137 31.1293 74.8866 30.9797 77.1206C30.8921 78.418 31.3324 79.6943 32.1941 80.6403C33.0554 81.5868 34.2553 82.1231 35.511 82.1233H50.5093C50.7396 84.5592 51.8368 86.8192 53.5873 88.4634C55.3379 90.1076 57.6166 91.0182 59.9794 91.0182C62.3423 91.0182 64.6211 90.1075 66.3715 88.4634C68.1219 86.8192 69.2192 84.5593 69.4496 82.1233H84.4479C85.7004 82.1206 86.8966 81.5844 87.7557 80.6403C88.6174 79.6943 89.0577 78.4179 88.9701 77.1206C88.8296 74.896 87.1893 74.0794 85.6079 73.2863L85.6085 73.2862ZM59.9797 89.1631C58.0945 89.1617 56.2754 88.4445 54.8665 87.1471C53.4577 85.8498 52.5573 84.0623 52.3355 82.1236H67.6238C67.4019 84.0624 66.5015 85.8499 65.0927 87.1471C63.6839 88.4445 61.8648 89.1617 59.9795 89.1631H59.9797ZM86.433 79.3544C85.9216 79.927 85.2015 80.2506 84.4484 80.2461H35.5109C34.7574 80.2479 34.0369 79.9256 33.5215 79.3562C33.006 78.7868 32.7419 78.0214 32.7921 77.2425C32.8601 76.1584 33.6984 75.6797 35.2118 74.9335C35.4882 74.7974 35.7691 74.6566 36.0455 74.5112C37.7555 73.5573 39.1927 72.1536 40.2126 70.4417C41.2323 68.7297 41.7987 66.7697 41.8546 64.7589V51.3835C41.8546 41.1618 49.9838 32.846 59.9796 32.846C69.9754 32.846 78.1046 41.1618 78.1046 51.3835V64.7589C78.1601 66.7691 78.7258 68.7289 79.7448 70.4407C80.7637 72.1526 82.1999 73.5565 83.9092 74.5109C84.2173 74.6752 84.5254 74.8301 84.8154 74.9803C86.347 75.7452 87.081 76.1629 87.1581 77.247C87.2077 78.0229 86.9453 78.7855 86.4331 79.3542L86.433 79.3544Z"
         fill="#613ED2"
         id="path1" />
      <path
         d="M82.4573 64.5851C82.6283 64.7607 82.8598 64.8587 83.1007 64.8573C83.3401 64.8575 83.5697 64.7597 83.7396 64.5851C84.6566 63.6353 85.1719 62.3473 85.1719 61.0043C85.1719 59.6613 84.6566 58.3732 83.7396 57.4235C83.5106 57.1863 83.1766 57.0936 82.8637 57.1804C82.5509 57.2673 82.3064 57.5205 82.2226 57.8445C82.1387 58.1686 82.2282 58.5145 82.4572 58.7517C83.035 59.3487 83.3597 60.1592 83.3597 61.0043C83.3597 61.8495 83.035 62.66 82.4572 63.257C82.2871 63.433 82.1914 63.672 82.1914 63.9211C82.1914 64.1702 82.2871 64.4092 82.4572 64.5852L82.4573 64.5851Z"
         fill="#613ED2"
         id="path2" />
      <path
         d="M87.1706 61.0034C87.1755 62.8965 86.4496 64.7129 85.1542 66.0484C84.9837 66.226 84.8889 66.4667 84.8906 66.717C84.8923 66.9673 84.9905 67.2066 85.1635 67.3816C85.3364 67.5564 85.5696 67.6526 85.8112 67.6487C86.0527 67.6489 86.2844 67.5492 86.4546 67.3718C87.534 66.2539 88.3104 64.8615 88.7053 63.3344C89.1005 61.8072 89.1005 60.1995 88.7053 58.6722C88.3104 57.1452 87.534 55.7528 86.4546 54.6348C86.223 54.4166 85.8988 54.3378 85.5977 54.4262C85.2964 54.5148 85.0606 54.7582 84.9741 55.0699C84.8874 55.3816 84.9624 55.7176 85.1723 55.9583C86.4611 57.297 87.1804 59.113 87.1706 61.0033V61.0034Z"
         fill="#613ED2"
         id="path3" />
      <path
         d="M36.2252 64.5852C36.3951 64.7598 36.6247 64.8576 36.8641 64.8574C37.1043 64.8576 37.3346 64.759 37.5048 64.5834C37.6747 64.4078 37.7706 64.1696 37.7712 63.9209C37.7717 63.6722 37.6769 63.4334 37.5076 63.257C36.9299 62.66 36.6051 61.8495 36.6051 61.0044C36.6051 60.1592 36.9298 59.3487 37.5076 58.7517C37.7366 58.5145 37.8261 58.1686 37.7423 57.8445C37.6584 57.5205 37.4139 57.2673 37.1011 57.1805C36.7882 57.0936 36.4542 57.1863 36.2252 57.4235C35.3082 58.3733 34.793 59.6613 34.793 61.0043C34.793 62.3473 35.3082 63.6354 36.2252 64.5851L36.2252 64.5852Z"
         fill="#613ED2"
         id="path4" />
      <path
         d="M34.1553 67.6486C34.3949 67.6476 34.6243 67.5483 34.7935 67.3725C34.9626 67.1967 35.0576 66.9587 35.0578 66.7106C35.058 66.4624 34.9632 66.2242 34.7942 66.0483C33.5032 64.7098 32.7778 62.8951 32.7778 61.0033C32.7778 59.1114 33.5032 57.2967 34.7942 55.9583C35.0042 55.7176 35.0791 55.3816 34.9925 55.0699C34.906 54.7582 34.6702 54.5148 34.3689 54.4262C34.0677 54.3378 33.7435 54.4166 33.5119 54.6348C32.4325 55.7528 31.6561 57.1452 31.2612 58.6722C30.8661 60.1995 30.8661 61.8072 31.2612 63.3344C31.6562 64.8615 32.4325 66.2539 33.5119 67.3718C33.6822 67.5492 33.9139 67.6489 34.1553 67.6487L34.1553 67.6486Z"
         fill="#613ED2"
         id="path5" />
    </g>
  </g>
  <defs
     id="defs7">
    <clipPath
       id="clip0_14088_119600">
      <rect
         width="120"
         height="120"
         rx="60"
         fill="white"
         id="rect6" />
    </clipPath>
    <clipPath
       id="clip1_14088_119600">
      <rect
         width="58"
         height="60.0714"
         fill="white"
         transform="translate(31 30.9688)"
         id="rect7" />
    </clipPath>
  </defs>
  <path
     style="fill:#000000;stroke-width:0.138728"
     d="M 56.531792,119.84801 C 50.317473,119.3143 46.632556,118.62042 41.818935,117.07755 32.303465,114.02763 24.082081,108.93467 17.061807,101.74106 1.6333588,85.93168 -3.842093,62.677737 2.9378109,41.757225 5.9656034,32.414472 10.736819,24.621178 17.678999,17.678999 20.611237,14.74676 23.225277,12.566254 26.361144,10.436775 41.889195,-0.10789344 61.406202,-2.7719928 79.144509,3.2317705 100.38193,10.419854 115.86321,28.860616 119.23134,50.981806 c 0.52045,3.41826 0.62302,4.90295 0.62302,9.018194 0,4.115244 -0.10257,5.599934 -0.62302,9.018194 -2.55768,16.798297 -12.21037,31.808076 -26.432649,41.102336 -8.029262,5.24713 -16.628715,8.32479 -26.475073,9.47519 -1.710355,0.19983 -8.396723,0.3721 -9.791826,0.25229 z m 7.283237,-1.93304 c 4.236288,-0.19972 9.394323,-1.17812 13.973455,-2.65057 C 100.87819,107.83977 116.89729,86.867329 117.97726,62.648664 119.01651,39.343343 106.16969,17.790762 85.228592,7.7075537 76.515846,3.5123376 67.08306,1.5887745 57.351336,2.0227361 42.829727,2.6702906 29.246125,8.6593122 18.95272,18.95272 8.6558021,29.249637 2.7107889,42.723783 2.0202674,57.32948 0.88355838,81.372796 14.755494,103.64138 36.852504,113.2456 c 6.367168,2.76741 13.486884,4.42814 20.303565,4.73595 2.300993,0.1039 3.242454,0.0945 6.65896,-0.0666 z"
     id="path7" />
  <path
     style="fill:#000000;stroke-width:0.138728"
     d="M 58.127168,90.731119 C 55.52679,90.158666 53.303284,88.536608 51.913342,86.198105 51.409559,85.350517 50.812868,83.657528 50.638957,82.582303 l -0.08345,-0.515964 -8.075439,-0.03895 -8.07544,-0.03895 -0.643162,-0.31999 c -1.038143,-0.516505 -1.733194,-1.206315 -2.227799,-2.211 -0.39338,-0.799068 -0.454554,-1.06551 -0.45255,-1.971056 0.0041,-1.859605 0.837495,-2.897186 3.323511,-4.137868 2.77959,-1.387194 4.49414,-3.39648 5.355096,-6.275646 0.302431,-1.011377 0.312901,-1.267562 0.405268,-9.91681 0.08877,-8.312828 0.113102,-8.954545 0.381745,-10.070192 0.979613,-4.068219 2.659353,-7.170446 5.418197,-10.006592 2.952873,-3.035611 6.443459,-4.920013 10.636226,-5.741993 1.675895,-0.328555 4.929693,-0.330479 6.728324,-0.004 8.017194,1.455337 14.197504,7.565789 16.117712,15.93553 0.277977,1.211638 0.300482,1.795914 0.388858,10.095319 0.103867,9.754103 0.07373,9.428455 1.059922,11.452375 0.938436,1.925913 2.458728,3.405217 4.63004,4.505218 1.426335,0.72259 2.336394,1.401648 2.79641,2.086595 0.474877,0.707074 0.588489,1.26503 0.50198,2.465275 -0.119081,1.652188 -1.079434,3.041692 -2.592752,3.751371 l -0.775003,0.363443 -8.044587,0.06936 -8.044587,0.06936 -0.09394,0.657102 c -0.306357,2.143023 -1.741898,4.674351 -3.40805,6.0095 -2.202052,1.764582 -5.159611,2.505031 -7.73832,1.937349 z m 3.993089,-1.830594 c 1.706818,-0.506393 3.19839,-1.602632 4.17081,-3.06536 0.631511,-0.94993 1.338991,-2.757115 1.338991,-3.420319 V 82.057803 H 59.934104 52.23815 l 0.07861,0.450868 c 0.704753,4.042067 4.278567,6.974769 8.138756,6.678731 0.517587,-0.0397 1.26672,-0.168788 1.664741,-0.286877 z m 23.362041,-8.793744 c 0.984833,-0.372094 1.708453,-1.509769 1.708453,-2.686023 0,-1.044995 -0.409963,-1.481315 -2.365312,-2.517378 -3.301568,-1.749371 -5.262581,-4.073424 -6.254213,-7.412051 -0.300474,-1.011637 -0.311601,-1.28451 -0.40162,-9.849711 -0.08771,-8.345503 -0.108445,-8.880409 -0.393887,-10.161 -0.383495,-1.720494 -0.853516,-3.024497 -1.687941,-4.68293 -0.922999,-1.83448 -1.90487,-3.177655 -3.453871,-4.724807 -6.285277,-6.277776 -15.978161,-7.039657 -23.220442,-1.825175 -1.412455,1.016975 -3.447752,3.1416 -4.444381,4.63944 -1.284792,1.930924 -2.245316,4.198805 -2.806886,6.627305 -0.20891,0.903429 -0.25258,2.200672 -0.331574,9.849711 -0.08769,8.490727 -0.101975,8.849041 -0.395146,9.909789 -0.872504,3.156878 -2.896827,5.801816 -5.480221,7.160343 -2.33026,1.225411 -2.747189,1.52345 -3.032066,2.167462 -0.493397,1.115407 0.0411,2.620391 1.171201,3.297719 l 0.587689,0.352236 25.204842,0.0013 c 17.474058,9.1e-4 25.324625,-0.04394 25.595375,-0.146242 z"
     id="path8" />
  <path
     style="fill:#000000;stroke-width:0.138728"
     d="m 33.843464,67.497525 c -0.379693,-0.153836 -1.320928,-1.403617 -1.841405,-2.445034 -0.655483,-1.311549 -0.906438,-2.43379 -0.912679,-4.081393 -0.0082,-2.16514 0.638534,-4.031023 1.96344,-5.664678 0.647487,-0.798374 1.023248,-0.966394 1.48485,-0.663941 0.421795,0.276371 0.490586,1.048389 0.120479,1.352095 -0.440385,0.361376 -1.298854,1.837638 -1.557008,2.6775 -0.77613,2.525022 -0.370233,4.773051 1.260737,6.982481 0.366863,0.49698 0.667024,0.991546 0.667024,1.099036 0,0.211765 -0.611324,0.882021 -0.791382,0.867673 -0.06069,-0.0048 -0.238019,-0.06052 -0.394056,-0.123739 z"
     id="path9" />
  <path
     style="fill:#000000;stroke-width:0.138728"
     d="m 36.059522,64.265896 c -0.963735,-1.139486 -1.393885,-3.029095 -1.032481,-4.535595 0.218019,-0.908806 1.156223,-2.337212 1.609917,-2.451082 0.204977,-0.05145 0.471111,0.0041 0.681972,0.142212 0.47723,0.312693 0.451902,0.880907 -0.06845,1.535689 -0.766004,0.963891 -0.909539,2.31221 -0.369463,3.470626 0.177864,0.381503 0.426965,0.77932 0.553558,0.884038 0.291044,0.240753 0.297815,0.901329 0.01217,1.186977 -0.370032,0.370032 -0.961244,0.270788 -1.387216,-0.232865 z"
     id="path10" />
  <path
     style="fill:#000000;stroke-width:0.138728"
     d="m 85.336628,67.342532 c -0.509981,-0.401151 -0.459083,-0.818465 0.195743,-1.604883 1.211436,-1.454884 1.731506,-3.108676 1.624058,-5.164407 -0.08172,-1.563436 -0.389349,-2.488784 -1.253475,-3.770416 -1.091399,-1.618714 -1.03158,-1.458402 -0.706997,-1.894734 0.15869,-0.213323 0.429143,-0.408651 0.601008,-0.43406 0.716894,-0.105991 2.335232,2.355251 2.858133,4.346777 0.287297,1.094203 0.283429,3.35039 -0.0076,4.439307 -0.359441,1.344834 -1.137554,2.806745 -1.928626,3.623481 -0.397652,0.410554 -0.789086,0.746461 -0.869854,0.746461 -0.08077,0 -0.311338,-0.129387 -0.512379,-0.287526 z"
     id="path11" />
  <path
     style="fill:#000000;stroke-width:0.138728"
     d="m 82.77769,64.699322 c -0.342029,-0.126525 -0.588158,-0.629048 -0.467087,-0.953657 0.04269,-0.114451 0.247031,-0.44335 0.454097,-0.730886 0.46619,-0.647358 0.74161,-1.743848 0.623521,-2.482335 -0.101409,-0.634178 -0.510962,-1.503881 -0.834729,-1.772584 -0.518426,-0.430255 -0.103931,-1.534426 0.576008,-1.534426 0.709554,0 1.795552,1.892218 1.933435,3.368771 0.105127,1.125786 -0.288492,2.508322 -0.980553,3.444064 -0.50804,0.686924 -0.814714,0.842308 -1.304692,0.661053 z"
     id="path12" />
</svg>
