<?xml version="1.0" encoding="UTF-8" standalone="no"?>
<svg
   width="121"
   height="133"
   viewBox="0 0 121 133"
   fill="none"
   version="1.1"
   id="svg9"
   xmlns="http://www.w3.org/2000/svg"
   xmlnSvg="http://www.w3.org/2000/svg">
  <g
     clip-path="url(#clip0_14088_119491)"
     id="g6">
    <circle
       cx="61"
       cy="73"
       r="59"
       fill="white"
       stroke="#613ED2"
       stroke-width="2"
       id="circle1" />
    <path
       d="M36.6781 74.1634H42.0831V92.2756C42.0831 94.1818 42.8403 96.01 44.1886 97.3577C45.5362 98.7059 47.3644 99.4632 49.2706 99.4632H73.995C75.9012 99.4632 77.7294 98.7059 79.0771 97.3577C80.4253 96.01 81.1826 94.1818 81.1826 92.2756V54.8999C81.1826 52.9937 80.4253 51.1655 79.0771 49.8178C77.7294 48.4697 75.9012 47.7124 73.995 47.7124H42.0828C41.0237 46.9536 39.7418 46.5696 38.4397 46.6219C37.1378 46.6738 35.8903 47.1589 34.8952 47.9998C33.6333 49.0795 32.8991 50.6515 32.8828 52.3122V70.3679C32.8828 71.3741 33.2827 72.3399 33.9943 73.0514C34.7059 73.763 35.6716 74.1629 36.6778 74.1629L36.6781 74.1634ZM73.9959 50.0134C75.2912 50.0165 76.5326 50.5325 77.4485 51.4484C78.3645 52.3643 78.8804 53.6056 78.8835 54.901V92.2766C78.8804 93.5719 78.3644 94.8134 77.4485 95.7293C76.5326 96.6452 75.2913 97.1612 73.9959 97.1642H49.2716C47.9763 97.1611 46.7349 96.6452 45.8189 95.7293C44.903 94.8134 44.387 93.572 44.384 92.2766V52.3145C44.383 51.5228 44.2187 50.74 43.9009 50.0145L73.9959 50.0134ZM35.1837 52.3134C35.1791 51.3262 35.598 50.384 36.3337 49.7258C36.9729 49.174 37.7892 48.87 38.6337 48.87C39.4783 48.87 40.2946 49.174 40.9337 49.7258C41.6694 50.384 42.0884 51.3261 42.0837 52.3134V71.8634H36.6787C36.2824 71.8634 35.902 71.7058 35.6217 71.4255C35.3413 71.1452 35.1837 70.7648 35.1837 70.3684V52.3134Z"
       fill="#613ED2"
       id="path1" />
    <path
       d="M47.8336 62.6672H59.3336C59.9687 62.6672 60.4836 62.1523 60.4836 61.5172C60.4836 60.8821 59.9687 60.3672 59.3336 60.3672H47.8336C47.1985 60.3672 46.6836 60.8821 46.6836 61.5172C46.6836 62.1523 47.1985 62.6672 47.8336 62.6672Z"
       fill="#613ED2"
       id="path2" />
    <path
       d="M47.8336 70.7141H75.4336C76.0687 70.7141 76.5836 70.1991 76.5836 69.5641C76.5836 68.929 76.0687 68.4141 75.4336 68.4141H47.8336C47.1985 68.4141 46.6836 68.929 46.6836 69.5641C46.6836 70.1991 47.1985 70.7141 47.8336 70.7141Z"
       fill="#613ED2"
       id="path3" />
    <path
       d="M47.8336 78.7609H75.4336C76.0687 78.7609 76.5836 78.246 76.5836 77.6109C76.5836 76.9759 76.0687 76.4609 75.4336 76.4609H47.8336C47.1985 76.4609 46.6836 76.9759 46.6836 77.6109C46.6836 78.246 47.1985 78.7609 47.8336 78.7609Z"
       fill="#613ED2"
       id="path4" />
    <path
       d="M47.8336 86.8156H75.4336C76.0687 86.8156 76.5836 86.3007 76.5836 85.6656C76.5836 85.0306 76.0687 84.5156 75.4336 84.5156H47.8336C47.1985 84.5156 46.6836 85.0306 46.6836 85.6656C46.6836 86.3007 47.1985 86.8156 47.8336 86.8156Z"
       fill="#613ED2"
       id="path5" />
    <circle
       cx="81.5346"
       cy="92.937"
       r="16.8667"
       fill="white"
       id="circle5" />
    <circle
       cx="81.5323"
       cy="92.9307"
       r="11.2667"
       fill="white"
       stroke="#613ED2"
       stroke-width="2"
       id="circle6" />
    <path
       d="M84.7171 89.216C83.9896 88.4884 82.7092 87.9832 81.5324 87.951M78.3477 96.116C79.0323 97.0283 80.3042 97.5481 81.5324 97.5926M81.5324 87.951C80.1325 87.9134 78.879 88.5474 78.879 90.277C78.879 93.4618 84.7171 91.8694 84.7171 95.0541C84.7171 96.8711 83.1631 97.6509 81.5324 97.5918M81.5324 87.951V86.0312M81.5324 97.5926V99.8312"
       stroke="#613ED2"
       stroke-width="2"
       stroke-linecap="round"
       stroke-linejoin="round"
       id="path6" />
  </g>
  <path
     d="M20 39C30.4934 39 39 30.4934 39 20C39 9.50659 30.4934 1 20 1C9.50659 1 1 9.50659 1 20C1 30.4934 9.50659 39 20 39Z"
     fill="white"
     stroke="#613ED2"
     stroke-width="2"
     stroke-linecap="round"
     stroke-linejoin="round"
     id="path7" />
  <path
     d="M20 12.3984V19.9984"
     stroke="#613ED2"
     stroke-width="2"
     stroke-linecap="round"
     stroke-linejoin="round"
     id="path8" />
  <path
     d="M20 27.6016H20.0201"
     stroke="#613ED2"
     stroke-width="2"
     stroke-linecap="round"
     stroke-linejoin="round"
     id="path9" />
  <defs
     id="defs9">
    <clipPath
       id="clip0_14088_119491">
      <rect
         x="1"
         y="13"
         width="120"
         height="120"
         rx="60"
         fill="white"
         id="rect9" />
    </clipPath>
  </defs>
  <path
     style="fill:#000000;stroke-width:0.139884"
     d="M 57.212717,132.82064 C 46.461558,132.05364 36.388021,128.6203 27.582719,122.72192 21.107432,118.38434 15.269608,112.47844 10.945012,105.89021 -0.10753909,89.052383 -1.9928424,67.977463 5.8978843,49.470739 c 1.3452854,-3.1552 3.6540486,-7.395755 5.4313037,-9.975793 0.429403,-0.623363 0.762763,-1.145905 0.740801,-1.161205 -0.02196,-0.0153 -0.606463,-0.328886 -1.298891,-0.69686 C 5.4725179,34.821075 1.7374474,29.871386 0.47316504,23.990134 0.02333375,21.897587 0.01911502,18.127954 0.46429053,16.06035 2.1717677,8.1300262 8.1189998,2.1713728 16.022824,0.47193788 c 2.086214,-0.44856564 5.85902,-0.45220683 7.923763,-0.007647 2.803673,0.60365862 5.365029,1.72448872 7.646284,3.34595612 1.45668,1.0353778 3.572576,3.153004 4.613524,4.6172982 1.542504,2.1698288 2.893159,5.2793648 3.33521,7.6784628 0.134474,0.729816 0.207582,0.883189 0.385576,0.808901 1.024889,-0.427746 4.66174,-1.561092 6.451047,-2.010329 5.154624,-1.29416 8.872246,-1.743845 14.471483,-1.750477 5.69706,-0.0067 9.304782,0.412239 14.430285,1.675877 8.551542,2.10829 16.315316,5.939559 23.268559,11.482579 2.435225,1.941323 7.208065,6.713655 9.133235,9.132263 10.6824,13.420404 15.16246,30.335533 12.47428,47.098545 -2.62355,16.359984 -12.13976,31.143543 -25.943931,40.304233 -8.376518,5.55881 -17.501759,8.79766 -27.69711,9.83062 -2.035655,0.20625 -7.281768,0.28656 -9.302312,0.14242 z m 11.190751,-2.21989 c 13.031951,-1.78879 24.488799,-7.41645 33.641782,-16.52503 9.42501,-9.37927 15.25375,-21.666471 16.7327,-35.273127 0.28207,-2.595148 0.31871,-8.492703 0.0681,-10.958662 -0.81677,-8.036317 -2.8705,-15.000552 -6.43555,-21.823106 -8.5116,-16.28885 -24.403076,-27.630491 -42.608188,-30.409156 -3.19936,-0.488322 -5.090839,-0.621888 -8.812717,-0.622309 -6.95625,-7.86e-4 -12.874075,1.000819 -19.408959,3.285011 l -1.643642,0.574517 -0.0011,1.066885 C 39.924718,30.26067 32.08637,38.85709 21.779131,39.82848 c -2.0943,0.197374 -4.59637,0.0067 -6.568059,-0.500403 l -1.295286,-0.333169 -0.739831,1.065551 C 7.05264,48.87964 3.4648094,59.607086 3.0223029,70.419404 2.6042291,80.634727 4.6168182,90.050265 9.1545647,99.108092 c 2.8880313,5.764818 6.0641803,10.132468 10.8395513,14.905898 3.79966,3.79812 6.89247,6.23594 11.060219,8.71791 7.995374,4.76139 15.686945,7.22053 25.598844,8.18443 0.307746,0.0299 2.605347,0.036 5.105781,0.0134 3.644915,-0.0329 4.962239,-0.0981 6.644508,-0.329 z M 23.21534,37.755492 c 3.526571,-0.581511 6.848924,-2.327818 9.53063,-5.009522 3.534646,-3.534648 5.287907,-7.819858 5.270723,-12.882386 -0.0167,-4.921116 -1.80327,-9.157709 -5.338931,-12.6605055 C 29.125518,3.6838512 24.958964,1.9774682 19.933526,1.9837665 16.225873,1.9884133 12.982945,2.9749808 9.8108383,5.0633032 8.4667978,5.948138 5.8919357,8.5454278 4.9843891,9.9317919 2.9288319,13.071852 1.9713221,16.305766 1.9816181,20.07341 c 0.013446,4.920286 1.7889151,9.182125 5.2793488,12.67256 4.2693711,4.269371 9.8384331,6.018003 15.9543731,5.009522 z"
     id="path10" />
  <path
     style="fill:#000000;stroke-width:0.139884"
     d="m 19.373988,20.632948 c -0.26727,-0.26727 -0.279768,-0.466281 -0.279768,-4.45462 0,-3.973755 0.01325,-4.186845 0.275133,-4.423844 0.382119,-0.345813 0.982489,-0.316142 1.290113,0.06376 0.231572,0.285979 0.253251,0.664666 0.253251,4.423844 0,3.92458 -0.01269,4.123785 -0.279769,4.390861 -0.153873,0.153873 -0.437139,0.279769 -0.62948,0.279769 -0.192341,0 -0.475607,-0.125896 -0.62948,-0.279769 z"
     id="path11" />
  <path
     style="fill:#000000;stroke-width:0.139884"
     d="m 19.315241,28.199076 c -0.332448,-0.367352 -0.231876,-0.973789 0.216793,-1.307229 0.594194,-0.441591 1.380683,-0.02938 1.380683,0.723632 0,0.768635 -1.074706,1.161251 -1.597476,0.583597 z"
     id="path12" />
  <path
     style="fill:#000000;stroke-width:0.139884"
     d="M 47.579449,99.16594 C 45.117013,98.569914 43.042322,96.503487 42.389334,93.9965 42.207123,93.296942 42.175145,91.747956 42.175145,83.621477 v -9.552691 h -3.052538 c -3.357059,0 -3.902931,-0.09434 -4.793526,-0.828444 C 34.061526,73.0198 33.655889,72.502236 33.427667,72.090198 L 33.012717,71.34104 V 61.199422 51.057803 l 0.445529,-0.940488 c 0.857104,-1.809304 2.408018,-3.002166 4.345511,-3.342287 1.119481,-0.196521 2.311075,2.29e-4 3.479305,0.574484 l 0.856472,0.421008 16.279365,0.0021 c 14.025582,0.0018 16.403444,0.03131 17.175596,0.213324 2.539718,0.598654 4.597066,2.613697 5.278702,5.170157 0.147871,0.554592 0.186832,2.994975 0.188148,11.78526 l 0.0017,11.085839 -0.524567,0.0015 c -0.288511,8.46e-4 -0.758817,0.04026 -1.045124,0.08759 l -0.520556,0.08605 -0.03898,-11.246465 -0.03898,-11.246465 -0.458901,-0.932011 c -0.560733,-1.138828 -1.559039,-2.080546 -2.630569,-2.481457 -0.757677,-0.283483 -0.974326,-0.287287 -16.359708,-0.287287 -8.575525,0 -15.591863,0.02738 -15.591863,0.06083 0,0.03346 0.07869,0.238041 0.174856,0.454625 0.136355,0.307082 0.190255,5.060052 0.244797,21.586274 l 0.06994,21.192485 0.337489,0.838276 c 0.456677,1.134322 1.607815,2.285089 2.740998,2.740117 l 0.838276,0.336608 8.449742,0.07082 8.449741,0.07082 0.237596,0.699422 c 0.130677,0.384682 0.282521,0.841054 0.33743,1.014161 l 0.09984,0.31474 -8.717231,-0.01165 c -7.020463,-0.0094 -8.876946,-0.05031 -9.537781,-0.210268 z M 42.143655,61.654046 C 42.105288,51.360492 42.104526,51.336308 41.800592,50.768493 41.406455,50.032156 40.53734,49.252195 39.850365,49.01832 c -1.347382,-0.458705 -2.950252,-0.06035 -3.841485,0.954709 -0.861467,0.981156 -0.827955,0.529402 -0.827955,11.161154 0,6.61231 0.04774,9.82486 0.148812,10.013712 0.08185,0.152933 0.349375,0.400351 0.594509,0.549818 0.403476,0.246018 0.720988,0.271811 3.351779,0.272284 l 2.906084,5.23e-4 z"
     id="path13" />
  <path
     style="fill:#000000;stroke-width:0.139884"
     d="M 47.134682,62.254913 C 46.694099,61.814331 46.6859,61.207351 47.115085,60.804153 47.437408,60.501346 47.466191,60.5 53.619709,60.5 c 5.994357,0 6.189311,0.0084 6.460638,0.279769 0.416528,0.416528 0.373026,1.165297 -0.08881,1.528575 -0.360022,0.283193 -0.509504,0.289922 -6.44104,0.289922 h -6.072465 z"
     id="path14" />
  <path
     style="fill:#000000;stroke-width:0.139884"
     d="m 47.406773,70.511814 c -0.710082,-0.309117 -0.8412,-1.125942 -0.272091,-1.695051 l 0.343353,-0.343353 h 14.115818 c 14.068779,0 14.117044,9.66e-4 14.484392,0.289922 0.649212,0.51067 0.45417,1.513725 -0.348767,1.793631 -0.710533,0.247693 -27.749018,0.204591 -28.322705,-0.04515 z"
     id="path15" />
  <path
     style="fill:#000000;stroke-width:0.139884"
     d="m 47.134682,78.341619 c -0.440583,-0.440583 -0.448782,-1.047563 -0.0196,-1.450761 l 0.323756,-0.304153 14.18925,0.0021 c 8.512508,0.0013 14.271628,0.05424 14.395156,0.13236 0.172473,0.109073 0.161116,0.146063 -0.06994,0.227808 -0.891816,0.315513 -2.31654,0.966335 -2.896193,1.322999 L 72.38597,78.684971 H 59.932003 47.478035 Z"
     id="path16" />
  <path
     style="fill:#000000;stroke-width:0.139884"
     d="m 47.420809,86.636737 c -0.714101,-0.390583 -0.843706,-1.175689 -0.286127,-1.733269 l 0.343353,-0.343352 h 9.652253 9.652253 l -0.518438,1.112729 -0.518438,1.112729 -9.022544,0.0021 c -6.271392,0.0015 -9.10785,-0.04457 -9.302312,-0.150929 z"
     id="path17" />
  <path
     style="fill:#000000;stroke-width:0.139884"
     d="m 79.616566,104.98552 c -4.868841,-0.88154 -8.629566,-4.32655 -9.913991,-9.081705 -0.416102,-1.540475 -0.411226,-4.406417 0.01014,-5.95815 1.478042,-5.443131 6.254525,-9.162428 11.766789,-9.162428 3.222885,0 5.995951,1.081266 8.322959,3.245263 2.812153,2.615157 4.223146,6.326318 3.835388,10.087748 -0.172094,1.669394 -0.459842,2.65065 -1.23822,4.22248 -1.561461,3.153162 -4.406223,5.485442 -7.777119,6.376062 -1.244907,0.32892 -3.893451,0.47216 -5.005941,0.27073 z m 4.675651,-2.11324 c 1.753441,-0.4859 3.122538,-1.29553 4.466614,-2.64137 2.03086,-2.033518 2.90476,-3.989951 3.038586,-6.802591 0.09346,-1.964379 -0.173293,-3.284894 -1.014372,-5.021383 -1.681166,-3.470934 -4.851431,-5.559522 -8.740848,-5.75852 -2.951826,-0.151027 -5.597435,0.841998 -7.701881,2.89089 -2.091063,2.035862 -3.07633,4.385272 -3.079807,7.343931 -0.0053,4.535701 2.640695,8.305813 6.864925,9.781293 1.990464,0.69525 4.145591,0.76785 6.166783,0.20775 z"
     id="path18" />
  <path
     style="fill:#000000;stroke-width:0.139884"
     d="m 81.132948,100.61955 c -0.428825,-0.24317 -0.485142,-0.39503 -0.487453,-1.31446 l -0.0021,-0.852136 -0.594509,-0.174137 c -1.299936,-0.380764 -2.622832,-1.479124 -2.622832,-2.177657 0,-0.420272 0.503221,-0.909831 0.935222,-0.909831 0.177612,0 0.566435,0.219992 0.864051,0.48887 0.744348,0.672473 1.388921,0.909974 2.469654,0.909974 1.466045,0 2.02587,-0.420036 2.02587,-1.520006 0,-0.734614 -0.372839,-0.999346 -2.104928,-1.494593 -2.874118,-0.821782 -3.714205,-1.655149 -3.605624,-3.576778 0.07318,-1.295163 0.547528,-1.98929 1.756977,-2.57105 l 0.872436,-0.419654 0.0018,-0.66445 c 0.0021,-0.751673 0.34334,-1.223989 0.884354,-1.223989 0.597333,0 0.854838,0.329986 0.933239,1.195922 0.07208,0.796112 0.07738,0.804233 0.632225,0.969429 1.192622,0.355081 2.325014,1.14362 2.518708,1.753897 0.12198,0.384323 -0.254957,0.947396 -0.710801,1.061806 -0.269706,0.06769 -0.511137,-0.02132 -0.989402,-0.364786 -0.760435,-0.546104 -1.668903,-0.839389 -2.600052,-0.839389 -0.573853,0 -0.755765,0.06782 -1.096843,0.408893 -0.529764,0.529764 -0.557379,1.221341 -0.06716,1.68188 0.198805,0.186768 0.915511,0.489818 1.713584,0.724568 2.5045,0.736689 3.329137,1.337366 3.693464,2.690372 0.272029,1.010238 -0.118022,2.270855 -0.944932,3.05396 -0.429934,0.407157 -1.505876,0.944432 -1.901251,0.949393 -0.207431,0.0026 -0.244797,0.140313 -0.244797,0.902168 0,0.804694 -0.0387,0.929534 -0.368576,1.189014 -0.417821,0.32866 -0.564236,0.34738 -0.960326,0.12277 z"
     id="path19" />
</svg>
