<?xml version="1.0" encoding="utf-8"?>
<!-- Generator: Adobe Illustrator 28.0.0, SVG Export Plug-In . SVG Version: 6.00 Build 0)  -->
<svg version="1.1" id="Layer_1" xmlns="http://www.w3.org/2000/svg" xmlns:xlink="http://www.w3.org/1999/xlink" x="0px" y="0px"
	 viewBox="0 0 1920 1080" style="enable-background:new 0 0 1920 1080;" xml:space="preserve">
<style type="text/css">
	.st0{fill:#FFFFFF;}
</style>
<g>
	<g>
		<g>
			<g>
				<path d="M245.64,709.91v5.84l-1.8,0.46c-4.15,1.05-8.33,2.11-12.5,3.15l-15.98,3.99c-18.61,4.65-37.87,9.45-56.81,14.11
					c-1.72,0.42-3.39,0.73-4.99,0.91c-10.19-7.06-20-14.82-29.24-23.15C164.71,713.44,205.11,711.68,245.64,709.91z"/>
			</g>
			<g>
				<path d="M306,625.82l-11.32,12.71l-1.72-1.45c-2.55-2.16-5.08-4.3-7.63-6.46l-36.03-30.59c-17.97-15.25-35.94-30.52-53.91-45.77
					c-14.11-11.98-28.24-23.95-42.36-35.93c-11-9.33-22.01-18.66-33.01-28c-26.86-22.79-53.75-45.61-80.6-68.44
					c3.09-10.96,6.82-21.8,11.14-32.24c2.99-7.22,6.32-14.43,9.92-21.43c4.68-9.11,9.87-18.04,15.46-26.58l65.09,80.41
					C196.07,490.02,251.01,557.88,306,625.82z"/>
			</g>
			<g>
				<path d="M285.62,648.66l-14.67,16.44c-18.84-8.25-37.66-16.53-56.49-24.83l-46.98-20.67c-44.07-19.4-88.16-38.8-132.3-58.17
					c-3.32-15.46-5.38-31.35-6.14-47.26c-0.22-4.53-0.35-9.21-0.35-13.96c0-3.57,0.07-7.28,0.21-11.04
					c0.47-12.49,1.75-24.95,3.78-37.12C117.26,517.78,201.36,583.16,285.62,648.66z"/>
			</g>
			<g>
				<path d="M261.34,675.87l-9.81,11.01c-2.53,2.83-4.3,6.2-5.21,9.85l-14.24-0.46c-16.1-0.51-32.19-1.03-48.29-1.56
					c-27.52-0.91-55.01-1.81-82.52-2.77c-10.44-11.81-19.98-24.55-28.37-37.92c-4.55-7.23-8.82-14.73-12.67-22.32
					c-5.74-11.22-10.78-22.9-14.97-34.8L261.34,675.87z"/>
			</g>
			<g>
				<g>
					<path d="M515.75,715.22c-9.24,8.33-19.05,16.1-29.24,23.15c-1.6-0.17-3.27-0.48-4.99-0.91c-19.12-4.7-38.54-9.55-57.33-14.24
						l-15.46-3.87c-4.2-1.04-8.42-2.12-12.6-3.17l-1.71-0.43v-5.84C434.96,711.68,475.36,713.44,515.75,715.22z"/>
				</g>
				<g>
					<path d="M600.65,421.88c-26.86,22.83-53.73,45.65-80.6,68.44c-11.17,9.47-22.33,18.95-33.51,28.41
						c-13.96,11.84-27.91,23.67-41.87,35.52c-17.37,14.74-34.75,29.5-52.11,44.25l-37.82,32.12c-2.58,2.19-5.16,4.37-7.76,6.57
						l-1.59,1.34l-11.33-12.71c55-67.93,109.94-135.79,164.97-203.78l65.09-80.41c5.59,8.53,10.79,17.46,15.46,26.58
						c3.6,7.01,6.93,14.21,9.91,21.43C593.81,400.08,597.56,410.92,600.65,421.88z"/>
				</g>
				<g>
					<path d="M611.35,500.2c0,4.75-0.11,9.44-0.33,13.98c-0.76,15.89-2.82,31.78-6.15,47.25c-43.73,19.2-87.44,38.43-131.14,57.67
						l-48.12,21.18c-16.73,7.38-36.46,16.06-56.5,24.83l-14.66-16.44c84.27-65.5,168.35-130.88,252.92-196.61
						c2.03,12.17,3.31,24.63,3.78,37.12C611.29,492.93,611.35,496.63,611.35,500.2z"/>
				</g>
				<g>
					<path d="M594.81,596.9c-4.2,11.89-9.23,23.57-14.97,34.81c-3.86,7.58-8.12,15.08-12.67,22.31
						c-8.4,13.37-17.94,26.12-28.37,37.92c-27.52,0.95-55.01,1.86-82.52,2.77c-16.1,0.53-32.19,1.05-48.29,1.56l-14.25,0.46
						c-0.89-3.65-2.67-7.01-5.18-9.83l-9.83-11.02L594.81,596.9z"/>
				</g>
			</g>
		</g>
		<g>
			<path d="M1840.71,623.65c0-14.58,10.59-25.18,25.41-25.18c14.58,0,25.18,10.71,25.18,25.18c0,14.7-10.59,25.41-25.18,25.41
				C1851.3,649.06,1840.71,638.34,1840.71,623.65 M1866.12,643.36c11.28,0,19.37-8.43,19.37-19.71c0-11.17-8.09-19.6-19.37-19.6
				c-11.39,0-19.6,8.32-19.6,19.6C1846.52,635.04,1854.72,643.36,1866.12,643.36 M1856.77,609.75h10.82c3.08,0,9.91,1.48,9.91,8.89
				c0,4.9-2.85,7.29-5.92,8.2l6.83,10.25h-6.38l-6.5-9.68h-2.96v9.68h-5.81V609.75z M1866.91,622.28c2.28,0,4.22-0.91,4.22-3.76
				c0-2.62-2.05-3.65-4.1-3.65h-4.44v7.41H1866.91z"/>
			<polygon points="943.84,433.8 904.75,433.8 860.14,616.46 860.14,433.8 821.78,433.8 814.97,433.8 775.87,433.8 724.29,646.2 
				770.2,646.2 814.97,461.84 814.97,646.2 852.88,646.2 860.14,646.2 898.79,646.2 943.84,461.74 943.84,646.2 988.74,646.2 
				988.74,433.8 950.66,433.8 			"/>
			<path d="M1116.52,427.91c-61.73,0-111.96,50.22-111.96,111.96c0,61.88,50.22,112.22,111.96,112.22
				c61.88,0,112.22-50.34,112.22-112.22c0-30.09-11.67-58.27-32.87-79.35C1174.74,439.49,1146.56,427.91,1116.52,427.91
				 M1183.57,540.13c0,36.83-30.08,66.79-67.05,66.79c-36.83,0-66.79-29.96-66.79-66.79c0-36.97,29.96-67.05,66.79-67.05
				C1153.49,473.08,1183.57,503.16,1183.57,540.13"/>
			<path d="M1336.67,559.51h63.42v28.61c-12.66,12.14-29.16,18.8-46.72,18.8c-17.91,0-34.67-7.02-47.23-19.83
				c-12.61-12.61-19.56-29.38-19.56-47.23c0-17.77,6.97-34.65,19.56-47.5c12.61-12.61,29.38-19.56,47.23-19.56
				c18.34,0,35.46,7.29,48.19,20.52l5.71,5.94l32.25-31.84l-5.71-5.79c-21.45-21.75-50.02-33.73-80.45-33.73
				c-29.95,0-58.03,11.58-79.07,32.62c-20.9,20.9-32.89,49.82-32.89,79.34c0,29.65,11.66,57.81,32.85,79.3
				c20.94,21.23,49.03,32.93,79.11,32.93c30.26,0,58.83-12.07,80.45-34l0.19-0.19c3.7-4.01,6.78-7.72,9.68-11.68l1.58-2.15v-89.73
				h-108.59V559.51z"/>
			<path d="M1592.52,566.36c0,22.75-17.94,40.56-40.83,40.56c-22.75,0-40.56-17.82-40.56-40.56V433.8h-45.17v132.56
				c0,47.27,38.46,85.73,85.73,85.73c47.42,0,86-38.46,86-85.73V433.8h-45.17V566.36z"/>
			<polygon points="1706.72,601.03 1706.72,433.8 1661.55,433.8 1661.55,646.2 1833.55,646.2 1833.55,601.03 			"/>
		</g>
	</g>
</g>
</svg>
