<?xml version="1.0" encoding="UTF-8"?><svg id="Layer_2" xmlns="http://www.w3.org/2000/svg" viewBox="0 0 1156.92 232.95"><defs><style>.cls-1{fill:#fff;stroke-width:0px;}</style></defs><g id="Layer_1-2"><path class="cls-1" d="m1119.61,18.66c0-10.77,7.89-18.66,18.74-18.66s18.57,7.97,18.57,18.66-7.8,18.74-18.57,18.74-18.74-7.97-18.74-18.74m18.74,15.01c8.65,0,14.84-6.36,14.84-15.01s-6.19-15.01-14.84-15.01-15.01,6.36-15.01,15.01,6.27,15.01,15.01,15.01m-6.7-25.36h7.71c3.05,0,7.21,1.69,7.21,6.44,0,3.39-1.95,5.43-4.5,6.19l5.26,7.72h-4.24l-4.92-7.38h-2.8v7.38h-3.73V8.31Zm7.46,9.58c1.95,0,3.47-.93,3.47-3.14s-1.61-3.05-3.56-3.05h-3.65v6.19h3.73Z"/><polygon class="cls-1" points="227.97 6.29 187.38 6.29 141.06 195.96 141.06 6.29 101.23 6.29 94.16 6.29 53.56 6.29 0 226.84 47.67 226.84 94.16 35.41 94.16 226.84 133.52 226.84 141.06 226.84 181.19 226.84 227.97 35.31 227.97 226.84 274.59 226.84 274.59 6.29 235.05 6.29 227.97 6.29"/><path class="cls-1" d="m407.27.17c-64.1,0-116.25,52.15-116.25,116.25s52.15,116.53,116.25,116.53,116.53-52.27,116.53-116.53c0-31.24-12.12-60.5-34.13-82.39C467.72,12.2,438.46.17,407.27.17m69.63,116.53c0,38.24-31.23,69.35-69.63,69.35s-69.35-31.11-69.35-69.35,31.11-69.62,69.35-69.62,69.63,31.23,69.63,69.62"/><path class="cls-1" d="m635.87,136.82h65.85v29.71c-13.14,12.6-30.28,19.52-48.51,19.52s-35.99-7.29-49.04-20.59c-13.1-13.1-20.31-30.51-20.31-49.04s7.23-35.98,20.31-49.32c13.09-13.1,30.51-20.31,49.04-20.31s36.82,7.57,50.04,21.3l5.93,6.17,33.49-33.06-5.93-6.01C714.47,12.61,684.8.17,653.2.17s-60.26,12.03-82.1,33.87c-21.7,21.7-34.15,51.73-34.15,82.38s12.11,60.03,34.1,82.34c21.74,22.05,50.91,34.19,82.14,34.19s61.08-12.54,83.53-35.3l.19-.2c3.84-4.17,7.04-8.02,10.05-12.13l1.63-2.23v-93.17h-112.75v46.9Z"/><path class="cls-1" d="m901.53,143.93c0,23.62-18.62,42.12-42.4,42.12s-42.12-18.5-42.12-42.12V6.29h-46.9v137.64c0,49.09,39.94,89.02,89.02,89.02s89.3-39.94,89.3-89.02V6.29h-46.9v137.64Z"/><polygon class="cls-1" points="1020.1 179.94 1020.1 6.29 973.2 6.29 973.2 226.84 1151.8 226.84 1151.8 179.94 1020.1 179.94"/></g></svg>