<?xml version="1.0" encoding="UTF-8"?><svg id="Layer_2" xmlns="http://www.w3.org/2000/svg" viewBox="0 0 1170.4 224.83"><defs><style>.cls-1{fill:#fff;stroke-width:0px;}</style></defs><g id="Layer_1-2"><path class="cls-1" d="m1119.67,196.31c0-14.63,10.62-25.25,25.48-25.25s25.25,10.74,25.25,25.25-10.63,25.48-25.25,25.48-25.48-10.74-25.48-25.48m25.48,19.77c11.31,0,19.42-8.46,19.42-19.77s-8.11-19.65-19.42-19.65-19.65,8.34-19.65,19.65,8.23,19.77,19.65,19.77m-9.37-33.71h10.85c3.08,0,9.94,1.49,9.94,8.91,0,4.91-2.86,7.31-5.94,8.23l6.85,10.28h-6.4l-6.51-9.71h-2.97v9.71h-5.83v-27.42Zm10.17,12.57c2.29,0,4.23-.92,4.23-3.77,0-2.63-2.06-3.66-4.11-3.66h-4.46v7.43h4.34Z"/><polygon class="cls-1" points="220.19 5.9 180.98 5.9 136.25 189.1 136.25 5.9 97.77 5.9 90.94 5.9 51.73 5.9 0 218.93 46.04 218.93 90.94 34.03 90.94 218.93 128.96 218.93 136.25 218.93 175.01 218.93 220.19 33.93 220.19 218.93 265.22 218.93 265.22 5.9 227.03 5.9 220.19 5.9"/><path class="cls-1" d="m393.37,0c-61.91,0-112.28,50.37-112.28,112.28s50.37,112.55,112.28,112.55,112.55-50.49,112.55-112.55c0-30.18-11.71-58.44-32.97-79.58C451.76,11.61,423.49,0,393.37,0m67.25,112.55c0,36.93-30.17,66.98-67.25,66.98s-66.98-30.05-66.98-66.98,30.05-67.25,66.98-67.25,67.25,30.17,67.25,67.25"/><path class="cls-1" d="m614.16,131.98h63.6v28.7c-12.69,12.17-29.25,18.85-46.85,18.85s-34.77-7.04-47.36-19.88c-12.65-12.65-19.62-29.47-19.62-47.36s6.99-34.75,19.62-47.63c12.65-12.65,29.47-19.61,47.36-19.61s35.56,7.31,48.33,20.58l5.73,5.95,32.35-31.93-5.73-5.81C690.08,12.01,661.43,0,630.91,0s-58.2,11.62-79.3,32.71c-20.96,20.96-32.98,49.96-32.98,79.57s11.7,57.98,32.94,79.53c21,21.3,49.17,33.02,79.34,33.02s59-12.11,80.68-34.1l.19-.19c3.71-4.02,6.8-7.75,9.71-11.71l1.58-2.15v-90h-108.9v45.3Z"/><path class="cls-1" d="m870.76,138.85c0,22.81-17.99,40.68-40.95,40.68s-40.68-17.87-40.68-40.68V5.9h-45.3v132.94c0,47.41,38.57,85.98,85.98,85.98s86.25-38.57,86.25-85.98V5.9h-45.3v132.94Z"/><polygon class="cls-1" points="985.28 173.63 985.28 5.9 939.98 5.9 939.98 218.93 1112.49 218.93 1112.49 173.63 985.28 173.63"/></g></svg>