<?xml version="1.0" encoding="utf-8"?>
<!-- Generator: Adobe Illustrator 28.0.0, SVG Export Plug-In . SVG Version: 6.00 Build 0)  -->
<svg version="1.1" id="Layer_1" xmlns="http://www.w3.org/2000/svg" xmlns:xlink="http://www.w3.org/1999/xlink" x="0px" y="0px"
	 viewBox="0 0 1920 1080" style="enable-background:new 0 0 1920 1080;" xml:space="preserve">
<style type="text/css">
	.st0{fill:#FFFFFF;}
</style>
<g>
	<g>
		<g>
			<g>
				<path class="st0" d="M186.4,654.16v3.92l-1.21,0.31c-2.79,0.71-5.6,1.42-8.4,2.12l-10.74,2.68
					c-12.51,3.12-25.45,6.35-38.17,9.48c-1.16,0.28-2.27,0.49-3.35,0.61c-6.85-4.74-13.44-9.96-19.65-15.56
					C132.02,656.54,159.17,655.36,186.4,654.16z"/>
			</g>
			<g>
				<path class="st0" d="M226.95,597.66l-7.61,8.54l-1.16-0.97c-1.72-1.45-3.42-2.89-5.12-4.34l-24.21-20.56
					c-12.07-10.25-24.15-20.51-36.22-30.76c-9.48-8.05-18.97-16.09-28.46-24.14c-7.39-6.27-14.79-12.54-22.18-18.81
					c-18.05-15.31-36.11-30.65-54.15-45.99c2.07-7.37,4.58-14.65,7.48-21.66c2.01-4.85,4.25-9.7,6.67-14.4
					c3.14-6.12,6.63-12.12,10.39-17.86l43.74,54.03C153.09,506.42,190.01,552.02,226.95,597.66z"/>
			</g>
			<g>
				<path class="st0" d="M213.26,613.01l-9.86,11.05c-12.66-5.54-25.31-11.11-37.95-16.68l-31.56-13.89
					C104.27,580.45,74.65,567.41,45,554.4c-2.23-10.39-3.62-21.06-4.12-31.76c-0.15-3.04-0.23-6.19-0.23-9.38
					c0-2.4,0.05-4.89,0.14-7.42c0.32-8.39,1.17-16.76,2.54-24.94C100.14,525.07,156.64,569,213.26,613.01z"/>
			</g>
			<g>
				<path class="st0" d="M196.95,631.29l-6.59,7.4c-1.7,1.9-2.89,4.17-3.5,6.62l-9.57-0.31c-10.82-0.34-21.63-0.69-32.45-1.05
					c-18.49-0.61-36.96-1.22-55.44-1.86c-7.02-7.93-13.42-16.5-19.06-25.48c-3.06-4.86-5.92-9.9-8.52-15
					c-3.86-7.54-7.24-15.39-10.06-23.38L196.95,631.29z"/>
			</g>
			<g>
				<g>
					<path class="st0" d="M367.89,657.73c-6.21,5.6-12.8,10.82-19.65,15.56c-1.07-0.12-2.2-0.32-3.35-0.61
						c-12.85-3.16-25.9-6.42-38.52-9.57l-10.39-2.6c-2.82-0.7-5.66-1.42-8.47-2.13l-1.15-0.29v-3.92
						C313.6,655.36,340.75,656.54,367.89,657.73z"/>
				</g>
				<g>
					<path class="st0" d="M424.93,460.63c-18.05,15.34-36.1,30.67-54.15,45.99c-7.51,6.37-15.01,12.73-22.51,19.09
						c-9.38,7.96-18.76,15.91-28.13,23.86c-11.67,9.91-23.35,19.82-35.01,29.73l-25.41,21.58c-1.73,1.47-3.47,2.93-5.22,4.42
						l-1.07,0.9l-7.62-8.54c36.95-45.65,73.87-91.24,110.85-136.92l43.74-54.03c3.76,5.73,7.25,11.73,10.39,17.86
						c2.42,4.71,4.66,9.55,6.66,14.4C420.34,445.99,422.86,453.27,424.93,460.63z"/>
				</g>
				<g>
					<path class="st0" d="M432.12,513.26c0,3.19-0.07,6.34-0.23,9.39c-0.51,10.67-1.89,21.36-4.13,31.75
						c-29.38,12.9-58.75,25.82-88.12,38.75l-32.33,14.23c-11.24,4.96-24.5,10.79-37.96,16.68l-9.85-11.05
						c56.62-44.01,113.11-87.94,169.94-132.1c1.37,8.17,2.22,16.55,2.54,24.94C432.08,508.37,432.12,510.86,432.12,513.26z"/>
				</g>
				<g>
					<path class="st0" d="M421.01,578.23c-2.82,7.99-6.2,15.84-10.06,23.39c-2.59,5.09-5.46,10.13-8.52,14.99
						c-5.64,8.98-12.06,17.55-19.06,25.48c-18.49,0.64-36.96,1.25-55.44,1.86c-10.82,0.36-21.63,0.71-32.45,1.05l-9.57,0.31
						c-0.6-2.45-1.79-4.71-3.48-6.61l-6.61-7.41L421.01,578.23z"/>
				</g>
			</g>
		</g>
		<g>
			<polygon class="st0" points="762.76,406.71 713.7,406.71 657.72,635.96 657.72,406.71 609.58,406.71 601.03,406.71 
				551.96,406.71 487.23,673.29 544.85,673.29 601.03,441.91 601.03,673.29 648.6,673.29 657.72,673.29 706.23,673.29 
				762.76,441.78 762.76,673.29 819.12,673.29 819.12,406.71 771.33,406.71 			"/>
			<path class="st0" d="M979.48,399.33c-77.48,0-140.51,63.03-140.51,140.51c0,77.66,63.03,140.84,140.51,140.84
				c77.66,0,140.84-63.18,140.84-140.84c0-37.76-14.65-73.13-41.25-99.59C1052.55,413.86,1017.18,399.33,979.48,399.33
				 M1063.64,540.17c0,46.22-37.75,83.82-84.15,83.82c-46.22,0-83.82-37.6-83.82-83.82c0-46.4,37.6-84.15,83.82-84.15
				C1025.88,456.01,1063.64,493.77,1063.64,540.17"/>
			<path class="st0" d="M1255.78,564.48h79.59v35.91c-15.89,15.24-36.6,23.59-58.63,23.59c-22.48,0-43.51-8.81-59.27-24.88
				c-15.83-15.83-24.55-36.88-24.55-59.27c0-22.3,8.74-43.49,24.55-59.61c15.83-15.83,36.88-24.55,59.27-24.55
				c23.02,0,44.5,9.15,60.48,25.75l7.17,7.45l40.48-39.96l-7.17-7.27c-26.92-27.3-62.77-42.33-100.96-42.33
				c-37.59,0-72.83,14.54-99.23,40.94c-26.23,26.23-41.27,62.52-41.27,99.57c0,37.21,14.64,72.55,41.22,99.52
				c26.27,26.65,61.53,41.33,99.28,41.33c37.97,0,73.83-15.15,100.96-42.67l0.23-0.24c4.65-5.04,8.51-9.69,12.15-14.66l1.98-2.69
				V507.79h-136.28V564.48z"/>
			<path class="st0" d="M1576.87,573.08c0,28.55-22.51,50.91-51.24,50.91c-28.55,0-50.91-22.36-50.91-50.91V406.71h-56.69v166.36
				c0,59.33,48.27,107.6,107.6,107.6c59.52,0,107.93-48.27,107.93-107.6V406.71h-56.69V573.08z"/>
			<polygon class="st0" points="1720.18,616.6 1720.18,406.71 1663.5,406.71 1663.5,673.29 1879.36,673.29 1879.36,616.6 			"/>
		</g>
	</g>
</g>
</svg>
