<?xml version="1.0" encoding="UTF-8"?><svg id="Layer_2" xmlns="http://www.w3.org/2000/svg" viewBox="0 0 605.49 412.3"><defs><style>.cls-1{fill:#fff;stroke-width:0px;}</style></defs><g id="Layer_1-2"><path class="cls-1" d="m225.44,382.72v6.07l-1.87.48c-4.32,1.09-8.66,2.19-12.99,3.27l-16.61,4.15c-19.35,4.83-39.36,9.82-59.04,14.66-1.79.44-3.52.76-5.18.94-10.6-7.33-20.79-15.4-30.39-24.06,41.97-1.84,83.96-3.67,126.08-5.52"/><path class="cls-1" d="m288.17,295.33l-11.76,13.21-1.79-1.51c-2.66-2.24-5.28-4.48-7.93-6.72l-37.44-31.79c-18.68-15.85-37.35-31.72-56.02-47.57-14.67-12.45-29.35-24.89-44.02-37.33-11.43-9.69-22.87-19.4-34.31-29.1-27.91-23.69-55.85-47.4-83.75-71.12,3.21-11.39,7.09-22.66,11.57-33.51,3.1-7.5,6.57-15,10.31-22.27C37.87,18.15,43.28,8.87,49.09,0l67.65,83.56c57.19,70.65,114.29,141.17,171.43,211.77"/><path class="cls-1" d="m266.99,319.07l-15.25,17.09c-19.57-8.57-39.14-17.18-58.7-25.8l-48.82-21.49c-45.8-20.15-91.62-40.32-137.48-60.45-3.46-16.07-5.6-32.58-6.38-49.12-.23-4.7-.36-9.58-.36-14.51,0-3.71.07-7.56.22-11.47.49-12.98,1.82-25.93,3.93-38.57,87.88,68.3,175.26,136.24,262.84,204.31"/><path class="cls-1" d="m241.76,347.34l-10.19,11.45c-2.63,2.93-4.47,6.44-5.41,10.23l-14.79-.47c-16.73-.53-33.46-1.07-50.19-1.62-28.6-.94-57.17-1.88-85.75-2.88-10.86-12.27-20.76-25.52-29.49-39.41-4.73-7.52-9.16-15.31-13.17-23.2-5.96-11.66-11.2-23.8-15.55-36.16l224.55,82.07Z"/><path class="cls-1" d="m506.14,388.23c-9.6,8.66-19.8,16.73-30.39,24.06-1.66-.18-3.41-.5-5.19-.94-19.87-4.89-40.05-9.92-59.58-14.8l-16.07-4.02c-4.37-1.08-8.75-2.21-13.1-3.3l-1.78-.46v-6.07c42.13,1.84,84.12,3.67,126.09,5.52"/><path class="cls-1" d="m594.37,83.4c-27.91,23.73-55.84,47.44-83.76,71.12-11.61,9.85-23.21,19.7-34.83,29.53-14.51,12.31-29,24.6-43.5,36.91-18.05,15.32-36.11,30.66-54.16,45.98l-39.3,33.38c-2.68,2.28-5.37,4.54-8.07,6.83l-1.65,1.39-11.78-13.21c57.16-70.6,114.25-141.12,171.45-211.76L556.42,0c5.81,8.87,11.21,18.15,16.07,27.62,3.74,7.28,7.21,14.77,10.3,22.27,4.49,10.86,8.38,22.12,11.59,33.51"/><path class="cls-1" d="m605.49,164.79c0,4.94-.12,9.81-.35,14.52-.79,16.51-2.92,33.04-6.39,49.1-45.44,19.95-90.86,39.94-136.28,59.93l-50,22.01c-17.39,7.67-37.89,16.69-58.72,25.8l-15.23-17.09c87.57-68.07,174.95-136.01,262.84-204.32,2.11,12.64,3.44,25.6,3.93,38.57.14,3.91.21,7.76.21,11.47"/><path class="cls-1" d="m588.3,265.27c-4.37,12.36-9.59,24.5-15.56,36.17-4.01,7.87-8.44,15.67-13.18,23.19-8.72,13.89-18.65,27.14-29.48,39.41-28.6,1-57.17,1.93-85.75,2.88-16.73.55-33.46,1.1-50.19,1.62l-14.81.47c-.93-3.79-2.77-7.28-5.39-10.22l-10.21-11.46,224.56-82.07Z"/></g></svg>