<svg width="25" height="24" viewBox="0 0 25 24" fill="none" xmlns="http://www.w3.org/2000/svg">
<g opacity="0.7">
<path d="M17.9668 1.92773H7.9668C5.20537 1.92773 2.9668 4.16631 2.9668 6.92773V16.9277C2.9668 19.6892 5.20537 21.9277 7.9668 21.9277H17.9668C20.7282 21.9277 22.9668 19.6892 22.9668 16.9277V6.92773C22.9668 4.16631 20.7282 1.92773 17.9668 1.92773Z" stroke="white" stroke-width="2" stroke-linecap="round" stroke-linejoin="round"/>
<path d="M18.4665 6.42773H18.4765M16.9665 11.2977C17.0899 12.13 16.9478 12.98 16.5603 13.7267C16.1728 14.4735 15.5597 15.0791 14.8081 15.4574C14.0566 15.8357 13.205 15.9673 12.3743 15.8337C11.5436 15.7 10.7763 15.3078 10.1813 14.7129C9.58642 14.118 9.19424 13.3506 9.06057 12.5199C8.92691 11.6893 9.05857 10.8376 9.43683 10.0861C9.81509 9.33459 10.4207 8.72148 11.1675 8.33398C11.9143 7.94648 12.7643 7.80432 13.5965 7.92773C14.4454 8.05362 15.2314 8.4492 15.8382 9.05604C16.445 9.66288 16.8406 10.4488 16.9665 11.2977Z" stroke="white" stroke-width="2" stroke-linecap="round" stroke-linejoin="round"/>
</g>
</svg>
