<svg width="25" height="24" viewBox="0 0 25 24" fill="none" xmlns="http://www.w3.org/2000/svg">
<g opacity="0.7">
<path d="M19.9668 2.92773C20.4972 2.92773 21.0059 3.13845 21.381 3.51352C21.7561 3.88859 21.9668 4.3973 21.9668 4.92773V18.9277C21.9668 19.4582 21.7561 19.9669 21.381 20.3419C21.0059 20.717 20.4972 20.9277 19.9668 20.9277H5.9668C5.43636 20.9277 4.92766 20.717 4.55258 20.3419C4.17751 19.9669 3.9668 19.4582 3.9668 18.9277V4.92773C3.9668 4.3973 4.17751 3.88859 4.55258 3.51352C4.92766 3.13845 5.43636 2.92773 5.9668 2.92773H19.9668ZM19.4668 18.4277V13.1277C19.4668 12.2631 19.1233 11.4339 18.512 10.8226C17.9006 10.2112 17.0714 9.86773 16.2068 9.86773C15.3568 9.86773 14.3668 10.3877 13.8868 11.1677V10.0577H11.0968V18.4277H13.8868V13.4977C13.8868 12.7277 14.5068 12.0977 15.2768 12.0977C15.6481 12.0977 16.0042 12.2452 16.2667 12.5078C16.5293 12.7703 16.6768 13.1264 16.6768 13.4977V18.4277H19.4668ZM7.8468 8.48773C8.29236 8.48773 8.71968 8.31074 9.03474 7.99567C9.3498 7.68061 9.5268 7.2533 9.5268 6.80773C9.5268 5.87773 8.7768 5.11773 7.8468 5.11773C7.39858 5.11773 6.96872 5.29579 6.65179 5.61272C6.33485 5.92966 6.1568 6.35952 6.1568 6.80773C6.1568 7.73773 6.9168 8.48773 7.8468 8.48773ZM9.2368 18.4277V10.0577H6.4668V18.4277H9.2368Z" fill="white"/>
</g>
</svg>
