<svg width="25" height="24" viewBox="0 0 25 24" fill="none" xmlns="http://www.w3.org/2000/svg">
<g opacity="0.7">
<path d="M10.9668 14.9277L16.1568 11.9277L10.9668 8.92773V14.9277ZM22.5268 7.09773C22.6568 7.56773 22.7468 8.19773 22.8068 8.99773C22.8768 9.79773 22.9068 10.4877 22.9068 11.0877L22.9668 11.9277C22.9668 14.1177 22.8068 15.7277 22.5268 16.7577C22.2768 17.6577 21.6968 18.2377 20.7968 18.4877C20.3268 18.6177 19.4668 18.7077 18.1468 18.7677C16.8468 18.8377 15.6568 18.8677 14.5568 18.8677L12.9668 18.9277C8.7768 18.9277 6.1668 18.7677 5.1368 18.4877C4.2368 18.2377 3.6568 17.6577 3.4068 16.7577C3.2768 16.2877 3.1868 15.6577 3.1268 14.8577C3.0568 14.0577 3.0268 13.3677 3.0268 12.7677L2.9668 11.9277C2.9668 9.73773 3.1268 8.12773 3.4068 7.09773C3.6568 6.19773 4.2368 5.61773 5.1368 5.36773C5.6068 5.23773 6.4668 5.14773 7.7868 5.08773C9.0868 5.01773 10.2768 4.98773 11.3768 4.98773L12.9668 4.92773C17.1568 4.92773 19.7668 5.08773 20.7968 5.36773C21.6968 5.61773 22.2768 6.19773 22.5268 7.09773Z" fill="white"/>
</g>
</svg>
